<svg width="24" height="24" viewBox="0 0 24 24" fill="none" xmlns="http://www.w3.org/2000/svg">
<g clip-path="url(#clip0_5_22502)">
<path d="M13.1713 4.93099C13.1713 4.93099 13.1959 4.84089 13.2696 4.84089C13.3433 4.84089 13.5399 4.79994 13.5973 4.84089C13.6546 4.88185 13.63 5.00471 13.5645 5.00471C13.499 5.00471 13.1386 4.98833 13.1713 4.93099ZM15.1863 4.67707C15.3988 4.7828 15.621 4.86783 15.8498 4.93099C15.8734 4.93503 15.8975 4.93343 15.9203 4.92631C15.9431 4.91919 15.9638 4.90676 15.9809 4.89004C16.0464 4.81632 16.1365 4.67707 16.0464 4.63611C15.9154 4.57058 15.7024 4.42314 15.3665 4.51325C15.0307 4.60335 15.1372 4.66069 15.1863 4.67707ZM4.65255 9.85386C4.65255 9.85386 4.45597 9.86205 4.48873 9.6327C4.52149 9.40335 4.78361 9.12485 4.93924 9.01836C5.09487 8.91188 5.17678 8.82997 5.17678 8.66615C5.17678 8.50232 5.41433 8.37127 5.47167 8.28935C5.529 8.20744 5.74197 8.10096 5.70921 8.24021C5.67644 8.37946 5.59453 8.43679 5.59453 8.617C5.59453 8.7972 5.6273 8.92007 5.7174 8.73168C5.8075 8.54328 6.3645 7.66683 6.92969 7.20813C7.49487 6.74942 8.24846 6.24157 8.34675 6.22519C8.44504 6.20881 8.50238 6.27434 8.50238 6.38082C8.50238 6.48731 8.23208 6.59379 8.10102 6.70847C7.96996 6.82314 6.3645 8.09277 5.90579 9.06751C5.81184 9.1982 5.7048 9.31896 5.58634 9.42792C5.43071 9.55898 5.40614 9.74738 5.19317 9.96034C4.9802 10.1733 4.98839 10.3945 4.8819 10.4272C4.77542 10.46 4.63617 10.3289 4.71808 10.0504C4.79999 9.77195 5.05392 9.59993 5.23412 9.39516C5.41433 9.19038 5.47986 9.01017 5.43071 9.01017C5.38156 9.01017 5.11945 9.06751 5.04573 9.27229C4.97201 9.47707 4.97201 9.56717 4.8819 9.64908C4.77542 9.74738 4.70989 9.86205 4.65255 9.85386ZM8.61706 6.10232C8.59763 6.11138 8.58074 6.12509 8.56788 6.14223C8.55502 6.15938 8.54659 6.17943 8.54334 6.20062C8.54087 6.22631 8.5466 6.25211 8.55972 6.27434C8.60887 6.33987 8.72354 6.29072 8.80545 6.217C8.98499 6.08765 9.17089 5.96736 9.36245 5.85659C9.36245 5.85659 8.83003 5.98765 8.61706 6.10232Z" fill="black"/>
<path d="M5.16042 10.7959C5.16042 10.7959 5.0867 10.9106 4.98021 10.7959C4.87373 10.6813 5.01298 10.4437 5.19318 10.2799C5.37339 10.1161 5.88943 9.29697 6.02868 9.06762C6.38478 8.55879 6.80613 8.09889 7.28192 7.6997C7.82253 7.26557 8.78909 6.48742 9.28056 6.20892C9.77202 5.93042 10.4437 5.56182 11.1563 5.42257C11.869 5.28332 13.3352 5.398 15.129 6.51199C15.1517 6.56306 15.1532 6.62103 15.1333 6.67322C15.1133 6.72541 15.0735 6.76757 15.0225 6.79049C15.0225 6.79049 13.1877 5.64373 11.5986 5.70107C10.0096 5.75841 8.71537 6.81506 7.56042 7.83076C6.40547 8.84646 6.53653 8.96114 6.38909 9.14134C6.24165 9.32155 5.77475 9.96865 5.69284 10.0833C5.61093 10.198 5.34881 10.6567 5.16042 10.7959ZM15.5877 5.5782C13.6219 4.81643 12.3604 5.00482 11.9918 5.08673C11.9805 5.08972 11.9703 5.09617 11.9628 5.10519C11.9553 5.11421 11.9507 5.12535 11.9498 5.13706C11.9489 5.14877 11.9517 5.16047 11.9578 5.17054C11.9638 5.1806 11.9729 5.18853 11.9836 5.19322C12.0875 5.22457 12.1947 5.24381 12.3031 5.25056C12.729 5.29151 13.114 5.38161 13.3925 5.37342C13.671 5.36523 14.3836 5.44714 14.8096 5.61097C15.2355 5.77479 15.4157 5.84032 15.4157 5.84032C15.4482 5.8397 15.4798 5.83021 15.5072 5.81289C15.5347 5.79556 15.5568 5.77105 15.5713 5.74202C15.6533 5.63554 15.5877 5.5782 15.5877 5.5782Z" fill="black"/>
<path d="M15.3829 6.01232C15.3829 6.01232 15.4567 6.27443 15.2109 6.29082C14.9652 6.3072 13.9659 5.70106 13.5809 5.6601C13.1959 5.61914 13.458 5.37341 13.9577 5.51266C14.4573 5.65191 15.3829 6.01232 15.3829 6.01232ZM14.0396 4.76727C14.0286 4.77118 14.0191 4.7784 14.0124 4.78793C14.0056 4.79747 14.002 4.80885 14.002 4.82051C14.002 4.83218 14.0056 4.84356 14.0124 4.85309C14.0191 4.86262 14.0286 4.86984 14.0396 4.87375C14.1782 4.93569 14.324 4.97973 14.4737 5.00481C14.7031 5.02119 15.3256 5.21778 15.6205 5.37341C15.8089 5.4717 15.9072 5.12768 15.7843 5.08672C15.5631 5.00481 15.0061 4.79184 14.8341 4.75089C14.6785 4.70993 14.2689 4.68536 14.0396 4.76727ZM10.6403 6.29901C13.286 5.9386 14.6621 7.2328 14.8341 7.20003C15.0061 7.16727 14.957 6.97887 14.957 6.97887C14.2935 6.42187 12.6717 5.76658 11.1645 5.95498C9.65734 6.14338 8.84642 7.1345 8.54334 7.31471C8.24027 7.49491 7.99454 7.87989 7.757 8.10924C7.51945 8.3386 7.17543 8.41232 7.07713 8.49423C6.97884 8.57614 5.59454 10.6239 5.41433 10.8451C5.23413 11.0662 5.18498 11.271 5.34061 11.3529C5.49624 11.4348 5.59454 11.1727 5.59454 11.1727C5.59454 11.1727 6.32355 9.97682 6.48737 9.78842C6.65119 9.60003 7.18362 8.77273 7.2901 8.64167C7.39659 8.51061 7.51945 8.53518 7.4785 8.64167C7.43754 8.74815 6.59386 9.96863 6.43822 10.157C6.28259 10.3454 5.60273 11.2792 5.56177 11.615C5.52082 11.9509 5.76655 12.0082 5.95495 11.5659C6.14334 11.1236 6.43003 10.5011 6.54471 10.3782C6.65938 10.2553 7.07713 9.78842 7.18362 9.57545C7.2901 9.36249 7.757 8.51061 8.1256 8.10105C8.49729 7.70774 8.906 7.35115 9.34607 7.03621C9.56368 6.88323 9.79385 6.74896 10.0341 6.63484C10.157 6.57751 10.37 6.33177 10.6403 6.29901Z" fill="black"/>
<path d="M7.73242 8.96111C7.73242 8.96111 8.37133 7.99456 9.05119 7.52767C9.73106 7.06077 10.1242 6.73313 10.3372 6.65122C10.5502 6.56931 11.2792 6.19251 12.9338 6.56931C14.5884 6.9461 14.785 7.48671 14.7113 7.59319C14.6375 7.69968 14.3754 7.53586 13.9986 7.33108C13.6218 7.1263 12.9092 6.80685 12.3358 6.82323C11.7625 6.83961 10.6321 7.23279 10.5584 7.29831C10.4846 7.36384 10.4764 7.16726 10.673 7.1263C10.8696 7.08535 10.9925 6.92971 11.1154 6.91333C11.2382 6.89695 11.4184 6.85599 11.4184 6.7577C11.4184 6.65941 11.0089 6.67579 10.8041 6.7577C10.5993 6.83961 9.80478 7.29012 9.65734 7.37203C9.5099 7.45395 9.31331 7.51128 9.28054 7.63415C9.24778 7.75702 9.00205 8.04371 8.87918 8.10923C8.75631 8.17476 8.14198 8.65804 8.07645 8.77271C8.04821 8.8379 7.99906 8.89181 7.93675 8.92593C7.87445 8.96005 7.80255 8.97243 7.73242 8.96111Z" fill="black"/>
<path d="M9.00208 8.1993C9.00208 8.1993 9.08399 8.32216 9.42801 8.06005C9.77204 7.79793 9.813 7.7406 9.84576 7.7406C9.87853 7.7406 9.78842 7.60954 9.72289 7.66688C9.65737 7.72421 9.01027 8.08462 9.00208 8.1993ZM9.95225 7.98633C9.95225 7.98633 9.85395 7.96176 10.0423 7.82251C10.2307 7.68326 11.4676 6.94606 12.3604 6.99521C13.2533 7.04435 14.2854 7.56858 14.4656 7.72421C14.6458 7.87984 14.5147 8.19111 14.4656 8.17472C14.4164 8.15834 13.3024 7.31466 12.5325 7.29009C11.7625 7.26551 10.9843 7.56039 10.6649 7.76517C10.3454 7.96995 10.2307 8.04367 9.95225 7.98633Z" fill="black"/>
<path d="M10.9516 7.93719C10.9423 7.93466 10.934 7.92957 10.9275 7.92251C10.9211 7.91545 10.9167 7.90671 10.915 7.89729C10.9133 7.88788 10.9143 7.87816 10.9178 7.86928C10.9214 7.8604 10.9274 7.8527 10.9352 7.84709C11.1979 7.67003 11.4935 7.54761 11.8045 7.4871C12.1155 7.4266 12.4355 7.42924 12.7454 7.49487C13.8512 7.73241 14.3099 8.25664 14.3345 8.37951C14.3591 8.50237 14.3181 8.78906 14.1543 8.73172C13.9905 8.67439 13.458 7.86347 12.598 7.78975C11.7707 7.71603 11.5823 8.08463 10.9516 7.93719Z" fill="black"/>
<path d="M12.0901 8.13376L11.9918 8.10099C11.9754 8.0928 11.9836 8.07642 11.9918 8.07642C12.1311 8.04365 12.598 7.95355 13.0239 8.10918C13.3268 8.23426 13.6002 8.42118 13.8266 8.65799C13.8306 8.66186 13.8331 8.66693 13.8338 8.6724C13.8344 8.67786 13.8333 8.6834 13.8304 8.68813C13.8276 8.69285 13.8233 8.69649 13.8181 8.69845C13.813 8.70041 13.8073 8.70059 13.8021 8.69894L12.0901 8.13376ZM6.12697 12.3112C6.12697 12.3112 6.07782 12.4669 5.93857 12.3522C5.79932 12.2375 5.88943 12.0573 5.93857 11.9262C5.98772 11.7952 6.36451 11.0252 6.45461 10.9351C6.54472 10.845 6.88055 10.4437 6.88055 10.3536C6.88055 10.2634 6.97066 10.6075 6.62663 11.1317C6.29898 11.6559 6.43004 11.7952 6.12697 12.3112ZM6.42185 12.8273C6.42185 12.8273 6.3727 12.9338 6.2826 12.8273C6.1925 12.7208 6.27441 12.4669 6.38089 12.2129C6.48738 11.959 6.63482 11.3856 6.70854 11.271C6.78226 11.1563 6.79045 11.4102 6.79045 11.4839C6.79045 11.5576 6.81502 11.959 6.67578 12.303C6.6099 12.4863 6.52479 12.662 6.42185 12.8273ZM6.84779 13.3269C6.84779 13.3269 6.7495 13.4908 6.62663 13.2942C6.58486 13.228 6.56269 13.1513 6.56269 13.073C6.56269 12.9947 6.58486 12.918 6.62663 12.8518C6.66758 12.7781 6.72492 12.5406 6.75769 12.4996C6.79045 12.4587 6.83141 12.557 6.84779 12.6798C6.86417 12.8027 6.93789 12.9419 6.93789 12.9993C6.93789 13.0566 6.92151 13.245 6.84779 13.3269ZM7.08533 13.5235C7.07029 13.4768 7.04819 13.4326 7.0198 13.3925C6.99523 13.3761 6.91332 13.4826 6.90513 13.5645C6.89694 13.6464 6.98704 13.6791 6.99523 13.7529C7.00342 13.8266 7.06895 13.7365 7.08533 13.6546C7.09528 13.6115 7.09528 13.5666 7.08533 13.5235ZM7.33926 11.0662C7.42079 10.6065 7.61813 10.1752 7.91264 9.81294C8.38772 9.25594 8.60888 9.16584 8.60888 9.16584C8.60888 9.16584 8.67441 9.14946 8.64165 9.28051C8.60888 9.41157 8.36315 9.71464 8.32219 9.80475C8.28124 9.89485 7.98636 10.1897 7.98636 10.2389C7.98636 10.288 8.11741 10.2471 8.1338 10.2716C8.15018 10.2962 8.20752 10.329 8.1338 10.501C8.06008 10.673 7.77339 11.2791 7.7652 11.4102C7.757 11.5413 7.33107 12.5242 7.29011 12.5242C7.24915 12.5242 7.15905 12.516 7.16724 12.2129C7.17543 11.9099 7.62595 10.7713 7.74881 10.5829C7.87168 10.3945 7.87987 10.3945 7.83072 10.4027C7.78158 10.4109 7.47851 10.7385 7.43755 10.9679C7.39659 11.1972 7.33926 11.0662 7.33926 11.0662ZM8.48601 10.9925C8.48601 10.9925 8.37134 11.2628 8.1338 11.2464C7.89625 11.23 8.25666 10.632 8.314 10.3781C8.37134 10.1242 8.81366 9.14946 8.90376 9.06754C8.99386 8.98563 9.2396 8.88734 9.28055 8.96925C9.32151 9.05116 9.1495 9.16584 9.05939 9.34604C8.96929 9.52625 8.69079 10.0341 8.66622 10.2143C8.64165 10.3945 8.48601 10.9925 8.48601 10.9925Z" fill="black"/>
<path d="M8.25665 11.5659C8.26436 11.546 8.26791 11.5248 8.26709 11.5035C8.26627 11.4823 8.2611 11.4614 8.25188 11.4422C8.24267 11.423 8.22962 11.4059 8.21353 11.3919C8.19744 11.378 8.17866 11.3675 8.15836 11.3611C8.00273 11.2956 7.99453 11.3447 7.92081 11.4676C7.84709 11.5904 7.37201 12.7372 7.37201 12.9092C7.37201 13.0812 7.42116 13.4007 7.47849 13.4498C7.53583 13.499 7.59317 13.4089 7.59317 13.286C7.61263 13.135 7.67519 12.9928 7.77337 12.8764C7.82223 12.8086 7.85624 12.7312 7.87317 12.6494C7.89011 12.5675 7.8896 12.483 7.87167 12.4014C7.8389 12.2048 8.15017 11.8853 8.15017 11.8853C8.1515 12.1151 8.14056 12.3448 8.1174 12.5734C8.08464 12.7782 7.87167 12.942 7.82252 13.0321C7.77337 13.1222 7.7488 13.4744 7.70785 13.5809C7.66713 13.7107 7.6587 13.8485 7.68327 13.9822C7.70785 14.0887 7.77337 14.3508 7.81433 14.1625C7.85529 13.9741 8.00273 13.4171 8.04368 13.4253C8.08464 13.4334 8.07645 14.0396 8.05187 14.1625C8.0273 14.2853 7.99453 14.8833 7.99453 14.957C7.99453 15.0307 7.77337 15.3665 7.73242 15.4894C7.69146 15.6123 7.44573 16.0628 7.44573 16.0874C7.44573 16.1119 7.69146 16.0874 7.8471 15.9645C7.90603 15.9132 7.95387 15.8505 7.98768 15.78C8.02149 15.7096 8.04054 15.633 8.04368 15.5549C8.04368 15.4567 8.0273 15.2191 8.08464 15.0799C8.14198 14.9406 8.28942 14.613 8.31399 14.4819C8.3345 14.1464 8.3345 13.8099 8.31399 13.4744C8.29761 13.286 8.33856 12.4915 8.3959 12.3276C8.45324 12.1638 8.46143 12.0819 8.50239 12.0819C8.54334 12.0819 8.51877 12.5816 8.50239 12.7372C8.486 12.8928 8.44505 13.4007 8.44505 13.4744C8.37499 14.1006 8.47399 14.7342 8.73174 15.3092C8.73174 15.3092 8.77269 15.4894 8.96928 15.3665C9.16587 15.2437 8.87918 14.6949 8.83003 14.5392C8.78088 14.3836 8.61706 13.5727 8.6744 13.458C8.73174 13.3433 9.05938 14.5884 9.06757 14.7113C9.07576 14.8341 9.11672 15.2191 9.18225 15.2273C9.24778 15.2355 9.51808 15.0717 9.51808 15.0389C9.51775 14.9516 9.49215 14.8662 9.44437 14.7932C9.37064 14.6703 8.97747 13.6628 8.90375 12.8273C8.83003 11.9918 8.96109 10.5665 9.02662 10.4191C9.09215 10.2717 9.39522 9.6 9.46894 9.49351C9.54266 9.38703 9.75563 8.9447 9.79658 8.92832C9.83754 8.91194 9.87849 8.91194 9.87849 8.96109C9.82841 9.13107 9.76824 9.29792 9.69829 9.46075C9.64914 9.6 9.38703 10.0177 9.33788 10.157C9.18816 10.5995 9.09459 11.0591 9.05938 11.5249C8.98566 12.2621 9.15768 13.5072 9.20682 13.7529C9.25597 13.9986 9.56723 14.8341 9.73925 14.9078C9.91126 14.9816 10.0587 14.7604 10.0341 14.7194C10.0096 14.6785 9.64914 14.0232 9.56723 13.7529C9.48532 13.4826 9.33788 12.8355 9.36245 12.688C9.38703 12.5406 9.57542 13.9167 10.2225 14.6375C10.2225 14.6375 10.3044 14.6867 10.4519 14.5884C10.5993 14.4901 10.5911 14.4082 10.4519 14.2526C10.3126 14.0969 9.83754 13.1795 9.77201 12.942C9.70648 12.7044 9.41979 11.9181 9.40341 11.8935C9.37203 11.615 9.38308 11.3333 9.43617 11.058C9.50989 10.714 9.61638 10.2307 9.62457 10.0997C9.63276 9.9686 9.84573 9.67372 9.89488 9.60819C9.94402 9.54266 10.0587 9.23139 10.116 9.01023C10.1734 8.78907 10.2881 8.64163 10.1898 8.62525C10.0915 8.60887 9.73105 8.66621 9.66553 8.73993C9.6 8.81365 9.33788 8.96928 8.78088 10.2389C8.78088 10.2389 8.62525 10.5338 8.62525 10.7058C8.62516 10.9286 8.55653 11.1459 8.42867 11.3283C8.38199 11.4147 8.32416 11.4946 8.25665 11.5659Z" fill="black"/>
<path d="M8.3877 14.9324C8.36834 14.9292 8.34851 14.9297 8.32937 14.9341C8.31022 14.9385 8.29214 14.9467 8.27616 14.9581C8.26017 14.9695 8.2466 14.984 8.23622 15.0007C8.22585 15.0174 8.21887 15.0359 8.21569 15.0553C8.199 15.2076 8.19353 15.3609 8.19931 15.514C8.19112 15.5959 8.09282 15.8007 8.1174 15.8171C8.14197 15.8335 8.33037 15.7843 8.42047 15.6778C8.52162 15.5674 8.58227 15.4259 8.59248 15.2765C8.59248 15.1372 8.54334 14.9324 8.3877 14.9324ZM10.7467 8.82187C10.7467 8.82187 10.8696 8.67443 10.8369 8.64166C10.8041 8.6089 10.6239 8.50241 10.5584 8.58432C10.391 8.82076 10.2586 9.08008 10.1652 9.35429C10.0996 9.60002 9.73924 10.2963 9.70648 10.4437C9.62526 10.8901 9.61973 11.347 9.69009 11.7952C9.78839 12.4997 10.4027 13.9331 10.673 14.2362C10.9433 14.5393 11.2055 14.2362 11.2055 14.2362L11.0007 13.9986C11.0007 13.9986 10.4928 13.0812 10.4273 12.9748C10.3618 12.8683 10.0095 12.0655 10.0341 11.8034C10.0587 11.5413 10.116 11.1809 10.0259 10.8369C9.93583 10.4929 10.3454 9.64917 10.4109 9.5263C10.4764 9.41982 10.7467 8.82187 10.7467 8.82187Z" fill="black"/>
<path d="M10.5256 10.6239C10.5315 10.4927 10.5563 10.3631 10.5993 10.2389C10.6566 10.0751 10.7222 9.80481 10.5993 9.73928C10.4764 9.67375 10.2635 9.7229 10.2635 10.1816C10.2635 10.6403 10.157 11.1645 10.2635 11.8526C10.3699 12.5406 10.886 13.7529 11.574 14.3755C12.2621 14.998 12.1392 14.785 12.4751 15.0881C12.8109 15.3912 14.5146 15.7106 14.9897 15.6533C15.4648 15.5959 15.5877 15.3666 15.6123 15.2847C15.6368 15.2028 15.5713 15.0635 15.5058 15.129C15.4402 15.1946 15.088 15.514 13.9331 15.2601C12.7781 15.0062 12.4751 14.7195 12.4095 14.6622C12.344 14.6048 11.6969 13.9413 11.6232 13.8758C11.5495 13.8103 10.8041 12.7946 10.8041 12.6471C10.8041 12.4997 11.7706 14.3427 13.0566 14.8342C14.3426 15.3256 14.8177 15.2437 15.0634 15.1618C15.3092 15.0799 15.5631 15.0062 15.5631 14.9161C15.5631 14.826 15.5549 14.654 15.473 14.654C15.3911 14.654 14.9078 14.9407 14.6785 14.9161C14.4491 14.8915 14.1133 14.7441 13.802 14.7441C13.4908 14.7441 12.8355 14.3591 12.6716 14.2034C12.5078 14.0478 11.6396 13.6055 10.8041 11.8116C10.7959 11.8198 10.4846 10.8942 10.5256 10.6239Z" fill="black"/>
<path d="M12.7863 15.4157C12.7863 15.4157 12.4423 15.1863 12.3768 15.1945C12.3112 15.2027 12.3194 15.3174 12.3276 15.4402C12.3358 15.5631 12.3849 15.6942 12.4669 15.7105C12.5488 15.7269 12.7699 15.6778 12.8191 15.7105C13.2142 15.9097 13.6467 16.0241 14.0887 16.0464C14.7522 16.0709 14.8832 16.0955 15.0716 16.0791C15.26 16.0628 15.5795 15.9481 15.6041 15.8744C15.6286 15.8006 15.6122 15.5713 15.5467 15.5713C15.4812 15.5713 15.4075 15.8989 14.1542 15.7515C12.9174 15.5877 12.7863 15.4157 12.7863 15.4157Z" fill="black"/>
<path d="M12.9502 15.9235C12.9502 15.9235 12.6962 15.7433 12.6225 15.817C12.5488 15.8908 12.5324 16.1119 12.7864 16.1692C13.0403 16.2266 13.6137 16.3904 13.7447 16.415C14.0015 16.4629 14.2617 16.4903 14.5229 16.4969C14.8014 16.4969 15.0799 16.3658 15.1945 16.3658C15.3092 16.3658 15.6532 16.3658 15.6696 16.2921C15.6714 16.2057 15.6576 16.1197 15.6287 16.0382C15.6205 16.0054 15.5222 16.0136 15.4566 16.0464C15.2454 16.13 15.0257 16.1904 14.8014 16.2266C14.4253 16.2487 14.048 16.2212 13.6792 16.1447C13.4316 16.0869 13.1881 16.013 12.9502 15.9235Z" fill="black"/>
<path d="M15.4157 16.6361C15.4157 16.6361 14.8915 16.9966 13.4335 16.7672C11.9754 16.5379 12.3522 15.9645 12.385 15.989C12.4178 16.0136 12.5406 16.1856 12.6307 16.2184C12.7208 16.2512 13.8103 16.6116 14.1133 16.6198C14.4164 16.628 14.8096 16.6116 14.9816 16.5542C15.1536 16.4969 15.3829 16.3495 15.473 16.4723C15.5631 16.5788 15.4157 16.6361 15.4157 16.6361Z" fill="black"/>
<path d="M12.5734 16.6526C12.5734 16.6526 12.4423 16.5625 12.4423 16.6526C12.4487 16.7172 12.4717 16.779 12.509 16.8321C12.5463 16.8852 12.5967 16.9278 12.6553 16.9557C12.7697 17.0133 12.8958 17.0441 13.0239 17.0458C13.1789 17.0581 13.3295 17.1028 13.4662 17.1768C13.5891 17.2342 14.0232 17.4062 14.7768 17.2669C15.5304 17.1277 15.7188 16.9475 15.7515 16.8983C15.7762 16.8239 15.7762 16.7434 15.7515 16.669C15.7352 16.5871 15.6778 16.5543 15.6123 16.6198C15.5468 16.6853 15.1044 17.0785 14.0232 17.0048C12.942 16.9311 12.5734 16.6526 12.5734 16.6526Z" fill="black"/>
<path d="M13.3106 17.2424C13.3106 17.2424 13.2205 17.1113 12.9748 17.1768C12.729 17.2424 13.6055 17.7093 13.6546 17.7502C13.7038 17.7912 13.7611 17.8158 13.9741 17.7912C14.1871 17.7666 14.7932 17.7339 15.0062 17.6847C15.2191 17.6356 15.6451 17.5127 15.7761 17.3489C15.9072 17.185 15.858 17.0785 15.7352 17.0949C15.6123 17.1113 14.8587 17.5782 14.1051 17.5127C13.3516 17.4472 13.3106 17.2424 13.3106 17.2424Z" fill="black"/>
<path d="M14.359 17.9058C14.359 17.9058 13.9904 17.914 14.0068 17.9878C14.0386 18.0524 14.0893 18.1059 14.1522 18.141C14.2152 18.1761 14.2873 18.1912 14.359 18.1843C14.5228 18.1516 15.4403 18.0041 15.6286 17.9058C15.817 17.8076 15.9727 17.783 15.9727 17.6683C15.9727 17.5536 15.9399 17.4226 15.858 17.4471C15.7761 17.4717 14.9815 17.9796 14.359 17.9058ZM15.088 18.2335C15.088 18.2335 14.6867 18.3646 14.6867 18.4055C14.6867 18.4465 14.8505 18.6349 14.9815 18.6267C15.1126 18.6185 15.3993 18.4301 15.5467 18.3809C15.6942 18.3318 16.0464 18.2826 16.0628 18.1843C16.0755 18.0825 16.0554 17.9792 16.0054 17.8895C15.9784 17.8772 15.9491 17.8709 15.9194 17.8709C15.8898 17.8709 15.8604 17.8772 15.8334 17.8895C15.7761 17.9222 15.2191 18.2253 15.088 18.2335ZM15.473 18.856C15.4284 18.8777 15.3793 18.889 15.3297 18.889C15.28 18.889 15.231 18.8777 15.1863 18.856C15.0307 18.7823 15.088 18.6922 15.2191 18.6267C15.3502 18.5611 15.5959 18.471 15.686 18.4301C15.7761 18.3891 16.0218 18.299 16.0628 18.3318C16.1059 18.3769 16.1345 18.434 16.1447 18.4956C16.1447 18.5366 15.473 18.856 15.473 18.856ZM15.6942 19.2246C15.6942 19.2246 15.4484 19.0936 15.4484 19.0608C15.4648 19.0277 15.489 18.9992 15.519 18.9778C15.549 18.9563 15.5839 18.9426 15.6205 18.9379C15.6942 18.9379 16.1938 18.7332 16.1938 18.7332C16.1938 18.7332 16.3249 18.856 16.3249 18.9789C16.3249 19.1018 15.7925 19.241 15.6942 19.2246ZM16.3249 19.4949C16.2545 19.5082 16.1823 19.5082 16.1119 19.4949C16.0382 19.4704 15.9399 19.3639 15.9071 19.3639C15.8744 19.3639 15.9809 19.2983 16.0628 19.2901C16.1447 19.282 16.2839 19.2328 16.3331 19.2246C16.3822 19.2164 16.4478 19.282 16.4478 19.3639C16.4478 19.4458 16.3249 19.4949 16.3249 19.4949ZM11.3775 8.9038C11.4298 8.85454 11.4765 8.79959 11.5167 8.73998C11.5167 8.71541 11.2628 8.55977 11.1399 8.58435C11.017 8.60892 10.5993 9.42803 10.7304 10.5666C10.8614 11.7052 11.1563 12.8765 12.7618 14.1379C13.0708 14.3858 13.4306 14.5627 13.8156 14.6561C14.2006 14.7496 14.6014 14.7572 14.9897 14.6785C14.9897 14.6785 15.1044 14.5721 14.9406 14.5639C14.7768 14.5557 13.9167 14.4 13.63 14.269C13.3433 14.1379 12.7208 13.54 12.6225 13.499C12.5242 13.4581 11.787 12.6963 11.7706 12.6062C11.7542 12.5161 11.4676 12 11.402 11.7543C11.3365 11.5086 11.1727 10.4765 11.1235 10.2799C11.0744 10.0833 11.0252 9.76387 11.0416 9.64919C11.058 9.53452 11.2382 9.06762 11.3775 8.9038Z" fill="black"/>
<path d="M11.9427 9.02656C11.9427 9.02656 12.0901 8.98561 12.0983 8.93646C12.1065 8.88732 12.0819 8.77264 11.8853 8.73988C11.6887 8.70711 11.5003 8.84636 11.3693 9.19858C11.2382 9.5508 11.2956 10.2962 11.4676 10.7549C11.6396 11.2136 11.5413 11.5822 11.8607 12.1965C12.1802 12.8109 12.172 12.8109 12.2949 12.9092C12.4177 13.0075 13.0075 13.5808 13.0976 13.6709C13.1877 13.761 13.7119 14.1051 13.8102 14.1051C13.9085 14.1051 13.9577 13.9412 13.9495 13.8593C13.9413 13.7774 13.9331 13.7365 13.7938 13.7283C13.6546 13.7201 13.458 13.4907 13.458 13.4907C13.458 13.4907 12.7126 12.7863 12.6553 12.7535C12.5979 12.7208 11.9918 12.0327 11.9918 11.9508C11.9918 11.8689 12 11.7542 12.0491 11.8197C12.0983 11.8853 12.4505 12.3931 12.6799 12.6061C12.9092 12.8191 13.6382 13.4334 13.8102 13.5071C13.9822 13.5808 14.0641 13.589 14.0805 13.4498C14.0969 13.3105 14.1788 13.245 14.2525 13.286C14.3263 13.3269 14.8751 13.6464 15.0471 13.6218C15.2191 13.5972 15.473 13.3433 15.5549 13.3597C15.6368 13.3761 15.4075 13.63 15.3338 13.6709C15.2601 13.7119 15.3911 13.802 15.4157 13.8184C15.4611 13.843 15.5129 13.8531 15.5642 13.8472C15.6155 13.8413 15.6637 13.8198 15.7024 13.7856C15.8334 13.6709 15.8498 13.5153 15.7597 13.3105C15.6696 13.1057 15.645 12.7617 15.6205 12.6962C15.5959 12.6307 15.5631 12.5324 15.4976 12.6962C15.4321 12.86 15.3092 13.1958 14.8833 13.2122C14.3779 13.2535 13.8739 13.1173 13.458 12.8272C12.9338 12.4832 12.3031 12.0081 11.8116 10.6075C11.3201 9.20677 11.9427 9.02656 11.9427 9.02656Z" fill="black"/>
<path d="M15.4321 12.0082C15.4104 11.9979 15.3861 11.9947 15.3625 11.9991C15.339 12.0035 15.3174 12.0153 15.301 12.0328C15.2764 12.0737 15.2437 11.8853 15.2928 11.7051C15.342 11.5249 15.301 11.2546 15.2437 11.271C15.1863 11.2874 14.744 11.9918 14.2526 11.7215C13.7611 11.4512 13.1467 10.6812 12.9747 10.3372C12.8027 9.99318 12.5897 9.6 12.6225 9.37065C12.6225 9.37065 12.6471 9.19045 12.6553 9.1413C12.6635 9.09215 12.557 8.89556 12.4259 8.94471C12.2949 8.99386 11.9754 9.17406 11.9345 9.30512C11.8935 9.43618 11.7624 9.55905 11.828 9.93584C11.8935 10.3126 12.0901 10.7959 12.1638 11.0171C12.2375 11.2382 12.4669 11.7379 12.7126 11.959C12.9583 12.1802 13.4416 12.6143 13.6546 12.7126C13.8676 12.8109 14.3181 13.1468 14.8997 13.0157C15.4812 12.8846 15.4894 12.3031 15.4894 12.2457C15.4839 12.1639 15.4645 12.0835 15.4321 12.0082ZM12.8764 11.8362C12.8519 11.8034 12.5652 11.3611 12.5324 11.3365C12.688 11.4521 12.8332 11.5809 12.9665 11.7215C13.1304 11.9099 13.2778 12.1311 13.2778 12.1966C13.2778 12.1966 12.901 11.8689 12.8764 11.8362ZM14.5966 12.5242C14.1379 12.5079 13.9659 12.3031 13.843 12.2294C13.7201 12.1556 13.4007 11.7461 13.1304 11.4676C12.8601 11.1891 12.6471 10.9515 12.557 10.7795C12.4669 10.6075 12.2293 9.76382 12.2048 9.66553C12.1802 9.56724 12.3358 9.48533 12.3358 9.53447C12.3395 9.6226 12.3505 9.71026 12.3686 9.79659C12.3522 10.2061 12.8437 10.927 12.9092 11.0662C12.9747 11.2055 13.5399 11.8198 14.0396 12.1556C14.5392 12.4915 14.8669 12.3113 14.9488 12.2785C15.0307 12.2457 15.1208 12.2457 15.1454 12.2785C15.17 12.3113 15.0553 12.5406 14.5966 12.5242Z" fill="black"/>
<path d="M15.1864 10.8778C15.1126 10.8778 14.9488 11.0743 14.9242 10.9597C14.8997 10.845 15.0389 10.5993 15.0389 10.3699C15.0389 10.1406 14.9898 9.70643 14.8833 9.49346C14.7768 9.28049 14.6703 9.09209 14.4819 9.20677C14.2935 9.32144 14.3918 9.41154 14.4737 9.51803C14.5556 9.62451 14.7604 9.86206 14.7604 10.1406C14.7604 10.4191 14.7195 10.7795 14.613 10.804C14.5065 10.8286 14.2526 10.7467 14.0232 10.5665C13.7782 10.383 13.5506 10.1774 13.3434 9.95216C13.2696 9.84567 13.1222 9.59994 13.1632 9.55898C13.2041 9.51803 13.2696 9.50165 13.3352 9.61632C13.4007 9.731 13.7201 10.0668 13.8021 10.1487C13.939 10.2856 14.0839 10.4142 14.2362 10.5337C14.3345 10.5993 14.4574 10.7139 14.5475 10.5665C14.6376 10.4191 14.6539 10.0668 14.5802 9.93578C14.5065 9.80472 14.3836 9.57537 14.3427 9.51803C14.3017 9.46069 14.2362 9.3624 14.0969 9.41974C13.9577 9.47707 13.9659 9.59175 14.015 9.6327C14.0642 9.67366 14.2853 9.82929 14.3017 9.93578C14.3181 10.0423 14.3672 10.2307 14.2853 10.1406C14.2034 10.0505 13.9905 9.75557 13.9331 9.72281C13.8758 9.69004 13.4826 9.44431 13.4826 9.44431C13.4826 9.44431 13.0075 9.24772 12.9748 9.19858C12.942 9.14943 12.8437 9.14124 12.9174 9.41974C12.9911 9.69823 13.0403 10.0341 13.2451 10.288C13.3599 10.4209 13.4438 10.5775 13.4908 10.7467C13.5318 10.8696 13.9413 11.4757 14.4655 11.6068C14.9898 11.7378 15.1782 11.1317 15.2027 11.0825C15.2273 11.0334 15.2601 10.8778 15.1864 10.8778ZM14.6867 11.2464C14.6703 11.3692 14.441 11.2382 14.3427 11.2464C14.2444 11.2545 14.0642 11.0907 13.9495 10.9597C13.8348 10.8286 13.7447 10.6894 13.7775 10.673C13.8103 10.6566 13.9577 10.8368 14.1051 10.9187C14.2526 11.0006 14.4492 11.1153 14.5802 11.0989C14.7113 11.0825 14.6867 11.2464 14.6867 11.2464ZM15.8089 13.8348C15.8089 13.8348 15.7024 13.9576 15.7024 14.0068C15.7024 14.0559 15.7597 14.0805 15.7597 14.1296C15.7597 14.1788 15.8007 14.2034 15.858 14.1624C15.9154 14.1214 15.9154 14.0723 15.9072 14.0068C15.899 13.9412 15.9154 13.8102 15.8089 13.8348ZM15.9154 14.2689C15.9154 14.2689 15.8089 14.3344 15.8089 14.4163C15.8048 14.4845 15.8048 14.5529 15.8089 14.6211C15.8137 14.6346 15.8226 14.6463 15.8344 14.6545C15.8461 14.6628 15.8601 14.6672 15.8744 14.6672C15.8888 14.6672 15.9027 14.6628 15.9145 14.6545C15.9262 14.6463 15.9351 14.6346 15.9399 14.6211C15.9727 14.5556 16.0137 14.5146 15.9809 14.4327C15.9481 14.3672 15.9809 14.2115 15.9154 14.2689ZM15.9973 15.0634C15.9973 15.0634 15.8498 15.1699 15.858 15.1126C15.8662 15.0552 15.8744 14.8095 15.9236 14.8013C15.9727 14.7931 15.9727 14.6948 16.0546 14.8423C16.1365 14.9897 16.0792 15.0143 15.9973 15.0634ZM16.1202 15.2518C16.1202 15.2518 16.1611 15.0962 16.0464 15.1945C15.9318 15.2928 15.899 15.26 15.9072 15.3255C15.9154 15.3911 15.9399 15.5057 16.0055 15.4894C16.0546 15.473 16.1693 15.4976 16.1202 15.2518ZM16.1857 15.5795C16.1857 15.5795 15.9973 15.6696 16.0137 15.776C16.03 15.8825 16.1202 15.989 16.1611 15.989C16.2021 15.989 16.2676 15.8743 16.243 15.7842C16.2184 15.6941 16.2512 15.5385 16.1857 15.5795Z" fill="black"/>
<path d="M12 1.69562C9.96197 1.69562 7.96971 2.29996 6.27516 3.43223C4.5806 4.56449 3.25986 6.17382 2.47994 8.05671C1.70002 9.9396 1.49596 12.0115 1.89356 14.0103C2.29116 16.0092 3.27256 17.8453 4.71366 19.2864C6.15476 20.7275 7.99083 21.7089 9.9897 22.1065C11.9886 22.5041 14.0604 22.3 15.9433 21.5201C17.8262 20.7402 19.4355 19.4194 20.5678 17.7249C21.7001 16.0303 22.3044 14.0381 22.3044 12C22.3047 10.6468 22.0384 9.30667 21.5207 8.05633C21.003 6.80599 20.244 5.66991 19.287 4.713C18.3301 3.75608 17.194 2.99707 15.9437 2.47934C14.6934 1.96161 13.3533 1.6953 12 1.69562ZM12 21.6164C10.0972 21.6172 8.23698 21.0538 6.65445 19.9974C5.07193 18.9409 3.83821 17.4389 3.10931 15.6813C2.38041 13.9237 2.18907 11.9895 2.55948 10.1231C2.9299 8.25676 3.84543 6.54217 5.1903 5.19615C6.53517 3.85013 8.24899 2.93314 10.115 2.56114C11.981 2.18913 13.9155 2.37883 15.6737 3.10623C17.4319 3.83363 18.935 5.06607 19.9927 6.6477C21.0505 8.22933 21.6156 10.0891 21.6164 11.9919C21.6173 13.2554 21.3693 14.5067 20.8865 15.6743C20.4037 16.8419 19.6955 17.9029 18.8025 18.7967C17.9094 19.6905 16.849 20.3996 15.6818 20.8834C14.5146 21.3672 13.2635 21.6163 12 21.6164Z" fill="black"/>
<path d="M11.9999 0C9.62657 0 7.30649 0.703788 5.3331 2.02236C3.35971 3.34094 1.82164 5.21509 0.91339 7.4078C0.00513833 9.60051 -0.232502 12.0133 0.230521 14.3411C0.693544 16.6689 1.83643 18.8071 3.51466 20.4853C5.19289 22.1635 7.33109 23.3064 9.65886 23.7694C11.9866 24.2324 14.3994 23.9948 16.5921 23.0866C18.7849 22.1783 20.659 20.6402 21.9776 18.6668C23.2962 16.6935 23.9999 14.3734 23.9999 12C23.9997 8.81747 22.7354 5.76535 20.485 3.51496C18.2346 1.26457 15.1825 0.000217215 11.9999 0V0ZM11.9999 22.8778C9.84851 22.8778 7.7454 22.2398 5.95655 21.0446C4.16771 19.8493 2.77347 18.1504 1.95015 16.1628C1.12684 14.1751 0.91142 11.9879 1.33114 9.87784C1.75087 7.76775 2.78688 5.82951 4.30817 4.30822C5.82946 2.78693 7.7677 1.75092 9.87779 1.3312C11.9879 0.911476 14.175 1.12689 16.1627 1.95021C18.1504 2.77352 19.8492 4.16776 21.0445 5.95661C22.2398 7.74546 22.8778 9.84857 22.8778 12C22.8765 14.8846 21.73 17.6506 19.6903 19.6903C17.6506 21.73 14.8845 22.8765 11.9999 22.8778Z" fill="#151515"/>
</g>
<defs>
<clipPath id="clip0_5_22502">
<rect width="24" height="24" fill="white"/>
</clipPath>
</defs>
</svg>
