<svg width="24" height="24" viewBox="0 0 24 24" fill="none" xmlns="http://www.w3.org/2000/svg">
<path d="M21.649 5.64507C22.0857 5.89716 22.3549 6.36302 22.3549 6.86728V17.125C22.3549 17.6292 22.0858 18.095 21.6491 18.3471L12.7673 23.4751C12.3306 23.7272 11.7925 23.7272 11.3557 23.4751L2.4739 18.3471C2.03727 18.095 1.76815 17.6292 1.76815 17.1249V6.86724C1.76815 6.36305 2.03727 5.8972 2.47389 5.64508L11.3534 0.517126C11.7901 0.264963 12.3282 0.264963 12.765 0.517118L21.649 5.64507ZM21.4951 5.91173L12.611 0.783776C12.2695 0.586615 11.8488 0.586615 11.5073 0.783767L2.62787 5.91172C2.28647 6.10885 2.07606 6.47309 2.07606 6.86728V17.1249C2.07606 17.5191 2.28647 17.8834 2.62786 18.0805L11.5097 23.2084C11.8511 23.4056 12.2719 23.4056 12.6134 23.2084L21.4952 18.0805C21.8366 17.8834 22.047 17.5191 22.047 17.1249V6.86732C22.047 6.47308 21.8365 6.10883 21.4951 5.91173Z" fill="url(#paint0_linear_5_22495)"/>
<path d="M20.6491 6.3201L12.6826 1.72111C12.2979 1.49897 11.8239 1.49897 11.4391 1.72111L3.47318 6.3201C3.08925 6.54194 2.85248 6.95142 2.85177 7.39484V16.5956C2.85177 17.0397 3.08867 17.4501 3.47318 17.6722L11.4397 22.2712C11.8244 22.4934 12.2985 22.4934 12.6832 22.2712L20.6498 17.6718C21.0344 17.4496 21.2713 17.0393 21.2713 16.5952V7.39484C21.2704 6.95128 21.0334 6.54176 20.6491 6.3201Z" fill="url(#paint1_linear_5_22495)"/>
<path d="M6.31174 6.82694C6.5033 6.63664 6.69423 6.44614 6.88453 6.25544C7.07608 6.44637 7.26721 6.63749 7.4579 6.82881C7.26759 7.01974 7.07686 7.21047 6.8857 7.40101C6.69423 7.21008 6.50291 7.01873 6.31174 6.82694ZM8.03688 6.82764C8.22719 6.63671 8.41792 6.44598 8.60908 6.25544C8.80001 6.44575 8.99051 6.63625 9.18058 6.82694C8.99028 7.01787 8.79954 7.2086 8.60838 7.39914C8.41753 7.20884 8.22703 7.01834 8.03688 6.82764ZM14.9429 6.82577C15.1332 6.63484 15.3237 6.44434 15.5144 6.25427C15.706 6.4452 15.8971 6.63632 16.0878 6.82764C15.8975 7.01857 15.707 7.2093 15.5163 7.39984C15.3254 7.20821 15.1342 7.01686 14.9429 6.82577ZM16.6643 6.8294C16.8552 6.63784 17.0468 6.44629 17.239 6.25474C17.4299 6.44505 17.6206 6.63578 17.8112 6.82694L17.2365 7.4016C17.0456 7.2109 16.8549 7.02017 16.6643 6.8294ZM7.17466 7.68928C7.36559 7.49897 7.55633 7.30847 7.74686 7.11778C7.93779 7.30808 8.12829 7.49858 8.31836 7.68928C8.12806 7.8802 7.93733 8.07094 7.74616 8.26148C7.55523 8.07109 7.36473 7.88036 7.17466 7.68928ZM8.90471 7.69044C9.09439 7.50139 9.28325 7.31178 9.4713 7.12163C9.65973 7.31194 9.8486 7.50162 10.0379 7.69068C9.84883 7.87911 9.65997 8.06778 9.4713 8.25668C9.28224 8.06809 9.09338 7.87935 8.90471 7.69044ZM14.0862 7.6867C14.2753 7.49698 14.4649 7.30796 14.6535 7.11696C14.8425 7.30711 15.032 7.49726 15.2219 7.6874C15.032 7.87646 14.8425 8.06583 14.6535 8.25551C14.4656 8.06486 14.2753 7.87642 14.0862 7.6867ZM15.8051 7.68799C15.9954 7.49706 16.1859 7.30656 16.3766 7.11649C16.5676 7.30679 16.7583 7.49753 16.9488 7.68869C16.7585 7.87962 16.568 8.07035 16.3773 8.26089C16.187 8.06918 15.9954 7.87888 15.8051 7.68799ZM6.31174 8.55208L6.8857 7.97812C7.07663 8.16905 7.26713 8.35979 7.4572 8.55032C7.26627 8.74188 7.07515 8.933 6.88383 9.12369C6.69298 8.93331 6.50228 8.74277 6.31174 8.55208ZM8.0363 8.55149C8.22722 8.36119 8.41815 8.17069 8.60908 7.97999C8.80001 8.1703 8.99051 8.3608 9.18058 8.55149C8.99028 8.74242 8.79954 8.93315 8.60838 9.12369C8.41753 8.93331 8.22684 8.74258 8.0363 8.55149ZM9.7633 8.54834C9.95174 8.35928 10.1404 8.17042 10.3293 7.98175C10.5196 8.17205 10.7097 8.36236 10.8995 8.55266C10.7111 8.7411 10.5224 8.92957 10.3335 9.11808C10.1432 8.9284 9.95314 8.73849 9.7633 8.54834ZM13.2258 8.54834C13.4143 8.35928 13.6028 8.17042 13.7913 7.98175C13.981 8.1708 14.1702 8.3601 14.3591 8.54962C14.1694 8.73747 13.9816 8.92719 13.7919 9.11504C13.6045 8.92532 13.4143 8.73747 13.2258 8.54834ZM14.9429 8.55021C15.1338 8.35865 15.325 8.16753 15.5163 7.97684C15.7072 8.16714 15.898 8.35788 16.0885 8.54904C15.8976 8.74059 15.7064 8.93191 15.5151 9.12299C15.3248 8.93152 15.1332 8.74121 14.9429 8.55021ZM16.6671 8.55021C16.8574 8.35928 17.0479 8.16878 17.2386 7.97871C17.4295 8.16901 17.6203 8.35975 17.8108 8.55091C17.6205 8.74184 17.43 8.93257 17.2393 9.12311C17.0492 8.93152 16.8578 8.74121 16.6671 8.55021ZM11.4866 8.60877L12.052 8.04335C12.2507 8.22746 12.4456 8.41531 12.6353 8.60877C12.445 8.80157 12.2506 8.98981 12.052 9.17349C11.8635 8.98506 11.675 8.79682 11.4866 8.60877ZM7.17653 9.41429C7.36684 9.22524 7.55734 9.03594 7.74803 8.84642C7.93647 9.0361 8.12514 9.2252 8.31404 9.41371C8.12498 9.60339 7.93588 9.79288 7.74675 9.98217C7.55652 9.79311 7.36645 9.60382 7.17653 9.41429ZM10.6261 9.41067C10.8145 9.22153 11.003 9.0338 11.1915 8.84467C11.38 9.0331 11.5682 9.22157 11.7562 9.41009C11.5684 9.59852 11.3794 9.78696 11.1915 9.97551C11.0031 9.78738 10.8146 9.59911 10.6261 9.41067ZM12.3642 9.41067C12.5512 9.22095 12.7411 9.03439 12.9284 8.84467C13.1217 9.03006 13.3065 9.22282 13.4974 9.41067C13.3077 9.59852 13.1192 9.78883 12.9295 9.97726C12.7417 9.78754 12.5524 9.59981 12.3642 9.41067ZM15.8138 9.41126C16.0016 9.22153 16.1901 9.0331 16.3779 8.84338C16.5688 9.03244 16.7592 9.22173 16.9488 9.41126C16.7579 9.60031 16.5674 9.78961 16.3773 9.97913C16.1901 9.78883 16.0008 9.60098 15.8138 9.41126ZM8.03875 10.2729C8.22719 10.0838 8.41628 9.89497 8.60604 9.7063C8.7951 9.8966 8.98478 10.0867 9.17509 10.2766C8.98665 10.4657 8.79798 10.6544 8.60908 10.8426C8.41878 10.6531 8.22867 10.4632 8.03875 10.2729ZM11.4877 10.2716C11.6755 10.0832 11.8636 9.89512 12.0519 9.70747C12.2502 9.89099 12.4446 10.0792 12.6352 10.2722C12.4455 10.4656 12.2513 10.6537 12.0526 10.8363C11.8641 10.648 11.6758 10.4597 11.4877 10.2716ZM14.9516 10.2729C15.1394 10.0845 15.3274 9.8966 15.5157 9.70934C15.7041 9.89777 15.8928 10.0856 16.0817 10.2729C15.8926 10.4599 15.7041 10.6486 15.5157 10.8359C15.3284 10.6473 15.1394 10.4607 14.9516 10.2729ZM8.90167 11.1351C9.0901 10.946 9.27877 10.7576 9.46768 10.5697C9.65549 10.7575 9.84334 10.9455 10.0312 11.1338C9.84341 11.3223 9.65517 11.5109 9.46651 11.6998C9.27862 11.5114 9.09034 11.3232 8.90167 11.1351ZM14.0875 11.1351C14.2759 10.9467 14.4646 10.7582 14.6535 10.5697C14.8419 10.7575 15.03 10.946 15.2176 11.1351C15.0298 11.3235 14.8418 11.512 14.6535 11.7005C14.4656 11.5114 14.2759 11.3237 14.0875 11.1351ZM8.04027 11.9962C8.22871 11.8071 8.41737 11.6186 8.60628 11.4307C8.79409 11.6192 8.98213 11.8076 9.17041 11.9962C8.9826 12.1846 8.79456 12.3731 8.60628 12.5616C8.41698 12.3731 8.22832 12.1846 8.04027 11.9962ZM9.7633 11.9962C9.95174 11.8077 10.1402 11.6195 10.3287 11.4314C10.5165 11.6199 10.7045 11.8081 10.8925 11.9962C10.7055 12.1846 10.5176 12.3728 10.329 12.5609C10.1403 12.3724 9.95174 12.1842 9.7633 11.9962ZM13.2251 11.9962C13.4136 11.8064 13.6039 11.6186 13.7924 11.4289C13.9816 11.6173 14.17 11.8076 14.359 11.9962C14.17 12.1846 13.9811 12.3737 13.7924 12.5634C13.6045 12.3737 13.4137 12.1859 13.2251 11.9962ZM14.9004 11.9962C15.0937 11.8145 15.2663 11.6082 15.4737 11.4418C15.6524 11.6334 15.8506 11.8064 16.0318 11.9962C15.8507 12.1846 15.6555 12.3585 15.4756 12.5486C15.2644 12.3879 15.0957 12.1766 14.9004 11.9962ZM8.90167 12.8572L9.46639 12.2925C9.65482 12.4816 9.84326 12.6694 10.0311 12.8585C9.8433 13.0469 9.65545 13.235 9.46756 13.4226C9.27912 13.2341 9.09049 13.0456 8.90167 12.8572ZM14.0881 12.8572C14.2759 12.6688 14.4656 12.4809 14.6535 12.2918C14.8419 12.4802 15.0302 12.6687 15.2182 12.8572C15.0291 13.0451 14.8431 13.2359 14.6522 13.4213C14.4644 13.2329 14.2759 13.0456 14.0881 12.8572ZM8.03875 13.7194C8.22843 13.5291 8.41854 13.3392 8.60908 13.1497C8.79814 13.3381 8.98681 13.5268 9.17509 13.7157C8.98541 13.906 8.79572 14.0961 8.60604 14.286C8.41628 14.0976 8.22719 13.9087 8.03875 13.7194ZM11.4853 13.7207C11.6743 13.5316 11.8634 13.3428 12.0526 13.1541C12.2528 13.3376 12.4478 13.5261 12.6376 13.7195C12.4473 13.9144 12.2521 14.1038 12.0519 14.288C11.8628 14.0989 11.674 13.9098 11.4853 13.7207ZM14.9516 13.72C15.1394 13.5316 15.3284 13.3443 15.5157 13.1565C15.7048 13.3443 15.8936 13.5319 16.0823 13.7194C15.8939 13.9072 15.705 14.0951 15.5157 14.283C15.3278 14.0951 15.1398 13.9074 14.9516 13.72ZM7.17595 14.578C7.36625 14.389 7.55656 14.1997 7.74686 14.0101C7.93592 14.1992 8.12502 14.3887 8.31416 14.5786C8.12502 14.767 7.93631 14.9563 7.74803 15.1465C7.55714 14.9573 7.36684 14.7666 7.17595 14.578ZM10.6231 14.5816C10.8127 14.392 11.0022 14.2027 11.1915 14.0138C11.3812 14.2028 11.5709 14.3921 11.7606 14.5816C11.5715 14.7713 11.3822 14.961 11.1927 15.1507C11.0024 14.9616 10.8125 14.7719 10.6231 14.5816ZM12.3605 14.5816C12.5502 14.3913 12.7411 14.2022 12.9302 14.0119C13.1199 14.201 13.3097 14.3913 13.5 14.5798C13.3097 14.7701 13.1196 14.9606 12.9296 15.1513C12.7399 14.9617 12.5502 14.7718 12.3605 14.5816ZM15.8132 14.5811C16.0002 14.3913 16.1901 14.2023 16.3773 14.012C16.5676 14.2017 16.7584 14.3914 16.9495 14.5811C16.7592 14.7707 16.5687 14.9602 16.378 15.1495C16.1901 14.9598 16.0008 14.7708 15.8132 14.5811ZM11.4828 15.3835C11.6725 15.1945 11.8622 15.005 12.0519 14.8151C12.2527 14.9992 12.4479 15.1891 12.6401 15.383C12.4485 15.5782 12.2527 15.7685 12.0526 15.9539C11.8623 15.7636 11.6724 15.5735 11.4828 15.3835ZM6.31174 15.4408L6.88395 14.8686C7.0755 15.0595 7.26662 15.2507 7.45732 15.442C7.26701 15.6329 7.07651 15.8236 6.88582 16.0142C6.69426 15.8227 6.50291 15.6316 6.31174 15.4408ZM8.0363 15.4402C8.22722 15.2499 8.41796 15.0594 8.6085 14.8687C8.79943 15.059 8.99016 15.2498 9.1807 15.4409C8.99039 15.6319 8.79989 15.8224 8.6092 16.0124C8.41819 15.8221 8.22722 15.6314 8.0363 15.4402ZM9.75956 15.4433C9.95115 15.253 10.142 15.0614 10.3335 14.8711C10.5232 15.0608 10.7131 15.2504 10.9033 15.4401C10.7123 15.6323 10.5214 15.8238 10.3305 16.0148C10.1402 15.8245 9.94987 15.634 9.75956 15.4433ZM13.2215 15.444C13.4118 15.2531 13.6034 15.0634 13.7924 14.8725C13.9827 15.0628 14.1732 15.2527 14.3639 15.4422C14.173 15.6331 13.9823 15.8241 13.7917 16.015C13.6015 15.8246 13.4114 15.6343 13.2215 15.444ZM14.9429 15.4421C15.1332 15.2512 15.3248 15.0602 15.5151 14.8693C15.706 15.0609 15.8972 15.2522 16.0885 15.4433L15.5163 16.0155C15.325 15.8245 15.1338 15.6334 14.9429 15.4421ZM16.6671 15.4421C16.8574 15.2512 17.049 15.0602 17.2393 14.8693C17.4296 15.0602 17.6201 15.251 17.8108 15.4415C17.6205 15.6324 17.4298 15.8232 17.2386 16.0137C17.0479 15.8233 16.8574 15.6328 16.6671 15.4421ZM7.17408 16.3024C7.36501 16.1121 7.55574 15.9216 7.74628 15.7309C7.93721 15.9213 8.12794 16.112 8.31848 16.3031C8.12818 16.4941 7.93768 16.6846 7.74698 16.8746C7.55597 16.6843 7.36501 16.4936 7.17408 16.3024ZM8.8998 16.303C9.08948 16.1121 9.27979 15.9218 9.47071 15.7321C9.66164 15.9218 9.85214 16.1121 10.0422 16.303C9.85191 16.4933 9.6616 16.6849 9.4713 16.8752C9.28041 16.6849 9.0901 16.4935 8.8998 16.303ZM14.0813 16.3043C14.2716 16.1134 14.4625 15.9225 14.6541 15.7315C14.845 15.9231 15.0361 16.114 15.2274 16.3043C15.0359 16.4952 14.8448 16.6866 14.6541 16.8783C14.4625 16.6874 14.2716 16.4961 14.0813 16.3043ZM15.8051 16.3043C15.9954 16.1134 16.187 15.9224 16.3773 15.7315C16.5676 15.9225 16.7581 16.1132 16.9488 16.3037C16.7585 16.4947 16.5678 16.6854 16.3766 16.8759C16.1858 16.6854 15.9953 16.4949 15.8051 16.3043ZM6.31362 17.1629C6.50392 16.972 6.69465 16.7812 6.88582 16.5907L7.45802 17.1629L6.88582 17.7351C6.69489 17.5452 6.50415 17.3545 6.31362 17.1629ZM8.0363 17.1647C8.22722 16.9744 8.41796 16.7839 8.6085 16.5932C8.79943 16.7835 8.99016 16.9742 9.1807 17.1654C8.99039 17.3563 8.79989 17.5468 8.6092 17.7369C8.41819 17.5466 8.22722 17.3558 8.0363 17.1647ZM14.9429 17.1665C15.1338 16.975 15.325 16.7837 15.5163 16.5926C15.7066 16.7835 15.8971 16.9742 16.0878 17.1648C15.8969 17.3563 15.7057 17.5475 15.5144 17.7382C15.3235 17.5478 15.133 17.3573 14.9429 17.1665ZM16.6643 17.1629C16.8546 16.972 17.0454 16.7812 17.2365 16.5907L17.8112 17.1654C17.6209 17.3563 17.4301 17.547 17.239 17.7376C17.0468 17.5464 16.8552 17.3549 16.6643 17.1629Z" fill="white"/>
<defs>
<linearGradient id="paint0_linear_5_22495" x1="4.07822" y1="6.08428" x2="21.1791" y2="15.9398" gradientUnits="userSpaceOnUse">
<stop stop-color="#0071BC"/>
<stop offset="1" stop-color="#662D91"/>
</linearGradient>
<linearGradient id="paint1_linear_5_22495" x1="5.04987" y1="6.83807" x2="20.1865" y2="15.5373" gradientUnits="userSpaceOnUse">
<stop stop-color="#0071BC"/>
<stop offset="1" stop-color="#662D91"/>
</linearGradient>
</defs>
</svg>
