<svg width="24" height="24" viewBox="0 0 24 24" fill="none" xmlns="http://www.w3.org/2000/svg">
<g clip-path="url(#clip0_5_22476)">
<path d="M12 24C18.6274 24 24 18.6274 24 12C24 5.37258 18.6274 0 12 0C5.37258 0 0 5.37258 0 12C0 18.6274 5.37258 24 12 24Z" fill="#6916FF"/>
<path d="M12.858 4.81795C12.8163 4.78788 12.7871 4.74355 12.7759 4.69337C12.7647 4.64319 12.7723 4.59065 12.7973 4.5457C12.8322 4.52331 12.8728 4.51141 12.9143 4.51141C12.9557 4.51141 12.9963 4.52331 13.0313 4.5457C13.5598 4.76512 14.0382 5.08969 14.4375 5.4997C14.6648 5.71045 14.8553 5.95645 15 6.2272C15.153 6.5032 15.2783 6.79195 15.375 7.0912C15.4673 7.40095 15.5153 7.7227 15.516 8.0452C15.4688 8.36395 15.4223 9.90895 14.5313 10.6365C14.4179 10.7046 14.2832 10.7284 14.1533 10.7032C14.0234 10.678 13.9074 10.6056 13.8278 10.5C13.7641 10.4253 13.7254 10.3326 13.717 10.2348C13.7087 10.137 13.7311 10.0391 13.7813 9.9547C14.1601 9.36827 14.3693 8.6885 14.3859 7.99055C14.4024 7.2926 14.2256 6.60368 13.875 5.99995C13.575 5.57545 13.2345 5.1802 12.858 4.81795ZM11.475 18.7545C11.5688 18.8452 11.5688 18.936 11.5223 18.9817C11.4758 19.0275 11.3813 19.0725 11.3348 19.0267C10.8062 18.8073 10.3278 18.4827 9.92851 18.0727C9.70194 17.8631 9.51185 17.6172 9.36601 17.3452C9.2133 17.0703 9.08771 16.7812 8.99101 16.482C8.89833 16.1721 8.85084 15.8506 8.85001 15.5272C8.89726 15.2092 8.94376 13.6635 9.83476 12.936C9.94809 12.868 10.0826 12.8443 10.2123 12.8695C10.342 12.8947 10.4579 12.967 10.5375 13.0725C10.6058 13.147 10.6436 13.2444 10.6436 13.3455C10.6436 13.4465 10.6058 13.5439 10.5375 13.6185C10.1588 14.2048 9.94968 14.8844 9.93314 15.5822C9.91659 16.28 10.0933 16.9688 10.4438 17.5725C10.7475 17.9977 11.0933 18.3937 11.475 18.7545Z" fill="white" fill-opacity="0.5"/>
<path d="M15.5205 15.0045C15.4526 14.1319 15.1076 13.3038 14.5358 12.6412C13.9569 12.0594 13.2931 11.5688 12.567 11.1862C11.9337 10.8361 11.337 10.4236 10.7858 9.95471C10.3324 9.52866 10.0216 8.97316 9.89551 8.36396C9.78357 7.73498 9.86354 7.08687 10.125 6.50396C10.4383 5.85546 10.8875 5.28198 11.442 4.82246C11.4732 4.79465 11.4946 4.75755 11.5031 4.71663C11.5116 4.67572 11.5068 4.63316 11.4893 4.59521C11.4759 4.5713 11.4573 4.55072 11.4348 4.53502C11.4123 4.51933 11.3866 4.50893 11.3595 4.5046C11.3325 4.50027 11.3048 4.50212 11.2785 4.51002C11.2523 4.51792 11.2282 4.53166 11.208 4.55021C10.461 4.87608 9.82548 5.41307 9.37951 6.09521C8.88075 6.81184 8.64712 7.6798 8.71876 8.54996C8.75617 8.98962 8.86722 9.41987 9.04726 9.82271C9.24208 10.2215 9.49482 10.5892 9.79726 10.914C10.3933 11.4835 11.0729 11.9584 11.8125 12.3225C12.4485 12.6525 13.0463 13.0492 13.5938 13.5045C14.0754 13.9271 14.3912 14.5071 14.4848 15.141C14.6168 15.8002 14.5343 16.4835 14.25 17.0955C13.931 17.7398 13.4652 18.3003 12.8903 18.732C12.8712 18.7429 12.8548 18.7577 12.8419 18.7755C12.829 18.7932 12.8201 18.8135 12.8156 18.835C12.8111 18.8564 12.8113 18.8786 12.816 18.9C12.8207 18.9214 12.8299 18.9416 12.843 18.9592C12.8693 19.0072 12.918 19.0417 12.9728 19.05C13.0275 19.0582 13.0845 19.0425 13.125 19.005C13.8219 18.6026 14.4283 18.0608 14.9063 17.4135C15.3713 16.695 15.5858 15.8505 15.5205 15.0045Z" fill="white"/>
</g>
<defs>
<clipPath id="clip0_5_22476">
<rect width="24" height="24" fill="white"/>
</clipPath>
</defs>
</svg>
