<svg width="24" height="24" viewBox="0 0 24 24" fill="none" xmlns="http://www.w3.org/2000/svg">
<g clip-path="url(#clip0_5_22446)">
<path d="M21.9354 6.62715H21.9334C19.4308 6.62607 17.4022 4.59956 17.401 2.09737V2.09497C17.401 0.960459 16.4812 0.0400391 15.3466 0.0400391C14.2119 0.0400391 13.292 0.960938 13.292 2.09533V2.09893C13.2907 4.56969 11.2997 6.5896 8.82915 6.62786C8.80312 6.62691 8.77709 6.62547 8.75082 6.62547C7.61619 6.62547 6.69661 7.54672 6.69661 8.68112C6.69661 9.81551 7.61631 10.7361 8.75107 10.7361H8.7549C11.206 10.7381 13.2016 12.6847 13.2826 15.1161C13.2786 15.1686 13.2766 15.2216 13.2765 15.2751V15.2789C13.2751 16.9581 12.3602 18.4243 11.0019 19.2066C10.3169 19.5989 9.54102 19.8047 8.75167 19.8035V19.8028C8.70729 19.8028 8.66327 19.8044 8.61973 19.8071C6.17224 19.742 4.20822 17.738 4.2081 15.2753H4.20474L4.19886 15.2766V15.2757C4.19886 14.1411 3.28372 13.2216 2.14909 13.2216C1.01445 13.2216 0.0960732 14.1409 0.0960732 15.2759C0.0960732 16.4109 1.01745 17.33 2.15208 17.33H2.1546C4.65727 17.3311 6.68582 19.3549 6.68714 21.8571V21.8531V21.8596C6.68714 22.9942 7.60696 23.9159 8.74159 23.9159C9.87881 23.9156 10.8016 22.9957 10.8054 21.8584V21.8566C10.8036 20.656 11.2794 19.504 12.1279 18.6545C12.9763 17.805 14.1278 17.3278 15.3285 17.3282V17.3292C16.4659 17.3285 17.3887 16.4081 17.3923 15.2706C17.3923 14.1361 16.4687 13.2165 15.3343 13.2165H15.3285C12.8817 13.2153 10.8849 11.2556 10.8038 8.82804C10.8073 8.78007 10.8106 8.73065 10.8106 8.68136C10.8106 8.68016 10.8112 8.67884 10.8112 8.67764C10.8132 6.17545 12.8427 4.14774 15.3457 4.14774C17.8488 4.14774 19.8802 6.17749 19.8803 8.68148H19.8757L19.8737 8.68028V8.68124C19.8737 9.81575 20.7972 10.7353 21.9315 10.7353C23.0658 10.7353 23.9881 9.81575 23.9881 8.68136C23.9881 7.54696 23.07 6.62715 21.9354 6.62715Z" fill="#2FADE2"/>
<path d="M6.59083 2.05625V2.05817C6.58975 4.56048 4.55785 6.58867 2.05494 6.58999H2.05254C0.917907 6.58999 0.000125885 7.50969 0.000125885 8.6442C0.000125885 9.77871 0.916947 10.6987 2.0511 10.6987C4.55785 10.7 6.59275 12.7376 6.59275 15.2204H6.59179C6.59179 16.3598 7.51113 17.2804 8.64576 17.2804C9.7804 17.2804 10.7 16.3637 10.7 15.2294C10.7 14.0951 9.78004 13.1767 8.6454 13.1767C8.6442 13.1767 8.64288 13.1775 8.64157 13.1775C6.13902 13.1754 4.11095 11.1465 4.11095 8.64372C4.11095 6.14093 6.14094 4.10998 8.64468 4.10998V4.10711L8.64336 4.10171H8.64432C9.77896 4.10171 10.6988 3.18621 10.6988 2.05181C10.6988 0.917421 9.77992 0 8.64528 0C7.51065 0 6.59083 0.921739 6.59083 2.05625Z" fill="#707374"/>
</g>
<defs>
<clipPath id="clip0_5_22446">
<rect width="24" height="24" fill="white"/>
</clipPath>
</defs>
</svg>
