<svg width="24" height="24" viewBox="0 0 24 24" fill="none" xmlns="http://www.w3.org/2000/svg">
<g clip-path="url(#clip0_5_22437)">
<path d="M12 24C18.6274 24 24 18.6274 24 12C24 5.37258 18.6274 0 12 0C5.37258 0 0 5.37258 0 12C0 18.6274 5.37258 24 12 24Z" fill="url(#paint0_linear_5_22437)" fill-opacity="0.05"/>
<path d="M21.375 11.205C21.4575 9.47626 20.25 8.32876 18.885 7.54126L18 12.75C18.1827 12.7246 18.3688 12.739 18.5454 12.792C18.7221 12.8451 18.8853 12.9356 19.0237 13.0575C19.1824 13.2132 19.2773 13.4225 19.2898 13.6444C19.3023 13.8664 19.2315 14.085 19.0912 14.2575C19.9462 14.115 21.2775 13.2938 21.375 11.205Z" fill="url(#paint1_linear_5_22437)"/>
<path fill-rule="evenodd" clip-rule="evenodd" d="M9.74999 5.14876L8.69999 4.08751C10.29 3.89251 14.4862 4.14001 18.5475 6.68626C18.5847 6.9135 18.5847 7.14527 18.5475 7.37251L18.8887 7.54501C19.1615 7.99752 19.3412 8.49997 19.4172 9.02287C19.4932 9.54576 19.464 10.0786 19.3312 10.59C18.9787 12 18.375 12.6225 18.105 12.75C17.5612 12.75 16.635 13.065 16.335 14.46C16.035 15.855 15.4575 16.1588 15.21 16.1363L9.20999 16.2075L5.24999 13.875L4.67999 9.04876L5.80499 7.54876L7.81499 5.90626L9.24749 5.32126L9.74999 5.14876ZM16.8412 7.12501C16.6718 7.3046 16.4742 7.45533 16.2562 7.57126C14.715 7.24126 14.1562 6.44626 14.1562 6.44626C15.4669 6.40711 16.7634 6.72605 17.9062 7.36876C17.5582 7.25955 17.2021 7.17804 16.8412 7.12501Z" fill="url(#paint2_linear_5_22437)"/>
<path fill-rule="evenodd" clip-rule="evenodd" d="M16.2825 14.46C15.141 15.009 13.8891 15.2899 12.6225 15.2812C8.83874 15.2812 5.77499 12.9037 5.77499 9.975C5.77499 7.8075 7.44749 5.9475 9.84374 5.1225C5.28374 5.385 1.61624 9.04875 1.61624 13.5712C1.61624 18.7912 6.26999 23.1037 12 23.1037C13.9913 23.0873 15.9423 22.5404 17.652 21.5194C19.3618 20.4985 20.7685 19.0403 21.7275 17.295C19.1587 17.8725 16.125 16.7737 16.2825 14.46Z" fill="url(#paint3_linear_5_22437)"/>
</g>
<defs>
<linearGradient id="paint0_linear_5_22437" x1="12" y1="8.39625" x2="12" y2="24.315" gradientUnits="userSpaceOnUse">
<stop stop-color="#01E8F8"/>
<stop offset="1" stop-color="#01E8F8" stop-opacity="0"/>
</linearGradient>
<linearGradient id="paint1_linear_5_22437" x1="19.4625" y1="9.06376" x2="19.995" y2="15.4275" gradientUnits="userSpaceOnUse">
<stop stop-color="#01E8F7"/>
<stop offset="1" stop-color="#00C2FF"/>
</linearGradient>
<linearGradient id="paint2_linear_5_22437" x1="8.98124" y1="5.64376" x2="15.1612" y2="15.4538" gradientUnits="userSpaceOnUse">
<stop stop-color="#01E8F7"/>
<stop offset="1" stop-color="#00B3EC"/>
</linearGradient>
<linearGradient id="paint3_linear_5_22437" x1="617.624" y1="702.076" x2="641.262" y2="-57.2771" gradientUnits="userSpaceOnUse">
<stop stop-color="#01E8F7"/>
<stop offset="1" stop-color="#00C2FF"/>
</linearGradient>
<clipPath id="clip0_5_22437">
<rect width="24" height="24" fill="white"/>
</clipPath>
</defs>
</svg>
