<svg width="24" height="24" viewBox="0 0 24 24" fill="none" xmlns="http://www.w3.org/2000/svg">
<path d="M23.848 14.3352L12.3799 22.8147C12.228 22.9261 12.0051 22.9363 11.8531 22.8248L0.202623 14.5884C-0.0202555 14.4263 -0.0709097 14.1022 0.111446 13.8894L11.5694 0.151963C11.7315 -0.0506543 12.0355 -0.0506543 12.2077 0.151963L23.9088 13.8084C24.0405 13.9705 24.0203 14.2136 23.848 14.3352Z" fill="#FFF4FC"/>
<path d="M23.23 14.0515L12.3292 22.1055L12.2685 13.8995L12.1874 1.01306L22.9768 13.7475L23.23 14.0515Z" fill="url(#paint0_linear_5_22430)"/>
<path d="M0.648376 14.2237L11.8328 22.1055L11.5796 1.01306L0.648376 14.2237Z" fill="url(#paint1_linear_5_22430)"/>
<path d="M11.7417 13.9198L0.729423 14.1325L0.648376 14.2237L11.8328 22.1055L11.7417 13.9198Z" fill="url(#paint2_linear_5_22430)"/>
<path d="M12.2685 13.8996L22.9768 13.7476L23.23 14.0515L12.3292 22.1056L12.2685 13.8996Z" fill="url(#paint3_linear_5_22430)"/>
<path fill-rule="evenodd" clip-rule="evenodd" d="M10.2518 5.61471C9.73576 4.51042 9.71503 3.50937 9.74606 3.00262L9.94829 3.01501C9.91854 3.50107 9.93832 4.46536 10.4354 5.52903L10.4354 5.5292C10.8328 6.38343 11.3792 6.94 11.7278 7.24872L11.5934 7.4004C11.2328 7.08101 10.6649 6.50295 10.2518 5.61471ZM12.2923 7.69212C12.8061 8.1152 13.2585 8.43679 13.609 8.65711L13.6098 8.65761C14.6747 9.34078 15.6091 9.70254 16.093 9.88399L16.094 9.88436C16.2968 9.96287 16.5199 10.0368 16.8507 10.1463C17.0277 10.2049 17.2354 10.2737 17.4873 10.3588C18.0577 10.5441 18.3551 10.6328 18.5387 10.6876L18.5583 10.6935C18.7408 10.748 18.8119 10.7698 18.9442 10.8279C19.1382 10.9096 20.4384 11.4593 20.9722 12.6628C21.1072 12.966 21.1762 13.2721 21.1988 13.5701L22.9753 13.5449L22.9782 13.7475L21.2073 13.7726C21.2109 14.2037 21.1241 14.6118 21.0088 14.962C20.7968 15.6058 20.4843 16.0658 20.4362 16.1353L20.2696 16.02C20.3127 15.9577 20.613 15.5161 20.8164 14.8986C20.9271 14.5624 21.0079 14.1777 21.0046 13.7755L12.2699 13.8995L12.267 13.6969L15.619 13.6493L12.1815 10.6427L12.3149 10.4902L15.9218 13.645L20.9957 13.573C20.9737 13.2995 20.9096 13.0204 20.7871 12.7452L20.7871 12.7451C20.2882 11.6201 19.0582 11.0958 18.8648 11.0144L18.8641 11.0141L18.8634 11.0137C18.7429 10.9607 18.6822 10.942 18.5003 10.8877L18.4809 10.8818C18.2964 10.8268 17.9973 10.7375 17.4242 10.5514L17.423 10.551C17.1762 10.4675 16.9705 10.3994 16.7939 10.3409C16.4589 10.23 16.2287 10.1538 16.0213 10.0735C15.5325 9.89022 14.583 9.52264 13.5008 8.82842C13.1422 8.60299 12.6829 8.27628 12.1635 7.84852L12.2923 7.69212ZM9.10894 8.43857C9.71415 8.70311 10.5652 9.23329 11.7525 10.1415L11.6294 10.3025C10.4461 9.39726 9.61042 8.8789 9.02779 8.62423C8.73641 8.49686 8.51389 8.43797 8.34633 8.42686C8.18054 8.41587 8.07539 8.45182 8.00692 8.50708C7.9131 8.58563 7.86166 8.72862 7.86435 8.95534C7.86702 9.1802 7.92296 9.46496 8.01708 9.79636C8.16604 10.3209 8.40461 10.9428 8.65627 11.5988C8.72263 11.7718 8.78989 11.9471 8.85667 12.1237C9.06413 12.6722 9.26653 13.2318 9.41822 13.762L11.7397 13.7172L11.7436 13.9197L9.47376 13.9636C9.52985 14.1758 9.5766 14.3822 9.61094 14.5803C9.73915 15.3197 9.70206 15.9843 9.27754 16.375L9.27708 16.3755C9.03222 16.5981 8.6663 16.7261 8.15495 16.8218C7.64172 16.9178 6.96277 16.984 6.07816 17.07L6.07771 17.07C5.52837 17.1209 5.06926 17.1414 4.77162 17.1414V16.9387C5.06152 16.9387 5.51413 16.9187 6.05883 16.8683C6.947 16.782 7.61537 16.7166 8.1177 16.6226C8.62185 16.5283 8.93972 16.4082 9.14063 16.2257C9.48071 15.9123 9.53853 15.3486 9.4113 14.6149C9.37546 14.4082 9.32555 14.1914 9.26514 13.9676L0.731361 14.1325L0.727448 13.9299L9.20852 13.7661C9.06151 13.2615 8.86814 12.7268 8.66715 12.1954C8.60148 12.0217 8.53497 11.8484 8.46908 11.6766C8.21693 11.0194 7.97387 10.3859 7.82217 9.85171C7.72648 9.51478 7.66474 9.20958 7.66175 8.95774C7.65878 8.70817 7.71353 8.48782 7.87772 8.351L7.87876 8.35013L7.87877 8.35013C7.99773 8.25368 8.1584 8.21134 8.35974 8.22469C8.55973 8.23795 8.8064 8.30633 9.10894 8.43857Z" fill="#98C9C0"/>
<defs>
<linearGradient id="paint0_linear_5_22430" x1="12.1857" y1="11.5598" x2="23.2325" y2="11.5598" gradientUnits="userSpaceOnUse">
<stop stop-color="#3B8270"/>
<stop offset="1" stop-color="#305C6E"/>
</linearGradient>
<linearGradient id="paint1_linear_5_22430" x1="0.652672" y1="11.5598" x2="11.8353" y2="11.5598" gradientUnits="userSpaceOnUse">
<stop stop-color="#4E7F98"/>
<stop offset="1" stop-color="#3BC0B5"/>
</linearGradient>
<linearGradient id="paint2_linear_5_22430" x1="0.652672" y1="18.0117" x2="11.8353" y2="18.0117" gradientUnits="userSpaceOnUse">
<stop stop-color="#30435C"/>
<stop offset="1" stop-color="#299AA9"/>
</linearGradient>
<linearGradient id="paint3_linear_5_22430" x1="12.2708" y1="17.9301" x2="23.2325" y2="17.9301" gradientUnits="userSpaceOnUse">
<stop stop-color="#2E2C29"/>
<stop offset="1" stop-color="#323232"/>
</linearGradient>
</defs>
</svg>
