<svg width="24" height="24" viewBox="0 0 24 24" fill="none" xmlns="http://www.w3.org/2000/svg">
<g clip-path="url(#clip0_5_22424)">
<path d="M11.9988 23.9975C18.6255 23.9975 23.9975 18.6255 23.9975 11.9988C23.9975 5.37203 18.6255 0 11.9988 0C5.37203 0 0 5.37203 0 11.9988C0 18.6255 5.37203 23.9975 11.9988 23.9975Z" fill="url(#paint0_linear_5_22424)"/>
<path d="M11.9988 22.793C17.9603 22.793 22.793 17.9603 22.793 11.9988C22.793 6.03732 17.9603 1.20459 11.9988 1.20459C6.03735 1.20459 1.20462 6.03732 1.20462 11.9988C1.20462 17.9603 6.03735 22.793 11.9988 22.793Z" stroke="white" stroke-width="76.9783" stroke-miterlimit="10"/>
<path d="M10.4395 13.2821L12.0357 8.42446L13.6615 13.2821H10.4395ZM17.2062 16.3538L15.8859 12.7279H16.6741C16.8251 12.7266 16.9694 12.6659 17.0759 12.5589C17.1824 12.4519 17.2425 12.3073 17.2432 12.1564C17.2432 12.0852 17.2291 12.0147 17.2019 11.949C17.1747 11.8832 17.1348 11.8235 17.0844 11.7732C17.0341 11.7228 16.9744 11.6829 16.9086 11.6557C16.8429 11.6285 16.7724 11.6144 16.7012 11.6144H15.4696L15.2725 11.0503H16.6741C16.8219 11.0504 16.9638 10.9927 17.0696 10.8897C17.1755 10.7866 17.2368 10.6463 17.2407 10.4986C17.241 10.4237 17.2265 10.3496 17.198 10.2804C17.1696 10.2112 17.1277 10.1484 17.0748 10.0955C17.0219 10.0426 16.959 10.0007 16.8898 9.97219C16.8206 9.94371 16.7465 9.92922 16.6717 9.92954H14.8513L13.866 7.2199C13.7188 6.83277 13.4755 6.48945 13.159 6.22227C12.8463 5.96513 12.4501 5.83188 12.0456 5.84784C11.64 5.83496 11.2433 5.96779 10.9272 6.22227C10.6106 6.48982 10.3666 6.83296 10.2178 7.2199L9.18568 9.95418H7.37515C7.23054 9.95417 7.09182 10.0115 6.98934 10.1135C6.88685 10.2155 6.82895 10.354 6.8283 10.4986C6.8283 10.6488 6.88799 10.7929 6.99424 10.8992C7.10049 11.0054 7.2446 11.0651 7.39486 11.0651H8.76938L8.55754 11.6144H7.32589C7.18085 11.6144 7.04176 11.6721 6.9392 11.7746C6.83665 11.8772 6.77903 12.0163 6.77903 12.1613C6.77903 12.3098 6.83786 12.4523 6.94266 12.5576C7.04745 12.6628 7.18968 12.7223 7.3382 12.7229H8.12892L6.78642 16.3538C6.70391 16.5586 6.65805 16.7762 6.65094 16.9968C6.66494 17.3062 6.7993 17.5979 7.02536 17.8097C7.27412 18.0251 7.59292 18.1425 7.92201 18.1397C8.19843 18.1549 8.47166 18.0746 8.6959 17.9122C8.92014 17.7499 9.08176 17.5154 9.15366 17.248L9.67342 15.6986H14.4547L14.9745 17.285C15.0558 17.5434 15.2213 17.7671 15.4444 17.9207C15.6676 18.0742 15.9357 18.1487 16.2061 18.1324C16.4131 18.1365 16.6174 18.0846 16.7973 17.9821C16.9534 17.8663 17.0919 17.7285 17.2087 17.5732C17.3104 17.3984 17.3624 17.199 17.3589 16.9968C17.3263 16.7817 17.2752 16.5699 17.2062 16.3637V16.3538Z" fill="#FEFEFE"/>
</g>
<defs>
<linearGradient id="paint0_linear_5_22424" x1="4.99805" y1="4.41671" x2="21.278" y2="22.0491" gradientUnits="userSpaceOnUse">
<stop stop-color="#FC8F55"/>
<stop offset="0.44" stop-color="#FE7A6A"/>
<stop offset="1" stop-color="#FE687C"/>
</linearGradient>
<clipPath id="clip0_5_22424">
<rect width="24" height="24" fill="white"/>
</clipPath>
</defs>
</svg>
