<svg width="24" height="24" viewBox="0 0 24 24" fill="none" xmlns="http://www.w3.org/2000/svg">
<g clip-path="url(#clip0_5_22405)">
<path d="M12.1016 2.38733C12.1651 2.52701 12.2032 2.67939 12.2794 2.80638C16.1143 8.92701 19.9619 15.0349 23.7968 21.1429C23.8857 21.2826 23.9746 21.4222 24 21.6254C20.0254 17.5238 16.0635 13.4222 12.0635 9.29527C8.07619 13.4222 4.10159 17.5238 0.126984 21.6254C0.101587 21.6127 0.0888886 21.6 0.0634918 21.5873C0.139682 21.4603 0.203174 21.3461 0.279365 21.2191C4.11429 15.1111 7.9619 8.9905 11.7968 2.86987C11.8857 2.71749 11.9492 2.55241 12.0127 2.38733H12.1016Z" fill="#ED1C24"/>
<path d="M17.4984 17.854H6.62857C7.30159 17.1556 7.91111 16.508 8.54603 15.8858C8.60952 15.8223 8.7619 15.7969 8.87619 15.7969H15.2508C15.3651 15.7969 15.5302 15.8223 15.6063 15.8985C16.2286 16.5334 16.8254 17.1683 17.4984 17.854Z" fill="#ED1C24"/>
<path d="M10.0063 14.2222C10.7175 13.5873 11.4286 12.9524 12.0381 12.4064C12.673 12.9651 13.3841 13.6 14.1079 14.2476C14.0825 14.273 14.0571 14.3111 14.0444 14.3365H10.0952C10.0698 14.3111 10.0317 14.2603 10.0063 14.2222Z" fill="#ED1C24"/>
</g>
<defs>
<clipPath id="clip0_5_22405">
<rect width="24" height="24" fill="white"/>
</clipPath>
</defs>
</svg>
