<svg width="24" height="24" viewBox="0 0 24 24" fill="none" xmlns="http://www.w3.org/2000/svg">
<g clip-path="url(#clip0_5_22387)">
<path fill-rule="evenodd" clip-rule="evenodd" d="M12 0C18.6264 0 24 5.3736 24 12C24 18.6264 18.6264 24 12 24C5.3736 24 0 18.6264 0 12C0 5.3736 5.3736 0 12 0Z" fill="#263145"/>
<path fill-rule="evenodd" clip-rule="evenodd" d="M12.7368 4.24799H11.0592L4.12801 16.32H16.4472H16.4832L15.6 14.88H6.62401L12.7368 4.24799Z" fill="#CCD9E2"/>
<path fill-rule="evenodd" clip-rule="evenodd" d="M18.8472 17.736L19.704 16.284L12.7128 4.24799L6.60001 14.88H8.28001L12.7368 7.11599L18.8472 17.736Z" fill="#AAAAAA"/>
<path fill-rule="evenodd" clip-rule="evenodd" d="M4.12801 16.3201L4.98481 17.7361H18.8472L12.7368 7.08246L11.892 8.57046L16.4256 16.3201H4.12801Z" fill="#5A5967"/>
</g>
<defs>
<clipPath id="clip0_5_22387">
<rect width="24" height="24" fill="white"/>
</clipPath>
</defs>
</svg>
