<svg width="24" height="24" viewBox="0 0 24 24" fill="none" xmlns="http://www.w3.org/2000/svg">
<g clip-path="url(#clip0_5_22383)">
<path d="M17.9796 17.9523L11.9519 23.9799L8.96195 20.9899C12.1862 20.7993 15.2993 19.7511 17.9796 17.9523ZM23.6935 11.7619L22.9549 11.0273L11.9519 0.0203247L0.944981 11.0273L-6.10352e-05 11.9723L0.341425 12.2662C0.726589 12.5878 1.12367 12.8935 1.53265 13.1794C5.88461 16.2449 11.2809 17.1701 16.2642 15.951C18.2972 15.4587 20.227 14.6129 21.9702 13.4534C22.403 13.1675 22.8239 12.8578 23.2368 12.5322C23.4632 12.3495 23.6855 12.1629 23.9039 11.9723L23.6935 11.7619ZM14.8546 14.5295C11.5707 12.5124 7.79058 11.4522 3.93894 11.468C8.95798 9.28015 15.1166 8.98234 20.7631 12.2304C18.9643 13.374 16.9551 14.1562 14.8546 14.5295Z" fill="#2B71FF"/>
</g>
<defs>
<clipPath id="clip0_5_22383">
<rect width="24" height="24" fill="white"/>
</clipPath>
</defs>
</svg>
