<svg width="24" height="24" viewBox="0 0 24 24" fill="none" xmlns="http://www.w3.org/2000/svg">
<g clip-path="url(#clip0_5_22369)">
<path d="M12 24C18.6274 24 24 18.6274 24 12C24 5.37258 18.6274 0 12 0C5.37258 0 0 5.37258 0 12C0 18.6274 5.37258 24 12 24Z" fill="#2E3148"/>
<path d="M12 18.9631C15.8455 18.9631 18.9629 15.8456 18.9629 12.0001C18.9629 8.15454 15.8455 5.03711 12 5.03711C8.15444 5.03711 5.03702 8.15454 5.03702 12.0001C5.03702 15.8456 8.15444 18.9631 12 18.9631Z" fill="#1B1E36"/>
<path d="M12.0247 1.53094C10.7294 1.53094 9.67902 6.22918 9.67902 12.0248C9.67902 17.8204 10.7294 22.5187 12.0247 22.5187C13.32 22.5187 14.3703 17.8204 14.3703 12.0248C14.3703 6.22918 13.32 1.53094 12.0247 1.53094ZM12.1866 21.9264C12.0385 22.124 11.8904 21.9758 11.8904 21.9758C11.2938 21.2846 10.9956 20.0005 10.9956 20.0005C9.95214 16.6425 10.2005 9.43261 10.2005 9.43261C10.6909 3.7087 11.5829 2.35654 11.8864 2.05635C11.9174 2.02571 11.9583 2.00699 12.0017 2.00348C12.0451 1.99997 12.0884 2.01189 12.1239 2.03715C12.5644 2.34925 12.9338 3.65446 12.9338 3.65446C14.0246 7.70384 13.9259 11.5063 13.9259 11.5063C14.0246 14.8149 13.3792 18.5186 13.3792 18.5186C12.8824 21.3333 12.1866 21.9264 12.1866 21.9264Z" fill="#6F7390"/>
<path d="M21.1269 6.80247C20.482 5.6785 15.8845 7.10564 10.8549 9.98967C5.8254 12.8737 2.27763 16.123 2.92208 17.2465C3.56652 18.37 8.16454 16.9433 13.1941 14.0593C18.2236 11.1753 21.7714 7.92596 21.1269 6.80247ZM3.51708 17.0923C3.27017 17.0612 3.32595 16.8583 3.32595 16.8583C3.62883 15.9971 4.59267 15.0993 4.59267 15.0993C6.9872 12.523 13.3651 9.15063 13.3651 9.15063C18.5734 6.7274 20.1912 6.82964 20.6016 6.94263C20.6438 6.95439 20.6804 6.98068 20.705 7.01684C20.7296 7.053 20.7406 7.0967 20.736 7.1402C20.6867 7.6778 19.736 8.6474 19.736 8.6474C16.7684 11.6099 13.4208 13.4168 13.4208 13.4168C10.6001 15.1496 7.0663 16.432 7.0663 16.432C4.37744 17.401 3.51718 17.0923 3.51718 17.0923H3.51708Z" fill="#6F7390"/>
<path d="M21.104 17.2838C21.7539 16.1629 18.2151 12.8987 13.2033 9.993C8.19142 7.0873 3.59449 5.64252 2.94515 6.76542C2.29581 7.88832 5.83406 11.1506 10.8488 14.0563C15.8635 16.9619 20.4547 18.4068 21.104 17.2838ZM3.37581 7.19857C3.27981 6.97095 3.48246 6.91614 3.48246 6.91614C4.37967 6.7467 5.63995 7.13281 5.63995 7.13281C9.06857 7.91357 15.1823 11.7432 15.1823 11.7432C19.8894 15.037 20.6113 16.4878 20.7195 16.8996C20.7305 16.9419 20.7263 16.9867 20.7075 17.0261C20.6887 17.0655 20.6566 17.0969 20.6168 17.115C20.126 17.3397 18.8114 17.0049 18.8114 17.0049C14.7595 15.9184 11.519 13.9279 11.519 13.9279C8.60749 12.3576 5.72846 9.94126 5.72846 9.94126C3.54083 8.09933 3.37648 7.20106 3.37648 7.20106L3.37581 7.19857Z" fill="#6F7390"/>
<path d="M12 13.2346C12.6818 13.2346 13.2346 12.6818 13.2346 12C13.2346 11.3182 12.6818 10.7654 12 10.7654C11.3182 10.7654 10.7654 11.3182 10.7654 12C10.7654 12.6818 11.3182 13.2346 12 13.2346Z" fill="#B7B9C8"/>
<path d="M17.0617 7.99997C17.4572 7.99997 17.7778 7.66833 17.7778 7.25923C17.7778 6.85013 17.4572 6.51849 17.0617 6.51849C16.6662 6.51849 16.3456 6.85013 16.3456 7.25923C16.3456 7.66833 16.6662 7.99997 17.0617 7.99997Z" fill="#B7B9C8"/>
<path d="M5.30861 10.5185C5.70408 10.5185 6.02467 10.1869 6.02467 9.77778C6.02467 9.36869 5.70408 9.03705 5.30861 9.03705C4.91314 9.03705 4.59254 9.36869 4.59254 9.77778C4.59254 10.1869 4.91314 10.5185 5.30861 10.5185Z" fill="#B7B9C8"/>
<path d="M10.5432 19.6049C10.9387 19.6049 11.2593 19.2733 11.2593 18.8642C11.2593 18.4551 10.9387 18.1235 10.5432 18.1235C10.1477 18.1235 9.82707 18.4551 9.82707 18.8642C9.82707 19.2733 10.1477 19.6049 10.5432 19.6049Z" fill="#B7B9C8"/>
</g>
<defs>
<clipPath id="clip0_5_22369">
<rect width="24" height="24" fill="white"/>
</clipPath>
</defs>
</svg>
