<svg width="24" height="24" viewBox="0 0 24 24" fill="none" xmlns="http://www.w3.org/2000/svg">
<g clip-path="url(#clip0_5_22338)">
<path d="M12 24C18.6274 24 24 18.6274 24 12C24 5.37258 18.6274 0 12 0C5.37258 0 0 5.37258 0 12C0 18.6274 5.37258 24 12 24Z" fill="url(#paint0_linear_5_22338)"/>
<path d="M17.4457 11.5714C17.32 11.4971 17.1886 11.4286 17.0571 11.3714H17.04L17.1314 11.2857C17.3028 11.1486 17.4743 11 17.6171 10.8286C18.2914 10.0514 18.4857 9.18284 18.2 8.23998C17.9714 7.46284 17.4457 6.8857 16.6228 6.46856C15.9943 6.15427 15.2857 6.01141 14.4343 6.01141H7.48571L7.50857 12.84H4.37714V15.5257H8.94856L7.51999 16.3943V17.9943H14.5829C15.04 17.9943 15.5257 17.9371 16.0114 17.8628C17.6457 17.5771 18.9257 16.0228 18.9257 14.32C18.9257 13.08 18.4286 12.1486 17.44 11.5657L17.4457 11.5714ZM15 10.4971C14.8571 10.5943 14.6743 10.6457 14.4857 10.6914C14.3486 10.7314 14.2 10.7314 14.0686 10.7314H10.24V8.38856H14.4C14.8971 8.39999 15.3143 8.73141 15.4629 9.22284C15.6 9.69141 15.4057 10.2171 15.0057 10.5028L15 10.4971ZM11.2857 15.64H10.24V12.8971H14.4971C15.1086 12.8971 15.5429 13.0971 15.8514 13.5257C16.1029 13.8686 16.1657 14.3257 16.0229 14.7428C15.8743 15.1428 15.5657 15.44 15.1657 15.5428C14.92 15.6 14.6857 15.64 14.48 15.6457H11.28L11.2857 15.64Z" fill="white"/>
</g>
<defs>
<linearGradient id="paint0_linear_5_22338" x1="3.51429" y1="3.51429" x2="20.4857" y2="20.4857" gradientUnits="userSpaceOnUse">
<stop stop-color="#30B5EC"/>
<stop offset="1" stop-color="#1E58BB"/>
</linearGradient>
<clipPath id="clip0_5_22338">
<rect width="24" height="24" fill="white"/>
</clipPath>
</defs>
</svg>
