<svg width="24" height="24" viewBox="0 0 24 24" fill="none" xmlns="http://www.w3.org/2000/svg">
<g clip-path="url(#clip0_5_22318)">
<path fill-rule="evenodd" clip-rule="evenodd" d="M6.79034 13.6828L11.9118 16.2472V20.3706L6.79034 13.6828Z" fill="white"/>
<path fill-rule="evenodd" clip-rule="evenodd" d="M17.3641 13.6828L12.2245 20.3706V16.2472L17.3641 13.6828Z" fill="white"/>
<path fill-rule="evenodd" clip-rule="evenodd" d="M23.9716 11.9773C23.9716 18.5719 18.6258 23.9176 12.0313 23.9176C5.43679 23.9176 0.0910034 18.5719 0.0910034 11.9773C0.0910034 5.38284 5.43679 0.0370483 12.0313 0.0370483C18.6258 0.0370483 23.9716 5.38284 23.9716 11.9773Z" fill="#F99400"/>
<path fill-rule="evenodd" clip-rule="evenodd" d="M14.7495 13.6532C14.7495 16.1471 12.7278 18.1688 10.234 18.1688C7.74011 18.1688 5.71838 16.1471 5.71838 13.6532C5.71838 11.1594 7.74011 9.13763 10.234 9.13763C12.7278 9.13763 14.7495 11.1594 14.7495 13.6532Z" fill="white"/>
<path fill-rule="evenodd" clip-rule="evenodd" d="M18.3441 4.95195C18.3441 5.82156 17.6392 6.52652 16.7696 6.52652C15.9 6.52652 15.195 5.82156 15.195 4.95195C15.195 4.08234 15.9 3.37738 16.7696 3.37738C17.6392 3.37738 18.3441 4.08234 18.3441 4.95195Z" fill="white"/>
<path fill-rule="evenodd" clip-rule="evenodd" d="M11.6224 5.87584C11.6224 6.64265 11.0007 7.26426 10.2339 7.26426C9.46713 7.26426 8.84564 6.64265 8.84564 5.87584C8.84564 5.10904 9.46713 4.48743 10.2339 4.48743C11.0007 4.48743 11.6224 5.10904 11.6224 5.87584Z" fill="white"/>
<path fill-rule="evenodd" clip-rule="evenodd" d="M17.188 18.2251C17.188 18.9829 16.5735 19.5974 15.8157 19.5974C15.0578 19.5974 14.4435 18.9829 14.4435 18.2251C14.4435 17.4672 15.0578 16.8528 15.8157 16.8528C16.5735 16.8528 17.188 17.4672 17.188 18.2251Z" fill="white"/>
<path fill-rule="evenodd" clip-rule="evenodd" d="M9.66547 10.2399H10.7676V6.70135H9.66547V10.2399Z" fill="white"/>
<path fill-rule="evenodd" clip-rule="evenodd" d="M12.1618 11.0273L11.3434 10.289L15.8185 5.32843L16.6369 6.0667L12.1618 11.0273Z" fill="white"/>
<path fill-rule="evenodd" clip-rule="evenodd" d="M15.5042 18.6588L16.2836 17.8795L11.5595 13.1554L10.7802 13.9348L15.5042 18.6588Z" fill="white"/>
</g>
<defs>
<clipPath id="clip0_5_22318">
<rect width="24" height="24" fill="white"/>
</clipPath>
</defs>
</svg>
