<svg width="24" height="24" viewBox="0 0 24 24" fill="none" xmlns="http://www.w3.org/2000/svg">
<g clip-path="url(#clip0_5_22304)">
<path d="M0 4.4942H24V19.4952L0 19.4953V4.4942Z" fill="white"/>
<path d="M0 4.49439H6.85484C5.6609 5.33908 4.69436 6.45984 4.02037 7.76758C3.34619 9.07514 2.99693 10.5208 2.99693 11.9908C2.99693 13.4609 3.34619 14.9148 4.02037 16.2223C4.69455 17.5301 5.6609 18.6508 6.85484 19.4953H0V4.4942V4.49439ZM11.996 4.49439C10.0386 4.49439 8.1624 5.28218 6.77361 6.68725C5.39287 8.09232 4.61313 10.0011 4.61313 11.9908C4.61313 13.9806 5.39287 15.8894 6.77361 17.2944C8.15435 18.6995 10.0386 19.4873 11.996 19.4873C13.9532 19.4873 15.8294 18.6995 17.2183 17.2944C18.5991 15.8894 19.3788 13.9808 19.3788 11.9908C19.3788 10.0011 18.5991 8.09232 17.2183 6.68725C15.8376 5.28218 13.9534 4.49439 11.996 4.49439ZM24 4.49439H17.1452C18.3391 5.33908 19.3056 6.45984 19.9796 7.76758C20.6538 9.07514 21.0029 10.5208 21.0029 11.9991C21.0029 13.4691 20.6536 14.9228 19.9796 16.2306C19.3055 17.5381 18.3391 18.6589 17.1452 19.5036H24V4.49439Z" fill="#F7931A"/>
<path d="M15.2603 9.79457C14.9273 8.84432 14.0177 8.73052 12.9536 8.90122L12.6207 7.55286L11.8085 7.75593L12.1335 9.07173C11.9223 9.12862 11.703 9.18534 11.4919 9.24224L11.1669 7.9184L10.3548 8.12147L10.6878 9.46964C10.5173 9.51831 10.3385 9.56716 10.1761 9.60777V9.59973L9.0553 9.88404L9.27466 10.7613C9.27466 10.7613 9.86761 10.5988 9.85937 10.6151C10.1841 10.5339 10.3385 10.6963 10.4117 10.8588L10.7933 12.402C10.8259 12.394 10.8502 12.3857 10.8826 12.3857L10.7933 12.4101L11.3212 14.5705C11.3292 14.6761 11.3131 14.8629 11.0857 14.9198C11.102 14.9278 10.4927 15.066 10.4927 15.066L10.574 16.0892L11.6298 15.8212C11.8248 15.7725 12.0197 15.7239 12.2065 15.6831L12.5394 17.0475L13.3516 16.8444L13.0186 15.488C13.246 15.4394 13.4571 15.3825 13.6682 15.3338L14.0012 16.682L14.8133 16.4789L14.4804 15.1144C15.8205 14.6922 16.6895 14.0992 16.4864 12.7672C16.324 11.6951 15.723 11.3541 14.9026 11.3621C15.3168 10.9966 15.5036 10.4931 15.2599 9.79457H15.2603ZM14.8461 13.0026C15.0978 14.0261 13.3435 14.3428 12.7994 14.4809L12.3526 12.6697C12.905 12.5398 14.5861 11.9468 14.8461 13.0026ZM13.8472 10.5498C14.0746 11.4757 12.6126 11.7355 12.1578 11.8493L11.7516 10.2088C12.2065 10.0869 13.6033 9.57521 13.847 10.5498H13.8472Z" fill="white"/>
</g>
<defs>
<clipPath id="clip0_5_22304">
<rect width="24" height="24" fill="white"/>
</clipPath>
</defs>
</svg>
