<svg width="24" height="24" viewBox="0 0 24 24" fill="none" xmlns="http://www.w3.org/2000/svg">
<g clip-path="url(#clip0_5_22290)">
<path fill-rule="evenodd" clip-rule="evenodd" d="M24 12C24 18.6274 18.6274 24 12 24C5.37255 24 0 18.6274 0 12C0 5.37255 5.37255 0 12 0C18.6274 0 24 5.37255 24 12Z" fill="#182C44"/>
<path fill-rule="evenodd" clip-rule="evenodd" d="M10.6443 19.8659C10.4043 19.8659 10.1649 19.8008 9.94953 19.6712C9.54027 19.425 9.29596 18.9929 9.29596 18.5152V15.3529C9.29596 15.0629 9.53099 14.8279 9.82098 14.8279C10.111 14.8279 10.346 15.0629 10.346 15.3529V18.5152C10.346 18.6679 10.4473 18.7453 10.4909 18.7714C10.5344 18.7977 10.6502 18.8509 10.785 18.7794L13.2462 17.4745C13.7204 17.2231 13.9976 16.7526 13.9878 16.2159C13.978 15.6793 13.6836 15.2193 13.2005 14.9855L9.99316 13.4334C9.43884 13.1651 9.09448 12.6158 9.09448 12C9.09448 11.3841 9.43884 10.8349 9.99316 10.5666L13.2005 9.01445C13.6836 8.78068 13.978 8.3207 13.9878 7.78408C13.9976 7.2474 13.7204 6.77688 13.2462 6.52547L10.785 5.22059C10.6502 5.14912 10.5344 5.20229 10.4909 5.22854C10.4473 5.25473 10.346 5.3321 10.346 5.48472V8.64709C10.346 8.93708 10.111 9.1721 9.82098 9.1721C9.53099 9.1721 9.29596 8.93708 9.29596 8.64709V5.48472C9.29596 5.00711 9.54027 4.57498 9.94953 4.32874C10.3587 4.08258 10.855 4.06912 11.277 4.29281L13.7381 5.59769C14.5567 6.03175 15.0548 6.87692 15.0377 7.80331C15.0206 8.72983 14.492 9.5561 13.6579 9.95973L10.4506 11.5118C10.2589 11.6046 10.1445 11.787 10.1445 12C10.1445 12.2129 10.2589 12.3954 10.4506 12.4881L13.6579 14.0403C14.492 14.4439 15.0206 15.2702 15.0377 16.1966C15.0548 17.1231 14.5567 17.9682 13.7381 18.4023L11.277 19.7072C11.077 19.8131 10.8604 19.8659 10.6443 19.8659Z" fill="#FFFFFE"/>
<path fill-rule="evenodd" clip-rule="evenodd" d="M17.057 9.99789V14.0022L19.6364 12L17.057 9.99789ZM16.5318 15.5994C16.4533 15.5994 16.3742 15.5818 16.301 15.5459C16.121 15.4577 16.0069 15.2748 16.0069 15.0744V8.92571C16.0069 8.72529 16.121 8.54237 16.301 8.4542C16.481 8.36608 16.6955 8.38803 16.8538 8.51095L20.8147 11.5853C20.9429 11.6847 21.0178 11.8379 21.0178 12C21.0178 12.1622 20.9429 12.3153 20.8147 12.4148L16.8538 15.4891C16.76 15.562 16.6463 15.5994 16.5318 15.5994ZM4.3635 12L6.94303 14.0022V9.99789L4.3635 12ZM7.46812 15.5994C7.35362 15.5994 7.24005 15.562 7.14611 15.4891L3.18531 12.4148C3.05716 12.3153 2.98224 12.1622 2.98224 12C2.98224 11.8379 3.05716 11.6847 3.18531 11.5853L7.14611 8.51095C7.30449 8.38803 7.51903 8.36595 7.69897 8.4542C7.87897 8.54237 7.99307 8.72529 7.99307 8.92571V15.0744C7.99307 15.2748 7.87897 15.4577 7.69897 15.5459C7.62571 15.5817 7.54668 15.5994 7.46812 15.5994Z" fill="#FFFFFE"/>
</g>
<defs>
<clipPath id="clip0_5_22290">
<rect width="24" height="24" fill="white"/>
</clipPath>
</defs>
</svg>
