<svg width="24" height="24" viewBox="0 0 24 24" fill="none" xmlns="http://www.w3.org/2000/svg">
<g clip-path="url(#clip0_5_22277)">
<path d="M12 24C18.6274 24 24 18.6274 24 12C24 5.37258 18.6274 0 12 0C5.37258 0 0 5.37258 0 12C0 18.6274 5.37258 24 12 24Z" fill="black"/>
<path d="M12 22.9476C18.0462 22.9476 22.9476 18.0462 22.9476 12C22.9476 5.95382 18.0462 1.05243 12 1.05243C5.95382 1.05243 1.05243 5.95382 1.05243 12C1.05243 18.0462 5.95382 22.9476 12 22.9476Z" fill="black" stroke="white"/>
<path fill-rule="evenodd" clip-rule="evenodd" d="M11.9437 14.4446H15.9624L11.9447 7.48308V7.4839V3.26434L19.8188 16.6847H11.9437V14.4446Z" fill="#0B76FF"/>
<path fill-rule="evenodd" clip-rule="evenodd" d="M11.9433 14.4446L11.9438 16.6847H4.06799L11.9422 3.26434L11.9427 7.4839L11.9422 7.48308L7.92454 14.4446H11.9433Z" fill="#24C1FF"/>
<path fill-rule="evenodd" clip-rule="evenodd" d="M11.9437 9.211V13.6265L9.45233 13.6311L11.9437 9.211Z" fill="#39FFF2"/>
<path fill-rule="evenodd" clip-rule="evenodd" d="M11.9437 9.211L14.4346 13.6311L11.9437 13.6265V9.211Z" fill="#00E2C2"/>
<path fill-rule="evenodd" clip-rule="evenodd" d="M2.2196 7.84503L11.9437 11.8633V12.4255L2.2196 10.0148V7.84503Z" fill="url(#paint0_linear_5_22277)"/>
<path fill-rule="evenodd" clip-rule="evenodd" d="M21.6673 6.15991L11.9437 11.8632V12.0174L21.6673 8.00567V6.15991Z" fill="url(#paint1_linear_5_22277)"/>
<path fill-rule="evenodd" clip-rule="evenodd" d="M21.6596 11.7025L11.9437 12.425V12.2652L21.6596 9.85394V11.7025Z" fill="url(#paint2_linear_5_22277)"/>
<path fill-rule="evenodd" clip-rule="evenodd" d="M21.6673 8.08313L11.9437 12.0267V12.2652L21.6673 9.77375V8.08313Z" fill="url(#paint3_linear_5_22277)"/>
</g>
<defs>
<linearGradient id="paint0_linear_5_22277" x1="2.2196" y1="10.1353" x2="9.01911" y2="10.1353" gradientUnits="userSpaceOnUse">
<stop stop-color="white" stop-opacity="0"/>
<stop offset="1" stop-color="white"/>
</linearGradient>
<linearGradient id="paint1_linear_5_22277" x1="21.3594" y1="8.0096" x2="15.088" y2="8.52791" gradientUnits="userSpaceOnUse">
<stop stop-color="#FD76FD" stop-opacity="0"/>
<stop offset="1" stop-color="#FF51FF"/>
</linearGradient>
<linearGradient id="paint2_linear_5_22277" x1="21.266" y1="10.9963" x2="16.3187" y2="10.9963" gradientUnits="userSpaceOnUse">
<stop stop-color="#5300FF" stop-opacity="0"/>
<stop offset="1" stop-color="#9D6EFF"/>
</linearGradient>
<linearGradient id="paint3_linear_5_22277" x1="21.3723" y1="9.56394" x2="16.5904" y2="11.0171" gradientUnits="userSpaceOnUse">
<stop stop-color="#AE60D6" stop-opacity="0"/>
<stop offset="1" stop-color="#AB38E6"/>
</linearGradient>
<clipPath id="clip0_5_22277">
<rect width="24" height="24" fill="white"/>
</clipPath>
</defs>
</svg>
