<svg width="24" height="24" viewBox="0 0 24 24" fill="none" xmlns="http://www.w3.org/2000/svg">
<g clip-path="url(#clip0_5_22273)">
<path d="M12 24C18.6274 24 24 18.6274 24 12C24 5.37258 18.6274 0 12 0C5.37258 0 0 5.37258 0 12C0 18.6274 5.37258 24 12 24Z" fill="#13A0F6"/>
<path fill-rule="evenodd" clip-rule="evenodd" d="M6.22276 8.67603C5.92919 8.52205 5.68336 8.29067 5.51189 8.00696C5.34042 7.72325 5.24986 7.39803 5.25001 7.06653C5.12183 6.82347 5.0506 6.55444 5.04172 6.27979C5.03284 6.00514 5.08654 5.73207 5.19876 5.48124C5.31098 5.23041 5.47878 5.00839 5.68947 4.83197C5.90015 4.65556 6.1482 4.52937 6.41484 4.46296C6.68149 4.39654 6.95974 4.39165 7.22856 4.44864C7.49738 4.50562 7.74971 4.62301 7.96647 4.7919C8.18323 4.96079 8.35874 5.17677 8.47972 5.4235C8.6007 5.67023 8.66397 5.94124 8.66476 6.21603C9.68885 5.61715 10.8542 5.30233 12.0405 5.30403C15.7455 5.30403 18.75 8.31453 18.75 12.027C18.75 15.7395 15.7463 18.75 12.0405 18.75C8.33477 18.75 5.33101 15.7403 5.33101 12.027C5.32929 10.8512 5.63682 9.69551 6.22276 8.67603ZM12.0405 15.3345C13.863 15.3345 15.3405 13.854 15.3405 12.027C15.3405 10.2 13.863 8.71953 12.0405 8.71953C10.218 8.71953 8.74051 10.2008 8.74051 12.027C8.74051 13.8533 10.218 15.3345 12.0405 15.3345Z" fill="white"/>
</g>
<defs>
<clipPath id="clip0_5_22273">
<rect width="24" height="24" fill="white"/>
</clipPath>
</defs>
</svg>
