<svg width="24" height="24" viewBox="0 0 24 24" fill="none" xmlns="http://www.w3.org/2000/svg">
<path fill-rule="evenodd" clip-rule="evenodd" d="M20.0387 19.376C19.9756 19.3058 19.8669 19.3012 19.7979 19.3666L19.7956 19.3702C19.7265 19.4356 19.7254 19.5444 19.7932 19.611L23.5673 23.3291L20.0387 19.376Z" fill="black"/>
<path fill-rule="evenodd" clip-rule="evenodd" d="M18.6146 13.5499L18.6111 13.5535C18.5421 13.6189 18.5421 13.7277 18.6088 13.7943L22.5443 17.6655L18.8555 13.5593C18.7924 13.4891 18.6836 13.4845 18.6146 13.5499Z" fill="black"/>
<path fill-rule="evenodd" clip-rule="evenodd" d="M15.3971 12.7771L12.9554 10.3912C12.9186 11.6502 12.7205 14.2504 12.2173 15.4665C12.2095 15.4852 12.1984 15.5046 12.1895 15.5235C12.5451 15.75 13.2931 16.1876 13.5906 16.1876C13.9623 16.1866 14.7031 15.776 14.9712 15.5186C15.2038 15.2934 15.4502 14.8419 15.6886 14.4052C15.8809 14.053 16.0796 13.6886 16.2864 13.4092C16.4102 13.2422 16.5249 13.1198 16.637 13.0347C16.8694 12.86 17.2528 12.7194 17.6586 12.5706C18.2018 12.3715 18.8174 12.1457 19.0047 11.8392C19.1924 11.5329 19.082 10.4705 19.0065 9.96523C18.4936 10.0211 16.4113 10.176 14.9106 9.21247C14.1963 8.75337 13.1438 7.74979 12.6573 7.27148C12.8318 8.29789 12.9463 9.35889 12.9573 10.0718L15.3971 12.7771Z" fill="#FECD0F"/>
<path fill-rule="evenodd" clip-rule="evenodd" d="M15.238 19.8916L15.2357 19.894C15.1668 19.9594 15.1656 20.0693 15.2334 20.1348L19.0216 23.8703L15.4789 19.901C15.4157 19.8308 15.307 19.8262 15.238 19.8916Z" fill="black"/>
<path fill-rule="evenodd" clip-rule="evenodd" d="M15.9664 16.5162C15.9244 16.5162 15.8834 16.5314 15.8507 16.5629C15.7817 16.6284 15.7806 16.7383 15.8495 16.805L18.5106 19.369L16.0927 16.5747C16.0599 16.536 16.0132 16.5162 15.9664 16.5162Z" fill="black"/>
<path fill-rule="evenodd" clip-rule="evenodd" d="M12.1561 19.2217V19.5211L12.7244 19.0856C12.7762 19.0461 12.8455 19.0367 12.9057 19.0614C12.9662 19.0861 13.0076 19.1396 13.0167 19.2042C13.0353 19.4997 13.1062 20.2962 13.2184 20.5367C13.3241 20.7627 13.7072 21.2089 14.2972 21.7926C14.3139 21.8092 14.3321 21.8062 14.3413 21.8027C14.351 21.7992 14.3675 21.79 14.3699 21.7664C14.3966 21.6301 14.4183 21.4671 14.4108 21.4249C14.275 20.6732 13.1335 18.765 12.9061 18.3902C12.8915 18.3664 12.8709 18.3472 12.8451 18.3336L11.8918 17.8321V18.2089L12.1561 18.4208V19.2217Z" fill="#FECD0F"/>
<path fill-rule="evenodd" clip-rule="evenodd" d="M10.4876 21.0491H10.4865C10.4175 21.1146 10.4163 21.2245 10.4841 21.2911L13.2493 23.9873L10.7296 21.062C10.6665 20.9894 10.5566 20.9836 10.4876 21.0491Z" fill="black"/>
<mask id="mask0_5_22241" style="mask-type:alpha" maskUnits="userSpaceOnUse" x="1" y="0" width="12" height="20">
<path d="M10.7025 11.2321L10.9652 11.5345L10.7513 11.5637C10.4047 11.611 9.86335 11.7301 9.74548 11.8466C9.58595 12.0047 9.43032 12.7034 9.36973 13.1067L9.36516 13.137L9.34632 13.1612C9.24222 13.2946 8.88281 13.7308 8.62654 13.7416C8.62219 13.7418 8.61778 13.7418 8.61336 13.7418C8.45169 13.7418 8.26617 13.6183 8.0484 13.3684C7.84087 13.3554 7.34776 13.2902 7.17424 12.9695C7.07368 12.7836 7.25736 12.3697 7.34975 12.1844C7.34666 12.1604 7.34489 12.1361 7.34489 12.1119C7.34894 11.8632 7.60477 11.387 7.83837 11.2696C8.00614 11.1845 8.25697 11.2116 8.52266 11.24C8.75773 11.265 9.02401 11.2936 9.12553 11.2175C9.27807 11.1038 9.35103 10.4182 9.35235 9.99065L9.35331 9.67902L9.92673 10.3391C10.0352 10.0698 10.1536 9.724 10.142 9.59193C10.1253 9.40921 9.8283 8.91286 9.64499 8.64319L9.83839 8.51163C9.89044 8.58827 10.3472 9.268 10.3749 9.57109C10.3956 9.80741 10.1816 10.3395 10.0981 10.5363L10.5444 11.0501C10.7618 10.7365 11.1313 10.1573 11.1449 9.91541C11.1621 9.5976 10.7818 8.78984 10.4509 8.19448C10.4321 8.15929 10.4215 8.14103 10.4208 8.13978L10.6223 8.02118C10.6223 8.02118 10.6349 8.0426 10.6563 8.0828C10.8312 8.39745 11.4032 9.46611 11.3784 9.9283C11.3589 10.2734 10.8748 10.9879 10.7025 11.2321ZM6.54281 7.20121C6.44806 7.38018 6.33932 7.55546 6.19319 7.70867C6.17095 7.7309 6.14762 7.75431 6.12303 7.77529C6.2283 7.75431 6.35221 7.76366 6.45277 7.8735C6.55797 7.9893 6.53809 8.41836 6.40249 8.49551C6.20489 8.60543 5.65068 8.17166 5.50337 8.0524C5.38646 8.08162 5.26956 8.10503 5.15029 8.12255C5.08477 8.1319 5.02632 8.08398 5.0205 8.01853C5.01579 7.95654 5.06261 7.90273 5.12452 7.89691C5.28008 7.88403 5.43675 7.86069 5.58752 7.82557C5.68109 7.80341 5.77348 7.77765 5.85881 7.74143C5.94413 7.70749 6.02011 7.66309 6.09498 7.60111C6.24229 7.48184 6.36744 7.32636 6.48082 7.16388C6.59309 7.00015 6.69476 6.82707 6.78244 6.64589C6.71699 6.83649 6.6363 7.02121 6.54281 7.20121ZM3.30178 6.46346C2.63419 6.46346 2.09287 5.92214 2.09287 5.25573C2.09287 4.58815 2.63419 4.04675 3.30178 4.04675C3.41868 4.04675 3.53213 4.06435 3.63969 4.09586C3.59758 3.94391 3.57424 3.78371 3.57424 3.61887C3.57424 2.60631 4.39385 1.78678 5.40634 1.78678C6.41765 1.78678 7.23726 2.60631 7.23726 3.61887C7.23726 4.63019 6.41765 5.44979 5.40634 5.44979C5.07895 5.44979 4.77262 5.36329 4.50722 5.21362C4.5084 5.22768 4.50958 5.24167 4.50958 5.25573C4.50958 5.92214 3.96825 6.46346 3.30178 6.46346ZM12.7243 10.2797H12.8412L12.757 10.1979L12.8412 10.1172L12.7243 10.1184C12.7167 9.33478 12.5748 8.09068 12.3626 6.94906C12.2779 6.48643 12.187 6.07689 12.0996 5.7643C11.4303 3.36577 9.63299 1.48317 7.03908 0.463316C6.25768 0.156543 4.46725 0.155291 3.83243 0.560641C0.765064 2.51664 1.6153 5.64017 1.89468 6.66665C2.16767 7.67112 2.98668 8.99097 4.39635 9.4053L5.32094 9.49284L4.53417 9.56116C4.55125 9.63647 4.53756 9.72695 4.50899 9.81603L4.94798 9.83546L4.47218 9.91453C4.43235 10.0074 4.38538 10.088 4.35586 10.1281C4.26163 10.2547 4.09981 10.3948 3.92865 10.5431C3.71905 10.7246 3.48148 10.9304 3.40757 11.0873C3.3832 11.1389 3.3589 11.1984 3.33343 11.269C3.18325 11.6943 3.09962 12.3365 3.09829 13.0766C3.09601 13.9993 3.22271 14.95 3.42111 15.499C3.65176 16.1386 4.77034 17.1256 5.38315 17.4537C5.53893 17.5367 5.76715 17.6079 6.06126 17.6653L6.03851 17.7817L6.04035 17.7798L6.06273 17.6665C6.69078 17.7906 7.49022 17.8247 7.96771 17.8048C8.39544 17.7868 9.67967 17.4232 10.0855 17.3056L9.79363 16.5921L10.01 16.5035L11.0355 19.0102L11.9222 19.0933V18.5331L11.1127 17.8839L10.7382 16.1338L10.9667 16.0847L11.1009 16.7115C11.3613 16.3724 11.7552 15.8421 11.9365 15.5097C11.9614 15.4647 11.9837 15.419 12.0015 15.3767C12.4627 14.2621 12.6858 11.7496 12.7232 10.3328L12.7243 10.2797Z" fill="white"/>
</mask>
<g mask="url(#mask0_5_22241)">
<path fill-rule="evenodd" clip-rule="evenodd" d="M10.7025 11.2321L10.9652 11.5345L10.7513 11.5637C10.4047 11.611 9.86335 11.7301 9.74548 11.8466C9.58595 12.0047 9.43032 12.7034 9.36973 13.1067L9.36516 13.137L9.34632 13.1612C9.24222 13.2946 8.88281 13.7308 8.62654 13.7416C8.62219 13.7418 8.61778 13.7418 8.61336 13.7418C8.45169 13.7418 8.26617 13.6183 8.0484 13.3684C7.84087 13.3554 7.34776 13.2902 7.17424 12.9695C7.07368 12.7836 7.25736 12.3697 7.34975 12.1844C7.34666 12.1604 7.34489 12.1361 7.34489 12.1119C7.34894 11.8632 7.60477 11.387 7.83837 11.2696C8.00614 11.1845 8.25697 11.2116 8.52266 11.24C8.75773 11.265 9.02401 11.2936 9.12553 11.2175C9.27807 11.1038 9.35103 10.4182 9.35235 9.99065L9.35331 9.67902L9.92673 10.3391C10.0352 10.0698 10.1536 9.724 10.142 9.59193C10.1253 9.40921 9.8283 8.91286 9.64499 8.64319L9.83839 8.51163C9.89044 8.58827 10.3472 9.268 10.3749 9.57109C10.3956 9.80741 10.1816 10.3395 10.0981 10.5363L10.5444 11.0501C10.7618 10.7365 11.1313 10.1573 11.1449 9.91541C11.1621 9.5976 10.7818 8.78984 10.4509 8.19448C10.4321 8.15929 10.4215 8.14103 10.4208 8.13978L10.6223 8.02118C10.6223 8.02118 10.6349 8.0426 10.6563 8.0828C10.8312 8.39745 11.4032 9.46611 11.3784 9.9283C11.3589 10.2734 10.8748 10.9879 10.7025 11.2321ZM6.54281 7.20121C6.44806 7.38018 6.33932 7.55546 6.19319 7.70867C6.17095 7.7309 6.14762 7.75431 6.12303 7.77529C6.2283 7.75431 6.35221 7.76366 6.45277 7.8735C6.55797 7.9893 6.53809 8.41836 6.40249 8.49551C6.20489 8.60543 5.65068 8.17166 5.50337 8.0524C5.38646 8.08162 5.26956 8.10503 5.15029 8.12255C5.08477 8.1319 5.02632 8.08398 5.0205 8.01853C5.01579 7.95654 5.06261 7.90273 5.12452 7.89691C5.28008 7.88403 5.43675 7.86069 5.58752 7.82557C5.68109 7.80341 5.77348 7.77765 5.85881 7.74143C5.94413 7.70749 6.02011 7.66309 6.09498 7.60111C6.24229 7.48184 6.36744 7.32636 6.48082 7.16388C6.59309 7.00015 6.69476 6.82707 6.78244 6.64589C6.71699 6.83649 6.6363 7.02121 6.54281 7.20121ZM3.30178 6.46346C2.63419 6.46346 2.09287 5.92214 2.09287 5.25573C2.09287 4.58815 2.63419 4.04675 3.30178 4.04675C3.41868 4.04675 3.53213 4.06435 3.63969 4.09586C3.59758 3.94391 3.57424 3.78371 3.57424 3.61887C3.57424 2.60631 4.39385 1.78678 5.40634 1.78678C6.41765 1.78678 7.23726 2.60631 7.23726 3.61887C7.23726 4.63019 6.41765 5.44979 5.40634 5.44979C5.07895 5.44979 4.77262 5.36329 4.50722 5.21362C4.5084 5.22768 4.50958 5.24167 4.50958 5.25573C4.50958 5.92214 3.96825 6.46346 3.30178 6.46346ZM12.7243 10.2797H12.8412L12.757 10.1979L12.8412 10.1172L12.7243 10.1184C12.7167 9.33478 12.5748 8.09068 12.3626 6.94906C12.2779 6.48643 12.187 6.07689 12.0996 5.7643C11.4303 3.36577 9.63299 1.48317 7.03908 0.463316C6.25768 0.156543 4.46725 0.155291 3.83243 0.560641C0.765064 2.51664 1.6153 5.64017 1.89468 6.66665C2.16767 7.67112 2.98668 8.99097 4.39635 9.4053L5.32094 9.49284L4.53417 9.56116C4.55125 9.63647 4.53756 9.72695 4.50899 9.81603L4.94798 9.83546L4.47218 9.91453C4.43235 10.0074 4.38538 10.088 4.35586 10.1281C4.26163 10.2547 4.09981 10.3948 3.92865 10.5431C3.71905 10.7246 3.48148 10.9304 3.40757 11.0873C3.3832 11.1389 3.3589 11.1984 3.33343 11.269C3.18325 11.6943 3.09962 12.3365 3.09829 13.0766C3.09601 13.9993 3.22271 14.95 3.42111 15.499C3.65176 16.1386 4.77034 17.1256 5.38315 17.4537C5.53893 17.5367 5.76715 17.6079 6.06126 17.6653L6.03851 17.7817L6.04035 17.7798L6.06273 17.6665C6.69078 17.7906 7.49022 17.8247 7.96771 17.8048C8.39544 17.7868 9.67967 17.4232 10.0855 17.3056L9.79363 16.5921L10.01 16.5035L11.0355 19.0102L11.9222 19.0933V18.5331L11.1127 17.8839L10.7382 16.1338L10.9667 16.0847L11.1009 16.7115C11.3613 16.3724 11.7552 15.8421 11.9365 15.5097C11.9614 15.4647 11.9837 15.419 12.0015 15.3767C12.4627 14.2621 12.6858 11.7496 12.7232 10.3328L12.7243 10.2797Z" fill="url(#paint0_linear_5_22241)"/>
</g>
<mask id="mask1_5_22241" style="mask-type:alpha" maskUnits="userSpaceOnUse" x="5" y="17" width="3" height="3">
<path d="M5.49902 17.758C5.61159 18.1883 5.81699 18.8822 5.98484 19.0971C6.14938 19.3065 6.77205 19.6696 7.14258 19.8703V18.5335C6.93814 18.5438 6.57306 18.5483 6.42221 18.4678C6.26452 18.3823 6.05493 18.0415 5.96401 17.884C5.78673 17.8474 5.63088 17.8054 5.49902 17.758Z" fill="white"/>
</mask>
<g mask="url(#mask1_5_22241)">
<path fill-rule="evenodd" clip-rule="evenodd" d="M5.49902 17.758C5.61159 18.1883 5.81699 18.8822 5.98484 19.0971C6.14938 19.3065 6.77205 19.6696 7.14258 19.8703V18.5335C6.93814 18.5438 6.57306 18.5483 6.42221 18.4678C6.26452 18.3823 6.05493 18.0415 5.96401 17.884C5.78673 17.8474 5.63088 17.8054 5.49902 17.758Z" fill="#356C00"/>
</g>
<path fill-rule="evenodd" clip-rule="evenodd" d="M9.26548 11.4047C9.09056 11.5358 8.80263 11.5049 8.4977 11.4724C8.38028 11.4599 8.25394 11.4464 8.1469 11.4464C8.06275 11.4464 7.99053 11.4547 7.94364 11.4785C7.79978 11.5507 7.58165 11.9306 7.5787 12.1138C7.5787 12.1388 7.58187 12.1657 7.58828 12.1918L7.58879 12.1943C7.65196 12.4805 7.99664 12.9291 8.10987 13.0765C8.13188 13.1052 8.15949 13.1405 8.19144 13.177C8.45367 13.4893 8.58229 13.5069 8.61674 13.508C8.71362 13.5039 8.96217 13.2677 9.1432 13.041C9.17559 12.8356 9.33093 11.9282 9.58109 11.6804C9.74305 11.5202 10.2181 11.4158 10.5091 11.365L9.57659 10.293C9.5551 10.6669 9.4859 11.2406 9.26548 11.4047Z" fill="#FECD0F"/>
<path fill-rule="evenodd" clip-rule="evenodd" d="M7.85066 18.526H7.3764V19.6464L8.92249 21.1784L7.85066 18.526Z" fill="#FECD0F"/>
<path fill-rule="evenodd" clip-rule="evenodd" d="M7.38054 12.8594C7.45356 12.9893 7.64941 13.0663 7.85604 13.1056C7.71747 12.9262 7.56623 12.7136 7.46426 12.5129C7.39956 12.675 7.36266 12.8168 7.38054 12.8594Z" fill="#FECD0F"/>
<path fill-rule="evenodd" clip-rule="evenodd" d="M3.82793 3.6189C3.82793 3.13368 4.21959 2.74202 4.70482 2.74202C5.18886 2.74202 5.5817 3.13368 5.5817 3.6189C5.5817 4.10288 5.18886 4.49579 4.70482 4.49579C4.21959 4.49579 3.82793 4.10288 3.82793 3.6189ZM3.14511 5.87888C2.80138 5.87888 2.52192 5.59949 2.52192 5.25576C2.52192 4.91085 2.80138 4.63139 3.14511 4.63139C3.49002 4.63139 3.76948 4.91085 3.76948 5.25576C3.76948 5.59949 3.49002 5.87888 3.14511 5.87888ZM5.40634 5.44982C6.41765 5.44982 7.23726 4.63022 7.23726 3.6189C7.23726 2.60634 6.41765 1.7868 5.40634 1.7868C4.39385 1.7868 3.57424 2.60634 3.57424 3.6189C3.57424 3.78374 3.59758 3.94393 3.63969 4.09588C3.53213 4.06437 3.41868 4.04678 3.30177 4.04678C2.63419 4.04678 2.09286 4.58818 2.09286 5.25576C2.09286 5.92217 2.63419 6.46349 3.30177 6.46349C3.96825 6.46349 4.50958 5.92217 4.50958 5.25576C4.50958 5.2417 4.5084 5.22771 4.50722 5.21365C4.77262 5.36332 5.07895 5.44982 5.40634 5.44982Z" fill="white"/>
<path fill-rule="evenodd" clip-rule="evenodd" d="M6.09498 7.60109C6.02011 7.66308 5.94413 7.70747 5.85881 7.74141C5.77348 7.77763 5.68109 7.8034 5.58752 7.82556C5.43674 7.86067 5.28008 7.88401 5.12452 7.89689C5.06261 7.90271 5.01579 7.95653 5.0205 8.01851C5.02631 8.08396 5.08477 8.13189 5.15029 8.12254C5.26955 8.10502 5.38646 8.0816 5.50337 8.05238C5.54894 8.04075 5.59341 8.02904 5.63787 8.01616C5.73719 7.98575 5.83657 7.95071 5.93368 7.90389C6.00266 7.8712 6.06575 7.82556 6.12303 7.77527C6.14762 7.75429 6.17095 7.73088 6.19319 7.70865C6.33932 7.55544 6.44806 7.38016 6.5428 7.20119C6.6363 7.02119 6.71699 6.83648 6.78244 6.64587C6.69476 6.82705 6.59309 7.00013 6.48082 7.16386C6.36744 7.32634 6.24229 7.48183 6.09498 7.60109Z" fill="black"/>
<path fill-rule="evenodd" clip-rule="evenodd" d="M5.63786 8.01616C5.59339 8.02905 5.54893 8.04075 5.50336 8.05239C5.65067 8.17165 6.20488 8.60542 6.40247 8.4955C6.53808 8.41835 6.55796 7.98929 6.45276 7.87349C6.35219 7.76365 6.22829 7.7543 6.12301 7.77528C6.06574 7.82556 6.00264 7.87121 5.93366 7.9039C5.83656 7.95072 5.73717 7.98576 5.63786 8.01616Z" fill="#CA1117"/>
<path fill-rule="evenodd" clip-rule="evenodd" d="M5.58171 3.61889C5.58171 3.13366 5.18887 2.742 4.70483 2.742C4.2196 2.742 3.82794 3.13366 3.82794 3.61889C3.82794 4.10286 4.2196 4.49577 4.70483 4.49577C5.18887 4.49577 5.58171 4.10286 5.58171 3.61889Z" fill="black"/>
<path fill-rule="evenodd" clip-rule="evenodd" d="M3.1451 4.63135C2.80137 4.63135 2.52191 4.91081 2.52191 5.25572C2.52191 5.59945 2.80137 5.87883 3.1451 5.87883C3.49001 5.87883 3.76947 5.59945 3.76947 5.25572C3.76947 4.91081 3.49001 4.63135 3.1451 4.63135Z" fill="black"/>
<path fill-rule="evenodd" clip-rule="evenodd" d="M2.06196 10.9742C1.96993 10.9793 1.90971 11.0098 1.87813 11.0676C1.77963 11.2476 1.94895 11.6734 2.14022 12.0117L2.14802 12.0255C2.15229 12.0334 2.15582 12.0402 2.1595 12.0452C2.17357 12.0676 2.17909 12.0787 2.17909 12.0787L2.07455 12.1311C2.07396 12.1301 2.07013 12.1225 2.06292 12.1109C2.0596 12.1069 2.05305 12.0955 2.04561 12.0821L2.0395 12.0711C1.85023 11.7639 1.57894 11.4446 1.39033 11.4713C1.26429 11.4887 1.18787 11.6676 1.14591 11.8145C1.13155 11.8651 1.21379 11.9769 1.27379 12.0584C1.32525 12.1284 1.37384 12.1945 1.39305 12.2526C1.41352 12.3128 1.41896 12.3982 1.42471 12.4888C1.43148 12.596 1.43914 12.7177 1.47374 12.769C1.54765 12.8755 1.75173 13.0835 1.88917 13.0835C1.88998 13.0835 1.89087 13.0835 1.89175 13.0835C1.9343 13.0831 2.0222 12.9798 2.07484 12.8874L2.22871 12.617L2.18343 12.9249C2.16473 13.0521 2.17452 13.1908 2.20368 13.2102C2.36373 13.3189 2.68287 13.181 2.86456 13.0787C2.86456 13.0779 2.86449 13.0769 2.86449 13.0761C2.86574 12.3463 2.94687 11.7059 3.09219 11.2572C2.98265 11.2034 2.70849 11.0712 2.59887 11.0412C2.47003 11.0054 2.19705 10.9678 2.06196 10.9742Z" fill="#FECD0F"/>
<path fill-rule="evenodd" clip-rule="evenodd" d="M11.9365 15.5097C11.7552 15.8421 11.3613 16.3724 11.1009 16.7115L10.9667 16.0847L10.7382 16.1338L11.1127 17.8839L11.9222 18.5331V19.0933L11.0355 19.0102L10.01 16.5035L9.79362 16.5921L10.0855 17.3056C9.67966 17.4232 8.39544 17.7868 7.96771 17.8048C7.49021 17.8247 6.69078 17.7906 6.06273 17.6665L6.04035 17.7798L6.03851 17.7817L6.06126 17.6654C5.76715 17.6079 5.53893 17.5367 5.38315 17.4537C4.77034 17.1256 3.65176 16.1386 3.42111 15.499C3.22271 14.95 3.09601 13.9993 3.09829 13.0766C3.09961 12.3365 3.18325 11.6943 3.33343 11.269C3.3589 11.1984 3.3832 11.1389 3.40756 11.0873C3.48148 10.9304 3.71905 10.7246 3.92864 10.5431C4.09981 10.3948 4.26163 10.2547 4.35586 10.1281C4.38538 10.088 4.43235 10.0074 4.47218 9.91453L4.94798 9.83546L4.50899 9.81603C4.53755 9.72695 4.55124 9.63647 4.53417 9.56116L5.32094 9.49284L4.39635 9.4053C2.98668 8.99097 2.16766 7.67112 1.89468 6.66665C1.61529 5.64017 0.765061 2.51664 3.83242 0.56064C4.46724 0.15529 6.25767 0.156542 7.03907 0.463315C9.63299 1.48317 11.4303 3.36577 12.0996 5.7643C12.187 6.07689 12.2778 6.48643 12.3626 6.94906C12.5748 8.09068 12.7167 9.33477 12.7243 10.1184L12.8412 10.1172L12.757 10.1979L12.8412 10.2797H12.7243L12.7232 10.3328C12.6858 11.7496 12.4627 14.2621 12.0015 15.3767C11.9837 15.419 11.9614 15.4647 11.9365 15.5097ZM11.8918 17.8321L12.8451 18.3336C12.8709 18.3472 12.8915 18.3664 12.9061 18.3902C13.1335 18.765 14.275 20.6732 14.4108 21.4249C14.4183 21.4671 14.3966 21.6301 14.3699 21.7664C14.3675 21.79 14.351 21.7992 14.3413 21.8027C14.3321 21.8062 14.3139 21.8093 14.2972 21.7926C13.7072 21.2089 13.3241 20.7628 13.2184 20.5367C13.1062 20.2962 13.0353 19.4997 13.0167 19.2042C13.0076 19.1396 12.9662 19.0861 12.9057 19.0614C12.8455 19.0367 12.7762 19.0461 12.7244 19.0856L12.1561 19.5211V18.4208L11.8918 18.2089V17.8321ZM6.42221 18.4678C6.57306 18.5483 6.93814 18.5438 7.14258 18.5336V19.8703C6.77205 19.6696 6.14938 19.3066 5.98484 19.0971C5.81699 18.8822 5.61159 18.1883 5.49902 17.758C5.63088 17.8054 5.78673 17.8474 5.96401 17.884C6.05493 18.0415 6.26452 18.3823 6.42221 18.4678ZM2.86447 13.0761C2.86447 13.0769 2.86455 13.0779 2.86455 13.0787C2.68285 13.181 2.36371 13.3188 2.20366 13.2102C2.17451 13.1908 2.16472 13.0521 2.18342 12.9248L2.22869 12.617L2.07483 12.8874C2.02219 12.9798 1.93429 13.083 1.89174 13.0835C1.89085 13.0835 1.88997 13.0835 1.88916 13.0835C1.75171 13.0835 1.54764 12.8755 1.47372 12.769C1.43912 12.7177 1.43147 12.596 1.42469 12.4888C1.41895 12.3982 1.4135 12.3128 1.39304 12.2525C1.37382 12.1945 1.32523 12.1283 1.27377 12.0584C1.21377 11.9769 1.13154 11.8651 1.1459 11.8145C1.18786 11.6676 1.26428 11.4887 1.39031 11.4713C1.57893 11.4446 1.85021 11.7639 2.03949 12.0711L2.0456 12.082C2.05304 12.0955 2.05959 12.1069 2.0629 12.1109C2.07012 12.1225 2.07394 12.1301 2.07453 12.1311L2.17907 12.0787C2.17907 12.0787 2.17355 12.0676 2.15949 12.0452C2.15581 12.0402 2.15228 12.0334 2.14801 12.0255L2.1402 12.0117C1.94894 11.6734 1.77961 11.2476 1.87812 11.0676C1.9097 11.0098 1.96992 10.9793 2.06194 10.9741C2.19704 10.9678 2.47002 11.0054 2.59885 11.0412C2.70847 11.0712 2.98263 11.2034 3.09218 11.2572C2.94685 11.7058 2.86572 12.3463 2.86447 13.0761ZM14.9106 9.21249C16.4113 10.176 18.4936 10.0211 19.0065 9.96525C19.082 10.4705 19.1924 11.5329 19.0047 11.8392C18.8174 12.1457 18.2018 12.3715 17.6586 12.5706C17.2528 12.7194 16.8694 12.8601 16.637 13.0347C16.5249 13.1198 16.4102 13.2422 16.2864 13.4092C16.0796 13.6886 15.8809 14.053 15.6886 14.4053C15.4502 14.842 15.2038 15.2935 14.9711 15.5187C14.7031 15.7761 13.9623 16.1866 13.5906 16.1877C13.2931 16.1877 12.5451 15.7501 12.1895 15.5235C12.1984 15.5046 12.2095 15.4853 12.2173 15.4665C12.7205 14.2504 12.9186 11.6503 12.9554 10.3912L15.3971 12.7772L12.9573 10.0719C12.9462 9.35892 12.8318 8.29792 12.6573 7.27151C13.1438 7.74982 14.1963 8.7534 14.9106 9.21249ZM7.3764 18.526H7.85066L8.92248 21.1784L7.3764 19.6465V18.526ZM13.591 16.4215C14.0357 16.4202 14.8331 15.9753 15.1334 15.6871C15.392 15.4369 15.6358 14.9902 15.8939 14.5172C16.0823 14.172 16.2772 13.8147 16.4742 13.5483C16.5845 13.3995 16.6841 13.2926 16.7779 13.2213C16.9823 13.0677 17.3499 12.9329 17.7392 12.7901C18.3465 12.5675 18.9744 12.3372 19.2041 11.9614C19.489 11.4968 19.2482 9.98682 19.2198 9.81625L19.2011 9.70368L19.088 9.71966C19.0637 9.72319 16.6496 10.0512 15.037 9.01578C14.1864 8.46916 12.7874 7.07355 12.5859 6.87087C12.5018 6.41657 12.4117 6.01254 12.3248 5.70135C11.6353 3.23053 9.78847 1.29308 7.12447 0.245695C6.37009 -0.0504768 4.4604 -0.117765 3.70661 0.36356C0.494215 2.41203 1.37846 5.66064 1.66904 6.72805C1.95652 7.7856 2.82045 9.17414 4.3097 9.62248C4.31743 9.68498 4.24889 9.8789 4.16798 9.98889C4.08921 10.0947 3.93689 10.2266 3.77551 10.3664C3.53736 10.5727 3.29117 10.786 3.19605 10.9875C3.17419 11.0339 3.15247 11.0872 3.13031 11.1457C3.01046 11.0869 2.74565 10.9602 2.63007 10.9285C2.49225 10.8902 2.20528 10.8498 2.05576 10.8575C1.9217 10.8649 1.82739 10.9167 1.77556 11.0115C1.69929 11.1508 1.73375 11.3612 1.80634 11.5701C1.67132 11.4334 1.51988 11.3345 1.37434 11.3555C1.22305 11.3764 1.10835 11.52 1.03348 11.7826C1.00337 11.8883 1.09296 12.01 1.17961 12.1277C1.22342 12.1872 1.26869 12.2487 1.28217 12.2897C1.29777 12.3357 1.30293 12.4172 1.30801 12.496C1.31603 12.6242 1.32442 12.7565 1.37721 12.835C1.43161 12.9134 1.68074 13.206 1.89358 13.2004C1.95225 13.1997 2.00975 13.1577 2.05775 13.1075C2.06298 13.1891 2.08337 13.2706 2.13829 13.3071C2.20057 13.3495 2.27478 13.3662 2.35348 13.3662C2.53186 13.3662 2.7324 13.2803 2.86536 13.2109C2.87507 14.1159 3.00405 15.0331 3.20113 15.5784C3.44761 16.2617 4.5603 17.2588 5.22619 17.6333C5.28582 17.8765 5.55225 18.9232 5.80072 19.2413C6.06148 19.5733 7.08965 20.1087 7.20597 20.1686L7.3764 20.2564V19.9757L8.84636 21.4322C8.88693 21.4727 8.93964 21.4936 8.99286 21.4936C9.0324 21.4936 9.0723 21.4822 9.10786 21.4586C9.19156 21.4032 9.22366 21.2994 9.18597 21.2064L8.00828 18.2922H7.3764V18.2827L7.25036 18.2926C7.01147 18.3114 6.63071 18.3142 6.53301 18.262C6.47743 18.2319 6.37392 18.0963 6.27269 17.9399C6.74931 18.013 7.27922 18.044 7.69156 18.044C7.79529 18.044 7.89159 18.042 7.97758 18.0384C8.44558 18.0187 9.78987 17.6355 10.1747 17.5234L10.8727 19.2298L11.9222 19.3281V19.6309C11.9222 19.6999 11.9608 19.7616 12.0229 19.7921C12.0849 19.8226 12.1576 19.8148 12.212 19.7729L12.7911 19.3292C12.812 19.613 12.8778 20.3596 13.0065 20.6358C13.1568 20.9569 13.7019 21.5324 14.1323 21.9584C14.1852 22.0112 14.2546 22.0393 14.3262 22.0393C14.3572 22.0393 14.3887 22.0339 14.4193 22.023C14.521 21.9871 14.5913 21.898 14.6009 21.8015C14.615 21.7303 14.6598 21.49 14.641 21.3838C14.5015 20.6109 13.4309 18.8042 13.1057 18.2684C13.0691 18.2087 13.0168 18.1598 12.9541 18.1268L11.9438 17.5953C11.8823 17.564 11.8104 17.5666 11.7514 17.6027C11.6929 17.6386 11.658 17.7009 11.658 17.7694V18.0213L11.324 17.7535L11.165 17.0108C11.4267 16.6755 11.8453 16.1229 12.0791 15.7306C12.3806 15.9222 13.2029 16.4215 13.591 16.4215Z" fill="black"/>
<path fill-rule="evenodd" clip-rule="evenodd" d="M9.58108 11.6804C9.33092 11.9282 9.17559 12.8356 9.14319 13.041C8.96216 13.2677 8.71362 13.5039 8.61674 13.508C8.58228 13.5069 8.45367 13.4894 8.19144 13.177C8.15949 13.1405 8.13188 13.1052 8.10987 13.0765C7.99664 12.9291 7.65195 12.4805 7.58879 12.1943L7.58827 12.1918C7.58187 12.1657 7.5787 12.1388 7.5787 12.1138C7.58165 11.9306 7.79978 11.5507 7.94363 11.4785C7.99053 11.4547 8.06275 11.4464 8.1469 11.4464C8.25394 11.4464 8.38027 11.4599 8.4977 11.4724C8.80263 11.5049 9.09055 11.5358 9.26548 11.4047C9.48589 11.2406 9.55509 10.6669 9.57659 10.293L10.5091 11.365C10.2181 11.4158 9.74305 11.5202 9.58108 11.6804ZM7.38037 12.8594C7.36314 12.8168 7.3987 12.675 7.46106 12.5129C7.55934 12.7135 7.70511 12.9262 7.83865 13.1056C7.63951 13.0663 7.45075 12.9893 7.38037 12.8594ZM10.6223 8.02118L10.4208 8.13978C10.4214 8.14103 10.4321 8.15929 10.4509 8.19448C10.7817 8.78984 11.1621 9.5976 11.1449 9.91541C11.1313 10.1573 10.7618 10.7365 10.5444 11.0501L10.0981 10.5363C10.1816 10.3395 10.3956 9.80741 10.3749 9.57109C10.3472 9.268 9.89043 8.58827 9.83838 8.51163L9.64498 8.64319C9.8283 8.91286 10.1253 9.4092 10.142 9.59193C10.1535 9.724 10.0352 10.0698 9.92673 10.3391L9.3533 9.67902L9.35235 9.99065C9.35102 10.4182 9.27806 11.1038 9.12552 11.2174C9.024 11.2936 8.75772 11.265 8.52265 11.24C8.25696 11.2116 8.00614 11.1845 7.83836 11.2696C7.60476 11.387 7.34893 11.8632 7.34489 12.1119C7.34489 12.1361 7.34665 12.1604 7.34974 12.1844C7.25735 12.3697 7.07367 12.7836 7.17424 12.9695C7.34776 13.2902 7.84086 13.3554 8.0484 13.3684C8.26616 13.6183 8.45168 13.7418 8.61335 13.7418C8.61777 13.7418 8.62219 13.7418 8.62653 13.7416C8.8828 13.7308 9.24221 13.2946 9.34631 13.1612L9.36516 13.137L9.36972 13.1067C9.43031 12.7034 9.58594 12.0047 9.74548 11.8466C9.86334 11.7301 10.4047 11.611 10.7513 11.5637L10.9652 11.5345L10.7025 11.2321C10.8748 10.9879 11.3588 10.2734 11.3784 9.9283C11.4032 9.46611 10.8312 8.39745 10.6563 8.0828C10.6349 8.0426 10.6223 8.02118 10.6223 8.02118Z" fill="black"/>
<defs>
<linearGradient id="paint0_linear_5_22241" x1="5.95749" y1="0.243713" x2="12.1827" y2="16.457" gradientUnits="userSpaceOnUse">
<stop stop-color="#B8E27F"/>
<stop offset="1" stop-color="#2A6700"/>
</linearGradient>
</defs>
</svg>
