<svg width="24" height="24" viewBox="0 0 24 24" fill="none" xmlns="http://www.w3.org/2000/svg">
<path d="M4.79999 9.87714V15.912H9.6348C9.65932 15.5888 9.75661 15.2754 9.91937 14.9951L4.79999 9.87714Z" fill="#B9BEC1"/>
<path d="M4.79999 0V8.25516L10.7359 14.1911C11.0344 14.0235 11.3687 13.9297 11.7108 13.9177V6.17408L4.79999 0Z" fill="#DE575B"/>
<path d="M6.53339 21.3409L9.92449 18.1044C9.70072 17.7707 9.55331 17.3917 9.49277 16.9945H4.81207C4.89925 18.5916 5.5034 20.1172 6.53339 21.3409ZM12.7479 9.19147V13.8856C13.0935 13.9546 13.4225 14.0898 13.7167 14.2839L17.0386 10.962C15.8361 9.92549 14.3314 9.30457 12.7479 9.19147ZM11.7168 19.2817C11.3469 19.2149 10.9947 19.0727 10.6821 18.8639L7.28078 22.1106C8.51027 23.2086 10.0719 23.8634 11.7168 23.9707V19.2817ZM14.4794 15.0336C14.664 15.3047 14.7985 15.6068 14.8763 15.9254H19.5876C19.4522 14.3682 18.8255 12.8943 17.7981 11.7163L14.4794 15.0336ZM13.7984 18.8184C13.5196 19.0168 13.2061 19.1612 12.8741 19.2441V23.9573C14.4082 23.8212 15.8611 23.208 17.0289 22.2039L13.7984 18.8184ZM14.9236 16.9954C14.872 17.3375 14.7556 17.6667 14.5806 17.9652L17.8445 21.3855C18.8969 20.1549 19.5152 18.6122 19.6039 16.9954H14.9236Z" fill="#B9BEC1"/>
</svg>
