<svg width="24" height="24" viewBox="0 0 24 24" fill="none" xmlns="http://www.w3.org/2000/svg">
<g clip-path="url(#clip0_5_22224)">
<path fill-rule="evenodd" clip-rule="evenodd" d="M16.6546 7.42511H6.89697V9.18618H16.6546V7.42511ZM16.6546 11.1282H6.89697V12.8893H16.6546V11.1282ZM6.89697 14.8314H16.6546V16.5924H6.89697V14.8314Z" fill="#0DA9FF"/>
<path d="M12 0C5.37367 0 0 5.37367 0 12C0 18.6263 5.37367 24 12 24C18.6263 24 24 18.6263 24 12C24 5.37367 18.6263 0 12 0ZM12.8896 22.2027V19.4069H11.1286V22.2027C5.88199 21.7489 1.76097 17.3555 1.76097 12C1.76097 6.64448 5.88199 2.25113 11.1286 1.79728V4.57489H12.8896V1.79728C18.118 2.25113 22.2571 6.64448 22.2571 12C22.239 17.3555 18.118 21.7489 12.8896 22.2027Z" fill="#202326"/>
</g>
<defs>
<clipPath id="clip0_5_22224">
<rect width="24" height="24" fill="white"/>
</clipPath>
</defs>
</svg>
