<svg width="24" height="24" viewBox="0 0 24 24" fill="none" xmlns="http://www.w3.org/2000/svg">
<g clip-path="url(#clip0_5_22202)">
<path fill-rule="evenodd" clip-rule="evenodd" d="M12.0194 9.70283C14.0187 9.70283 15.6394 8.10385 15.6394 6.1314C15.6394 4.85999 14.1352 2.25972 13.0661 0.572094C12.5828 -0.190698 11.4559 -0.190698 10.9727 0.572094C9.90357 2.25972 8.39935 4.85999 8.39935 6.1314C8.39935 8.10385 10.0201 9.70283 12.0194 9.70283Z" fill="#667EEC"/>
<path fill-rule="evenodd" clip-rule="evenodd" d="M9.83484 11.9943C9.83484 10.0218 8.21411 8.42285 6.21482 8.42285C4.92611 8.42285 2.29046 9.90688 0.579877 10.9616C-0.193293 11.4384 -0.193293 12.5502 0.579877 13.0269C2.29046 14.0817 4.92611 15.5657 6.21482 15.5657C8.21411 15.5657 9.83484 13.9667 9.83484 11.9943Z" fill="#667EEC"/>
<path fill-rule="evenodd" clip-rule="evenodd" d="M12.0194 14.2863C10.0201 14.2863 8.39935 15.8852 8.39935 17.8576C8.39935 19.1292 9.90357 21.7294 10.9727 23.417C11.4559 24.1798 12.5828 24.1798 13.0661 23.417C14.1352 21.7294 15.6394 19.1292 15.6394 17.8576C15.6394 15.8852 14.0187 14.2863 12.0194 14.2863Z" fill="#667EEC"/>
<path fill-rule="evenodd" clip-rule="evenodd" d="M23.3794 10.9616C21.6688 9.90688 19.0331 8.42285 17.7444 8.42285C15.7451 8.42285 14.1244 10.0218 14.1244 11.9943C14.1244 13.9667 15.7451 15.5657 17.7444 15.5657C19.0331 15.5657 21.6688 14.0817 23.3794 13.0269C24.1525 12.5502 24.1525 11.4384 23.3794 10.9616Z" fill="#667EEC"/>
</g>
<defs>
<clipPath id="clip0_5_22202">
<rect width="24" height="24" fill="white"/>
</clipPath>
</defs>
</svg>
