<svg width="24" height="24" viewBox="0 0 24 24" fill="none" xmlns="http://www.w3.org/2000/svg">
<g clip-path="url(#clip0_5_22142)">
<path d="M12 0C5.376 0 0 5.376 0 12C0 18.624 5.376 24 12 24C18.624 24 24 18.624 24 12C24 5.376 18.624 0 12 0Z" fill="#000E26"/>
<path d="M13.7092 11.1302C13.7092 9.89497 12.9671 9.48157 12.2356 9.48157H10.5868V14.7694H11.541V12.8531C11.6553 12.8531 12.0159 12.8531 12.0384 12.852L12.857 14.7694H13.9106L12.9584 12.6372C13.4225 12.3869 13.7092 11.9062 13.7092 11.1302ZM11.9703 11.9148H11.5409V10.4093H12.0233C12.368 10.4093 12.7814 10.5366 12.7814 11.1673C12.7814 11.798 12.2937 11.9148 11.9703 11.9148ZM9.31455 11.9387C9.51339 11.9147 9.99447 11.569 10.0144 10.9289C10.0302 10.1178 9.67839 9.48169 8.64171 9.48169H7.05603V14.7695H8.62275C9.19527 14.7695 10.07 14.4593 10.2051 13.4813C10.3402 12.5033 9.82347 12.0818 9.31455 11.9387ZM7.99203 10.4093H8.49039C8.87739 10.4093 9.08679 10.5683 9.08679 11.0213C9.08679 11.4743 8.72403 11.604 8.48511 11.604H7.99203V10.4093ZM8.57811 13.8286H7.99203V12.456H8.58447C9.04455 12.456 9.29355 12.6386 9.29355 13.1593C9.29355 13.68 8.86155 13.8286 8.57799 13.8286H8.57811ZM17.5565 9.48157H16.5291L15.9237 11.3534L15.2547 9.48157H14.1952L15.2865 12.0542L14.1315 14.7785H15.1431L15.828 12.8588L16.5767 14.7785H17.6283L16.4733 12.13L17.5565 9.48157Z" fill="white"/>
<path d="M20.981 13.9544L22.0426 14.5672C22.4653 12.9016 22.4699 11.1574 22.056 9.4896L20.9808 10.1104C20.9808 10.1104 20.2398 9.324 19.3764 7.82832C18.513 6.33264 18.2023 5.29788 18.2023 5.29788L19.3122 4.65708C18.0766 3.42504 16.5498 2.52518 14.8734 2.04108V3.37596C14.8734 3.37596 13.822 3.624 12.0952 3.624C10.3684 3.624 9.31668 3.37548 9.31668 3.37548V1.9884C7.59914 2.44892 6.02923 3.34422 4.75836 4.58796L5.988 5.29776C5.988 5.29776 5.67732 6.33288 4.81392 7.8282C3.95052 9.32352 3.20952 10.1102 3.20952 10.1102L1.968 9.39336C1.52188 11.1221 1.52708 12.9363 1.98312 14.6624L3.20964 13.9544C3.20964 13.9544 3.95064 14.7412 4.81404 16.2365C5.67744 17.7318 5.988 18.7668 5.988 18.7668L4.8 19.452C6.06369 20.675 7.61821 21.5557 9.3168 22.011V20.6888C9.3168 20.6888 10.3686 20.4403 12.0953 20.4403C13.822 20.4403 14.8738 20.6888 14.8738 20.6888V21.9592C16.5312 21.4804 18.0426 20.5951 19.2708 19.3836L18.2028 18.7669C18.2028 18.7669 18.5135 17.7319 19.3769 16.2365C20.2403 14.741 20.9809 13.9544 20.981 13.9544ZM12 20.0351C7.5624 20.0351 3.96504 16.4377 3.96504 12.0001C3.96504 7.56252 7.56228 3.96516 12 3.96516C16.4377 3.96516 20.0348 7.56252 20.0348 12C20.0348 16.4375 16.4375 20.0351 12 20.0351Z" fill="#2FA5FF"/>
</g>
<defs>
<clipPath id="clip0_5_22142">
<rect width="24" height="24" fill="white"/>
</clipPath>
</defs>
</svg>
