<svg width="24" height="24" viewBox="0 0 24 24" fill="none" xmlns="http://www.w3.org/2000/svg">
<g clip-path="url(#clip0_5_22122)">
<path fill-rule="evenodd" clip-rule="evenodd" d="M12 24C15.1826 24 18.2348 22.7357 20.4853 20.4853C22.7357 18.2348 24 15.1826 24 12C24 8.8174 22.7357 5.76516 20.4853 3.51472C18.2348 1.26428 15.1826 0 12 0V1.46C14.7954 1.46 17.4763 2.57046 19.4529 4.54709C21.4295 6.52373 22.54 9.20462 22.54 12C22.54 14.7954 21.4295 17.4763 19.4529 19.4529C17.4763 21.4295 14.7954 22.54 12 22.54V24Z" fill="#FFBC00"/>
<g opacity="0.3">
<g opacity="0.3">
<path opacity="0.3" fill-rule="evenodd" clip-rule="evenodd" d="M1.46 12H0C0 15.1826 1.26428 18.2348 3.51472 20.4853C5.76516 22.7357 8.8174 24 12 24V22.54C9.20516 22.5382 6.5253 21.4272 4.54905 19.451C2.57279 17.4747 1.46177 14.7948 1.46 12Z" fill="#FFBC00"/>
</g>
</g>
<path fill-rule="evenodd" clip-rule="evenodd" d="M4.28 12C4.28 14.0475 5.09335 16.0111 6.54114 17.4589C7.98892 18.9066 9.95253 19.72 12 19.72C14.0475 19.72 16.0111 18.9066 17.4589 17.4589C18.9066 16.0111 19.72 14.0475 19.72 12H21.18C21.18 14.4347 20.2128 16.7697 18.4912 18.4912C16.7697 20.2128 14.4347 21.18 12 21.18C9.56531 21.18 7.23034 20.2128 5.50876 18.4912C3.78718 16.7697 2.82 14.4347 2.82 12H4.28Z" fill="#FFBC00"/>
<path opacity="0.3" fill-rule="evenodd" clip-rule="evenodd" d="M12 4.28001V2.82001C9.5664 2.82353 7.23348 3.79184 5.51266 5.51266C3.79184 7.23348 2.82353 9.5664 2.82 12H4.28C4.28177 9.95308 5.09569 7.99049 6.54308 6.54309C7.99048 5.09569 9.95307 4.28177 12 4.28001Z" fill="#FFBC00"/>
<path fill-rule="evenodd" clip-rule="evenodd" d="M12 7.09336C10.6987 7.09336 9.45064 7.61031 8.53047 8.53049C7.61029 9.45067 7.09334 10.6987 7.09334 12C7.09334 13.3014 7.61029 14.5494 8.53047 15.4696C9.45064 16.3897 10.6987 16.9067 12 16.9067V18.3667C10.3115 18.3667 8.69207 17.6959 7.49809 16.5019C6.30411 15.308 5.63334 13.6886 5.63334 12C5.63334 10.3115 6.30411 8.6921 7.49809 7.49812C8.69207 6.30413 10.3115 5.63336 12 5.63336" fill="#FFBC00"/>
<path opacity="0.3" fill-rule="evenodd" clip-rule="evenodd" d="M12 5.63336V7.09336C13.3008 7.09513 14.5478 7.61264 15.4676 8.53244C16.3874 9.45224 16.9049 10.6992 16.9067 12H18.3667C18.3631 10.3126 17.6912 8.69522 16.498 7.50201C15.3048 6.30879 13.6875 5.63688 12 5.63336Z" fill="#FFBC00"/>
<path fill-rule="evenodd" clip-rule="evenodd" d="M12 8.45331C12.9406 8.45331 13.8427 8.82697 14.5079 9.4921C15.173 10.1572 15.5467 11.0593 15.5467 12C15.5467 12.9406 15.173 13.8427 14.5079 14.5078C13.8427 15.173 12.9406 15.5466 12 15.5466V14.0866C12.5534 14.0866 13.0842 13.8668 13.4755 13.4755C13.8668 13.0841 14.0867 12.5534 14.0867 12C14.0867 11.4466 13.8668 10.9158 13.4755 10.5245C13.0842 10.1332 12.5534 9.91331 12 9.91331" fill="#FFBC00"/>
<path opacity="0.3" fill-rule="evenodd" clip-rule="evenodd" d="M12 8.45331C11.0599 8.45507 10.1588 8.8293 9.49408 9.49405C8.82933 10.1588 8.4551 11.0599 8.45334 12H9.91334C9.91334 11.726 9.96731 11.4546 10.0722 11.2014C10.177 10.9483 10.3307 10.7182 10.5245 10.5245C10.7183 10.3307 10.9483 10.177 11.2015 10.0721C11.4546 9.96728 11.726 9.91331 12 9.91331V8.45331Z" fill="#FFBC00"/>
<path fill-rule="evenodd" clip-rule="evenodd" d="M16.4733 16.5133L15.44 15.48C15.023 15.8925 14.5353 16.2268 14 16.4667L14.6133 17.8C15.2962 17.4832 15.9188 17.0501 16.4533 16.52" fill="#FFBC00"/>
<path fill-rule="evenodd" clip-rule="evenodd" d="M6.94667 1.11334C5.65867 1.70506 4.48689 2.52237 3.48667 3.52668L4.48667 4.59334C5.37159 3.69458 6.41309 2.96485 7.56 2.44001L6.94667 1.11334Z" fill="#FFBC00"/>
<path fill-rule="evenodd" clip-rule="evenodd" d="M20.3067 8.16667C19.8572 7.17357 19.2315 6.27009 18.46 5.5L17.4067 6.53333C18.0657 7.17835 18.5992 7.94016 18.98 8.78L20.3067 8.16667Z" fill="#FFBC00"/>
</g>
<defs>
<clipPath id="clip0_5_22122">
<rect width="24" height="24" fill="white"/>
</clipPath>
</defs>
</svg>
