<svg width="24" height="24" viewBox="0 0 24 24" fill="none" xmlns="http://www.w3.org/2000/svg">
<g clip-path="url(#clip0_5_22117)">
<path d="M23.9999 12.0019C23.9999 18.6289 18.6269 24.0019 11.997 24.0029C5.37199 24.0029 -0.00101304 18.6289 -5.28912e-05 12.001C-0.00197319 5.37302 5.37103 0 11.999 0C18.6269 0 23.9999 5.37398 23.9999 12.0019Z" fill="#EAB300"/>
<path d="M16.721 9.06193C16.5664 7.45463 15.179 6.91599 13.4258 6.76236V4.53192H12.0691V6.70283C11.7129 6.70283 11.348 6.70955 10.9861 6.71724V4.53192H9.62936L9.6284 6.76044C9.3346 6.7662 9.04559 6.77196 8.76427 6.77196V6.76524L6.89294 6.76428V8.21412C6.89294 8.21412 7.89534 8.19491 7.87805 8.21316C8.42822 8.21316 8.60681 8.53193 8.65865 8.80749V11.3481C8.69706 11.3481 8.74603 11.35 8.80172 11.3577H8.65865L8.6577 14.917C8.63369 15.0898 8.53192 15.3654 8.14786 15.3663C8.16514 15.3817 7.16178 15.3663 7.16178 15.3663L6.89198 16.9871H8.65865C8.98703 16.9871 9.3106 16.9928 9.62744 16.9947L9.6284 19.2501H10.9841V17.0187C11.3557 17.0264 11.7158 17.0293 12.0681 17.0293L12.0672 19.2501H13.4239V16.9995C15.7052 16.869 17.3038 16.2938 17.5016 14.1508C17.662 12.4254 16.8506 11.6544 15.5554 11.3433C16.3437 10.9438 16.8362 10.2381 16.721 9.06193ZM14.8218 13.8838C14.8218 15.5689 11.9366 15.3778 11.0158 15.3778V12.3889C11.9366 12.3908 14.8218 12.1268 14.8218 13.8838ZM14.1901 9.66779C14.1901 11.2012 11.782 11.0216 11.0158 11.0226V8.31301C11.783 8.31301 14.191 8.06913 14.1901 9.66779Z" fill="white"/>
<path d="M8.66059 11.2885H8.86222V11.4374H8.66059V11.2885Z" fill="white"/>
</g>
<defs>
<clipPath id="clip0_5_22117">
<rect width="24" height="24.0038" fill="white"/>
</clipPath>
</defs>
</svg>
