<svg width="24" height="24" viewBox="0 0 24 24" fill="none" xmlns="http://www.w3.org/2000/svg">
<g clip-path="url(#clip0_5_22098)">
<path d="M12 24C18.6274 24 24 18.6274 24 12C24 5.37258 18.6274 0 12 0C5.37258 0 0 5.37258 0 12C0 18.6274 5.37258 24 12 24Z" fill="#00AAFF"/>
<path d="M11.9715 3.70502C7.4055 3.70502 3.705 7.40552 3.705 11.9715C3.705 16.5368 7.4055 20.2388 11.9715 20.2388C16.5368 20.2388 20.2388 16.5368 20.2388 11.9715C20.2388 7.40552 16.5368 3.70502 11.9715 3.70502ZM11.9978 5.01452C12.6592 5.01431 13.311 5.17385 13.8975 5.47957C14.4841 5.78528 14.9882 6.22814 15.3669 6.77046C15.7456 7.31279 15.9878 7.93856 16.0727 8.59454C16.1577 9.25053 16.083 9.91734 15.855 10.5383C15.4999 10.4759 15.1358 10.4857 14.7845 10.5672C14.4332 10.6486 14.102 10.8 13.8105 11.0123C14.0655 10.7685 14.2683 10.4754 14.4068 10.151C14.5452 9.82649 14.6164 9.4773 14.616 9.12452C14.6158 8.42957 14.3398 7.76311 13.8486 7.2715C13.3574 6.77988 12.6912 6.50331 11.9963 6.50252C11.3476 6.50304 10.7223 6.74402 10.241 7.17886C9.75976 7.61371 9.45682 8.21153 9.39075 8.85677C8.89806 8.76875 8.39412 8.76368 7.89975 8.84177C7.971 7.8034 8.43369 6.83078 9.19435 6.12037C9.95501 5.40997 10.9569 5.01474 11.9978 5.01452ZM13.509 12.7335L12.0555 11.8635C12.0081 11.8349 11.9538 11.82 11.8984 11.8204C11.8431 11.8208 11.789 11.8365 11.742 11.8658L10.467 12.6533C10.4171 12.6837 10.3772 12.728 10.3522 12.7807C10.3271 12.8335 10.318 12.8924 10.326 12.9503C10.3595 13.1928 10.3418 13.4396 10.2739 13.6748C10.206 13.91 10.0895 14.1283 9.93196 14.3157C9.77438 14.503 9.57923 14.6552 9.35914 14.7623C9.13904 14.8695 8.8989 14.9293 8.65425 14.9378C8.4207 14.9451 8.18806 14.9054 7.97017 14.821C7.75228 14.7366 7.5536 14.6092 7.38594 14.4465C7.21828 14.2837 7.08508 14.0889 6.99425 13.8736C6.90342 13.6583 6.85683 13.4269 6.85725 13.1933C6.85988 12.7369 7.04052 12.2995 7.36073 11.9742C7.68094 11.649 8.11543 11.4615 8.57175 11.4518C8.82235 11.4475 9.0709 11.4975 9.30041 11.5982C9.52991 11.6989 9.73495 11.848 9.9015 12.0353C9.9945 12.1403 10.149 12.1628 10.2705 12.0953L11.499 11.406C11.5456 11.3796 11.5845 11.3414 11.6116 11.2951C11.6387 11.2489 11.6532 11.1964 11.6535 11.1428V11.0678C11.6531 11.0044 11.6329 10.9427 11.5956 10.8915C11.5583 10.8402 11.5059 10.8019 11.4458 10.782C11.0462 10.6488 10.7084 10.3755 10.4946 10.0126C10.2808 9.64965 10.2056 9.22166 10.2827 8.80761C10.3598 8.39355 10.5842 8.02138 10.9143 7.75982C11.2444 7.49825 11.658 7.36495 12.0788 7.38452C12.5036 7.40644 12.9059 7.58238 13.2104 7.87945C13.5149 8.17651 13.7008 8.57434 13.7333 8.99852C13.7634 9.40506 13.65 9.8093 13.4128 10.1408C13.1755 10.4723 12.8295 10.7101 12.435 10.8128C12.3695 10.8289 12.3112 10.8665 12.2694 10.9194C12.2275 10.9724 12.2045 11.0378 12.204 11.1053V11.118C12.204 11.223 12.2595 11.3198 12.348 11.3753L13.6388 12.1688C13.7008 12.2074 13.7749 12.2219 13.847 12.2098C13.9191 12.1976 13.9842 12.1596 14.0303 12.1028C14.198 11.8934 14.4119 11.7256 14.6552 11.6124C14.8984 11.4992 15.1645 11.4437 15.4328 11.4503C15.8952 11.4681 16.3317 11.6689 16.6461 12.0085C16.9605 12.3481 17.1272 12.7987 17.1094 13.2611C17.0916 13.7236 16.8908 14.1601 16.5512 14.4745C16.2116 14.7889 15.761 14.9556 15.2985 14.9378C15.0629 14.9249 14.8324 14.8645 14.6208 14.7603C14.4092 14.656 14.2208 14.51 14.0671 14.3311C13.9134 14.1521 13.7975 13.9439 13.7263 13.719C13.6551 13.4941 13.6302 13.2571 13.653 13.0223C13.659 12.9654 13.6486 12.908 13.6231 12.8569C13.5976 12.8057 13.558 12.7629 13.509 12.7335ZM8.59875 17.2583C8.06464 17.2585 7.53572 17.1534 7.04222 16.9491C6.54872 16.7449 6.10031 16.4453 5.7226 16.0677C5.34489 15.6901 5.04529 15.2417 4.84092 14.7482C4.63654 14.2548 4.5314 13.7259 4.5315 13.1918C4.53111 12.5916 4.66362 11.9987 4.9195 11.4558C5.17538 10.9129 5.54829 10.4333 6.01147 10.0516C6.47464 9.6699 7.01658 9.39546 7.59839 9.248C8.18019 9.10054 8.78743 9.08373 9.3765 9.19877C9.39599 9.88634 9.68535 10.5386 10.182 11.0145C9.72314 10.6792 9.16931 10.499 8.601 10.5C7.89479 10.5118 7.22148 10.8006 6.72623 11.3042C6.23098 11.8078 5.95344 12.4858 5.95344 13.1921C5.95344 13.8985 6.23098 14.5765 6.72623 15.0801C7.22148 15.5837 7.89479 15.8725 8.601 15.8843C9.13913 15.8842 9.66485 15.7226 10.1101 15.4204C10.5554 15.1182 10.8997 14.6893 11.0985 14.1893C11.2268 14.7488 11.4638 15.2655 11.7833 15.7215C11.4029 16.2015 10.9188 16.5892 10.3673 16.8554C9.8158 17.1217 9.21117 17.2597 8.59875 17.259V17.2583ZM15.3908 17.2583C14.3599 17.2582 13.3676 16.8668 12.6143 16.1632C11.8609 15.4596 11.4028 14.4962 11.3325 13.4678C11.7903 13.5375 12.2563 13.5347 12.7133 13.4595C12.7618 13.9463 12.942 14.4106 13.2346 14.8027C13.5271 15.1948 13.921 15.4997 14.3738 15.6848C14.8266 15.8699 15.3213 15.9281 15.8047 15.8532C16.2881 15.7783 16.742 15.5731 17.1176 15.2597C17.4932 14.9462 17.7763 14.5364 17.9365 14.0742C18.0967 13.612 18.128 13.1149 18.0269 12.6363C17.9259 12.1576 17.6963 11.7156 17.3629 11.3576C17.0296 10.9995 16.605 10.7391 16.1348 10.6043C16.2909 10.1686 16.3765 9.71088 16.3883 9.24827C17.3482 9.4929 18.1859 10.0794 18.7441 10.8977C19.3024 11.7161 19.5429 12.71 19.4205 13.693C19.2981 14.676 18.8212 15.5806 18.0792 16.237C17.3373 16.8934 16.3814 17.2565 15.3908 17.2583Z" fill="white"/>
<path d="M12 2.25C6.61575 2.25 2.25 6.61575 2.25 12C2.25 17.3842 6.61575 21.75 12 21.75C17.3842 21.75 21.75 17.3842 21.75 12C21.75 6.61575 17.3842 2.25 12 2.25ZM11.9715 21.0165C6.9765 21.0165 2.928 16.968 2.928 11.973C2.928 6.978 6.9765 2.93025 11.9715 2.93025C16.9657 2.93025 21.0142 6.97875 21.0142 11.973C21.0142 16.968 16.9657 21.0165 11.9715 21.0165Z" fill="white"/>
</g>
<defs>
<clipPath id="clip0_5_22098">
<rect width="24" height="24" fill="white"/>
</clipPath>
</defs>
</svg>
