<svg width="24" height="24" viewBox="0 0 24 24" fill="none" xmlns="http://www.w3.org/2000/svg">
<g clip-path="url(#clip0_5_22094)">
<path d="M11.3646 0H12.615C13.9195 0.0864043 15.2168 0.346817 16.4288 0.836442C19.429 2.0161 21.9047 4.46302 23.1132 7.45357C24.7764 11.4354 24.0624 16.292 21.2855 19.6054C19.4062 21.9119 16.6424 23.4828 13.6927 23.8824C10.9241 24.2772 8.0188 23.6808 5.64988 22.1843C3.82339 21.0467 2.31132 19.4098 1.33207 17.4921C0.0756058 15.0836 -0.306013 12.237 0.246014 9.58008C0.836444 6.63513 2.59453 3.9482 5.04625 2.21651C6.88235 0.888044 9.10846 0.140407 11.3646 0ZM10.6205 0.543627C6.96995 0.962448 3.61458 3.26176 1.8745 6.49472C0.697237 8.64403 0.226813 11.1786 0.582031 13.6063C0.984051 16.5296 2.57413 19.2646 4.90225 21.0743C6.67474 22.4723 8.86724 23.3304 11.1186 23.4984C13.6687 23.7012 16.28 23.0208 18.3969 21.5843C20.9927 19.8658 22.8347 17.0553 23.364 13.9867C23.6688 12.1782 23.5656 10.2941 23.0064 8.54563C22.2083 6.0027 20.4982 3.75499 18.2541 2.31492C16.0232 0.850842 13.2691 0.216011 10.6205 0.543627Z" fill="black"/>
<path d="M10.9097 5.26948C12.9967 4.92026 15.2348 5.6043 16.736 7.10197C18.0681 8.35964 18.8457 10.1873 18.8073 12.0198C18.8337 13.8427 18.0525 15.656 16.7264 16.9029C15.2828 18.3381 13.1599 19.0234 11.1474 18.7582C9.25127 18.5301 7.47638 17.4525 6.39872 15.8744C5.20586 14.1847 4.87705 11.9358 5.49628 9.96652C6.22111 7.54239 8.41002 5.6475 10.9097 5.26948ZM11.3262 5.6847C11.3274 6.28113 11.3286 6.87756 11.3274 7.47399C11.625 7.47399 11.9226 7.47399 12.2202 7.47519C12.2214 6.86316 12.2226 6.25113 12.2202 5.6403C11.9226 5.6499 11.6238 5.6643 11.3262 5.6847ZM13.4731 7.50279C14.2567 7.6084 15.0992 7.7284 15.7244 8.25763C16.6784 9.11447 16.5548 10.9134 15.3872 11.535C16.0868 11.6982 16.7792 12.165 16.9521 12.8995C17.1765 13.8631 16.9977 15.02 16.2236 15.6992C15.4568 16.3304 14.4187 16.4132 13.4707 16.5032C13.4755 17.0613 13.4731 17.6193 13.4719 18.1785C15.4676 17.6901 17.1897 16.2044 17.9217 14.2819C18.6165 12.5082 18.4521 10.4213 17.4717 8.78806C16.6052 7.31438 15.1316 6.23193 13.4767 5.81671C13.4719 6.37834 13.4719 6.93996 13.4731 7.50279ZM7.51718 7.47879C8.38122 7.52079 9.24647 7.51119 10.1117 7.50999C10.1117 6.98317 10.1129 6.45754 10.1093 5.93071C9.14086 6.24513 8.27802 6.80916 7.51718 7.47879ZM7.41397 7.54839C7.18476 7.83041 6.75994 8.36324 6.50793 8.83486C5.49148 10.5665 5.37627 12.7891 6.22471 14.6107C6.95675 16.244 8.40882 17.5149 10.1093 18.0621C10.1117 17.5365 10.1105 17.0109 10.1105 16.4864C9.24287 16.478 8.37282 16.5092 7.50638 16.4624C7.51598 15.9788 7.62998 15.506 7.79439 15.05C8.21921 15.0416 8.66204 15.116 9.07246 14.9768C9.31247 14.7752 9.24407 14.4415 9.25727 14.1655C9.24407 12.5874 9.26327 11.0094 9.24887 9.43249C9.26447 9.17808 9.10486 8.90326 8.84085 8.85286C8.40522 8.76526 7.9564 8.80006 7.51598 8.79646C7.46438 8.44124 7.45838 8.08242 7.45358 7.7236C7.45358 7.7236 7.45958 7.6108 7.42117 7.53759L7.41397 7.54839ZM11.3634 8.90446V11.2302C12.1398 11.2158 13.0015 11.3022 13.6807 10.851C14.2447 10.4813 14.2087 9.54649 13.6267 9.21408C12.9463 8.81206 12.117 8.92606 11.3634 8.90446ZM11.3634 12.4818V15.062C12.3222 14.9852 13.3975 15.146 14.2315 14.5675C14.8279 14.1715 14.7559 13.1911 14.1415 12.8479C13.3063 12.3486 12.291 12.507 11.3634 12.4818ZM11.3286 16.5212C11.3286 17.1177 11.3274 17.7153 11.3262 18.3117C11.637 18.3321 11.9466 18.3441 12.2574 18.3537C12.2598 17.7429 12.2586 17.1321 12.2586 16.5212H11.3286Z" fill="black"/>
<path d="M10.6901 1.16644C12.7926 0.940831 14.9695 1.26125 16.8584 2.2309C19.2885 3.42256 21.2314 5.56466 22.1891 8.09559C23.1659 10.6301 23.1443 13.5295 22.1327 16.052C20.5942 20.0278 16.532 22.8863 12.255 22.8923C9.74326 22.9835 7.21593 22.1387 5.24904 20.5762C3.15133 18.9453 1.70046 16.508 1.25284 13.8883C0.795613 11.2937 1.30804 8.53721 2.69531 6.2943C4.39099 3.48136 7.42834 1.53726 10.6901 1.16644ZM10.3241 4.68742C8.6152 5.07264 7.05273 6.08189 6.00507 7.48716C4.84822 9.00883 4.31779 10.9877 4.5542 12.8826C4.77621 14.9107 5.88387 16.8236 7.53155 18.0249C9.07363 19.1841 11.0777 19.693 12.9858 19.4314C15.3439 19.1433 17.5124 17.6421 18.6129 15.536C19.4373 14.0335 19.663 12.2478 19.3605 10.5713C18.9753 8.53841 17.7057 6.69152 15.9392 5.61386C14.2855 4.58421 12.2214 4.2542 10.3241 4.68742Z" fill="black"/>
</g>
<defs>
<clipPath id="clip0_5_22094">
<rect width="24" height="24.0012" fill="white"/>
</clipPath>
</defs>
</svg>
