<svg width="24" height="24" viewBox="0 0 24 24" fill="none" xmlns="http://www.w3.org/2000/svg">
<path fill-rule="evenodd" clip-rule="evenodd" d="M13.8428 18.7999L17.1999 22.1726L16.9732 22.3628C15.8204 23.2924 14.3817 23.8972 12.8007 24V19.2269C13.1714 19.1538 13.516 19.0181 13.8428 18.7999ZM10.7258 18.7999L10.8748 18.9022C11.1295 19.0616 11.4159 19.166 11.7335 19.2269V24L11.4191 23.9714C9.85682 23.7965 8.44726 23.1447 7.33323 22.1726L10.7258 18.7999ZM9.5908 17.0665L9.63948 17.2867C9.71773 17.5756 9.84705 17.8463 9.99908 18.1002L6.62735 21.4668L6.43577 21.2369C5.50011 20.0698 4.9018 18.6406 4.79999 17.0665H9.5908ZM19.4658 17.0665L19.4342 17.3899C19.2558 18.8887 18.6512 20.2396 17.7272 21.3331L14.3994 17.9969L14.4993 17.8273C14.6232 17.5964 14.7118 17.3455 14.7836 17.0665H19.4658ZM4.79999 9.86669L9.99908 14.9885L9.88146 15.1719C9.73344 15.4243 9.6215 15.7063 9.55634 16.0003H4.79999V9.86669ZM17.7721 11.6001L17.9637 11.83C18.8994 12.9971 19.4977 14.4262 19.5995 16.0003H14.8275L14.7705 15.7837C14.6847 15.4968 14.5598 15.2195 14.3994 14.9655L17.7721 11.6001ZM12.667 9.19944L12.9813 9.2282C14.5427 9.40396 15.9523 10.0558 17.0673 11.0278L13.6736 14.3996L13.5247 14.2972C13.2701 14.1378 12.9838 14.0334 12.667 13.9725V9.19944ZM4.79999 0L11.7335 6.11799V13.8879L11.5273 13.9395C11.26 14.0187 11.0216 14.1375 10.7885 14.267L10.7185 14.1963C9.87699 13.3485 6.05917 9.53577 4.81878 8.30247L4.81836 8.07547C4.816 6.93188 4.80428 1.86214 4.8009 0.397478L4.79999 0Z" fill="#00A9E0"/>
</svg>
