<svg width="24" height="24" viewBox="0 0 24 24" fill="none" xmlns="http://www.w3.org/2000/svg">
<g clip-path="url(#clip0_5_21852)">
<path d="M12 24C18.6274 24 24 18.6274 24 12C24 5.37258 18.6274 0 12 0C5.37258 0 0 5.37258 0 12C0 18.6274 5.37258 24 12 24Z" fill="black"/>
<path d="M20.8073 10.1543C20.6886 9.57812 20.5133 9.01512 20.2838 8.47352C20.0576 7.94005 19.7808 7.42947 19.4573 6.94877C19.1364 6.47385 18.7705 6.03104 18.3645 5.62652C17.9597 5.22049 17.5167 4.85454 17.0415 4.53377C16.5601 4.21185 16.0499 3.93517 15.5175 3.70727C14.4165 3.24029 13.2327 2.99963 12.0368 2.99963C10.8408 2.99963 9.65704 3.24029 8.556 3.70727C7.49134 4.15634 6.52434 4.80848 5.709 5.62727C5.30306 6.03156 4.93711 6.47411 4.61625 6.94877C4.2943 7.43043 4.01762 7.94085 3.78975 8.47352C3.32278 9.57455 3.08212 10.7583 3.08212 11.9543C3.08212 13.1502 3.32278 14.334 3.78975 15.435C4.01025 15.9675 4.29525 16.4723 4.61625 16.959C4.93709 17.4341 5.30304 17.8772 5.709 18.282C6.11377 18.688 6.55683 19.054 7.032 19.3748C7.509 19.6958 8.0235 19.9718 8.556 20.2013C9.65704 20.6682 10.8408 20.9089 12.0368 20.9089C13.2327 20.9089 14.4165 20.6682 15.5175 20.2013C16.05 19.9808 16.5548 19.6958 17.0415 19.3748C17.5167 19.054 17.9597 18.688 18.3645 18.282C18.7705 17.8772 19.1365 17.4342 19.4573 16.959C19.7783 16.482 20.0543 15.9675 20.2838 15.435C20.9903 13.7687 21.1729 11.9268 20.8073 10.1543ZM12.045 19.788C7.71975 19.788 4.221 16.2795 4.221 11.9633C4.221 7.64702 7.7295 4.13852 12.045 4.13852C16.3613 4.13852 19.8698 7.64702 19.8698 11.9633C19.8698 16.2795 16.362 19.788 12.045 19.788Z" fill="white"/>
<path d="M12.1838 19.1085H12.3953C12.432 19.1085 12.468 19.1085 12.5048 19.0988H12.5145C12.5513 19.0988 12.5783 19.0988 12.615 19.0898H12.6428C12.6705 19.0898 12.6983 19.0898 12.7253 19.0808H12.753C12.7808 19.0808 12.8085 19.0718 12.8453 19.0718H12.8633C12.9 19.0718 12.9368 19.062 12.9735 19.062C13.0103 19.062 13.038 19.053 13.0748 19.044H13.0928C13.1205 19.044 13.1483 19.035 13.1753 19.035H13.194C13.2308 19.0253 13.2585 19.0253 13.2953 19.0163C13.368 19.0073 13.4415 18.9885 13.506 18.9705H13.5248C13.5518 18.9615 13.5885 18.9615 13.6163 18.9518H13.6253C13.6988 18.9338 13.7633 18.915 13.8368 18.897C13.1489 18.9188 12.461 18.8541 11.7893 18.7043C10.7783 18.4838 9.81451 18.0893 8.99701 17.409C8.35252 16.8727 7.8353 16.1998 7.48275 15.4391C7.1302 14.6783 6.95113 13.8487 6.95851 13.0103C6.96512 11.7594 7.4102 10.5505 8.21626 9.59403C9.26326 8.35428 10.7513 7.70178 12.2753 7.66503H12.4868V6.44403H12.2483C11.7846 6.45252 11.323 6.50781 10.8705 6.60903C10.4151 6.712 9.97191 6.86284 9.54826 7.05903C9.11626 7.26153 8.71201 7.50903 8.33551 7.79403C7.94644 8.08978 7.59218 8.42869 7.27951 8.80428C6.9851 9.15189 6.72958 9.53064 6.5175 9.93378C6.30769 10.3224 6.13831 10.7316 6.01201 11.1548C5.88811 11.5715 5.80522 11.9992 5.76451 12.432L5.73676 12.8355V13.074C5.74576 13.5428 5.80126 14.0018 5.90176 14.4518C6.00301 14.9115 6.15901 15.3518 6.35176 15.7748C6.58201 16.2795 6.99526 17.0235 7.61026 17.5838C8.86598 18.5737 10.419 19.1109 12.018 19.1085H12.1838Z" fill="white"/>
<path d="M14.1855 17.9325C13.7326 17.9163 13.2814 17.8672 12.8355 17.7855C10.944 17.4458 9.31802 16.2885 8.72177 14.544C7.99577 12.4223 9.10727 10.1265 11.2193 9.429C11.6218 9.29412 12.0435 9.22573 12.468 9.2265C13.0103 9.2265 13.5518 9.33675 14.0483 9.5385L14.562 8.44575C14.4075 8.38381 14.2515 8.32579 14.094 8.27175C13.5678 8.10661 13.0195 8.02289 12.468 8.0235C11.9155 8.02454 11.3667 8.11444 10.8428 8.28975C10.174 8.51032 9.55815 8.86678 9.03377 9.33675C8.78088 9.56203 8.55031 9.81118 8.34527 10.0808C8.14258 10.3472 7.9672 10.6334 7.82177 10.935C7.52564 11.5413 7.35086 12.1996 7.30727 12.873C7.26152 13.5705 7.35302 14.268 7.58252 14.9295C7.81636 15.61 8.19217 16.233 8.68502 16.7573C9.13502 17.244 9.65852 17.6115 10.2915 17.9513C10.953 18.3 11.7705 18.4838 12.624 18.6038C13.1753 18.6765 13.9103 18.6953 14.3415 18.6953C14.718 18.5573 14.874 18.4928 15.0765 18.4103C15.2513 18.3278 15.4253 18.2453 15.6 18.144C15.7748 18.0428 15.8025 18.024 16.0958 17.832C16.1219 17.8158 16.1465 17.7972 16.1693 17.7765C15.159 17.9513 14.9018 17.9415 14.1855 17.9325Z" fill="white"/>
<path d="M16.4452 16.5645C16.1602 16.5825 15.756 16.6095 15.297 16.6095C14.4795 16.6095 13.4782 16.5367 12.6247 16.2517C11.3017 15.8115 10.053 14.682 10.053 13.2855C10.0527 12.955 10.1176 12.6276 10.2439 12.3222C10.3703 12.0168 10.5556 11.7393 10.7893 11.5056C11.023 11.2719 11.3005 11.0865 11.606 10.9602C11.9114 10.8338 12.2387 10.7689 12.5692 10.7692C13.515 10.7692 14.3325 11.2927 14.7645 12.0547L15.8572 11.5132C15.6859 11.1907 15.4658 10.8964 15.2047 10.641C14.8588 10.2945 14.4479 10.0195 13.9956 9.83197C13.5434 9.6444 13.0585 9.54785 12.5689 9.54785C12.0792 9.54785 11.5944 9.6444 11.1421 9.83197C10.6898 10.0195 10.2789 10.2945 9.93299 10.641C9.58658 10.9869 9.31176 11.3977 9.12425 11.85C8.93675 12.3022 8.84024 12.7869 8.84024 13.2765C8.84269 13.7896 8.95255 14.2964 9.16274 14.7645C9.35474 15.1867 9.62174 15.582 9.96149 15.9495C10.5585 16.5915 11.3752 17.106 12.2482 17.4C13.0837 17.6752 14.3145 17.7765 15.5085 17.694C15.8385 17.6662 16.0867 17.6385 16.509 17.547C16.9165 17.2254 17.2863 16.8589 17.6115 16.4542C17.3265 16.482 16.803 16.5367 16.4452 16.5645Z" fill="white"/>
</g>
<defs>
<clipPath id="clip0_5_21852">
<rect width="24" height="24" fill="white"/>
</clipPath>
</defs>
</svg>
