<svg width="24" height="24" viewBox="0 0 24 24" fill="none" xmlns="http://www.w3.org/2000/svg">
<g clip-path="url(#clip0_5_21800)">
<mask id="mask0_5_21800" style="mask-type:alpha" maskUnits="userSpaceOnUse" x="0" y="0" width="24" height="24">
<path d="M24 12C24 18.6274 18.6274 24 12 24C5.37255 24 0 18.6274 0 12C0 5.37255 5.37255 0 12 0C18.6274 0 24 5.37255 24 12Z" fill="white"/>
</mask>
<g mask="url(#mask0_5_21800)">
<path fill-rule="evenodd" clip-rule="evenodd" d="M24 12C24 18.6274 18.6274 24 12 24C5.37255 24 0 18.6274 0 12C0 5.37255 5.37255 0 12 0C18.6274 0 24 5.37255 24 12Z" fill="url(#paint0_linear_5_21800)"/>
</g>
<path fill-rule="evenodd" clip-rule="evenodd" d="M12 22.9171C5.98031 22.9171 1.08285 18.0197 1.08285 12C1.08285 5.98024 5.98031 1.08285 12 1.08285C18.0197 1.08285 22.9171 5.98024 22.9171 12C22.9171 18.0197 18.0197 22.9171 12 22.9171ZM12 0C5.37255 0 0 5.37255 0 12C0 18.6274 5.37255 24 12 24C18.6274 24 24 18.6274 24 12C24 5.37255 18.6274 0 12 0Z" fill="#1B1A19"/>
<path fill-rule="evenodd" clip-rule="evenodd" d="M20.3895 7.20464L20.8223 6.77185C21.3249 7.62007 21.6941 8.52577 21.9312 9.45859H21.3231C20.9203 9.45859 20.5938 9.78504 20.5938 10.1879V13.8121C20.5938 14.2149 20.9203 14.5414 21.3231 14.5414H21.9312C21.6941 15.4742 21.3249 16.3799 20.8223 17.2282L20.3895 16.7954C20.1046 16.5105 19.6429 16.5105 19.3581 16.7954L16.7954 19.3581C16.5105 19.6429 16.5105 20.1046 16.7954 20.3895L17.2282 20.8223C16.3799 21.3249 15.4742 21.6941 14.5414 21.9312V21.3231C14.5414 20.9203 14.2149 20.5938 13.8121 20.5938H10.1879C9.78511 20.5938 9.45859 20.9203 9.45859 21.3231V21.9312C8.52583 21.6941 7.62007 21.3249 6.77185 20.8223L7.20464 20.3895C7.48946 20.1046 7.48946 19.6429 7.20464 19.3581L4.64188 16.7954C4.35706 16.5105 3.89536 16.5105 3.61054 16.7954L3.17768 17.2282C2.67514 16.3799 2.30586 15.4742 2.06884 14.5414H2.67693C3.07969 14.5414 3.40621 14.2149 3.40621 13.8121V10.1879C3.40621 9.78504 3.07969 9.45859 2.67693 9.45859H2.06884C2.30586 8.52577 2.67514 7.62007 3.17768 6.77185L3.61054 7.20464C3.89536 7.48946 4.35706 7.48946 4.64188 7.20464L7.20464 4.64188C7.48946 4.35706 7.48946 3.89536 7.20464 3.61055L6.77185 3.17768C7.62007 2.67514 8.52583 2.30586 9.45859 2.06884V2.67693C9.45859 3.07969 9.78511 3.40621 10.1879 3.40621H13.8121C14.2149 3.40621 14.5414 3.07969 14.5414 2.67693V2.06884C15.4742 2.30586 16.3799 2.67514 17.2282 3.17768L16.7954 3.61055C16.5105 3.89536 16.5105 4.35706 16.7954 4.64188L19.3581 7.20464C19.6429 7.48946 20.1046 7.48946 20.3895 7.20464ZM12 1.08286C5.98031 1.08286 1.08285 5.98025 1.08285 12C1.08285 18.0197 5.98031 22.9171 12 22.9171C18.0197 22.9171 22.9171 18.0197 22.9171 12C22.9171 5.98025 18.0197 1.08286 12 1.08286Z" fill="#FFFFFE"/>
<path fill-rule="evenodd" clip-rule="evenodd" d="M18.4752 12C18.4752 15.5761 15.5761 18.4752 12 18.4752C8.42387 18.4752 5.52484 15.5761 5.52484 12C5.52484 8.42387 8.42387 5.52484 12 5.52484C15.5761 5.52484 18.4752 8.42387 18.4752 12Z" fill="#FFFFFE"/>
<path fill-rule="evenodd" clip-rule="evenodd" d="M17.9146 12C17.9146 15.2665 15.2665 17.9146 12 17.9146C8.73348 17.9146 6.08539 15.2665 6.08539 12C6.08539 8.73348 8.73348 6.08539 12 6.08539C15.2665 6.08539 17.9146 8.73348 17.9146 12Z" fill="#1B1A19"/>
<path fill-rule="evenodd" clip-rule="evenodd" d="M11.5442 13.699H9.41436C8.93377 13.699 8.5442 13.3095 8.5442 12.8289V12.4311C8.5442 11.9505 8.93377 11.5609 9.41436 11.5609H10.2182C10.676 11.5609 11.047 11.1899 11.047 10.7322V10.5001H9.41436C8.34796 10.5001 7.48343 11.3647 7.48343 12.4311V12.8289C7.48343 13.8953 8.34796 14.7598 9.41436 14.7598H11.5442V13.699ZM13.616 13.699H14.5856C15.0654 13.699 15.4558 13.3087 15.4558 12.8289V12.4311C15.4558 11.9513 15.0654 11.5609 14.5856 11.5609H13.616V13.699ZM14.5856 14.7598H12.5552V11.5609H12.5055C12.0478 11.5609 11.6768 11.1899 11.6768 10.7322V10.5001H12.5552V9.29021H11.8757C11.418 9.29021 11.047 8.9192 11.047 8.46148V8.22943H13.616V10.5001H14.5856C15.652 10.5001 16.5166 11.3647 16.5166 12.4311V12.8289C16.5166 13.8953 15.652 14.7598 14.5856 14.7598Z" fill="#FFFFFE"/>
</g>
<defs>
<linearGradient id="paint0_linear_5_21800" x1="12" y1="0" x2="12" y2="23.2056" gradientUnits="userSpaceOnUse">
<stop stop-color="#996630"/>
<stop offset="0.328283" stop-color="#D2A342"/>
<stop offset="0.603843" stop-color="#A8772D"/>
<stop offset="1" stop-color="#C59734"/>
</linearGradient>
<clipPath id="clip0_5_21800">
<rect width="24" height="24" fill="white"/>
</clipPath>
</defs>
</svg>
