<svg width="24" height="24" viewBox="0 0 24 24" fill="none" xmlns="http://www.w3.org/2000/svg">
<g clip-path="url(#clip0_5_21787)">
<path fill-rule="evenodd" clip-rule="evenodd" d="M0 0H24V24H0V0Z" fill="#0886FB"/>
<path fill-rule="evenodd" clip-rule="evenodd" d="M19.8907 12.4323C19.905 12.2945 19.876 12.1557 19.8079 12.0351C19.6176 11.6962 19.1461 11.5556 18.8318 11.7043C18.7624 11.7385 18.7006 11.7863 18.65 11.8448L15.4079 14.7149V18.0259C15.4079 18.0259 12.2149 17.5378 11.5039 17.3475C10.5941 17.1075 9.94738 16.9338 9.35338 16.3799C9.14651 16.1896 8.55954 15.6438 8.5264 14.8736V14.5593L8.50983 6.09766L12.7035 6.73333C13.0344 6.79108 13.8779 6.98138 14.5397 7.58693C14.7532 7.78747 14.9389 8.0156 15.092 8.26528C15.3486 8.67049 15.3898 8.90196 15.3978 9.05109V11.7123C15.4123 11.8735 15.4757 12.0265 15.5796 12.1506C15.6857 12.2856 15.8399 12.3745 16.0099 12.3987C16.1751 12.4152 16.3076 12.3485 16.4402 12.2912C16.5197 12.2529 16.5947 12.2057 16.6636 12.1506L19.964 9.37997V6.52747C19.9309 5.69195 19.5006 5.08841 19.2194 4.69124C19.0622 4.47633 18.2518 3.39277 16.7791 2.88815C16.6466 2.84698 16.5391 2.81384 16.4648 2.78773L12.8436 2.12645C12.5657 2.06938 12.2838 2.03346 12.0005 2.01899C11.8353 2.01096 11.157 1.96878 10.5118 2.08527C9.30367 2.30972 7.68235 3.17687 7.45087 4.45876C7.43681 4.54076 7.42859 4.62365 7.42627 4.7068H7.03764C6.66412 4.84239 6.30851 5.02297 5.97868 5.24457C5.64779 5.46801 4.986 5.92292 4.51452 6.80112C4.20756 7.38886 4.04329 8.04061 4.035 8.70362V16.7254C4.03361 16.8635 4.03914 17.0016 4.05157 17.1391C4.05157 17.1391 4.10178 17.8175 4.28304 18.3944C4.48991 19.0311 5.12659 20.082 6.25183 20.7518C6.58272 20.9527 7.32685 21.1239 8.81612 21.4714C9.7279 21.6903 10.6534 21.8476 11.5863 21.9423C12.1738 22.0001 12.4549 22.0001 12.703 21.9835C13.1825 21.9589 13.8362 21.9172 14.5638 21.5698C15.8126 20.9672 16.3835 19.8822 16.522 19.601C16.5632 19.5181 16.5964 19.4438 16.6225 19.3941H16.7877C17.6089 19.142 18.3408 18.6599 18.8965 18.0048C19.1114 17.7567 19.8395 16.8635 19.9138 15.5811C19.9221 15.4351 19.9221 15.2887 19.9138 15.1427C19.8892 14.2244 19.8892 13.3311 19.8892 12.4313L19.8907 12.4323ZM9.37799 4.35934C9.62421 4.14642 9.89653 3.96571 10.1884 3.82158C10.4615 3.68902 11.1645 3.35863 11.9669 3.54843C12.0673 3.57303 12.1486 3.59864 12.1984 3.61471L15.9371 4.31817C16.6009 4.40418 17.2146 4.71689 17.6744 5.20339C17.815 5.35403 18.3693 5.9646 18.4356 6.85786C18.444 6.96515 18.444 7.07293 18.4356 7.18021V8.66095L16.9212 9.83539V9.09879C16.9097 8.94627 16.8904 8.79444 16.8635 8.64387C16.7537 8.06525 16.5132 7.51931 16.1605 7.04766C16.028 6.85736 15.2673 5.80693 13.886 5.35202C13.8116 5.32742 13.7534 5.31085 13.7042 5.29428L9.30367 4.52504L9.37799 4.35984V4.35934ZM14.5146 19.7109C14.134 20.2984 13.2658 20.3893 12.8355 20.4305C12.6377 20.4501 12.4387 20.4557 12.24 20.447L7.71549 19.6612L7.59147 19.6035C7.2742 19.5406 6.97303 19.4138 6.70624 19.2309C6.4224 19.0346 6.18291 18.781 6.00328 18.4863C5.83746 18.2275 5.71722 17.9422 5.64779 17.6427C5.59358 17.4041 5.57129 17.1592 5.58151 16.9147L5.57347 8.6273V8.50328C5.60661 7.64316 6.25183 6.98138 6.75645 6.58421L6.96332 6.47675C6.97136 9.15653 6.97136 11.8368 6.97989 14.5166C6.97989 14.5909 6.97186 14.6984 6.97989 14.8309C7.03764 16.0631 7.7657 16.9483 7.98914 17.2049C8.90751 18.2799 10.1066 18.6108 10.8843 18.8177C11.3804 18.9502 14.6311 19.496 14.6311 19.496C14.5985 19.5708 14.5597 19.6427 14.5151 19.7109H14.5146ZM18.4351 15.4018C18.3839 15.9261 18.1796 16.4238 17.8476 16.8328C17.6147 17.1131 17.3278 17.3438 17.0041 17.5112V15.2778C17.4836 14.8806 17.9636 14.4839 18.4351 14.0948C18.4431 14.5251 18.4431 14.9635 18.4351 15.4003V15.4018Z" fill="#FFFDFC"/>
</g>
<defs>
<clipPath id="clip0_5_21787">
<rect width="24" height="24" fill="white"/>
</clipPath>
</defs>
</svg>
