<svg width="24" height="24" viewBox="0 0 24 24" fill="none" xmlns="http://www.w3.org/2000/svg">
<g clip-path="url(#clip0_5_21780)">
<path d="M0 0H23.958V23.958H0V0Z" fill="#0099E5"/>
<path d="M11.6122 12.4163L13.8861 14.7281C14.4822 15.3395 15.3 15.6843 16.1539 15.6843C17.0078 15.6843 17.8255 15.3395 18.4217 14.7281C19.6745 13.4415 19.6745 11.3911 18.4217 10.1044C17.8255 9.49304 17.0078 9.14827 16.1539 9.14827C15.3 9.14827 14.4822 9.49304 13.8861 10.1044L11.6122 12.4163ZM16.1546 16.8285C14.9981 16.83 13.8903 16.3634 13.0834 15.5349L10.0176 12.4163L13.0834 9.29763C13.8909 8.4706 14.998 8.0043 16.1539 8.0043C17.3098 8.0043 18.4168 8.4706 19.2244 9.29763C20.9122 11.0342 20.9122 13.7984 19.2244 15.5349C18.4179 16.3632 17.3106 16.8298 16.1546 16.8285Z" fill="white"/>
<path d="M7.80338 16.8285C6.64733 16.8299 5.53993 16.3633 4.73355 15.5349C3.04575 13.7984 3.04575 11.0342 4.73355 9.29763C5.54111 8.4706 6.64815 8.0043 7.80406 8.0043C8.95997 8.0043 10.067 8.4706 10.8746 9.29763L11.0197 9.44543L10.2169 10.2509L10.0719 10.1044C9.47529 9.49331 8.6574 9.14874 7.80338 9.14874C6.94937 9.14874 6.13147 9.49331 5.53491 10.1044C4.28208 11.3911 4.28208 13.4415 5.53491 14.7281C6.13147 15.3392 6.94937 15.6838 7.80338 15.6838C8.6574 15.6838 9.47529 15.3392 10.0719 14.7281L10.2169 14.5803L11.0197 15.3939L10.8746 15.5417C10.0677 16.3702 8.95984 16.8368 7.80338 16.8353" fill="white"/>
</g>
<defs>
<clipPath id="clip0_5_21780">
<rect width="24" height="24" fill="white"/>
</clipPath>
</defs>
</svg>
