<svg width="24" height="24" viewBox="0 0 24 24" fill="none" xmlns="http://www.w3.org/2000/svg">
<g clip-path="url(#clip0_5_21727)">
<path fill-rule="evenodd" clip-rule="evenodd" d="M23.986 12.002C23.986 18.6162 18.6243 23.9779 12.0103 23.9779C5.39613 23.9779 0.0343781 18.6162 0.0343781 12.002C0.0343781 5.38777 5.39613 0.026062 12.0103 0.026062C18.6243 0.026062 23.986 5.38777 23.986 12.002Z" fill="#222C46"/>
<path fill-rule="evenodd" clip-rule="evenodd" d="M22.1927 12.002C22.1927 6.37827 17.6339 1.81937 12.0103 1.81937C6.38648 1.81937 1.82758 6.37819 1.82758 12.002C1.82758 17.6258 6.3864 22.1846 12.0103 22.1846C17.634 22.1846 22.1927 17.6257 22.1927 12.002ZM22.7877 12.002C22.7877 17.9542 17.9625 22.7796 12.0103 22.7796C6.05797 22.7796 1.2326 17.9542 1.2326 12.002C1.2326 6.04976 6.05805 1.2244 12.0103 1.2244C17.9624 1.2244 22.7877 6.04984 22.7877 12.002Z" fill="#DF4F2A"/>
<path fill-rule="evenodd" clip-rule="evenodd" d="M22.2158 12.002C22.2158 17.6387 17.6466 22.2078 12.0103 22.2078C6.37366 22.2078 1.80436 17.6387 1.80436 12.002C1.80436 6.36536 6.37366 1.79605 12.0103 1.79605C17.6466 1.79605 22.2158 6.36536 22.2158 12.002Z" fill="#E3E4E2"/>
<path fill-rule="evenodd" clip-rule="evenodd" d="M9.12602 19.7091C9.09722 19.4808 9.04951 19.3018 8.98361 19.1711C8.91759 19.0404 8.82653 18.9452 8.71034 18.8849C8.55031 18.8019 8.39631 18.8063 8.2485 18.8986C8.10044 18.9913 7.95685 19.1717 7.81746 19.4401C7.7325 19.6036 7.71172 19.7562 7.7561 19.8975C7.80044 20.0388 7.90302 20.1512 8.06448 20.2351C8.19449 20.3026 8.33383 20.3425 8.48267 20.3544C8.63088 20.3659 8.78404 20.3482 8.94052 20.3013C8.7833 20.578 8.58207 20.7502 8.33542 20.8157C8.08948 20.8817 7.81695 20.8373 7.51673 20.6815C7.17921 20.5062 6.9689 20.2717 6.88575 19.9786C6.80189 19.6851 6.85392 19.358 7.04138 18.997C7.24641 18.6021 7.50635 18.3429 7.82101 18.2197C8.13574 18.0965 8.46532 18.124 8.80881 18.3024C8.90555 18.3526 9.0127 18.4202 9.12967 18.5049C9.24657 18.5895 9.31968 18.6395 9.34844 18.6544C9.39179 18.6769 9.43765 18.693 9.48576 18.7032C9.53483 18.7131 9.58638 18.718 9.64062 18.718L9.12602 19.7091ZM10.7032 20.3428C10.6784 20.6649 10.6936 20.8892 10.748 21.0143C10.8025 21.1395 10.9094 21.2084 11.0691 21.2207C11.2287 21.233 11.3451 21.1812 11.4187 21.0658C11.4924 20.9506 11.5417 20.7312 11.5664 20.4092C11.5913 20.0864 11.5761 19.8622 11.5209 19.7357C11.4659 19.6093 11.3589 19.5397 11.1992 19.5274C11.0411 19.5152 10.9248 19.5677 10.851 19.6842C10.7772 19.8008 10.728 20.02 10.7032 20.3428ZM12.493 20.4791C12.4573 20.942 12.321 21.2737 12.083 21.476C11.8452 21.6778 11.4942 21.761 11.0303 21.7253C10.5657 21.6896 10.2323 21.5537 10.0288 21.3181C9.82542 21.0819 9.74127 20.7332 9.7769 20.2703C9.81234 19.8093 9.94866 19.4782 10.1858 19.2758C10.4229 19.0742 10.7731 18.9907 11.2377 19.0265C11.7031 19.0623 12.0373 19.1976 12.2408 19.4332C12.4445 19.6683 12.5284 20.0168 12.493 20.4791ZM14.2287 18.7694C14.1706 18.8381 14.1324 18.9125 14.114 18.9926C14.0956 19.0726 14.0971 19.1582 14.1181 19.2483L14.5075 20.9174C14.5287 21.0087 14.5656 21.0874 14.6178 21.1521C14.6699 21.217 14.7373 21.2673 14.8198 21.3033L13.5724 21.5942C13.6305 21.5255 13.6686 21.4506 13.6867 21.3693C13.7047 21.2882 13.703 21.2013 13.6818 21.1101L13.2924 19.4409C13.2714 19.3508 13.2348 19.2734 13.1829 19.2098C13.1311 19.1461 13.0639 19.0964 12.9813 19.0604L14.2287 18.7694ZM15.5717 18.0943C15.5735 18.1148 15.5753 18.1301 15.5778 18.1396C15.5804 18.149 15.5846 18.1582 15.5903 18.1671C15.5951 18.1746 15.5985 18.1798 15.6015 18.183C15.6045 18.1862 15.6091 18.1892 15.6151 18.1929L16.5688 18.7522C16.6415 18.7937 16.7189 18.8441 16.8024 18.9023C16.8849 18.9605 16.9733 19.0261 17.066 19.0999C17.0229 19.0489 16.9793 18.9939 16.9343 18.9329C16.8896 18.8725 16.8445 18.8071 16.7986 18.7363L16.3819 18.0944C16.3321 18.0179 16.2717 17.958 16.2008 17.9162C16.1303 17.874 16.0487 17.8503 15.9563 17.8447L16.8452 17.2675C16.8141 17.3534 16.8031 17.4373 16.8117 17.5196C16.821 17.6015 16.8505 17.6814 16.9001 17.7579L17.9769 19.4167C18.0007 19.4534 18.0242 19.4814 18.0465 19.5005C18.0693 19.5191 18.095 19.5323 18.1226 19.5404L17.3131 20.0659C17.3109 20.0487 17.3078 20.0343 17.3045 20.0224C17.3016 20.0108 17.2964 20.0001 17.2905 19.9912C17.2865 19.9848 17.2795 19.9782 17.2699 19.9718C17.2673 19.9705 17.2656 19.9693 17.265 19.9683L16.1871 19.3584C16.1279 19.3252 16.0568 19.279 15.9728 19.2203C15.8893 19.1606 15.7947 19.0908 15.6888 19.0091C15.7324 19.0598 15.7766 19.1153 15.8218 19.1754C15.8671 19.2353 15.9121 19.3007 15.958 19.3715L16.4337 20.1042C16.4841 20.1817 16.5458 20.2421 16.6175 20.2851C16.6893 20.3278 16.7706 20.3526 16.8623 20.3585L15.9734 20.9356C16.0046 20.8512 16.015 20.7677 16.0045 20.6853C15.9939 20.6027 15.9628 20.5217 15.9117 20.443L14.9785 19.0054C14.9281 18.9279 14.8673 18.8675 14.7969 18.8253C14.7265 18.783 14.6465 18.7591 14.5566 18.7533L15.5717 18.0943Z" fill="#222C46"/>
<path fill-rule="evenodd" clip-rule="evenodd" d="M17.8106 5.4241C17.8265 5.44167 17.8442 5.46017 17.8632 5.47974C17.8814 5.49879 17.9072 5.52519 17.9417 5.55923C18.0985 5.71457 18.2312 5.81175 18.3392 5.85141C18.4473 5.8911 18.5373 5.87511 18.6082 5.80344C18.6713 5.73964 18.6912 5.66081 18.6679 5.5668C18.6446 5.47287 18.5807 5.37362 18.4756 5.26965C18.3838 5.17878 18.3051 5.12576 18.2402 5.11128C18.1752 5.0957 18.1141 5.11738 18.0575 5.17461L17.8106 5.4241ZM17.4597 5.77878L17.1723 6.06922C17.1055 6.13664 17.0807 6.2079 17.0968 6.28282C17.1134 6.35733 17.1745 6.44716 17.28 6.55162C17.3982 6.66859 17.512 6.73989 17.6215 6.76433C17.7302 6.78811 17.8216 6.7633 17.8944 6.68982C17.9772 6.606 17.9953 6.5014 17.9481 6.37538C17.9008 6.24947 17.7868 6.09702 17.6074 5.91942C17.5694 5.88172 17.5399 5.85263 17.5188 5.83269C17.4977 5.81279 17.4774 5.79451 17.4597 5.77878ZM15.793 5.76002C15.8927 5.77937 15.985 5.77594 16.0703 5.74983C16.1556 5.72369 16.2328 5.67573 16.3024 5.60543L17.5657 4.32874C17.6339 4.2598 17.6806 4.18263 17.705 4.09804C17.7292 4.0133 17.7312 3.92133 17.7108 3.82193L17.7222 3.83304C17.8497 3.96674 17.9472 4.06691 18.0129 4.13179C18.1424 4.25991 18.3154 4.42381 18.5322 4.62364C18.7489 4.82339 18.897 4.96263 18.9765 5.04117C19.289 5.35055 19.4807 5.62311 19.5521 5.85864C19.623 6.09455 19.5746 6.29725 19.4064 6.46717C19.2997 6.5751 19.1737 6.62476 19.0279 6.61579C18.8825 6.60645 18.7097 6.53858 18.5095 6.41219C18.6666 6.62587 18.7526 6.82152 18.7667 6.99857C18.7814 7.17514 18.724 7.32936 18.5942 7.46059C18.4178 7.63885 18.2034 7.69664 17.9495 7.63431C17.6961 7.57151 17.4185 7.39069 17.1172 7.09254C17.0535 7.02944 16.9262 6.89803 16.7341 6.69694C16.5427 6.49649 16.3805 6.33041 16.2473 6.19859C16.2167 6.16828 16.1483 6.10237 16.0426 6.0005C15.9367 5.89852 15.8539 5.81847 15.793 5.76002Z" fill="#222C46"/>
<path fill-rule="evenodd" clip-rule="evenodd" d="M14.0169 2.54967C13.921 2.58922 13.8448 2.64272 13.7873 2.70996C13.7297 2.77716 13.691 2.85824 13.6722 2.95199L13.4133 4.23912C13.3761 4.42389 13.3835 4.55633 13.4357 4.63627C13.4885 4.71706 13.5948 4.77318 13.7568 4.80575C13.9189 4.83839 14.0386 4.82768 14.1185 4.77362C14.1975 4.72008 14.2556 4.60082 14.2927 4.41599L14.5516 3.12881C14.5705 3.03514 14.567 2.94552 14.54 2.86134C14.5129 2.77708 14.4624 2.6981 14.3893 2.62459L15.7085 2.88999C15.6138 2.92839 15.5385 2.98134 15.4819 3.0488C15.426 3.11703 15.3881 3.19826 15.3691 3.29327L15.0888 4.6863C15.0552 4.85382 15.0146 4.97921 14.9675 5.06192C14.9203 5.14536 14.8543 5.2102 14.7712 5.25757C14.6485 5.32777 14.4899 5.36664 14.2956 5.37362C14.1013 5.38068 13.8614 5.35583 13.5769 5.2986C13.2924 5.24136 13.0615 5.17154 12.8851 5.08994C12.7087 5.00838 12.5784 4.91131 12.4941 4.79958C12.4372 4.72533 12.4018 4.64273 12.3897 4.55146C12.3774 4.46081 12.3891 4.32685 12.4246 4.15044L12.7049 2.75736C12.7236 2.66362 12.7202 2.57404 12.6931 2.48986C12.667 2.40575 12.6164 2.3268 12.5425 2.25314L14.0169 2.54967Z" fill="#222C46"/>
<path fill-rule="evenodd" clip-rule="evenodd" d="M9.43016 2.69568C9.37392 2.7802 9.34125 2.86626 9.33202 2.95388C9.32312 3.04198 9.33718 3.13052 9.37448 3.21995L9.93061 4.55165C9.97149 4.64954 10.0285 4.71308 10.1005 4.74188C10.1735 4.77039 10.26 4.76326 10.3615 4.72087C10.4994 4.66327 10.6082 4.5583 10.6875 4.40596C10.766 4.25391 10.8369 3.99445 10.9 3.62751L11.4359 4.91092C11.3811 4.90043 11.3276 4.89792 11.274 4.90468C11.2204 4.91077 11.1641 4.92646 11.104 4.95153L9.09785 5.78924C9.15397 5.70472 9.18654 5.61807 9.19518 5.52934C9.20382 5.44058 9.18901 5.3503 9.15117 5.25962L8.45901 3.60225C8.42168 3.51279 8.36873 3.44049 8.29976 3.38481C8.23093 3.32987 8.14682 3.29261 8.0472 3.27316L9.43016 2.69568Z" fill="#222C46"/>
<path fill-rule="evenodd" clip-rule="evenodd" d="M6.77827 5.12847C6.52778 5.12951 6.32519 5.15838 6.16948 5.21432C6.01385 5.2703 5.88983 5.35921 5.79693 5.48079C5.66862 5.6485 5.63557 5.8213 5.69735 5.99912C5.75971 6.17746 5.91659 6.36255 6.1683 6.55503C6.32183 6.67234 6.4793 6.7165 6.64103 6.68607C6.8026 6.65583 6.94771 6.55644 7.07709 6.38729C7.18125 6.25105 7.25823 6.10077 7.3076 5.93591C7.35645 5.77171 7.37543 5.59806 7.36402 5.41673C7.62026 5.63026 7.75422 5.87883 7.76316 6.16354C7.77279 6.44766 7.65818 6.74626 7.41785 7.06073C7.14757 7.41431 6.84558 7.61739 6.51242 7.67044C6.17879 7.72428 5.84275 7.62137 5.50416 7.36254C5.13375 7.07934 4.92141 6.75327 4.86787 6.3846C4.81422 6.01588 4.92484 5.65119 5.19995 5.29131C5.27735 5.18999 5.37593 5.07937 5.49515 4.96007C5.61431 4.84081 5.68564 4.76589 5.70857 4.73576C5.74331 4.69035 5.77175 4.64135 5.79449 4.58892C5.8172 4.53549 5.83529 4.47841 5.84869 4.41782L6.77827 5.12847Z" fill="#222C46"/>
<path fill-rule="evenodd" clip-rule="evenodd" d="M12.0645 5.4968C15.6633 5.4968 18.5808 8.4142 18.5808 12.0131C18.5808 15.612 15.6633 18.5294 12.0645 18.5294C8.46558 18.5294 5.54814 15.612 5.54814 12.0131C5.54814 8.4142 8.46558 5.4968 12.0645 5.4968ZM12.0645 5.92854C15.4248 5.92854 18.149 8.65268 18.149 12.0131C18.149 15.3735 15.4248 18.0976 12.0645 18.0976C8.70407 18.0976 5.97988 15.3735 5.97988 12.0131C5.97988 8.65268 8.70407 5.92854 12.0645 5.92854Z" fill="#222C46"/>
<path fill-rule="evenodd" clip-rule="evenodd" d="M16.7508 10.5831L15.3262 11.4056C15.0522 11.0876 14.8559 10.8951 14.7362 10.8258C14.5098 10.6918 14.2513 10.7094 13.96 10.8776C13.7685 10.9882 13.6635 11.1658 13.6446 11.4094C13.6268 11.6273 13.6753 11.836 13.79 12.0345L14.4793 13.2286C14.5807 13.4042 14.7349 13.5121 14.941 13.5513C15.1478 13.5915 15.3409 13.5598 15.5205 13.4562C15.8158 13.2856 15.9485 13.0548 15.9186 12.7634C15.905 12.6383 15.8123 12.3672 15.6407 11.9502L17.0532 11.1347C17.4546 11.9405 17.5428 12.6185 17.3178 13.1686C17.1086 13.6725 16.579 14.1699 15.729 14.6605C15.0427 15.0568 14.3303 15.1914 13.5925 15.0654C12.8901 14.9407 12.3475 14.6027 11.9643 14.0505C12.2144 13.8174 12.4386 13.5443 12.5663 13.2347C12.8611 12.5199 12.6249 11.7242 12.297 11.0657L12.2365 10.9441C12.5246 10.5829 12.8869 10.2761 13.3236 10.0241C13.4911 9.92734 13.7501 9.84821 14.1004 9.78696C14.4508 9.72567 14.6758 9.66622 14.7755 9.60858C14.8114 9.58794 14.8454 9.52444 14.8772 9.41832C14.9089 9.31217 14.9233 9.23337 14.9203 9.1819L15.6864 8.73956L16.7508 10.5831Z" fill="#222C46"/>
<path fill-rule="evenodd" clip-rule="evenodd" d="M11.8483 10.5868L10.4237 11.4093C10.1497 11.0913 9.95343 10.8988 9.83365 10.8296C9.60724 10.6956 9.34874 10.7132 9.05749 10.8813C8.8659 10.9919 8.761 11.1696 8.74202 11.4133C8.72415 11.6311 8.77282 11.8398 8.88742 12.0383L9.57685 13.2325C9.67817 13.408 9.83232 13.516 10.0385 13.5552C10.2453 13.5953 10.4385 13.5637 10.6181 13.4599C10.9133 13.2895 11.0461 13.0586 11.0162 12.7672C11.0025 12.6421 10.9098 12.3711 10.7382 11.9541L12.1509 11.1385C12.5522 11.9443 12.6404 12.6223 12.4154 13.1725C12.2762 13.5056 11.9966 13.8381 11.5758 14.1668L12.0059 14.912L11.2578 15.3439L10.8557 14.6475L10.8266 14.6644C10.7088 14.7325 10.5902 14.7926 10.4711 14.8453L10.8837 15.5599L10.1355 15.9919L9.61418 15.089C9.31082 15.1292 9.00266 15.1227 8.69003 15.0692C7.90756 14.9304 7.3234 14.5268 6.93696 13.8575C6.54587 13.18 6.52859 12.4545 6.88461 11.6796C6.9912 11.4469 7.11988 11.2303 7.27049 11.0295L6.71568 10.0686L7.46389 9.63671L7.89615 10.3854C8.00714 10.2962 8.12474 10.2119 8.24895 10.1324L7.838 9.42071L8.58617 8.98874L9.06377 9.81593C9.10686 9.80718 9.15161 9.7988 9.19791 9.79071C9.54827 9.72942 9.77332 9.66994 9.87309 9.61234C9.90898 9.59159 9.94287 9.52819 9.9747 9.422C10.0065 9.31588 10.0208 9.23709 10.0178 9.18565L10.7839 8.74332L11.8483 10.5868Z" fill="#DF4F2A"/>
</g>
<defs>
<clipPath id="clip0_5_21727">
<rect width="24" height="24" fill="white"/>
</clipPath>
</defs>
</svg>
