<svg width="24" height="24" viewBox="0 0 24 24" fill="none" xmlns="http://www.w3.org/2000/svg">
<g clip-path="url(#clip0_5_21718)">
<path fill-rule="evenodd" clip-rule="evenodd" d="M12.2722 -0.00012207L11.3438 0.127878L10.4478 0.415878L9.61616 0.847878L8.84816 1.43988L8.12816 2.1922L7.50416 3.1362L6.94384 4.2402L6.47984 5.5362L7.63216 6.3202L9.35984 4.8162L9.37616 4.79988L9.34416 4.62388L9.32784 4.43188V4.2402L9.53616 3.16788L10.1278 2.3042L10.9922 1.72788L12.0482 1.5042H17.4722L17.3598 1.4242L16.3038 0.896198L15.2798 0.464198L14.2562 0.176198L13.2478 0.0158779L12.2722 -0.00012207ZM17.4722 1.5042H12.0482L12.8322 1.6162L13.5198 1.9362L14.0962 2.4162L14.5118 3.0562L14.5282 3.03988L19.4398 2.8642L18.3998 2.09588L17.4722 1.5042ZM11.2482 2.3362L10.5918 2.78388L10.1598 3.4402L9.99984 4.2402L10.1598 5.03988L10.5918 5.69588L11.2482 6.1442L12.0482 6.30388L12.8478 6.1442L13.5038 5.69588L13.9522 5.03988L14.1122 4.2402L13.9522 3.4402L13.5038 2.78388L12.8478 2.3362L12.0482 2.17588L11.2482 2.3362Z" fill="#B72D23"/>
<path fill-rule="evenodd" clip-rule="evenodd" d="M16.3998 3.64798L15.0561 3.8563L14.8961 5.24798L17.0561 6.04798H17.0721L17.2161 5.93598L17.3761 5.82398L17.5361 5.72798L18.5761 5.40798H21.9681L21.4561 4.8963L20.6721 4.36798L19.7761 3.96798L18.7681 3.71198L17.6481 3.59998L16.3998 3.64798ZM18.5761 5.40798L19.6161 5.5043L20.5438 5.99998L21.2481 6.83198L21.5198 7.56798L21.5678 8.31998L21.4081 9.05598L21.0561 9.72798H21.0721L23.5841 13.968L23.7598 12.688L23.8401 11.456L23.8238 10.272L23.6961 9.15198L23.4561 8.12798L23.1201 7.16798L22.6721 6.30398L22.1121 5.55198L21.9681 5.40798H18.5761ZM17.8561 6.31998L17.2321 6.84798L16.8641 7.53598L16.7998 8.33598L17.0401 9.1043L17.5521 9.74398L18.2561 10.096L19.0398 10.176L19.8238 9.9363L20.4478 9.40798L20.8161 8.71997L20.8961 7.91998L20.6561 7.15198L20.1278 6.5123L19.4241 6.15998L18.6398 6.07998L17.8561 6.31998Z" fill="#97B63D"/>
<path fill-rule="evenodd" clip-rule="evenodd" d="M20.5439 10.24L19.2639 10.816L19.6963 13.088L19.6799 13.104L19.8719 13.152L20.0319 13.232L20.2079 13.328L21.0079 14.064L21.4563 15.008L21.5199 16.048L21.1679 17.072L20.6719 17.696L20.0479 18.128L19.3439 18.368L18.5919 18.416H18.5763L16.2239 22.752L17.4239 22.24L18.5279 21.68L19.5199 21.056L20.4163 20.384L21.1839 19.648L21.8399 18.864L22.3519 18.032L22.7039 17.168L22.9279 16.256L22.9763 15.328L22.8639 14.352L22.5763 13.36L22.0963 12.336L21.4239 11.296L20.5439 10.24ZM19.0879 13.648L18.3039 13.696L17.5839 14.032L17.0399 14.64L16.7679 15.408L16.8163 16.192L17.1519 16.912L17.7599 17.456L18.5439 17.728L19.3279 17.68L20.0319 17.344L20.5919 16.736L20.8639 15.968L20.8163 15.168L20.4799 14.464L19.8719 13.92L19.0879 13.648Z" fill="#00743C"/>
<path fill-rule="evenodd" clip-rule="evenodd" d="M14.8961 18.992H14.8801L14.9281 19.168L14.9438 19.36V19.568L14.7198 20.624L14.1281 21.4877L13.2478 22.064L12.1921 22.272H15.4881L16.1121 21.616L16.7521 20.688L17.3121 19.584L17.7918 18.2877L16.6401 17.488L14.8961 18.992ZM11.4241 17.632L10.7678 18.08L10.3198 18.72L10.1438 19.52L10.3041 20.336L10.7361 20.992L11.3921 21.44L12.1921 21.6L12.9921 21.44L13.6478 21.008L14.0961 20.352L14.2721 19.552L14.1121 18.752L13.6798 18.096L13.0238 17.648L12.2241 17.488L11.4241 17.632ZM9.72813 20.72L4.81613 20.864L5.83981 21.632L6.87981 22.304L7.91981 22.864L8.95981 23.28L9.98413 23.584L10.9761 23.744L11.9521 23.776L12.8798 23.6477L13.7761 23.376L14.6241 22.96L15.3921 22.368L15.4881 22.272H12.1921L11.4078 22.16L10.7198 21.84L10.1598 21.344L9.74381 20.704L9.72813 20.72Z" fill="#05A7E0"/>
<path fill-rule="evenodd" clip-rule="evenodd" d="M0.560064 11.1201L0.480064 12.3518L0.512064 13.5361L0.640064 14.6401L0.864064 15.6801L1.21574 16.6398L1.66406 17.4881L2.22374 18.2561L2.89606 18.8961L3.68006 19.4241L4.57638 19.8241L5.58406 20.0801L6.70406 20.1921L7.93606 20.1441L9.29638 19.9201L9.44006 18.5281L9.02374 18.3841H5.75974L4.72006 18.2721L3.79206 17.7918L3.08806 16.9761L2.81606 16.2241L2.76774 15.4721L2.91206 14.7358L3.26374 14.0641H3.24806L0.736064 9.84015L0.560064 11.1201ZM4.49574 13.8561L3.87206 14.3841L3.50406 15.0721L3.44006 15.8721L3.68006 16.6398L4.20774 17.2798L4.91206 17.6321L5.69638 17.7118L6.47974 17.4721L7.10406 16.9441L7.47206 16.2398L7.53606 15.4558L7.29606 14.6721L6.76806 14.0478L6.06406 13.6798L5.27974 13.6001L4.49574 13.8561ZM7.11974 17.8561L6.97606 17.9678L6.79974 18.0481L5.75974 18.3841H9.02374L7.28006 17.7441L7.26374 17.7281L7.11974 17.8561Z" fill="#004C77"/>
<path fill-rule="evenodd" clip-rule="evenodd" d="M8.14394 1.00797L6.94394 1.50397L5.83994 2.06397L4.83194 2.68796L3.95194 3.35996L3.16794 4.09597L2.52794 4.86396L2.01594 5.69596L1.64794 6.55997L1.42394 7.47196L1.35994 8.39996L1.48794 9.37596L1.77594 10.368L2.23994 11.392L2.91194 12.448L3.79194 13.504L5.05626 12.912L4.65626 10.656V10.64L4.47994 10.576L4.30394 10.496L4.12794 10.4L3.32794 9.67996L2.87994 8.71996L2.83194 7.67996L3.18394 6.65596L3.67994 6.04797L4.30394 5.61596L5.02394 5.37596L5.77626 5.32796L8.14394 1.00797ZM5.80794 6.01596L5.02394 6.06396L4.31994 6.39996L3.75994 6.99196L3.48794 7.77597L3.53594 8.55997L3.87194 9.27997L4.47994 9.82397L5.24794 10.096L6.03194 10.048L6.75194 9.71196L7.29626 9.10396L7.56794 8.33596L7.53626 7.55196L7.19994 6.83196L6.59194 6.28796L5.80794 6.01596Z" fill="#F47D20"/>
</g>
<defs>
<clipPath id="clip0_5_21718">
<rect width="24" height="24" fill="white"/>
</clipPath>
</defs>
</svg>
