<svg width="24" height="24" viewBox="0 0 24 24" fill="none" xmlns="http://www.w3.org/2000/svg">
<g clip-path="url(#clip0_5_21706)">
<path d="M11.9988 24C9.62585 23.9995 7.30634 23.2954 5.33352 21.9768C3.3607 20.6582 1.82316 18.7842 0.915305 16.5918C0.0074463 14.3994 -0.229965 11.9871 0.233088 9.65976C0.696141 7.33245 1.83887 5.19469 3.51678 3.51678C5.19469 1.83886 7.33245 0.696141 9.65976 0.233088C11.9871 -0.229965 14.3994 0.0074463 16.5918 0.915305C18.7842 1.82316 20.6582 3.3607 21.9768 5.33352C23.2954 7.30634 23.9995 9.62584 24 11.9988C24.0003 13.5749 23.6901 15.1356 23.0871 16.5918C22.4841 18.048 21.6001 19.3711 20.4856 20.4856C19.3711 21.6001 18.048 22.4841 16.5918 23.0871C15.1356 23.6901 13.5749 24.0003 11.9988 24ZM11.9988 23.0634C14.1866 23.0634 16.3252 22.4146 18.1443 21.1992C19.9635 19.9838 21.3813 18.2563 22.2187 16.2351C23.056 14.2139 23.2752 11.9898 22.8486 9.84397C22.4219 7.69818 21.3686 5.72709 19.8218 4.17992C18.2749 2.63275 16.3041 1.57899 14.1584 1.15188C12.0127 0.724767 9.78854 0.943489 7.76715 1.78039C5.74575 2.61728 4.01791 4.03477 2.80209 5.85362C1.58627 7.67247 0.937078 9.81098 0.936599 11.9988C0.939813 14.9308 2.10663 17.7416 4.18077 19.8139C6.25492 21.8862 9.06678 23.0506 11.9988 23.0512V23.0634Z" fill="black"/>
<path d="M12.0231 13.0543C12.5926 13.0543 13.0543 12.5926 13.0543 12.023C13.0543 11.4535 12.5926 10.9918 12.0231 10.9918C11.4535 10.9918 10.9918 11.4535 10.9918 12.023C10.9918 12.5926 11.4535 13.0543 12.0231 13.0543Z" fill="black"/>
</g>
<defs>
<clipPath id="clip0_5_21706">
<rect width="24" height="24" fill="white"/>
</clipPath>
</defs>
</svg>
