<svg width="24" height="24" viewBox="0 0 24 24" fill="none" xmlns="http://www.w3.org/2000/svg">
<g clip-path="url(#clip0_5_21686)">
<path d="M12 24C18.6274 24 24 18.6274 24 12C24 5.37258 18.6274 0 12 0C5.37258 0 0 5.37258 0 12C0 18.6274 5.37258 24 12 24Z" fill="black"/>
<path fill-rule="evenodd" clip-rule="evenodd" d="M13.0405 16.8195V19.6248C13.0405 20.0082 12.7298 20.3188 12.3464 20.3188C12.2156 20.3188 12.0893 20.2848 11.9777 20.2169L6.14891 16.6496C5.73632 16.3972 5.48395 15.9459 5.48395 15.4606V12.7572C5.48395 12.4369 5.74604 12.1748 6.0662 12.1748C6.1681 12.1748 6.27023 12.204 6.35746 12.2574L12.463 15.8149C12.8223 16.0235 13.0405 16.4069 13.0405 16.8195Z" fill="#01D494"/>
<path fill-rule="evenodd" clip-rule="evenodd" d="M15.8262 12.5194V18.2076C15.8262 18.3774 15.739 18.5328 15.5935 18.6104L14.2538 19.3627C14.2394 19.3724 14.22 19.3821 14.2005 19.387V16.2275C14.2005 15.8197 13.987 15.4412 13.6327 15.2276L8.2746 12.0195V8.45725C8.2746 8.13687 8.53669 7.87488 8.85685 7.87488C8.95875 7.87488 9.06088 7.90389 9.14811 7.95249L15.2489 11.5149C15.608 11.7236 15.8262 12.107 15.8262 12.5194Z" fill="#01D494"/>
<path fill-rule="evenodd" clip-rule="evenodd" d="M18.5005 16.6302C18.5005 16.8001 18.4083 16.9554 18.2579 17.0379L16.9912 17.7222V11.9371C16.9912 11.5245 16.7777 11.1509 16.4281 10.9372L10.944 7.65151V4.26874C10.944 4.16683 10.9729 4.06492 11.0214 3.97761C11.1866 3.70093 11.5409 3.60388 11.8175 3.7641L17.923 7.31179C18.2823 7.52045 18.5005 7.9039 18.5005 8.31647V16.6302Z" fill="#01D494"/>
</g>
<defs>
<clipPath id="clip0_5_21686">
<rect width="24" height="24" fill="white"/>
</clipPath>
</defs>
</svg>
