<svg width="24" height="24" viewBox="0 0 24 24" fill="none" xmlns="http://www.w3.org/2000/svg">
<g clip-path="url(#clip0_5_21677)">
<path d="M12 0C18.6274 0 24 5.37257 24 12C24 18.6274 18.6274 24 12 24C5.37257 24 0 18.6274 0 12C0 5.37257 5.37257 0 12 0Z" fill="#00467A"/>
<path d="M5.22925 10.4339C4.98856 10.4339 4.88159 10.5408 4.88159 10.7548C4.88159 10.7548 4.88159 15.5705 4.88159 16.2658C4.88159 16.5064 4.98856 16.5867 5.22925 16.5867C7.87816 16.6134 11.1147 14.2594 13.7904 12.4135V6.04605C11.1422 7.86522 7.82468 10.4606 5.22925 10.4339Z" fill="url(#paint0_linear_5_21677)"/>
<path d="M19.1678 12.9216C19.4085 12.9216 19.5154 12.8147 19.5154 12.6007C19.5154 12.6007 19.5154 7.78497 19.5154 7.08966C19.5154 6.84898 19.4085 6.76875 19.1678 6.76875C16.4921 6.74201 13.2823 9.09605 10.6066 10.942V17.2827C13.2555 15.4636 16.573 12.8681 19.1678 12.9216Z" fill="url(#paint1_linear_5_21677)"/>
<path d="M13.7904 12.4135V8.77509C12.6933 9.4704 11.5968 10.2199 10.5799 10.9152V14.5536C11.7038 13.8583 12.7742 13.1088 13.7904 12.4135Z" fill="#194AAD"/>
</g>
<defs>
<linearGradient id="paint0_linear_5_21677" x1="10.1509" y1="15.8025" x2="8.59129" y2="6.96343" gradientUnits="userSpaceOnUse">
<stop offset="0.1" stop-color="#194AAD"/>
<stop offset="0.5" stop-color="#248FCB"/>
<stop offset="0.8" stop-color="#2BBFDF"/>
</linearGradient>
<linearGradient id="paint1_linear_5_21677" x1="16.0501" y1="6.18639" x2="13.9877" y2="17.8819" gradientUnits="userSpaceOnUse">
<stop offset="0.1" stop-color="#194AAD"/>
<stop offset="0.5" stop-color="#248FCB"/>
<stop offset="0.8" stop-color="#2BBFDF"/>
</linearGradient>
<clipPath id="clip0_5_21677">
<rect width="24" height="24" fill="white"/>
</clipPath>
</defs>
</svg>
