<svg width="24" height="24" viewBox="0 0 24 24" fill="none" xmlns="http://www.w3.org/2000/svg">
<g clip-path="url(#clip0_5_21668)">
<path fill-rule="evenodd" clip-rule="evenodd" d="M24 12C24 18.6274 18.6274 24 12 24C5.37255 24 0 18.6274 0 12C0 5.37255 5.37255 0 12 0C18.6274 0 24 5.37255 24 12Z" fill="#2E344F"/>
<path fill-rule="evenodd" clip-rule="evenodd" d="M19.1991 19.2945L17.9659 18.0613L17.6853 18.3138C16.124 19.7197 14.1064 20.4939 12.0042 20.4939C7.3206 20.4939 3.5103 16.6836 3.5103 12C3.5103 7.31649 7.3206 3.50613 12.0042 3.50613C14.1064 3.50613 16.1241 4.28036 17.6853 5.68621L17.9659 5.93881L19.1991 4.70553C21.0839 6.56593 22.2542 9.14871 22.2542 12C22.2542 14.8513 21.0839 17.4341 19.1991 19.2945ZM1.74583 12C1.74583 6.34588 6.34588 1.74584 12 1.74584C14.517 1.74584 16.8247 2.65804 18.6111 4.16845L17.9318 4.84781C16.2673 3.46681 14.1771 2.71055 12.0042 2.71055C6.8819 2.71055 2.71472 6.87779 2.71472 12C2.71472 17.1223 6.8819 21.2895 12.0042 21.2895C14.177 21.2895 16.2672 20.5332 17.9318 19.1523L18.6111 19.8316C16.8247 21.342 14.517 22.2542 12 22.2542C6.34588 22.2542 1.74583 17.6541 1.74583 12ZM12 1.08286C5.98031 1.08286 1.08285 5.98025 1.08285 12C1.08285 18.0197 5.98031 22.9172 12 22.9172C18.0197 22.9172 22.9171 18.0197 22.9171 12C22.9171 5.98025 18.0197 1.08286 12 1.08286Z" fill="#FFFFFE"/>
<path fill-rule="evenodd" clip-rule="evenodd" d="M12.294 18.3856C13.7275 18.3215 15.0631 17.7933 16.1563 16.8579L16.483 16.5784L14.8974 14.9928L14.619 15.2193C13.8827 15.8181 12.9542 16.1479 12.0042 16.1479C10.0002 16.1479 8.28477 14.719 7.92517 12.7501L7.86557 12.4238H5.61116L5.67315 12.8756C5.85786 14.2228 6.45646 15.4544 7.4042 16.4372C8.27138 17.3366 9.35695 17.9515 10.5605 18.2284L10.5604 18.8971C7.33651 18.2243 4.95892 15.337 4.95892 12C4.95892 8.11524 8.11936 4.95473 12.0042 4.95473C12.1605 4.95473 12.3175 4.95997 12.4737 4.97024L12.4813 6.41303L12.8196 6.46249C13.7183 6.59389 14.5678 6.94288 15.3007 7.47871L14.8331 7.94644C14.0072 7.37038 13.0158 7.05645 12.0042 7.05645C9.4558 7.05645 7.34141 8.96598 7.08583 11.4982L7.87744 11.5781C8.09178 9.45387 9.86592 7.85203 12.0042 7.85203C12.9541 7.85203 13.8827 8.18187 14.619 8.78067L14.8974 9.00722L16.483 7.42149L16.1563 7.14204C15.3257 6.43139 14.335 5.94861 13.2733 5.73413L13.2654 4.25236L12.9154 4.21172C12.6151 4.17685 12.3085 4.15915 12.0042 4.15915C7.68073 4.15915 4.16334 7.67654 4.16334 12C4.16334 13.9018 4.85277 15.736 6.10462 17.1648C7.34466 18.5802 9.0486 19.5032 10.9027 19.764L11.3558 19.8276L11.3562 17.5695L11.0273 17.5116C8.77923 17.116 7.02689 15.4179 6.54199 13.2193H7.21352C7.76393 15.3964 9.72789 16.9435 12.0042 16.9435C13.0158 16.9435 14.0073 16.6296 14.8331 16.0535L15.301 16.5215C14.4123 17.1731 13.3688 17.5412 12.2583 17.5909L12.294 18.3856Z" fill="#FFFFFE"/>
<path fill-rule="evenodd" clip-rule="evenodd" d="M14.1165 5.27748C15.0591 5.57383 15.9152 6.05781 16.6614 6.71589L17.1876 6.11927C16.3575 5.38707 15.4046 4.84846 14.3551 4.51849L14.1165 5.27748Z" fill="#FFFFFE"/>
<path fill-rule="evenodd" clip-rule="evenodd" d="M12.2615 19.0406L12.2902 19.8357C14.0926 19.7709 15.8318 19.0766 17.1876 17.8807L16.6614 17.2841C15.4432 18.3586 13.8806 18.9824 12.2615 19.0406Z" fill="#FFFFFE"/>
<path fill-rule="evenodd" clip-rule="evenodd" d="M11.5067 5.62692C9.99036 5.74374 8.56157 6.40255 7.48349 7.48202C6.40568 8.56129 5.74833 9.99101 5.63257 11.5079L6.42583 11.5684C6.63375 8.84325 8.84433 6.62995 11.5678 6.42012L11.5067 5.62692Z" fill="#FFFFFE"/>
</g>
<defs>
<clipPath id="clip0_5_21668">
<rect width="24" height="24" fill="white"/>
</clipPath>
</defs>
</svg>
