<svg width="24" height="24" viewBox="0 0 24 24" fill="none" xmlns="http://www.w3.org/2000/svg">
<g clip-path="url(#clip0_5_21657)">
<path d="M11.37 0H12.5691C13.6837 0.0928125 14.7975 0.272812 15.855 0.647812C18.6094 1.58438 20.9831 3.57469 22.3894 6.12094C23.6128 8.31938 24.1359 10.9116 23.8134 13.4081C23.46 16.4081 21.9122 19.2487 19.5778 21.1669C17.4741 22.9247 14.745 23.9044 12.0056 23.9072C9.44062 23.9053 6.88219 23.0522 4.83937 21.4987C2.45719 19.7119 0.799687 16.9978 0.284999 14.0662C-0.106876 11.9484 0.110624 9.73125 0.869999 7.71844C1.88625 5.00062 3.93 2.685 6.50812 1.35187C8.00812 0.554062 9.6825 0.134062 11.37 0ZM6.14344 4.73531C4.76156 5.92031 3.87469 7.61625 3.51375 9.38719C3.17344 11.1206 3.19594 12.9375 3.63656 14.6512C4.15781 16.6087 5.35031 18.4613 7.13344 19.4841C8.82656 20.4553 10.8328 20.6812 12.7519 20.6119C14.5425 20.5219 16.3687 20.2894 18 19.4981C18 18.6244 18.0009 17.7497 17.9991 16.8759C16.1259 17.9166 13.9416 18.5109 11.7937 18.1997C10.5131 18.0319 9.25312 17.4328 8.45719 16.3922C7.46437 15.1622 7.05844 13.5572 7.03687 12C6.99 10.1709 7.4175 8.25375 8.595 6.81281C9.40312 5.8425 10.6631 5.36906 11.8969 5.28C13.9181 5.13375 15.9187 5.6025 17.8387 6.1875C17.8369 5.31375 17.8387 4.43906 17.8378 3.56437C15.7162 3.06094 13.5234 2.82469 11.3437 2.93812C9.49781 3.04781 7.58719 3.52312 6.14344 4.73531Z" fill="#2C3E50"/>
<path d="M6.14344 4.73531C7.58719 3.52312 9.49781 3.04781 11.3438 2.93812C13.5234 2.82468 15.7163 3.06093 17.8378 3.56437C17.8388 4.43906 17.8369 5.31374 17.8388 6.18749C15.9188 5.60249 13.9181 5.13374 11.8969 5.27999C10.6631 5.36906 9.40313 5.84249 8.595 6.8128C7.4175 8.25374 6.99 10.1709 7.03688 12C7.05844 13.5572 7.46438 15.1622 8.45719 16.3922C9.25313 17.4328 10.5131 18.0319 11.7938 18.1997C13.9416 18.5109 16.1259 17.9166 17.9991 16.8759C18.0009 17.7497 18 18.6244 18 19.4981C16.3688 20.2894 14.5425 20.5219 12.7519 20.6119C10.8328 20.6812 8.82656 20.4553 7.13344 19.4841C5.35031 18.4612 4.15781 16.6087 3.63656 14.6512C3.19594 12.9375 3.17344 11.1206 3.51375 9.38718C3.87469 7.61624 4.76156 5.9203 6.14344 4.73531Z" fill="white"/>
</g>
<defs>
<clipPath id="clip0_5_21657">
<rect width="24" height="24" fill="white"/>
</clipPath>
</defs>
</svg>
