<svg width="24" height="24" viewBox="0 0 24 24" fill="none" xmlns="http://www.w3.org/2000/svg">
<g clip-path="url(#clip0_5_21652)">
<path d="M12.9664 12.5664L17.1744 16.7744C17.2548 16.8553 17.3171 16.9524 17.3571 17.0592C17.3971 17.1661 17.4139 17.2802 17.4063 17.3941C17.3987 17.5079 17.367 17.6188 17.3132 17.7195C17.2594 17.8201 17.1848 17.9081 17.0944 17.9776C15.9714 18.8596 14.6227 19.4076 13.2028 19.5587C11.7828 19.7099 10.349 19.4581 9.06552 18.8322C7.78202 18.2063 6.70072 17.2316 5.94543 16.0198C5.19014 14.8079 4.79139 13.4078 4.79483 11.9799C4.79828 10.5519 5.20378 9.1538 5.96491 7.94559C6.72604 6.73739 7.81203 5.76794 9.09853 5.14826C10.385 4.52859 11.82 4.28372 13.2392 4.44171C14.6584 4.5997 16.0045 5.15416 17.1232 6.0416C17.2094 6.11236 17.2797 6.2005 17.3295 6.30026C17.3793 6.40001 17.4076 6.50916 17.4124 6.62057C17.4173 6.73198 17.3986 6.84316 17.3575 6.94685C17.3165 7.05055 17.2541 7.14444 17.1744 7.2224L12.9632 11.4336C12.8891 11.5078 12.8304 11.5959 12.7904 11.6928C12.7496 11.7945 12.729 11.9032 12.7296 12.0128C12.7283 12.1228 12.7501 12.2318 12.7936 12.3328C12.8329 12.4301 12.8917 12.5183 12.9664 12.592V12.5664ZM12 0C9.6266 0 7.30652 0.703788 5.33313 2.02236C3.35974 3.34094 1.82167 5.21509 0.91342 7.4078C0.00516891 9.60051 -0.232471 12.0133 0.230552 14.3411C0.693574 16.6689 1.83646 18.8071 3.51469 20.4853C5.19292 22.1635 7.33112 23.3064 9.65889 23.7694C11.9867 24.2324 14.3995 23.9948 16.5922 23.0866C18.7849 22.1783 20.659 20.6402 21.9776 18.6668C23.2962 16.6935 24 14.3734 24 12C24 8.8174 22.7357 5.76516 20.4853 3.51472C18.2348 1.26428 15.1826 0 12 0V0Z" fill="#69E2DC"/>
</g>
<defs>
<clipPath id="clip0_5_21652">
<rect width="24" height="24" fill="white"/>
</clipPath>
</defs>
</svg>
