<svg width="24" height="24" viewBox="0 0 24 24" fill="none" xmlns="http://www.w3.org/2000/svg">
<g clip-path="url(#clip0_5_18567)">
<path d="M12.1194 21.1463C7.05672 21.1463 2.94926 17.0388 2.94926 11.9761C2.94926 6.91344 7.05672 2.80598 12.1194 2.80598C16.2627 2.80598 19.7731 5.56419 20.8955 9.33732H23.7612C22.5672 4.01195 17.803 0.0358276 12.1194 0.0358276C5.52836 0.0358276 0.179108 5.38508 0.179108 11.9761C0.179108 18.5672 5.52836 23.9164 12.1194 23.9164C17.791 23.9164 22.5433 19.9642 23.7612 14.6627H20.8836C19.7373 18.4119 16.2507 21.1463 12.1194 21.1463Z" fill="#2FA73F"/>
<path d="M14.794 10.3761C14.794 11.4507 14.1612 12.3701 13.2418 12.8V16.394H10.9612V12.7761C10.0657 12.3463 9.44478 11.4269 9.44478 10.3642C9.44478 8.88357 10.6388 7.68954 12.1194 7.68954C13.5881 7.70148 14.794 8.89551 14.794 10.3761Z" fill="#2FA73F"/>
</g>
<defs>
<clipPath id="clip0_5_18567">
<rect width="24" height="24" fill="white"/>
</clipPath>
</defs>
</svg>
