<svg width="24" height="24" viewBox="0 0 24 24" fill="none" xmlns="http://www.w3.org/2000/svg">
<g clip-path="url(#clip0_5_18548)">
<path d="M12 0C18.6264 0 24 5.3736 24 12C24 18.6264 18.6264 24 12 24C5.3736 24 0 18.6264 0 12C0 5.3736 5.3736 0 12 0Z" fill="#1E0B49"/>
<path d="M7.79043 9.59996C8.32083 8.69756 9.17043 8.16237 9.91683 8.17677L10.2192 7.66557C10.74 6.77997 10.56 5.69997 9.81603 5.26318C9.07203 4.82638 8.04243 5.19598 7.51923 6.07677L7.21923 6.58797C7.59363 7.23357 7.53603 8.23196 7.00563 9.13916C6.47523 10.0464 5.62563 10.5768 4.87923 10.5624L4.57683 11.0736C4.05603 11.9592 4.23603 13.0391 4.98003 13.4759C5.72163 13.9127 6.75363 13.5455 7.27683 12.6623L7.57683 12.1512C7.20243 11.5056 7.26003 10.5024 7.79043 9.59996Z" fill="#1E90FF"/>
<path d="M7.008 14.7816C6.4776 13.8792 5.628 13.344 4.8816 13.3584L4.5792 12.8472C4.0584 11.9616 4.2384 10.8816 4.9824 10.4448C5.7264 10.008 6.756 10.3728 7.2792 11.2584L7.5792 11.7696C7.2048 12.4152 7.2624 13.4136 7.7928 14.3208C8.3256 15.228 9.1728 15.7584 9.9192 15.744L10.2216 16.2552C10.7424 17.1408 10.5624 18.2208 9.8184 18.6576C9.0768 19.0944 8.0448 18.7296 7.5216 17.844L7.2216 17.3328C7.5936 16.6872 7.536 15.684 7.008 14.7816Z" fill="url(#paint0_linear_5_18548)"/>
<path d="M13.0488 14.7816C12.5184 13.8792 11.6688 13.344 10.9224 13.3584L10.62 12.8472C10.0992 11.9616 10.2792 10.8816 11.0232 10.4448C11.7672 10.008 12.7968 10.3728 13.3176 11.2584L13.62 11.7696C13.2456 12.4152 13.3032 13.4136 13.8336 14.3208C14.3664 15.228 15.2136 15.7584 15.96 15.744L16.2624 16.2552C16.7832 17.1408 16.6032 18.2208 15.8592 18.6576C15.1176 19.0944 14.0856 18.7296 13.5624 17.844L13.2624 17.3328C13.6392 16.6872 13.584 15.684 13.0488 14.7816Z" fill="url(#paint1_linear_5_18548)"/>
<path d="M16.8264 14.8704C17.3568 13.9704 18.2064 13.4328 18.9528 13.4472L19.2552 12.936C19.776 12.0504 19.596 10.9704 18.852 10.5336C18.108 10.0968 17.0784 10.464 16.5552 11.3472L16.2552 11.8584C16.6296 12.504 16.572 13.5024 16.0416 14.4096C15.5088 15.3168 14.6616 15.8472 13.9152 15.8328L13.6128 16.344C13.092 17.2296 13.272 18.3096 14.016 18.7464C14.76 19.1832 15.7896 18.816 16.3128 17.9328L16.6128 17.4216C16.2336 16.7736 16.296 15.7704 16.8264 14.8704Z" fill="url(#paint2_linear_5_18548)"/>
<path d="M8.9256 4.92001C7.92 4.92001 7.1064 5.74801 7.1304 6.75841C7.152 7.71121 7.9296 8.48641 8.8824 8.51041C9.8928 8.53441 10.7208 7.72081 10.7208 6.71521C10.7208 5.72401 9.9168 4.92001 8.9256 4.92001Z" fill="#1E90FF"/>
<path d="M8.92563 15.456C7.92003 15.456 7.10883 16.284 7.13283 17.2968C7.15683 18.2688 7.96323 19.0512 8.93523 19.0464C9.92163 19.0416 10.7208 18.2424 10.7232 17.2536C10.7232 16.2624 9.91923 15.456 8.92563 15.456Z" fill="#4B0082"/>
<path d="M14.9424 4.92001C13.9368 4.92001 13.1232 5.74801 13.1472 6.75841C13.1688 7.71121 13.9464 8.48641 14.8992 8.51041C15.9096 8.53441 16.7376 7.72081 16.7376 6.71521C16.7376 5.72401 15.9336 4.92001 14.9424 4.92001Z" fill="#1E90FF"/>
<path d="M14.9424 15.456C13.9368 15.456 13.1232 16.284 13.1472 17.2944C13.1688 18.2664 13.9776 19.0512 14.9496 19.0464C15.936 19.0416 16.7352 18.2424 16.7376 17.2536C16.7376 16.2624 15.936 15.4584 14.9424 15.456Z" fill="#4B0082"/>
<path d="M11.892 10.188C10.8864 10.188 10.0728 11.016 10.0968 12.0264C10.1184 12.9792 10.896 13.7544 11.8488 13.7784C12.8592 13.8024 13.6872 12.9888 13.6872 11.9832C13.6872 10.992 12.8832 10.188 11.892 10.188Z" fill="#8B008B"/>
<path d="M17.976 10.188C16.9704 10.188 16.1568 11.0136 16.1808 12.0264C16.2024 12.9792 16.98 13.7568 17.9304 13.7784C18.9408 13.8024 19.7688 12.9912 19.7688 11.9856C19.7688 10.992 18.9672 10.1904 17.976 10.188Z" fill="#8B008B"/>
<path d="M5.80802 10.188C4.80242 10.188 3.98882 11.016 4.01282 12.0264C4.03442 12.9792 4.81202 13.7544 5.76482 13.7784C6.77523 13.8024 7.60323 12.9888 7.60323 11.9832C7.60323 10.992 6.79923 10.188 5.80802 10.188Z" fill="#1E90FF"/>
</g>
<defs>
<linearGradient id="paint0_linear_5_18548" x1="6.74984" y1="13.438" x2="8.08469" y2="15.7221" gradientUnits="userSpaceOnUse">
<stop offset="0.21" stop-color="#1E90FF"/>
<stop offset="1" stop-color="#4B0082"/>
</linearGradient>
<linearGradient id="paint1_linear_5_18548" x1="12.7921" y1="13.4367" x2="14.0481" y2="15.5794" gradientUnits="userSpaceOnUse">
<stop stop-color="#8B008B"/>
<stop offset="1" stop-color="#4B0082"/>
</linearGradient>
<linearGradient id="paint2_linear_5_18548" x1="17.1331" y1="13.6369" x2="15.649" y2="15.6038" gradientUnits="userSpaceOnUse">
<stop stop-color="#8B008B"/>
<stop offset="1" stop-color="#4B0082"/>
</linearGradient>
<clipPath id="clip0_5_18548">
<rect width="24" height="24" fill="white"/>
</clipPath>
</defs>
</svg>
