<svg width="24" height="24" viewBox="0 0 24 24" fill="none" xmlns="http://www.w3.org/2000/svg">
<g clip-path="url(#clip0_5_18530)">
<path d="M15.0056 1.10917V0.417288C15.0057 0.306853 14.9621 0.200877 14.8841 0.122635C14.8062 0.0443942 14.7004 0.000286379 14.5899 0L14.5732 0C12.3254 0.108417 10.1996 1.05414 8.61411 2.65108C7.02858 4.24802 6.09812 6.38053 6.00581 8.62901C6.01608 8.92143 6.25229 8.99765 6.39121 8.99765H7.09389C7.20087 8.99737 7.30367 8.95607 7.3811 8.88225C7.45853 8.80844 7.5047 8.70774 7.5101 8.6009C7.60823 6.74816 8.38897 4.9974 9.70174 3.68633C11.0145 2.37526 12.7663 1.59678 14.6191 1.50105C14.9121 1.46375 15.0056 1.30376 15.0056 1.10917ZM8.68143 9.00089H9.35114C9.45617 9.00017 9.55704 8.95978 9.63353 8.8878C9.71002 8.81582 9.75647 8.71758 9.76356 8.61279C9.85716 7.35059 10.4031 6.16457 11.3011 5.27264C12.1991 4.38072 13.3888 3.84281 14.6516 3.75776C14.7508 3.75122 14.8435 3.70586 14.9095 3.63151C14.9756 3.55716 15.0097 3.45979 15.0045 3.36047V2.67292C15.0042 2.56205 14.96 2.45583 14.8814 2.37759C14.8029 2.29935 14.6965 2.25548 14.5856 2.25563C14.5764 2.25509 14.5672 2.25509 14.558 2.25563C12.9239 2.36395 11.3848 3.06209 10.2269 4.22021C9.06897 5.37833 8.37109 6.91759 8.26306 8.55171C8.25564 8.66237 8.29247 8.77145 8.36545 8.85497C8.43842 8.93849 8.54158 8.98962 8.65224 8.99711H8.6798L8.68143 9.00089ZM15.004 4.93125V5.6215C15.004 5.90258 14.7597 6.0042 14.6407 6.01825C13.9762 6.09946 13.3577 6.40035 12.8837 6.87314C12.4096 7.34594 12.107 7.96355 12.0241 8.62792C12.0121 8.7298 11.9632 8.82378 11.8868 8.89217C11.8103 8.96057 11.7115 8.99865 11.6089 8.99927H10.9392C10.8289 8.9997 10.723 8.95634 10.6446 8.8787C10.5663 8.80107 10.522 8.69551 10.5214 8.58522C10.5206 8.5719 10.5206 8.55854 10.5214 8.54522C10.626 7.51252 11.084 6.54761 11.8179 5.81359C12.5519 5.07957 13.5167 4.62145 14.5494 4.51666C14.6037 4.5116 14.6585 4.51729 14.7106 4.53341C14.7627 4.54952 14.8111 4.57575 14.8531 4.61059C14.895 4.64542 14.9297 4.68819 14.9552 4.73644C14.9806 4.78469 14.9963 4.83748 15.0013 4.89179C15.0021 4.90529 15.0021 4.91883 15.0013 4.93233L15.004 4.93125ZM22.8892 14.9851C22.6946 14.9851 22.5346 14.891 22.4968 14.5986C22.4012 12.7455 21.6228 10.9934 20.3118 9.68024C19.0008 8.3671 17.2499 7.58593 15.3969 7.48741C15.2901 7.48214 15.1894 7.43599 15.1156 7.35851C15.0419 7.28103 15.0007 7.17817 15.0007 7.0712V6.36851C15.0007 6.2296 15.077 5.99339 15.3688 5.98312C17.6173 6.07525 19.75 7.00547 21.3472 8.59077C22.9444 10.1761 23.8905 12.3017 23.9994 14.5494C24.0037 14.6598 23.9639 14.7673 23.8889 14.8484C23.8139 14.9295 23.7098 14.9775 23.5995 14.9818H23.5827L22.8892 14.9851ZM14.9975 8.6609C14.9975 8.60601 15.0083 8.55165 15.0294 8.50096C15.0504 8.45026 15.0812 8.40421 15.1201 8.36545C15.159 8.32668 15.2051 8.29597 15.2558 8.27506C15.3066 8.25415 15.361 8.24347 15.4159 8.24361C15.4252 8.24308 15.4346 8.24308 15.444 8.24361C17.0788 8.35106 18.6189 9.04889 19.7777 10.2072C20.9364 11.3655 21.6347 12.9054 21.7427 14.5402C21.75 14.6508 21.7132 14.7597 21.6404 14.8432C21.5675 14.9266 21.4646 14.9779 21.3541 14.9856H21.3265H20.6417C20.5424 14.9908 20.445 14.9567 20.3706 14.8906C20.2963 14.8246 20.2509 14.7319 20.2444 14.6327C20.1592 13.3698 19.6211 12.1801 18.7289 11.2822C17.8368 10.3843 16.6506 9.83853 15.3883 9.7452C15.2835 9.73835 15.1851 9.69196 15.1132 9.6154C15.0413 9.53884 15.0011 9.43783 15.0007 9.33277L14.9975 8.6609ZM19.0639 14.9851H18.378C18.0963 14.9851 17.9953 14.7408 17.9807 14.6213C17.8993 13.9568 17.5984 13.3385 17.1256 12.8646C16.6528 12.3906 16.0353 12.0881 15.371 12.0051C15.2691 11.9935 15.175 11.9449 15.1065 11.8684C15.0381 11.792 15.0001 11.6931 14.9997 11.5906V10.9187C14.9994 10.8641 15.0098 10.81 15.0305 10.7595C15.0511 10.7089 15.0815 10.6629 15.1199 10.6241C15.1583 10.5853 15.2039 10.5545 15.2543 10.5333C15.3046 10.5122 15.3586 10.5011 15.4132 10.5009C15.4265 10.5001 15.4398 10.5001 15.4532 10.5009C16.4857 10.6055 17.4505 11.0634 18.1844 11.7973C18.9183 12.5311 19.3764 13.4958 19.4812 14.5283C19.4912 14.6379 19.4574 14.747 19.387 14.8317C19.3167 14.9163 19.2156 14.9695 19.106 14.9797C19.0929 14.9805 19.0797 14.9805 19.0666 14.9797L19.0639 14.9851ZM1.10971 8.99656C1.3043 8.99656 1.4643 9.09008 1.50213 9.3825C1.59787 11.2357 2.37654 12.9879 3.68793 14.3008C4.99931 15.6138 6.75048 16.3946 8.60359 16.4926C8.71033 16.4982 8.8109 16.5444 8.8846 16.6218C8.9583 16.6992 8.99953 16.8019 8.9998 16.9088V17.6115C8.9998 17.751 8.92358 17.9872 8.6317 17.9969C6.38306 17.9052 4.25018 16.9752 2.65274 15.39C1.0553 13.8047 0.108985 11.679 4.55158e-06 9.43115C-0.00216791 9.37653 0.00644164 9.32201 0.0253415 9.27071C0.0442413 9.21942 0.0730611 9.17235 0.110155 9.13219C0.147249 9.09204 0.19189 9.05958 0.241528 9.03668C0.291167 9.01378 0.344831 9.00088 0.399455 8.99873H0.416752L1.10971 8.99656ZM9.00142 15.3208C9.00128 15.3756 8.99033 15.4299 8.9692 15.4806C8.94807 15.5312 8.91717 15.5772 8.87827 15.6159C8.83938 15.6546 8.79323 15.6852 8.74249 15.7061C8.69174 15.727 8.63738 15.7376 8.58251 15.7375H8.55494C6.92072 15.6297 5.38127 14.932 4.22294 13.7742C3.06461 12.6164 2.36626 11.0772 2.25779 9.44304C2.25389 9.38834 2.26081 9.33341 2.27816 9.28139C2.2955 9.22937 2.32293 9.18127 2.35887 9.13986C2.39481 9.09844 2.43857 9.06452 2.48763 9.04002C2.5367 9.01553 2.59011 9.00094 2.64481 8.99711H3.35885C3.45834 8.99193 3.55587 9.0262 3.63025 9.09248C3.70463 9.15877 3.74986 9.25172 3.75613 9.35115C3.84145 10.614 4.3796 11.8036 5.27171 12.7015C6.16383 13.5994 7.34998 14.1452 8.61224 14.2386C8.71707 14.2455 8.81539 14.2919 8.88734 14.3684C8.95928 14.445 8.99947 14.546 8.9998 14.651L9.00142 15.3208ZM4.93503 8.99656H5.6215C5.90311 8.99656 6.00419 9.24088 6.01878 9.3598C6.10017 10.0243 6.40112 10.6426 6.87388 11.1167C7.34664 11.5907 7.96415 11.8933 8.62845 11.9765C8.73033 11.988 8.82443 12.0366 8.89289 12.1129C8.96134 12.1892 8.99939 12.288 8.9998 12.3905V13.0624C8.99994 13.1726 8.95647 13.2783 8.87888 13.3565C8.8013 13.4347 8.6959 13.479 8.58575 13.4797C8.57224 13.4797 8.55927 13.4797 8.54629 13.4797C7.51363 13.375 6.54878 12.9169 5.81477 12.183C5.08077 11.4491 4.62262 10.4843 4.51774 9.45169C4.51269 9.39713 4.5185 9.34212 4.53481 9.28982C4.55113 9.23751 4.57764 9.18896 4.61282 9.14695C4.64799 9.10494 4.69113 9.07031 4.73975 9.04506C4.78837 9.01981 4.84151 9.00443 4.89611 8.99981C4.90908 8.99981 4.92205 8.99981 4.93557 8.99981L4.93503 8.99656ZM9.00358 22.8882C9.00358 22.6936 9.09709 22.5336 9.38952 22.4963C11.2421 22.4004 12.9936 21.622 14.3063 20.3114C15.6191 19.0007 16.4002 17.2505 16.4991 15.398C16.5043 15.2912 16.5505 15.1904 16.6279 15.1165C16.7054 15.0427 16.8083 15.0014 16.9153 15.0013H17.618C17.7569 15.0013 17.9931 15.0775 18.0034 15.3699C17.9111 17.6184 16.9807 19.7509 15.3953 21.3479C13.8099 22.9449 11.6842 23.8908 9.43654 23.9995C9.32621 24.0036 9.21875 23.9638 9.13771 23.8888C9.05666 23.8138 9.00862 23.7098 9.00412 23.5995V22.8882H9.00358ZM15.3278 14.9964C15.3826 14.9964 15.4369 15.0073 15.4876 15.0283C15.5383 15.0494 15.5843 15.0802 15.623 15.1191C15.6617 15.1579 15.6924 15.2041 15.7132 15.2548C15.7341 15.3056 15.7447 15.3599 15.7445 15.4148C15.7445 15.424 15.7445 15.4332 15.7445 15.4429C15.6373 17.0779 14.9397 18.6182 13.7815 19.7771C12.6232 20.936 11.0833 21.6346 9.44843 21.7428C9.3378 21.7502 9.22874 21.7135 9.14515 21.6406C9.06156 21.5678 9.01026 21.4647 9.0025 21.3541C9.0025 21.3449 9.0025 21.3358 9.0025 21.3266V20.6417C8.99731 20.5424 9.03144 20.445 9.09749 20.3707C9.16355 20.2963 9.25622 20.251 9.35546 20.2444C10.6182 20.1593 11.8079 19.6213 12.7058 18.7294C13.6038 17.8375 14.1498 16.6516 14.2435 15.3894C14.2502 15.2845 14.2965 15.186 14.3731 15.114C14.4497 15.0419 14.5507 15.0016 14.6559 15.0013L15.3278 14.9964ZM9.00358 19.0623V18.378C9.00358 18.0969 9.24844 17.9953 9.36736 17.9812C10.0318 17.8998 10.6501 17.5988 11.1241 17.126C11.5982 16.6533 11.9008 16.0358 11.9841 15.3716C11.9958 15.2697 12.0445 15.1756 12.1209 15.1072C12.1973 15.0388 12.2961 15.0007 12.3986 15.0002H13.0705C13.1807 14.9998 13.2865 15.0431 13.3647 15.1206C13.443 15.1982 13.4872 15.3036 13.4878 15.4137C13.4878 15.4274 13.4878 15.4409 13.4878 15.4543C13.3827 16.4868 12.9245 17.4514 12.1905 18.1852C11.4565 18.9189 10.4918 19.3769 9.45925 19.4817C9.4047 19.4867 9.34972 19.4809 9.29744 19.4645C9.24517 19.4482 9.19664 19.4217 9.15465 19.3865C9.11266 19.3513 9.07803 19.3082 9.05275 19.2596C9.02748 19.211 9.01205 19.1579 9.00736 19.1034C9.00656 19.0902 9.00656 19.0771 9.00736 19.0639L9.00358 19.0623Z" fill="#FF5C00"/>
</g>
<defs>
<clipPath id="clip0_5_18530">
<rect width="24" height="23.9995" fill="white"/>
</clipPath>
</defs>
</svg>
