<svg width="24" height="24" viewBox="0 0 24 24" fill="none" xmlns="http://www.w3.org/2000/svg">
<path d="M21.4089 5.64957C20.9204 4.18408 20.1982 3.03718 19.2 2.2301C18.2018 1.42302 16.9699 0.892045 15.5044 0.594699C14.0177 0.318593 12.3186 0.169921 10.3858 0.169921L1.80531 0.148682V23.8513H10.3858C12.3398 23.8513 14.0389 23.6389 15.5044 23.2354C16.9912 22.8319 18.2018 22.1522 19.2 21.1965C20.177 20.2407 20.9204 18.9664 21.4089 17.3735C21.8973 15.7805 22.1522 13.7841 22.1522 11.3841C22.1522 9.02656 21.8973 7.11505 21.4089 5.64957Z" fill="#B79163"/>
<path d="M1.80531 12.085V23.8513H10.3646C12.2973 23.8513 13.9965 23.6602 15.4832 23.2354C16.9487 22.8319 18.1805 22.1522 19.1788 21.1965C20.177 20.2407 20.8991 18.9664 21.3876 17.3735C21.8336 15.9504 22.0673 14.1876 22.1097 12.085H1.80531Z" fill="#8E6533"/>
<path d="M15.908 7.62479L15.4832 6.32921C15.377 5.94691 14.6549 5.16107 10.7257 5.16107C6.79646 5.16107 6.09558 5.94691 5.96814 6.32921L5.54336 7.62479C5.52213 7.66727 5.52213 7.70974 5.52213 7.75222C5.52213 8.19824 5.86195 8.53806 6.41416 8.79293L7.26372 17.777V17.8195C7.39115 19.0089 10.3646 19.0513 10.7257 19.0513C11.0867 19.0513 14.0602 19.0089 14.1876 17.8195V17.777L15.0372 8.79293C15.5681 8.53806 15.908 8.19824 15.908 7.75222C15.9292 7.73098 15.908 7.66727 15.908 7.62479ZM10.7257 6.03187C12.6372 6.03187 13.8903 6.2655 14.4212 6.45665C13.8903 6.6478 12.6584 6.88143 10.7257 6.88143C8.79292 6.88143 7.56106 6.6478 7.03009 6.45665C7.56106 6.2655 8.81416 6.03187 10.7257 6.03187ZM13.3381 17.692C13.1681 17.862 12.2549 18.1805 10.7257 18.1805C9.2177 18.1805 8.28319 17.862 8.11328 17.692L7.87965 15.2283C8.87788 15.5469 10.3009 15.5682 10.7257 15.5682C11.1292 15.5682 12.5522 15.5469 13.5717 15.2283L13.3381 17.692ZM13.9965 10.8106C13.5292 11.0018 12.4035 11.2354 10.7469 11.2354C9.09027 11.2354 7.9646 11.0018 7.49735 10.8106L7.32744 9.11151C8.41062 9.38762 9.74867 9.49381 10.7469 9.49381C11.7451 9.49381 13.0832 9.38762 14.1664 9.11151L13.9965 10.8106ZM10.7257 8.64426C8.17699 8.64426 6.58407 8.09204 6.41416 7.7947L6.60531 7.20001C7.22124 7.49735 8.41062 7.77346 10.7257 7.77346C13.0407 7.77346 14.2301 7.49735 14.846 7.20001L15.0372 7.7947C14.8248 8.09204 13.2531 8.64426 10.7257 8.64426Z" fill="white"/>
</svg>
