<svg width="24" height="24" viewBox="0 0 24 24" fill="none" xmlns="http://www.w3.org/2000/svg">
<g clip-path="url(#clip0_5_18465)">
<path d="M23.8409 9.66751C23.6732 8.88462 23.3737 8.13313 22.9539 7.44251C22.0931 6.06751 20.2148 4.06751 17.867 2.49251C17.867 2.49251 16.0931 1.39251 15.2583 1.01751C12.2061 -0.332491 8.78873 -0.607491 5.86699 1.86751C0.962641 6.04251 -1.48953 11.8675 0.962641 17.6675C1.01481 17.7925 2.37134 21.3425 10.5105 23.7175C14.0844 23.8175 16.1713 23.6175 18.467 22.3425C21.467 20.6925 23.2148 17.6925 23.8409 14.6425C24.0235 13.7175 24.0496 10.5925 23.8409 9.66751Z" fill="#04FFCC"/>
<path d="M14.3452 1.44251V7.01751L7.61478 6.61751L4.84957 9.96751L4.51044 16.2925L6.80609 18.6425L10.2496 20.2925L14.7626 20.7675L19.667 19.5675V7.94251L18.7278 3.11751C18.7278 3.11751 16.093 1.14251 14.3713 0.667511" fill="#7DF8FB"/>
<path d="M22.2235 15.2675C21.2844 15.2175 21.8061 13.7925 21.3887 12.1675C20.8931 10.3675 21.6235 9.11751 22.5887 9.16751C23.042 9.23521 23.4716 9.40673 23.8409 9.66751C23.6732 8.88462 23.3737 8.13313 22.9539 7.44251C22.0931 6.06751 20.2148 4.06751 17.867 2.49251V17.5675C17.8677 18.2806 17.3519 18.8987 16.6258 19.0547C15.8996 19.2107 15.1578 18.8627 14.8409 18.2175C12.2655 19.7472 8.91326 19.2656 6.91909 17.0795C4.92492 14.8934 4.87496 11.6453 6.80102 9.4038C8.72708 7.16231 12.0631 6.58625 14.6844 8.04251V2.19251C14.6756 1.73683 14.8876 1.30295 15.2583 1.01751C12.2061 -0.332491 8.78873 -0.607491 5.86699 1.86751C0.962641 6.04251 -1.48953 11.8675 0.962641 17.6675C1.01481 17.7925 1.06699 17.9175 1.11916 18.0175C1.19086 17.8772 1.28802 17.7502 1.40612 17.6425C2.68438 16.3925 4.09308 18.9425 7.09308 20.4175C8.99742 21.3425 10.0931 22.5675 10.5105 23.7175C13.3018 24.0425 16.1713 23.6175 18.467 22.3425C21.467 20.6925 23.2148 17.6925 23.8409 14.6425C23.3903 15.019 22.8206 15.2392 22.2235 15.2675ZM11.9974 3.41751C12.7018 3.39251 13.3539 4.19251 13.38 4.56751C13.4061 4.94251 12.78 4.79251 12.1018 5.01751C11.3452 5.26751 10.7974 5.04251 10.7713 4.66751C10.7452 4.29251 11.267 3.44251 11.9974 3.41751Z" fill="#2C398F"/>
<path d="M10.4583 15.3675C11.9713 16.1925 13.7974 15.8675 14.1365 14.0175C14.3191 12.9425 14.2148 11.2675 13.2235 10.7425C9.93652 8.94252 7.1713 13.5675 10.4583 15.3675Z" fill="#2C398F"/>
</g>
<defs>
<clipPath id="clip0_5_18465">
<rect width="24" height="24" fill="white"/>
</clipPath>
</defs>
</svg>
