<svg width="24" height="24" viewBox="0 0 24 24" fill="none" xmlns="http://www.w3.org/2000/svg">
<g clip-path="url(#clip0_5_18461)">
<path d="M12 24C18.6274 24 24 18.6274 24 12C24 5.37258 18.6274 0 12 0C5.37258 0 0 5.37258 0 12C0 18.6274 5.37258 24 12 24Z" fill="#786DBC"/>
<path d="M11.9482 8.07824L10.7265 6.85349C10.562 6.69615 10.4667 6.4799 10.4617 6.25233C10.4566 6.02475 10.5422 5.80449 10.6995 5.63999C10.8568 5.47549 11.0731 5.38023 11.3007 5.37516C11.5282 5.3701 11.7485 5.45565 11.913 5.61299L11.9415 5.64149L14.6685 8.36849C15.0037 8.70374 15.0037 9.24599 14.6685 9.58124L11.9385 12.3082C11.7765 12.4628 11.5605 12.5478 11.3367 12.5452C11.1128 12.5426 10.8989 12.4525 10.7406 12.2942C10.5823 12.1359 10.4922 11.9219 10.4895 11.6981C10.4869 11.4742 10.572 11.2582 10.7265 11.0962L12.0067 9.81599C11.1442 9.66373 10.2557 9.78033 9.46163 10.15C8.66758 10.5197 8.00636 11.1245 7.5676 11.8826C7.12883 12.6406 6.93372 13.5152 7.00871 14.3879C7.0837 15.2606 7.42516 16.0891 7.98683 16.7612C8.5485 17.4333 9.30321 17.9164 10.1487 18.1452C10.9942 18.374 11.8895 18.3373 12.7135 18.0401C13.5374 17.7429 14.25 17.1996 14.7548 16.4838C15.2596 15.768 15.5322 14.9144 15.5355 14.0385V4.60649C15.5355 4.37913 15.6258 4.16109 15.7866 4.00032C15.9473 3.83955 16.1654 3.74924 16.3927 3.74924C16.6201 3.74924 16.8381 3.83955 16.9989 4.00032C17.1597 4.16109 17.25 4.37913 17.25 4.60649V14.1532C17.2261 15.3644 16.8361 16.5399 16.1314 17.5252C15.4267 18.5105 14.4402 19.2594 13.3018 19.6734C12.1634 20.0874 10.9263 20.1471 9.75327 19.8447C8.58026 19.5423 7.52626 18.8919 6.7299 17.9791C5.93355 17.0663 5.43215 15.9338 5.29166 14.7306C5.15116 13.5274 5.37815 12.3098 5.94277 11.2381C6.50739 10.1664 7.38319 9.29063 8.45497 8.72609C9.52675 8.16155 10.7443 7.93465 11.9475 8.07524L11.9482 8.07824Z" fill="white"/>
</g>
<defs>
<clipPath id="clip0_5_18461">
<rect width="24" height="24" fill="white"/>
</clipPath>
</defs>
</svg>
