<svg width="24" height="24" viewBox="0 0 24 24" fill="none" xmlns="http://www.w3.org/2000/svg">
<g clip-path="url(#clip0_5_18457)">
<path d="M0.229309 23.8471V18.2522H3.50065V5.50318H0.244596V0.137571H0.718481C5.12103 0.137571 9.493 0.152857 13.8956 0.122284C14.8739 0.122284 15.7299 0.382157 16.586 0.718462C18.3134 1.37579 19.8268 2.39999 21.0344 3.83693C22.1045 5.12101 22.8382 6.60381 23.2204 8.22419C23.8624 11.0369 23.8777 13.8802 23.0675 16.6624C21.9975 20.2853 19.7045 22.7771 15.8981 23.6178C15.2408 23.7707 14.5376 23.8624 13.8497 23.8624H0.764341C0.596188 23.8471 0.428035 23.8471 0.229309 23.8471ZM10.1656 18.2369C10.9147 18.2369 11.6331 18.2828 12.3516 18.2216C13.2841 18.1299 14.1249 17.8395 14.7516 17.0293C15.2866 16.3414 15.7605 15.6535 15.9898 14.8433C16.4943 13.0701 16.2956 11.2662 15.944 9.4777C15.7452 8.40763 15.2408 7.42929 14.5682 6.6191C14.1707 6.1605 13.6204 5.64075 13.0701 5.54904C12.1529 5.38088 11.1592 5.50318 10.1656 5.50318V18.2369Z" fill="#C2A633"/>
</g>
<defs>
<clipPath id="clip0_5_18457">
<rect width="24" height="24" fill="white"/>
</clipPath>
</defs>
</svg>
