<svg width="24" height="24" viewBox="0 0 24 24" fill="none" xmlns="http://www.w3.org/2000/svg">
<path fill-rule="evenodd" clip-rule="evenodd" d="M11.6823 0C16.6347 0.04375 20.3863 3.34935 21.1128 7.74288C21.9341 12.7103 18.5632 17.4461 13.6017 18.3016C12.932 18.4171 12.2475 18.4624 11.5676 18.5012C10.1894 18.5798 8.79546 19.5129 8.47201 21.343C8.3792 21.868 8.25513 22.3877 8.1432 22.9093C7.98055 23.667 7.33851 24.1171 6.62797 23.9734C5.89359 23.8249 5.46919 23.1676 5.62802 22.396C5.831 21.4097 6.04858 20.4263 6.25981 19.4417C6.99814 16.0003 7.73828 12.5592 8.47325 9.117C8.64244 8.32462 9.1103 7.89178 9.81307 7.90543C10.5918 7.92057 11.1903 8.63917 11.0296 9.40199C10.6447 11.2295 10.2432 13.0535 9.84921 14.879C9.77303 15.2321 9.70289 15.5865 9.62562 15.9394C9.59447 16.0815 9.6192 16.1529 9.78871 16.1338C10.8339 16.0159 11.8817 15.9182 12.925 15.7858C15.7026 15.4334 18.0289 13.2224 18.5312 10.476C19.2019 6.80855 16.8328 3.37668 13.1609 2.69696C9.49688 2.01861 5.89107 4.64132 5.40074 8.3359C5.2658 9.35271 5.35738 10.3447 5.67805 11.3173C5.92626 12.07 5.5844 12.8169 4.88929 13.0379C4.16293 13.2687 3.45932 12.8783 3.21622 12.1095C1.55529 6.85721 4.61606 1.48244 9.99399 0.238587C10.6457 0.0879004 11.3233 0.0489549 11.6823 0Z" fill="black"/>
<path fill-rule="evenodd" clip-rule="evenodd" d="M10.8011 22.4537C10.8039 21.5922 11.462 20.9365 12.3242 20.9362C13.1958 20.936 13.8714 21.6131 13.8592 22.4745C13.8472 23.3334 13.1812 23.994 12.3272 23.9944C11.4542 23.9948 10.7983 23.3327 10.8011 22.4537Z" fill="#E6027A"/>
</svg>
