<svg width="24" height="24" viewBox="0 0 24 24" fill="none" xmlns="http://www.w3.org/2000/svg">
<g clip-path="url(#clip0_5_18443)">
<path d="M12 24C18.6274 24 24 18.6274 24 12C24 5.37258 18.6274 0 12 0C5.37258 0 0 5.37258 0 12C0 18.6274 5.37258 24 12 24Z" fill="#242D3D"/>
<path d="M17.3505 13.1003C16.9372 11.28 15.6525 9.27301 15.6525 9.27301C17.133 13.3133 16.563 16.3605 16.1707 18.0893C16.1707 18.0893 15.6532 20.0228 16.767 18.4118C18.156 16.3958 17.3505 13.1003 17.3505 13.1003Z" fill="white"/>
<path d="M13.6935 5.93325C14.4637 8.67675 14.8125 11.0055 14.9212 12.9473C15.1125 16.2563 14.6077 18.4335 14.2942 19.5833C14.1937 19.9575 14.6122 20.2358 14.856 19.953L14.8605 19.9485C15.4695 19.2518 15.7575 17.6198 15.8925 16.1873L15.9315 15.717C16.0575 13.992 15.984 12.2513 15.579 10.5833C14.8342 7.50525 13.6935 5.93325 13.6935 5.93325ZM12.3135 10.7663C12.126 6.26025 11.7862 2.259 11.7862 2.259C11.7862 2.259 11.4427 6.06 11.2552 10.4655C11.2252 11.1803 11.1982 11.907 11.1765 12.6383C11.1465 13.701 11.133 14.7683 11.133 15.7995C11.1375 17.6325 11.208 19.3523 11.373 20.724C11.4382 21.2677 12.1432 21.2677 12.2085 20.724C12.3217 19.788 12.387 18.6383 12.4132 17.3753C12.4376 16.0098 12.4319 14.644 12.396 13.2788C12.3735 12.4425 12.348 11.598 12.3135 10.7663ZM7.04999 16.1955C6.94723 15.3463 6.92363 14.4893 6.97949 13.6358C7.02299 12.9653 7.11899 12.2468 7.28474 11.4803C7.43699 10.779 7.64549 10.0433 7.92899 9.2685C7.92899 9.2685 7.02299 10.6838 6.49199 12.2115C6.38699 12.504 6.30074 12.804 6.23474 13.0958C6.23474 13.0958 6.06524 13.8623 6.03974 14.8853C6.02174 15.5948 6.07799 16.4348 6.30449 17.2275C6.41897 17.6425 6.59061 18.0395 6.81449 18.4072C6.81449 18.4072 7.92899 20.0663 7.41074 18.0848C7.24951 17.4635 7.12876 16.8324 7.04924 16.1955H7.04999Z" fill="white"/>
<path d="M8.63849 15.3075C8.60214 14.4104 8.61666 13.512 8.68199 12.6165C8.72725 11.9554 8.79704 11.2962 8.89124 10.6403C9.08624 9.22951 9.40499 7.66651 9.88874 5.93326C9.88874 5.93326 8.74274 7.50526 7.99874 10.5833C7.95899 10.7483 7.92374 10.914 7.88924 11.0753C7.75424 11.7458 7.66724 12.4253 7.62374 13.113C7.57124 13.9755 7.58474 14.8455 7.64624 15.7125L7.68524 16.1873C7.82024 17.6198 8.10299 19.2518 8.71649 19.9485L8.72099 19.953C8.96474 20.232 9.38699 19.953 9.28349 19.5833C9.05624 18.7343 8.72099 17.3235 8.63849 15.3075Z" fill="white"/>
<path d="M10.5412 15.477C10.5167 14.4787 10.5122 13.48 10.5277 12.4815C10.5367 11.8245 10.554 11.1315 10.5847 10.4048C10.659 8.52825 11.0115 5.8155 11.2552 3.51675C11.2552 3.51675 10.0537 6.003 9.50475 10.488C9.43125 11.1015 9.3615 11.763 9.309 12.4778L9.27 13.0088C9.27 13.0088 9.20475 13.9575 9.23025 15.2378C9.2655 16.8833 9.44775 19.0778 10.1272 20.5148C10.1497 20.5583 10.1752 20.5973 10.2097 20.6273L10.2142 20.6325C10.4715 20.8763 10.8675 20.6453 10.833 20.2665C10.6732 18.6744 10.5756 17.0767 10.5405 15.477H10.5412ZM13.0312 15.477C13.0537 14.58 13.062 13.5795 13.0447 12.4815C13.0357 11.8245 13.0185 11.1315 12.9877 10.4048C12.9142 8.52825 12.5617 5.8155 12.3172 3.51675C12.3172 3.51675 13.5195 6.003 14.0677 10.488C14.142 11.1015 14.2117 11.763 14.2635 12.4778L14.3032 13.0088C14.3032 13.0088 14.3685 13.9575 14.3422 15.2378C14.307 16.8833 14.1247 19.0778 13.4452 20.5148C13.4253 20.5572 13.3973 20.5955 13.3627 20.6273L13.3582 20.6325C13.101 20.8763 12.7057 20.6453 12.7402 20.2665C12.8272 19.4438 12.975 17.811 13.0312 15.477Z" fill="white"/>
</g>
<defs>
<clipPath id="clip0_5_18443">
<rect width="24" height="24" fill="white"/>
</clipPath>
</defs>
</svg>
