<svg width="24" height="24" viewBox="0 0 24 24" fill="none" xmlns="http://www.w3.org/2000/svg">
<g clip-path="url(#clip0_5_18426)">
<path d="M0 0H23.8234V24H0V0Z" fill="#121747"/>
<path d="M14.0928 19.2356C14.0928 20.4375 13.1184 21.4119 11.9165 21.4119C10.7146 21.4119 9.74022 20.4375 9.74022 19.2356V4.77031C9.74022 3.56839 10.7146 2.59399 11.9165 2.59399C13.1184 2.59399 14.0928 3.56839 14.0928 4.77031" fill="white"/>
<path d="M21.4234 13.4967C21.4234 14.6986 20.449 15.673 19.247 15.673C18.0451 15.673 17.0707 14.6986 17.0707 13.4967V8.00737C17.0707 6.80545 18.0451 5.83105 19.247 5.83105C20.449 5.83105 21.4234 6.80545 21.4234 8.00737" fill="#52DEB8"/>
<path d="M6.7651 19.2422C6.78526 20.4403 5.83006 21.4271 4.63198 21.4463C3.4339 21.4665 2.44702 20.5113 2.42782 19.3132C2.42782 19.2892 2.42782 19.2652 2.42782 19.2422V15.9897C2.40766 14.7917 3.36286 13.8048 4.56094 13.7856C5.75902 13.7664 6.7459 14.7206 6.7651 15.9187C6.7651 15.9427 6.7651 15.9667 6.7651 15.9897" fill="white"/>
</g>
<defs>
<clipPath id="clip0_5_18426">
<rect width="23.8234" height="24" fill="white"/>
</clipPath>
</defs>
</svg>
