<svg width="24" height="24" viewBox="0 0 24 24" fill="none" xmlns="http://www.w3.org/2000/svg">
<g clip-path="url(#clip0_5_18408)">
<path fill-rule="evenodd" clip-rule="evenodd" d="M19.3375 7.88692C19.1622 8.02386 18.9385 8.17955 18.6799 8.34773L18.7022 8.36117L23.4224 16.2875V7.00192C23.4224 6.01048 23.1978 5.07092 22.796 4.23248C22.796 4.23248 20.3281 7.11198 19.3375 7.88692Z" fill="#560B74"/>
<path fill-rule="evenodd" clip-rule="evenodd" d="M5.89019 8.60012L12.0895 5.02081L12.5226 5.27137L18.2852 8.59831C18.4239 8.51244 18.5555 8.42919 18.6799 8.34775L12.0895 4.543L5.47675 8.36119V15.9896C5.61544 15.8643 5.75412 15.7435 5.89019 15.6271V8.60012Z" fill="#763C90"/>
<path fill-rule="evenodd" clip-rule="evenodd" d="M18.2852 8.59831L18.2888 8.60012V15.7578L12.0895 19.3371L5.89019 15.7578V15.6271C5.75412 15.7435 5.61544 15.8643 5.47675 15.9896V15.9967L12.0895 19.8149L18.7022 15.9967V8.36118L18.6799 8.34775C18.5555 8.42919 18.4239 8.51244 18.2852 8.59831Z" fill="#602278"/>
<path fill-rule="evenodd" clip-rule="evenodd" d="M14.9484 10.4819L17.7438 15.3166C17.7662 15.3552 17.7376 15.4034 17.6929 15.4034H6.50044C6.45569 15.4034 6.42794 15.3552 6.45031 15.3166L6.59619 15.0643L12.0394 5.62485C12.0617 5.58635 12.1172 5.58635 12.1396 5.62485L14.9484 10.4819ZM11.4389 5.66954L6.12637 14.8701C6.01094 15.0705 5.99931 15.2907 6.06375 15.4822C6.16037 15.7712 6.42969 15.9967 6.77694 15.9967H17.4021C17.8405 15.9967 18.1546 15.637 18.1546 15.2442C18.1546 15.1198 18.1224 14.9909 18.0526 14.8701L12.74 5.66954C12.6676 5.54429 12.5691 5.45035 12.4554 5.38767C12.1163 5.19979 11.6555 5.29373 11.4389 5.66954Z" fill="#743E89"/>
<path fill-rule="evenodd" clip-rule="evenodd" d="M23.4224 16.9981V16.2876L18.7022 8.36118V15.9967L12.0895 19.8149L5.47675 15.9967L9.83006 23.4219H16.9976C20.5456 23.4219 23.4224 20.546 23.4224 16.9981Z" fill="#753F8A"/>
<path fill-rule="evenodd" clip-rule="evenodd" d="M5.47675 15.9896V8.36119L12.0895 4.543L18.6799 8.34775C18.9385 8.17956 19.1622 8.02388 19.3375 7.88694C20.3281 7.112 22.796 4.2325 22.796 4.2325C21.7616 2.07063 19.5541 0.578064 16.9976 0.578064H7.00244C3.45444 0.578064 0.577625 3.454 0.577625 7.00194V16.9981C0.577625 18.1711 0.891688 19.2709 1.44113 20.2168C1.44113 20.2168 3.52781 17.7389 5.47675 15.9896Z" fill="#662083"/>
<path fill-rule="evenodd" clip-rule="evenodd" d="M18.0526 14.8701C18.1224 14.9909 18.1546 15.1198 18.1546 15.2442H18.2888V8.60011L18.2852 8.5983C17.4504 9.11555 16.3766 9.71505 15.3842 10.2492L18.0526 14.8701Z" fill="#50056E"/>
<path fill-rule="evenodd" clip-rule="evenodd" d="M23.4224 16.9981C23.4224 20.546 20.5456 23.4219 16.9976 23.4219H9.83006L10.1656 23.9938H17.2481C20.9732 23.9938 23.9942 20.9737 23.9942 17.2477L23.4224 16.2876V16.9981Z" fill="#7E4498"/>
<path fill-rule="evenodd" clip-rule="evenodd" d="M12.0394 5.62485L6.59619 15.0643C6.844 14.88 7.08119 14.7225 7.30219 14.598C8.60238 13.867 12.5369 11.7347 12.5369 11.7347C12.5369 11.7347 13.6206 11.1897 14.9484 10.4819L12.1396 5.62485C12.1172 5.58635 12.0617 5.58635 12.0394 5.62485Z" fill="#5E187B"/>
<path fill-rule="evenodd" clip-rule="evenodd" d="M12.4554 5.38768C12.5691 5.45036 12.6676 5.5443 12.74 5.66955L15.3842 10.2492C16.3766 9.71505 17.4504 9.11555 18.2852 8.5983L12.5226 5.27136L12.4554 5.38768Z" fill="#60187C"/>
<path fill-rule="evenodd" clip-rule="evenodd" d="M7.30219 14.5981C7.08119 14.7225 6.844 14.88 6.59619 15.0643L6.45031 15.3166C6.42794 15.3552 6.45569 15.4034 6.50044 15.4034H17.6929C17.7376 15.4034 17.7662 15.3552 17.7438 15.3166L14.9484 10.4819C13.6206 11.1897 12.5369 11.7347 12.5369 11.7347C12.5369 11.7347 8.60238 13.8671 7.30219 14.5981Z" fill="#4D026B"/>
<path fill-rule="evenodd" clip-rule="evenodd" d="M17.4021 15.9967H6.77694C6.42969 15.9967 6.16037 15.7712 6.06375 15.4822C6.0065 15.5296 5.94831 15.5779 5.89019 15.6271V15.7578L12.0895 19.3371L18.2888 15.7578V15.2442H18.1546C18.1546 15.637 17.8405 15.9967 17.4021 15.9967Z" fill="#4B0069"/>
<path fill-rule="evenodd" clip-rule="evenodd" d="M6.12637 14.8701L11.4389 5.66956C11.6555 5.29375 12.1163 5.19981 12.4554 5.38769L12.5226 5.27138L12.0895 5.02081L5.89019 8.60013V15.6271C5.94831 15.5779 6.0065 15.5296 6.06375 15.4822C5.99931 15.2907 6.01094 15.0706 6.12637 14.8701Z" fill="#5E167A"/>
<path fill-rule="evenodd" clip-rule="evenodd" d="M5.47675 15.9896C3.52781 17.7389 1.44112 20.2168 1.44112 20.2168C2.55337 22.1334 4.62756 23.4219 7.00244 23.4219H9.83006L5.47675 15.9967V15.9896Z" fill="#4B0069"/>
<path fill-rule="evenodd" clip-rule="evenodd" d="M17.2484 0.00650024H6.75212C3.02699 0.00650024 0.00605392 3.0265 0.00605392 6.75256V17.2479C0.00605392 20.9739 3.02699 23.994 6.75212 23.994H10.1659L9.8303 23.4222H7.00268C4.6278 23.4222 2.55362 22.1337 1.44137 20.217C0.891929 19.2711 0.577866 18.1714 0.577866 16.9983V7.00219C0.577866 3.45425 3.45468 0.578313 7.00268 0.578313H16.9978C19.5543 0.578313 21.7619 2.07088 22.7962 4.23275C23.1981 5.07119 23.4227 6.01075 23.4227 7.00219V16.2878L23.9944 17.2479V6.75256C23.9944 3.0265 20.9735 0.00650024 17.2484 0.00650024Z" fill="#500071"/>
</g>
<defs>
<clipPath id="clip0_5_18408">
<rect width="24" height="24" fill="white"/>
</clipPath>
</defs>
</svg>
