<svg width="24" height="24" viewBox="0 0 24 24" fill="none" xmlns="http://www.w3.org/2000/svg">
<path fill-rule="evenodd" clip-rule="evenodd" d="M12.5698 10.8019C12.5698 10.8019 12.8761 8.78019 15.3059 8.78019C17.6548 8.78019 18.042 10.8019 18.042 10.8019H12.5698ZM15.4075 6.57462C13.5047 6.57708 9.85325 7.84038 9.85325 11.7821C9.85325 16.377 13.2523 17.4271 15.1834 17.3769C18.3691 17.296 19.9216 15.6002 19.9216 15.6002L18.2062 14.049C18.2062 14.049 17.2872 15.0292 15.3879 15.0292C12.7327 15.0292 12.5281 12.8237 12.5281 12.8237H20.473C20.473 12.8237 21.289 6.56605 15.4075 6.57462Z" fill="white"/>
<mask id="mask0_5_18395" style="mask-type:alpha" maskUnits="userSpaceOnUse" x="12" y="8" width="7" height="3">
<path d="M15.3059 8.78018C12.8761 8.78018 12.5698 10.8019 12.5698 10.8019H18.042C18.042 10.8019 17.6548 8.78018 15.3059 8.78018Z" fill="white"/>
</mask>
<g mask="url(#mask0_5_18395)">
<path fill-rule="evenodd" clip-rule="evenodd" d="M15.3059 8.78018C12.8761 8.78018 12.5698 10.8019 12.5698 10.8019H18.042C18.042 10.8019 17.6548 8.78018 15.3059 8.78018Z" fill="url(#paint0_linear_5_18395)"/>
</g>
<mask id="mask1_5_18395" style="mask-type:alpha" maskUnits="userSpaceOnUse" x="0" y="2" width="24" height="19">
<path d="M20.473 12.8237H12.5281C12.5281 12.8237 12.7327 15.0292 15.3879 15.0292C17.2872 15.0292 18.2062 14.049 18.2062 14.049L19.9216 15.6002C19.9216 15.6002 18.3691 17.296 15.1834 17.3768C13.2523 17.4271 9.85325 16.377 9.85325 11.7821C9.85325 7.84037 13.5047 6.57707 15.4075 6.57461C21.289 6.56603 20.473 12.8237 20.473 12.8237ZM15.1834 2.92935C11.4118 2.92935 8.19668 5.31132 6.96034 8.65273H0.0508442L3.27708 11.3325H6.42489C6.41994 11.4525 6.4175 11.5738 6.4175 11.6952C6.4175 12.0015 6.43348 12.3041 6.46408 12.6031H3.25746L0.113347 15.2326H7.16127C8.52017 18.3118 11.6006 20.461 15.1834 20.461C20.0245 20.461 23.9491 16.5363 23.9491 11.6952C23.9491 6.85398 20.0245 2.92935 15.1834 2.92935Z" fill="white"/>
</mask>
<g mask="url(#mask1_5_18395)">
<path fill-rule="evenodd" clip-rule="evenodd" d="M20.473 12.8237H12.5281C12.5281 12.8237 12.7327 15.0292 15.3879 15.0292C17.2872 15.0292 18.2062 14.049 18.2062 14.049L19.9216 15.6002C19.9216 15.6002 18.3691 17.296 15.1834 17.3768C13.2523 17.4271 9.85325 16.377 9.85325 11.7821C9.85325 7.84037 13.5047 6.57707 15.4075 6.57461C21.289 6.56603 20.473 12.8237 20.473 12.8237ZM15.1834 2.92935C11.4118 2.92935 8.19668 5.31132 6.96034 8.65273H0.0508442L3.27708 11.3325H6.42489C6.41994 11.4525 6.4175 11.5738 6.4175 11.6952C6.4175 12.0015 6.43348 12.3041 6.46408 12.6031H3.25746L0.113347 15.2326H7.16127C8.52017 18.3118 11.6006 20.461 15.1834 20.461C20.0245 20.461 23.9491 16.5363 23.9491 11.6952C23.9491 6.85398 20.0245 2.92935 15.1834 2.92935Z" fill="url(#paint1_linear_5_18395)"/>
</g>
<defs>
<linearGradient id="paint0_linear_5_18395" x1="10.6081" y1="8.80371" x2="13.95" y2="14.5921" gradientUnits="userSpaceOnUse">
<stop stop-color="#5AC2F6"/>
<stop offset="1" stop-color="#1170AB"/>
</linearGradient>
<linearGradient id="paint1_linear_5_18395" x1="7.46201" y1="7.75515" x2="13.661" y2="18.4922" gradientUnits="userSpaceOnUse">
<stop stop-color="#5AC2F6"/>
<stop offset="1" stop-color="#1170AB"/>
</linearGradient>
</defs>
</svg>
