<svg width="24" height="24" viewBox="0 0 24 24" fill="none" xmlns="http://www.w3.org/2000/svg">
<g clip-path="url(#clip0_5_18391)">
<path d="M12 24C18.6274 24 24 18.6274 24 12C24 5.37258 18.6274 0 12 0C5.37258 0 0 5.37258 0 12C0 18.6274 5.37258 24 12 24Z" fill="#AA15DD"/>
<path d="M11.9993 19.209C12.1793 19.2098 12.3255 19.359 12.3263 19.542C12.3271 19.6294 12.2932 19.7136 12.232 19.776C12.1708 19.8384 12.0874 19.874 12 19.875C11.9567 19.8746 11.9138 19.8657 11.874 19.8488C11.8341 19.8318 11.7979 19.8072 11.7676 19.7762C11.7372 19.7453 11.7132 19.7087 11.697 19.6685C11.6808 19.6283 11.6726 19.5854 11.673 19.542C11.6726 19.4987 11.6808 19.4557 11.697 19.4155C11.7132 19.3753 11.7372 19.3387 11.7676 19.3078C11.7979 19.2769 11.8341 19.2522 11.874 19.2353C11.9138 19.2183 11.9567 19.2094 12 19.209H11.9993ZM5.41427 8.51852C5.33851 8.47321 5.28351 8.40001 5.26108 8.31463C5.23865 8.22924 5.25056 8.13847 5.29427 8.06177C5.32636 8.00472 5.37483 7.95861 5.43342 7.92941C5.492 7.90021 5.558 7.88927 5.62287 7.89799C5.68774 7.90672 5.7485 7.93471 5.79729 7.97835C5.84608 8.02199 5.88065 8.07927 5.89652 8.14277C5.91339 8.20649 5.91123 8.27376 5.8903 8.33627C5.86938 8.39878 5.8306 8.45379 5.77877 8.49452C5.72747 8.53471 5.66525 8.5585 5.60023 8.56278C5.5352 8.56707 5.47039 8.55164 5.41427 8.51852ZM5.41427 15.489C5.45157 15.4674 5.4928 15.4534 5.53556 15.4479C5.57831 15.4423 5.62174 15.4453 5.66333 15.4567C5.70492 15.4681 5.74383 15.4876 5.77781 15.5141C5.81179 15.5407 5.84016 15.5737 5.86127 15.6113C5.90467 15.6877 5.91641 15.778 5.89398 15.863C5.87155 15.948 5.81673 16.0207 5.74127 16.0658C5.70402 16.0876 5.66278 16.1017 5.61998 16.1074C5.57718 16.1131 5.53368 16.1101 5.49204 16.0987C5.4504 16.0873 5.41145 16.0677 5.37749 16.0411C5.34353 16.0144 5.31523 15.9813 5.29427 15.9435C5.25087 15.8671 5.23913 15.7767 5.26156 15.6918C5.28399 15.6068 5.33881 15.534 5.41427 15.489ZM18.5843 8.51852C18.547 8.54013 18.5057 8.55412 18.463 8.55967C18.4202 8.56523 18.3768 8.56223 18.3352 8.55085C18.2936 8.53948 18.2547 8.51996 18.2207 8.49342C18.1868 8.46688 18.1584 8.43386 18.1373 8.39627C18.1044 8.33893 18.0891 8.27324 18.0931 8.20728C18.0971 8.14133 18.1202 8.07797 18.1598 8.02502C18.1988 7.97252 18.2527 7.93299 18.3145 7.91158C18.3763 7.89018 18.4431 7.88789 18.5063 7.90502C18.5697 7.92295 18.6265 7.95915 18.6695 8.00911C18.7125 8.05907 18.7399 8.12057 18.7482 8.18597C18.7565 8.25137 18.7454 8.31777 18.7162 8.3769C18.6871 8.43603 18.6412 8.48528 18.5843 8.51852ZM12 4.79102C11.9134 4.78886 11.8311 4.75273 11.7709 4.69042C11.7107 4.62812 11.6775 4.54465 11.6783 4.45802C11.6783 4.32302 11.7593 4.20077 11.8815 4.14977C11.9418 4.12471 12.0082 4.11846 12.072 4.13185C12.1359 4.14523 12.1942 4.17763 12.2393 4.22477C12.2849 4.27231 12.3155 4.33215 12.3275 4.39692C12.3395 4.46169 12.3323 4.52855 12.3068 4.58927C12.2817 4.64974 12.2391 4.70129 12.1844 4.73726C12.1297 4.77323 12.0655 4.79195 12 4.79102ZM17.85 15.4365C17.7705 15.5768 17.7436 15.7408 17.7741 15.8992C17.8046 16.0575 17.8906 16.1998 18.0165 16.3005L12.6533 19.4505C12.6326 19.2918 12.5551 19.1458 12.4352 19.0398C12.3152 18.9338 12.1609 18.8748 12.0008 18.8738C11.8407 18.8748 11.6864 18.9338 11.5664 19.0398C11.4464 19.1458 11.3689 19.2918 11.3483 19.4505L5.98352 16.3005C6.10906 16.1997 6.1946 16.0574 6.22483 15.8993C6.25507 15.7411 6.22801 15.5773 6.14852 15.4373C6.07091 15.2979 5.94502 15.1918 5.79457 15.1389C5.64412 15.086 5.47951 15.0899 5.33177 15.15V8.85002C5.47933 8.90994 5.6437 8.9139 5.79397 8.86114C5.94424 8.80838 6.07006 8.70254 6.14777 8.56352C6.22731 8.4238 6.25461 8.26036 6.2248 8.10238C6.19499 7.9444 6.11 7.80215 5.98502 7.70102L11.3483 4.55102C11.3689 4.70979 11.4464 4.85569 11.5664 4.96173C11.6864 5.06777 11.8407 5.12675 12.0008 5.12777C12.161 5.12673 12.3154 5.06764 12.4354 4.96145C12.5554 4.85526 12.6328 4.70917 12.6533 4.55027L18.018 7.70027C17.8927 7.80109 17.8072 7.9432 17.777 8.1012C17.7468 8.2592 17.7737 8.4228 17.853 8.56277C17.9306 8.7021 18.0565 8.80822 18.207 8.86113C18.3574 8.91405 18.522 8.91009 18.6698 8.85002V15.1463C18.5214 15.0861 18.3561 15.0825 18.2052 15.136C18.0543 15.1894 17.9282 15.2964 17.8508 15.4365H17.85ZM13.266 14.4713C12.6833 14.8138 11.994 14.9273 11.3323 14.7894C10.6705 14.6516 10.0838 14.2725 9.68627 13.7258L13.2248 11.6528L14.4308 10.9448L15.0023 10.6073L15.0353 10.5915L17.4653 9.16202C17.6153 9.07427 17.6678 8.87927 17.5823 8.72627C17.5627 8.68955 17.5357 8.65723 17.5032 8.6313C17.4706 8.60537 17.4331 8.58638 17.3929 8.57549C17.3527 8.5646 17.3107 8.56205 17.2695 8.56799C17.2283 8.57393 17.1887 8.58823 17.1533 8.61002L15.3668 9.66377C15.027 9.15565 14.5809 8.72747 14.0593 8.4089C13.5376 8.09032 12.953 7.88896 12.3458 7.81877V5.77202C12.3462 5.72908 12.3381 5.68648 12.322 5.64665C12.306 5.60683 12.2822 5.57056 12.2521 5.53991C12.222 5.50927 12.1862 5.48485 12.1467 5.46805C12.1072 5.45126 12.0647 5.44241 12.0218 5.44202C11.9788 5.44231 11.9362 5.45109 11.8966 5.46784C11.857 5.48459 11.8211 5.509 11.7909 5.53965C11.7608 5.5703 11.7369 5.60661 11.7208 5.64648C11.7047 5.68635 11.6966 5.72901 11.697 5.77202V7.80002C11.0305 7.83267 10.3819 8.02673 9.80702 8.36552C9.28816 8.66964 8.83978 9.08044 8.49152 9.57077L6.85352 8.61002C6.81784 8.58912 6.77834 8.57556 6.73734 8.57014C6.69634 8.56472 6.65468 8.56754 6.61478 8.57843C6.57489 8.58933 6.53758 8.60809 6.50504 8.63361C6.47249 8.65912 6.44537 8.69088 6.42527 8.72702C6.38396 8.80019 6.37284 8.88659 6.39427 8.96783C6.4157 9.04908 6.468 9.11875 6.54002 9.16202L8.16527 10.1175C7.81762 10.8144 7.66473 11.5924 7.72277 12.369L7.87352 13.227C7.94102 13.4595 8.02577 13.686 8.12927 13.9043L6.54002 14.838C6.46752 14.8814 6.41496 14.9516 6.39364 15.0333C6.37232 15.1151 6.38395 15.202 6.42602 15.2753C6.44633 15.3114 6.47364 15.3431 6.50635 15.3686C6.53905 15.394 6.5765 15.4127 6.61651 15.4235C6.65652 15.4344 6.69828 15.4371 6.73936 15.4316C6.78044 15.4261 6.82002 15.4125 6.85577 15.3915L8.45102 14.457C8.81607 14.9901 9.29806 15.4328 9.86022 15.7512C10.4224 16.0697 11.0499 16.2555 11.6948 16.2945V18.228C11.6948 18.4103 11.8403 18.558 12.0195 18.558C12.0625 18.5576 12.1049 18.5488 12.1444 18.532C12.184 18.5152 12.2198 18.4908 12.2499 18.4601C12.28 18.4295 12.3037 18.3932 12.3198 18.3534C12.3359 18.3136 12.3439 18.271 12.3435 18.228V16.278C12.9271 16.218 13.4905 16.0312 13.9943 15.7305C14.5626 15.3928 15.0421 14.9243 15.393 14.364L17.1458 15.39C17.2958 15.4755 17.4848 15.4223 17.571 15.2708C17.6127 15.198 17.6244 15.112 17.6036 15.0308C17.5829 14.9496 17.5314 14.8796 17.46 14.8358L15.696 13.8008C15.7005 13.791 15.711 13.7798 15.711 13.7678C16.2465 12.5348 14.8133 12.0053 14.4945 12.9548C14.2816 13.5923 13.8449 14.131 13.2653 14.4713H13.266ZM18.585 15.489C18.6604 15.5343 18.7151 15.6072 18.7375 15.6923C18.7599 15.7773 18.7483 15.8677 18.705 15.9443C18.684 15.9819 18.6557 16.015 18.6217 16.0416C18.5877 16.0682 18.5487 16.0877 18.5071 16.099C18.4654 16.1104 18.422 16.1132 18.3792 16.1075C18.3364 16.1018 18.2952 16.0876 18.258 16.0658C18.1826 16.0207 18.1277 15.948 18.1053 15.863C18.0829 15.778 18.0946 15.6877 18.138 15.6113C18.159 15.5735 18.1873 15.5404 18.2212 15.5137C18.2552 15.4871 18.2941 15.4675 18.3358 15.4561C18.3774 15.4447 18.4209 15.4417 18.4637 15.4474C18.5065 15.453 18.5478 15.4672 18.585 15.489ZM9.21302 12.4403C9.18077 11.19 9.32927 10.3178 10.5135 9.62177C10.9917 9.34031 11.5447 9.21214 12.098 9.25452C12.6512 9.29689 13.1782 9.50777 13.608 9.85877L9.21302 12.4403Z" fill="white"/>
</g>
<defs>
<clipPath id="clip0_5_18391">
<rect width="24" height="24" fill="white"/>
</clipPath>
</defs>
</svg>
