<svg width="24" height="24" viewBox="0 0 24 24" fill="none" xmlns="http://www.w3.org/2000/svg">
<g clip-path="url(#clip0_5_18381)">
<path fill-rule="evenodd" clip-rule="evenodd" d="M24 12C24 18.6274 18.6274 24 12 24C5.37255 24 0 18.6274 0 12C0 5.37255 5.37255 0 12 0C18.6274 0 24 5.37255 24 12Z" fill="#EB8B2D"/>
<path fill-rule="evenodd" clip-rule="evenodd" d="M12 22.2542C6.34588 22.2542 1.74584 17.6541 1.74584 12C1.74584 6.34588 6.34588 1.74584 12 1.74584C17.6541 1.74584 22.2542 6.34588 22.2542 12C22.2542 17.6541 17.6541 22.2542 12 22.2542ZM12 1.08286C5.98031 1.08286 1.08286 5.98031 1.08286 12C1.08286 18.0197 5.98031 22.9171 12 22.9171C18.0197 22.9171 22.9172 18.0197 22.9172 12C22.9172 5.98031 18.0197 1.08286 12 1.08286Z" fill="#FFFFFE"/>
<path fill-rule="evenodd" clip-rule="evenodd" d="M17.6717 6.86088C17.8932 5.72141 17.1262 4.85456 15.8505 4.87319C13.8215 4.98921 12.4669 6.98917 11.435 9.72371L9.37995 9.26168L9.25683 9.80937L11.2411 10.2555C11.0876 10.6923 10.9413 11.1446 10.8009 11.6088C10.6478 12.132 10.5432 12.6389 10.3937 13.4735C9.65144 17.0954 8.66883 18.9735 7.38304 18.6506C6.91849 18.5219 7.00203 18.2459 7.31754 18.2282C7.31827 18.2261 7.31767 18.2238 7.31827 18.2218C7.64811 18.1779 7.94081 17.9537 8.05093 17.6163C8.20388 17.1475 7.94777 16.6435 7.47898 16.4906C7.01018 16.3376 6.50618 16.5937 6.35323 17.0625C6.34375 17.0916 6.3405 17.121 6.33407 17.1502C6.33255 17.1467 6.3295 17.1426 6.32824 17.1391C6.1068 18.2786 6.87381 19.1454 8.14945 19.1268C10.6218 18.9855 12.199 16.0129 13.1991 12.3912C13.3362 11.923 13.4346 11.4658 13.5608 10.7771L15.5958 11.2346L15.7189 10.687L13.6694 10.2261C14.404 6.80134 15.3672 5.03555 16.6169 5.34934C17.0815 5.4781 16.998 5.7541 16.6824 5.7718C16.6817 5.77385 16.6823 5.77617 16.6817 5.77823C16.3519 5.82205 16.0592 6.04621 15.9491 6.38366C15.7961 6.85246 16.0522 7.35653 16.521 7.50941C16.9898 7.66236 17.4938 7.40632 17.6468 6.93752C17.6562 6.90842 17.6595 6.87898 17.6659 6.84974C17.6674 6.85332 17.6705 6.85743 17.6717 6.86088Z" fill="#FFFFFE"/>
</g>
<defs>
<clipPath id="clip0_5_18381">
<rect width="24" height="24" fill="white"/>
</clipPath>
</defs>
</svg>
