<svg width="24" height="24" viewBox="0 0 24 24" fill="none" xmlns="http://www.w3.org/2000/svg">
<g clip-path="url(#clip0_5_18374)">
<path fill-rule="evenodd" clip-rule="evenodd" d="M24 12C24 18.6274 18.6274 24 12 24C5.37255 24 0 18.6274 0 12C0 5.37255 5.37255 0 12 0C18.6274 0 24 5.37255 24 12Z" fill="#127A51"/>
<path fill-rule="evenodd" clip-rule="evenodd" d="M6.83059 13.4554C6.83059 13.1785 7.05587 12.9532 7.33286 12.9532C7.60979 12.9532 7.83514 13.1785 7.83514 13.4554C7.83514 13.7324 7.60979 13.9577 7.33286 13.9577C7.05587 13.9577 6.83059 13.7324 6.83059 13.4554ZM3.41881 13.0418C3.41881 12.7648 3.64415 12.5395 3.92108 12.5395C4.19801 12.5395 4.42336 12.7648 4.42336 13.0418C4.42336 13.3188 4.19801 13.5441 3.92108 13.5441C3.64415 13.5441 3.41881 13.3188 3.41881 13.0418ZM4.52977 10.7663C4.53658 10.7602 4.5433 10.754 4.55002 10.7478L4.55127 10.7493C4.54436 10.7558 4.53697 10.7605 4.52977 10.7663ZM3.41881 10.0655C3.41881 9.78857 3.64415 9.56322 3.92108 9.56322C4.19801 9.56322 4.42336 9.78857 4.42336 10.0655C4.42336 10.3424 4.19801 10.5678 3.92108 10.5678C3.64415 10.5678 3.41881 10.3424 3.41881 10.0655ZM5.86124 8.69086C5.86124 8.41387 6.08659 8.18859 6.36351 8.18859C6.64044 8.18859 6.86579 8.41387 6.86579 8.69086C6.86579 8.96779 6.64044 9.19314 6.36351 9.19314C6.08659 9.19314 5.86124 8.96779 5.86124 8.69086ZM7.83805 6.37732C7.83805 6.10032 8.0634 5.87504 8.34033 5.87504C8.61726 5.87504 8.84261 6.10032 8.84261 6.37732C8.84261 6.65424 8.61726 6.87959 8.34033 6.87959C8.0634 6.87959 7.83805 6.65424 7.83805 6.37732ZM8.67945 7.23727C9.02214 7.10163 9.26559 6.76768 9.26559 6.37732C9.26559 5.86715 8.8505 5.45206 8.34033 5.45206C7.83017 5.45206 7.41507 5.86715 7.41507 6.37732C7.41507 6.85917 7.78548 7.2557 8.25646 7.29827V12.2175L6.57501 10.5087V9.59073C6.9834 9.49473 7.28877 9.12817 7.28877 8.69086C7.28877 8.1807 6.87368 7.7656 6.36351 7.7656C5.85335 7.7656 5.43825 8.1807 5.43825 8.69086C5.43825 9.12817 5.74362 9.49473 6.15202 9.59073V10.6819L6.75733 11.2971H5.43752C5.3528 11.2107 5.19368 11.0493 5.0341 10.891C4.8968 10.7548 4.78575 10.6472 4.704 10.5712C4.70208 10.5694 4.70009 10.5676 4.69817 10.5658C4.79151 10.4214 4.84634 10.2499 4.84634 10.0655C4.84634 9.55533 4.43125 9.14023 3.92108 9.14023C3.41092 9.14023 2.99582 9.55533 2.99582 10.0655C2.99582 10.5757 3.41092 10.9908 3.92108 10.9908C4.09372 10.9908 4.25489 10.9424 4.39333 10.8597C4.56027 11.0134 4.89739 11.3489 5.19719 11.6563L5.25951 11.72H7.17355L10.9264 15.534V16.7165L8.10577 13.9626C8.20177 13.8169 8.25805 13.6427 8.25805 13.4554C8.25805 12.9452 7.84303 12.5302 7.33286 12.5302C6.8227 12.5302 6.4076 12.9452 6.4076 13.4554C6.4076 13.9656 6.8227 14.3807 7.33286 14.3807C7.50265 14.3807 7.66144 14.3338 7.79841 14.2537L9.12941 15.5531H6.70588L4.68709 13.5601C4.78754 13.4121 4.84634 13.2337 4.84634 13.0418C4.84634 12.5317 4.43125 12.1166 3.92108 12.1166C3.41092 12.1166 2.99582 12.5317 2.99582 13.0418C2.99582 13.552 3.41092 13.967 3.92108 13.967C4.0863 13.967 4.24111 13.923 4.37549 13.8468L6.53231 15.9761H9.56261L10.9264 17.3077V18.2273L10.9032 18.2033L9.04435 20.0009L9.33839 20.3049L10.9264 18.7691V20.6023H11.3494V15.3608L8.67945 12.6474V7.23727Z" fill="#FFFFFE"/>
<path fill-rule="evenodd" clip-rule="evenodd" d="M9.40283 8.69086C9.40283 8.41387 9.62818 8.18859 9.90511 8.18859C10.1821 8.18859 10.4074 8.41387 10.4074 8.69086C10.4074 8.96779 10.1821 9.19314 9.90511 9.19314C9.62818 9.19314 9.40283 8.96779 9.40283 8.69086ZM10.7754 5.53553C10.7754 5.2586 11.0007 5.03325 11.2777 5.03325C11.5546 5.03325 11.7799 5.2586 11.7799 5.53553C11.7799 5.81252 11.5546 6.0378 11.2777 6.0378C11.0007 6.0378 10.7754 5.81252 10.7754 5.53553ZM12.697 8.02993C12.697 7.75301 12.9223 7.52772 13.1993 7.52772C13.4762 7.52772 13.7015 7.75301 13.7015 8.02993C13.7015 8.30693 13.4762 8.53221 13.1993 8.53221C12.9223 8.53221 12.697 8.30693 12.697 8.02993ZM14.1774 4.32293C14.1774 4.046 14.4027 3.82065 14.6796 3.82065C14.9566 3.82065 15.1819 4.046 15.1819 4.32293C15.1819 4.59992 14.9566 4.82521 14.6796 4.82521C14.4027 4.82521 14.1774 4.59992 14.1774 4.32293ZM14.336 12.4338C14.336 12.1569 14.5613 11.9315 14.8382 11.9315C15.1152 11.9315 15.3405 12.1569 15.3405 12.4338C15.3405 12.7107 15.1152 12.9361 14.8382 12.9361C14.5613 12.9361 14.336 12.7107 14.336 12.4338ZM15.0497 14.0684V13.3337C15.4582 13.2377 15.7635 12.8711 15.7635 12.4338C15.7635 11.9236 15.3484 11.5085 14.8382 11.5085C14.3281 11.5085 13.913 11.9236 13.913 12.4338C13.913 12.8711 14.2183 13.2377 14.6268 13.3337V13.8877L12.4068 16.01V14.6628L13.4108 13.66V11.5977L14.8911 10.1547V5.22286C15.2995 5.1268 15.6049 4.76023 15.6049 4.32293C15.6049 3.81276 15.1898 3.39774 14.6796 3.39774C14.1695 3.39774 13.7544 3.81276 13.7544 4.32293C13.7544 4.76023 14.0598 5.1268 14.4682 5.22286V9.97632L13.4108 11.0071V8.92987C13.8192 8.8338 14.1245 8.4673 14.1245 8.02993C14.1245 7.51977 13.7094 7.10474 13.1993 7.10474C12.6891 7.10474 12.274 7.51977 12.274 8.02993C12.274 8.4673 12.5794 8.8338 12.9878 8.92987V13.4846L12.4068 14.0649V11.1289L11.4891 10.2301V6.43546C11.8976 6.33939 12.2029 5.97283 12.2029 5.53553C12.2029 5.02536 11.7878 4.61033 11.2777 4.61033C10.7674 4.61033 10.3524 5.02536 10.3524 5.53553C10.3524 5.97283 10.6577 6.33939 11.0662 6.43546V10.4079L11.9839 11.3067V13.8306L10.1166 11.9501V9.59073C10.5251 9.49473 10.8304 9.12817 10.8304 8.69086C10.8304 8.1807 10.4153 7.7656 9.90511 7.7656C9.39494 7.7656 8.97991 8.1807 8.97991 8.69086C8.97991 9.12817 9.28522 9.49473 9.69361 9.59073V12.1244L11.9839 14.4308V20.6023H12.4068V16.5953L15.0497 14.0684Z" fill="#FFFFFE"/>
<path fill-rule="evenodd" clip-rule="evenodd" d="M17.5264 7.73669C17.5264 7.45976 17.7518 7.23442 18.0287 7.23442C18.3057 7.23442 18.531 7.45976 18.531 7.73669C18.531 8.01362 18.3057 8.23897 18.0287 8.23897C17.7518 8.23897 17.5264 8.01362 17.5264 7.73669ZM19.6077 12.6453C19.8847 12.6453 20.11 12.8706 20.11 13.1476C20.11 13.4245 19.8847 13.6498 19.6077 13.6498C19.3307 13.6498 19.1055 13.4245 19.1055 13.1476C19.1055 12.8706 19.3307 12.6453 19.6077 12.6453ZM15.9932 10.0655C15.9932 9.78856 16.2185 9.56321 16.4955 9.56321C16.7724 9.56321 16.9978 9.78856 16.9978 10.0655C16.9978 10.3424 16.7724 10.5678 16.4955 10.5678C16.2185 10.5678 15.9932 10.3424 15.9932 10.0655ZM19.5766 8.58511C19.5766 8.30812 19.802 8.08283 20.0789 8.08283C20.3558 8.08283 20.5812 8.30812 20.5812 8.58511C20.5812 8.86204 20.3558 9.08739 20.0789 9.08739C19.802 9.08739 19.5766 8.86204 19.5766 8.58511ZM18.2402 11.9934L20.2904 9.96677V9.48498C20.6988 9.38898 21.0042 9.02242 21.0042 8.58511C21.0042 8.07495 20.5891 7.65985 20.0789 7.65985C19.5688 7.65985 19.1537 8.07495 19.1537 8.58511C19.1537 9.02242 19.459 9.38898 19.8674 9.48498V9.79015L18.2402 11.3986V8.63656C18.6487 8.54056 18.954 8.174 18.954 7.73669C18.954 7.22653 18.5389 6.81143 18.0287 6.81143C17.5185 6.81143 17.1035 7.22653 17.1035 7.73669C17.1035 8.174 17.4088 8.54056 17.8172 8.63656V12.8482L16.7051 13.9562C16.7 12.8385 16.6964 11.4455 16.7018 10.9667C17.1129 10.8726 17.4207 10.5046 17.4207 10.0655C17.4207 9.55532 17.0057 9.14023 16.4955 9.14023C15.9853 9.14023 15.5702 9.55532 15.5702 10.0655C15.5702 10.5013 15.8734 10.8666 16.2797 10.9643C16.2714 11.6033 16.2795 13.4683 16.284 14.3447L16.3153 14.3446L13.0941 17.5538V20.6023H13.5171V18.8459L15.0638 20.3067L15.3542 19.9992L13.5171 18.2641V17.7294L15.1443 16.1083H17.2005L19.2784 14.0111C19.3809 14.0503 19.4916 14.0728 19.6077 14.0728C20.1179 14.0728 20.5329 13.6577 20.5329 13.1476C20.5329 12.6374 20.1179 12.2223 19.6077 12.2223C19.0976 12.2223 18.6825 12.6374 18.6825 13.1476C18.6825 13.3865 18.7743 13.6039 18.9235 13.7682L17.0242 15.6853H15.5688L18.2402 13.0239V11.9934Z" fill="#FFFFFE"/>
</g>
<defs>
<clipPath id="clip0_5_18374">
<rect width="24" height="24" fill="white"/>
</clipPath>
</defs>
</svg>
