<svg width="24" height="24" viewBox="0 0 24 24" fill="none" xmlns="http://www.w3.org/2000/svg">
<g clip-path="url(#clip0_5_18312)">
<path d="M12.512 6.16321L17.3984 9.11041L12.512 11.904L7.40485 9.11041L12.512 6.16321Z" fill="#EA259E"/>
<path d="M7.40485 9.21594L12.512 11.9999L12.4832 17.6831L7.40485 14.9951V9.21594Z" fill="#014C99"/>
<path d="M12.512 12L17.456 9.21594L17.6 14.9952L12.5792 17.7889L12.512 12Z" fill="#08B0F9"/>
<path d="M22.6689 5.80806L22.5921 5.76006L17.7153 2.96643L12.6081 0.0384004L12.5409 0L12.4833 0.0288003C12.3874 0.0630614 12.2943 0.10479 12.2049 0.153602L7.75044 2.75523L2.24001 5.98086C2.00961 6.08646 2.01921 6.32646 2.01921 6.47047V6.57607L2.00961 14.7553L2.00001 17.789C1.99041 17.9714 2.06721 18.1346 2.20161 18.1922L8.53765 21.7922L12.2817 23.9234C12.3585 23.9714 12.4449 24.0002 12.5217 24.0002C12.5874 24.0032 12.652 23.9828 12.7041 23.9426L18.1185 20.8226L22.7265 18.173C22.8993 18.0962 23.0049 17.9234 22.9761 17.7602L22.9953 6.26886C23.0241 6.00006 22.8033 5.87526 22.6689 5.80806ZM12.5025 6.53767L16.9665 9.12969L12.5121 11.6929L10.9953 10.8385L8.00005 9.13929L12.5025 6.53767ZM17.5713 8.77449L12.7329 5.96166C12.6692 5.9148 12.5926 5.88873 12.5136 5.88701C12.4346 5.88529 12.3569 5.90801 12.2913 5.95206L7.39524 8.79369L2.94082 6.26886L6.05124 4.45445L12.5121 0.681607L18.4545 4.08964L22.0833 6.17286L17.5713 8.77449ZM2.63362 6.79687L7.06884 9.31209L7.15524 14.8418C7.14564 15.0146 7.23204 15.1682 7.36644 15.2354L10.3137 16.925L12.2049 18.0098V23.1842L2.61442 17.7314L2.63362 6.79687ZM7.68324 9.6577L12.2145 12.2209L12.2049 17.309L7.76964 14.7649L7.68324 9.6577ZM12.8193 18.0194L14.7105 16.925L17.6289 15.2546L17.6577 15.2354C17.7153 15.2066 17.7825 15.1586 17.8305 15.0914L17.8593 15.053V15.005L17.8497 11.3377V9.32169L22.3809 6.70087V11.1649L22.3713 17.6738L16.2945 21.1682L12.8097 23.1746L12.8193 18.0194ZM12.8193 17.3186V12.2209L17.2833 9.6481V14.7553L12.8193 17.3186Z" fill="#2F2F2F"/>
<path d="M12.3776 1.27675C12.2432 1.29595 12.128 1.38235 12.0704 1.49755C12.0128 1.63195 12.0224 1.77595 12.0896 1.87195C12.1664 1.98715 12.2912 2.05435 12.4352 2.05435C12.461 2.05257 12.4866 2.04936 12.512 2.04475C12.6752 2.02555 12.8 1.91035 12.8288 1.76635C12.8488 1.70342 12.8513 1.63625 12.836 1.572C12.8208 1.50776 12.7885 1.44885 12.7424 1.40155C12.6974 1.3512 12.6402 1.31328 12.5763 1.29142C12.5124 1.26957 12.444 1.26451 12.3776 1.27675ZM12.6368 2.95675C12.4928 2.87995 12.3296 2.88955 12.2144 2.96635C12.1088 3.02395 12.0416 3.13915 12.0224 3.26395C12.0128 3.39835 12.0704 3.51355 12.1472 3.58075C12.1842 3.616 12.2279 3.6435 12.2758 3.66163C12.3236 3.67977 12.3745 3.68817 12.4256 3.68635C12.4852 3.68534 12.544 3.67228 12.5984 3.64795C12.752 3.59035 12.8384 3.44635 12.8384 3.30235C12.848 3.16795 12.7616 3.03355 12.6368 2.95675ZM12.6464 4.60795C12.512 4.52155 12.3488 4.52155 12.224 4.58875C12.1088 4.64635 12.032 4.76155 12.0224 4.89595C12.0128 5.03035 12.0704 5.17435 12.176 5.24155C12.248 5.29481 12.3361 5.3219 12.4256 5.31835C12.4852 5.31734 12.544 5.30428 12.5984 5.27995C12.6637 5.25385 12.7203 5.20991 12.7617 5.15315C12.8032 5.09638 12.8278 5.0291 12.8329 4.95898C12.8379 4.88887 12.823 4.81876 12.7901 4.75668C12.7571 4.6946 12.7073 4.64306 12.6464 4.60795ZM6.128 15.3696C5.984 15.408 5.8784 15.5232 5.8496 15.6672C5.8208 15.8208 5.8688 15.9648 5.9744 16.0512C6.04095 16.1087 6.12647 16.1395 6.2144 16.1376C6.24348 16.1377 6.27247 16.1345 6.3008 16.128C6.4256 16.0992 6.5312 16.0128 6.5696 15.9072C6.6368 15.7728 6.6176 15.6096 6.5024 15.4848C6.45816 15.431 6.39909 15.3914 6.33252 15.3709C6.26595 15.3504 6.19483 15.3499 6.128 15.3696ZM18.5312 16.1472C18.564 16.1455 18.5963 16.139 18.6272 16.128C18.752 16.0992 18.8576 16.0128 18.8864 15.9168C18.9536 15.7728 18.9248 15.6 18.8192 15.4752C18.7708 15.4214 18.7079 15.3828 18.638 15.3641C18.5682 15.3454 18.4944 15.3473 18.4256 15.3696C18.2912 15.408 18.1856 15.5232 18.1568 15.6672C18.128 15.8208 18.1856 15.9648 18.2912 16.0512C18.3488 16.1184 18.4352 16.1472 18.5312 16.1472ZM4.7264 16.1952C4.5824 16.2432 4.4864 16.3776 4.4768 16.5312C4.4576 16.6944 4.5344 16.848 4.6592 16.9152C4.71657 16.9519 4.78308 16.9719 4.8512 16.9728C4.90769 16.9715 4.9633 16.9584 5.0144 16.9344C5.1392 16.8768 5.2256 16.7616 5.2352 16.656C5.264 16.512 5.2064 16.3584 5.0912 16.2624C5.04307 16.2176 4.98319 16.1876 4.91858 16.1757C4.85397 16.1638 4.78731 16.1705 4.7264 16.1952ZM19.8944 16.9632C19.94 16.965 19.9855 16.9585 20.0288 16.944C20.1632 16.896 20.2592 16.7808 20.2688 16.6656C20.3072 16.5216 20.2688 16.3776 20.1536 16.272C20.1035 16.224 20.0408 16.1913 19.9728 16.1777C19.9048 16.1641 19.8343 16.1701 19.7696 16.1952C19.7048 16.2219 19.6479 16.2648 19.6043 16.3197C19.5606 16.3745 19.5317 16.4396 19.5201 16.5088C19.5086 16.5779 19.5149 16.6489 19.5384 16.7149C19.5619 16.781 19.6018 16.84 19.6544 16.8864C19.7235 16.9382 19.808 16.9653 19.8944 16.9632ZM3.6704 17.0496C3.5552 16.9824 3.4112 16.9824 3.3056 17.0496C3.1808 17.1168 3.104 17.2416 3.104 17.3952C3.104 17.5487 3.1808 17.6832 3.3056 17.7408C3.35779 17.7721 3.41752 17.7887 3.4784 17.7888C3.55283 17.7899 3.62607 17.7699 3.6896 17.7312C3.8144 17.6448 3.8816 17.5008 3.872 17.3759C3.872 17.2416 3.7952 17.1168 3.6704 17.04V17.0496ZM21.0368 17.7024C21.1004 17.7584 21.1824 17.7892 21.2672 17.7888C21.3166 17.7888 21.3656 17.779 21.4112 17.76C21.5456 17.7024 21.6416 17.568 21.6512 17.4528C21.68 17.2992 21.6128 17.1456 21.4784 17.0592C21.3536 16.9728 21.2 16.9728 21.0848 17.0496C21.0285 17.0841 20.9816 17.1319 20.9481 17.1888C20.9146 17.2457 20.8956 17.31 20.8928 17.3759C20.8832 17.5104 20.9408 17.6352 21.0368 17.7024Z" fill="#2F2F2F"/>
</g>
<defs>
<clipPath id="clip0_5_18312">
<rect width="24" height="24" fill="white"/>
</clipPath>
</defs>
</svg>
