<svg width="24" height="24" viewBox="0 0 24 24" fill="none" xmlns="http://www.w3.org/2000/svg">
<path d="M3.86834 21.1798C5.21563 21.1528 6.28597 20.0388 6.25902 18.6915C6.23207 17.3442 5.11803 16.2739 3.77074 16.3008C2.42345 16.3278 1.35311 17.4418 1.38006 18.7891C1.40701 20.1364 2.52105 21.2067 3.86834 21.1798Z" fill="black"/>
<path d="M1.6592 15.4613C2.5743 15.4613 3.31614 14.7195 3.31614 13.8044C3.31614 12.8893 2.5743 12.1475 1.6592 12.1475C0.744096 12.1475 0.0022583 12.8893 0.0022583 13.8044C0.0022583 14.7195 0.744096 15.4613 1.6592 15.4613Z" fill="black"/>
<path d="M5.67921 5.29593C6.37422 5.29593 6.93764 4.73251 6.93764 4.03749C6.93764 3.34247 6.37422 2.77905 5.67921 2.77905C4.98419 2.77905 4.42077 3.34247 4.42077 4.03749C4.42077 4.73251 4.98419 5.29593 5.67921 5.29593Z" fill="black"/>
<path d="M10.8388 2.91892C11.3678 2.91892 11.7966 2.49009 11.7966 1.96111C11.7966 1.43212 11.3678 1.0033 10.8388 1.0033C10.3098 1.0033 9.88099 1.43212 9.88099 1.96111C9.88099 2.49009 10.3098 2.91892 10.8388 2.91892Z" fill="black"/>
<path d="M16.2081 3.51312C16.6483 3.51312 17.0051 3.15629 17.0051 2.71611C17.0051 2.27593 16.6483 1.9191 16.2081 1.9191C15.7679 1.9191 15.4111 2.27593 15.4111 2.71611C15.4111 3.15629 15.7679 3.51312 16.2081 3.51312Z" fill="black"/>
<path d="M20.5427 6.75719C20.8709 6.75719 21.137 6.49113 21.137 6.16293C21.137 5.83472 20.8709 5.56866 20.5427 5.56866C20.2145 5.56866 19.9485 5.83472 19.9485 6.16293C19.9485 6.49113 20.2145 6.75719 20.5427 6.75719Z" fill="black"/>
<path d="M22.6121 12.6019C23.3767 12.6019 23.9964 11.9821 23.9964 11.2176C23.9964 10.4531 23.3767 9.83331 22.6121 9.83331C21.8476 9.83331 21.2279 10.4531 21.2279 11.2176C21.2279 11.9821 21.8476 12.6019 22.6121 12.6019Z" fill="black"/>
<path d="M21.8641 17.7894C22.5476 17.7894 23.1016 17.2354 23.1016 16.552C23.1016 15.8685 22.5476 15.3145 21.8641 15.3145C21.1807 15.3145 20.6267 15.8685 20.6267 16.552C20.6267 17.2354 21.1807 17.7894 21.8641 17.7894Z" fill="black"/>
<path d="M18.5712 21.7675C19.104 21.7675 19.536 21.3355 19.536 20.8027C19.536 20.2698 19.104 19.8379 18.5712 19.8379C18.0383 19.8379 17.6064 20.2698 17.6064 20.8027C17.6064 21.3355 18.0383 21.7675 18.5712 21.7675Z" fill="black"/>
<path d="M13.4256 23.3965C13.777 23.3965 14.0618 23.1116 14.0618 22.7603C14.0618 22.4089 13.777 22.1241 13.4256 22.1241C13.0742 22.1241 12.7894 22.4089 12.7894 22.7603C12.7894 23.1116 13.0742 23.3965 13.4256 23.3965Z" fill="black"/>
<path d="M8.30095 22.4526C8.5442 22.4526 8.7414 22.2554 8.7414 22.0122C8.7414 21.7689 8.5442 21.5717 8.30095 21.5717C8.05769 21.5717 7.8605 21.7689 7.8605 22.0122C7.8605 22.2554 8.05769 22.4526 8.30095 22.4526Z" fill="black"/>
<path d="M2.75408 10.7952C4.0495 10.7234 5.04148 9.61511 4.96973 8.31969C4.89799 7.02428 3.78968 6.0323 2.49427 6.10404C1.19885 6.17579 0.206873 7.28409 0.278617 8.5795C0.350362 9.87492 1.45866 10.8669 2.75408 10.7952Z" fill="black"/>
<path d="M7.9374 10.4486L9.88799 9.33701L9.88099 15.804L7.9374 16.9016V10.4486Z" fill="black"/>
<path d="M15.7117 10.4486L17.6623 9.33701L17.6553 15.804L15.7117 16.9016V10.4486Z" fill="black"/>
<path d="M11.8176 10.4486L13.7682 9.33701L13.7612 15.804L11.8176 16.9016V10.4486Z" fill="black"/>
<path d="M6.04975 9.29494L7.95838 8.16934L9.88798 9.33689L7.9374 10.4485L6.04975 9.29494Z" fill="black"/>
<path d="M9.92293 9.29494L11.8316 8.16934L13.7612 9.33689L11.8176 10.4485L9.92293 9.29494Z" fill="black"/>
<path d="M13.8241 9.30206L15.7327 8.17645L17.6623 9.34401L15.7117 10.4556L13.8241 9.30206Z" fill="black"/>
</svg>
