<svg width="24" height="24" viewBox="0 0 24 24" fill="none" xmlns="http://www.w3.org/2000/svg">
<g clip-path="url(#clip0_5_18213)">
<path fill-rule="evenodd" clip-rule="evenodd" d="M24 12C24 18.6274 18.6274 24 12 24C5.37255 24 0 18.6274 0 12C0 5.37255 5.37255 0 12 0C18.6274 0 24 5.37255 24 12Z" fill="#3A3A39"/>
<path fill-rule="evenodd" clip-rule="evenodd" d="M12 22.2542C6.34587 22.2542 1.74583 17.6541 1.74583 12C1.74583 6.34588 6.34587 1.74584 12 1.74584C17.6541 1.74584 22.2542 6.34588 22.2542 12C22.2542 17.6541 17.6541 22.2542 12 22.2542ZM12 1.08286C5.98031 1.08286 1.08285 5.98031 1.08285 12C1.08285 18.0197 5.98031 22.9172 12 22.9172C18.0197 22.9172 22.9171 18.0197 22.9171 12C22.9171 5.98031 18.0197 1.08286 12 1.08286Z" fill="#D8C276"/>
<path fill-rule="evenodd" clip-rule="evenodd" d="M6.85081 16.4958H17.1492V14.7412H6.85081V16.4958ZM6.85081 12.8773H17.1492V11.1227H6.85081V12.8773ZM6.85081 9.25876H17.1492V7.50424H6.85081V9.25876Z" fill="#D8C276"/>
</g>
<defs>
<clipPath id="clip0_5_18213">
<rect width="24" height="24" fill="white"/>
</clipPath>
</defs>
</svg>
