<svg width="24" height="24" viewBox="0 0 24 24" fill="none" xmlns="http://www.w3.org/2000/svg">
<path fill-rule="evenodd" clip-rule="evenodd" d="M22.3762 17.8876L22.2461 5.8876L11.9193 12L22.3762 17.8876Z" fill="#BBC3C6"/>
<path fill-rule="evenodd" clip-rule="evenodd" d="M11.9193 12L12.0486 24L22.3762 17.8876L11.9193 12Z" fill="#9DA5A7"/>
<path fill-rule="evenodd" clip-rule="evenodd" d="M22.2461 5.88761L11.7892 0L11.9193 12L22.2461 5.88761Z" fill="#7E878C"/>
<path fill-rule="evenodd" clip-rule="evenodd" d="M1.59166 18.1124L12.0486 24L11.9193 12L1.59166 18.1124Z" fill="#424647"/>
<path fill-rule="evenodd" clip-rule="evenodd" d="M1.46158 6.1124L1.59166 18.1124L11.9193 12L1.46158 6.1124Z" fill="#7F8382"/>
<path fill-rule="evenodd" clip-rule="evenodd" d="M11.7892 0L1.46158 6.11239L11.9193 12L11.7892 0Z" fill="#C3C9C9"/>
<mask id="mask0_5_18187" style="mask-type:alpha" maskUnits="userSpaceOnUse" x="10" y="8" width="7" height="8">
<path d="M16.5709 12C16.5709 13.1528 16.1518 14.2077 15.4568 15.0203C15.3934 15.0336 13.6041 15.386 12.2487 14.7997C11.2548 14.3691 10.769 13.3941 10.6059 12.9931C10.9064 13.3908 11.3824 13.6469 11.9193 13.6469C12.2931 13.6469 12.6381 13.5217 12.9148 13.3117C13.3199 13.1462 14.29 12.6604 14.719 11.6698C15.3052 10.3144 14.952 8.52506 14.9397 8.46332C15.9377 9.3156 16.5709 10.5837 16.5709 12Z" fill="white"/>
</mask>
<g mask="url(#mask0_5_18187)">
<path fill-rule="evenodd" clip-rule="evenodd" d="M16.5709 12C16.5709 13.1528 16.1518 14.2077 15.4568 15.0203C15.3934 15.0336 13.6041 15.386 12.2487 14.7997C11.2548 14.3691 10.769 13.3941 10.6059 12.9931C10.9064 13.3908 11.3824 13.6469 11.9193 13.6469C12.2931 13.6469 12.6381 13.5217 12.9148 13.3117C13.3199 13.1462 14.29 12.6604 14.719 11.6698C15.3052 10.3144 14.952 8.52506 14.9397 8.46332C15.9377 9.3156 16.5709 10.5837 16.5709 12Z" fill="url(#paint0_linear_5_18187)"/>
</g>
<mask id="mask1_5_18187" style="mask-type:alpha" maskUnits="userSpaceOnUse" x="8" y="10" width="8" height="7">
<path d="M15.4552 15.0212C14.6029 16.0192 13.3348 16.6516 11.9193 16.6516C10.7665 16.6516 9.71082 16.2325 8.89808 15.5367C8.88574 15.4749 8.53329 13.6856 9.1196 12.3302C9.54862 11.3371 10.5219 10.8521 10.9237 10.6883C10.5277 10.9888 10.2724 11.464 10.2724 12C10.2724 12.373 10.3967 12.7172 10.6059 12.9931C10.769 13.3941 11.2548 14.3691 12.2487 14.7997C13.6041 15.386 15.3934 15.0336 15.4552 15.0212Z" fill="white"/>
</mask>
<g mask="url(#mask1_5_18187)">
<path fill-rule="evenodd" clip-rule="evenodd" d="M15.4552 15.0212C14.6029 16.0192 13.3348 16.6516 11.9193 16.6516C10.7665 16.6516 9.71082 16.2325 8.89808 15.5367C8.88574 15.4749 8.53329 13.6856 9.1196 12.3302C9.54862 11.3371 10.5219 10.8521 10.9237 10.6883C10.5277 10.9888 10.2724 11.464 10.2724 12C10.2724 12.373 10.3967 12.7172 10.6059 12.9931C10.769 13.3941 11.2548 14.3691 12.2487 14.7997C13.6041 15.386 15.3934 15.0336 15.4552 15.0212Z" fill="url(#paint1_linear_5_18187)"/>
</g>
<mask id="mask2_5_18187" style="mask-type:alpha" maskUnits="userSpaceOnUse" x="8" y="7" width="8" height="7">
<path d="M14.9397 8.46332C14.952 8.52506 15.3052 10.3144 14.719 11.6698C14.29 12.6604 13.32 13.1462 12.9165 13.3109C13.3109 13.0095 13.5661 12.5352 13.5661 12C13.5661 11.6261 13.441 11.2811 13.231 11.0044C13.0655 10.5985 12.5797 9.62929 11.5891 9.20028C10.2337 8.61402 8.4444 8.96642 8.3826 8.97881C9.23573 7.98078 10.5038 7.34839 11.9193 7.34839C13.0721 7.34839 14.1261 7.76754 14.9388 8.46168C14.9388 8.46168 14.9388 8.46247 14.9397 8.46332Z" fill="white"/>
</mask>
<g mask="url(#mask2_5_18187)">
<path fill-rule="evenodd" clip-rule="evenodd" d="M14.9397 8.46332C14.952 8.52506 15.3052 10.3144 14.719 11.6698C14.29 12.6604 13.32 13.1462 12.9165 13.3109C13.3109 13.0095 13.5661 12.5352 13.5661 12C13.5661 11.6261 13.441 11.2811 13.231 11.0044C13.0655 10.5985 12.5797 9.62929 11.5891 9.20028C10.2337 8.61402 8.4444 8.96642 8.3826 8.97881C9.23573 7.98078 10.5038 7.34839 11.9193 7.34839C13.0721 7.34839 14.1261 7.76754 14.9388 8.46168C14.9388 8.46168 14.9388 8.46247 14.9397 8.46332Z" fill="url(#paint2_linear_5_18187)"/>
</g>
<path fill-rule="evenodd" clip-rule="evenodd" d="M13.231 11.0044C13.441 11.2811 13.5661 11.6261 13.5661 12C13.5661 12.5352 13.3109 13.0095 12.9165 13.3109C12.6381 13.5217 12.2931 13.6469 11.9193 13.6469C11.3824 13.6469 10.9064 13.3908 10.6059 12.9931C10.3967 12.7172 10.2724 12.373 10.2724 12C10.2724 11.4639 10.5277 10.9888 10.9237 10.6883C11.1996 10.4782 11.5446 10.3531 11.9193 10.3531C12.4537 10.3531 12.9289 10.6075 13.2302 11.0028C13.2302 11.0036 13.2302 11.0036 13.231 11.0044Z" fill="white"/>
<mask id="mask3_5_18187" style="mask-type:alpha" maskUnits="userSpaceOnUse" x="7" y="8" width="7" height="8">
<path d="M13.2302 11.0028C12.9288 10.6075 12.4537 10.3531 11.9193 10.3531C11.5446 10.3531 11.1996 10.4783 10.9237 10.6883C10.5219 10.8521 9.54862 11.3371 9.1196 12.3302C8.53329 13.6856 8.88574 15.4749 8.89808 15.5367C7.90011 14.6844 7.26682 13.4163 7.26682 12C7.26682 10.8464 7.68682 9.79155 8.38259 8.97881C8.44439 8.96642 10.2337 8.61403 11.5891 9.20028C12.5797 9.62929 13.0655 10.5985 13.2302 11.0028Z" fill="white"/>
</mask>
<g mask="url(#mask3_5_18187)">
<path fill-rule="evenodd" clip-rule="evenodd" d="M13.2302 11.0028C12.9288 10.6075 12.4537 10.3531 11.9193 10.3531C11.5446 10.3531 11.1996 10.4783 10.9237 10.6883C10.5219 10.8521 9.54862 11.3371 9.1196 12.3302C8.53329 13.6856 8.88574 15.4749 8.89808 15.5367C7.90011 14.6844 7.26682 13.4163 7.26682 12C7.26682 10.8464 7.68682 9.79155 8.38259 8.97881C8.44439 8.96642 10.2337 8.61403 11.5891 9.20028C12.5797 9.62929 13.0655 10.5985 13.2302 11.0028Z" fill="url(#paint3_linear_5_18187)"/>
</g>
<defs>
<linearGradient id="paint0_linear_5_18187" x1="13.5884" y1="8.46331" x2="13.5884" y2="15.1373" gradientUnits="userSpaceOnUse">
<stop stop-color="#F0CE7B"/>
<stop offset="1" stop-color="#FDFDF4"/>
</linearGradient>
<linearGradient id="paint1_linear_5_18187" x1="12.1185" y1="16.6516" x2="12.1185" y2="10.6882" gradientUnits="userSpaceOnUse">
<stop stop-color="#CE4A28"/>
<stop offset="1" stop-color="#FDFDF4"/>
</linearGradient>
<linearGradient id="paint2_linear_5_18187" x1="11.7195" y1="7.34838" x2="11.7195" y2="13.3109" gradientUnits="userSpaceOnUse">
<stop stop-color="#F0CE7B"/>
<stop offset="1" stop-color="#FDFDF4"/>
</linearGradient>
<linearGradient id="paint3_linear_5_18187" x1="8.36843" y1="14.9567" x2="11.6206" y2="9.32377" gradientUnits="userSpaceOnUse">
<stop stop-color="#F0CE7B"/>
<stop offset="1" stop-color="#FDFDF4"/>
</linearGradient>
</defs>
</svg>
