<svg width="24" height="24" viewBox="0 0 24 24" fill="none" xmlns="http://www.w3.org/2000/svg">
<g clip-path="url(#clip0_5_18176)">
<path d="M12.0024 23.9689C18.6087 23.9689 23.9643 18.6134 23.9643 12.007C23.9643 5.40065 18.6087 0.0451355 12.0024 0.0451355C5.39601 0.0451355 0.0404968 5.40065 0.0404968 12.007C0.0404968 18.6134 5.39601 23.9689 12.0024 23.9689Z" fill="url(#paint0_linear_5_18176)"/>
<path d="M18.669 2.4333C19.5126 2.80692 19.585 4.1387 19.0908 4.91004C18.452 5.90436 16.2043 5.6151 16.5418 3.64456C16.4514 3.61442 16.4634 3.57827 16.3489 3.68071C13.2997 9.14039 13.378 15.2871 10.7988 19.5777C10.2625 20.3189 9.79248 20.6684 9.11756 21.0541C8.44263 21.4397 7.95451 21.6868 6.85173 21.741C5.74895 21.7893 5.30904 21.3132 5.30904 21.3132C4.04958 20.4997 4.77874 19.0353 5.4838 18.74C6.18885 18.4447 6.64684 18.5653 7.02046 18.734C7.40011 18.9027 7.82194 19.5716 7.82194 19.5716C8.26184 18.4447 8.44865 17.8301 8.92472 16.0042C10.8531 8.04966 11.7208 1.10153 18.669 2.4333Z" fill="white"/>
<path d="M8.27991 10.424H15.0232C15.5595 10.424 15.9994 10.8578 15.9994 11.4002C15.9994 11.9365 15.5655 12.3764 15.0232 12.3764H8.27991C7.74359 12.3764 7.30368 11.9425 7.30368 11.4002C7.30971 10.8639 7.74359 10.424 8.27991 10.424Z" fill="white"/>
<path d="M9.14768 7.24216H15.8909C16.4273 7.24216 16.8672 7.67604 16.8672 8.21839C16.8672 8.75472 16.4333 9.19462 15.8909 9.19462H9.14768C8.61136 9.19462 8.17145 8.76074 8.17145 8.21839C8.17747 7.68206 8.61136 7.24216 9.14768 7.24216Z" fill="white"/>
</g>
<defs>
<linearGradient id="paint0_linear_5_18176" x1="1.87805" y1="0.892095" x2="30.0026" y2="31.7537" gradientUnits="userSpaceOnUse">
<stop stop-color="#E3D531"/>
<stop offset="1" stop-color="#C4A600"/>
</linearGradient>
<clipPath id="clip0_5_18176">
<rect width="24" height="24" fill="white"/>
</clipPath>
</defs>
</svg>
