<svg width="24" height="24" viewBox="0 0 24 24" fill="none" xmlns="http://www.w3.org/2000/svg">
<g clip-path="url(#clip0_5_18162)">
<path d="M20.4627 3.75549C21.0821 4.03191 21.5268 4.86678 21.4667 5.48731C21.3885 6.2934 20.982 6.94284 20.5194 7.56337C19.2609 9.25137 17.6294 10.5354 15.9233 11.7291C14.2001 12.935 12.3683 13.9616 10.4499 14.8177C9.38959 15.2907 8.29061 15.6867 7.18613 16.047C6.30788 16.3325 5.41136 16.5585 4.50267 16.7233C3.69359 16.8707 2.85992 16.9371 2.04034 16.7537C1.55652 16.6455 1.07437 16.4858 0.784817 16.0434C0.638787 15.8204 0.554966 15.5532 0.465414 15.2982C0.403086 15.121 0.378966 14.9304 0.32428 14.6858C0.61419 14.955 0.800459 15.2083 1.05061 15.3402C1.37216 15.5099 1.74315 15.6711 2.09598 15.6784C2.8875 15.6945 3.70028 15.707 4.46947 15.5498C5.62326 15.3142 6.77395 15.0049 7.87831 14.5975C10.9565 13.4616 13.815 11.8996 16.4328 9.91645C17.6122 9.02284 18.7172 8.04158 19.6357 6.86917C20.0586 6.32934 20.4386 5.75191 20.6011 5.08779C20.6817 4.758 20.5628 4.37866 20.5294 4.02212C20.5223 3.94702 20.493 3.87382 20.4625 3.75549" fill="#3C7CA8"/>
<path d="M18.5177 2.14319C19.3264 2.42832 20.0634 3.19477 19.8209 4.0774C19.4985 5.25113 18.7612 6.13507 17.9503 6.96993C16.3697 8.59764 14.5221 9.87967 12.5767 11.0299C11.2056 11.8404 9.78195 12.5487 8.30721 13.1434C7.45467 13.4873 6.56153 13.7299 5.68906 14.0246C4.75449 14.3401 3.78685 14.4877 2.81001 14.5566C2.1675 14.6018 1.52822 14.5408 0.922011 14.2688C0.343504 14.0092 0.0668471 13.5635 0.0344889 12.949C0.0220243 12.7199 0.0340325 12.49 0.0703098 12.2634C0.274847 12.7581 0.630071 13.0836 1.10541 13.2567C1.81109 13.5138 2.54016 13.6308 3.29347 13.5077C3.70326 13.4406 4.11771 13.3962 4.52273 13.3078C5.00117 13.2034 5.48177 13.0912 5.94303 12.9302C6.62482 12.6918 7.29443 12.4164 7.96261 12.1406C9.69514 11.4251 11.3189 10.5043 12.8854 9.48146C14.4427 8.4645 15.9258 7.35095 17.219 6.00516C17.8439 5.35465 18.4431 4.67799 18.7615 3.81113C18.9568 3.27931 19.0228 2.7537 18.5811 2.29292C18.5545 2.26498 18.5326 2.23214 18.5107 2.20014C18.5066 2.19417 18.5126 2.18128 18.5177 2.14319Z" fill="#D87E3A"/>
<path d="M1.30185 17.2394C1.38029 17.2764 1.43844 17.2893 1.47677 17.3241C1.87438 17.6833 2.35558 17.7856 2.872 17.8756C3.54901 17.9937 4.20704 17.8768 4.8677 17.8336C5.3711 17.8005 5.86901 17.6437 6.36274 17.5165C6.94901 17.3659 7.53623 17.2117 8.10853 17.0162C8.90209 16.7452 9.6954 16.4654 10.4651 16.1346C12.3035 15.3448 14.0824 14.4307 15.7368 13.3035C16.8521 12.544 17.9124 11.7027 18.9885 10.8868C19.3282 10.6293 19.5704 10.5798 19.7701 10.7888C20.0228 11.053 20.0343 11.4638 19.7466 11.723C19.2839 12.1399 18.8061 12.5428 18.3112 12.9208C16.1897 14.5411 13.893 15.871 11.4658 16.9734C10.0727 17.6061 8.64346 18.1606 7.15486 18.5181C6.23188 18.7397 5.28346 18.8756 4.33874 18.9798C3.66531 19.0542 2.99068 18.9424 2.35486 18.6718C1.7994 18.4353 1.53934 17.9485 1.30471 17.4407C1.28298 17.3939 1.30185 17.3281 1.30185 17.2394Z" fill="#EAB600"/>
<path d="M1.08892 7.31989C1.09572 7.41948 1.12856 7.52575 1.10468 7.61721C0.986349 8.0713 1.2002 8.50437 1.64462 8.63595C2.28486 8.82521 2.93524 8.82605 3.58444 8.68312C4.13119 8.56276 4.68701 8.46616 5.21739 8.29303C6.01739 8.03225 6.81907 7.75858 7.58384 7.41064C9.1805 6.68467 10.6888 5.79918 12.0669 4.70581C12.9952 3.96957 13.8757 3.18867 14.4637 2.13195C14.6618 1.77542 14.7208 1.40157 14.6508 1.01506C14.6258 0.877387 14.4968 0.749148 14.3923 0.638104C14.3096 0.550104 14.1917 0.495178 14.0155 0.375178C14.1693 0.341745 14.2557 0.293029 14.32 0.313686C14.6739 0.42676 15.0435 0.51691 15.3671 0.690641C15.8018 0.923477 15.9363 1.46903 15.7825 1.94342C15.432 3.02521 14.6693 3.80395 13.8708 4.547C12.4558 5.86366 10.8558 6.92539 9.13393 7.79022C8.0993 8.30963 7.03268 8.77291 5.95411 9.19416C5.33083 9.43751 4.66074 9.57291 4.00187 9.70986C3.4519 9.82401 2.88832 9.92001 2.32951 9.92778C1.94742 9.93303 1.54611 9.81625 1.18432 9.67488C0.700259 9.48563 0.461812 8.95894 0.593035 8.38437C0.677812 8.01339 0.859065 7.66437 0.996976 7.30533L1.08892 7.31989Z" fill="#3C7CA8"/>
<path d="M16.4463 0.937103C16.8157 1.1346 17.2303 1.278 17.5441 1.54164C18.0518 1.96815 18.0647 2.45985 17.8122 3.11931C17.3852 4.23466 16.5861 5.08528 15.7298 5.87824C14.0653 7.41949 12.1935 8.6706 10.1796 9.70307C9.1897 10.2105 8.17 10.6633 7.14791 11.1038C6.57573 11.3505 5.97179 11.524 5.3792 11.7219C5.31173 11.7446 5.2149 11.7344 5.15054 11.7018C4.90863 11.5796 4.83412 11.3648 4.84355 11.104C4.85275 10.8441 4.97645 10.6455 5.21132 10.5765C6.82314 10.1022 8.35388 9.43764 9.83305 8.64743C11.7258 7.63609 13.505 6.462 15.0596 4.97137C15.733 4.3254 16.344 3.63095 16.7255 2.75824C17.0387 2.04146 17.0044 1.7531 16.4637 1.17651C16.425 1.13531 16.4064 1.07525 16.3788 1.02403L16.4463 0.937103Z" fill="#EAB600"/>
<path d="M6.40451 22.5473C6.50553 22.5415 6.59102 22.52 6.66959 22.535C7.01634 22.6011 7.3595 22.6872 7.70732 22.7461C7.86231 22.7723 8.02744 22.7684 8.18445 22.7489C8.75401 22.6785 9.32834 22.6267 9.88834 22.5089C10.4323 22.3945 10.9665 22.2236 11.4955 22.0486C12.2083 21.8129 12.9372 21.6033 13.6138 21.286C14.8705 20.6962 16.1222 20.0853 17.3253 19.3951C19.1858 18.3277 20.9148 17.0722 22.3636 15.4684C22.8838 14.8928 23.3145 14.2551 23.6129 13.535C23.6785 13.3767 23.7221 13.2095 23.8111 13.0579C23.8978 14.209 23.4339 15.1501 22.7197 15.9921C21.3406 17.6183 19.6565 18.8817 17.8319 19.9453C16.5626 20.6853 15.2381 21.3409 13.899 21.9475C13.0453 22.3341 12.122 22.5691 11.2258 22.8591C10.3546 23.1413 9.45263 23.2747 8.54183 23.2958C7.78672 23.3133 7.10207 23.0224 6.45037 22.6612C6.4315 22.6507 6.42911 22.6109 6.40451 22.5473ZM23.2848 8.16576C23.437 8.74845 23.7158 9.29925 23.5194 9.94964C23.1193 11.2735 22.2254 12.2495 21.275 13.1783C19.3884 15.0216 17.2061 16.4577 14.9003 17.7159C14.7126 17.8185 14.5116 17.913 14.3053 17.961C14.0507 18.02 13.8055 17.9339 13.7212 17.6698C13.6352 17.4012 13.7251 17.1606 13.9942 17.0152C14.2865 16.8572 14.5791 16.7 14.8672 16.5347C17.2408 15.1747 19.5 13.6595 21.3897 11.6552C22.0345 10.9714 22.6328 10.2439 22.9596 9.34355C23.0587 9.07084 23.0939 8.77448 23.1514 8.48731C23.1717 8.38546 23.1705 8.27955 23.1792 8.17543L23.2849 8.16588L23.2848 8.16576ZM9.75078 2.12003C9.80869 2.00302 9.85944 1.90582 9.90517 1.80648C10.0038 1.59275 10.1347 1.38582 10.1879 1.16146C10.2505 0.897583 10.1084 0.77006 9.82469 0.732687C8.94207 0.61615 8.13036 0.883612 7.36666 1.24516C6.5798 1.6177 5.82398 2.0626 5.08965 2.52839C4.54159 2.87609 4.03962 3.29484 3.75019 3.90343C3.55413 4.31585 3.69968 4.5709 4.17072 4.60505C5.03042 4.66749 5.80869 4.37842 6.57634 4.06451C6.97717 3.90057 7.35675 3.68696 7.74386 3.49197C7.98625 3.37018 8.13347 3.45113 8.35019 3.74487C8.5361 3.99681 8.32404 4.08779 8.18505 4.15346C7.43845 4.50589 6.68582 4.84541 5.9275 5.17185C5.27759 5.45197 4.58481 5.58594 3.88057 5.62797C3.64941 5.64182 3.3958 5.57137 3.17896 5.47955C2.80678 5.32182 2.70708 4.902 2.90338 4.48528C3.19234 3.87155 3.68237 3.42081 4.19257 2.99239C5.26242 2.09352 6.43568 1.36087 7.78004 0.910359C8.21944 0.763254 8.6438 0.551553 9.09419 0.463553C9.62648 0.359672 10.1933 0.262717 10.7205 0.334956C11.4217 0.430956 11.5886 0.908568 11.2116 1.64027C11.1394 1.78021 11.0358 1.90654 10.9349 2.03012C10.7157 2.29842 10.4818 2.35275 10.1504 2.23191C10.0471 2.19454 9.93813 2.17197 9.7509 2.12003" fill="#3C7CA8"/>
<path d="M23.3154 15.7247C23.2683 15.8997 23.2385 16.0815 23.1713 16.2484C22.7184 17.3733 21.9257 18.2406 21.0309 19.0245C19.2102 20.6197 17.1455 21.8173 14.9097 22.7231C14.1651 23.0249 13.4088 23.3137 12.6347 23.5222C11.9712 23.7009 11.2771 23.8155 10.5915 23.8478C10.0434 23.8736 9.4875 23.7332 8.9349 23.6663C8.93442 23.6288 8.93371 23.5915 8.93335 23.554C8.98816 23.5323 9.04201 23.4952 9.09789 23.4917C9.25715 23.4813 9.41686 23.4793 9.57633 23.4858C10.4064 23.5235 11.2026 23.3578 12.0018 23.1468C14.3889 22.5167 16.5626 21.4253 18.6321 20.1131C19.9191 19.2969 21.1312 18.3722 22.1513 17.2314C22.5416 16.7948 22.8336 16.2702 23.171 15.7862C23.1919 15.7563 23.2174 15.7298 23.2407 15.7018C23.2656 15.7094 23.2906 15.7173 23.3154 15.7247Z" fill="#EAB600"/>
<path d="M11.2688 0.0853882C11.8074 0.123955 12.3756 0.067836 12.8775 0.224373C13.5709 0.440851 13.777 0.953925 13.3728 1.75476C12.919 2.65387 12.1827 3.30879 11.4325 3.94342C11.049 4.26796 10.6338 4.55799 10.2136 4.83416C10.0858 4.91834 9.85922 4.97542 9.73886 4.91775C9.57456 4.83894 9.42722 4.65506 9.35797 4.48216C9.32943 4.41124 9.50686 4.23106 9.61982 4.1347C10.2759 3.57542 10.9679 3.0547 11.5907 2.46115C11.8954 2.17088 12.1137 1.76969 12.3053 1.38593C12.5407 0.914284 12.3809 0.41912 11.826 0.36109C11.6362 0.341149 11.4544 0.243358 11.2689 0.181269V0.0853882H11.2688ZM4.35785 21.1974C4.73194 21.2899 5.08334 21.3666 5.42865 21.4646C5.9797 21.6211 6.52632 21.587 7.08059 21.481C7.45791 21.4089 7.84525 21.3887 8.22328 21.3188C8.608 21.2478 8.99259 21.1636 9.36716 21.0508C9.93635 20.8795 10.4975 20.6812 11.0607 20.4896C11.3473 20.3929 11.6316 20.2897 11.9134 20.18C12.1839 20.0739 12.5327 20.1644 12.6786 20.4048C12.8218 20.6414 12.6645 20.8049 12.4867 20.8916C12.1691 21.0468 11.8343 21.1722 11.4968 21.2794C10.747 21.5182 9.99809 21.7666 9.2357 21.9582C8.22961 22.2114 7.19892 22.316 6.16334 22.2223C5.50089 22.1626 4.96597 21.788 4.46531 21.3754C4.41576 21.3346 4.39426 21.2596 4.35785 21.1975V21.1974ZM23.769 10.6486C23.8099 10.8055 23.8692 10.9603 23.8888 11.1197C24.0006 12.0275 23.6663 12.802 23.1525 13.52C22.1626 14.9034 20.8799 15.9823 19.5355 16.9967C19.3748 17.1179 19.2035 17.1903 19.0332 17.0024C18.8833 16.8368 18.8775 16.4723 19.0669 16.294C19.3386 16.0385 19.6405 15.8146 19.9312 15.5792C21.1658 14.58 22.3503 13.5318 23.1858 12.1544C23.4309 11.7502 23.6592 11.3353 23.6419 10.836C23.64 10.776 23.6782 10.7148 23.6978 10.6541L23.769 10.6486ZM2.51331 4.87285C2.39462 5.18449 2.26483 5.47607 2.17301 5.77912C2.07618 6.09996 2.26209 6.38748 2.57683 6.49936C3.24943 6.73888 3.912 6.57888 4.57206 6.45375C4.88 6.39548 5.17313 6.25721 5.48143 6.20348C5.57241 6.1876 5.75868 6.31751 5.78698 6.41399C5.90877 6.82951 5.68871 7.18055 5.24453 7.30843C4.41707 7.54676 3.57755 7.72646 2.71032 7.66927C2.47224 7.65351 2.22197 7.59046 2.00824 7.4861C1.53456 7.25518 1.32883 6.77207 1.56453 6.26521C1.78949 5.78127 2.13409 5.35297 2.42877 4.90187C2.43976 4.88515 2.47618 4.88491 2.51331 4.87285Z" fill="#D87E3A"/>
<path d="M2.57907 19.3206C2.81155 19.4436 3.03041 19.5899 3.27077 19.6785C3.53334 19.7754 3.81322 19.8613 4.08964 19.8767C4.63614 19.9069 5.18552 19.8883 5.73358 19.8826C5.84032 19.8814 5.95304 19.8644 6.05226 19.8266C6.54575 19.6393 6.93143 19.8945 7.18265 20.2861C7.28677 20.4483 7.15758 20.6641 6.92677 20.6798C6.17405 20.7309 5.41835 20.8139 4.66719 20.788C3.76116 20.7567 3.10946 20.2286 2.60892 19.5023C2.58709 19.4693 2.5702 19.4332 2.55877 19.3952C2.55399 19.3802 2.56784 19.3592 2.57907 19.3205V19.3206ZM11.7361 23.9132C11.9868 23.8512 12.2346 23.7715 12.4887 23.7303C14.9766 23.3257 17.1302 22.1566 19.2015 20.8011C19.5311 20.5855 19.8338 20.3291 20.1551 20.1004C20.2327 20.0452 20.3354 20.0249 20.4687 19.9715C20.4449 20.3226 20.2598 20.5102 20.0539 20.6459C19.113 21.2657 18.1915 21.9254 17.2021 22.4575C16.3257 22.9289 15.3838 23.2928 14.4434 23.627C13.5792 23.9342 12.6703 24.0672 11.7361 23.9132Z" fill="#3C7CA8"/>
<path d="M0.36872 9.60813C0.382929 9.74306 0.41266 9.87846 0.408123 10.0128C0.397974 10.3197 0.534451 10.5363 0.778034 10.707C1.15057 10.968 1.24645 11.4748 0.978989 11.8473C0.941377 11.8998 0.761437 11.9126 0.692302 11.8702C0.140302 11.5322 -0.0577873 10.9106 0.13875 10.1981C0.193556 9.99954 0.247049 9.80049 0.301138 9.60169L0.36872 9.60813ZM22.6907 7.3778C22.1817 6.94557 22.087 6.39619 22.0436 5.81482C22.3998 5.97721 22.8014 6.891 22.6907 7.3778Z" fill="#EAB600"/>
</g>
<defs>
<clipPath id="clip0_5_18162">
<rect width="24" height="24" fill="white"/>
</clipPath>
</defs>
</svg>
