<svg width="24" height="24" viewBox="0 0 24 24" fill="none" xmlns="http://www.w3.org/2000/svg">
<g clip-path="url(#clip0_5_18149)">
<path d="M12 24C18.6274 24 24 18.6274 24 12C24 5.37258 18.6274 0 12 0C5.37258 0 0 5.37258 0 12C0 18.6274 5.37258 24 12 24Z" fill="#00AFEC"/>
<path d="M15.2295 8.87103C15.2663 8.81178 15.2993 8.73303 15.333 8.66553C16.0968 7.31301 16.4988 5.78632 16.5 4.23303C15.4238 3.61203 14.2875 3.22053 13.0515 3.08478C13.509 5.08128 14.157 7.01478 15.0938 8.83653L15.2295 8.87103ZM9.0585 8.52978L9.02475 8.52228L8.76225 8.46228V8.45778H8.7585L8.99475 7.42803C9.1695 7.46553 9.34425 7.50678 9.51825 7.54953H9.522C10.159 6.11253 10.6555 4.61733 11.0048 3.08478C9.394 3.26265 7.86136 3.87296 6.56925 4.85103V4.85403C5.48509 5.675 4.60081 6.73072 3.98267 7.94205C3.36454 9.15338 3.02859 10.4889 3 11.8485V12.0285C3.96067 12.5807 5.01385 12.9532 6.108 13.128L6.11325 13.1228C7.26147 11.705 8.24994 10.1649 9.06075 8.53053H9.0585V8.52978ZM14.6925 10.0485C14.8898 10.1535 14.9633 10.3035 15.057 10.5975C15.1868 11.0415 15.099 11.5088 15.0068 11.9475L16.095 12.2003L16.365 11.028C17.4638 12.7193 18.6825 14.466 20.1623 15.837C19.8938 16.4468 19.7273 16.6598 19.332 17.1953C16.9095 16.4498 14.3295 16.0545 11.7945 16.0793L12.0113 15.213L11.2882 15.0443C11.1758 15.0158 11.061 14.9655 10.9935 14.8665C10.9088 14.754 10.9088 14.6055 10.9373 14.4728L11.3895 12.5063C11.6235 12.5625 11.868 12.5993 12.087 12.7035C12.1895 12.7447 12.2808 12.8094 12.3537 12.8924C12.4265 12.9754 12.4788 13.0743 12.5063 13.1813C12.5655 13.4798 12.4388 13.7663 12.3878 14.0535L13.3613 14.2785L14.1728 10.7625L14.0903 10.7348L14.0265 10.7228C14.2515 10.4865 14.448 10.2765 14.6513 10.02L14.6933 10.0485H14.6925ZM6.1365 13.3538L6.15975 13.3215C6.34875 13.3635 6.49425 13.3478 6.68775 13.368C7.38 13.4295 8.052 13.443 8.74125 13.3455C8.79375 13.338 8.84775 13.3328 8.901 13.3305L8.74125 13.944C8.71275 14.0655 8.6595 14.1915 8.55525 14.268C8.50371 14.3022 8.44564 14.3253 8.3847 14.3359C8.32377 14.3465 8.2613 14.3443 8.20125 14.3295C7.95375 14.2793 7.70625 14.2118 7.45575 14.1638C7.38 14.5065 7.29825 14.85 7.2195 15.1905L8.8815 15.5753C8.814 15.885 8.7975 15.969 8.727 16.2758C7.34349 16.4655 5.97704 16.7637 4.64025 17.1675C4.2465 16.6328 4.07775 16.5038 3.81375 15.8933C4.65525 15.1133 5.41275 14.2455 6.1365 13.3538ZM9.99525 15.8318L10.662 15.9863L10.6395 16.1183L9.92775 16.1693L9.99525 15.8318ZM8.766 13.1475C8.81774 13.1404 8.86981 13.1359 8.922 13.134V13.131L9.78 9.41853C9.81375 9.24978 9.88125 9.08103 9.828 8.91228C9.8074 8.85177 9.77314 8.79682 9.72788 8.75169C9.68261 8.70656 9.62757 8.67246 9.567 8.65203L9.53925 8.64303C9.39675 8.60478 9.50625 8.63178 9.3615 8.59803C9.34575 8.59428 9.27375 8.61828 9.25725 8.61528C8.45543 10.2306 7.47641 11.7517 6.33825 13.1505C6.5265 13.1903 6.49575 13.179 6.684 13.1985C7.37775 13.2623 8.076 13.245 8.76525 13.1483L8.766 13.1475Z" fill="white"/>
<path d="M10.6725 7.81277V7.81577C10.8045 7.25852 10.9283 6.69902 11.0633 6.14252L12.1718 6.39752L11.7863 8.07153L12.45 8.22603C12.516 7.94778 12.5813 7.66877 12.645 7.38977L12.7418 6.97127L12.8385 6.55278L13.9463 6.80553C13.9313 6.88053 13.9148 6.95552 13.8983 7.03052C13.791 7.51577 13.6718 7.99652 13.5645 8.48327L14.8403 8.78027C13.9035 6.95777 13.2833 5.05277 12.8265 3.05627C12.54 3.02252 12.4193 3.03377 12.129 3.02852H11.952C11.634 3.02852 11.5163 3.02027 11.2043 3.05627C10.8533 4.58852 10.4393 6.19578 9.80176 7.63277L10.6725 7.81277ZM12.1433 9.24452L12.177 9.25202L12.1808 9.24452H12.1433Z" fill="white"/>
<path d="M12.1462 9.24378L11.6318 11.4743C11.9513 11.5448 12.2842 11.6618 12.6127 11.5695C12.7183 11.5363 12.8141 11.4776 12.8917 11.3986C12.9693 11.3196 13.0262 11.2227 13.0575 11.1165C13.119 10.9193 13.1497 10.7168 13.2037 10.5203L13.7467 10.6583C13.7708 10.662 13.743 10.6763 13.7587 10.6605L13.7723 10.65C13.9973 10.4085 14.2523 10.1438 14.4548 9.88803C14.1226 9.72188 13.7686 9.60346 13.4032 9.53628L12.1462 9.24378ZM20.2238 8.36703C19.4475 6.63153 18.3412 5.32503 16.6965 4.37253C16.695 5.92653 16.3215 7.31328 15.558 8.66703C15.5117 8.75173 15.4694 8.83858 15.4313 8.92728C15.9458 9.03978 16.2668 9.10878 16.7812 9.22428V9.22953L16.4498 10.7198C17.5463 12.4103 18.7695 14.2718 20.2463 15.6443C20.7173 14.5703 20.9737 13.4145 21 12.2415V11.8193C20.9713 10.6284 20.7075 9.45489 20.2238 8.36628V8.36703ZM3 12.225V12.3548C3.01725 13.554 3.27375 14.5403 3.75375 15.6398C4.55005 14.9052 5.28989 14.1117 5.967 13.266C4.87575 13.092 3.95625 12.78 3 12.225ZM11.7638 16.275L11.3865 17.9175H11.3842L10.2705 17.6625L10.5803 16.3148L9.8715 16.365L9.609 17.5073H9.6075L8.493 17.2515C8.55 16.998 8.6055 16.7505 8.66775 16.5008C7.341 16.6808 6.0315 16.9695 4.75275 17.364C5.57403 18.4787 6.64111 19.3891 7.87117 20.0246C9.10123 20.6601 10.4612 21.0036 11.8455 21.0285H12.2137C13.5878 20.9931 14.9356 20.6446 16.1546 20.0096C17.3735 19.3745 18.4315 18.4697 19.248 17.364C16.8243 16.6176 14.2997 16.2503 11.7638 16.275Z" fill="white"/>
</g>
<defs>
<clipPath id="clip0_5_18149">
<rect width="24" height="24" fill="white"/>
</clipPath>
</defs>
</svg>
