<svg width="24" height="24" viewBox="0 0 24 24" fill="none" xmlns="http://www.w3.org/2000/svg">
<g clip-path="url(#clip0_5_18130)">
<path fill-rule="evenodd" clip-rule="evenodd" d="M24 12C24 18.6274 18.6274 24 12 24C5.37255 24 0 18.6274 0 12C0 5.37255 5.37255 0 12 0C18.6274 0 24 5.37255 24 12Z" fill="#7E2023"/>
<path fill-rule="evenodd" clip-rule="evenodd" d="M12 22.2542C6.34589 22.2542 1.74585 17.6541 1.74585 12C1.74585 6.34586 6.34589 1.74582 12 1.74582C17.6541 1.74582 22.2542 6.34586 22.2542 12C22.2542 17.6541 17.6541 22.2542 12 22.2542Z" fill="url(#paint0_linear_5_18130)"/>
<path fill-rule="evenodd" clip-rule="evenodd" d="M12.8745 17.7058C11.8876 16.6911 10.6222 15.8979 9.94237 15.1152C8.73064 13.7202 8.30659 12.499 8.70697 11.1444C9.10734 9.78976 10.1271 8.9953 11.9025 8.48315C12.8986 8.19581 14.3919 8.21789 15.7719 7.90277C17.5763 7.46169 19.1008 6.4881 19.4708 4.34872L18.0443 3.65225C17.84 5.94538 16.4203 6.74719 14.4779 6.87071C10.3706 7.11389 7.90754 8.13601 7.154 10.6854C6.40051 13.2348 7.91218 15.4317 11.2274 17.8686C12.7905 19.0282 13.5462 20.473 12.4711 22.5088L14.047 22.6997C14.8996 20.703 14.1492 19.057 12.8745 17.7058Z" fill="#7E2023"/>
<path fill-rule="evenodd" clip-rule="evenodd" d="M15.1169 8.40469C14.6622 8.47577 14.2093 8.52304 13.7663 8.56918C13.6748 8.57873 13.584 8.58814 13.4942 8.59775C13.6849 8.76834 13.8574 8.93641 14.0029 9.10394C15.2147 10.499 15.6387 11.7201 15.2384 13.0747C14.838 14.4294 13.8182 15.2238 12.0428 15.736C11.8296 15.7975 11.5934 15.8448 11.3406 15.8843C11.4108 15.9412 11.4818 15.9984 11.5534 16.0562C11.9002 16.3357 12.2546 16.6216 12.5976 16.9285C14.8483 16.3923 16.2542 15.351 16.7913 13.5337C17.3284 11.7165 16.7145 10.0783 15.1169 8.40469Z" fill="#3A3A39"/>
<path fill-rule="evenodd" clip-rule="evenodd" d="M11.0707 6.51336C11.1946 6.64065 11.3228 6.76449 11.4537 6.88522C11.5123 6.8723 11.5715 6.85957 11.6314 6.84717C12.0787 6.75455 12.5576 6.67864 13.0761 6.61837C12.9592 6.5294 12.8398 6.44016 12.7179 6.35053C11.1547 5.19097 10.3991 3.7462 11.4742 1.71044L9.89826 1.5195C9.04573 3.51621 9.79603 5.16213 11.0707 6.51336Z" fill="#3A3A39"/>
<path fill-rule="evenodd" clip-rule="evenodd" d="M8.82545 16.341C8.78189 16.298 8.73913 16.2552 8.69703 16.2124C8.52147 16.2426 8.34658 16.2768 8.1734 16.3164C6.36896 16.7575 4.84443 17.7311 4.47449 19.8704L5.90103 20.5669C6.10536 18.2738 7.52507 17.472 9.46741 17.3485C9.61844 17.3395 9.76715 17.3295 9.91367 17.3184C9.51117 16.9859 9.15058 16.662 8.82545 16.341Z" fill="#3A3A39"/>
<path fill-rule="evenodd" clip-rule="evenodd" d="M14.2171 13.0387L9.58368 11.6693C9.40521 11.6165 9.30324 11.429 9.35602 11.2505L9.37378 11.1904C9.42649 11.012 9.61398 10.91 9.79252 10.9628L14.4259 12.3322C14.6045 12.3849 14.7064 12.5724 14.6537 12.751L14.6359 12.811C14.5831 12.9896 14.3956 13.0915 14.2171 13.0387Z" fill="#3A3A39"/>
<path fill-rule="evenodd" clip-rule="evenodd" d="M13.2954 13.1724L10.2847 12.2825C10.0896 12.2248 9.88462 12.3363 9.82694 12.5314C9.76926 12.7265 9.88071 12.9314 10.0758 12.9891L13.0866 13.8789C13.2818 13.9366 13.4866 13.8252 13.5443 13.6301C13.602 13.435 13.4905 13.23 13.2954 13.1724Z" fill="#3A3A39"/>
<path fill-rule="evenodd" clip-rule="evenodd" d="M13.9338 11.0124L10.9231 10.1226C10.7279 10.0649 10.523 10.1763 10.4653 10.3714C10.4077 10.5665 10.5191 10.7714 10.7142 10.8291L13.725 11.719C13.9201 11.7766 14.125 11.6652 14.1827 11.4701C14.2404 11.275 14.1289 11.0701 13.9338 11.0124Z" fill="#3A3A39"/>
<path fill-rule="evenodd" clip-rule="evenodd" d="M16.642 4.83433L12.0086 3.46487C11.8301 3.4121 11.7281 3.22461 11.7809 3.04613L11.7986 2.986C11.8514 2.80752 12.0389 2.70556 12.2174 2.75833L16.8508 4.12772C17.0293 4.18049 17.1313 4.36799 17.0785 4.54653L17.0608 4.60659C17.008 4.78514 16.8205 4.88704 16.642 4.83433Z" fill="#3A3A39"/>
<path fill-rule="evenodd" clip-rule="evenodd" d="M15.7203 4.96793L12.7095 4.07807C12.5144 4.02039 12.3095 4.13184 12.2518 4.32696C12.1942 4.52207 12.3056 4.727 12.5007 4.78461L15.5115 5.67447C15.7066 5.73215 15.9116 5.62077 15.9692 5.42565C16.0268 5.23054 15.9155 5.02561 15.7203 4.96793Z" fill="#3A3A39"/>
<path fill-rule="evenodd" clip-rule="evenodd" d="M16.3587 2.80799L13.3479 1.91813C13.1528 1.86045 12.9479 1.9719 12.8902 2.16701C12.8326 2.36206 12.944 2.56699 13.1391 2.62467L16.1499 3.51453C16.345 3.57221 16.5499 3.46076 16.6075 3.26564C16.6652 3.07059 16.5538 2.86567 16.3587 2.80799Z" fill="#3A3A39"/>
<path fill-rule="evenodd" clip-rule="evenodd" d="M11.7922 21.2431L7.15882 19.8737C6.98028 19.8209 6.87838 19.6335 6.93116 19.4549L6.94886 19.3948C7.00163 19.2163 7.18912 19.1144 7.36766 19.1672L12.0011 20.5366C12.1795 20.5893 12.2815 20.7768 12.2287 20.9554L12.211 21.0154C12.1582 21.194 11.9708 21.2959 11.7922 21.2431Z" fill="#3A3A39"/>
<path fill-rule="evenodd" clip-rule="evenodd" d="M10.8705 21.3768L7.85974 20.4869C7.66462 20.4292 7.45976 20.5407 7.40208 20.7358C7.3444 20.9309 7.45585 21.1358 7.65096 21.1935L10.6617 22.0833C10.8568 22.141 11.0617 22.0295 11.1194 21.8345C11.1771 21.6394 11.0657 21.4345 10.8705 21.3768Z" fill="#3A3A39"/>
<path fill-rule="evenodd" clip-rule="evenodd" d="M11.5089 19.2168L8.49813 18.327C8.30308 18.2693 8.09816 18.3807 8.04048 18.5758C7.9828 18.7709 8.09424 18.9758 8.28936 19.0335L11.3001 19.9234C11.4952 19.9811 11.7001 19.8696 11.7578 19.6745C11.8155 19.4794 11.7041 19.2745 11.5089 19.2168Z" fill="#3A3A39"/>
<path fill-rule="evenodd" clip-rule="evenodd" d="M12 22.2542C6.34588 22.2542 1.74584 17.6541 1.74584 12C1.74584 6.34588 6.34588 1.74584 12 1.74584C17.6541 1.74584 22.2542 6.34588 22.2542 12C22.2542 17.6541 17.6541 22.2542 12 22.2542ZM12 1.08286C5.98031 1.08286 1.08286 5.98031 1.08286 12C1.08286 18.0197 5.98031 22.9172 12 22.9172C18.0197 22.9172 22.9172 18.0197 22.9172 12C22.9172 5.98031 18.0197 1.08286 12 1.08286Z" fill="#FFFFFE"/>
</g>
<defs>
<linearGradient id="paint0_linear_5_18130" x1="-11.1325" y1="0.0318597" x2="-11.1325" y2="23.9681" gradientUnits="userSpaceOnUse">
<stop stop-color="white"/>
<stop offset="1" stop-color="#7E2023"/>
</linearGradient>
<clipPath id="clip0_5_18130">
<rect width="24" height="24" fill="white"/>
</clipPath>
</defs>
</svg>
