<svg width="24" height="24" viewBox="0 0 24 24" fill="none" xmlns="http://www.w3.org/2000/svg">
<g clip-path="url(#clip0_5_18118)">
<path fill-rule="evenodd" clip-rule="evenodd" d="M12 0C14.3734 0 16.6935 0.703788 18.6668 2.02236C20.6402 3.34094 22.1783 5.21508 23.0866 7.4078C23.9948 9.60051 24.2324 12.0133 23.7694 14.3411C23.3064 16.6689 22.1635 18.8071 20.4853 20.4853C18.8071 22.1635 16.6689 23.3064 14.3411 23.7694C12.0133 24.2324 9.60051 23.9948 7.4078 23.0866C5.21508 22.1783 3.34094 20.6402 2.02236 18.6668C0.703788 16.6935 0 14.3734 0 12C0 8.8174 1.26428 5.76516 3.51472 3.51472C5.76515 1.26428 8.8174 0 12 0Z" fill="#1E9ADA"/>
<path d="M9.3214 6.70211C6.34503 11.2672 4.51679 17.6067 3.80373 19.7602C3.40271 15.695 5.5199 10.1619 7.07017 6.89108C6.35711 6.92404 2.55561 7.19212 0.449402 9.36865C0.449402 9.36865 1.58656 5.87478 8.15239 4.81454L8.17436 4.76949C13.313 -2.74232 17.1694 1.74477 17.1694 1.74477C14.8281 1.35363 12.7889 2.52594 11.0497 4.43439C11.8968 4.40143 17.3815 4.33441 18.9603 8.67537C18.9603 8.67537 15.7829 6.39886 9.31811 6.69771L9.3214 6.70211ZM13.0339 11.9363C12.5614 11.9357 12.0992 12.0752 11.706 12.3373C11.3128 12.5993 11.0061 12.9721 10.8248 13.4085C10.6435 13.8449 10.5957 14.3253 10.6875 14.7888C10.7793 15.2524 11.0066 15.6783 11.3405 16.0127C11.6744 16.3471 12.1 16.5749 12.5634 16.6673C13.0268 16.7597 13.5073 16.7126 13.9439 16.532C14.3806 16.3513 14.7538 16.0451 15.0164 15.6522C15.279 15.2594 15.4192 14.7974 15.4192 14.3249C15.4199 14.0113 15.3587 13.7006 15.2392 13.4107C15.1196 13.1208 14.944 12.8574 14.7224 12.6355C14.5008 12.4136 14.2376 12.2376 13.9478 12.1176C13.6581 11.9976 13.3475 11.936 13.0339 11.9363Z" fill="#FEFEFE"/>
</g>
<defs>
<clipPath id="clip0_5_18118">
<rect width="24" height="24" fill="white"/>
</clipPath>
</defs>
</svg>
