<svg width="24" height="24" viewBox="0 0 24 24" fill="none" xmlns="http://www.w3.org/2000/svg">
<g clip-path="url(#clip0_5_18113)">
<path d="M12 23.5146C18.3593 23.5146 23.5145 18.3594 23.5145 12C23.5145 5.64072 18.3593 0.485474 12 0.485474C5.64066 0.485474 0.485413 5.64072 0.485413 12C0.485413 18.3594 5.64066 23.5146 12 23.5146Z" fill="white" stroke="#3E4B52"/>
<path fill-rule="evenodd" clip-rule="evenodd" d="M10.0531 18.827C9.15561 18.7349 8.2681 18.533 7.83232 17.9675C7.75599 17.8686 7.75574 17.7191 7.59079 17.6799C7.57697 18.1489 7.87112 18.5211 8.14122 18.7969C8.28197 18.9406 8.44771 19.0619 8.62289 19.1681C8.8024 19.277 8.7961 19.3371 8.61119 19.2737C8.0461 19.0799 7.51471 18.8484 7.09038 18.4974C6.75645 19.0493 6.26455 19.496 5.76782 19.9203C5.65668 20.0153 5.65796 19.9221 5.75302 19.7875C5.97999 19.4662 6.57187 18.8879 6.7081 18.3869C6.77366 18.1457 6.64171 17.7194 6.46368 17.7045C6.28107 17.6892 6.1625 17.9264 6.08745 18.0449C5.97763 18.2187 5.91222 18.3592 5.83097 18.5104C5.6221 18.0672 5.79871 17.5281 6.0451 17.2762C5.63312 16.8396 5.23166 16.3912 4.78638 15.9918C4.60564 15.8297 4.66894 15.7111 4.88779 15.8124C5.54435 16.1162 6.14656 16.5012 6.53902 17.0233C6.3334 16.3144 6.09276 15.5738 5.81951 14.9508C5.75858 14.8118 5.82955 14.7804 5.92481 14.8982C6.36537 15.4427 6.75399 16.0453 7.086 16.7111C7.01858 15.7483 7.04627 14.8308 7.40278 14.2675C7.42751 14.2284 7.45274 14.1205 7.52784 14.1477C7.64292 14.4956 7.72471 14.8041 7.86689 15.1822C7.92463 15.3353 8.18661 16.0644 8.38432 16.0377C8.51622 16.0198 8.54337 15.6985 8.55851 15.4451C8.62205 14.381 8.46679 13.1569 8.39764 12.1816C8.55615 12.0143 8.76915 11.8032 8.93233 11.6443C8.98746 11.5906 9.05115 11.497 9.11361 11.5215C9.0992 11.7636 9.13333 12.0183 9.13619 12.2725C9.14337 12.9267 9.15591 13.6482 9.40402 14.0632C9.60969 13.8946 9.6721 13.592 9.73978 13.3301C9.95981 12.4789 10.0917 11.5151 10.2297 10.6138C10.6016 10.2773 11.032 9.88621 11.3937 9.55292C11.4386 9.51146 11.4748 9.43021 11.5384 9.45092C11.6351 9.8871 11.6163 10.452 11.9066 10.6719C12.1462 10.4221 12.2039 10.0591 12.2665 9.69294C12.2957 9.52223 12.3202 9.31636 12.348 9.12426C12.3755 8.93354 12.3637 8.68469 12.4285 8.53681C12.5087 8.35361 12.9229 8.09079 13.1277 7.91531C14.7917 6.49031 16.5699 5.02287 18.5941 4.04099C19.0401 4.41456 19.336 5.10279 19.3181 5.91943C19.3029 6.61577 19.0122 7.24449 18.7048 7.75862C18.3933 8.27949 18.0098 8.75079 17.6374 9.20915C17.119 9.84712 16.5025 10.6091 15.9468 11.2957C15.7929 11.4861 15.4972 11.9181 15.3444 11.9684C15.2353 12.0043 15.1052 11.968 14.9871 11.9692C14.4416 11.9753 13.8838 12.051 13.714 12.4155C13.9654 12.6853 14.5407 12.5938 15.0222 12.6068C14.3793 13.5606 13.654 14.5046 12.9417 15.4671C12.8508 15.5899 12.7234 15.8466 12.6259 15.8795C12.4328 15.9446 12.0324 15.85 11.7217 15.854C10.4602 15.8703 9.02455 16.0067 8.53801 16.7816C10.1219 16.9039 11.7142 17.0168 13.4211 17.0018C12.0681 17.7552 9.73505 17.4771 8.20756 17.27C8.52743 18.0943 9.2251 18.4965 10.0693 18.7351C10.2256 18.7792 10.2266 18.8449 10.0531 18.827ZM16.8324 6.88371C14.4188 9.58248 12.03 12.3034 9.92209 15.276C11.1448 13.9825 12.456 12.7059 13.6157 11.3113C14.7807 9.91002 15.7789 8.3719 16.8324 6.88371Z" fill="#3E4B52"/>
</g>
<defs>
<clipPath id="clip0_5_18113">
<rect width="24" height="24" fill="white"/>
</clipPath>
</defs>
</svg>
