<svg width="24" height="24" viewBox="0 0 24 24" fill="none" xmlns="http://www.w3.org/2000/svg">
<g clip-path="url(#clip0_5_18087)">
<path d="M12 24C18.6274 24 24 18.6274 24 12C24 5.37258 18.6274 0 12 0C5.37258 0 0 5.37258 0 12C0 18.6274 5.37258 24 12 24Z" fill="url(#paint0_linear_5_18087)"/>
<path fill-rule="evenodd" clip-rule="evenodd" d="M10.5 8.01429V10.6286C10.5 10.8 10.6586 10.9286 10.8 10.9286H14.9143C15.0557 10.9286 15.2143 11.0571 15.2143 11.2286V12.3429C15.2143 12.4843 15.0857 12.6429 14.9143 12.6429H10.8C10.6586 12.6429 10.5 12.8014 10.5 12.9429V19.0286C10.5 19.26 10.3714 19.3843 10.2 19.2857L9.00001 18.4286C8.85858 18.3429 8.78572 18.2571 8.78572 18.0857V12.9429C8.78572 12.8014 8.62287 12.6429 8.48572 12.6429H6.51429C6.34287 12.6429 6.21429 12.4843 6.21429 12.3429V11.2286C6.21429 11.0614 6.34287 10.9286 6.51429 10.9286H8.48572C8.62287 10.9286 8.78572 10.8 8.78572 10.6286V6.3C8.78572 6.12857 8.92287 6 9.06429 6H16.6286C16.77 6 16.9286 6.15857 16.9286 6.3V7.41429C16.9286 7.55571 16.8 7.71429 16.6286 7.71429H10.8C10.6586 7.71429 10.5 7.87286 10.5 8.01429Z" fill="white"/>
</g>
<defs>
<linearGradient id="paint0_linear_5_18087" x1="-0.000685215" y1="0.000685215" x2="23.9993" y2="24.0007" gradientUnits="userSpaceOnUse">
<stop stop-color="#AA00FF"/>
<stop offset="1" stop-color="#5500FF"/>
</linearGradient>
<clipPath id="clip0_5_18087">
<rect width="24" height="24" fill="white"/>
</clipPath>
</defs>
</svg>
