<svg width="24" height="24" viewBox="0 0 24 24" fill="none" xmlns="http://www.w3.org/2000/svg">
<g clip-path="url(#clip0_5_18080)">
<path fill-rule="evenodd" clip-rule="evenodd" d="M24 12C24 18.6274 18.6274 24 12 24C5.37255 24 0 18.6274 0 12C0 5.37255 5.37255 0 12 0C18.6274 0 24 5.37255 24 12Z" fill="url(#paint0_linear_5_18080)"/>
<path fill-rule="evenodd" clip-rule="evenodd" d="M12 22.2542C6.34588 22.2542 1.74584 17.6541 1.74584 12C1.74584 6.34588 6.34588 1.74584 12 1.74584C17.6541 1.74584 22.2542 6.34588 22.2542 12C22.2542 17.6541 17.6541 22.2542 12 22.2542ZM12 1.08286C5.98031 1.08286 1.08286 5.98031 1.08286 12C1.08286 18.0197 5.98031 22.9171 12 22.9171C18.0197 22.9171 22.9172 18.0197 22.9172 12C22.9172 5.98031 18.0197 1.08286 12 1.08286Z" fill="#FFFFFE"/>
<path fill-rule="evenodd" clip-rule="evenodd" d="M16.5234 12C16.5234 14.4983 14.4983 16.5234 12 16.5234C9.50175 16.5234 7.47653 14.4983 7.47653 12C7.47653 9.50175 9.50175 7.47653 12 7.47653C14.4983 7.47653 16.5234 9.50175 16.5234 12Z" fill="#E48D2E"/>
<path fill-rule="evenodd" clip-rule="evenodd" d="M12 19.9477C9.8561 19.9477 7.84627 19.1069 6.34083 17.5802C4.83559 16.0538 4.02317 14.0318 4.05314 11.8866C4.08204 9.81746 4.90918 7.86557 6.3822 6.39044C7.85515 4.91523 9.80585 4.08524 11.8748 4.05335C14.1206 4.01788 16.2863 4.94115 17.8167 6.58423C18.1287 6.9191 18.1101 7.44352 17.7752 7.75552C17.4403 8.06745 16.9159 8.04876 16.6039 7.71395C15.3925 6.41331 13.6794 5.68264 11.9004 5.71061C8.53431 5.76253 5.75747 8.54341 5.71046 11.9098C5.68666 13.6079 6.32969 15.2084 7.52094 16.4164C8.71252 17.6248 10.3032 18.2902 12 18.2902C15.1875 18.2902 17.8289 15.9069 18.2358 12.8287H13.0384L14.2445 14.0348C14.5681 14.3584 14.5681 14.8831 14.2445 15.2068C13.9209 15.5304 13.3961 15.5304 13.0725 15.2068L10.4517 12.586C10.2963 12.4306 10.2089 12.2198 10.2089 12C10.2089 11.7802 10.2963 11.5694 10.4517 11.414L13.0725 8.79315C13.3961 8.46955 13.9209 8.46955 14.2445 8.79315C14.5681 9.11682 14.5681 9.64157 14.2445 9.96518L13.0384 11.1713H19.1189C19.5766 11.1713 19.9476 11.5423 19.9476 12C19.9476 16.3824 16.3824 19.9477 12 19.9477Z" fill="#20211F"/>
</g>
<defs>
<linearGradient id="paint0_linear_5_18080" x1="0" y1="11.2388" x2="24" y2="11.2388" gradientUnits="userSpaceOnUse">
<stop stop-color="#EE7B00"/>
<stop offset="1" stop-color="#B82600"/>
</linearGradient>
<clipPath id="clip0_5_18080">
<rect width="24" height="24" fill="white"/>
</clipPath>
</defs>
</svg>
