<svg width="24" height="24" viewBox="0 0 24 24" fill="none" xmlns="http://www.w3.org/2000/svg">
<path d="M10.8193 9.2039C12.5947 8.4546 13.7448 6.71055 13.7344 4.7835C13.7508 2.14762 11.628 0 9.03473 0C6.42636 0 4.30693 2.14762 4.30693 4.7835C4.30522 6.15925 4.89425 7.46952 5.92435 8.38143L3.44252 10.0401C3.44252 10.0401 8.42063 10.4734 10.8193 9.2039Z" fill="url(#paint0_linear_5_18061)"/>
<path d="M20.9027 14.4337C18.5323 13.583 15.2266 15.2287 15.2266 15.2287C15.2266 15.2287 17.7786 11.8116 17.7229 6.76332C17.6954 3.06773 16.3846 1.86842 15.3799 0.976501C15.464 1.48334 15.5061 1.99626 15.5058 2.51003C15.5058 7.86498 12.187 11.4629 6.84584 11.4629C4.62808 11.4629 2.59255 11.4492 0.960686 10.2079C0.988881 10.2918 1.22544 11.3082 2.17375 12.3693C2.66784 12.9168 3.25298 13.3747 3.90326 13.7226C6.30189 15.0189 8.14281 15.1729 8.32367 15.1867C8.33811 15.2005 8.33811 15.2287 8.35186 15.2424C8.35186 17.9058 6.48275 21.7128 3.83312 21.7128C3.4396 21.7096 3.04759 21.6634 2.66407 21.5752C2.05717 21.4577 1.48444 21.2053 0.988193 20.8367C0.988193 20.8367 1.3506 23.6115 4.33513 23.8907C7.61192 24.1974 9.11794 23.4863 12.3672 21.5058C15.84 19.3864 18.4752 17.1411 20.4976 17.6988C22.0319 18.1169 22.2856 20.5575 22.2856 20.5575C22.2856 20.5575 22.7457 19.5947 22.8853 18.7448C23.0214 17.8501 23.2724 15.2844 20.9027 14.4337Z" fill="url(#paint1_linear_5_18061)"/>
<path d="M8.92263 1.54796C9.87729 1.549 10.7839 1.96666 11.4052 2.69157L11.7813 2.37042C10.5217 0.908508 8.36228 0.632054 6.77501 1.7295L7.05421 2.1318C7.60354 1.7525 8.25508 1.54891 8.92263 1.54796Z" fill="white"/>
<defs>
<linearGradient id="paint0_linear_5_18061" x1="3.44252" y1="5.05582" x2="13.7344" y2="5.05582" gradientUnits="userSpaceOnUse">
<stop stop-color="#FF3F3F"/>
<stop offset="1" stop-color="#EB0000"/>
</linearGradient>
<linearGradient id="paint1_linear_5_18061" x1="0.959998" y1="12.4662" x2="22.9657" y2="12.4662" gradientUnits="userSpaceOnUse">
<stop stop-color="#2482C5"/>
<stop offset="1" stop-color="#285FAC"/>
</linearGradient>
</defs>
</svg>
