<svg width="24" height="24" viewBox="0 0 24 24" fill="none" xmlns="http://www.w3.org/2000/svg">
<g clip-path="url(#clip0_5_18023)">
<path fill-rule="evenodd" clip-rule="evenodd" d="M24 12C24 18.6274 18.6274 24 12 24C5.37255 24 0 18.6274 0 12C0 5.37255 5.37255 0 12 0C18.6274 0 24 5.37255 24 12Z" fill="#08914B"/>
<path fill-rule="evenodd" clip-rule="evenodd" d="M13.4688 13.3378V10.7522H17.0083C16.4343 8.52186 14.4096 6.87375 12 6.87375C9.14401 6.87375 6.82874 9.18902 6.82874 12.045C6.82874 14.9011 9.14401 17.2163 12 17.2163C14.4096 17.2163 16.4343 15.5682 17.0083 13.3378H13.4688Z" fill="#3A3A39"/>
<path fill-rule="evenodd" clip-rule="evenodd" d="M13.994 16.8179C13.3804 17.0745 12.7067 17.2163 12 17.2163C9.59038 17.2163 7.5657 15.5682 6.99168 13.3378H10.5312V10.7522H6.99168C7.5657 8.52186 9.59038 6.87375 12 6.87375C12.7011 6.87375 13.3697 7.01331 13.9793 7.26611L14.9679 4.87645C14.0538 4.49735 13.0514 4.28812 12 4.28812C7.71599 4.28812 4.24309 7.76102 4.24309 12.045C4.24309 16.3291 7.71599 19.8019 12 19.8019C13.0578 19.8019 14.0662 19.5901 14.9848 19.2066L13.994 16.8179Z" fill="#FAD948"/>
<path fill-rule="evenodd" clip-rule="evenodd" d="M12 22.2542C6.34588 22.2542 1.74584 17.6541 1.74584 12C1.74584 6.34588 6.34588 1.74584 12 1.74584C14.8378 1.74584 17.4098 2.9048 19.2683 4.77402L17.4827 6.55936C16.7685 5.84507 15.9157 5.26946 14.9679 4.87645L13.9793 7.2661C14.6115 7.52825 15.1803 7.91212 15.6568 8.38847C16.2999 9.03176 16.7745 9.84365 17.0083 10.7522L22.1777 10.7486C22.2278 11.1589 22.2542 11.5764 22.2542 12C22.2542 17.6541 17.6541 22.2542 12 22.2542ZM12 1.08286C5.98031 1.08286 1.08286 5.98025 1.08286 12C1.08286 18.0197 5.98031 22.9172 12 22.9172C18.0197 22.9172 22.9172 18.0197 22.9172 12C22.9172 5.98025 18.0197 1.08286 12 1.08286Z" fill="#DE495C"/>
<path fill-rule="evenodd" clip-rule="evenodd" d="M17.0083 13.3378C16.6026 14.9141 15.4725 16.1995 13.994 16.8179L14.9848 19.2066C17.4037 18.1968 19.2013 15.9965 19.6476 13.3378H17.0083Z" fill="#DE495C"/>
<path fill-rule="evenodd" clip-rule="evenodd" d="M13.4688 13.3378V10.7522H14.2389C13.7917 9.97962 12.9569 9.45938 12 9.45938C11.0431 9.45938 10.2083 9.97962 9.76111 10.7522H10.5312V13.3378H9.76111C10.2083 14.1105 11.0431 14.6307 12 14.6307C12.9569 14.6307 13.7917 14.1105 14.2389 13.3378H13.4688Z" fill="#DE495C"/>
</g>
<defs>
<clipPath id="clip0_5_18023">
<rect width="24" height="24" fill="white"/>
</clipPath>
</defs>
</svg>
