<svg width="24" height="24" viewBox="0 0 24 24" fill="none" xmlns="http://www.w3.org/2000/svg">
<g clip-path="url(#clip0_5_18011)">
<path d="M12 24C18.6274 24 24 18.6274 24 12C24 5.37258 18.6274 0 12 0C5.37258 0 0 5.37258 0 12C0 18.6274 5.37258 24 12 24Z" fill="#7C5D00"/>
<path d="M12 23.04C18.0972 23.04 23.04 18.0972 23.04 12C23.04 5.90277 18.0972 0.959991 12 0.959991C5.90278 0.959991 0.960007 5.90277 0.960007 12C0.960007 18.0972 5.90278 23.04 12 23.04Z" fill="#EED554"/>
<path d="M12 22.08C17.567 22.08 22.08 17.567 22.08 12C22.08 6.43298 17.567 1.92001 12 1.92001C6.43297 1.92001 1.92 6.43298 1.92 12C1.92 17.567 6.43297 22.08 12 22.08Z" fill="#F1C700"/>
<path fill-rule="evenodd" clip-rule="evenodd" d="M18.7102 11.3343H14.2053C13.9349 11.3343 13.7156 11.5536 13.7156 11.8241V13.0233C13.7156 13.2938 13.9349 13.513 14.2053 13.513H16.6784C16.0181 15.0682 14.4755 16.1617 12.6823 16.1617C11.1407 16.1617 9.78518 15.3528 9.01537 14.1378H9.91808C10.1886 14.1378 10.4078 13.9185 10.4078 13.6481V13.2178C10.4078 12.9473 10.1886 12.7281 9.91808 12.7281H8.43909C8.37681 12.4359 8.34342 12.1333 8.34342 11.8228C8.34342 11.5743 8.36553 11.3312 8.40583 11.094H9.91808C10.1886 11.094 10.4078 10.8747 10.4078 10.6042V10.174C10.4078 9.9035 10.1886 9.68421 9.91808 9.68421H8.90938C9.65631 8.37164 11.0672 7.48386 12.6823 7.48386C14.0229 7.48386 15.2231 8.09513 16.0193 9.05359C16.2028 9.27448 16.5393 9.28332 16.7407 9.07865C17.1637 8.64892 17.5752 8.2354 17.8988 7.91942C16.7088 6.33323 14.8134 5.30511 12.6823 5.30511C9.83727 5.30511 7.41252 7.13764 6.52544 9.68421H5.28977C5.01929 9.68421 4.8 9.9035 4.8 10.174V10.6042C4.8 10.8747 5.01929 11.094 5.28977 11.094H6.20562C6.17883 11.3333 6.16467 11.5764 6.16467 11.8228C6.16467 12.13 6.18652 12.4321 6.22779 12.7281H5.28977C5.01929 12.7281 4.8 12.9473 4.8 13.2178V13.6481C4.8 13.9185 5.01929 14.1378 5.28977 14.1378H6.58985C7.52562 16.5921 9.90341 18.3404 12.6823 18.3404C16.2762 18.3404 19.2 15.4166 19.2 11.8228V11.8178C19.1998 11.5498 18.9783 11.3343 18.7102 11.3343Z" fill="white"/>
</g>
<defs>
<clipPath id="clip0_5_18011">
<rect width="24" height="24" fill="white"/>
</clipPath>
</defs>
</svg>
