<svg width="24" height="24" viewBox="0 0 24 24" fill="none" xmlns="http://www.w3.org/2000/svg">
<g clip-path="url(#clip0_5_18000)">
<path d="M12 24C18.6274 24 24 18.6274 24 12C24 5.37258 18.6274 0 12 0C5.37258 0 0 5.37258 0 12C0 18.6274 5.37258 24 12 24Z" fill="#001D57"/>
<path d="M15.3742 3.966L16.2765 4.869L14.5687 6.624C14.9287 7.1715 15.1222 7.81725 15.1222 8.48325C15.1284 9.35954 14.7894 10.2031 14.1787 10.8315C13.7329 11.3025 13.1519 11.6237 12.516 11.751V13.2803C13.1488 13.4109 13.7274 13.7299 14.1757 14.1953C14.7882 14.8243 15.1283 15.6693 15.1222 16.5473C15.1281 17.425 14.7881 18.2697 14.1757 18.8985C13.8773 19.2077 13.5196 19.4535 13.1239 19.6213C12.7283 19.7891 12.303 19.8754 11.8732 19.875C11.4434 19.8763 11.0177 19.7905 10.6219 19.6226C10.2262 19.4548 9.86859 19.2084 9.57073 18.8985C8.96025 18.2685 8.62075 17.4245 8.62498 16.5473C8.62498 15.6623 8.96098 14.823 9.56848 14.1983C10.0145 13.7275 10.5953 13.4066 11.2312 13.2795V11.7495C10.5984 11.6188 10.0199 11.2998 9.57148 10.8345C8.96054 10.2044 8.62076 9.36011 8.62498 8.4825C8.62498 7.5975 8.96098 6.75825 9.57148 6.13125C9.86986 5.82194 10.2276 5.57597 10.6232 5.40806C11.0188 5.24015 11.4442 5.15374 11.874 5.154C12.519 5.154 13.1392 5.3505 13.6702 5.71575L15.375 3.966H15.3742ZM11.874 14.5088C11.6136 14.5067 11.3556 14.5582 11.116 14.6601C10.8764 14.7621 10.6603 14.9122 10.4812 15.1013C10.1059 15.4887 9.89724 16.0078 9.89998 16.5473C9.89998 17.091 10.1062 17.5988 10.4812 17.9925C10.6617 18.1798 10.878 18.3288 11.1173 18.4306C11.3566 18.5324 11.6139 18.5849 11.874 18.585C12.1342 18.587 12.3921 18.5354 12.6316 18.4335C12.8711 18.3315 13.087 18.1814 13.266 17.9925C13.6411 17.6052 13.8498 17.0864 13.8472 16.5473C13.8472 16.0035 13.641 15.4958 13.2637 15.099C13.0849 14.9106 12.8692 14.761 12.6302 14.6595C12.3911 14.558 12.1337 14.5067 11.874 14.5088ZM13.2637 9.94125C13.6402 9.55344 13.8497 9.0335 13.8472 8.493C13.8506 8.22553 13.801 7.96004 13.7013 7.71185C13.6015 7.46366 13.4536 7.23769 13.266 7.047C13.0857 6.85974 12.8695 6.71076 12.6303 6.60896C12.3912 6.50715 12.1339 6.45462 11.874 6.4545C11.6136 6.45242 11.3556 6.50394 11.116 6.60588C10.8764 6.70781 10.6603 6.85797 10.4812 7.047C10.1059 7.43448 9.89724 7.95355 9.89998 8.493C9.89998 9.03675 10.1062 9.5445 10.4812 9.93825C10.6617 10.1255 10.878 10.2745 11.1173 10.3763C11.3566 10.4781 11.6139 10.5306 11.874 10.5308C12.4072 10.5308 12.8992 10.3238 13.2637 9.94125Z" fill="white"/>
</g>
<defs>
<clipPath id="clip0_5_18000">
<rect width="24" height="24" fill="white"/>
</clipPath>
</defs>
</svg>
