<svg width="24" height="24" viewBox="0 0 24 24" fill="none" xmlns="http://www.w3.org/2000/svg">
<g clip-path="url(#clip0_5_17985)">
<path d="M12 24C18.6274 24 24 18.6274 24 12C24 5.37258 18.6274 0 12 0C5.37258 0 0 5.37258 0 12C0 18.6274 5.37258 24 12 24Z" fill="black"/>
<path d="M11.9749 22.7184C17.8944 22.7184 22.6932 17.9196 22.6932 12C22.6932 6.08047 17.8944 1.28171 11.9749 1.28171C6.05529 1.28171 1.25653 6.08047 1.25653 12C1.25653 17.9196 6.05529 22.7184 11.9749 22.7184Z" fill="#FEF102"/>
<path d="M17.0513 7.97907C16.8 7.40106 16.5612 6.27017 15.9078 6.01886C15.0659 5.69216 14.5382 7.81572 14.4125 8.35603H14.2869C14.0733 7.43876 13.7843 6.13195 12.779 5.84294C12.3141 7.80315 13.2691 9.92671 14.1612 11.6231C15.1162 11.1707 15.5811 9.73823 15.6691 8.733H15.7947L16.8 11.7487C17.6042 11.5225 17.8932 10.7183 18.1822 9.98954C18.8104 8.43143 19.3382 6.50891 18.9361 4.83771C17.7298 5.17697 17.3654 6.91101 17.0513 7.97907ZM4.98845 12C6.06908 11.4848 6.58427 9.85132 6.74762 8.733H6.87327C6.99892 9.27331 7.33819 10.6681 8.01673 10.756C8.87118 10.8691 9.32353 8.95918 9.38636 8.35603H9.51201C9.78845 9.29844 10.0775 10.5299 11.0199 10.9948C11.3717 9.52462 10.957 7.9665 10.4167 6.59687C10.2785 6.24504 10.0021 5.29006 9.51201 5.29006C8.72039 5.29006 8.26803 7.38849 8.12981 7.97907H8.00416L6.99892 4.96336C5.2272 5.80525 4.27222 10.3037 4.98845 12ZM3.10364 13.5079C4.41044 19.2377 10.467 22.4796 15.9204 20.0545C17.9057 19.1749 19.4764 17.6042 20.3811 15.644C20.6199 15.1414 21.0722 14.2115 20.8083 13.5456C20.5445 12.8796 17.9434 13.9728 17.3026 14.2492C17.2146 14.2869 17.1518 14.3749 17.1267 14.4754C17.089 14.7518 17.2775 15.0157 17.5539 15.0534C17.5665 15.0534 17.579 15.0534 17.5916 15.0534L18.6848 15.1414C16.712 18.9613 11.3843 20.645 7.6272 17.5916C6.78531 16.9131 6.03139 16.1089 5.52877 15.1414C5.29002 14.6765 5.06385 14.0859 4.64919 13.7592C4.24709 13.4576 3.64395 13.3571 3.10364 13.5079Z" fill="black"/>
</g>
<defs>
<clipPath id="clip0_5_17985">
<rect width="24" height="24" fill="white"/>
</clipPath>
</defs>
</svg>
