<svg width="24" height="24" viewBox="0 0 24 24" fill="none" xmlns="http://www.w3.org/2000/svg">
<g clip-path="url(#clip0_5_17967)">
<path d="M12 24C18.6274 24 24 18.6274 24 12C24 5.37258 18.6274 0 12 0C5.37258 0 0 5.37258 0 12C0 18.6274 5.37258 24 12 24Z" fill="#7F27FF"/>
<path d="M11.6 10.4H6.4V15.6C6.39473 16.132 6.60375 16.6438 6.97997 17.02C7.35619 17.3962 7.86797 17.6053 8.4 17.6H11.6V10.4ZM12.4 10.4H17.6V15.6C17.6053 16.132 17.3963 16.6438 17.02 17.02C16.6438 17.3962 16.132 17.6053 15.6 17.6H12.4V10.4Z" fill="white"/>
<path d="M12.4 9.59999H17.4419C18 9.59999 18.4019 9.11999 18.4019 8.63999C18.4019 8.08185 17.9219 7.67999 17.4419 7.67999H6.63999C6.08185 7.67999 5.67999 8.15999 5.67999 8.63999C5.67999 9.19813 6.15999 9.59999 6.63999 9.59999H11.6V8.31999H12.4" fill="white"/>
<path d="M12.7331 8.23107C13.8531 6.23107 14.7331 5.59107 15.3731 6.23107C16.0131 6.87107 15.6131 7.51107 14.2531 8.23107" stroke="white"/>
<path d="M11.6168 8.23107C10.4968 6.23107 9.61677 5.59107 8.97677 6.23107C8.33677 6.87107 8.73677 7.51107 10.0968 8.23107" stroke="white"/>
</g>
<defs>
<clipPath id="clip0_5_17967">
<rect width="24" height="24" fill="white"/>
</clipPath>
</defs>
</svg>
