<svg width="24" height="24" viewBox="0 0 24 24" fill="none" xmlns="http://www.w3.org/2000/svg">
<g clip-path="url(#clip0_5_17963)">
<path d="M12 24C18.6274 24 24 18.6274 24 12C24 5.37258 18.6274 0 12 0C5.37258 0 0 5.37258 0 12C0 18.6274 5.37258 24 12 24Z" fill="#37DCD8"/>
<path d="M11.9925 9.50925L9.90448 7.40625C10.5309 6.38752 11.2313 5.41615 12 4.5C12.7674 5.41222 13.4668 6.37958 14.0925 7.39425L11.9925 9.50925ZM16.281 11.6168C16.8705 13.2683 17.7352 14.9198 16.911 16.5052C16.3865 17.5055 15.5733 18.3247 14.577 18.8565C11.8627 20.2965 8.50273 19.239 7.07323 16.5052C6.24073 14.9198 7.21048 13.1377 7.80073 11.487C8.34148 10.2698 8.88823 9.14775 9.50923 8.06925L11.9917 10.5698L14.4885 8.05575C15.1447 9.19125 15.7117 10.3597 16.281 11.6175V11.6168Z" fill="white"/>
</g>
<defs>
<clipPath id="clip0_5_17963">
<rect width="24" height="24" fill="white"/>
</clipPath>
</defs>
</svg>
