<svg width="24" height="24" viewBox="0 0 24 24" fill="none" xmlns="http://www.w3.org/2000/svg">
<g clip-path="url(#clip0_5_17952)">
<path d="M12 24C18.6274 24 24 18.6274 24 12C24 5.37258 18.6274 0 12 0C5.37258 0 0 5.37258 0 12C0 18.6274 5.37258 24 12 24Z" fill="#B3B3B3"/>
<path d="M5.06023 5.24355C6.04302 4.21559 7.83818 4.17473 8.85431 5.17365C9.91524 6.21057 10.9649 7.25735 12.0032 8.31398C13.1092 7.26344 14.143 6.14301 15.2532 5.09677C16.3097 4.14301 18.1027 4.25806 19.043 5.32688C20.0048 6.33441 19.9893 8.09301 18.9893 9.0715C17.9618 10.1177 16.9215 11.1478 15.8855 12.1849C16.9441 13.2763 18.0479 14.3242 19.0973 15.429C20.0393 16.4618 19.9489 18.2199 18.929 19.1694C17.9242 20.1833 16.1242 20.186 15.1215 19.1694C14.0785 18.1478 13.0581 17.0973 12.0221 16.0694C10.9161 17.1333 9.86184 18.2495 8.74248 19.3021C7.67259 20.2516 5.86775 20.1086 4.94625 19.0204C4.01829 18.0151 4.04033 16.3016 5.00915 15.3274C5.91883 14.3941 6.84463 13.4763 7.77313 12.5661C8.16184 12.9538 8.55109 13.3441 8.9398 13.7317C8.02958 14.672 7.07205 15.5715 6.17528 16.5274C5.57044 17.1473 6.10324 18.3016 6.9527 18.2882C7.46722 18.3333 7.82259 17.907 8.15754 17.5849C9.04517 16.6806 9.94679 15.7925 10.8344 14.8887C8.89894 12.9366 6.93227 11.0108 5.00646 9.04946C4.00162 8.03709 4.03334 6.23118 5.06023 5.24839V5.24355ZM6.18388 7.87312C7.20861 8.94193 8.27205 9.96989 9.31453 11.0231C9.81632 10.5134 10.3228 10.007 10.8339 9.50376C9.82474 8.48709 8.8199 7.46075 7.79732 6.46021C7.47152 6.1086 6.91399 5.97634 6.48872 6.23011C5.89732 6.51666 5.7113 7.3957 6.18281 7.87365L6.18388 7.87312ZM16.2011 6.48709C14.2769 8.37634 12.3914 10.3043 10.4764 12.2043C10.9936 12.7048 11.5081 13.2075 12.0113 13.7215C12.3979 13.3403 12.7823 12.9548 13.1667 12.5694C13.5554 12.957 13.9419 13.3473 14.3333 13.7328C13.9538 14.1204 13.5715 14.5038 13.185 14.8871C14.2231 15.9312 15.2414 16.9952 16.314 18.0054C16.8581 18.5785 17.9145 18.2306 18.0715 17.4758C18.2398 16.9414 17.8565 16.4796 17.4941 16.1435C15.788 14.4457 14.0855 12.7443 12.3866 11.0392C12.7755 10.6514 13.1627 10.2622 13.5484 9.8715C13.935 10.257 14.3215 10.6425 14.7172 11.0215C15.7355 9.96666 16.814 8.96989 17.8167 7.89892C18.3226 7.40753 18.1199 6.4672 17.4753 6.20107C17.0414 5.97796 16.5129 6.13548 16.2005 6.48709H16.2011Z" fill="url(#paint0_linear_5_17952)"/>
</g>
<defs>
<linearGradient id="paint0_linear_5_17952" x1="12.0092" y1="19.9339" x2="12.0092" y2="4.44785" gradientUnits="userSpaceOnUse">
<stop stop-color="#2F75BB"/>
<stop offset="1" stop-color="#0A4185"/>
</linearGradient>
<clipPath id="clip0_5_17952">
<rect width="24" height="24" fill="white"/>
</clipPath>
</defs>
</svg>
