<svg width="24" height="24" viewBox="0 0 24 24" fill="none" xmlns="http://www.w3.org/2000/svg">
<g clip-path="url(#clip0_5_17891)">
<path d="M12.0176 23.0125C18.0899 23.0125 23.0125 18.0899 23.0125 12.0176C23.0125 5.94522 18.0899 1.02261 12.0176 1.02261C5.94522 1.02261 1.02261 5.94522 1.02261 12.0176C1.02261 18.0899 5.94522 23.0125 12.0176 23.0125Z" fill="white"/>
<path d="M12.6264 -1.90362e-06C10.2473 -0.128033 7.88386 0.454239 5.83649 1.6728C3.78913 2.89135 2.15032 4.69116 1.1284 6.84343C0.106477 8.9957 -0.252407 11.4032 0.0973662 13.76C0.44714 16.1167 1.48977 18.3162 3.09273 20.0789C4.69569 21.8416 6.78657 23.0879 9.0996 23.6593C11.4126 24.2307 13.8433 24.1015 16.0827 23.288C18.3221 22.4745 20.269 21.0136 21.676 19.0908C23.083 17.1681 23.8865 14.8704 23.9844 12.4898C24.107 9.3345 22.9853 6.25726 20.8608 3.92108C18.7364 1.58489 15.7792 0.176739 12.6264 -1.90362e-06ZM11.9629 19.8666C8.09887 19.8666 5.13254 15.9636 6.1083 12.2166C6.43847 11.062 6.95245 9.96818 7.6305 8.97707C8.77516 7.24222 10.068 5.60983 11.4945 4.09823C11.8458 3.70792 12.119 3.70792 12.4703 4.05919C14.1459 5.79493 15.613 7.72049 16.8418 9.79671C17.5443 11.0847 18.0907 12.4118 18.0517 13.8949C17.9868 15.4795 17.3214 16.98 16.1906 18.0919C15.0598 19.2039 13.5483 19.8439 11.9629 19.8823V19.8666Z" fill="#168DFF"/>
</g>
<defs>
<clipPath id="clip0_5_17891">
<rect width="24" height="24" fill="white"/>
</clipPath>
</defs>
</svg>
