<svg width="24" height="24" viewBox="0 0 24 24" fill="none" xmlns="http://www.w3.org/2000/svg">
<g clip-path="url(#clip0_5_17858)">
<path fill-rule="evenodd" clip-rule="evenodd" d="M24 12C24 18.6274 18.6274 24 12 24C5.37255 24 0 18.6274 0 12C0 5.37255 5.37255 0 12 0C18.6274 0 24 5.37255 24 12Z" fill="#282A2E"/>
<path fill-rule="evenodd" clip-rule="evenodd" d="M12 3.56149L10.2151 8.79469H13.785L12 3.56149Z" fill="#BB242B"/>
<path fill-rule="evenodd" clip-rule="evenodd" d="M13.785 9.40317L12 16.9081L10.2151 9.40317" fill="#CDCECA"/>
<path fill-rule="evenodd" clip-rule="evenodd" d="M19.8272 6.03175C20.9759 7.33339 21.655 8.93171 21.655 10.6608C21.655 15.0297 17.3323 18.5714 12 18.5714C6.66771 18.5714 2.34499 15.0297 2.34499 10.6608C2.34499 8.93171 3.02408 7.33339 4.17283 6.03175C2.48222 7.57856 1.45255 9.62864 1.45255 11.8778C1.45255 16.6948 6.17478 20.5998 12 20.5998C17.8253 20.5998 22.5475 16.6948 22.5475 11.8778C22.5475 9.62864 21.5178 7.57856 19.8272 6.03175ZM19.9298 9.5689C19.6555 6.25511 16.4652 3.611 12.4833 3.41177L12.9515 4.78455C16.2006 5.09907 18.887 7.00329 19.9298 9.5689ZM4.07027 9.5689C4.34455 6.25511 7.53482 3.611 11.5168 3.41177L11.0485 4.78455C7.79942 5.09907 5.11301 7.00329 4.07027 9.5689Z" fill="#CDCECA"/>
</g>
<defs>
<clipPath id="clip0_5_17858">
<rect width="24" height="24" fill="white"/>
</clipPath>
</defs>
</svg>
