<svg width="24" height="24" viewBox="0 0 24 24" fill="none" xmlns="http://www.w3.org/2000/svg">
<g clip-path="url(#clip0_5_17850)">
<path fill-rule="evenodd" clip-rule="evenodd" d="M24 12C24 18.6274 18.6274 24 12 24C5.37255 24 0 18.6274 0 12C0 5.37255 5.37255 0 12 0C18.6274 0 24 5.37255 24 12Z" fill="#FFFFFE"/>
<path fill-rule="evenodd" clip-rule="evenodd" d="M12 22.9171C5.98031 22.9171 1.08285 18.0197 1.08285 12C1.08285 5.98024 5.98031 1.08285 12 1.08285C18.0197 1.08285 22.9171 5.98024 22.9171 12C22.9171 18.0197 18.0197 22.9171 12 22.9171ZM12 0C5.37255 0 0 5.37255 0 12C0 18.6274 5.37255 24 12 24C18.6274 24 24 18.6274 24 12C24 5.37255 18.6274 0 12 0Z" fill="#3A3A39"/>
<path fill-rule="evenodd" clip-rule="evenodd" d="M17.5489 11.502C17.4395 11.502 17.3281 11.4843 17.2188 11.4469L6.12114 7.65919C5.58711 7.47687 5.30202 6.89623 5.48428 6.3622C5.66653 5.82817 6.24731 5.54308 6.78127 5.72534L17.8788 9.51309C18.4129 9.69541 18.698 10.2761 18.5157 10.8101C18.3708 11.2347 17.9739 11.502 17.5489 11.502Z" fill="#4FA2CD"/>
<path fill-rule="evenodd" clip-rule="evenodd" d="M17.5489 14.9159C17.4394 14.9159 17.3281 14.8982 17.2188 14.8609L6.12114 11.073C5.58711 10.8908 5.30202 10.3101 5.48428 9.77603C5.66653 9.24206 6.24717 8.95678 6.78127 9.13917L17.8788 12.927C18.4129 13.1092 18.698 13.69 18.5157 14.224C18.3708 14.6486 17.9739 14.9159 17.5489 14.9159Z" fill="#4365A1"/>
<path fill-rule="evenodd" clip-rule="evenodd" d="M17.5489 18.3298C17.4395 18.3298 17.3281 18.312 17.2188 18.2747L6.12114 14.4869C5.58711 14.3046 5.30202 13.7239 5.48428 13.1899C5.66653 12.6559 6.24731 12.3709 6.78127 12.553L17.8788 16.3408C18.4129 16.5231 18.698 17.1038 18.5157 17.6378C18.3708 18.0624 17.9739 18.3298 17.5489 18.3298Z" fill="#3D2C78"/>
</g>
<defs>
<clipPath id="clip0_5_17850">
<rect width="24" height="24" fill="white"/>
</clipPath>
</defs>
</svg>
