<svg width="24" height="24" viewBox="0 0 24 24" fill="none" xmlns="http://www.w3.org/2000/svg">
<g clip-path="url(#clip0_5_17846)">
<path d="M12 24C18.6274 24 24 18.6274 24 12C24 5.37258 18.6274 0 12 0C5.37258 0 0 5.37258 0 12C0 18.6274 5.37258 24 12 24Z" fill="#DF1A14"/>
<path d="M11.145 8.64523C11.3752 8.57248 11.637 8.70223 11.7322 8.92873C11.9625 9.45523 12.1687 9.99748 12.4072 10.5232C12.5497 10.839 13.035 10.8795 13.2247 10.5885C13.5427 10.062 13.797 9.50323 14.1067 8.96848C14.361 8.63698 14.8215 8.79898 15.171 8.76673C15.5362 8.74273 15.8062 9.20398 15.5992 9.51973C14.5987 11.3895 13.5907 13.2517 12.5902 15.1222C12.423 15.462 11.8755 15.462 11.7247 15.1057C11.502 14.5635 11.3272 13.9965 11.1127 13.4542C10.9852 13.098 10.4377 13.0417 10.2555 13.3815C9.94574 13.9402 9.67574 14.523 9.36599 15.0735C9.21524 15.324 8.89724 15.2835 8.65124 15.2835C8.41274 15.2677 8.12699 15.3405 7.94474 15.138C7.8649 15.0553 7.81457 14.9486 7.80155 14.8345C7.78853 14.7203 7.81356 14.605 7.87274 14.5065C8.81024 12.7335 9.76274 10.953 10.7002 9.16348C10.8112 8.96098 10.9065 8.70973 11.145 8.64598V8.64523ZM7.87274 8.78323C8.15051 8.76703 8.42898 8.76703 8.70674 8.78323C9.01649 8.81548 9.21524 9.21223 9.06449 9.49573C8.13449 11.2522 7.19774 13.0005 6.26924 14.7495C6.15749 14.9445 6.07049 15.2032 5.83199 15.267C5.55449 15.3082 5.26874 15.2842 4.99049 15.2842C4.64924 15.3 4.36349 14.8545 4.56974 14.5552C5.53874 12.7417 6.50699 10.92 7.47599 9.09898C7.55549 8.94523 7.69049 8.79148 7.87349 8.78323H7.87274ZM17.7277 8.79898C18.0292 8.70973 18.3472 8.77498 18.657 8.75023C18.8947 8.75848 19.197 8.70973 19.3717 8.92048C19.5862 9.13948 19.5217 9.55198 19.2517 9.68998C18.7042 10.038 18.1642 10.41 17.6092 10.7505C17.259 10.9927 16.743 10.5802 16.8937 10.1752C17.0287 9.85123 17.2192 9.55273 17.3707 9.23623C17.4577 9.07423 17.5372 8.86423 17.7277 8.79898ZM15.099 13.6402C15.258 13.5427 15.4567 13.5757 15.6075 13.6567C16.0282 13.8667 16.449 14.094 16.878 14.2965C17.061 14.3775 17.2515 14.5312 17.259 14.7495C17.2912 15.0412 17.0445 15.324 16.7587 15.3C16.1475 15.3 15.5362 15.3075 14.9325 15.3C14.631 15.3 14.3925 14.9437 14.5035 14.6527C14.583 14.442 14.7022 14.2552 14.7975 14.0527C14.8687 13.8997 14.94 13.713 15.099 13.6402Z" fill="white"/>
</g>
<defs>
<clipPath id="clip0_5_17846">
<rect width="24" height="24" fill="white"/>
</clipPath>
</defs>
</svg>
