<svg width="24" height="24" viewBox="0 0 24 24" fill="none" xmlns="http://www.w3.org/2000/svg">
<g clip-path="url(#clip0_5_17840)">
<path d="M15.6137 0.565521V4.87357C18.2875 6.23908 19.9711 8.98391 19.9757 11.9908C19.9757 14.9977 18.292 17.7471 15.6137 19.1126V23.4023C20.5825 21.8207 23.9589 17.2092 23.9681 11.9908C23.9635 6.76782 20.5871 2.14713 15.6137 0.565521ZM8.35437 0.579314C3.38555 2.15633 0.00456274 6.77242 0 11.9908C0 17.2138 3.38099 21.8299 8.35437 23.4115V19.1035C5.68061 17.7379 3.99696 14.9931 3.9924 11.9862C3.9924 8.97931 5.67605 6.22529 8.35437 4.86437V0.579314Z" fill="#3D92EF"/>
<path d="M11.9817 0C11.1011 0.0045977 10.2251 0.110345 9.3673 0.308046V4.44598C10.2068 4.14713 11.092 3.9954 11.9817 3.9908C12.8715 3.9954 13.7567 4.14713 14.5962 4.44138V0.298851C13.7384 0.105747 12.8624 0.0045977 11.9817 0ZM15.6137 0.565517V4.86437V0.565517ZM8.35437 0.57931V4.87356V0.57931ZM11.9817 7.81149C11.0281 7.81149 10.1065 8.14253 9.3673 8.74023V15.2368C10.1065 15.8345 11.0327 16.1655 11.9817 16.1655C12.9354 16.1655 13.857 15.8345 14.5962 15.2368V8.74023C13.857 8.14253 12.9354 7.81149 11.9817 7.81149ZM8.35437 9.92644V14.046V9.92644ZM15.6137 9.93104V14.0506V9.93104ZM15.6137 19.1034V23.4023V19.1034ZM8.35437 19.1126V23.4115V19.1126ZM14.6008 19.531C13.7612 19.8299 12.876 19.9816 11.9863 19.9862C11.0966 19.9816 10.2114 19.8299 9.37186 19.5356V23.6782C10.2297 23.8759 11.1057 23.9724 11.9863 23.977C12.8669 23.9724 13.743 23.8667 14.6008 23.669V19.531Z" fill="#81BFFF"/>
<path d="M11.9817 10.7264C11.1011 10.731 10.2251 10.7862 9.36273 10.8966V23.692C10.2205 23.7977 11.1011 23.8529 11.9817 23.8575C12.8624 23.8529 13.7384 23.7977 14.5962 23.6874V10.892C13.7384 10.7862 12.8624 10.731 11.9817 10.7264ZM15.6137 11.0391V23.5402V11.0391Z" fill="#81BFFF"/>
</g>
<defs>
<clipPath id="clip0_5_17840">
<rect width="24" height="24" fill="white"/>
</clipPath>
</defs>
</svg>
