<svg width="24" height="24" viewBox="0 0 24 24" fill="none" xmlns="http://www.w3.org/2000/svg">
<g clip-path="url(#clip0_5_17778)">
<path d="M7.28397 17.3928L1.77837 18.012L5.01117 10.5528L1.70157 6.04081L9.74877 5.12401L11.9352 0.0960083L16.7256 6.60721L22.2312 5.98801L19.0128 13.4112L22.2984 17.892L14.292 18.804L12.072 23.904L7.28397 17.3928ZM9.57117 16.8984C9.35997 17.0016 9.13437 17.088 8.90157 17.1528L8.69037 17.2104L11.7936 21.4296L12.8952 18.8952L12.696 18.8688C11.6112 18.732 10.6248 18.1464 9.98877 17.268L9.67917 16.8408L9.57117 16.8984ZM8.49117 13.0728L10.9944 16.536C11.5032 17.2392 12.3264 17.6592 13.1952 17.6592C13.296 17.6592 13.3968 17.6544 13.4952 17.6424L20.028 16.8984L17.4264 13.3488C17.2968 13.1736 17.148 13.0152 16.9824 12.876L16.8288 12.7488L14.9664 16.956L11.7264 12.6672L8.49117 13.0728ZM8.59917 8.85601C7.62957 8.95921 6.78477 9.58081 6.39597 10.4784L3.77277 16.5336L8.13117 16.044C8.34717 16.02 8.55837 15.9696 8.76237 15.8952L8.94957 15.8256L6.25197 12.1008L11.5704 11.4264L12.8352 8.40481L8.59917 8.85601ZM12.7152 11.9112L14.6856 14.52L15.888 11.8056L16.416 10.6104C16.812 9.71521 16.6992 8.67121 16.1184 7.88401L12.2136 2.57041L10.4568 6.60721C10.3704 6.80641 10.308 7.01521 10.2696 7.23121L10.236 7.42801L14.7936 6.94561L12.7152 11.9112ZM17.5032 7.77361L17.58 7.95841C18.0024 8.96881 17.9928 10.1208 17.5512 11.1168L17.3376 11.5968L17.4408 11.6664C17.6376 11.7984 17.8224 11.952 17.9928 12.1224L18.1488 12.276L20.2344 7.46401L17.5032 7.77361ZM3.97197 7.03441L5.63277 9.30001L5.75517 9.14161C6.41517 8.28481 7.40637 7.72801 8.46957 7.61521L8.99037 7.56001L8.99997 7.43281C9.01677 7.17121 9.06237 6.90961 9.13197 6.65521L9.19197 6.43921L3.97197 7.03441Z" fill="url(#paint0_linear_5_17778)"/>
<path d="M10.8384 24C7.38239 23.6664 4.27679 21.8688 2.24399 19.02L3.63599 18.864C3.86639 19.1472 4.11119 19.4184 4.36319 19.6728C5.87279 21.1896 7.76159 22.212 9.83279 22.6344L10.8384 24Z" fill="url(#paint1_linear_5_17778)"/>
<path d="M13.7376 22.7112C15.9792 22.3488 18.0168 21.3 19.6368 19.6728C19.7808 19.5264 19.9272 19.3704 20.0736 19.2072L21.7608 19.0152C19.7352 21.8616 16.6344 23.6616 13.1784 24L13.7376 22.7112Z" fill="url(#paint2_linear_5_17778)"/>
<path d="M22.104 15.8472C22.5648 14.6208 22.8 13.3272 22.8 12C22.8 10.8288 22.6152 9.67677 22.2528 8.57757L22.9296 7.01758C23.64 8.58477 24 10.26 24 12C24 13.7376 23.64 15.4104 22.932 16.9775L22.104 15.8472Z" fill="url(#paint3_linear_5_17778)"/>
<path d="M1.0752 16.9943C0.3624 15.4223 0 13.7447 0 12C0 10.2456 0.3648 8.55836 1.0872 6.98157L1.9128 8.10956C1.44 9.34796 1.2 10.656 1.2 12C1.2 13.1759 1.3848 14.3303 1.7496 15.4343L1.0752 16.9943Z" fill="url(#paint4_linear_5_17778)"/>
<path d="M2.29443 4.9104C4.32483 2.1072 7.40643 0.3312 10.8312 0L10.272 1.2864C8.02803 1.6464 5.98563 2.6976 4.36323 4.3272C4.24083 4.4496 4.11843 4.5816 3.99603 4.716L2.29443 4.9104Z" fill="url(#paint5_linear_5_17778)"/>
<path d="M20.3664 5.136C20.136 4.8528 19.8912 4.5816 19.6368 4.3272C18.1296 2.8128 16.2432 1.7904 14.1768 1.368L13.1712 0C16.6248 0.336 19.7256 2.1336 21.756 4.98L20.3664 5.136Z" fill="url(#paint6_linear_5_17778)"/>
</g>
<defs>
<linearGradient id="paint0_linear_5_17778" x1="2.30631" y1="21.6601" x2="21.0258" y2="2.94055" gradientUnits="userSpaceOnUse">
<stop stop-color="#009DDE"/>
<stop offset="0.5" stop-color="#694D9F"/>
<stop offset="1" stop-color="#ED3554"/>
</linearGradient>
<linearGradient id="paint1_linear_5_17778" x1="4.34873" y1="23.7025" x2="23.0682" y2="4.98296" gradientUnits="userSpaceOnUse">
<stop stop-color="#009DDE"/>
<stop offset="0.5" stop-color="#694D9F"/>
<stop offset="1" stop-color="#ED3554"/>
</linearGradient>
<linearGradient id="paint2_linear_5_17778" x1="9.68945" y1="29.0432" x2="28.409" y2="10.3236" gradientUnits="userSpaceOnUse">
<stop stop-color="#009DDE"/>
<stop offset="0.5" stop-color="#694D9F"/>
<stop offset="1" stop-color="#ED3554"/>
</linearGradient>
<linearGradient id="paint3_linear_5_17778" x1="7.78734" y1="27.141" x2="26.5068" y2="8.42146" gradientUnits="userSpaceOnUse">
<stop stop-color="#009DDE"/>
<stop offset="0.5" stop-color="#694D9F"/>
<stop offset="1" stop-color="#ED3554"/>
</linearGradient>
<linearGradient id="paint4_linear_5_17778" x1="-3.14226" y1="16.2114" x2="15.5772" y2="-2.50812" gradientUnits="userSpaceOnUse">
<stop stop-color="#009DDE"/>
<stop offset="0.5" stop-color="#694D9F"/>
<stop offset="1" stop-color="#ED3554"/>
</linearGradient>
<linearGradient id="paint5_linear_5_17778" x1="-5.04038" y1="14.3133" x2="13.6791" y2="-4.40621" gradientUnits="userSpaceOnUse">
<stop stop-color="#009DDE"/>
<stop offset="0.5" stop-color="#694D9F"/>
<stop offset="1" stop-color="#ED3554"/>
</linearGradient>
<linearGradient id="paint6_linear_5_17778" x1="0.299938" y1="19.6537" x2="19.0195" y2="0.934144" gradientUnits="userSpaceOnUse">
<stop stop-color="#009DDE"/>
<stop offset="0.5" stop-color="#694D9F"/>
<stop offset="1" stop-color="#ED3554"/>
</linearGradient>
<clipPath id="clip0_5_17778">
<rect width="24" height="24" fill="white"/>
</clipPath>
</defs>
</svg>
