<svg width="24" height="24" viewBox="0 0 24 24" fill="none" xmlns="http://www.w3.org/2000/svg">
<path d="M6.9793 10.2826H6.9901L7.17372 10.3474L7.34654 10.4122L7.53015 10.4662L7.70297 10.5418L7.88659 10.6066L8.05941 10.6714L8.24302 10.7363L8.41584 10.8011L8.58866 10.8659L8.76148 10.9307L8.9451 10.9955L9.11791 11.0711L9.30153 11.1251L9.47435 11.1899L9.65797 11.2547L9.83078 11.3303L10.0144 11.3951L10.1872 11.4491L10.36 11.5139L10.5437 11.5895L10.7273 11.6543V11.3735V11.3303V11.1035V10.9415V10.8227V10.5418V10.2718V9.99098V9.72095V9.42932V9.1593V9.12689H10.5113H10.306H10.2844H10.0576H9.88479H9.81998H9.59316H9.47435H9.35554H9.11791H9.05311H8.89109H8.66427H8.65347H8.64266H8.42664H8.23222H8.19982H7.9622H7.81098H7.40054H6.9901H6.9793H6.74167L6.56886 9.2133L6.15842 9.42932L5.73717 9.65615L5.31593 9.86137L4.91629 10.0774L4.49505 10.3042L4.07381 10.5094L3.66337 10.7363L3.24212 10.9523L2.83168 11.1575L2.42124 11.3843L2.0432 11.5787L2 17.7678L2.42124 18.0594L2.83168 18.351L3.24212 18.6318L3.66337 18.9343L4.07381 19.2259L4.49505 19.5175L4.67867 19.6579L4.91629 19.3555L5.31593 18.8155L5.35914 18.7615L5.31593 18.7291L4.91629 18.4374L4.49505 18.1458L4.07381 17.8542L3.66337 17.5625L3.24212 17.2601L3.13411 17.1953L3.16652 12.1836L3.24212 12.1404L3.66337 11.9352L4.07381 11.73L4.49505 11.5247L4.91629 11.3195L5.31593 11.1035L5.73717 10.8983L6.15842 10.7038L6.56886 10.4878L6.9793 10.2826Z" fill="url(#paint0_linear_5_17586)"/>
<path d="M14.1296 22.0882L13.784 22.2286L13.3951 22.3906L13.0063 22.5418L12.6175 22.7038L12.4446 22.7686L12.2394 22.6714L11.8506 22.4662L11.4617 22.2826L11.0837 22.0774L10.6949 21.883L10.306 21.6993L9.91719 21.4941L9.52835 21.2997L9.13951 21.1053L8.75067 20.9109L8.36183 20.7056L7.99459 20.522L7.60576 20.3276L7.56255 20.306V15.2511H7.21692H6.82808H6.43924V20.9973L6.82808 21.1809L7.21692 21.3753L7.60576 21.5805L7.99459 21.7641L8.36183 21.9694L8.75067 22.1638L9.13951 22.3582L9.52835 22.5526L9.91719 22.747L10.306 22.9415L10.6949 23.1359L11.0837 23.3411L11.4617 23.5247L11.8506 23.7299L12.2394 23.9136L12.3906 24L12.6175 23.8919L13.0063 23.7515L13.3951 23.5895L13.784 23.4275L14.162 23.2763L14.5508 23.1251L14.162 22.153L14.1296 22.0882Z" fill="url(#paint1_linear_5_17586)"/>
<path d="M21.0315 15.0675L21.0531 17.4438L20.9559 17.5302L20.297 17.9838L19.6382 18.4591L18.9793 18.9343L18.3204 19.3988L17.6616 19.8632L17.0135 20.3385L16.3546 20.8029L15.9658 21.0837L15.6958 20.8785L15.0477 20.3709L14.3888 19.874L13.73 19.3664L13.0819 18.8695L12.9631 18.7831V16.2232L13.0819 16.1152L13.73 15.424L14.3888 14.7435L15.0477 14.0522L15.6958 13.3718L16.333 12.7021H15.6958H15.0477H14.3888H13.73H13.0819H12.4122H11.7534H11.1053H10.4464H9.78758H9.13952H8.48065L9.13952 13.3934L9.78758 14.0738L10.4464 14.7543L11.1053 15.4456L11.7534 16.126L11.8506 16.2232V19.3232L12.4122 19.766L13.0819 20.2736L13.73 20.7705L14.3888 21.2782L15.0477 21.775L15.6958 22.2827L15.9334 22.4663L16.3546 22.1638L17.0135 21.7102L17.6616 21.2349L18.3204 20.7597L18.9793 20.3061L19.6382 19.8308L20.297 19.3556L20.9559 18.9019L21.6148 18.4267L22.1548 18.027L22.2628 15.1107L21.6148 15.0891L21.0315 15.0675Z" fill="url(#paint2_linear_5_17586)"/>
<path d="M3.0693 9.53731H3.1449L3.15571 6.36179L3.57695 6.09177L4.1062 5.77853L4.62465 5.4653L5.14311 5.14127L5.66156 4.82804L6.19081 4.50401L6.69846 4.19078L7.22772 3.87754L7.74617 3.55351L8.27542 3.22948H8.28622L8.78307 3.52111L9.31233 3.81274L9.83078 4.11517L10.3492 4.4068L10.8677 4.69843L11.3861 4.99006L11.9046 5.29249L12.4122 5.58412L12.4338 5.54091L12.9523 4.60122L12.4338 4.29879L11.9046 4.00716L11.3861 3.71553L10.8677 3.4239L10.3492 3.12147L9.83078 2.82984L9.31233 2.53821L8.78307 2.23578L8.27542 1.94415L8.25382 1.93335L7.74617 2.23578L7.22772 2.55981L6.69846 2.88384L6.19081 3.20788L5.66156 3.52111L5.14311 3.83434L4.62465 4.15837L4.1062 4.4716L3.57695 4.79564L3.0693 5.10887L2.54004 5.4221L2.04319 5.73533L2.02159 9.52651H2.54004L3.0693 9.53731Z" fill="url(#paint3_linear_5_17586)"/>
<path d="M23.3753 6.63184L23.1053 6.41582L22.8353 6.1998L22.5653 5.97298L22.2952 5.75696L22.0252 5.54093L21.7444 5.32491L21.4744 5.10889L21.2043 4.89287L20.9235 4.66605L20.7183 4.51483L20.6427 4.60124L20.3726 4.93607L20.1026 5.28171L20.027 5.36812L20.1026 5.44372L20.3726 5.67055L20.6427 5.89737L20.9235 6.12419L21.2043 6.35102L21.4744 6.58864L21.7444 6.81546L22.0252 7.04228L22.1548 7.1503L22.1656 12.2592L22.0252 12.3564L21.7444 12.5292L21.4744 12.7021L21.2043 12.8749L20.9235 13.0477L20.6427 13.2205L20.3726 13.3933L20.1026 13.5661L19.8326 13.739L19.5626 13.9118L19.2925 14.0846L19.0117 14.2574L18.7417 14.4302L18.4717 14.603L18.2016 14.7759L17.9208 14.9487L17.6508 15.1215L17.9208 15.5535L18.2016 15.9856L18.2448 16.0612L18.4717 15.9208L18.7417 15.7588L19.0117 15.5859L19.2925 15.4239L19.5626 15.2403L19.8326 15.0783L20.1026 14.9055L20.3726 14.7435L20.6427 14.5706L20.9235 14.4086L21.2043 14.225L21.4744 14.063L21.7444 13.8902L22.0252 13.7282L22.2952 13.5553L22.5653 13.3933L22.8353 13.2097L23.1053 13.0477L23.3753 12.8749V6.63184Z" fill="url(#paint4_linear_5_17586)"/>
<path d="M14.4644 9.67777V9.9586V10.2394V10.5203V10.8119V11.1035V11.3843V11.6652V11.8812L14.5508 11.8488L14.9181 11.7084L15.2853 11.5572L15.6418 11.4167L16.009 11.2655L16.3762 11.1143L16.7327 10.9739L17.0999 10.8227L17.4671 10.6823L17.8236 10.5311L18.1908 10.3906L18.5472 10.2394V9.9586V9.85058V9.10531V3.55356L18.1368 3.29433L17.7156 3.05671L17.2943 2.81908L16.8839 2.55986L16.4626 2.32223L16.0414 2.08461L15.631 1.83618L15.2097 1.58776L14.7993 1.33933L14.378 1.10171L13.9568 0.853285L13.5463 0.60486L13.1359 0.367237L12.7147 0.129613L12.4878 0L12.2934 0.108011L11.8722 0.334834L11.4509 0.550855L11.0513 0.788479L10.6301 1.0153L10.2088 1.23132L9.78757 1.46895L10.2088 1.70657L10.6301 1.94419L10.8893 2.10621L11.0513 2.0198L11.4509 1.80378L11.8722 1.57696L12.2934 1.36094L12.4554 1.27453L12.7147 1.42574L13.1359 1.66337L13.5463 1.90099L13.9568 2.14942L14.378 2.39784L14.7993 2.63546L15.2097 2.88389L15.631 3.13231L16.0414 3.36994L16.4626 3.60756L16.8839 3.86679L17.2943 4.10441L17.4347 4.18002V9.10531H17.3375H17.2943H17.0999H16.8839H16.8623H16.6139H16.4626H16.3762H16.1386H16.0414H15.901H15.6634H15.631H15.4257H15.2097H15.1881H14.9397H14.7993H14.7021H14.5184H14.486" fill="url(#paint5_linear_5_17586)"/>
<path d="M14.4644 11.8812L18.5472 10.2394L14.4644 9.10529" fill="url(#paint6_linear_5_17586)"/>
<path d="M10.7273 11.8812V9.14856L6.99008 10.2611L10.7273 11.8704" fill="url(#paint7_linear_5_17586)"/>
<defs>
<linearGradient id="paint0_linear_5_17586" x1="6.36094" y1="9.13013" x2="6.36094" y2="19.6536" gradientUnits="userSpaceOnUse">
<stop stop-color="#F6E93D"/>
<stop offset="0.13" stop-color="#F8E330"/>
<stop offset="0.35" stop-color="#F7C730"/>
<stop offset="0.64" stop-color="#F59C2E"/>
<stop offset="0.98" stop-color="#EB5E2C"/>
<stop offset="1" stop-color="#EB5C2C"/>
</linearGradient>
<linearGradient id="paint1_linear_5_17586" x1="10.4967" y1="15.2554" x2="10.4967" y2="23.9989" gradientUnits="userSpaceOnUse">
<stop stop-color="#F6E93D"/>
<stop offset="0.13" stop-color="#F8E330"/>
<stop offset="0.35" stop-color="#F7C730"/>
<stop offset="0.64" stop-color="#F59C2E"/>
<stop offset="0.98" stop-color="#EB5E2C"/>
<stop offset="1" stop-color="#EB5C2C"/>
</linearGradient>
<linearGradient id="paint2_linear_5_17586" x1="15.3712" y1="12.701" x2="15.3712" y2="22.4695" gradientUnits="userSpaceOnUse">
<stop stop-color="#F6E93D"/>
<stop offset="0.13" stop-color="#F8E330"/>
<stop offset="0.35" stop-color="#F7C730"/>
<stop offset="0.64" stop-color="#F59C2E"/>
<stop offset="0.98" stop-color="#EB5E2C"/>
<stop offset="1" stop-color="#EB5C2C"/>
</linearGradient>
<linearGradient id="paint3_linear_5_17586" x1="7.4864" y1="1.93659" x2="7.4864" y2="9.53839" gradientUnits="userSpaceOnUse">
<stop stop-color="#F6E93D"/>
<stop offset="0.13" stop-color="#F8E330"/>
<stop offset="0.35" stop-color="#F7C730"/>
<stop offset="0.64" stop-color="#F59C2E"/>
<stop offset="0.98" stop-color="#EB5E2C"/>
<stop offset="1" stop-color="#EB5C2C"/>
</linearGradient>
<linearGradient id="paint4_linear_5_17586" x1="20.5174" y1="4.51267" x2="20.5174" y2="16.0623" gradientUnits="userSpaceOnUse">
<stop stop-color="#F6E93D"/>
<stop offset="0.13" stop-color="#F8E330"/>
<stop offset="0.35" stop-color="#F7C730"/>
<stop offset="0.64" stop-color="#F59C2E"/>
<stop offset="0.98" stop-color="#EB5E2C"/>
<stop offset="1" stop-color="#EB5C2C"/>
</linearGradient>
<linearGradient id="paint5_linear_5_17586" x1="14.1663" y1="0" x2="14.1663" y2="11.8844" gradientUnits="userSpaceOnUse">
<stop stop-color="#F6E93D"/>
<stop offset="0.13" stop-color="#F8E330"/>
<stop offset="0.35" stop-color="#F7C730"/>
<stop offset="0.64" stop-color="#F59C2E"/>
<stop offset="0.98" stop-color="#EB5E2C"/>
<stop offset="1" stop-color="#EB5C2C"/>
</linearGradient>
<linearGradient id="paint6_linear_5_17586" x1="16.5015" y1="9.11285" x2="16.5015" y2="11.8876" gradientUnits="userSpaceOnUse">
<stop stop-color="#F6E93D"/>
<stop offset="0.13" stop-color="#F8E330"/>
<stop offset="0.35" stop-color="#F7C730"/>
<stop offset="0.64" stop-color="#F59C2E"/>
<stop offset="0.98" stop-color="#EB5E2C"/>
<stop offset="1" stop-color="#EB5C2C"/>
</linearGradient>
<linearGradient id="paint7_linear_5_17586" x1="8.81361" y1="11.1951" x2="9.69497" y2="8.77348" gradientUnits="userSpaceOnUse">
<stop stop-color="#F6E93D"/>
<stop offset="0.13" stop-color="#F8E330"/>
<stop offset="0.35" stop-color="#F7C730"/>
<stop offset="0.64" stop-color="#F59C2E"/>
<stop offset="0.98" stop-color="#EB5E2C"/>
<stop offset="1" stop-color="#EB5C2C"/>
</linearGradient>
</defs>
</svg>
