<svg width="24" height="24" viewBox="0 0 24 24" fill="none" xmlns="http://www.w3.org/2000/svg">
<g clip-path="url(#clip0_5_17537)">
<path d="M12.0516 0C15.7177 5.01312 19.35 10.0541 23.016 15.0692C19.36 18.0402 15.7092 21.0171 12.0635 24C8.35763 21.027 4.66799 18.0382 0.959991 15.0692C4.66975 10.056 8.36695 5.03296 12.0516 0ZM5.54159 14.484C7.15811 15.772 8.75483 17.0819 10.3754 18.364C10.3794 14.8789 10.3913 11.392 10.3694 7.905C8.77871 10.1117 7.14227 12.2848 5.54159 14.484ZM13.7317 7.96056C13.7237 11.4238 13.7237 14.8882 13.7317 18.354C15.2966 17.046 16.8934 15.778 18.4643 14.478C16.8834 12.3066 15.2986 10.14 13.7317 7.96032V7.96056Z" fill="#3D82F3"/>
</g>
<defs>
<clipPath id="clip0_5_17537">
<rect width="24" height="24" fill="white"/>
</clipPath>
</defs>
</svg>
