<svg width="24" height="24" viewBox="0 0 24 24" fill="none" xmlns="http://www.w3.org/2000/svg">
<mask id="mask0_5_17521" style="mask-type:alpha" maskUnits="userSpaceOnUse" x="1" y="0" width="22" height="24">
<path d="M22.6047 7.17771C22.6042 6.85496 22.2509 6.65683 21.9754 6.82472L13.8572 11.4671C13.9506 11.6948 14.0029 11.9437 14.0029 12.2051C14.0029 12.4129 13.9697 12.6127 13.9095 12.8005L16.1827 14.0008C16.5394 13.5431 17.0944 13.2476 17.7195 13.2476C18.7959 13.2476 19.6684 14.1202 19.6684 15.1965C19.6684 16.2729 18.7959 17.1455 17.7195 17.1455C16.6431 17.1455 15.7705 16.2729 15.7705 15.1965C15.7705 14.9888 15.8037 14.789 15.8639 14.6012L13.5907 13.401C13.3114 13.7594 12.9108 14.0186 12.4494 14.1138L12.3073 23.5686C12.2983 23.8928 12.6488 24.1009 12.9292 23.938L22.6193 18.3051L22.6047 7.17771ZM10.525 13.4114L8.33017 14.5891C8.39292 14.7804 8.42804 14.9842 8.42804 15.1965C8.42804 16.2729 7.55547 17.1455 6.47905 17.1455C5.40274 17.1455 4.53017 16.2729 4.53017 15.1965C4.53017 14.1202 5.40274 13.2476 6.47905 13.2476C7.09957 13.2476 7.65111 13.5385 8.00804 13.9903L10.2029 12.8126C10.1401 12.6213 10.105 12.4174 10.105 12.2051C10.105 11.9413 10.1581 11.69 10.2531 11.4604L2.08622 6.74285C1.80996 6.57298 1.45448 6.77241 1.45542 7.09672L1.48861 18.3051L11.1325 23.856C11.4122 24.017 11.7604 23.8102 11.7528 23.4875L11.6508 14.1118C11.197 14.0163 10.8024 13.7625 10.525 13.4114ZM11.714 10.2877C11.3189 10.3573 10.9648 10.5448 10.6901 10.8141L2.4337 6.30316C2.15048 6.14841 2.14544 5.74342 2.42477 5.58166L12.054 0.0052948L21.7772 5.58078C22.0586 5.74213 22.0536 6.14966 21.7683 6.304L13.4229 10.8187C13.1475 10.5468 12.7914 10.3578 12.3939 10.2877V7.86784C13.3079 7.7067 14.0029 6.91059 14.0029 5.95039C14.0029 4.87407 13.1303 4.00145 12.054 4.00145C10.9776 4.00145 10.105 4.87407 10.105 5.95039C10.105 6.91059 10.8 7.7067 11.714 7.86784V10.2877Z" fill="white"/>
</mask>
<g mask="url(#mask0_5_17521)">
<path fill-rule="evenodd" clip-rule="evenodd" d="M22.6047 7.17771C22.6042 6.85496 22.2509 6.65683 21.9754 6.82472L13.8572 11.4671C13.9506 11.6948 14.0029 11.9437 14.0029 12.2051C14.0029 12.4129 13.9697 12.6127 13.9095 12.8005L16.1827 14.0008C16.5394 13.5431 17.0944 13.2476 17.7195 13.2476C18.7959 13.2476 19.6684 14.1202 19.6684 15.1965C19.6684 16.2729 18.7959 17.1455 17.7195 17.1455C16.6431 17.1455 15.7705 16.2729 15.7705 15.1965C15.7705 14.9888 15.8037 14.789 15.8639 14.6012L13.5907 13.401C13.3114 13.7594 12.9108 14.0186 12.4494 14.1138L12.3073 23.5686C12.2983 23.8928 12.6488 24.1009 12.9292 23.938L22.6193 18.3051L22.6047 7.17771ZM10.525 13.4114L8.33017 14.5891C8.39292 14.7804 8.42804 14.9842 8.42804 15.1965C8.42804 16.2729 7.55547 17.1455 6.47905 17.1455C5.40274 17.1455 4.53017 16.2729 4.53017 15.1965C4.53017 14.1202 5.40274 13.2476 6.47905 13.2476C7.09957 13.2476 7.65111 13.5385 8.00804 13.9903L10.2029 12.8126C10.1401 12.6213 10.105 12.4174 10.105 12.2051C10.105 11.9413 10.1581 11.69 10.2531 11.4604L2.08622 6.74285C1.80996 6.57298 1.45448 6.77241 1.45542 7.09672L1.48861 18.3051L11.1325 23.856C11.4122 24.017 11.7604 23.8102 11.7528 23.4875L11.6508 14.1118C11.197 14.0163 10.8024 13.7625 10.525 13.4114ZM11.714 10.2877C11.3189 10.3573 10.9648 10.5448 10.6901 10.8141L2.4337 6.30316C2.15048 6.14841 2.14544 5.74342 2.42477 5.58166L12.054 0.0052948L21.7772 5.58078C22.0586 5.74213 22.0536 6.14966 21.7683 6.304L13.4229 10.8187C13.1475 10.5468 12.7914 10.3578 12.3939 10.2877V7.86784C13.3079 7.7067 14.0029 6.91059 14.0029 5.95039C14.0029 4.87407 13.1303 4.00145 12.054 4.00145C10.9776 4.00145 10.105 4.87407 10.105 5.95039C10.105 6.91059 10.8 7.7067 11.714 7.86784V10.2877Z" fill="url(#paint0_linear_5_17521)"/>
</g>
<defs>
<linearGradient id="paint0_linear_5_17521" x1="4.11015" y1="6.29599" x2="21.4313" y2="16.2964" gradientUnits="userSpaceOnUse">
<stop stop-color="#F75B60"/>
<stop offset="1" stop-color="#F14F1B"/>
</linearGradient>
</defs>
</svg>
