<svg width="24" height="24" viewBox="0 0 24 24" fill="none" xmlns="http://www.w3.org/2000/svg">
<g clip-path="url(#clip0_5_17454)">
<path d="M10.5043 0.652697C11.2496 -0.184303 12.6856 -0.202903 13.4545 0.610457C13.939 1.05002 14.0508 1.72646 14.0682 2.34782C13.7962 1.92686 13.6024 1.43582 13.2061 1.10846C12.4757 0.498737 11.267 0.559577 10.6224 1.26746C10.3104 1.6139 10.1516 2.05946 9.91812 2.45714C9.92928 1.81754 10.0249 1.12214 10.5043 0.652697ZM8.15544 5.24882C9.48336 6.80366 10.6957 8.45522 12.0061 10.0248C13.3092 8.45282 14.5364 6.81962 15.8482 5.25362C15.7028 5.89322 15.4928 6.52034 15.4042 7.17098C15.3508 7.49498 15.5346 7.78814 15.6725 8.0663C17.0798 10.6463 18.4445 13.251 19.8388 15.8377C20.0698 16.3221 20.6461 16.6288 21.1679 16.4351C21.64 16.3009 21.8519 15.8179 22.0312 15.4068C23.1044 12.8735 23.2199 9.92786 22.241 7.34726C22.0063 6.72134 21.6659 6.13154 21.557 5.46458C22.1645 5.9117 22.4924 6.6083 22.8079 7.27022C23.9669 9.64622 24.301 12.4164 23.7209 14.9969C23.1594 17.6369 21.6638 20.0598 19.5634 21.7549C18.9074 22.2976 18.1758 22.7389 17.4367 23.1557C17.2447 22.7757 17.0167 22.4019 16.9249 21.9809C16.905 21.7015 17.0479 21.4432 17.1212 21.1799C17.4516 20.2659 17.4119 19.2438 17.0915 18.3336C16.3015 16.0573 15.5276 13.7748 14.7698 11.4862C14.6444 11.1012 14.4133 10.7671 14.1997 10.4281C14.2717 11.059 13.7624 11.4961 13.4755 11.9979C12.9997 12.8398 12.5203 13.683 11.9291 14.4505C11.7986 13.9079 11.8384 13.3465 11.7961 12.7939C11.7377 13.1355 11.7121 13.4819 11.6731 13.8259C10.9067 12.7953 10.2918 11.6614 9.57012 10.5996C8.60244 13.3143 7.72548 16.0612 6.75012 18.7746C6.51912 18.6256 6.2868 18.4791 6.05412 18.3325C6.03924 18.5365 6.02676 18.7398 6.01308 18.9423C6.2578 19.2527 6.4898 19.5715 6.70908 19.8984C6.49308 19.881 6.27708 19.8624 6.06108 19.8401C6.27708 20.0115 6.57912 20.1382 6.65604 20.4275C6.83496 20.9826 6.95544 21.5675 7.27716 22.0643C7.67964 22.7833 8.4498 23.1769 8.89572 23.8625C7.82868 23.7817 6.83004 23.341 5.9244 22.7933C3.7656 21.5255 2.00916 19.5771 1.008 17.2785C-0.0975591 14.7675 -0.307439 11.8715 0.446521 9.23138C0.803041 7.9001 1.43532 6.65954 2.21052 5.52446C2.28504 5.55926 2.43288 5.63006 2.5074 5.66474C1.97436 6.7205 1.5384 7.8281 1.28628 8.9855C1.16208 8.94446 1.03788 8.90234 0.914281 8.85878C1.17516 9.18782 1.22232 9.60518 1.15776 10.0099C0.952801 11.9695 1.28316 13.9876 2.14404 15.7633C2.34804 16.224 2.826 16.4376 3.22596 16.6935C3.585 16.4103 3.98868 16.1535 4.20996 15.7373C4.62996 14.9933 4.9938 14.2186 5.436 13.4871C5.52792 13.615 5.61984 13.7441 5.71056 13.8732C5.62728 13.5217 5.55036 13.1344 5.76516 12.8115C6.5952 11.2779 7.4052 9.7325 8.2374 8.20058C8.40264 7.85414 8.68464 7.49894 8.58396 7.09286C8.46468 6.47318 8.268 5.8709 8.15544 5.24882ZM14.2634 9.01154C14.5243 8.8265 14.8154 8.69486 15.1168 8.58926C15.0223 8.3843 14.9292 8.18126 14.8361 7.97582C14.636 8.31482 14.4424 8.65982 14.2634 9.01154ZM12.9314 9.74546C13.1264 9.99998 13.4022 10.1655 13.6942 10.2869C13.4929 10.0398 13.2122 9.88334 12.9314 9.74546ZM12.084 11.9087C11.9101 12.0775 12.2033 12.3445 12.3672 12.1782C12.5472 12.0102 12.2442 11.7411 12.084 11.9087ZM17.5184 16.722C17.716 16.6351 17.9144 16.5495 18.1134 16.4625L17.8674 16.1985C17.7519 16.3736 17.6355 16.5483 17.5183 16.7225L17.5184 16.722ZM4.1556 20.3045C4.14936 20.5218 4.1436 20.7391 4.1382 20.9565C4.35804 21.0607 4.57416 21.1701 4.78908 21.2843C4.55362 20.9741 4.34187 20.6465 4.1556 20.3045ZM5.97792 20.3119C5.98536 20.379 6.00192 20.5159 6.0102 20.5827C6.15552 20.641 6.30216 20.7006 6.44748 20.7603C6.40032 20.6423 6.35436 20.5243 6.3084 20.4051C6.19776 20.3743 6.08724 20.3433 5.97792 20.3123" fill="#324132"/>
<path d="M15.0991 23.7156C15.6196 23.2716 16.1462 22.8276 16.5871 22.3012C16.9288 22.521 17.1461 22.8637 17.2765 23.2424C16.6579 23.5057 16.0285 23.7416 15.3934 23.964C15.3203 23.902 15.1724 23.7778 15.0991 23.7156Z" fill="#324132"/>
</g>
<defs>
<clipPath id="clip0_5_17454">
<rect width="24" height="24" fill="white"/>
</clipPath>
</defs>
</svg>
