<svg width="24" height="24" viewBox="0 0 24 24" fill="none" xmlns="http://www.w3.org/2000/svg">
<g clip-path="url(#clip0_5_17423)">
<path d="M23.6375 14.9031C22.0343 21.3313 15.525 25.2438 9.09371 23.6406C2.66559 22.0375 -1.24379 15.525 0.359336 9.09689C1.95934 2.66876 8.47184 -1.24374 14.8968 0.359386C21.3281 1.96251 25.2406 8.47501 23.6375 14.9031Z" fill="#0007BC"/>
<path d="M19.2031 12.7312L19.0531 12.4906L16.6406 8.66874C16.4499 8.37187 16.1999 8.11875 15.9062 7.925C15.3593 7.57812 14.6906 7.46874 14.0624 7.62499C13.4406 7.77499 12.9093 8.17187 12.5874 8.725C12.4249 8.99375 12.2218 9.32812 12.0156 9.65624L11.3593 8.64375L11.3343 8.60937V8.6C11.1124 8.30312 10.8343 8.05312 10.5156 7.86562C10.0374 7.60624 9.48432 7.51875 8.9437 7.6125C8.42495 7.71562 7.94995 7.97812 7.58433 8.36562C7.4812 8.48125 7.39058 8.60625 7.31558 8.74062L5.53433 11.5656L4.78746 12.7437C4.44683 13.2875 4.32809 13.9437 4.45933 14.5719C4.58121 15.2 4.95933 15.75 5.49996 16.0937C5.86871 16.325 6.29371 16.4469 6.72808 16.4437C7.5812 16.4406 8.37183 16.0062 8.82495 15.2844L9.3937 14.3844L9.9437 15.2406C10.0906 15.4531 10.2656 15.65 10.4562 15.8219C10.5093 15.8687 10.5624 15.9156 10.6187 15.9562H10.6249C10.6624 15.9844 10.6999 16.0094 10.7437 16.0375C11.1124 16.275 11.5437 16.4031 11.9843 16.4031C12.4499 16.4 12.9062 16.2656 13.2937 16.0094L13.3406 15.9781L13.3843 15.95C13.5968 15.8 13.7874 15.6156 13.9437 15.4062L14.5906 14.4L15.1437 15.275C15.6031 15.9937 16.3937 16.4281 17.2468 16.4281C17.6781 16.4312 18.1031 16.3094 18.4718 16.0812C19.5812 15.3875 19.9124 13.8562 19.2031 12.7312ZM7.66245 8.94687C7.72808 8.83437 7.80308 8.73124 7.88745 8.63437C8.18745 8.31249 8.58433 8.09062 9.01558 7.99687C9.46557 7.91562 9.92495 7.99062 10.3249 8.20625C10.5968 8.36875 10.8343 8.58437 11.0218 8.83749L11.0374 8.85937L11.7937 10.0219C11.4406 10.55 11.1437 10.9844 11.1437 10.9937C10.8656 11.4187 10.4406 11.7281 9.94995 11.8562H9.92495C9.41245 12.0062 8.86558 11.9469 8.3937 11.6937L8.3187 11.65L8.25308 11.6062L8.19058 11.5625L8.13745 11.5187L8.08745 11.4781L8.04683 11.4437L8.0187 11.4187L8.00308 11.4031L7.95933 11.3531L7.9062 11.3062L7.89058 11.2906L7.86558 11.2656L7.84995 11.25L7.83433 11.2344L7.76245 11.175L7.74683 11.1625L7.72495 11.1469L7.68745 11.1187L7.6687 11.1062H7.65933L7.6062 11.0719L7.58745 11.0625H7.57183L7.52183 11.0344L7.49683 11.0187L7.4312 10.9875L7.39995 10.9656L7.36558 10.95L7.30308 10.925H7.29995L7.22183 10.9L7.19058 10.8937L7.12808 10.8781H7.09683L7.03745 10.8562H7.00308H6.97808H6.94683H6.90308H6.80621H6.77496H6.66558H6.64996L6.54371 10.8719H6.53433L6.42183 10.8969L7.66245 8.94687ZM8.50933 15.075C8.2187 15.5312 7.76558 15.8562 7.2437 15.9875C6.72808 16.1219 6.17808 16.0406 5.72808 15.7562C4.81246 15.1812 4.54058 13.8969 5.13433 12.9469L5.87808 11.7687C5.93121 11.6875 5.99058 11.6156 6.05933 11.5469C6.26246 11.3531 6.53433 11.2437 6.81558 11.2437H6.89058H6.91558H6.96558H6.99058H7.03433H7.05308L7.08745 11.25H7.09995H7.1187L7.15933 11.2656H7.17808L7.2437 11.2906L7.26245 11.2969L7.29058 11.3125H7.3062L7.3312 11.325L7.3562 11.3406H7.3687L7.3937 11.3562L7.4312 11.3812H7.4437H7.45308L7.47495 11.3969L7.49995 11.4125H7.50933L7.56558 11.4625H7.57183L7.6062 11.4969L7.61558 11.5062L7.62808 11.5219L7.64683 11.5437L9.19058 14.025L8.50933 15.075ZM13.6406 15.1687C13.5062 15.35 13.3499 15.5094 13.1624 15.6406L13.1281 15.6656L13.0843 15.6937C12.4468 16.1219 11.6156 16.1312 10.9656 15.7219L10.8656 15.6531H10.8531C10.8093 15.6187 10.7624 15.5844 10.7187 15.5437C10.5531 15.3937 10.4031 15.225 10.2749 15.0406L9.56557 13.9219L8.47183 12.1812L8.50933 12.1969L8.61245 12.2312L8.67183 12.25L8.77495 12.275L8.8437 12.2937L8.95308 12.3125L9.01245 12.3219L9.1562 12.3375H9.17495H9.33745H9.40307H9.52495H9.58745L9.7062 12.3219H9.75932C9.81557 12.3125 9.87182 12.3031 9.92182 12.2875C10.1156 12.2375 10.3031 12.1656 10.4812 12.0719H10.4999C10.5499 12.0469 10.5937 12.0219 10.6437 11.9969C10.9749 11.8062 11.2562 11.5406 11.4624 11.2187C11.4624 11.2187 11.7999 10.7094 12.1687 10.1344C12.4312 9.72499 12.7124 9.27812 12.9124 8.93437C13.1781 8.47499 13.6249 8.14062 14.1406 8.01875C14.6687 7.89062 15.2218 7.97812 15.6812 8.26875C15.9249 8.43125 16.1343 8.64687 16.2968 8.89375L18.1531 11.8375C18.0999 11.8125 18.0468 11.7937 17.9906 11.775L17.9624 11.7656C17.9093 11.7469 17.8531 11.7312 17.7999 11.7156H17.7843C17.7312 11.7 17.6749 11.6906 17.6218 11.6812H17.5968C17.5437 11.6719 17.4843 11.6656 17.4343 11.6594H17.4031C17.3468 11.6594 17.2906 11.6594 17.2406 11.6531H17.2343C17.1812 11.6531 17.1218 11.6531 17.0718 11.6531H17.0374C16.9843 11.6531 16.9281 11.6594 16.8749 11.6719H16.8406C16.7843 11.6812 16.7281 11.6906 16.6687 11.7062C16.5906 11.725 16.5156 11.7469 16.4374 11.7719C15.9187 11.95 15.4749 12.3031 15.1906 12.7719L14.5156 13.8312L13.6406 15.1687ZM18.2781 15.7437C17.3624 16.3187 16.0874 16.0062 15.4937 15.0594L14.8374 14.0281L15.5124 12.9687L15.5656 12.8844C16.0593 12.1687 16.9624 11.8562 17.7906 12.1094L17.8656 12.1344H17.8874L17.9406 12.1562L17.9812 12.1719L18.0156 12.1875L18.0718 12.2125H18.0874C18.1406 12.2375 18.1968 12.2656 18.2499 12.3C18.3031 12.3344 18.3249 12.35 18.3624 12.375L18.3874 12.3906C18.4656 12.4469 18.5406 12.5094 18.6062 12.575L18.6218 12.5906C18.6499 12.6187 18.6781 12.6531 18.7062 12.6844L18.7218 12.7L18.8624 12.925C19.4624 13.8844 19.1937 15.1687 18.2781 15.7437Z" fill="white"/>
</g>
<defs>
<clipPath id="clip0_5_17423">
<rect width="23.9969" height="24" fill="white"/>
</clipPath>
</defs>
</svg>
