<svg width="24" height="24" viewBox="0 0 24 24" fill="none" xmlns="http://www.w3.org/2000/svg">
<g clip-path="url(#clip0_5_17385)">
<path d="M12 24C18.6274 24 24 18.6274 24 12C24 5.37258 18.6274 0 12 0C5.37258 0 0 5.37258 0 12C0 18.6274 5.37258 24 12 24Z" fill="black"/>
<path d="M21.3036 13.2864C21.011 13.679 20.5745 13.9394 20.0901 14.0103C19.6056 14.0812 19.1128 13.9568 18.72 13.6644C18.3274 13.3719 18.067 12.9354 17.9961 12.4509C17.9252 11.9664 18.0496 11.4736 18.342 11.0808C18.6346 10.6882 19.0711 10.4278 19.5555 10.3569C20.04 10.286 20.5328 10.4105 20.9256 10.7028C21.0693 10.8098 21.1966 10.9372 21.3036 11.0808L21.8232 10.7088C21.4321 10.177 20.8458 9.82227 20.1933 9.72258C19.5407 9.62289 18.8752 9.78642 18.3432 10.1772C17.8114 10.5683 17.4566 11.1546 17.357 11.8072C17.2573 12.4597 17.4208 13.1252 17.8116 13.6572C18.2027 14.189 18.789 14.5438 19.4415 14.6435C20.0941 14.7431 20.7596 14.5796 21.2916 14.1888C21.4947 14.0395 21.6739 13.8603 21.8232 13.6572L21.3036 13.2864Z" fill="white"/>
<path d="M15.0744 9.3156L14.7144 10.0644L12.5796 14.6712H13.2756L13.7688 13.6044H16.3656L16.86 14.6712H17.5596L15.4236 10.0644L15.0744 9.3156ZM14.0724 12.9708L15.0744 10.8108L16.074 12.9708H14.0724Z" fill="white"/>
<path d="M4.7088 12.1884L2.91 10.3896L2.8608 10.3404L2.2236 9.70201V9.70321V10.6068V14.67H2.8608V11.244L4.2576 12.6408L4.7088 13.092L5.1588 12.6408L6.55561 11.244V14.67H7.19281V10.6068V9.70321L6.55561 10.3404L4.7088 12.1884Z" fill="white"/>
<path d="M10.314 9.70322C9.65359 9.70322 9.02025 9.96555 8.55328 10.4325C8.08631 10.8995 7.82397 11.5328 7.82397 12.1932C7.82397 12.8536 8.08631 13.4869 8.55328 13.9539C9.02025 14.4209 9.65359 14.6832 10.314 14.6832C10.9744 14.6832 11.6077 14.4209 12.0747 13.9539C12.5416 13.4869 12.804 12.8536 12.804 12.1932C12.804 11.5328 12.5416 10.8995 12.0747 10.4325C11.6077 9.96555 10.9744 9.70322 10.314 9.70322ZM10.314 14.0352C10.0712 14.0355 9.83072 13.988 9.60632 13.8953C9.38191 13.8027 9.17796 13.6667 9.00611 13.4952C8.83427 13.3237 8.69791 13.12 8.60482 12.8958C8.51173 12.6716 8.46373 12.4312 8.46358 12.1884C8.46326 11.9456 8.51079 11.7052 8.60344 11.4808C8.69609 11.2563 8.83206 11.0524 9.00357 10.8806C9.17508 10.7087 9.37876 10.5724 9.60299 10.4793C9.82722 10.3862 10.0676 10.3382 10.3104 10.338C10.5531 10.3379 10.7934 10.3855 11.0177 10.4782C11.2419 10.571 11.4457 10.7069 11.6175 10.8784C11.7892 11.0499 11.9254 11.2536 12.0184 11.4777C12.1115 11.7019 12.1594 11.9421 12.1596 12.1848C12.1605 12.4279 12.1135 12.6688 12.0212 12.8937C11.9289 13.1186 11.7931 13.323 11.6217 13.4954C11.4503 13.6677 11.2465 13.8045 11.0221 13.898C10.7977 13.9914 10.5571 14.0397 10.314 14.04V14.0352Z" fill="white"/>
<path d="M11.3664 11.3052C11.4618 11.3052 11.5392 11.2278 11.5392 11.1324C11.5392 11.0369 11.4618 10.9596 11.3664 10.9596C11.271 10.9596 11.1936 11.0369 11.1936 11.1324C11.1936 11.2278 11.271 11.3052 11.3664 11.3052Z" fill="white"/>
<path d="M11.3664 13.4088C11.4618 13.4088 11.5392 13.3314 11.5392 13.236C11.5392 13.1406 11.4618 13.0632 11.3664 13.0632C11.271 13.0632 11.1936 13.1406 11.1936 13.236C11.1936 13.3314 11.271 13.4088 11.3664 13.4088Z" fill="white"/>
<path d="M9.26161 11.3052C9.35704 11.3052 9.43441 11.2278 9.43441 11.1324C9.43441 11.0369 9.35704 10.9596 9.26161 10.9596C9.16617 10.9596 9.08881 11.0369 9.08881 11.1324C9.08881 11.2278 9.16617 11.3052 9.26161 11.3052Z" fill="white"/>
<path d="M8.82362 12.2724C8.872 12.2724 8.91122 12.2332 8.91122 12.1848C8.91122 12.1364 8.872 12.0972 8.82362 12.0972C8.77524 12.0972 8.73602 12.1364 8.73602 12.1848C8.73602 12.2332 8.77524 12.2724 8.82362 12.2724Z" fill="white"/>
<path d="M10.314 13.7652C10.3624 13.7652 10.4016 13.726 10.4016 13.6776C10.4016 13.6292 10.3624 13.59 10.314 13.59C10.2656 13.59 10.2264 13.6292 10.2264 13.6776C10.2264 13.726 10.2656 13.7652 10.314 13.7652Z" fill="white"/>
<path d="M11.8032 12.2724C11.8516 12.2724 11.8908 12.2332 11.8908 12.1848C11.8908 12.1364 11.8516 12.0972 11.8032 12.0972C11.7548 12.0972 11.7156 12.1364 11.7156 12.1848C11.7156 12.2332 11.7548 12.2724 11.8032 12.2724Z" fill="white"/>
<path d="M10.314 10.7856C10.3624 10.7856 10.4016 10.7464 10.4016 10.698C10.4016 10.6496 10.3624 10.6104 10.314 10.6104C10.2656 10.6104 10.2264 10.6496 10.2264 10.698C10.2264 10.7464 10.2656 10.7856 10.314 10.7856Z" fill="white"/>
<path d="M10.314 11.22C10.3624 11.22 10.4016 11.1808 10.4016 11.1324C10.4016 11.084 10.3624 11.0448 10.314 11.0448C10.2656 11.0448 10.2264 11.084 10.2264 11.1324C10.2264 11.1808 10.2656 11.22 10.314 11.22Z" fill="white"/>
<path d="M9.26161 13.4088C9.35704 13.4088 9.43441 13.3314 9.43441 13.236C9.43441 13.1406 9.35704 13.0632 9.26161 13.0632C9.16617 13.0632 9.08881 13.1406 9.08881 13.236C9.08881 13.3314 9.16617 13.4088 9.26161 13.4088Z" fill="white"/>
<path d="M10.314 13.4088C10.4094 13.4088 10.4868 13.3314 10.4868 13.236C10.4868 13.1406 10.4094 13.0632 10.314 13.0632C10.2186 13.0632 10.1412 13.1406 10.1412 13.236C10.1412 13.3314 10.2186 13.4088 10.314 13.4088Z" fill="white"/>
<path d="M11.3976 11.1324H11.334V13.2372H11.3976V11.1324Z" fill="white"/>
<path d="M11.3664 11.1216H9.2616V11.1432H11.3664V11.1216Z" fill="white"/>
<path d="M10.3266 11.1278L10.3073 11.1374L11.3578 13.2418L11.3771 13.2321L10.3266 11.1278Z" fill="white"/>
<path d="M10.3059 11.1272L9.25333 13.2319L9.27265 13.2415L10.3252 11.1369L10.3059 11.1272Z" fill="white"/>
<path d="M9.29282 11.1324H9.22922V13.2372H9.29282V11.1324Z" fill="white"/>
<path d="M11.3664 13.2252H9.2616V13.2468H11.3664V13.2252Z" fill="white"/>
<path d="M9.29147 11.119L9.23459 11.1475L10.2872 13.2522L10.344 13.2237L9.29147 11.119Z" fill="white"/>
<path d="M11.3388 11.1181L10.2862 13.2228L10.3431 13.2513L11.3957 11.1466L11.3388 11.1181Z" fill="white"/>
<path d="M9.25077 11.1295L8.8147 12.1828L8.83465 12.1911L9.27073 11.1378L9.25077 11.1295Z" fill="white"/>
<path d="M9.25202 13.242L8.81522 12.1908L8.83442 12.1812L9.27242 13.2324L9.25202 13.242Z" fill="white"/>
<path d="M10.3248 13.236H10.3032V13.6752H10.3248V13.236Z" fill="white"/>
<path d="M10.3248 10.6944H10.3032V11.1336H10.3248V10.6944Z" fill="white"/>
<path d="M10.3111 10.6867L9.25888 11.1223L9.26714 11.1423L10.3193 10.7067L10.3111 10.6867Z" fill="white"/>
<path d="M10.3169 10.6875L10.3087 10.7075L11.362 11.1435L11.3702 11.1236L10.3169 10.6875Z" fill="white"/>
<path d="M11.3766 11.1281L11.3567 11.1363L11.7931 12.1895L11.8131 12.1812L11.3766 11.1281Z" fill="white"/>
<path d="M11.7923 12.1814L11.3553 13.237L11.3752 13.2452L11.8122 12.1897L11.7923 12.1814Z" fill="white"/>
<path d="M11.3641 13.229L10.3083 13.6685L10.3166 13.6884L11.3724 13.249L11.3641 13.229Z" fill="white"/>
<path d="M10.3092 13.686L9.25439 13.2468L9.26159 13.2276L10.3176 13.6668L10.3092 13.686Z" fill="white"/>
</g>
<defs>
<clipPath id="clip0_5_17385">
<rect width="24" height="24" fill="white"/>
</clipPath>
</defs>
</svg>
