<svg width="24" height="24" viewBox="0 0 24 24" fill="none" xmlns="http://www.w3.org/2000/svg">
<g clip-path="url(#clip0_5_17383)">
<path d="M8.36062 0.766031C9.22999 -0.123412 10.7325 -0.258359 11.7432 0.466658C12.7444 1.12603 13.1603 2.4984 12.7236 3.60976C12.4689 4.30509 11.9013 4.84958 11.23 5.14499C11.4327 6.18924 11.6481 7.23035 11.8519 8.27293C13.063 8.18669 14.2885 8.76422 14.9847 9.75955C15.7879 10.8676 15.8285 12.4316 15.1348 13.6036C16.4449 14.8291 17.752 16.0573 19.0563 17.288C19.6939 16.7667 20.59 16.5735 21.3715 16.8585C22.2705 17.1707 22.9172 18.08 22.906 19.0327C22.9148 19.8794 22.411 20.6989 21.659 21.0845C21.1935 21.3354 20.6411 21.3911 20.1253 21.2968C19.2663 21.1276 18.5421 20.4274 18.3465 19.5739C18.2093 19.0471 18.3047 18.4914 18.5138 17.9972C17.202 16.7662 15.8944 15.5303 14.5779 14.3048C13.6766 15.1759 12.3154 15.5359 11.109 15.1678C10.4512 16.961 9.83563 18.7693 9.17783 20.5631C9.42368 20.9416 9.62564 21.3647 9.63922 21.8246C9.66159 22.5128 9.3295 23.2066 8.76421 23.6041C8.25494 23.9706 7.57633 24.1014 6.97278 23.917C6.20072 23.708 5.59236 23.0181 5.47581 22.2277C5.39354 21.8254 5.50058 21.4198 5.62351 21.039C5.36083 20.8509 5.09982 20.6614 4.83713 20.4737C4.51696 20.6478 4.16574 20.7922 3.79445 20.7715C3.0387 20.7888 2.32341 20.2555 2.09407 19.5402C1.8641 18.8887 2.06689 18.1191 2.57386 17.6529C3.0433 17.2017 3.7655 17.0466 4.37982 17.2568C5.06793 17.478 5.58849 18.147 5.61002 18.8728C5.63563 19.1968 5.53821 19.5114 5.43285 19.8135C5.67786 19.9808 5.91745 20.156 6.16173 20.3245C6.47386 20.085 6.83156 19.8925 7.22595 19.8366C7.63863 19.7536 8.05173 19.871 8.4434 19.9915C9.05093 18.2615 9.67288 16.537 10.2821 14.8069C9.24818 14.1692 8.5448 12.9946 8.59027 11.766C8.554 10.2944 9.58884 8.91401 10.9736 8.45178C10.7781 7.41234 10.5569 6.3777 10.3596 5.33899C9.49267 5.35499 8.6233 4.96697 8.10452 4.26485C7.30382 3.24694 7.42037 1.65579 8.36083 0.766449L8.36062 0.766031ZM9.96724 1.09373C9.10581 1.20871 8.47111 2.13485 8.67107 2.98028C8.80759 3.68126 9.46142 4.2545 10.184 4.24802C10.8844 4.29359 11.5659 3.79938 11.7584 3.12798C11.9763 2.45492 11.6754 1.65903 11.0638 1.30289C10.7413 1.0953 10.3425 1.04157 9.96766 1.09384L9.96724 1.09373ZM11.5796 9.82812C10.5784 10.0677 9.89584 11.155 10.1082 12.161C10.2623 13.0958 11.1484 13.8367 12.0978 13.8159C13.0254 13.8415 13.8988 13.139 14.0856 12.232C14.2765 11.4296 13.9148 10.5275 13.2147 10.0891C12.7388 9.77554 12.1288 9.68032 11.5796 9.82781V9.82812ZM20.1915 17.8641C19.6086 18.0573 19.2215 18.7271 19.3891 19.326C19.5208 19.9103 20.122 20.3422 20.7192 20.2696C21.3578 20.2145 21.8887 19.6006 21.8257 18.9571C21.8097 18.1739 20.9235 17.5773 20.1915 17.8641ZM3.50741 18.1072C2.84888 18.3019 2.67713 19.2675 3.22957 19.6775C3.73968 20.1429 4.65943 19.7757 4.71766 19.0899C4.83191 18.4488 4.11337 17.854 3.50741 18.1073V18.1072ZM7.26368 20.9223C6.96985 21.0053 6.72159 21.2296 6.60107 21.5098C6.33515 22.0952 6.75588 22.8495 7.39696 22.9166C7.98776 23.022 8.58975 22.5089 8.56341 21.9075C8.59476 21.2503 7.8872 20.7242 7.26368 20.9222" fill="#6EA8F2"/>
</g>
<defs>
<clipPath id="clip0_5_17383">
<rect width="24" height="24" fill="white"/>
</clipPath>
</defs>
</svg>
