<svg width="24" height="24" viewBox="0 0 24 24" fill="none" xmlns="http://www.w3.org/2000/svg">
<path d="M1.51297 3C0.674651 3 0 3.67864 0 4.51297V12.0739V15.3273V19.6826C0 20.517 0.674651 21.1956 1.51297 21.1956C2.3513 21.1956 3.02595 20.517 3.02595 19.6826V4.51297C3.02196 3.67864 2.34731 3 1.51297 3Z" fill="url(#paint0_linear_5_17358)"/>
<path d="M22.487 3C21.6527 3 20.9741 3.67864 20.9741 4.51297V19.6826C20.9741 20.517 21.6527 21.1956 22.487 21.1956C23.3214 21.1956 24 20.517 24 19.6826V4.51297C24 3.67864 23.3214 3 22.487 3Z" fill="url(#paint1_linear_5_17358)"/>
<path d="M8.50299 6.15369C7.66866 6.15369 6.99002 6.82834 6.99002 7.66666V16.5289C6.99002 17.3633 7.66866 18.0419 8.50299 18.0419C9.33733 18.0419 10.016 17.3633 10.016 16.5289V7.66666C10.016 6.83233 9.33733 6.15369 8.50299 6.15369Z" fill="url(#paint2_linear_5_17358)"/>
<path d="M15.497 8.70061C14.6627 8.70061 13.984 9.37925 13.984 10.2136V13.9541C13.984 14.7884 14.6627 15.4671 15.497 15.4671C16.3313 15.4671 17.01 14.7884 17.01 13.9541V10.2136C17.006 9.37526 16.3313 8.70061 15.497 8.70061Z" fill="url(#paint3_linear_5_17358)"/>
<defs>
<linearGradient id="paint0_linear_5_17358" x1="-0.0362435" y1="12.2584" x2="32.1375" y2="8.91626" gradientUnits="userSpaceOnUse">
<stop stop-color="#4400E2"/>
<stop offset="0.0411" stop-color="#7013C5"/>
<stop offset="0.0866" stop-color="#9A25AA"/>
<stop offset="0.1333" stop-color="#BC3494"/>
<stop offset="0.1804" stop-color="#D73F82"/>
<stop offset="0.2284" stop-color="#EA4876"/>
<stop offset="0.2776" stop-color="#F54C6E"/>
<stop offset="0.33" stop-color="#F94E6C"/>
<stop offset="1" stop-color="#FFD402"/>
</linearGradient>
<linearGradient id="paint1_linear_5_17358" x1="0.187669" y1="14.4139" x2="32.3614" y2="11.0718" gradientUnits="userSpaceOnUse">
<stop stop-color="#4400E2"/>
<stop offset="0.0411" stop-color="#7013C5"/>
<stop offset="0.0866" stop-color="#9A25AA"/>
<stop offset="0.1333" stop-color="#BC3494"/>
<stop offset="0.1804" stop-color="#D73F82"/>
<stop offset="0.2284" stop-color="#EA4876"/>
<stop offset="0.2776" stop-color="#F54C6E"/>
<stop offset="0.33" stop-color="#F94E6C"/>
<stop offset="1" stop-color="#FFD402"/>
</linearGradient>
<linearGradient id="paint2_linear_5_17358" x1="0.0383994" y1="12.977" x2="32.2121" y2="9.63482" gradientUnits="userSpaceOnUse">
<stop stop-color="#4400E2"/>
<stop offset="0.0411" stop-color="#7013C5"/>
<stop offset="0.0866" stop-color="#9A25AA"/>
<stop offset="0.1333" stop-color="#BC3494"/>
<stop offset="0.1804" stop-color="#D73F82"/>
<stop offset="0.2284" stop-color="#EA4876"/>
<stop offset="0.2776" stop-color="#F54C6E"/>
<stop offset="0.33" stop-color="#F94E6C"/>
<stop offset="1" stop-color="#FFD402"/>
</linearGradient>
<linearGradient id="paint3_linear_5_17358" x1="0.111351" y1="13.6794" x2="32.2851" y2="10.3372" gradientUnits="userSpaceOnUse">
<stop stop-color="#4400E2"/>
<stop offset="0.0411" stop-color="#7013C5"/>
<stop offset="0.0866" stop-color="#9A25AA"/>
<stop offset="0.1333" stop-color="#BC3494"/>
<stop offset="0.1804" stop-color="#D73F82"/>
<stop offset="0.2284" stop-color="#EA4876"/>
<stop offset="0.2776" stop-color="#F54C6E"/>
<stop offset="0.33" stop-color="#F94E6C"/>
<stop offset="1" stop-color="#FFD402"/>
</linearGradient>
</defs>
</svg>
