<svg width="24" height="24" viewBox="0 0 24 24" fill="none" xmlns="http://www.w3.org/2000/svg">
<g clip-path="url(#clip0_5_17294)">
<path fill-rule="evenodd" clip-rule="evenodd" d="M19.7599 4.34811L20.1182 3.16367C19.9503 3.00926 19.7781 2.8595 19.6015 2.71474L19.2459 3.85967C19.4225 4.01698 19.5939 4.17978 19.7599 4.34811Z" fill="#FBC531"/>
<path fill-rule="evenodd" clip-rule="evenodd" d="M4.33282 19.745L3.97655 20.9226C4.14597 21.0751 4.31983 21.2225 4.49775 21.3652L4.85145 20.2267C4.67331 20.0718 4.50049 19.911 4.33282 19.745Z" fill="#FBC531"/>
<path fill-rule="evenodd" clip-rule="evenodd" d="M1.10132 12C1.10132 5.98082 5.98082 1.10132 12 1.10132C13.9119 1.10132 15.7084 1.59419 17.2706 2.45896L17.5961 1.38301C15.9251 0.500438 14.0212 0 12 0C5.3726 0 0 5.37255 0 12C0 14.5602 0.802301 16.9327 2.16838 18.8809L2.59468 17.5085C1.64592 15.8921 1.10132 14.0098 1.10132 12Z" fill="#FBC531"/>
<path fill-rule="evenodd" clip-rule="evenodd" d="M21.9174 5.24274L21.4861 6.63118C22.3849 8.21594 22.8987 10.0479 22.8987 12C22.8987 18.0192 18.0192 22.8987 12 22.8987C10.1303 22.8987 8.3708 22.4276 6.83316 21.5981L6.50822 22.6721C8.15387 23.5206 10.0209 24 12 24C18.6274 24 24 18.6274 24 12C24 9.4938 23.2313 7.16739 21.9174 5.24274Z" fill="#FBC531"/>
<path fill-rule="evenodd" clip-rule="evenodd" d="M19.0365 4.53375C19.2128 4.69995 19.3832 4.87238 19.5473 5.05058L19.7599 4.34811C19.5939 4.17978 19.4225 4.01699 19.2459 3.85967L19.0365 4.53375Z" fill="#FBC531"/>
<path fill-rule="evenodd" clip-rule="evenodd" d="M4.54389 19.0474L4.33282 19.745C4.5005 19.911 4.67332 20.0718 4.85145 20.2267L5.05978 19.5559C4.88192 19.3924 4.70987 19.2229 4.54389 19.0474Z" fill="#FBC531"/>
<path fill-rule="evenodd" clip-rule="evenodd" d="M12 22.8987C18.0192 22.8987 22.8987 18.0192 22.8987 12C22.8987 10.0479 22.3849 8.21595 21.4861 6.63118L21.9174 5.24274C21.3983 4.4823 20.794 3.78482 20.1183 3.16367L16.3013 15.7797L17.5013 19.4597L21.2186 7.49222C21.8852 8.85293 22.26 10.3826 22.26 12C22.26 17.6664 17.6664 22.26 12 22.26C10.1936 22.26 8.49655 21.7926 7.02225 20.9729L9.25474 13.5939L8.0548 9.91392L4.49776 21.3652C5.12022 21.8644 5.7931 22.3033 6.50822 22.6721L6.83315 21.5981C8.3708 22.4276 10.1303 22.8987 12 22.8987Z" fill="white"/>
<path fill-rule="evenodd" clip-rule="evenodd" d="M16.8987 19.6H15.2396C14.7875 19.6 14.3884 19.3047 14.2563 18.8724L9.83869 4.42H11.3969C11.8854 4.42 12.3169 4.73852 12.4608 5.20537L16.8987 19.6ZM12.3486 19.6C11.8965 19.6 11.4975 19.3047 11.3653 18.8724L6.94773 4.42H8.50587C8.99442 4.42 9.42592 4.73852 9.56987 5.20537L14.0077 19.6H12.3486ZM19.0365 4.53375L15.9452 14.4857L14.7453 10.8058L17.0812 3.08487C15.5831 2.22926 13.8487 1.74 12 1.74C6.33354 1.74 1.74001 6.33353 1.74001 12C1.74001 13.6785 2.14318 15.2628 2.85776 16.6615L6.49875 4.94L7.69869 8.62L4.5439 19.0474C4.70987 19.2229 4.88192 19.3924 5.05979 19.5559L8.0548 9.91392L9.25475 13.5939L7.02225 20.9729C8.49655 21.7925 10.1936 22.26 12 22.26C17.6664 22.26 22.26 17.6664 22.26 12C22.26 10.3826 21.8852 8.85293 21.2186 7.49222L17.5013 19.4597L16.3013 15.7797L19.5473 5.05057C19.3832 4.87238 19.2128 4.69994 19.0365 4.53375Z" fill="#FBC531"/>
<path fill-rule="evenodd" clip-rule="evenodd" d="M4.54389 19.0474L7.69869 8.62L6.49874 4.94L2.85776 16.6615C2.14318 15.2628 1.74 13.6785 1.74 12C1.74 6.33354 6.33354 1.74 12 1.74C13.8487 1.74 15.5831 2.22926 17.0812 3.08488L14.7453 10.8058L15.9452 14.4857L19.6015 2.71474C18.9818 2.20685 18.3101 1.76017 17.5961 1.38302L17.2706 2.45896C15.7084 1.59419 13.9119 1.10132 12 1.10132C5.98083 1.10132 1.10132 5.98083 1.10132 12C1.10132 14.0098 1.64592 15.8921 2.59469 17.5085L2.16839 18.8809C2.69255 19.6285 3.29962 20.3135 3.97655 20.9226L4.54389 19.0474Z" fill="white"/>
<path fill-rule="evenodd" clip-rule="evenodd" d="M11.3969 4.42H9.83868L14.2563 18.8724C14.3884 19.3047 14.7875 19.6 15.2396 19.6H16.8987L12.4608 5.20537C12.3169 4.73852 11.8854 4.42 11.3969 4.42Z" fill="white"/>
<path fill-rule="evenodd" clip-rule="evenodd" d="M8.50586 4.42H6.94772L11.3653 18.8724C11.4975 19.3047 11.8965 19.6 12.3485 19.6H14.0077L9.56986 5.20537C9.42592 4.73852 8.99441 4.42 8.50586 4.42Z" fill="white"/>
</g>
<defs>
<clipPath id="clip0_5_17294">
<rect width="24" height="24" fill="white"/>
</clipPath>
</defs>
</svg>
