<svg width="24" height="24" viewBox="0 0 24 24" fill="none" xmlns="http://www.w3.org/2000/svg">
<g clip-path="url(#clip0_5_17286)">
<path d="M2.60509 6.12817H14.613C16.4101 6.12817 17.8721 7.59017 17.8721 9.38723C17.8721 11.1843 16.4101 12.6463 14.613 12.6463H8.11563C7.86954 12.6463 7.63353 12.744 7.45951 12.918C7.2855 13.0921 7.18774 13.3281 7.18774 13.5742C7.18774 13.8203 7.2855 14.0563 7.45951 14.2303C7.63353 14.4043 7.86954 14.5021 8.11563 14.5021H14.6128C17.4331 14.5021 19.7276 12.2078 19.7276 9.38723C19.7276 6.56661 17.4331 4.27239 14.6128 4.27239H2.60509C2.359 4.27239 2.12299 4.37015 1.94897 4.54417C1.77496 4.71818 1.6772 4.95419 1.6772 5.20028C1.6772 5.44638 1.77496 5.68239 1.94897 5.8564C2.12299 6.03041 2.359 6.12817 2.60509 6.12817Z" fill="#8500FF"/>
<path d="M14.6131 0H9.95555C9.70946 0 9.47344 0.0977597 9.29943 0.271773C9.12541 0.445786 9.02765 0.681799 9.02765 0.927891C9.02765 1.17398 9.12541 1.41 9.29943 1.58401C9.47344 1.75802 9.70946 1.85578 9.95555 1.85578H14.6131C18.766 1.85578 22.1443 5.23434 22.1443 9.38722C22.1443 13.5401 18.7657 16.9188 14.6128 16.9188H2.78249C2.65977 16.9174 2.53799 16.9403 2.42421 16.9863C2.31043 17.0323 2.2069 17.1005 2.11963 17.1867C2.03236 17.273 1.96307 17.3758 1.91578 17.489C1.8685 17.6023 1.84415 17.7238 1.84415 17.8465C1.84415 17.9692 1.8685 18.0907 1.91578 18.204C1.96307 18.3172 2.03236 18.42 2.11963 18.5063C2.2069 18.5925 2.31043 18.6607 2.42421 18.7066C2.53799 18.7526 2.65977 18.7756 2.78249 18.7742H14.6128C19.7889 18.7742 24.0001 14.5632 24.0001 9.38698C24.0001 4.21077 19.7893 0 14.6131 0Z" fill="#8500FF"/>
<path d="M9.23341 9.38723C9.23312 9.14122 9.13527 8.90538 8.96132 8.73142C8.78737 8.55747 8.55152 8.45962 8.30552 8.45934H6.04416C5.79816 8.45962 5.56231 8.55747 5.38836 8.73142C5.21441 8.90538 5.11656 9.14122 5.11627 9.38723C5.11627 9.90124 5.52666 10.3151 5.86629 10.3151H8.1274C8.77873 10.3151 9.23341 9.93349 9.23341 9.38723ZM6.29629 21.1914H0.927884C0.80515 21.19 0.683359 21.213 0.569563 21.259C0.455768 21.305 0.35223 21.3731 0.264945 21.4594C0.177661 21.5457 0.108365 21.6485 0.0610716 21.7617C0.0137778 21.875 -0.0105743 21.9965 -0.0105743 22.1193C-0.0105743 22.242 0.0137778 22.3635 0.0610716 22.4768C0.108365 22.59 0.177661 22.6928 0.264945 22.7791C0.35223 22.8654 0.455768 22.9335 0.569563 22.9795C0.683359 23.0255 0.80515 23.0485 0.927884 23.0471H6.29629C6.41903 23.0485 6.54082 23.0255 6.65461 22.9795C6.76841 22.9335 6.87195 22.8654 6.95923 22.7791C7.04651 22.6928 7.11581 22.59 7.1631 22.4768C7.2104 22.3635 7.23475 22.242 7.23475 22.1193C7.23475 21.9965 7.2104 21.875 7.1631 21.7617C7.11581 21.6485 7.04651 21.5457 6.95923 21.4594C6.87195 21.3731 6.76841 21.305 6.65461 21.259C6.54082 21.213 6.41903 21.19 6.29629 21.1914Z" fill="#8500FF"/>
</g>
<defs>
<clipPath id="clip0_5_17286">
<rect width="24" height="24" fill="white"/>
</clipPath>
</defs>
</svg>
