<svg width="24" height="24" viewBox="0 0 24 24" fill="none" xmlns="http://www.w3.org/2000/svg">
<g clip-path="url(#clip0_5_17261)">
<path d="M12 24C18.6274 24 24 18.6274 24 12C24 5.37258 18.6274 0 12 0C5.37258 0 0 5.37258 0 12C0 18.6274 5.37258 24 12 24Z" fill="#EBEBEB"/>
<path d="M19.7535 4.44387H18.1355V19.9277H19.7535V4.44387Z" fill="black"/>
<path fill-rule="evenodd" clip-rule="evenodd" d="M17.7755 4.44387V19.9277H17.6245L10.2426 15.6697V13.7226L16.0877 17.1019V4.44387H17.7755Z" fill="black"/>
<path fill-rule="evenodd" clip-rule="evenodd" d="M16.7884 19.9277H13.4129L10.2426 18.0968V16.1497L16.7884 19.9277Z" fill="black"/>
<path fill-rule="evenodd" clip-rule="evenodd" d="M12.8942 19.9277H10.2426V18.3987L12.8942 19.9277Z" fill="black"/>
<path d="M5.95743 4.44387H4.26968V19.9277H5.95743V4.44387Z" fill="black"/>
<path fill-rule="evenodd" clip-rule="evenodd" d="M6.26709 19.9277V4.44387H6.41806L13.8 8.70968V10.6529L7.95483 7.27355V19.9277H6.26709Z" fill="black"/>
<path fill-rule="evenodd" clip-rule="evenodd" d="M7.2542 4.44387H10.6258L13.8 6.27871V8.22581L7.2542 4.44387Z" fill="black"/>
<path fill-rule="evenodd" clip-rule="evenodd" d="M11.1484 4.44387H13.8V5.97677L11.1484 4.44387Z" fill="black"/>
<path fill-rule="evenodd" clip-rule="evenodd" d="M15.7974 4.44387V16.4748L14.1097 15.5032L10.2426 13.2697V11.3187L14.1097 13.5561V4.44387H15.7974Z" fill="#F3E733"/>
<path fill-rule="evenodd" clip-rule="evenodd" d="M8.24516 19.9316V7.90452L9.92903 8.87613L13.8 11.1136V13.0606L9.92903 10.8232V19.9316H8.24516Z" fill="#F3E733"/>
</g>
<defs>
<clipPath id="clip0_5_17261">
<rect width="24" height="24" fill="white"/>
</clipPath>
</defs>
</svg>
