<svg width="24" height="24" viewBox="0 0 24 24" fill="none" xmlns="http://www.w3.org/2000/svg">
<path d="M22.5096 16.048C22.5104 13.3484 22.5104 10.649 22.5096 7.94952C22.5205 7.67352 22.3819 7.39884 22.1604 7.23612C18.9436 4.88572 15.7268 2.53496 12.5099 0.183841C12.313 0.0299262 12.0593 -0.0313327 11.8139 0.0158408C11.664 0.0452408 11.5289 0.120001 11.4085 0.210481C8.2146 2.54504 5.02052 4.8794 1.82628 7.21356C1.58394 7.38207 1.44006 7.65904 1.44144 7.9542C1.4396 10.6531 1.4396 13.3518 1.44144 16.0502C1.43724 16.3426 1.58904 16.6262 1.82928 16.7909C5.0232 19.1242 8.21648 21.458 11.4091 23.7923C11.7148 24.0536 12.1939 24.0743 12.5093 23.8195C15.7158 21.4782 18.9212 19.1358 22.1255 16.7921C22.3668 16.6295 22.5229 16.3408 22.5096 16.048Z" fill="#050708"/>
<path d="M10.8629 1.94796C10.9476 1.85196 11.0335 1.70232 11.1824 1.72224C11.689 1.72524 12.1967 1.71432 12.7031 1.72764C12.7908 1.78212 12.858 1.86384 12.933 1.93404C12.9312 2.45684 12.9312 2.97968 12.933 3.50256C12.7823 3.50436 12.6311 3.51108 12.4804 3.50076C12.4712 3.4638 12.4531 3.3912 12.4444 3.35436C12.4444 2.964 12.4782 2.57316 12.4456 2.1834C12.0734 2.18404 11.7014 2.18404 11.3296 2.1834C11.3278 2.31468 11.3272 2.44668 11.326 2.57796C11.1692 2.57796 11.0119 2.57796 10.8546 2.57676C10.8557 2.36784 10.8326 2.15544 10.8629 1.94796ZM9.6 2.58576C9.77124 2.57916 9.94248 2.57916 10.1143 2.58336C10.1167 3.30648 10.1197 4.029 10.1125 4.75152C9.94908 4.75512 9.78576 4.75512 9.62292 4.75392C9.56856 4.0338 9.612 3.30828 9.6 2.58576ZM13.956 3.36276C14.412 3.35676 14.8673 3.35856 15.323 3.36156C15.3254 3.5286 15.3254 3.69504 15.3236 3.86196C14.8676 3.86676 14.4116 3.86856 13.9556 3.86076C13.954 3.69492 13.954 3.528 13.956 3.36276ZM11.191 3.609C11.3749 3.6048 11.5589 3.6054 11.743 3.6054C11.919 3.94788 12.1399 4.26744 12.283 4.62624C12.1141 4.63416 11.9447 4.63416 11.7758 4.63476C11.5752 4.296 11.3815 3.95328 11.191 3.609ZM13.0692 4.21116C13.2283 4.20756 13.3874 4.20816 13.5473 4.21056C13.9806 4.88256 14.4017 5.56248 14.838 6.23292C14.8374 6.43692 14.8386 6.64092 14.8344 6.84492C14.7872 6.8364 14.694 6.82008 14.6474 6.81228C14.2771 6.26028 13.9364 5.6886 13.5703 5.1342C13.5643 5.7582 13.5721 6.3822 13.5661 7.0062C13.4003 7.00924 13.2341 7.00924 13.0675 7.0062C13.0656 6.07488 13.0626 5.14296 13.0692 4.21116ZM15.0468 4.58928C15.2162 4.58568 15.3863 4.58568 15.5557 4.59048C15.5569 4.7502 15.5569 4.91064 15.5557 5.07048C15.3863 5.07468 15.2162 5.07468 15.0474 5.07168C15.0462 4.91128 15.046 4.75048 15.0468 4.58928ZM6.66996 4.7472C6.80364 4.7448 6.93744 4.7454 7.07112 4.7466C7.42812 4.7226 7.78452 4.72968 8.14164 4.7502C8.14284 4.90512 8.14224 5.06064 8.14044 5.21556C7.61244 5.5326 7.10508 5.8842 6.56952 6.18756C6.4116 6.12756 6.29112 6.0012 6.16224 5.89584C6.51264 5.68224 6.85572 5.45712 7.20972 5.24952C7.03056 5.2404 6.85092 5.2416 6.67176 5.2398C6.66872 5.07524 6.66812 4.91104 6.66996 4.7472ZM10.8938 4.93116C11.0579 4.92636 11.2224 4.92696 11.3858 4.93116C11.39 5.0958 11.39 5.25972 11.3864 5.42436C11.2224 5.42924 11.0584 5.42944 10.8944 5.42496C10.8906 5.2604 10.8904 5.0958 10.8938 4.93116ZM8.48652 5.41284C8.7492 5.811 9.00396 6.21468 9.27012 6.61044C9.5358 6.20988 9.79236 5.8032 10.0604 5.40444C10.0604 5.66844 10.078 5.9352 10.055 6.19896C9.8118 6.61584 9.5304 7.0098 9.26832 7.41528C9.01056 7.01652 8.73756 6.62616 8.49312 6.2196C8.4654 5.952 8.48532 5.68152 8.48652 5.41284ZM15.7584 5.48004C16.5469 5.47644 17.3354 5.47664 18.1238 5.48064C18.1244 5.64036 18.1244 5.8008 18.1232 5.96064C17.3353 5.96248 16.547 5.96268 15.7584 5.96124C15.7578 5.8008 15.7572 5.64 15.7584 5.48004ZM11.5848 6.10452C11.7433 6.10152 11.9024 6.10152 12.0617 6.10332C12.0696 6.8028 12.0611 7.503 12.0659 8.20332C11.9921 8.27352 11.9189 8.34492 11.8469 8.41632C11.3004 8.42232 10.754 8.41692 10.2082 8.41932C10.1362 8.35032 10.0624 8.28432 9.99756 8.20992C9.96972 7.99572 9.99024 7.7772 9.98964 7.56192C10.1421 7.56072 10.2946 7.56072 10.4471 7.56192C10.4513 7.6854 10.4507 7.80876 10.4489 7.93224C10.8247 7.9746 11.2034 7.94424 11.5811 7.95336C11.583 7.33716 11.577 6.72 11.5848 6.10452ZM19.2077 8.172C19.2028 7.644 19.2028 7.11572 19.2077 6.58716C19.3729 6.58356 19.538 6.58296 19.7039 6.58716C19.7093 7.11516 19.7091 7.64364 19.7033 8.1726C19.538 8.17536 19.3729 8.17476 19.2077 8.172ZM16.8532 6.98628C17.1652 6.98328 17.4788 6.9348 17.7892 6.98508C17.9924 7.64772 18.1668 8.32056 18.3689 8.9844C18.2092 8.9856 18.0487 8.9856 17.8889 8.9856C17.7364 8.47068 17.6063 7.94964 17.449 7.4358C17.3612 7.437 17.2735 7.4382 17.1857 7.4388C17.055 7.95744 16.8977 8.46816 16.7627 8.98488C16.6017 8.98552 16.4408 8.98532 16.2798 8.98428C16.4779 8.32056 16.6637 7.65252 16.8532 6.98628ZM3.5142 7.23924C4.23312 7.23504 4.95264 7.23324 5.67144 7.23984C5.67564 7.40508 5.67564 7.5696 5.67204 7.73484C4.95204 7.74144 4.233 7.73964 3.51348 7.73544C3.5112 7.5702 3.5112 7.404 3.5142 7.23924ZM6.01044 7.23984C6.17388 7.23864 6.3372 7.23804 6.50124 7.23924C6.50484 7.40508 6.50484 7.5714 6.50124 7.73724C6.3372 7.73904 6.17388 7.73844 6.01044 7.73664C6.00852 7.5708 6.00852 7.40556 6.01044 7.23984ZM7.81728 7.26C7.9776 7.2588 8.13864 7.2594 8.29896 7.2612C8.30376 7.6452 8.30136 8.03028 8.30136 8.41464C8.13852 8.41584 7.9758 8.41644 7.81368 8.41524C7.812 8.03064 7.80696 7.6452 7.81728 7.26ZM20.384 7.60524C20.5686 7.60164 20.7538 7.60224 20.9383 7.60164C21.1211 7.94052 21.3432 8.26164 21.4793 8.62368C21.3113 8.62968 21.1422 8.63028 20.974 8.631C20.775 8.29032 20.5855 7.944 20.384 7.60524ZM13.108 8.016C13.268 8.0148 13.428 8.015 13.588 8.0166C13.5916 8.54304 13.5892 9.06948 13.5892 9.59604C13.4282 9.59724 13.2678 9.59784 13.1069 9.59784C13.1074 9.07092 13.1062 8.54328 13.108 8.016ZM14.796 8.65644C14.7942 8.49188 14.7944 8.32688 14.7966 8.16144C14.9581 8.15904 15.1206 8.15904 15.2825 8.16324C15.2831 8.32788 15.2837 8.4924 15.2813 8.65704C15.12 8.65764 14.9579 8.65704 14.796 8.65644ZM5.66304 9.38616C6.05088 9.10296 6.46488 8.85672 6.86304 8.58924C7.12632 8.59224 7.38888 8.58864 7.65216 8.59284C7.2612 8.87244 6.84552 9.11388 6.45216 9.38976C6.85644 9.64392 7.2528 9.9102 7.65456 10.1668C7.38408 10.1716 7.1136 10.1686 6.84312 10.1692C6.45276 9.9042 6.04728 9.66 5.66304 9.38616ZM19.2083 8.92692C19.3741 8.92332 19.5398 8.92272 19.7063 8.92632C19.7105 9.09216 19.7099 9.25728 19.7051 9.42312C19.5398 9.42672 19.3741 9.42612 19.2089 9.42252C19.2053 9.25732 19.2051 9.09212 19.2083 8.92692ZM2.18472 8.99472C3.01272 8.98992 3.84216 8.98812 4.67124 8.99592C4.67304 9.15264 4.67304 9.30996 4.67364 9.46728C4.30332 9.70992 3.933 9.95376 3.55236 10.1789C3.39144 10.1202 3.26976 9.98688 3.13236 9.88908C3.33744 9.7596 3.54564 9.63432 3.74436 9.49572C3.22452 9.49332 2.7048 9.49872 2.18436 9.49272C2.18196 9.32688 2.18208 9.16088 2.18472 8.99472ZM9.27444 9.4752C9.99156 9.4782 10.7086 9.4716 11.4251 9.4782C11.4426 9.64127 11.4403 9.80586 11.4185 9.9684C10.7038 9.9714 9.98976 9.969 9.27576 9.9696C9.27448 9.80432 9.27404 9.63952 9.27444 9.4752ZM11.8934 9.4782C12.0659 9.4746 12.2377 9.4746 12.4103 9.4806C12.4109 9.64156 12.4107 9.80212 12.4097 9.96228C12.2378 9.96708 12.0654 9.96708 11.8937 9.96408C11.892 9.80196 11.892 9.64032 11.8934 9.4782ZM14.1488 10.1717C14.1264 10.0016 14.3008 9.91452 14.3903 9.79776C14.6009 9.79836 14.8115 9.79656 15.0221 9.80076C15.0269 9.95928 15.0269 10.1178 15.0245 10.277C14.8914 10.2794 14.7576 10.2794 14.6245 10.2812V11.4104C15.2436 11.4146 15.8626 11.408 16.4816 11.414C16.4834 11.5744 16.4834 11.7348 16.4792 11.894C15.7822 11.8988 15.0844 11.8946 14.3873 11.8964C14.2984 11.7803 14.1277 11.6924 14.1494 11.5237C14.1464 11.0732 14.1462 10.6226 14.1488 10.1717ZM16.496 10.0216C16.6667 10.0156 16.8385 10.0156 17.0098 10.0222C17.0116 10.1855 17.0114 10.3489 17.0092 10.5124C16.8379 10.5184 16.6673 10.5184 16.496 10.513C16.4942 10.3489 16.4942 10.1856 16.496 10.0216ZM18.127 10.0216C18.8483 10.0118 19.569 10.0186 20.2903 10.018C20.2915 10.1844 20.2915 10.3514 20.2897 10.5178C19.569 10.5178 18.8483 10.5238 18.1276 10.5148C18.1252 10.3502 18.125 10.1858 18.127 10.0216ZM8.13504 10.5971C8.53932 10.5965 8.94288 10.5971 9.34704 10.5965C9.35064 10.7645 9.35064 10.9325 9.34644 11.1005C8.94284 11.1011 8.5394 11.1011 8.13612 11.1005C8.12908 10.9322 8.12872 10.7644 8.13504 10.5971ZM10.8006 10.5971C11.4348 10.5965 12.069 10.5977 12.7031 10.5959C12.9336 10.5599 13.1642 10.7992 13.1351 11.0267C13.1339 11.4926 13.1337 11.959 13.1345 12.4258C13.0534 12.5135 12.9718 12.6 12.89 12.6871C12.68 12.6871 12.4706 12.6877 12.2608 12.6847C12.2589 12.5247 12.2587 12.365 12.2602 12.2054C12.3914 12.2036 12.5228 12.2024 12.6541 12.2006C12.6547 11.8339 12.6535 11.4666 12.6553 11.0999C12.0392 11.0448 11.4185 11.0908 10.8006 11.0744C10.799 10.9148 10.799 10.7556 10.8006 10.5971ZM6.33108 10.7447C6.64092 10.7429 6.95016 10.7411 7.26 10.7459C7.44756 11.4157 7.64904 12.082 7.8264 12.7549C7.6704 12.7549 7.5144 12.7549 7.35924 12.7561C7.20012 12.2393 7.07724 11.7128 6.9132 11.1985C6.82488 11.2039 6.73656 11.2105 6.64812 11.2172C6.53076 11.7353 6.36312 12.2399 6.23484 12.7555C6.07452 12.7549 5.91408 12.7549 5.75484 12.7537C5.94564 12.084 6.1356 11.4133 6.33108 10.7447ZM19.848 11.3498C20.388 11.3444 20.9287 11.3389 21.468 11.3516C21.6042 11.4356 21.7578 11.572 21.7282 11.751C21.7282 12.135 21.7258 12.5201 21.7282 12.9044C21.7234 13.089 21.7318 13.2736 21.7264 13.4581C21.7349 13.6088 21.6937 13.757 21.7024 13.9084C21.5486 13.9078 21.3949 13.9084 21.2412 13.9066C21.243 13.2131 21.2412 12.519 21.2424 11.8255C20.8654 11.8152 20.4884 11.8231 20.1114 11.8201C20.1108 11.949 20.1108 12.0779 20.1084 12.2074C19.9498 12.2098 19.7913 12.2106 19.6327 12.2098C19.6297 11.9974 19.6303 11.7844 19.6309 11.572C19.704 11.4988 19.776 11.4248 19.848 11.3498ZM4.48116 11.3692H4.98276C4.98396 11.8962 4.98276 12.4226 4.98336 12.9492H4.47936C4.48176 12.4228 4.47996 11.8957 4.48116 11.3692ZM2.90724 11.8098C3.07188 11.8074 3.2364 11.8122 3.40044 11.8231C3.40228 11.9793 3.40228 12.1356 3.40044 12.2921C3.2346 12.2939 3.06888 12.2945 2.90304 12.2915C2.90124 12.1304 2.90184 11.9701 2.90724 11.8098ZM8.80128 14.6981C8.79704 13.7662 8.79684 12.8342 8.80068 11.9021C8.96412 11.8997 9.12744 11.8997 9.29088 11.9033C9.67488 12.5224 10.0709 13.1347 10.463 13.7495C10.6325 13.9679 10.5308 14.2608 10.5581 14.515C10.5012 14.5156 10.4443 14.5162 10.388 14.5174C10.0352 13.957 9.66672 13.4063 9.32904 12.8374C9.26796 13.4558 9.31812 14.0797 9.2982 14.7006C9.132 14.7023 8.9664 14.7023 8.80128 14.6981ZM10.98 12.2605C11.1464 12.2569 11.3128 12.2565 11.4792 12.2593C11.4816 12.6666 11.481 13.0739 11.4798 13.481C11.3128 13.484 11.1463 13.484 10.9794 13.4798C10.9766 13.0733 10.976 12.6666 10.98 12.2605ZM13.9969 12.8052C14.1598 12.804 14.3231 12.8034 14.4865 12.8052C14.4896 12.971 14.4896 13.1368 14.4865 13.3026C14.3232 13.3032 14.16 13.303 13.9969 13.302C13.9951 13.1368 13.9951 12.9712 13.9969 12.8052ZM15.5842 12.8269C16.0913 12.8203 16.5984 12.8239 17.1061 12.8251C17.1266 12.9733 17.1394 13.124 17.1248 13.2742C17.0768 13.3716 16.962 13.3328 16.8761 13.342C16.4441 13.3292 16.0108 13.3668 15.5818 13.318C15.5788 13.1537 15.5788 12.9904 15.5842 12.8269ZM17.6302 12.8971C17.7936 12.8947 17.9587 12.8838 18.1216 12.9091C18.1373 13.4815 18.1282 14.0558 18.1252 14.629C17.96 14.632 17.795 14.6318 17.6302 14.6284C17.6247 14.0513 17.6247 13.4742 17.6302 12.8971ZM13.108 13.236C13.2677 13.2354 13.4281 13.2348 13.588 13.2366C13.5898 13.4012 13.5904 13.5664 13.588 13.7322C13.428 13.7346 13.268 13.7346 13.108 13.7322C13.1068 13.5671 13.1068 13.4012 13.108 13.236ZM5.41428 13.5882C5.98428 13.5265 6.5598 13.5755 7.1322 13.5574C7.2797 13.5555 7.42719 13.5622 7.57392 13.5773C7.57632 13.7437 7.57572 13.9108 7.57452 14.0771C6.85452 14.0759 6.13608 14.0807 5.41728 14.0747C5.41308 13.9126 5.41308 13.7504 5.41428 13.5882ZM2.18532 13.956C2.26344 13.8798 2.34204 13.8029 2.42076 13.7267C2.62896 13.7255 2.83704 13.7249 3.04476 13.7291C3.04716 13.8864 3.04716 14.0443 3.04596 14.2016C2.91648 14.2046 2.7876 14.2052 2.65812 14.2064C2.66112 14.5817 2.65632 14.9568 2.66112 15.332C3.27408 15.3338 3.88716 15.3278 4.50012 15.335C4.50312 15.49 4.50312 15.6443 4.50192 15.7992C4.35 15.7998 4.19748 15.8004 4.04592 15.8004C3.50196 15.795 2.95728 15.8095 2.41332 15.7938C2.3226 15.7423 2.23116 15.6576 2.19 15.5615C2.17572 15.0266 2.18832 14.4911 2.18532 13.956ZM14.9022 14.268C14.9839 14.1912 15.0662 14.1143 15.1504 14.0393C15.6804 14.0435 16.2106 14.0399 16.7406 14.0411C16.8205 14.1173 16.9003 14.1942 16.9806 14.2698C16.9812 14.7944 16.9814 15.3189 16.9812 15.8431C16.8197 15.8443 16.658 15.8437 16.4971 15.8389C16.4965 15.3978 16.4935 14.9573 16.4989 14.5162C16.1269 14.5156 15.7565 14.5162 15.3854 14.5156C15.386 14.6498 15.3854 14.7842 15.3824 14.9185C15.2233 14.9209 15.0642 14.9209 14.9056 14.9203C14.9004 14.7029 14.9016 14.4857 14.9022 14.268ZM18.3054 15.1943C18.8934 14.8112 19.4873 14.4383 20.0802 14.0639C20.2218 14.1583 20.361 14.2576 20.499 14.3568C20.0724 14.6288 19.646 14.9001 19.2198 15.1708C19.8461 15.1774 20.4725 15.1702 21.0994 15.1744C21.1006 15.3408 21.1006 15.5078 21.0988 15.6742C20.168 15.6772 19.2374 15.6774 18.3067 15.6748C18.3042 15.5143 18.3042 15.354 18.3054 15.1943ZM11.6508 15.2892C12.2408 14.8964 12.8496 14.5321 13.4395 14.1395C13.5799 14.2363 13.7185 14.335 13.8613 14.4281C13.4533 14.7149 13.0202 14.9648 12.6044 15.2413C13.2271 15.2522 13.8498 15.2401 14.4725 15.2479C14.4767 15.4192 14.4767 15.591 14.4719 15.7622C13.54 15.7676 12.608 15.764 11.6759 15.764C11.652 15.607 11.652 15.4478 11.6508 15.2892ZM5.52564 14.8656C5.7846 15.2616 6.04428 15.6576 6.30024 16.0547C6.57492 15.6625 6.82068 15.2507 7.09296 14.8565C7.09836 15.1234 7.09416 15.3908 7.09656 15.6577C6.82548 16.0547 6.57732 16.4674 6.29904 16.8589C6.04128 16.4656 5.79132 16.0669 5.52264 15.6808C5.52 15.4091 5.51724 15.1368 5.52564 14.8656ZM8.364 15.8816C8.358 15.7122 8.3574 15.5428 8.367 15.3739C8.52984 15.3721 8.69376 15.3727 8.8566 15.3859C8.8602 15.5511 8.86 15.7163 8.856 15.8815C8.69232 15.8828 8.52828 15.8834 8.364 15.8816ZM10.6711 16.1262C10.8364 16.1244 11.0021 16.1238 11.1673 16.1256C11.1715 16.741 11.1673 17.3564 11.1697 17.9718C11.0524 17.9766 10.9349 17.9821 10.8175 17.9929C10.78 17.9856 10.705 17.9724 10.6674 17.9657C10.6711 17.3527 10.6644 16.7392 10.6711 16.1262ZM14.0894 16.512C14.4014 16.506 14.7127 16.5102 15.0244 16.5084C15.2156 17.1783 15.407 17.8482 15.5987 18.518C15.4378 18.5186 15.2767 18.5186 15.1164 18.5144C14.9796 18.0025 14.8314 17.4936 14.6922 16.9823C14.6051 16.9769 14.518 16.9732 14.4308 16.969C14.2868 17.4858 14.1432 18.0024 14 18.5188C13.8391 18.5182 13.6787 18.5182 13.5184 18.5164C13.7143 17.8495 13.9092 17.1827 14.0894 16.512ZM7.02456 17.622C7.6182 17.2408 8.21064 16.8571 8.81256 16.4886C8.95116 16.586 9.09096 16.6806 9.22824 16.7803C8.79744 17.0484 8.37504 17.3304 7.93992 17.5912C8.57052 17.6032 9.2016 17.5894 9.8328 17.5985C9.8358 17.7643 9.8364 17.93 9.8316 18.0959C8.89668 18.0989 7.96176 18.1032 7.02684 18.0941C7.02216 17.9366 7.02276 17.7793 7.02456 17.622ZM11.928 16.6103C12.1018 16.6122 12.2755 16.6017 12.4478 16.5788C12.6518 16.9148 12.8926 17.2481 12.9973 17.6305C12.8346 17.6317 12.6718 17.6317 12.5096 17.6329C12.3181 17.2904 12.1242 16.9496 11.928 16.6103ZM18.8004 16.8154C18.9704 16.81 19.1411 16.81 19.3117 16.8136C19.3124 16.9764 19.3124 17.1394 19.3117 17.3026C19.1411 17.3068 18.971 17.3068 18.801 17.2996C18.798 17.1379 18.798 16.977 18.8004 16.8154ZM17.5472 18.1176C17.753 17.7866 17.9732 17.4653 18.1802 17.1349C18.1862 17.38 18.19 17.6257 18.1838 17.8714C18.1898 17.9634 18.1228 18.0348 18.0798 18.1092C17.8518 18.4463 17.6332 18.79 17.4094 19.1292C17.1401 18.7274 16.8793 18.3214 16.613 17.9172C16.6118 17.6485 16.6094 17.3798 16.616 17.1118C16.8774 17.5033 17.1244 17.9051 17.3918 18.2929C17.4673 18.261 17.5013 18.18 17.5472 18.1176ZM4.88304 17.6414C5.31936 17.6269 5.75628 17.6341 6.1932 17.6372C6.1956 17.7988 6.20592 17.9612 6.18528 18.1225C5.75196 18.1436 5.31696 18.1334 4.88364 18.1255C4.88184 17.964 4.88184 17.803 4.88304 17.6414ZM10.2022 18.696C10.9016 18.6857 11.6006 18.6954 12.3001 18.6906C12.3801 18.7706 12.4601 18.8511 12.5401 18.932C12.5371 19.4664 12.5383 20.0014 12.5389 20.5368C12.4688 20.61 12.3994 20.684 12.3307 20.7589C12.1068 20.7637 11.8829 20.7643 11.6587 20.7577C11.6617 20.6064 11.6424 20.4521 11.6786 20.3039C11.8051 20.2906 11.9322 20.2954 12.0599 20.2942C12.0611 19.9196 12.0599 19.5456 12.0605 19.1717C11.4408 19.1681 10.8205 19.1796 10.2016 19.1657C10.1997 19.009 10.1999 18.8524 10.2022 18.696ZM6.8418 18.8741C7.00516 18.8717 7.16876 18.8721 7.3326 18.8753C7.335 19.0386 7.3352 19.2024 7.3332 19.3667C7.16864 19.3691 7.00464 19.3693 6.8412 19.3673C6.83896 19.2026 6.83916 19.0382 6.8418 18.8741ZM15.4964 19.1384C15.6816 18.9824 15.8498 19.2425 16.0084 19.3184C16.0084 19.333 16.009 19.3626 16.009 19.3771C15.5951 19.644 15.1715 19.8964 14.7666 20.1772L15.0014 20.1754C15.1261 20.1754 15.2512 20.1768 15.3767 20.1796C15.3779 20.343 15.3779 20.5069 15.3755 20.6704C14.866 20.6777 14.3564 20.6758 13.8469 20.6716C13.8366 20.5172 13.8349 20.3623 13.8336 20.2086C14.3776 19.836 14.9452 19.5 15.4964 19.1384ZM7.761 19.5923C8.42244 19.5899 9.08448 19.5863 9.7458 19.5941C9.747 19.7569 9.747 19.9199 9.7458 20.0831C9.08376 20.0928 8.42232 20.0885 7.7604 20.0855C7.7574 19.921 7.758 19.7563 7.761 19.5923ZM9.5238 20.8486C9.71016 20.8468 9.89652 20.8462 10.083 20.8498C10.2554 21.1928 10.4848 21.5088 10.6174 21.8712C10.4503 21.8803 10.2839 21.8803 10.117 21.8815C9.91284 21.5408 9.72228 21.192 9.5238 20.8486ZM12.8272 21.3702C12.99 21.369 13.1527 21.3714 13.3148 21.3822C13.3178 21.545 13.3166 21.7084 13.2961 21.8706C13.1406 21.8712 12.9855 21.8712 12.8308 21.8706C12.8248 21.7031 12.8248 21.5366 12.8272 21.3702ZM11.6926 22.9896C11.6932 22.6096 11.684 22.2289 11.6986 21.8489C11.8626 21.8495 12.0271 21.858 12.1906 21.8729C12.1924 22.245 12.1924 22.6174 12.1906 22.99C12.0246 22.9925 11.8586 22.9924 11.6926 22.9896Z" fill="white"/>
</svg>
