<svg width="24" height="24" viewBox="0 0 24 24" fill="none" xmlns="http://www.w3.org/2000/svg">
<g clip-path="url(#clip0_5_17207)">
<path d="M12 24C18.6274 24 24 18.6274 24 12C24 5.37258 18.6274 0 12 0C5.37258 0 0 5.37258 0 12C0 18.6274 5.37258 24 12 24Z" fill="#181818"/>
<path d="M12.5473 10.56L17.3185 5.7792L18.2881 6.7584L13.5169 11.5296L12.5473 10.56ZM5.7024 17.3952L10.4832 12.6144L11.4529 13.5936L6.68161 18.3648L5.7024 17.3952ZM12.5473 13.5936L13.5169 12.6144L18.2977 17.3952L17.3185 18.3648L12.5473 13.5936ZM5.7024 6.7584L6.68161 5.7792L11.4529 10.5504L10.4832 11.5296L5.7024 6.7584ZM11.0209 12.0672L12.0001 11.088L12.9793 12.0672L12.0001 13.0464L11.0209 12.0672Z" fill="#F6D30C"/>
</g>
<defs>
<clipPath id="clip0_5_17207">
<rect width="24" height="24" fill="white"/>
</clipPath>
</defs>
</svg>
