<svg width="24" height="24" viewBox="0 0 24 24" fill="none" xmlns="http://www.w3.org/2000/svg">
<g clip-path="url(#clip0_5_17188)">
<path d="M23.9836 12.0039C23.9836 18.5984 18.638 23.9442 12.0433 23.9442C5.44895 23.9442 0.103043 18.5984 0.103043 12.0039C0.103043 5.40944 5.44895 0.0636444 12.0433 0.0636444C18.638 0.0636444 23.9836 5.40944 23.9836 12.0039Z" fill="#008EBD"/>
<path d="M16.911 12.6162H15.1717L11.5447 10.207C11.5205 10.1909 11.4947 10.1796 11.4693 10.1672C11.466 10.1654 11.4627 10.1636 11.4593 10.1619C11.4462 10.1557 11.4334 10.1483 11.4201 10.143C11.3365 10.1056 11.246 10.0862 11.1545 10.0862H10.1321C9.77161 10.0862 9.4794 10.3784 9.4794 10.7389C9.4794 11.0993 9.77161 11.3915 10.1321 11.3915H10.9687L14.6093 13.8098C14.7268 13.8874 14.8665 13.9245 15.007 13.9156C15.0346 13.9192 15.0628 13.9217 15.0915 13.9217H16.9112C17.1465 13.9249 17.3653 13.8012 17.4838 13.5979C17.6024 13.3946 17.6024 13.1433 17.4838 12.94C17.3653 12.7368 17.1465 12.6131 16.9112 12.6162H16.911ZM11.3596 12.6162H10.2896L6.73349 10.2541C6.61406 10.1459 6.45867 10.0861 6.29755 10.0862H5.2751C4.91465 10.0862 4.62245 10.3784 4.62245 10.7389C4.62245 11.0993 4.91465 11.3915 5.2751 11.3915H6.08669L9.64322 13.7539C9.76262 13.8619 9.91784 13.9217 10.0788 13.9217H11.3596C11.7167 13.9168 12.0036 13.626 12.0036 13.269C12.0036 12.9119 11.7167 12.6211 11.3596 12.6162ZM19.3856 10.4278C19.2714 10.2172 19.0511 10.0861 18.8116 10.0862H15.1101C14.7496 10.0862 14.4574 10.3784 14.4574 10.7389C14.4574 11.0993 14.7496 11.3915 15.1101 11.3915H18.159V11.9376C18.159 12.298 18.4512 12.5902 18.8117 12.5902C19.1722 12.5902 19.4644 12.298 19.4644 11.9376V10.7387C19.4644 10.6263 19.4357 10.5202 19.3856 10.4278ZM6.39498 12.6162H5.27499C4.9145 12.6162 4.62227 12.9085 4.62227 13.269C4.62227 13.6294 4.9145 13.9217 5.27499 13.9217H6.39498C6.75203 13.9168 7.03893 13.626 7.03893 13.269C7.03893 12.9119 6.75203 12.6211 6.39498 12.6162Z" fill="white"/>
</g>
<defs>
<clipPath id="clip0_5_17188">
<rect width="24" height="24" fill="white"/>
</clipPath>
</defs>
</svg>
