<svg width="24" height="24" viewBox="0 0 24 24" fill="none" xmlns="http://www.w3.org/2000/svg">
<g clip-path="url(#clip0_5_17143)">
<path d="M12 0.0628281C5.40315 0.0628281 0.0628357 5.40314 0.0628357 12C0.0628357 18.5969 5.40315 23.9372 12 23.9372C18.5969 23.9372 23.9372 18.5969 23.9372 12C23.9372 5.40314 18.5969 0.0628281 12 0.0628281Z" fill="#1A53F0"/>
<path d="M15.7696 5.47853C13.9979 5.47853 12.5655 6.91099 12.5655 8.68272C12.5655 10.4544 13.9979 11.8869 15.7696 11.8869C17.5414 11.8869 18.9738 10.4544 18.9738 8.68272C18.9738 6.91099 17.5414 5.47853 15.7696 5.47853ZM15.7696 10.9194C14.5382 10.9194 13.533 9.91413 13.533 8.68272C13.533 7.45131 14.5382 6.44607 15.7696 6.44607C17.0011 6.44607 18.0063 7.45131 18.0063 8.68272C18.0063 9.91413 17.0011 10.9194 15.7696 10.9194ZM8.93404 12.3141C7.16231 12.3141 5.72985 13.7466 5.72985 15.5183C5.72985 17.2901 7.16231 18.7225 8.93404 18.7225C10.7058 18.7225 12.1382 17.2901 12.1382 15.5183C12.1382 13.7466 10.7058 12.3141 8.93404 12.3141ZM8.93404 17.755C7.70263 17.755 6.69739 16.7497 6.69739 15.5183C6.69739 14.2869 7.70263 13.2817 8.93404 13.2817C10.1655 13.2817 11.1707 14.2869 11.1707 15.5183C11.1707 16.7497 10.1655 17.755 8.93404 17.755ZM12.1382 6.44607V5.47853H8.93404C7.40106 5.46597 6.09425 6.5466 5.79268 8.04188C5.49111 9.53717 6.28273 11.045 7.69006 11.6356C9.09739 12.2262 10.7309 11.7487 11.5854 10.4921C12.4398 9.2356 12.3016 7.53927 11.2335 6.44607H12.1382ZM8.93404 10.9194C7.70263 10.9194 6.69739 9.91413 6.69739 8.68272C6.69739 7.45131 7.70263 6.44607 8.93404 6.44607C10.1655 6.44607 11.1707 7.45131 11.1707 8.68272C11.1707 9.91413 10.1655 10.9194 8.93404 10.9194Z" fill="white"/>
</g>
<defs>
<clipPath id="clip0_5_17143">
<rect width="24" height="24" fill="white"/>
</clipPath>
</defs>
</svg>
