<svg width="24" height="24" viewBox="0 0 24 24" fill="none" xmlns="http://www.w3.org/2000/svg">
<g clip-path="url(#clip0_5_17068)">
<path d="M6.41644 4.05087C6.03364 4.69527 5.20084 4.90767 4.55644 4.52487C3.91204 4.14207 3.69964 3.30927 4.08244 2.66487C4.46524 2.02047 5.29804 1.80807 5.94244 2.19087C6.58684 2.57367 6.79924 3.40647 6.41644 4.05087Z" fill="#5F45BA"/>
<path d="M1.78327 3.44843C1.51327 3.90323 0.924065 4.05323 0.469265 3.78323C0.0144651 3.51323 -0.135535 2.92523 0.134465 2.46923C0.404465 2.01323 0.993665 1.86443 1.44847 2.13443C1.90447 2.40563 2.05447 2.99363 1.78327 3.44843Z" fill="#5F45BA"/>
<path d="M14.6809 23.0925C19.6537 22.5081 23.6533 18.4425 23.9797 13.2681C24.3469 7.44567 19.9237 2.42847 14.1013 2.06247C13.4185 2.01927 12.7333 2.04327 12.0553 2.13207C10.6561 2.24607 9.47413 2.78007 9.47413 2.78007C8.51653 3.24807 7.89853 4.03047 7.89853 5.07687C7.89853 6.43767 9.00133 7.54167 10.3621 7.54167C10.5901 7.54167 11.3773 7.29207 11.5645 7.22727C12.2797 6.97767 13.0381 6.87447 13.7941 6.92367C15.8053 7.05087 17.5057 8.20767 18.4165 9.84807C18.9445 10.7985 19.1881 11.8797 19.1185 12.9645C18.9205 16.1025 16.2169 18.4869 13.0777 18.2889C11.2237 18.1713 9.63373 17.1789 8.68213 15.7401V15.7413V15.7401C7.54453 14.2521 7.80733 11.8725 7.80613 11.8425C7.75933 10.5189 6.67573 9.46047 5.34133 9.46047C4.20133 9.46047 3.24493 10.2345 2.96053 11.2845C2.90533 11.4909 2.87653 12.0957 2.88493 12.1761C2.64973 17.8977 7.02853 22.7853 12.7717 23.1465C13.4089 23.1861 14.0473 23.1681 14.6809 23.0925Z" fill="#5F45BA"/>
<path d="M5.00282 7.81886C4.50602 8.65526 3.42602 8.93006 2.59082 8.43326C1.75562 7.93646 1.47962 6.85646 1.97642 6.02126C2.47322 5.18606 3.55322 4.91006 4.38842 5.40686C5.22362 5.90366 5.49842 6.98366 5.00282 7.81886Z" fill="#5F45BA"/>
</g>
<defs>
<clipPath id="clip0_5_17068">
<rect width="24" height="24" fill="white"/>
</clipPath>
</defs>
</svg>
