<svg width="24" height="24" viewBox="0 0 24 24" fill="none" xmlns="http://www.w3.org/2000/svg">
<path fill-rule="evenodd" clip-rule="evenodd" d="M21.1691 15.3214C21.1691 15.3214 21.0763 17.166 18.8396 19.1044C16.603 21.0428 12.2014 22.6823 12.2014 22.6823C12.2014 22.6823 7.67108 20.7972 5.33045 18.836C2.82318 16.7352 3.23362 15.3214 3.23362 15.3214V2.84629L12.2131 1.41341L21.1691 2.84629V15.3214ZM12.1968 0.0230713L2.40479 2.04102V15.6451C2.40479 15.6451 2.18728 17.2827 4.69137 19.4778C7.19542 21.6729 12.1842 23.9826 12.1842 23.9826C12.1842 23.9826 16.9841 21.8843 19.4231 19.7705C21.8621 17.6567 21.9634 15.6451 21.9634 15.6451V2.04102L12.1968 0.0230713Z" fill="#372F45"/>
<path fill-rule="evenodd" clip-rule="evenodd" d="M12.1817 0.0261932V1.41844L12.2131 1.41341L21.1691 2.84629V15.3214C21.1691 15.3214 21.0762 17.166 18.8396 19.1044C16.603 21.0428 12.2014 22.6823 12.2014 22.6823C12.2014 22.6823 12.1942 22.6793 12.1817 22.674V23.9814C12.1828 23.9819 12.1841 23.9826 12.1841 23.9826C12.1841 23.9826 16.984 21.8843 19.4231 19.7705C21.8621 17.6567 21.9634 15.6451 21.9634 15.6451V2.04102L12.1968 0.0230713L12.1817 0.0261932Z" fill="#5C4D7D"/>
<path fill-rule="evenodd" clip-rule="evenodd" d="M12.0596 2.38839L3.96881 3.66015L3.95154 14.8857C3.95154 14.8857 3.6192 16.3572 6.00217 18.3539C8.22686 20.2179 12.1817 21.7786 12.1817 21.7786C12.1817 21.7786 16.0686 20.075 18.2806 18.3373C20.6995 16.4372 20.3418 14.6566 20.3418 14.6566L20.3198 3.69015L12.0596 2.38839Z" fill="#372F45"/>
<path fill-rule="evenodd" clip-rule="evenodd" d="M20.3198 3.69015L12.0596 2.38839L5.46716 3.42458C6.60185 12.4427 12.5321 16.269 19.8996 16.521C20.4987 15.4396 20.3417 14.6566 20.3417 14.6566L20.3198 3.69015Z" fill="#5C4D7D"/>
<path fill-rule="evenodd" clip-rule="evenodd" d="M13.6398 5.20243H9.07428V6.29522H13.4887V6.2977C15.0261 6.34946 16.2486 7.20414 16.2486 9.02005C16.2486 10.7268 15.0261 11.684 13.4887 11.7423H13.4886C13.4389 11.7442 13.3889 11.7451 13.3386 11.7451L9.27096 11.7423V17.7786H10.4393V12.8369C10.5355 12.8441 13.6398 12.8489 13.6398 12.8489C15.767 12.8489 17.4912 11.1372 17.4912 9.02556C17.4912 6.91414 15.767 5.20243 13.6398 5.20243Z" fill="white"/>
<path fill-rule="evenodd" clip-rule="evenodd" d="M8.22961 9.46815H12.9491V8.52756H8.22961V9.46815Z" fill="white"/>
</svg>
