<svg width="24" height="24" viewBox="0 0 24 24" fill="none" xmlns="http://www.w3.org/2000/svg">
<g clip-path="url(#clip0_5_16962)">
<path fill-rule="evenodd" clip-rule="evenodd" d="M24 12C24 18.6274 18.6274 24 12 24C5.37255 24 0 18.6274 0 12C0 5.37255 5.37255 0 12 0C18.6274 0 24 5.37255 24 12Z" fill="#388CBF"/>
<path fill-rule="evenodd" clip-rule="evenodd" d="M12 22.2542C6.34588 22.2542 1.74583 17.6541 1.74583 12C1.74583 6.34588 6.34588 1.74583 12 1.74583C17.6541 1.74583 22.2542 6.34588 22.2542 12C22.2542 17.6541 17.6541 22.2542 12 22.2542ZM12 1.08285C5.98031 1.08285 1.08285 5.98031 1.08285 12C1.08285 18.0197 5.98031 22.9171 12 22.9171C18.0197 22.9171 22.9171 18.0197 22.9171 12C22.9171 5.98031 18.0197 1.08285 12 1.08285Z" fill="#F5F5F3"/>
<path fill-rule="evenodd" clip-rule="evenodd" d="M18.7418 12.1958C18.6365 12.4006 18.3868 12.5824 17.993 12.741L16.8265 13.2108L16.1869 11.6228L17.3484 11.155C17.749 10.9937 18.056 10.9473 18.2695 11.0159C18.483 11.0846 18.6516 11.2722 18.7397 11.491C18.8346 11.7267 18.8472 11.9911 18.7418 12.1958ZM19.8728 9.91823C19.4966 9.70794 19.0168 9.64588 18.4333 9.73207C18.7345 9.46993 18.9341 9.19784 19.0319 8.91587C19.1785 8.49289 19.1637 8.06261 18.9874 7.62497C18.7772 7.10314 18.4098 6.74241 17.8854 6.54279C17.4933 6.39362 17.0484 6.38062 16.5506 6.50354C16.6231 6.63468 16.6899 6.77529 16.7505 6.92573C16.9366 7.38802 17.0178 7.82931 16.995 8.24579C17.1291 8.3341 17.2387 8.48215 17.3063 8.64995C17.3998 8.88219 17.4192 9.13207 17.329 9.31114C17.2387 9.49041 16.9711 9.66955 16.6142 9.81322L15.9845 10.0669C15.6785 10.3014 15.3036 10.509 14.86 10.6877L13.9425 11.0572L15.6964 15.4122L18.6764 14.2121C18.8447 14.1443 19.1729 13.973 19.6608 13.6982C20.0277 13.4918 20.2847 13.2943 20.4318 13.106C20.6697 12.8028 20.8161 12.4622 20.8712 12.0839C20.9263 11.7057 20.8765 11.3246 20.7219 10.9408C20.5321 10.4695 20.249 10.1287 19.8728 9.91823Z" fill="#FFFFFE"/>
<path fill-rule="evenodd" clip-rule="evenodd" d="M4.40122 9.25658L2.95067 9.8408L3.09255 10.1932L3.64164 9.97207L7.22407 18.867L7.57651 18.7251L3.99408 9.83012L4.54316 9.60902L4.40122 9.25658Z" fill="#FFFFFE"/>
<path fill-rule="evenodd" clip-rule="evenodd" d="M14.7174 8.50455C14.6006 8.7297 14.0574 9.03746 13.6164 9.21501L13.0559 9.44082L12.3908 7.78946L13.0422 7.52712C13.4698 7.35494 14.0578 7.21193 14.2778 7.31118C14.4977 7.41043 14.6545 7.57618 14.7481 7.80849C14.8444 8.04756 14.8341 8.2796 14.7174 8.50455ZM15.2563 5.57304C14.6852 5.3453 13.9856 5.39814 13.1574 5.73169L10.5395 6.78603L9.08838 7.36886L9.23025 7.72131L9.7794 7.50013L13.3618 16.3951L13.7142 16.2531L13.0075 14.4986L14.8018 13.7759L13.6599 10.9407L14.7802 10.4895C15.7026 10.118 16.3039 9.63129 16.5838 9.02944C16.8638 8.42758 16.8532 7.75293 16.5522 7.00555C16.2593 6.27832 15.8273 5.80091 15.2563 5.57304Z" fill="#FFFFFE"/>
<path fill-rule="evenodd" clip-rule="evenodd" d="M10.4482 10.6251L10.2095 10.7212L9.9848 10.1633L10.036 10.1426C10.11 10.1128 10.1458 10.0288 10.116 9.95489L9.3604 8.07878C9.33063 8.00486 9.24656 7.96906 9.17264 7.99883L9.04906 8.04862C8.59611 7.49894 7.82314 7.27949 7.12734 7.55973L5.92329 8.04464C5.22749 8.32488 4.82234 9.01883 4.87684 9.72895L4.75319 9.77874C4.67927 9.80851 4.64347 9.89257 4.6733 9.9665L5.42891 11.8426C5.45867 11.9165 5.54267 11.9523 5.6166 11.9226L5.66785 11.9019L5.8926 12.4599L5.65399 12.556C5.51509 12.6119 5.44787 12.7699 5.50382 12.9087L5.53783 12.9931C5.55129 13.0266 5.58928 13.0428 5.62276 13.0293L5.87423 12.928C5.93841 12.9022 5.99244 12.8622 6.03494 12.8133L7.29414 15.9398L7.2429 15.9605C7.16897 15.9903 7.13317 16.0744 7.16294 16.1483L7.91854 18.0244C7.94838 18.0983 8.03238 18.1341 8.1063 18.1043L8.15755 18.0837L8.21967 18.2378C8.33231 18.5176 8.65048 18.6531 8.93025 18.5404L12.234 17.2098C12.5138 17.0971 12.6493 16.779 12.5366 16.4992L12.4745 16.345L12.5257 16.3244C12.5997 16.2946 12.6355 16.2105 12.6057 16.1366L11.8501 14.2605C11.8203 14.1866 11.7363 14.1508 11.6623 14.1806L11.6111 14.2012L10.3519 11.0747C10.4164 11.0804 10.4831 11.0718 10.5473 11.046L10.7987 10.9447C10.8322 10.9312 10.8483 10.8932 10.8349 10.8597L10.8009 10.7753C10.745 10.6364 10.587 10.5692 10.4482 10.6251Z" fill="#FFFFFE"/>
</g>
<defs>
<clipPath id="clip0_5_16962">
<rect width="24" height="24" fill="white"/>
</clipPath>
</defs>
</svg>
