<svg width="24" height="24" viewBox="0 0 24 24" fill="none" xmlns="http://www.w3.org/2000/svg">
<g clip-path="url(#clip0_5_16928)">
<path fill-rule="evenodd" clip-rule="evenodd" d="M10.9291 13.9344C10.8457 13.8264 10.7586 13.7123 10.6728 13.5921C10.5771 13.4572 10.544 13.3272 10.5734 13.191C10.6372 12.8942 10.9917 12.6341 11.1229 12.5593L10.961 12.2674C10.9365 12.2809 10.36 12.6133 10.2508 13.1174C10.2005 13.348 10.2521 13.5737 10.4042 13.7872C10.4925 13.911 10.582 14.0276 10.6679 14.1392C11.096 14.6973 11.2898 14.9819 11.026 15.3364C10.9132 15.4873 10.7832 15.5854 10.6446 15.6884C10.3011 15.946 9.94541 16.2122 10.0656 17.2033L10.3931 17.1628C10.2962 16.3643 10.5244 16.1938 10.8408 15.957C10.9856 15.8491 11.1487 15.7264 11.291 15.5363C11.7191 14.9623 11.3351 14.463 10.9291 13.9344Z" fill="#DEC685"/>
<path fill-rule="evenodd" clip-rule="evenodd" d="M10.9402 12.3483C10.7918 12.4428 10.3943 12.7298 10.3073 13.1297C10.2606 13.3431 10.3085 13.5529 10.452 13.7528C10.5403 13.8767 10.6286 13.992 10.7133 14.1024C11.1475 14.6691 11.3609 14.9819 11.0727 15.3695C10.9549 15.5277 10.8212 15.6271 10.6789 15.7338C10.3404 15.9877 10.0202 16.2269 10.1159 17.1371L10.3281 17.1101C10.2459 16.3275 10.4925 16.1423 10.804 15.9092C10.9463 15.8025 11.1058 15.6835 11.2432 15.5007C11.6455 14.961 11.2922 14.501 10.8825 13.9675C10.7991 13.8583 10.7108 13.7442 10.6249 13.6228C10.5182 13.4731 10.4827 13.3272 10.5158 13.1751C10.5783 12.8893 10.8838 12.6403 11.0445 12.536L10.9402 12.3483ZM10.0141 17.2683L10.0067 17.2106C9.88162 16.1852 10.268 15.8969 10.6078 15.6418C10.7427 15.5412 10.8715 15.4443 10.9782 15.3008C11.2076 14.9929 11.0702 14.7611 10.62 14.1748C10.5293 14.0582 10.441 13.9405 10.3551 13.8215C10.1932 13.5946 10.138 13.3529 10.192 13.1052C10.3036 12.5912 10.8654 12.2539 10.9304 12.2171L10.9819 12.1876L11.2002 12.5814L11.1512 12.6096C11.0346 12.6758 10.6887 12.9273 10.6299 13.2033C10.6041 13.321 10.6335 13.4376 10.7194 13.559C10.8053 13.6792 10.8911 13.7921 10.9745 13.9C11.3756 14.4225 11.7902 14.9635 11.3364 15.5731C11.1892 15.7694 11.0224 15.8945 10.8752 16.0049C10.5636 16.2379 10.3575 16.3925 10.4508 17.1567L10.4581 17.2143L10.0141 17.2683ZM6.97208 6.94141C5.2634 6.87394 4.8623 7.51914 4.82673 8.07357C4.81078 8.3238 4.82918 8.60225 4.85003 8.89786C4.89419 9.54552 4.93957 10.2165 4.60103 10.555C4.40232 10.7537 4.07849 10.8322 3.61115 10.7954L3.58539 11.1291C3.66757 11.1352 3.74608 11.1389 3.82213 11.1389C4.26861 11.1389 4.60103 11.0248 4.83286 10.793C5.27935 10.3465 5.2266 9.56514 5.17999 8.87578C5.16037 8.59243 5.14319 8.32503 5.15669 8.09565C5.19471 7.50565 5.80066 7.22843 6.95981 7.27627L6.97208 6.94141Z" fill="#DEC685"/>
<path fill-rule="evenodd" clip-rule="evenodd" d="M3.64675 11.0763C4.16806 11.1082 4.54095 11.0027 4.79118 10.7525C5.21804 10.3244 5.16653 9.55655 5.12114 8.87946C5.10151 8.59488 5.08434 8.32625 5.09783 8.09197C5.13709 7.47375 5.74426 7.17937 6.90342 7.21616L6.912 6.99783C5.63019 6.95735 4.93101 7.33147 4.8844 8.07725C4.86846 8.32625 4.88686 8.60102 4.90771 8.89295C4.95187 9.5541 4.99848 10.2386 4.64153 10.5955C4.43914 10.7979 4.12022 10.8838 3.66515 10.8568L3.64675 11.0763ZM3.82215 11.1965C3.74488 11.1965 3.66515 11.1941 3.58051 11.1867L3.52286 11.1818L3.5572 10.7329L3.61485 10.7378C4.0638 10.7734 4.3729 10.6998 4.55812 10.5133C4.87827 10.1932 4.83289 9.5357 4.79118 8.90031C4.77155 8.6047 4.75193 8.32503 4.76787 8.06866C4.80467 7.48847 5.21682 6.81383 6.97333 6.88252L7.03098 6.88498L7.01381 7.33515L6.95616 7.33269C5.83626 7.28731 5.24871 7.5449 5.21314 8.0981C5.19842 8.3238 5.21682 8.58998 5.23644 8.87087C5.28428 9.5725 5.33703 10.3686 4.87336 10.8335C4.62927 11.0788 4.28459 11.1965 3.82215 11.1965Z" fill="#DEC685"/>
<path fill-rule="evenodd" clip-rule="evenodd" d="M9.49772 12.563C9.41431 12.4538 9.32722 12.3409 9.24136 12.2195C9.13464 12.0698 9.09785 11.93 9.12851 11.7902C9.18126 11.5522 9.41308 11.3719 9.5198 11.3008C9.7504 11.3928 10.0301 11.4541 10.3711 11.4676V11.47C10.3944 11.47 10.4189 11.47 10.4422 11.4688C10.4655 11.47 10.4888 11.47 10.5134 11.47V11.4676C11.4615 11.4308 11.9411 11.0186 12.184 10.6139C12.4109 10.7059 13.061 11.0395 13.0316 11.8454C13.0169 12.2428 12.6845 12.6218 12.3619 12.9886C11.9043 13.5111 11.3842 14.1036 11.8172 14.8064L12.0981 14.6298C11.816 14.171 12.103 13.7871 12.6096 13.2106C12.9703 12.7997 13.3431 12.3741 13.3615 11.8576C13.3873 11.1376 12.9764 10.6838 12.5888 10.4446C12.9126 10.4115 13.3235 10.3011 13.4229 10.095C13.4584 10.0214 13.5517 9.82637 12.6587 7.70186C12.5949 7.39766 12.4146 6.52554 12.3619 6.10113C13.0255 5.18852 12.7286 4.25262 12.1288 3.72026C11.5081 3.17074 10.4815 2.96957 9.68907 3.59392C9.46215 3.07506 8.8881 2.70953 8.12514 2.61508C6.76851 2.44826 5.77864 3.17197 5.43396 3.9153C4.9887 4.87574 5.23402 5.5516 5.46953 5.91223C4.73479 5.91959 4.22329 6.0999 3.91419 6.45685C3.41864 7.02845 3.58423 7.89076 3.7167 8.58503C3.77803 8.90763 3.85531 9.30873 3.77681 9.40686C3.51922 9.73069 3.22729 9.63747 3.11321 9.58227C2.91818 9.48782 2.79552 9.30015 2.82986 9.14559L2.50727 9.07445C2.44103 9.3811 2.63606 9.7221 2.97215 9.88402C3.26899 10.0275 3.70444 10.0324 4.03562 9.61539C4.2098 9.39705 4.13621 9.01067 4.04176 8.52125C3.924 7.89935 3.77558 7.12658 4.16442 6.67641C4.44776 6.34891 5.00587 6.20907 5.82402 6.25568L5.93564 5.95761C5.92706 5.95148 5.15184 5.31241 5.73448 4.05758C6.15643 3.14743 7.24934 2.84323 8.08712 2.94627C8.66731 3.01741 9.32845 3.31057 9.44866 3.92143L9.72832 4.00607C10.2276 3.49334 11.1622 3.30689 11.9117 3.97172C12.3655 4.37405 12.6759 5.12351 12.0822 5.92082C10.5624 5.68531 9.42535 5.8877 8.70656 6.52799C8.26988 6.9156 8.08099 7.38172 7.9988 7.73376C7.96323 7.70554 7.92521 7.68224 7.88473 7.66261C7.77188 7.61109 7.54373 7.5559 7.27388 7.75829C7.00647 7.95945 6.89731 8.2612 6.966 8.60588C7.04695 9.0168 7.36342 9.43262 7.67743 9.66691C7.52778 9.81287 7.37446 10.0091 7.32294 10.2459C7.27265 10.4765 7.32417 10.7022 7.47627 10.9156C7.56458 11.0395 7.65413 11.156 7.73999 11.2676C8.16808 11.8258 8.36188 12.1103 8.09816 12.4648C7.98531 12.6157 7.85406 12.7138 7.71546 12.8169C7.372 13.0745 7.01629 13.3406 7.1365 14.3317L7.464 14.2913C7.3671 13.4927 7.59525 13.3222 7.91171 13.0867C8.05645 12.9788 8.21959 12.8561 8.36188 12.666C8.78997 12.0919 8.40604 11.5927 8.00003 11.0628C7.91294 10.9499 7.82708 10.8359 7.74367 10.7206C7.64799 10.5856 7.6161 10.4544 7.64431 10.3195C7.68479 10.1306 7.84302 9.95639 7.98654 9.83618C7.99635 9.83986 8.02579 9.80429 8.02579 9.80429C8.09325 9.75154 8.15336 9.71106 8.19383 9.68899L8.11288 9.54302L8.03192 9.39705C8.00248 9.41422 7.97427 9.4314 7.94606 9.45102C7.69215 9.29033 7.35974 8.90518 7.28737 8.5421C7.24321 8.32131 7.30331 8.15326 7.46891 8.02692C7.57072 7.94964 7.66271 7.93002 7.74489 7.96804C7.84302 8.0122 7.92398 8.14099 7.93257 8.26611L8.08835 8.25384L8.26252 8.24648C8.2613 8.2379 8.24045 7.38049 8.92367 6.77699C9.57009 6.20539 10.6213 6.03244 12.0466 6.25568C12.1288 6.82115 12.3459 7.83434 12.3557 7.88218L12.3704 7.8785C12.7298 8.73468 13.0991 9.73192 13.1138 9.95761C13.0095 10.0484 12.5704 10.1306 12.3815 10.1293C12.4293 9.94167 12.4305 9.80919 12.4305 9.80429H12.0994C12.0994 9.85826 12.0797 11.102 10.4398 11.1364C8.81082 11.1008 8.78261 9.85703 8.78138 9.80306L8.61701 9.80429H8.45142C8.45142 9.81655 8.46369 10.647 9.19352 11.1315C9.04388 11.2591 8.86356 11.4578 8.80591 11.7166C8.75317 11.9521 8.80837 12.1876 8.97273 12.417C9.06105 12.5409 9.15059 12.6574 9.23645 12.769C9.66454 13.3271 9.85835 13.6105 9.59462 13.965C9.48178 14.1158 9.35053 14.214 9.21315 14.3182C8.8697 14.5758 8.51398 14.8408 8.63419 15.8331L8.96169 15.7926C8.86479 14.9941 9.09294 14.8236 9.4094 14.5869C9.55414 14.4789 9.71728 14.3563 9.85957 14.1661C10.2864 13.5909 9.9025 13.0916 9.49772 12.563Z" fill="#DEC685"/>
<path fill-rule="evenodd" clip-rule="evenodd" d="M8.51281 9.86201C8.52999 10.0558 8.63302 10.69 9.22671 11.0825L9.29049 11.1254L9.23161 11.1757C9.09301 11.2935 8.9176 11.4836 8.86363 11.7289C8.81456 11.9485 8.86731 12.1681 9.02064 12.3827C9.10895 12.5066 9.19727 12.6231 9.28313 12.7335C9.71613 13.299 9.92956 13.6118 9.64131 13.9994C9.52355 14.1564 9.39108 14.257 9.25001 14.3625C8.90901 14.6176 8.58886 14.8568 8.68454 15.7682L8.89797 15.7412C8.81579 14.9586 9.06234 14.7722 9.3739 14.5403C9.51619 14.4336 9.67565 14.3146 9.81181 14.1319C10.2129 13.5934 9.86087 13.1334 9.45241 12.5998L9.49779 12.563L9.45118 12.5986C9.36777 12.4894 9.28068 12.3754 9.19359 12.2539C9.07706 12.0908 9.03658 11.9338 9.07215 11.778C9.12981 11.5167 9.38249 11.3229 9.48798 11.2518L9.51374 11.2346L9.54195 11.2456C9.78114 11.3413 10.062 11.3965 10.3736 11.4088L10.4276 11.4112H10.4423H10.4852L10.5122 11.4088C11.2789 11.3781 11.8247 11.1009 12.1363 10.5833L12.162 10.5416L12.2074 10.56C12.4221 10.647 13.1225 10.9966 13.0918 11.8479C13.0759 12.265 12.7361 12.6526 12.4086 13.0267C11.9743 13.521 11.4849 14.0791 11.8394 14.7256L12.0222 14.6102C11.7695 14.1405 12.0762 13.732 12.568 13.1714C12.9225 12.7679 13.2881 12.3508 13.3065 11.8553C13.3347 11.0899 12.8514 10.6728 12.5607 10.4937L12.4159 10.4042L12.5852 10.387C12.9188 10.3527 13.2905 10.241 13.3727 10.0705C13.4512 9.9074 13.1936 9.11868 12.6073 7.72524C12.5484 7.4468 12.3607 6.54156 12.3068 6.10856L12.3031 6.08648L12.3166 6.06686C12.9593 5.18369 12.6662 4.27354 12.0909 3.76327C11.5009 3.24073 10.4999 3.02975 9.72594 3.63938L9.66707 3.68599L9.63763 3.6173C9.41806 3.11562 8.85013 2.76235 8.12029 2.67281C6.79186 2.50967 5.82528 3.21497 5.48918 3.9399C5.066 4.85251 5.27207 5.49893 5.51985 5.88164L5.5775 5.96995L5.47201 5.97118C4.75321 5.97854 4.25888 6.15027 3.96081 6.49495C3.48365 7.0457 3.64557 7.89329 3.77559 8.57406C3.86023 9.01319 3.91297 9.33211 3.82465 9.44251C3.5413 9.79823 3.21625 9.69519 3.08991 9.63386C2.89119 9.53819 2.76362 9.35787 2.7673 9.18983L2.5551 9.14322C2.52934 9.40816 2.7072 9.69029 2.99668 9.83135C3.27267 9.96505 3.67869 9.96873 3.98902 9.57989C4.14603 9.38118 4.07489 9.00706 3.98412 8.53236C3.86268 7.8982 3.71303 7.10948 4.11904 6.63969C4.40853 6.30482 4.96787 6.15517 5.78357 6.19688L5.86698 5.97486C5.72102 5.8338 5.14696 5.18369 5.68176 4.03313C6.11599 3.09599 7.2359 2.78443 8.09331 2.88992C8.68209 2.96229 9.35428 3.25913 9.49779 3.87612L9.71123 3.94113C10.235 3.42718 11.1856 3.25054 11.9498 3.92886C12.4184 4.34469 12.7459 5.12482 12.1277 5.95646L12.1068 5.98467L12.0725 5.97977C10.5686 5.74671 9.44873 5.94542 8.74465 6.57222C8.31165 6.95738 8.13011 7.4235 8.05528 7.74732L8.03443 7.83564L7.96329 7.77922C7.92649 7.751 7.89337 7.73015 7.86148 7.71421C7.76089 7.66759 7.55482 7.61853 7.31072 7.80375C7.06172 7.99142 6.95991 8.27232 7.02369 8.59369C7.10587 9.00951 7.4297 9.40816 7.71305 9.61914L7.76825 9.65962L7.71919 9.70746C7.53519 9.88409 7.42234 10.0693 7.38064 10.257C7.33403 10.4704 7.38187 10.6802 7.52538 10.8801C7.60879 10.9966 7.69343 11.107 7.77438 11.2125L7.78788 11.2309C8.2221 11.7964 8.43554 12.1092 8.14728 12.4968C8.02952 12.655 7.89459 12.7556 7.75231 12.8611C7.41376 13.115 7.09361 13.3542 7.18929 14.2656L7.40272 14.2398C7.32053 13.456 7.56831 13.2708 7.87988 13.039C8.02339 12.931 8.18285 12.812 8.31778 12.6305C8.72011 12.0908 8.36685 11.6308 7.95715 11.0972C7.87129 10.9856 7.78543 10.8727 7.69956 10.7538C7.59284 10.6053 7.55727 10.4581 7.59039 10.3073C7.637 10.0938 7.81364 9.90862 7.95225 9.79087L7.97678 9.77002L7.98046 9.77124L7.98536 9.76634C8.03443 9.72586 8.07981 9.69274 8.12029 9.66698L8.0148 9.47685C8.00376 9.48421 7.99395 9.49035 7.98291 9.49771L7.94857 9.51856L7.91667 9.49893C7.63823 9.32353 7.30459 8.9212 7.23222 8.55321C7.18438 8.31157 7.25307 8.11899 7.43584 7.98038C7.55605 7.88961 7.6689 7.86631 7.77071 7.91414C7.87252 7.96076 7.95715 8.07728 7.98414 8.2024L8.20738 8.19013C8.21474 7.98161 8.28589 7.26404 8.88816 6.73291C9.54686 6.15027 10.6128 5.97118 12.0578 6.19811L12.1007 6.20547L12.1068 6.24717C12.1767 6.72432 12.3399 7.51427 12.4024 7.81356L12.4073 7.81234L12.4257 7.85649C12.7766 8.69427 13.158 9.71482 13.174 9.95401L13.1764 9.98345L13.1544 10.0018C13.0305 10.1086 12.5754 10.1871 12.3889 10.1871H12.384H12.3104L12.3276 10.1159C12.3485 10.0325 12.3632 9.94788 12.3718 9.86324H12.1583C12.1375 10.1257 11.9584 11.1635 10.4435 11.1953C8.93477 11.1635 8.74955 10.1245 8.72625 9.86324L8.51281 9.86201ZM8.58273 15.8957L8.57537 15.8381C8.45025 14.8126 8.83664 14.5244 9.17764 14.2705C9.3138 14.1687 9.44014 14.073 9.54808 13.9295C9.77746 13.6216 9.64131 13.3898 9.19114 12.8034C9.10527 12.6918 9.01573 12.5741 8.92619 12.4489C8.75323 12.2061 8.69435 11.9558 8.75078 11.7019C8.80598 11.4591 8.96176 11.2665 9.10159 11.1352C8.40364 10.6274 8.39506 9.81049 8.39506 9.80191V9.74426L8.84032 9.74303L8.84155 9.80068C8.84155 9.8522 8.86976 11.042 10.446 11.0764C12.0283 11.0432 12.0467 9.85343 12.0467 9.80191V9.74426H12.4932V9.80191C12.4932 9.80313 12.492 9.9074 12.4589 10.0669C12.6527 10.0534 12.9507 9.98835 13.0562 9.92825C13.017 9.68415 12.714 8.84269 12.3399 7.94358L12.3153 7.94972L12.3031 7.89329C12.2491 7.64061 12.0774 6.81877 12.0001 6.30482C10.6128 6.09384 9.59224 6.2668 8.96666 6.81877C8.30429 7.40264 8.32391 8.23429 8.32514 8.24288L8.32637 8.30053L7.88355 8.32629L7.87865 8.26864C7.87006 8.16437 7.8026 8.0552 7.72409 8.01841C7.66276 7.99019 7.59162 8.00737 7.50698 8.07115C7.35856 8.184 7.30704 8.32874 7.34752 8.52868C7.4113 8.84883 7.70201 9.20945 7.94857 9.37873C7.98168 9.35787 8.00254 9.34561 8.00622 9.34315L8.05651 9.31617L8.27362 9.70746L8.22333 9.73567C8.17917 9.76143 8.11784 9.80313 8.06264 9.84729C8.05038 9.86447 8.0332 9.87919 8.01358 9.88777C7.90931 9.97731 7.74127 10.1454 7.70079 10.3294C7.67503 10.4483 7.70447 10.5649 7.79033 10.6851C7.87497 10.8041 7.96083 10.9157 8.04302 11.0224C8.44658 11.5486 8.86117 12.0896 8.40732 12.6992C8.26258 12.8942 8.09576 13.0181 7.94979 13.1285C7.63455 13.364 7.4297 13.5173 7.5217 14.2827L7.52906 14.3404L7.08625 14.3956L7.07889 14.3379C6.955 13.3125 7.34016 13.0242 7.68116 12.7691C7.81609 12.6685 7.94366 12.5728 8.0516 12.4281C8.28098 12.1202 8.1436 11.8884 7.69343 11.3021L7.67993 11.2837C7.59775 11.1769 7.51311 11.0653 7.4297 10.9488C7.26656 10.7219 7.21259 10.4802 7.26656 10.2325C7.30827 10.0399 7.41744 9.8522 7.59039 9.67189C7.30213 9.43883 6.9918 9.0365 6.90839 8.617C6.83602 8.24901 6.95255 7.92764 7.23835 7.71175C7.53151 7.48973 7.78297 7.55229 7.90809 7.60872C7.92649 7.6173 7.94489 7.62711 7.96206 7.63693C8.07859 7.19167 8.32391 6.79056 8.66614 6.48391C9.39353 5.83871 10.5331 5.62896 12.0541 5.85833C12.5975 5.10151 12.2982 4.39375 11.8713 4.01473C11.1488 3.37443 10.2485 3.55229 9.76765 4.04662L9.74312 4.07115L9.39598 3.96689L9.38985 3.93254C9.27577 3.35235 8.6367 3.07268 8.07736 3.00399C7.26166 2.90341 6.19449 3.1978 5.7848 4.08219C5.22546 5.28796 5.96266 5.90617 5.97002 5.91353L6.00191 5.93929L5.86208 6.31709L5.81915 6.31463C5.01939 6.2668 4.47722 6.40295 4.20613 6.71574C3.83569 7.14383 3.98044 7.90188 4.09697 8.51151C4.19387 9.01565 4.26992 9.41307 4.07857 9.65226C3.7253 10.0951 3.26163 10.0902 2.94517 9.93561C2.58576 9.76266 2.37724 9.39467 2.44961 9.06103L2.46187 9.00461L2.89855 9.10028L2.88629 9.15671C2.8593 9.28428 2.9697 9.44864 3.13897 9.5296C3.26409 9.5897 3.50819 9.64981 3.73143 9.37014C3.79276 9.29286 3.70567 8.83901 3.65906 8.59614C3.52413 7.89084 3.35608 7.01258 3.87004 6.42012C4.1767 6.0644 4.66735 5.88164 5.36652 5.85833C5.12978 5.44374 4.96542 4.7875 5.38124 3.89206C5.73451 3.13033 6.74647 2.38823 8.13133 2.55873C8.87099 2.6495 9.45486 3.00154 9.71 3.50568C10.5245 2.912 11.5548 3.13647 12.1657 3.67863C12.7753 4.21957 13.0881 5.18247 12.4208 6.11838C12.4785 6.55505 12.66 7.43086 12.714 7.69335C13.6143 9.83012 13.5199 10.0276 13.4745 10.1233C13.3813 10.3171 13.0599 10.4324 12.7471 10.4851C13.0538 10.7121 13.4451 11.1438 13.4193 11.8639C13.3997 12.4011 13.0207 12.8341 12.6527 13.2524C12.1191 13.8608 11.8946 14.1932 12.1473 14.6041L12.1767 14.6532L11.7989 14.8911L11.7683 14.8409C11.3132 14.1012 11.8468 13.4916 12.319 12.9543C12.6343 12.5949 12.9593 12.2233 12.974 11.8479C12.9998 11.1352 12.4785 10.8102 12.2074 10.6912C11.9731 11.0555 11.5033 11.475 10.5711 11.5265V11.529L10.5134 11.5314H10.3135V11.5265C10.0228 11.5106 9.75906 11.4566 9.52723 11.3695C9.42297 11.4431 9.22916 11.6038 9.185 11.8062C9.15802 11.9289 9.19114 12.054 9.28804 12.1901C9.3739 12.3103 9.46099 12.4232 9.54318 12.5311L9.49779 12.5667L9.5444 12.5324C9.94551 13.0549 10.3589 13.5958 9.90503 14.2042C9.75906 14.4005 9.59102 14.5256 9.44382 14.636C9.13103 14.8703 8.92619 15.0236 9.01818 15.789L9.02554 15.8467L8.58273 15.8957Z" fill="#DEC685"/>
<path fill-rule="evenodd" clip-rule="evenodd" d="M6.75131 5.26827C6.5109 5.5786 6.50722 5.97357 6.7415 6.27532C6.8887 6.46422 7.09354 6.56726 7.29716 6.56726C7.3818 6.56726 7.46643 6.54886 7.54616 6.51206C7.88716 6.35505 7.96812 6.22748 8.18646 5.8828C8.29563 5.7123 8.44405 5.47802 8.68446 5.14561C8.86968 4.89047 9.06717 4.75554 9.27447 4.74696C9.61056 4.73469 9.89268 5.05116 9.89514 5.05484L10.0203 4.94567L10.1454 4.8365C10.1306 4.81933 9.77861 4.41209 9.29777 4.41209C9.28673 4.41209 9.27569 4.41209 9.26343 4.41332C8.95064 4.42558 8.66606 4.6059 8.41829 4.94812C8.24043 5.19345 8.07116 5.44613 7.90924 5.70249C7.7044 6.02509 7.66147 6.09256 7.40878 6.20908C7.25668 6.279 7.09477 6.18946 7.00154 6.06802C6.89238 5.92819 6.8384 5.69881 7.01258 5.47434L6.75131 5.26827Z" fill="#DEC685"/>
<path fill-rule="evenodd" clip-rule="evenodd" d="M6.76234 5.35045C6.57344 5.63135 6.5808 5.97357 6.78687 6.23852C6.97454 6.48017 7.27506 6.57216 7.52039 6.45932C7.84544 6.30967 7.91904 6.19437 8.13615 5.85091C8.24532 5.68041 8.39374 5.44613 8.63661 5.11004C8.83164 4.83895 9.04507 4.69789 9.26954 4.68808C9.5578 4.67704 9.80067 4.88311 9.89512 4.97388L10.0595 4.83037C9.95768 4.7261 9.66697 4.46729 9.29408 4.46729C9.28426 4.46729 9.27445 4.46729 9.26341 4.46851C8.9678 4.47955 8.69917 4.65128 8.46243 4.98001C8.21588 5.32224 8.06501 5.55898 7.95584 5.7307C7.74731 6.05821 7.69825 6.13549 7.43084 6.25815C7.25053 6.34033 7.06041 6.23852 6.95369 6.10114C6.81018 5.92328 6.80159 5.67183 6.93038 5.48293L6.76234 5.35045ZM7.29592 6.62491C7.07022 6.62491 6.85065 6.50961 6.69487 6.30967C6.44342 5.98707 6.44832 5.56388 6.70469 5.23147L6.74026 5.18486L7.09107 5.4633L7.05673 5.50869C6.9034 5.70617 6.95001 5.90856 7.04569 6.03123C7.12419 6.13304 7.26035 6.21031 7.38301 6.15389C7.61974 6.04472 7.65532 5.98707 7.85771 5.66937C7.9681 5.49519 8.1202 5.25723 8.36921 4.91255C8.62802 4.55438 8.92732 4.36671 9.25851 4.35321C9.26954 4.35199 9.28181 4.35199 9.29408 4.35199C9.80435 4.35199 10.1711 4.77885 10.1858 4.79725L10.2226 4.84141L9.88531 5.13457L9.84728 5.09164C9.84483 5.08918 9.58847 4.80338 9.28917 4.80338H9.27322C9.08555 4.81197 8.90279 4.93708 8.72861 5.1775C8.55565 5.41669 8.39006 5.66201 8.23305 5.91224C8.01349 6.25692 7.92272 6.39921 7.567 6.56358C7.48359 6.60406 7.39037 6.62491 7.29592 6.62491ZM16.7298 18.8261C17.5419 18.5857 17.9344 17.5884 17.6841 16.3593L17.3603 16.4268C17.5406 17.3087 17.3726 18.3416 16.5802 18.5219C15.8221 18.6948 15.0898 18.0263 14.8004 16.8954C14.6274 16.2183 14.674 15.5866 14.9304 15.1622C15.0849 14.9058 15.3057 14.7427 15.5854 14.6789C15.7682 14.6347 15.9583 14.6396 16.1386 14.6924L16.2318 14.371C15.9975 14.3023 15.7498 14.2962 15.513 14.3514C15.3732 14.3833 15.2395 14.4372 15.1156 14.5121L15.1095 14.4998C14.2018 14.9708 13.1898 15.2051 12.168 15.183L12.1619 15.5167C12.2061 15.5179 12.249 15.5179 12.2932 15.5179C13.0831 15.5179 13.8657 15.3719 14.5931 15.0959C14.3428 15.5903 14.2999 16.2661 14.4814 16.9776C14.6998 17.8288 15.1512 18.4495 15.697 18.7243C15.0175 18.8518 14.23 18.9512 13.6866 18.9512C12.8856 18.9512 12.0957 18.8371 11.3401 18.6102L11.2469 18.9303C12.0392 19.1671 12.8611 19.2861 13.6878 19.2848C14.5734 19.2848 16.0037 19.0432 16.7323 18.8273L16.7298 18.8261Z" fill="#DEC685"/>
<path fill-rule="evenodd" clip-rule="evenodd" d="M11.318 18.8948C12.0822 19.118 12.8783 19.2309 13.6866 19.2309C14.5477 19.2309 15.924 19.0015 16.6636 18.7905L16.7139 18.7709C17.4928 18.5403 17.8608 17.6032 17.6388 16.4281L17.4291 16.4722C17.5959 17.3677 17.407 18.3931 16.5937 18.5796C15.8025 18.7586 15.0433 18.073 14.7452 16.9101C14.5686 16.2195 14.6176 15.5719 14.8813 15.134C15.0445 14.8629 15.2775 14.6912 15.5732 14.6237C15.7461 14.5832 15.9264 14.5832 16.0994 14.6237L16.1607 14.414C15.9534 14.3624 15.7351 14.3612 15.5278 14.4103C15.3941 14.4409 15.2653 14.4925 15.1475 14.5636L15.0936 14.5967L15.085 14.5808C14.1993 15.0297 13.218 15.2579 12.2257 15.2444L12.222 15.4627C13.0304 15.4713 13.8215 15.3315 14.5735 15.0444L14.7133 14.9905L14.6458 15.1242C14.4017 15.6062 14.3625 16.2772 14.5379 16.9653C14.7464 17.7773 15.1782 18.4005 15.724 18.6752L15.8774 18.7525L15.7081 18.7844C14.9464 18.9267 14.1908 19.0125 13.6866 19.0125C12.9053 19.0138 12.1288 18.9034 11.3781 18.685L11.318 18.8948ZM13.6866 19.3474C12.855 19.3486 12.027 19.2284 11.2297 18.9905L11.1745 18.9745L11.3008 18.5428L11.3572 18.5587C12.1067 18.7832 12.8918 18.8972 13.6866 18.8972C14.1417 18.8972 14.836 18.8224 15.5302 18.6998C15.0212 18.3796 14.6238 17.77 14.4263 16.996C14.2558 16.3299 14.2766 15.6995 14.4827 15.2027C13.7381 15.4676 12.9519 15.5952 12.1607 15.5792L12.103 15.578L12.1116 15.1279L12.1693 15.1291C12.211 15.1303 12.2515 15.1303 12.2932 15.1303C13.2696 15.1303 14.2349 14.896 15.0837 14.4532L15.1353 14.4262L15.1414 14.4373C15.2542 14.3747 15.3757 14.3293 15.502 14.3011C15.7486 14.2435 16.0062 14.2496 16.249 14.3207L16.3042 14.3367L16.1791 14.7685L16.1227 14.7513C15.9522 14.7022 15.7719 14.6973 15.5989 14.7378C15.334 14.7991 15.1267 14.9524 14.9807 15.1953C14.7329 15.6075 14.6875 16.222 14.8568 16.8831C15.1377 17.9822 15.843 18.6335 16.5667 18.4679C17.3223 18.2962 17.4781 17.2965 17.3039 16.4403L17.2929 16.3839L17.7296 16.2919L17.7418 16.3496C17.9933 17.586 17.6155 18.5869 16.801 18.8654L16.8022 18.8703L16.7483 18.8862C16.016 19.1045 14.5784 19.3474 13.6866 19.3474ZM12.0012 7.76447L11.2272 7.43451L11.0972 7.43573L9.80066 8.00366L9.93191 8.31031L11.1647 7.77183L11.8737 8.07357L12.0012 7.76447Z" fill="#DEC685"/>
<path fill-rule="evenodd" clip-rule="evenodd" d="M9.87671 8.03309L9.96258 8.23303L11.1635 7.70804L11.8418 7.9963L11.9252 7.79513L11.215 7.49216L11.1095 7.49338L9.87671 8.03309ZM9.90125 8.38636L9.72461 7.97299L11.0972 7.37808L11.2395 7.37685L11.2506 7.38176L12.0773 7.7338L11.9044 8.1484L11.1647 7.83438L9.90125 8.38636Z" fill="#DEC685"/>
<path fill-rule="evenodd" clip-rule="evenodd" d="M10.9966 8.40108C10.9966 8.55318 11.1266 8.67707 11.2861 8.67707C11.4456 8.67707 11.5756 8.55318 11.5756 8.40108C11.5756 8.24898 11.4456 8.12509 11.2861 8.12509C11.1266 8.12509 10.9966 8.25021 10.9966 8.40108Z" fill="#DEC685"/>
<path fill-rule="evenodd" clip-rule="evenodd" d="M11.2861 8.18397C11.1585 8.18397 11.0543 8.2821 11.0543 8.40231C11.0543 8.52251 11.1573 8.62064 11.2861 8.62064C11.4149 8.62064 11.5179 8.52251 11.5179 8.40231C11.5179 8.2821 11.4137 8.18397 11.2861 8.18397ZM11.2861 8.73472C11.0947 8.73472 10.939 8.58507 10.939 8.40108C10.939 8.21709 11.0947 8.06744 11.2861 8.06744C11.4774 8.06744 11.6345 8.21709 11.6345 8.40108C11.6345 8.58507 11.4774 8.73472 11.2861 8.73472Z" fill="#DEC685"/>
<path fill-rule="evenodd" clip-rule="evenodd" d="M17.2953 11.859L14.4667 12.9948L15.6063 9.40695C15.6112 9.40695 15.6161 9.40818 15.621 9.40818C15.6308 9.40818 15.6394 9.40572 15.6492 9.40572L17.337 11.6431C17.3076 11.6958 17.2916 11.7547 17.2916 11.8148C17.2916 11.8295 17.2941 11.8442 17.2953 11.859ZM8.5434 17.1383C8.61455 17.2205 8.71881 17.2745 8.83779 17.2745C8.84638 17.2745 8.85496 17.272 8.86355 17.272L10.4103 19.8859C9.85466 19.7768 9.31126 19.61 8.78995 19.3867C7.82951 18.9758 6.95739 18.3858 6.21896 17.6474L8.5434 17.1383ZM4.80345 12.866C4.82675 12.9948 4.91752 13.1015 5.04141 13.1481L5.64122 17.0132C5.1285 16.3876 4.71145 15.6946 4.39743 14.9427L4.17542 14.8568L4.05276 14.9145C3.78781 14.138 3.63571 13.3272 3.60259 12.5066L4.80345 12.866ZM20.3214 20.1129C19.2518 21.1984 17.9822 22.0644 16.5814 22.663C15.134 23.2837 13.575 23.6014 12 23.5989C10.4115 23.5989 8.87091 23.2837 7.41859 22.663C6.0178 22.0644 4.74702 21.1972 3.67864 20.1129C2.67158 19.096 1.85711 17.905 1.27324 16.5974L4.1607 15.2322C4.58756 16.2 5.18738 17.0819 5.93193 17.8326C6.71206 18.6238 7.63816 19.2567 8.65993 19.6934C9.71482 20.1448 10.8519 20.3778 11.9988 20.3754C12.6881 20.3754 13.3726 20.2932 14.0313 20.1313L13.9528 19.8074C12.9322 20.0564 11.8737 20.108 10.8347 19.9583L9.1518 17.1126C9.19474 17.0512 9.21927 16.9789 9.21927 16.904C9.21927 16.6992 9.04754 16.5324 8.83534 16.5324C8.65625 16.5324 8.5066 16.6526 8.4649 16.8133L6.02638 17.3468L5.3726 13.1236C5.48667 13.0598 5.56518 12.9408 5.56518 12.8035C5.56518 12.5986 5.39345 12.433 5.18124 12.433C5.0733 12.433 4.97517 12.4772 4.90525 12.5471L3.594 12.1558C3.594 12.1497 3.5339 12.1386 3.5339 12.1386H3.26281C3.26281 13.142 3.42841 14.1221 3.75223 15.0567L2.59308 15.605C2.1932 14.4937 1.98958 13.3199 1.99081 12.1386C1.99081 11.8896 1.9994 11.6406 2.01657 11.3965L1.68661 11.372C1.66821 11.6234 1.65962 11.8823 1.65962 12.1386C1.65962 13.3812 1.87183 14.5943 2.29133 15.7473L1.13709 16.2932C0.640305 14.9648 0.386395 13.5578 0.388849 12.1386C0.388849 10.5526 0.69673 9.01443 1.30145 7.5658C1.88287 6.17236 2.72678 4.90526 3.78903 3.83197C4.84392 2.76113 6.09753 1.90618 7.47992 1.31495C8.90893 0.704097 10.4459 0.390083 12 0.392536C13.5676 0.392536 15.0886 0.70287 16.5201 1.31618C17.9025 1.90741 19.1561 2.76236 20.211 3.8332C21.2732 4.90526 22.1184 6.17358 22.6986 7.5658C23.3045 9.01443 23.6136 10.5686 23.6112 12.1386C23.6112 13.5296 23.3708 14.8887 22.9022 16.1828L21.7087 15.7461C22.1282 14.5894 22.3416 13.3689 22.3404 12.1386C22.3404 6.37107 17.7026 1.67926 12.0012 1.67926C11.1953 1.67926 10.3931 1.77248 9.61547 1.95893L9.69152 2.28398C10.4447 2.10489 11.2211 2.0129 12.0012 2.0129C14.5379 2.0129 16.855 2.97457 18.6201 4.552L18.9439 7.22357C18.8151 7.28367 18.7317 7.41247 18.7305 7.55476V7.55721L15.8246 8.72372C15.7633 8.6857 15.6934 8.66607 15.621 8.66607C15.6075 8.66607 15.5952 8.66852 15.583 8.66975L14.3159 5.95647C14.3735 5.89146 14.4054 5.80683 14.4066 5.71974C14.4066 5.62038 14.3649 5.5247 14.2926 5.45601L14.7709 4.10796C14.939 4.16684 15.107 4.23185 15.2714 4.30177C16.2723 4.72986 17.18 5.3493 17.9442 6.12575L18.1773 5.88901C17.3836 5.08312 16.4404 4.43915 15.4002 3.99389C14.7783 3.72771 14.127 3.53636 13.4609 3.42228L13.4069 3.75224C13.7627 3.81235 14.1135 3.89821 14.4582 4.00615L13.9798 5.3542C13.7896 5.37628 13.6412 5.53084 13.6412 5.72096C13.6412 5.92213 13.808 6.08527 14.0141 6.09017L15.2984 8.84148C15.2604 8.89913 15.2395 8.96782 15.2383 9.03774C15.2383 9.11747 15.2653 9.19106 15.3094 9.25239L14.1454 12.9163C13.9614 12.9433 13.8191 13.0954 13.8191 13.2818C13.8191 13.4867 13.9908 13.6523 14.203 13.6523C14.4054 13.6523 14.5685 13.5002 14.5833 13.3076L17.4376 12.1619L16.9053 14.874C16.7397 14.9145 16.6219 15.0604 16.6195 15.2309C16.6195 15.4358 16.7912 15.6014 17.0034 15.6014C17.2119 15.6014 17.38 15.4407 17.3861 15.2395L21.1089 13.5505C21.1739 13.602 21.2561 13.6326 21.3468 13.6326C21.5578 13.6326 21.7308 13.4658 21.7308 13.2622C21.7308 13.0574 21.559 12.8905 21.3468 12.8905C21.1395 12.8905 20.9703 13.0512 20.9641 13.2499L17.2401 14.9402L17.2315 14.9329L17.7737 12.173C17.9393 12.1325 18.057 11.9853 18.0595 11.816C18.0595 11.6112 17.8878 11.4456 17.6756 11.4456C17.6523 11.4456 17.6302 11.448 17.6081 11.4517L15.9411 9.24258C15.9816 9.1837 16.0049 9.11501 16.0049 9.03896C16.0049 9.03038 16.0025 9.02302 16.0025 9.01443L18.8887 7.85528C18.9525 7.89944 19.0298 7.92765 19.1144 7.92765C19.3254 7.92765 19.4983 7.76083 19.4983 7.55721C19.4983 7.40879 19.4063 7.28122 19.2763 7.22234L18.9954 4.90649C20.9273 6.81633 22.0129 9.42167 22.0092 12.1386C22.0092 13.3407 21.8044 14.5146 21.3984 15.632L20.0454 15.1365L19.989 15.2935L20.0454 15.1365L19.7375 15.0236L19.5302 15.1119C19.2113 15.832 18.7906 16.5042 18.2827 17.1064L18.5342 17.3235C19.0298 16.7372 19.4444 16.0871 19.7682 15.3904L19.9325 15.4505L22.7734 16.4919C22.1871 17.8399 21.3554 19.0678 20.3214 20.1129ZM23.9424 12.1386C23.9424 10.5085 23.6259 8.92612 23.004 7.43577C22.4066 6.00309 21.537 4.69919 20.4453 3.59646C19.3597 2.49496 18.0705 1.6167 16.6501 1.0083C15.1806 0.379043 13.5995 0.0552159 12.0012 0.0576692C10.3907 0.0576692 8.82552 0.377816 7.35236 1.0083C5.93071 1.6167 4.64153 2.49496 3.5572 3.59646C2.46551 4.69919 1.59584 6.00309 0.998477 7.43577C0.374129 8.92489 0.0552085 10.5244 0.0576618 12.1386C0.0576618 13.6449 0.336104 15.1181 0.870909 16.5115L0.906481 16.5839C1.50998 17.9871 2.37106 19.264 3.44558 20.3496C4.54463 21.4646 5.85098 22.3551 7.2898 22.9709C8.77769 23.6087 10.3809 23.9362 12 23.9338C13.6326 23.9338 15.2174 23.61 16.7102 22.9709C18.1503 22.3551 19.4554 21.4646 20.5544 20.3496C21.6609 19.2322 22.5416 17.9111 23.1463 16.46L23.1561 16.4391C23.6774 15.0653 23.9436 13.6081 23.9424 12.1386Z" fill="#DEC685"/>
<path fill-rule="evenodd" clip-rule="evenodd" d="M15.6406 9.49032L14.5587 12.8954L17.2327 11.8209V11.8148C17.2327 11.7583 17.245 11.7031 17.2683 11.6492L15.6406 9.49032ZM14.3747 13.0941L15.5658 9.3468L15.6308 9.34925L15.6774 9.34558L17.4069 11.6381L17.3885 11.6712C17.364 11.7154 17.3505 11.7645 17.3493 11.816C17.3493 11.8246 17.3505 11.8319 17.3517 11.8393L17.3579 11.8834L17.3174 11.9129L14.3747 13.0941ZM4.17295 14.7942L4.44158 14.8985L4.4514 14.9206C4.73352 15.5952 5.10273 16.2294 5.55167 16.8071L4.98988 13.1898C4.87458 13.1358 4.78872 13.034 4.7556 12.9114L3.66391 12.5863C3.70316 13.3542 3.84545 14.1098 4.08709 14.8347L4.17295 14.7942ZM5.73198 17.2143L5.59706 17.05C5.08556 16.4256 4.66605 15.7313 4.35327 14.988L4.17786 14.9193L4.0184 14.9941L3.99755 14.9328C3.73137 14.1502 3.57804 13.3345 3.5437 12.509L3.54002 12.4268L4.85495 12.8181L4.86109 12.8537C4.87948 12.9604 4.95676 13.0524 5.06225 13.0929L5.09414 13.1052L5.73198 17.2143ZM6.33548 17.6804C7.05305 18.3784 7.89206 18.9389 8.81202 19.3327C9.28672 19.5363 9.78473 19.6933 10.2925 19.8025L8.83042 17.3309C8.71512 17.3296 8.60472 17.283 8.52254 17.2008L6.33548 17.6804ZM10.5256 19.9681L10.398 19.9423C9.8387 19.8319 9.29163 19.6639 8.76664 19.4394C7.80006 19.026 6.92058 18.4311 6.17725 17.6878L6.10242 17.613L8.56424 17.0745L8.58755 17.1003C8.65011 17.1738 8.7421 17.2156 8.83778 17.2156L8.89543 17.2119L10.5256 19.9681ZM1.35051 16.6268C1.92947 17.9074 2.73168 19.0739 3.72033 20.0723C4.78381 21.1518 6.04845 22.0141 7.44189 22.6102C8.88194 23.2272 10.4336 23.5449 12 23.5412C13.5799 23.5412 15.1144 23.2272 16.5581 22.6102C17.9515 22.0141 19.2162 21.1518 20.2797 20.0723L20.3201 20.1128L20.2797 20.0723C21.2953 19.0469 22.1135 17.8448 22.6949 16.525L19.7964 15.4627C19.4738 16.1459 19.0641 16.7838 18.5771 17.3603L18.5391 17.4057L18.2006 17.1125L18.2374 17.0684C18.7415 16.4698 19.1585 15.8037 19.4762 15.0886L19.486 15.0677L19.7351 14.961L21.3628 15.5572C21.7541 14.4593 21.9528 13.3039 21.9503 12.1386C21.9503 9.47069 20.9298 6.96594 19.0727 5.06713L19.329 7.18182C19.4676 7.25787 19.556 7.40016 19.556 7.55471C19.556 7.79145 19.3573 7.98403 19.1144 7.98403C19.0322 7.98403 18.9525 7.96195 18.8826 7.91902L16.0638 9.05119C16.0613 9.11742 16.0442 9.18121 16.0123 9.23886L17.6339 11.3891C17.6473 11.3879 17.6608 11.3867 17.6756 11.3867C17.9184 11.3867 18.1171 11.5792 18.1171 11.8148C18.1171 11.9963 17.9982 12.157 17.824 12.2171L17.3076 14.8457L20.9089 13.2106C20.9371 12.9911 21.126 12.8292 21.3468 12.8316C21.5909 12.8316 21.7884 13.0242 21.7884 13.2609C21.7884 13.4977 21.5897 13.689 21.3468 13.689C21.2597 13.689 21.1763 13.6645 21.1027 13.6167L17.4425 15.2775C17.418 15.4909 17.2291 15.6577 17.0046 15.6577C16.7617 15.6577 16.563 15.4652 16.563 15.2284C16.563 15.0469 16.682 14.8862 16.8562 14.8261L17.3615 12.2527L14.6372 13.3468C14.6041 13.5516 14.4189 13.7074 14.203 13.7074C13.9601 13.7074 13.7614 13.5148 13.7614 13.2793C13.7614 13.0819 13.9049 12.9089 14.1 12.8635L15.2456 9.25971C15.1647 9.13214 15.1585 8.97023 15.2321 8.83653L13.9761 6.14533C13.7565 6.12202 13.5823 5.93803 13.5823 5.71969C13.5823 5.51485 13.732 5.3419 13.9356 5.30142L14.3821 4.04291C14.0583 3.94478 13.7295 3.86627 13.3959 3.80862L13.3395 3.79881L13.4131 3.35477L13.4707 3.36459C14.1417 3.47866 14.7967 3.67247 15.4235 3.93987C16.471 4.38759 17.4204 5.03524 18.219 5.84726L18.2594 5.88774L17.9442 6.20666L17.9025 6.16496C17.1432 5.39464 16.2416 4.77888 15.2481 4.35447C15.1021 4.29314 14.9549 4.23549 14.8053 4.18151L14.3588 5.44125C14.4888 5.58845 14.4998 5.80556 14.3833 5.96379L15.6173 8.60715C15.6909 8.61206 15.7633 8.62432 15.8283 8.65867L18.674 7.51669C18.6863 7.38176 18.7623 7.26278 18.8813 7.19163L18.5649 4.58139C16.7458 2.96226 14.4152 2.07051 12 2.07051C11.2236 2.07051 10.4508 2.16128 9.70377 2.33914L9.64735 2.35263L9.54431 1.91473L9.60074 1.90123C10.387 1.71356 11.1917 1.61911 12 1.61911C17.7332 1.61911 22.3968 6.33791 22.3968 12.1361C22.3968 13.364 22.1895 14.5648 21.781 15.708L22.8654 16.1055C23.3205 14.831 23.5535 13.4891 23.5523 12.1361C23.5523 10.5587 23.2469 9.02788 22.6446 7.58538C22.0656 6.1993 21.2254 4.93711 20.1693 3.86995C19.1193 2.80402 17.8718 1.95398 16.4968 1.3652C15.0764 0.760479 13.5455 0.447691 12 0.450144C10.441 0.450144 8.92855 0.759252 7.50199 1.36888C6.12695 1.95766 4.87948 2.8077 3.8295 3.87241C1.65716 6.07419 0.440356 9.04505 0.446489 12.1386C0.446489 13.5369 0.690586 14.9083 1.17019 16.2134L2.22018 15.7166C1.80926 14.5685 1.60074 13.3578 1.60196 12.1374C1.60196 11.8798 1.61055 11.621 1.62895 11.367L1.63263 11.3094L2.07789 11.3425L2.07421 11.4002C2.05704 11.6455 2.04845 11.892 2.04845 12.1386C2.04845 13.3026 2.24226 14.4422 2.62619 15.5253L3.68108 15.026C3.36584 14.0963 3.20392 13.1199 3.20515 12.1386V12.0809H3.53511C3.56332 12.0846 3.59154 12.092 3.6173 12.103L4.89052 12.4833C4.97148 12.4146 5.07329 12.3765 5.18246 12.3765C5.42533 12.3765 5.62404 12.5691 5.62404 12.8059C5.62404 12.9445 5.5529 13.0745 5.43637 13.1542L6.07666 17.2781L8.42196 16.7642C8.48574 16.5888 8.65256 16.4734 8.83901 16.4747C9.0831 16.4747 9.28059 16.6673 9.28059 16.904C9.28059 16.9776 9.26096 17.05 9.22294 17.115L10.874 19.9068C11.9178 20.0515 12.958 19.9938 13.9417 19.7522L13.9982 19.7387L14.1036 20.1754L14.0472 20.1889C13.3775 20.3532 12.6906 20.4354 12 20.4342C10.8335 20.4342 9.70255 20.2036 8.63784 19.7485C7.60871 19.3082 6.67648 18.6728 5.89144 17.8755C5.15547 17.1334 4.56056 16.2649 4.13247 15.3118L1.35051 16.6268ZM12 23.6577C10.4042 23.6577 8.85495 23.3413 7.3965 22.7169C5.98957 22.1147 4.71266 21.2438 3.63815 20.1533C2.62619 19.1315 1.80803 17.9356 1.22171 16.6219L1.19841 16.5704L4.19135 15.1548L4.21466 15.2088C4.63784 16.1705 5.2352 17.0451 5.97363 17.7921C6.74762 18.5783 7.66881 19.2064 8.68323 19.6406C9.73076 20.0895 10.8592 20.3201 12 20.3177C12.6648 20.3177 13.326 20.2404 13.9626 20.0883L13.9111 19.8761C12.9016 20.1153 11.8553 20.1619 10.8286 20.0147L10.8016 20.011L9.08433 17.1088L9.10641 17.0782C9.14321 17.0267 9.16283 16.9653 9.16283 16.9028C9.16283 16.7298 9.01687 16.5888 8.83655 16.5888C8.68936 16.5875 8.56056 16.6844 8.52131 16.8267L8.51273 16.8611L5.97853 17.4155L5.30757 13.0917L5.34315 13.072C5.4425 13.0193 5.50506 12.9163 5.50629 12.8034C5.50629 12.6305 5.36032 12.4906 5.18123 12.4906C5.09292 12.4906 5.00828 12.525 4.94572 12.5875L4.92119 12.6121L3.53511 12.1975L3.52285 12.195L3.32045 12.1962C3.32536 13.164 3.48973 14.1233 3.80619 15.0371L3.82337 15.0861L2.55995 15.6835L2.53787 15.6234C2.13554 14.5047 1.9307 13.3259 1.93315 12.1374C1.93315 11.908 1.94051 11.6761 1.95523 11.448L1.7418 11.4321C1.72585 11.6663 1.71849 11.9018 1.71849 12.1361C1.71849 13.3701 1.9307 14.5783 2.34775 15.7252L2.36615 15.7743L1.10641 16.3704L1.08433 16.3115C0.58387 14.9794 0.328734 13.5651 0.331187 12.1386C0.331187 10.5452 0.640294 8.99967 1.2487 7.54367C1.83257 6.1441 2.68139 4.86965 3.74854 3.79145C4.80834 2.71571 6.06808 1.85707 7.45661 1.26339C8.89175 0.648856 10.4373 0.332389 12 0.334842C13.575 0.334842 15.1033 0.646403 16.5434 1.26339C17.9319 1.85707 19.1929 2.71571 20.2527 3.79268C21.3198 4.87087 22.1687 6.1441 22.7538 7.5449C23.3622 9.00089 23.6737 10.5624 23.67 12.1398C23.6713 13.5259 23.4296 14.9009 22.9574 16.2036L22.9377 16.2588L21.6351 15.7816L21.6547 15.7277C22.0718 14.5783 22.284 13.364 22.2827 12.141C22.2827 6.40537 17.6707 1.73932 12.0012 1.73932C11.2186 1.73932 10.4397 1.82886 9.68537 2.00427L9.73444 2.21647C10.4778 2.04352 11.2383 1.95766 12.0012 1.95766C14.4532 1.95766 16.8169 2.86535 18.6593 4.51148L18.6753 4.52619L19.0064 7.26032L18.9696 7.27872C18.8605 7.32902 18.7906 7.43696 18.7893 7.55717V7.59642L18.7525 7.61359L15.8197 8.79114L15.7952 8.77642C15.7363 8.74085 15.6676 8.71877 15.6026 8.72859L15.5609 8.73472L15.5314 8.69792L14.2484 5.9503L14.2729 5.92209C14.322 5.86689 14.349 5.79697 14.3502 5.72337C14.3502 5.63874 14.3146 5.55901 14.2545 5.50136L14.2275 5.4756L14.7378 4.03677L14.793 4.0564C14.9758 4.12141 15.1414 4.18397 15.2959 4.25143C16.2858 4.67462 17.1849 5.28424 17.9454 6.04597L18.0975 5.89265C17.3174 5.11006 16.395 4.48572 15.3793 4.05149C14.7795 3.79513 14.1527 3.60746 13.51 3.49338L13.4744 3.70927C13.8007 3.76692 14.1368 3.85033 14.4753 3.95459L14.533 3.97299L14.0227 5.41181L13.9859 5.41549C13.8228 5.43512 13.6989 5.56759 13.6989 5.7246C13.6989 5.89265 13.8412 6.03248 14.0153 6.03616L14.0509 6.03739L15.3634 8.85002L15.3462 8.87701C15.3143 8.92607 15.2959 8.98372 15.2959 9.04137C15.2959 9.10516 15.3168 9.16772 15.356 9.22046L15.3732 9.24499L14.1883 12.9715L14.1527 12.9764C13.9957 12.9997 13.8767 13.1321 13.8767 13.2842C13.8767 13.4572 14.0227 13.597 14.203 13.597C14.3711 13.597 14.5133 13.4695 14.5256 13.3063L14.5281 13.2708L14.5612 13.2573L17.5149 12.0711L16.9543 14.9242L16.9187 14.9328C16.7789 14.9659 16.6795 15.0898 16.6771 15.2333C16.6771 15.4063 16.8231 15.5461 17.0034 15.5461C17.1776 15.5461 17.3235 15.4087 17.3272 15.2407L17.3284 15.2039L21.115 13.4854L21.1432 13.5063C21.2009 13.5516 21.272 13.5762 21.3444 13.5762C21.5235 13.5762 21.6707 13.4363 21.6707 13.2634C21.6707 13.0904 21.5247 12.9506 21.3444 12.9506C21.1677 12.9506 21.0255 13.0831 21.0205 13.2536L21.0193 13.2892L20.9862 13.3039L17.2303 15.0089L17.169 14.9647L17.1726 14.923L17.7222 12.1263L17.7577 12.1177C17.8976 12.0846 17.9969 11.9607 17.9994 11.8172C17.9994 11.6455 17.8534 11.5044 17.6743 11.5044C17.6547 11.5044 17.6363 11.5069 17.6167 11.5093L17.5823 11.5155L15.87 9.24499L15.8933 9.21065C15.9276 9.16036 15.9473 9.10025 15.9473 9.03892C15.946 9.03156 15.9448 9.0242 15.9448 9.01684L15.9423 8.97514L15.9804 8.95919L18.896 7.789L18.9218 7.8074C18.9782 7.84787 19.0445 7.86873 19.1144 7.86873C19.2935 7.86873 19.4407 7.72767 19.4407 7.55594C19.4382 7.43328 19.3646 7.32288 19.253 7.27382L19.2236 7.26032L18.9169 4.74699L19.0359 4.86474C20.9911 6.79912 22.0669 9.3836 22.0669 12.1386C22.0669 13.3468 21.8596 14.5293 21.4523 15.6516L21.4327 15.7068L20.0797 15.21L20.0429 15.3118L19.9338 15.2726L19.9706 15.1696L19.7387 15.0837L19.5744 15.1548C19.2616 15.8552 18.8543 16.509 18.3637 17.0978L18.5268 17.2389C19.0015 16.6673 19.4014 16.0368 19.7142 15.3634L19.7375 15.3155L22.8507 16.4563L22.8261 16.5127C22.2374 17.8681 21.402 19.1021 20.3619 20.1521C19.2873 21.2425 18.0117 22.1134 16.6035 22.7157C15.1487 23.3401 13.5823 23.6602 12 23.6577ZM12 0.116504C10.3968 0.116504 8.84023 0.434198 7.37442 1.06223C5.96013 1.66695 4.67709 2.54275 3.59767 3.63812C2.50966 4.73472 1.64489 6.03248 1.05121 7.45781C0.430543 8.94079 0.112849 10.5317 0.115302 12.1386C0.115302 13.6277 0.387611 15.0911 0.92487 16.4906L0.957988 16.5581C1.55903 17.9552 2.41644 19.2272 3.48605 20.3091C4.58019 21.4192 5.87918 22.306 7.31187 22.9181C8.79239 23.5523 10.387 23.8785 11.9988 23.8761C13.624 23.8761 15.2002 23.5535 16.6857 22.9181C18.1184 22.3048 19.4186 21.4192 20.5115 20.3091C21.613 19.1965 22.4888 17.8828 23.0911 16.4379L23.1021 16.4146C23.6185 15.0481 23.8835 13.5995 23.8822 12.1398C23.8847 10.5329 23.567 8.94202 22.9476 7.45904C22.3527 6.03371 21.4879 4.73595 20.4011 3.63812C19.3217 2.54275 18.0386 1.66695 16.6243 1.06223C15.1647 0.435425 13.5909 0.114051 12 0.116504ZM12 23.9914C10.36 23.9914 8.76664 23.6663 7.26771 23.0236C5.82153 22.4054 4.50905 21.5099 3.40386 20.39C2.32444 19.2996 1.45845 18.0153 0.852499 16.6059L0.818154 16.536C0.277216 15.134 0 13.6424 0 12.1386C0 10.4998 0.317694 8.91013 0.944496 7.41243C1.54431 5.9736 2.41644 4.66358 3.51426 3.55594C4.60472 2.44953 5.90003 1.56637 7.32781 0.955511C8.80466 0.322576 10.3944 -0.0024776 12 -2.43637e-05C13.6179 -2.43637e-05 15.1904 0.321349 16.6722 0.954284C18.1 1.56514 19.3953 2.4483 20.4857 3.55471C21.5836 4.66358 22.4557 5.97238 23.0567 7.41243C23.6823 8.9089 24.0037 10.5158 24 12.1386C24 13.6203 23.7351 15.0739 23.2113 16.4587L23.199 16.4845C22.5918 17.9417 21.7075 19.2677 20.5961 20.39C19.4922 21.5112 18.1797 22.4054 16.7323 23.0236C15.237 23.6651 13.6265 23.9951 12 23.9914Z" fill="#DEC685"/>
<path fill-rule="evenodd" clip-rule="evenodd" d="M19.7473 8.82917C20.1852 9.87672 20.4097 11.0028 20.4072 12.1386H20.7384C20.7384 10.9451 20.5078 9.78841 20.0527 8.69915L19.7473 8.82917Z" fill="#DEC685"/>
<path fill-rule="evenodd" clip-rule="evenodd" d="M20.4648 12.0809H20.6795C20.6746 10.9463 20.4513 9.82396 20.0208 8.7752L19.8233 8.85983C20.2416 9.88161 20.4599 10.9757 20.4648 12.0809ZM20.7948 12.1962H20.3483V12.1386C20.3508 11.0101 20.1275 9.89265 19.6933 8.85125L19.6712 8.7985L20.0821 8.6231L20.1042 8.67707C20.563 9.77366 20.7973 10.9512 20.7948 12.1398V12.1962ZM4.23423 17.6314L4.36425 17.7884C4.37775 17.8043 4.4906 17.9491 4.35567 18.0631C4.32623 18.0914 4.28698 18.1073 4.2465 18.1085C4.15818 18.1085 4.08704 18.0239 4.08581 18.0239L3.95579 17.8669L4.23423 17.6314ZM4.26735 17.088L2.95364 18.1993L3.20387 18.5023L3.67121 18.1073L3.80124 18.2643C3.80982 18.2741 4.00118 18.5023 4.26735 18.5023C4.38633 18.5023 4.50041 18.4569 4.6059 18.3673C4.94076 18.084 4.77885 17.7074 4.6476 17.5492L4.26735 17.088Z" fill="#DEC685"/>
<path fill-rule="evenodd" clip-rule="evenodd" d="M4.03685 17.8742L4.13007 17.9871C4.14479 18.0043 4.19631 18.0509 4.24537 18.0509C4.26009 18.0509 4.2834 18.0472 4.31775 18.019C4.40238 17.9466 4.34718 17.8595 4.31897 17.824L4.22697 17.7123L4.03685 17.8742ZM4.2466 18.1674C4.1313 18.1674 4.04543 18.0656 4.04175 18.0619L3.87493 17.8608L4.24169 17.5504L4.40852 17.7528C4.4907 17.8534 4.51769 18.003 4.39257 18.1085C4.35209 18.1441 4.30057 18.1662 4.2466 18.1674ZM3.67867 18.0239L3.84549 18.2263C3.84795 18.2287 4.02458 18.4434 4.26623 18.4434C4.37049 18.4434 4.4723 18.4029 4.56675 18.322C4.86727 18.0681 4.72008 17.7283 4.6011 17.5835L4.25764 17.1677L3.03347 18.2042L3.2101 18.4176L3.67867 18.0239ZM3.19661 18.5845L2.87155 18.1919L4.27359 17.0058L4.69187 17.5124C4.83661 17.6866 5.01202 18.0987 4.6428 18.4115C4.52627 18.5109 4.39993 18.5599 4.26745 18.5599C3.96938 18.5599 3.7584 18.3023 3.75718 18.3011L3.66518 18.1895L3.19661 18.5845ZM6.31101 19.1254L5.34689 20.5605L6.13315 21.1003L6.34045 20.7899L5.87924 20.4722L6.63484 19.3474L6.31101 19.1254Z" fill="#DEC685"/>
<path fill-rule="evenodd" clip-rule="evenodd" d="M5.42775 20.5446L6.11834 21.0193L6.26185 20.8059L5.79941 20.4882L6.55502 19.3634L6.32686 19.2064L5.42775 20.5446ZM6.149 21.1812L5.26706 20.5753L6.29497 19.0444L6.71448 19.3315L5.95888 20.4575L6.42009 20.7752L6.149 21.1812ZM8.9175 21.7455C8.91627 21.7467 8.87579 21.8706 8.75068 21.8706C8.72247 21.8706 8.69425 21.8657 8.66727 21.8558C8.48573 21.7957 8.52253 21.6461 8.53111 21.6179L8.89297 20.5017L8.5213 20.3778L8.16067 21.494C8.15944 21.4989 7.9963 22.0263 8.55319 22.2103C8.63169 22.2361 8.70652 22.2496 8.77766 22.2496C9.08432 22.2496 9.24623 21.9994 9.28917 21.8669L9.64979 20.7507L9.27813 20.628L8.9175 21.7455Z" fill="#DEC685"/>
<path fill-rule="evenodd" clip-rule="evenodd" d="M8.55813 20.4526L8.2159 21.5124C8.20977 21.532 8.07361 21.9908 8.57162 22.1564C8.64399 22.1797 8.71391 22.1932 8.77769 22.1932C9.05 22.1932 9.19474 21.9687 9.23399 21.8509L9.57745 20.7899L9.31618 20.7028L8.97272 21.7651C8.92611 21.8926 8.78505 21.9589 8.65626 21.9123C8.65503 21.911 8.65258 21.911 8.65135 21.9098C8.45754 21.846 8.45141 21.6841 8.47717 21.5995L8.82062 20.5372L8.55813 20.4526ZM8.77769 22.3085C8.70041 22.3085 8.61823 22.2938 8.53482 22.2668C7.92151 22.0644 8.10305 21.483 8.1055 21.4768L8.48453 20.3054L8.96659 20.4649L8.58757 21.6351C8.57653 21.6706 8.56303 21.7589 8.68692 21.8007C8.70777 21.808 8.72985 21.8117 8.75193 21.8129C8.82921 21.8129 8.85865 21.7381 8.86355 21.7271L9.24258 20.5569L9.72464 20.7163L9.34562 21.8865C9.29655 22.0325 9.11746 22.3085 8.77769 22.3085ZM11.2015 21.4045L11.5977 21.4167L11.556 22.7734L11.9473 22.7856L11.989 21.4278L12.3876 21.44L12.3999 21.0659L11.2125 21.0291L11.2015 21.4045Z" fill="#DEC685"/>
<path fill-rule="evenodd" clip-rule="evenodd" d="M11.6161 22.7182L11.8909 22.7267L11.9326 21.3689L12.3312 21.3811L12.3398 21.1236L11.269 21.0892L11.2616 21.348L11.6578 21.3603L11.6161 22.7182ZM12.0037 22.847L11.4971 22.831L11.5388 21.4744L11.1426 21.4621L11.1573 20.9727L12.4612 21.0132L12.4453 21.5026L12.0466 21.4903L12.0037 22.847ZM14.8654 22.0607C14.8421 22.0668 14.8176 22.0705 14.7943 22.0717C14.6655 22.0717 14.6275 21.9503 14.6238 21.9368L14.4668 21.3394C14.4668 21.3382 14.4557 21.2928 14.468 21.2425C14.4839 21.1751 14.533 21.1309 14.6164 21.1088C14.6397 21.1027 14.6643 21.099 14.6888 21.099C14.8176 21.099 14.8556 21.2205 14.8593 21.234L15.0163 21.8313C15.0212 21.8595 15.0494 22.0116 14.8654 22.0607ZM15.2359 21.1309C15.1991 20.9886 15.0408 20.7188 14.7121 20.7188C14.6471 20.72 14.5833 20.7286 14.5207 20.7458C14.2251 20.8243 14.1233 21.0107 14.089 21.1518C14.0522 21.3026 14.0865 21.4339 14.0877 21.4388L14.2447 22.0374C14.2815 22.1797 14.4398 22.4495 14.7685 22.4495C14.8286 22.4495 14.8924 22.4409 14.9599 22.4225C15.5278 22.2704 15.3941 21.7344 15.3929 21.7295L15.2359 21.1309Z" fill="#DEC685"/>
<path fill-rule="evenodd" clip-rule="evenodd" d="M14.6875 21.1554C14.6679 21.1554 14.6495 21.1579 14.6299 21.164C14.5489 21.1861 14.5305 21.2241 14.5232 21.2548C14.5146 21.2904 14.5219 21.3247 14.5219 21.3247L14.6789 21.9221C14.6839 21.9393 14.7194 22.0386 14.8507 22.0055C14.9709 21.9736 14.9697 21.8914 14.9586 21.8448L14.8028 21.2474C14.7992 21.2376 14.7746 21.1554 14.6875 21.1554ZM14.793 22.1294C14.6618 22.1294 14.5894 22.0337 14.5661 21.9515L14.4091 21.3529C14.4079 21.3493 14.3944 21.2916 14.4103 21.2278C14.4324 21.1395 14.4962 21.0806 14.6004 21.0524C14.6287 21.0451 14.6581 21.0401 14.6875 21.0401C14.8286 21.0401 14.8961 21.1518 14.9145 21.218L15.0702 21.8154C15.0972 21.9245 15.0629 22.0681 14.8801 22.1159C14.8519 22.1245 14.8225 22.1282 14.793 22.1294ZM14.7121 20.7764C14.6569 20.7764 14.5968 20.785 14.5354 20.801C14.268 20.8733 14.176 21.0377 14.1454 21.164C14.1122 21.3014 14.1429 21.4216 14.1429 21.4229L14.2999 22.0214C14.333 22.149 14.4741 22.3907 14.7673 22.3907C14.8225 22.3907 14.8826 22.3821 14.9439 22.3649C15.4505 22.2287 15.3413 21.7614 15.3352 21.7418L15.1782 21.1444C15.1463 21.0181 15.0052 20.7764 14.7121 20.7764ZM14.7673 22.5072C14.4042 22.5072 14.23 22.2091 14.1883 22.0521L14.0313 21.4535C14.0068 21.3493 14.008 21.2413 14.0325 21.1383C14.0705 20.9813 14.1822 20.7764 14.506 20.6906C14.5771 20.6709 14.6471 20.6611 14.7133 20.6611C15.0776 20.6611 15.2518 20.9592 15.2923 21.1162L15.4493 21.7148C15.5008 21.9209 15.4689 22.3465 14.9746 22.479C14.9034 22.4974 14.8335 22.5072 14.7673 22.5072ZM17.3996 19.4873L17.8363 20.2085L17.0328 19.7142L16.72 19.908L17.6155 21.3861L17.9491 21.18L17.5124 20.4587L18.3159 20.9531L18.6287 20.7593L17.7332 19.28L17.3996 19.4873Z" fill="#DEC685"/>
<path fill-rule="evenodd" clip-rule="evenodd" d="M16.7997 19.9264L17.6351 21.3063L17.8706 21.1616L17.3395 20.2846L18.3158 20.8856L18.5489 20.7409L17.7136 19.3609L17.4781 19.5056L18.0092 20.3827L17.0328 19.7816L16.7997 19.9264ZM17.597 21.467L16.6415 19.8884L17.0328 19.6455L17.662 20.0331L17.3198 19.4676L17.7516 19.2002L18.7071 20.7789L18.3158 21.0217L17.6866 20.6341L18.0288 21.1996L17.597 21.467ZM19.432 17.7209C19.1965 17.9895 19.183 18.2999 19.3977 18.4925C19.4627 18.5513 19.551 18.5808 19.6577 18.5808C19.8049 18.5808 19.9718 18.5268 20.1189 18.4777C20.2367 18.4397 20.3471 18.4029 20.4195 18.4029C20.4366 18.4029 20.4612 18.4054 20.4734 18.4152C20.5544 18.4876 20.4452 18.6176 20.4415 18.6225L20.1349 18.9721L20.4097 19.2186L20.7163 18.8678C20.8451 18.7206 20.9113 18.555 20.9015 18.4017C20.8942 18.2839 20.8402 18.1735 20.7506 18.0963C20.6856 18.0374 20.5985 18.0079 20.4918 18.0079C20.3446 18.0079 20.1766 18.0631 20.0294 18.111C19.9116 18.1502 19.8 18.1858 19.7277 18.1858C19.7105 18.1858 19.686 18.1834 19.6737 18.1723C19.594 18.0999 19.7044 17.9712 19.7093 17.965L20.0135 17.6167L19.7362 17.3689L19.432 17.7209Z" fill="#DEC685"/>
<path fill-rule="evenodd" clip-rule="evenodd" d="M20.2159 18.9696L20.4048 19.1389L20.6722 18.8322C20.7911 18.6961 20.8525 18.5464 20.8439 18.4078C20.8377 18.3048 20.7899 18.2091 20.7126 18.1417C20.6587 18.0926 20.5838 18.0681 20.4918 18.0681C20.3545 18.0681 20.1913 18.122 20.0478 18.1686C19.8651 18.2287 19.6982 18.2754 19.6345 18.2189C19.5461 18.1392 19.5915 18.0178 19.6639 17.9307L19.9325 17.624L19.7412 17.4535L19.475 17.7577C19.2628 18.0006 19.2456 18.2778 19.4345 18.4471C19.4897 18.4961 19.5633 18.5207 19.6565 18.5207C19.7939 18.5207 19.9558 18.4679 20.0981 18.4213C20.2809 18.3612 20.4465 18.3146 20.5102 18.371C20.5998 18.4508 20.5519 18.5759 20.4845 18.6581L20.2159 18.9696ZM20.4158 19.3033L20.054 18.9794L20.3986 18.5857C20.417 18.5636 20.4649 18.4912 20.4379 18.4618C20.4379 18.463 20.4317 18.4618 20.4207 18.4618C20.3569 18.4618 20.2453 18.4974 20.1374 18.5329C19.9853 18.5832 19.8148 18.6384 19.659 18.6384C19.5376 18.6384 19.437 18.6041 19.3597 18.5354C19.1193 18.3195 19.1316 17.9773 19.3891 17.6829L19.7326 17.2904L20.0957 17.6154L19.7534 18.0067C19.7338 18.03 19.6847 18.1024 19.7105 18.1318C19.7117 18.1306 19.7179 18.1318 19.7277 18.1318C19.7927 18.1318 19.9031 18.095 20.0122 18.0595C20.1643 18.0092 20.3361 17.9528 20.4931 17.9528C20.6145 17.9528 20.7151 17.9871 20.7911 18.0558C20.8942 18.1478 20.953 18.268 20.9604 18.4005C20.9702 18.5685 20.8991 18.7488 20.7605 18.9071L20.4158 19.3033Z" fill="#DEC685"/>
</g>
<defs>
<clipPath id="clip0_5_16928">
<rect width="24" height="24" fill="white"/>
</clipPath>
</defs>
</svg>
