<svg width="24" height="24" viewBox="0 0 24 24" fill="none" xmlns="http://www.w3.org/2000/svg">
<g clip-path="url(#clip0_5_16904)">
<path d="M24.0001 12C24.0001 18.6283 18.6284 24 12.0001 24C5.37174 24 6.10352e-05 18.6283 6.10352e-05 12C6.10352e-05 5.37167 5.37174 0 12.0001 0C18.6284 0 24.0001 5.37167 24.0001 12Z" fill="black"/>
<g opacity="0.95">
<path d="M22.6044 12.1031C22.6044 17.9022 17.9022 22.6044 12.1031 22.6044C6.30389 22.6044 1.60172 17.9022 1.60172 12.1031C1.60172 6.30389 6.30389 1.60172 12.1031 1.60172C17.9022 1.60172 22.6044 6.30389 22.6044 12.1031Z" fill="white"/>
</g>
<path d="M16.0759 9.07901L8.5359 16.7889L8.37109 13.6833L12.9188 9.07901L14.8038 7.12192L16.0244 6.72021L16.9102 6.95197L17.7394 7.6421L16.7402 8.79059L16.0759 9.07901Z" fill="white"/>
<path opacity="0.3" d="M16.7604 9.29473L15.2514 10.8501H17.5381L17.7956 10.5874C17.9758 10.402 18.12 10.1754 18.2179 9.93334C18.3158 9.68614 18.3621 9.42348 18.3621 9.16083C18.3621 8.63552 18.1664 8.13595 17.8162 7.75484L16.7758 8.83637C16.8325 8.89817 16.8582 8.98572 16.8582 9.06812C16.8531 9.15053 16.817 9.23293 16.7604 9.29473Z" fill="black"/>
<path opacity="0.3" d="M10.5599 15.8403L9.32898 17.1176H11.6157L12.8569 15.8403H10.5599Z" fill="black"/>
<path opacity="0.3" d="M11.1782 15.1926H13.4649L14.8297 13.7761H12.543L11.1782 15.1926Z" fill="black"/>
<path opacity="0.3" d="M16.9148 11.6132H14.6281L13.1654 13.1222H15.4521L16.9148 11.6132Z" fill="black"/>
<path d="M17.6704 7.19486C17.4335 6.94765 17.1503 6.75193 16.8413 6.61803C16.5322 6.48412 16.1975 6.41717 15.8627 6.41717C15.5279 6.41717 15.1932 6.48412 14.8842 6.61803C14.5751 6.75193 14.2919 6.95279 14.055 7.20001L8.1322 13.3185C8.07555 13.3855 8.03949 13.473 8.04464 13.5606V16.7126L6.41202 18.4173H7.30816L8.51847 17.1658H11.5468C11.588 17.1658 11.6292 17.1606 11.6704 17.14C11.7065 17.1246 11.7425 17.0937 11.7683 17.0628L17.655 10.9649L17.6653 10.9546C18.1443 10.455 18.4121 9.78029 18.4069 9.07985C18.4121 8.72964 18.3451 8.38457 18.2164 8.06525C18.0979 7.73049 17.9074 7.44207 17.6704 7.19486ZM14.2301 7.90559L14.4876 7.64293C14.8533 7.26696 15.3477 7.0558 15.8627 7.0558C16.3777 7.0558 16.8722 7.26696 17.2378 7.64293C17.2481 7.65323 17.2481 7.66353 17.2584 7.66353C17.6086 8.04465 17.8043 8.55453 17.8043 9.08501C17.7992 9.61548 17.5983 10.1202 17.2378 10.4962L16.9803 10.7588H14.6936L16.1923 9.20346C16.249 9.14681 16.285 9.0644 16.285 8.982C16.285 8.8996 16.2593 8.81719 16.2026 8.75539C16.1923 8.74509 16.1923 8.74509 16.1923 8.73479C16.1357 8.67298 16.0533 8.64208 15.9709 8.64208C15.8885 8.64208 15.8061 8.67813 15.7494 8.73479L14.2301 10.3108V7.90559ZM9.14165 16.5117L10.3726 15.2344H12.6593L11.4284 16.5117H9.14165ZM12.7314 12.788L14.194 11.2687H16.4807L15.0181 12.788H12.7314ZM14.5185 13.3031L13.1537 14.7194H10.867L12.2318 13.3031H14.5185ZM12.2678 9.9348L13.7305 8.41547V10.8206L12.2678 12.34V9.9348ZM10.4035 11.8662L11.7683 10.4498V12.855L10.4035 14.2713V11.8662ZM8.66267 13.6739L9.91418 12.3863V14.7915L8.66267 16.0791" fill="black"/>
</g>
<defs>
<clipPath id="clip0_5_16904">
<rect width="24" height="24" fill="white"/>
</clipPath>
</defs>
</svg>
