<svg width="24" height="24" viewBox="0 0 24 24" fill="none" xmlns="http://www.w3.org/2000/svg">
<g clip-path="url(#clip0_5_16845)">
<path fill-rule="evenodd" clip-rule="evenodd" d="M23.9624 6.36318L23.9019 5.52845L23.6797 6.18812L22.3334 7.37287L20.7886 7.58529L20.3677 7.19115L21.6602 5.35339L23.3767 4.82161L21.5524 4.93605L19.3845 6.47086L17.3789 6.32278L14.5112 4.82161L12.871 5.17694L7.5841 9.54554L5.10653 10.4026L4.03841 11.4899H2.19593L1.22609 13.2496L0.00725555 13.5297L1.22609 13.8097L2.34013 12.2632L4.03841 12.6149V14.2742L3.23478 16.4857L2.70778 18.7663L2.16099 19.643L3.53521 19.3574L3.37267 18.4215L4.59608 15.9702L6.74673 15.1559L7.63831 13.7125L9.09625 12.6191L12.0467 13.1461L14.8484 11.8226L14.4418 13.7997L13.1351 13.9149L12.7777 15.6327L13.9229 14.8449L15.7332 14.0264L17.1858 11.8226L17.2551 10.7252L18.0251 11.5061L20.3004 12.9244L21.6534 12.3274L21.4986 9.31836L21.1812 8.23095L20.4014 8.47016L22.7709 7.74315L23.9624 6.36318Z" fill="#4B5897"/>
<path fill-rule="evenodd" clip-rule="evenodd" d="M1.22609 13.2496V13.8097L0.00725555 13.5297L1.22609 13.2496Z" fill="#313A62"/>
<path fill-rule="evenodd" clip-rule="evenodd" d="M2.19593 11.4899L2.34013 12.2632L1.22609 13.8097V13.2496L2.19593 11.4899Z" fill="#4B5897"/>
<path fill-rule="evenodd" clip-rule="evenodd" d="M4.03841 12.6149L2.19593 11.4899L2.34013 12.2632L4.03841 12.6149Z" fill="#3F4B80"/>
<path fill-rule="evenodd" clip-rule="evenodd" d="M4.03841 11.4899V12.6149L2.19593 11.4899H4.03841Z" fill="#313A62"/>
<path fill-rule="evenodd" clip-rule="evenodd" d="M4.03841 14.2742V11.4899L5.66798 13.9343L4.03841 14.2742Z" fill="#3F4B80"/>
<path fill-rule="evenodd" clip-rule="evenodd" d="M3.23478 16.4857L5.66798 13.9343L4.03841 14.2742L3.23478 16.4857Z" fill="#313A62"/>
<path fill-rule="evenodd" clip-rule="evenodd" d="M2.70778 18.7663L3.37267 18.4215L3.23479 16.4857L2.70778 18.7663Z" fill="#1F243E"/>
<path fill-rule="evenodd" clip-rule="evenodd" d="M2.161 19.643L3.37267 18.4215L2.70778 18.7663L2.161 19.643Z" fill="#313A62"/>
<path fill-rule="evenodd" clip-rule="evenodd" d="M3.53521 19.3574L3.37267 18.4215L2.161 19.643L3.53521 19.3574Z" fill="#3F4B80"/>
<path fill-rule="evenodd" clip-rule="evenodd" d="M4.59612 15.9702L3.37267 18.4215L3.23478 16.4857L4.59612 15.9702Z" fill="#3F4B80"/>
<path fill-rule="evenodd" clip-rule="evenodd" d="M6.74673 15.1559L5.66798 13.9343L3.23478 16.4857L6.74673 15.1559Z" fill="#4B5897"/>
<path fill-rule="evenodd" clip-rule="evenodd" d="M7.63831 13.7125L6.74673 15.1559L5.66798 13.9343L7.63831 13.7125Z" fill="#313A62"/>
<path fill-rule="evenodd" clip-rule="evenodd" d="M5.10653 10.4026L5.66798 13.9343L4.03841 11.4899L5.10653 10.4026Z" fill="#3F4B80"/>
<path fill-rule="evenodd" clip-rule="evenodd" d="M7.5841 9.54554L5.66798 13.9343L5.10654 10.4026L7.5841 9.54554Z" fill="#4B5897"/>
<path fill-rule="evenodd" clip-rule="evenodd" d="M7.63831 13.7125L5.66798 13.9343L7.5841 9.54554L7.63831 13.7125Z" fill="#3F4B80"/>
<path fill-rule="evenodd" clip-rule="evenodd" d="M9.09625 12.6191L7.63831 13.7125L7.5841 9.54554L9.09625 12.6191Z" fill="#313A62"/>
<path fill-rule="evenodd" clip-rule="evenodd" d="M12.0467 13.1461L9.09625 12.6191L12.0467 12.1684V13.1461Z" fill="#3F4B80"/>
<path fill-rule="evenodd" clip-rule="evenodd" d="M7.5841 9.54554L12.0467 12.1684L9.09625 12.6191L7.5841 9.54554Z" fill="#4B5897"/>
<path fill-rule="evenodd" clip-rule="evenodd" d="M12.49 8.85575L12.0368 12.1832L7.57426 9.56035L12.49 8.85575Z" fill="#3F4B80"/>
<path fill-rule="evenodd" clip-rule="evenodd" d="M12.871 5.17694L12.4999 8.84099L7.5841 9.54554L12.871 5.17694Z" fill="#4B5897"/>
<path fill-rule="evenodd" clip-rule="evenodd" d="M14.8484 11.8226L12.0467 13.1461L12.0368 12.1832L14.8484 11.8226Z" fill="#313A62"/>
<path fill-rule="evenodd" clip-rule="evenodd" d="M17.2551 10.7252L14.8485 11.8226L12.0368 12.1832L17.2551 10.7252Z" fill="#3F4B80"/>
<path fill-rule="evenodd" clip-rule="evenodd" d="M17.1858 11.8226L17.2551 10.7252L14.8484 11.8226H17.1858Z" fill="#5161A4"/>
<path fill-rule="evenodd" clip-rule="evenodd" d="M15.7332 14.0264L14.8484 11.8226H17.1858L15.7332 14.0264Z" fill="#4B5897"/>
<path fill-rule="evenodd" clip-rule="evenodd" d="M14.4418 13.7997L15.7332 14.0264L14.8485 11.8226L14.4418 13.7997Z" fill="#3F4B80"/>
<path fill-rule="evenodd" clip-rule="evenodd" d="M13.9229 14.8449L14.4418 13.7997L15.7332 14.0264L13.9229 14.8449Z" fill="#4B5897"/>
<path fill-rule="evenodd" clip-rule="evenodd" d="M12.7777 15.6327L14.4418 13.7997L13.9229 14.8449L12.7777 15.6327Z" fill="#313A62"/>
<path fill-rule="evenodd" clip-rule="evenodd" d="M13.1351 13.9149L12.7777 15.6327L14.4418 13.7997L13.1351 13.9149Z" fill="#3F4B80"/>
<path fill-rule="evenodd" clip-rule="evenodd" d="M17.2551 10.7252L12.4999 8.841L12.0368 12.1832L17.2551 10.7252Z" fill="#4B5897"/>
<path fill-rule="evenodd" clip-rule="evenodd" d="M12.871 5.17694L12.4999 8.84099L17.2551 10.7252L12.871 5.17694Z" fill="#5161A4"/>
<path fill-rule="evenodd" clip-rule="evenodd" d="M14.5112 4.82161L12.871 5.17694L17.2551 10.7252L14.5112 4.82161Z" fill="#4B5897"/>
<path fill-rule="evenodd" clip-rule="evenodd" d="M17.7087 8.69232L17.2551 10.7252L14.5112 4.82161L17.7087 8.69232Z" fill="#3F4B80"/>
<path fill-rule="evenodd" clip-rule="evenodd" d="M17.3789 6.32278L17.7087 8.69232L14.5112 4.82161L17.3789 6.32278Z" fill="#313A62"/>
<path fill-rule="evenodd" clip-rule="evenodd" d="M18.0251 11.5061L17.7087 8.69232L17.2551 10.7252L18.0251 11.5061Z" fill="#313A62"/>
<path fill-rule="evenodd" clip-rule="evenodd" d="M20.4014 8.47016L17.7087 8.69232L17.3789 6.32278L20.4014 8.47016Z" fill="#4B5897"/>
<path fill-rule="evenodd" clip-rule="evenodd" d="M18.0251 11.5061L20.4014 8.47016L17.7087 8.69232L18.0251 11.5061Z" fill="#3F4B80"/>
<path fill-rule="evenodd" clip-rule="evenodd" d="M20.3004 12.9244L20.4014 8.47016L18.0251 11.5061L20.3004 12.9244Z" fill="#495692"/>
<path fill-rule="evenodd" clip-rule="evenodd" d="M20.3677 7.19115L19.4207 7.77341L17.3789 6.32278L20.3677 7.19115Z" fill="#3F4B80"/>
<path fill-rule="evenodd" clip-rule="evenodd" d="M19.3845 6.47086L20.3677 7.19115L17.3789 6.32278L19.3845 6.47086Z" fill="#313A62"/>
<path fill-rule="evenodd" clip-rule="evenodd" d="M21.6602 5.35339L20.3677 7.19115L19.3845 6.47086L21.6602 5.35339Z" fill="#3F4B80"/>
<path fill-rule="evenodd" clip-rule="evenodd" d="M21.5524 4.93605L21.6602 5.35339L19.3845 6.47086L21.5524 4.93605Z" fill="#495692"/>
<path fill-rule="evenodd" clip-rule="evenodd" d="M23.3767 4.82161L21.6602 5.35339L21.5524 4.93605L23.3767 4.82161Z" fill="#5D6CAC"/>
<path fill-rule="evenodd" clip-rule="evenodd" d="M20.7918 7.58832L20.3677 7.19115L19.4207 7.77341L20.7918 7.58832Z" fill="#313A62"/>
<path fill-rule="evenodd" clip-rule="evenodd" d="M22.7709 7.74315L20.4014 8.47016L19.4207 7.77341L22.7709 7.74315Z" fill="#4F60A3"/>
<path fill-rule="evenodd" clip-rule="evenodd" d="M22.3334 7.37287L22.7709 7.8166L19.4207 7.85287L22.3334 7.37287Z" fill="#495692"/>
<path fill-rule="evenodd" clip-rule="evenodd" d="M23.6797 6.18812L22.7709 7.74315L22.3334 7.37287L23.6797 6.18812Z" fill="#3F4B80"/>
<path fill-rule="evenodd" clip-rule="evenodd" d="M23.9624 6.36318L23.6797 6.18812L22.7709 7.74315L23.9624 6.36318Z" fill="#4F60A3"/>
<path fill-rule="evenodd" clip-rule="evenodd" d="M24.0569 5.52845L23.6797 6.18812L24.1597 6.36318L24.0569 5.52845Z" fill="#313A62"/>
<path fill-rule="evenodd" clip-rule="evenodd" d="M21.4986 9.31836L20.4014 8.47016L21.1812 8.23096L21.4986 9.31836Z" fill="#313A62"/>
<path fill-rule="evenodd" clip-rule="evenodd" d="M20.3004 12.9244L21.4986 9.31836L20.4014 8.47016L20.3004 12.9244Z" fill="#3F4B80"/>
<path fill-rule="evenodd" clip-rule="evenodd" d="M21.6534 12.3274L20.3004 12.9244L21.4986 9.31836L21.6534 12.3274Z" fill="#313A62"/>
</g>
<defs>
<clipPath id="clip0_5_16845">
<rect width="24" height="24" fill="white"/>
</clipPath>
</defs>
</svg>
