<svg width="24" height="24" viewBox="0 0 24 24" fill="none" xmlns="http://www.w3.org/2000/svg">
<g clip-path="url(#clip0_5_16840)">
<path d="M12 24C18.6274 24 24 18.6274 24 12C24 5.37258 18.6274 0 12 0C5.37258 0 0 5.37258 0 12C0 18.6274 5.37258 24 12 24Z" fill="#105B2F"/>
<path d="M7.383 8.1582C7.62516 6.86424 7.887 5.57436 8.139 4.2822C9.43292 4.2746 10.727 4.27129 12.0212 4.27236C13.2118 4.26972 14.4036 4.2648 15.591 4.35792C16.2919 4.41324 16.9933 4.49256 17.6768 4.6602C18.3848 4.82916 19.056 5.20548 19.5241 5.76816C19.9486 6.28416 20.1492 6.948 20.2058 7.60524C20.2553 7.95972 20.2678 8.32176 20.2134 8.67624C20.1326 9.73968 19.7814 10.792 19.1437 11.6522C18.6193 12.3706 17.8867 12.9176 17.0864 13.2953C16.2041 13.7095 15.2396 13.9222 14.2724 14.0096C13.5394 14.0778 12.802 14.06 12.0667 14.0622C11.0314 14.0604 9.99648 14.0648 8.9616 14.0555C8.58612 15.9238 8.2428 17.7986 7.8834 19.6705C6.9794 19.6656 6.07516 19.6613 5.17068 19.6576C5.78112 16.4428 6.41868 13.2329 7.0554 10.023C6.51816 10.0207 5.9808 10.0253 5.44356 10.0243C5.56752 9.40584 5.679 8.78472 5.79492 8.16504C6.32424 8.16012 6.85392 8.16504 7.38312 8.15796L7.383 8.1582ZM10.3477 6.936C10.2732 7.344 10.1894 7.7502 10.1118 8.15772C11.399 8.16 12.6868 8.15772 13.9745 8.16036C13.8554 8.78016 13.7359 9.39948 13.6258 10.0204C12.3331 10.0253 11.0405 10.0217 9.74796 10.0222C9.66192 10.4975 9.55356 10.9687 9.48048 11.4458C10.9805 11.4458 12.4817 11.4481 13.9825 11.4458C14.8007 11.4338 15.6648 11.2706 16.3122 10.7378C16.8665 10.2794 17.3261 9.63648 17.3756 8.89944C17.3908 8.58156 17.3636 8.25336 17.2436 7.956C17.0675 7.52532 16.6564 7.22292 16.2116 7.116C15.5102 6.95232 14.7862 6.951 14.0705 6.92868C12.8291 6.93432 11.5882 6.92088 10.3477 6.936Z" fill="#FEFEFE"/>
</g>
<defs>
<clipPath id="clip0_5_16840">
<rect width="24" height="24" fill="white"/>
</clipPath>
</defs>
</svg>
