<svg width="24" height="24" viewBox="0 0 24 24" fill="none" xmlns="http://www.w3.org/2000/svg">
<g clip-path="url(#clip0_5_16821)">
<path fill-rule="evenodd" clip-rule="evenodd" d="M0.592157 12.0315L11.9683 23.4077L23.3445 12.0315L11.9683 0.655303L0.592157 12.0315ZM11.9683 23.973C11.9085 23.973 11.8484 23.9502 11.8027 23.9044L0.0954158 12.1971C0.00398167 12.1056 0.00398167 11.9573 0.0954158 11.866L11.8027 0.158679C11.8942 0.0672446 12.0425 0.0672446 12.1338 0.158679L23.8411 11.866C23.9327 11.9573 23.9327 12.1056 23.8411 12.1971L12.1338 23.9044C12.0882 23.9502 12.0282 23.973 11.9683 23.973Z" fill="#00C0AC"/>
<path fill-rule="evenodd" clip-rule="evenodd" d="M1.33415 11.7974H8.31124L10.8123 7.45456L1.33415 11.7974ZM8.44658 12.2657H0.260937C0.150888 12.2657 0.0557078 12.189 0.0321761 12.0814C0.0087615 11.9739 0.0634347 11.8645 0.163415 11.8187L11.2833 6.72367C11.3757 6.68141 11.4853 6.70354 11.5539 6.77893C11.6225 6.85409 11.6346 6.9652 11.5837 7.05347L8.64946 12.1484C8.60767 12.221 8.5304 12.2657 8.44658 12.2657Z" fill="#00C0AC"/>
<path fill-rule="evenodd" clip-rule="evenodd" d="M15.5946 12.2657L13.0935 16.6084L22.5716 12.2657H15.5946ZM12.525 17.3606C12.4606 17.3606 12.3973 17.334 12.3519 17.2841C12.2833 17.2089 12.2712 17.0978 12.3221 17.0096L15.2563 11.9147C15.2981 11.8421 15.3754 11.7974 15.4592 11.7974H23.6447C23.7549 11.7974 23.8501 11.874 23.8735 11.9816C23.897 12.0891 23.8424 12.1986 23.7423 12.2444L12.6225 17.3393C12.5913 17.3537 12.558 17.3606 12.525 17.3606Z" fill="#00C0AC"/>
<path fill-rule="evenodd" clip-rule="evenodd" d="M2.10403 6.36469L6.30145 21.8957L21.8326 17.6984L17.6352 2.16715L2.10403 6.36469ZM6.13638 22.4171C6.03324 22.4171 5.93864 22.3483 5.91055 22.244L1.5909 6.26085C1.55718 6.13605 1.63094 6.00739 1.75574 5.97367L17.739 1.65402C17.799 1.63775 17.8628 1.64587 17.9168 1.67697C17.9706 1.70799 18.0099 1.75903 18.0261 1.81898L22.3457 17.8022C22.3796 17.9271 22.3057 18.0555 22.1809 18.0892L6.19761 22.409C6.17724 22.4145 6.15663 22.4171 6.13638 22.4171Z" fill="#00C0AC"/>
<path fill-rule="evenodd" clip-rule="evenodd" d="M4.53244 7.99411C4.49287 7.99411 4.45283 7.98404 4.41607 7.96285L1.70032 6.40273C1.58817 6.33834 1.54942 6.19528 1.61381 6.08312C1.67831 5.97096 1.82138 5.93245 1.93353 5.9966L4.64928 7.55684C4.76144 7.62123 4.80019 7.76441 4.73568 7.87645C4.69236 7.95196 4.61357 7.99411 4.53244 7.99411Z" fill="#00C0AC"/>
<path fill-rule="evenodd" clip-rule="evenodd" d="M22.0927 18.0821C22.0532 18.0821 22.0131 18.072 21.9764 18.0509L19.283 16.5037C19.1708 16.4392 19.1321 16.296 19.1965 16.184C19.261 16.0718 19.4039 16.0332 19.5162 16.0976L22.2096 17.6449C22.3217 17.7092 22.3604 17.8524 22.296 17.9645C22.2527 18.0399 22.1739 18.0821 22.0927 18.0821Z" fill="#00C0AC"/>
<path fill-rule="evenodd" clip-rule="evenodd" d="M19.3694 7.98016C19.2885 7.98016 19.2097 7.93813 19.1664 7.86297C19.1018 7.75093 19.1402 7.60775 19.2522 7.54313L21.965 5.97786C22.077 5.91324 22.2203 5.95164 22.2849 6.06367C22.3495 6.17571 22.311 6.31889 22.1991 6.38352L19.4862 7.94867C19.4494 7.96998 19.4091 7.98016 19.3694 7.98016Z" fill="#00C0AC"/>
<path fill-rule="evenodd" clip-rule="evenodd" d="M1.8281 18.1012C1.7472 18.1012 1.66841 18.0591 1.6251 17.984C1.56047 17.8719 1.59887 17.7288 1.71091 17.6641L4.40137 16.1117C4.51341 16.047 4.65659 16.0854 4.72121 16.1974C4.78584 16.3095 4.74744 16.4527 4.6354 16.5174L1.94494 18.0697C1.90806 18.091 1.86779 18.1012 1.8281 18.1012Z" fill="#00C0AC"/>
<path fill-rule="evenodd" clip-rule="evenodd" d="M11.9758 3.69807H11.9753C11.8446 3.69784 11.739 3.59282 11.7392 3.46346L11.7461 0.331397C11.7463 0.202382 11.8522 0.0978355 11.9827 0.0978355H11.9831C12.1139 0.0980697 12.2195 0.203084 12.2192 0.33245L12.2124 3.46451C12.2121 3.59352 12.1063 3.69807 11.9758 3.69807Z" fill="#00C0AC"/>
<path fill-rule="evenodd" clip-rule="evenodd" d="M11.9322 23.9498H11.9317C11.801 23.9496 11.6954 23.8445 11.6956 23.7152L11.7023 20.6089C11.7027 20.4796 11.8086 20.3752 11.939 20.3752H11.9396C12.0702 20.3755 12.1759 20.4806 12.1756 20.6099L12.1688 23.7162C12.1686 23.8452 12.0627 23.9498 11.9322 23.9498Z" fill="#00C0AC"/>
<path fill-rule="evenodd" clip-rule="evenodd" d="M2.12839 17.7406L17.6775 21.8714L21.8083 6.32242L6.2592 2.19161L2.12839 17.7406ZM17.8438 22.392C17.8238 22.392 17.8037 22.3894 17.7835 22.3842L1.78185 18.1331C1.72179 18.1172 1.67063 18.078 1.63949 18.0244C1.60835 17.9706 1.59968 17.9067 1.61572 17.8466L5.86677 1.84507C5.90002 1.71992 6.02821 1.64605 6.15313 1.67895L22.1548 5.92987C22.2149 5.94591 22.266 5.98501 22.2972 6.03875C22.3284 6.09249 22.337 6.15641 22.321 6.21635L18.0699 22.2179C18.042 22.3228 17.9473 22.392 17.8438 22.392Z" fill="#00C0AC"/>
<path fill-rule="evenodd" clip-rule="evenodd" d="M6.83412 2.71587L10.3355 8.75076L15.3469 8.73461L6.83412 2.71587ZM10.2009 9.21952C10.1174 9.21952 10.0403 9.17515 9.99837 9.10292L5.89051 2.02268C5.83525 1.9275 5.85375 1.80657 5.935 1.73246C6.01636 1.65812 6.13824 1.65051 6.22827 1.71396L16.2155 8.77523C16.2987 8.83412 16.3343 8.93983 16.3036 9.03701C16.2729 9.13406 16.1829 9.20032 16.081 9.20067L10.2017 9.21952H10.2009Z" fill="#00C0AC"/>
<path fill-rule="evenodd" clip-rule="evenodd" d="M8.57421 15.3016L17.087 21.3204L13.5855 15.2855L8.57421 15.3016ZM17.828 22.3653C17.781 22.3653 17.7337 22.3511 17.6929 22.3223L7.70565 15.261C7.62241 15.2022 7.58682 15.0963 7.61749 14.9993C7.64816 14.9021 7.73819 14.836 7.84005 14.8357L13.7195 14.8168H13.7202C13.8036 14.8168 13.8808 14.8611 13.9227 14.9334L18.0306 22.0136C18.0858 22.1089 18.0673 22.2297 17.9861 22.304C17.9416 22.3446 17.8849 22.3653 17.828 22.3653Z" fill="#00C0AC"/>
<path fill-rule="evenodd" clip-rule="evenodd" d="M2.14845 6.28809L6.22482 21.8514L21.7882 17.775L17.7118 2.21161L2.14845 6.28809ZM6.05776 22.3714C6.01655 22.3714 5.97569 22.3605 5.93952 22.3393C5.8859 22.308 5.84691 22.2566 5.83122 22.1966L1.63614 6.18015C1.60336 6.05512 1.67817 5.92716 1.80332 5.89438L17.8196 1.69929C17.9445 1.66675 18.0727 1.74132 18.1054 1.86636L22.3005 17.8828C22.3333 18.0078 22.2585 18.1358 22.1334 18.1686L6.117 22.3636C6.09745 22.3688 6.07754 22.3714 6.05776 22.3714Z" fill="#00C0AC"/>
<path fill-rule="evenodd" clip-rule="evenodd" d="M14.0168 8.99289L16.5027 13.3443L17.5393 2.97041L14.0168 8.99289ZM16.6628 14.3307C16.58 14.3307 16.5018 14.2867 16.4595 14.2127L13.543 9.10762C13.5016 9.03492 13.502 8.94571 13.5442 8.87336L17.6769 1.80752C17.7325 1.71246 17.847 1.66914 17.9514 1.70309C18.0561 1.73705 18.1229 1.83949 18.1119 1.94907L16.8959 14.1199C16.8857 14.2211 16.8112 14.3044 16.7116 14.3256C16.6953 14.3291 16.6789 14.3307 16.6628 14.3307Z" fill="#00C0AC"/>
<path fill-rule="evenodd" clip-rule="evenodd" d="M7.44956 10.692L6.41299 21.0659L9.93549 15.0434L7.44956 10.692ZM6.07336 22.3447C6.04924 22.3447 6.02478 22.3409 6.00089 22.3332C5.89623 22.2993 5.82938 22.1968 5.84027 22.0872L7.05643 9.91644C7.06661 9.81517 7.14107 9.73193 7.2407 9.71074C7.34033 9.6892 7.44218 9.73509 7.49276 9.8236L10.4093 14.9287C10.4507 15.0014 10.4503 15.0906 10.4081 15.163L6.27543 22.2288C6.23246 22.3021 6.15473 22.3447 6.07336 22.3447Z" fill="#00C0AC"/>
</g>
<defs>
<clipPath id="clip0_5_16821">
<rect width="24" height="24" fill="white"/>
</clipPath>
</defs>
</svg>
