<svg width="24" height="24" viewBox="0 0 24 24" fill="none" xmlns="http://www.w3.org/2000/svg">
<g clip-path="url(#clip0_5_16808)">
<path d="M12 24C18.6274 24 24 18.6274 24 12C24 5.37258 18.6274 0 12 0C5.37258 0 0 5.37258 0 12C0 18.6274 5.37258 24 12 24Z" fill="#152743"/>
<path d="M12.0368 6.23701C11.0498 6.23701 10.2495 5.68726 10.2495 5.00851C10.2495 4.32976 11.0498 3.78001 12.0368 3.78001C13.0238 3.78001 13.8233 4.32976 13.8233 5.00851C13.8233 5.68726 13.0238 6.23701 12.0368 6.23701ZM11.112 19.95V6.82801H15.096C15.2438 6.82801 15.348 6.93826 15.348 7.08601V14.367C15.348 14.514 15.243 14.64 15.096 14.64H12.9V19.95C12.9 20.0978 12.7875 20.232 12.6398 20.232H11.3888C11.3155 20.2292 11.2461 20.1985 11.1947 20.1462C11.1432 20.094 11.1137 20.0241 11.112 19.9508V19.95ZM10.44 14.6393H8.93251C8.85962 14.6385 8.78982 14.6098 8.73758 14.5589C8.68535 14.5081 8.6547 14.4391 8.65201 14.3663V7.08601C8.65201 6.93826 8.78476 6.82801 8.93176 6.82801H10.44V14.64V14.6393Z" fill="white"/>
</g>
<defs>
<clipPath id="clip0_5_16808">
<rect width="24" height="24" fill="white"/>
</clipPath>
</defs>
</svg>
