<svg width="24" height="24" viewBox="0 0 24 24" fill="none" xmlns="http://www.w3.org/2000/svg">
<g clip-path="url(#clip0_5_16803)">
<path d="M22.4762 1.43238H1.52381V22.3848H22.4762V1.43238Z" fill="white"/>
<path d="M8.62476 14.7733H10.8648C11.5053 14.7724 12.1377 14.6293 12.7162 14.3543C13.2643 14.0846 13.7537 13.7091 14.1562 13.2495C14.5562 12.7737 14.866 12.2289 15.0705 11.6419C15.2929 11.0474 15.4065 10.4176 15.4057 9.78286C15.4077 9.16558 15.286 8.55416 15.0476 7.98476C14.8153 7.40877 14.4882 6.8757 14.08 6.40762C13.668 5.93749 13.1686 5.55192 12.6095 5.27238C12.035 4.97619 11.3969 4.82451 10.7505 4.83048H4.85333V19.1467H8.66286L8.62476 14.7733ZM8.62476 8.28952H10.5295C10.7955 8.30648 11.0444 8.42679 11.2229 8.62476C11.4956 8.96642 11.6241 9.40113 11.581 9.83619C11.627 10.2525 11.5096 10.6705 11.2533 11.0019C11.1777 11.1012 11.0811 11.1827 10.9706 11.2406C10.86 11.2985 10.738 11.3315 10.6133 11.3371H8.62476V8.28952Z" fill="#2D8EFF"/>
<path d="M0 1.37905V22.621C0 22.9867 0.145292 23.3375 0.403914 23.5961C0.662535 23.8547 1.0133 24 1.37905 24H22.621C22.9867 24 23.3375 23.8547 23.5961 23.5961C23.8547 23.3375 24 22.9867 24 22.621V1.37905C24 1.0133 23.8547 0.662535 23.5961 0.403914C23.3375 0.145292 22.9867 0 22.621 0L1.37905 0C1.0133 0 0.662535 0.145292 0.403914 0.403914C0.145292 0.662535 0 1.0133 0 1.37905H0ZM19.8095 21.1886H4.17524C3.80949 21.1886 3.45873 21.0433 3.2001 20.7847C2.94148 20.526 2.79619 20.1753 2.79619 19.8095V4.17524C2.79619 3.80949 2.94148 3.45873 3.2001 3.2001C3.45873 2.94148 3.80949 2.79619 4.17524 2.79619H19.8095C20.1753 2.79619 20.526 2.94148 20.7847 3.2001C21.0433 3.45873 21.1886 3.80949 21.1886 4.17524V19.8095C21.1846 20.1726 21.0375 20.5195 20.7793 20.7748C20.5211 21.0302 20.1726 21.1734 19.8095 21.1733V21.1886Z" fill="#2D8EFF"/>
<path d="M19.139 16.4571H10.3086V19.1695H19.139V16.4571Z" fill="#2D8EFF"/>
</g>
<defs>
<clipPath id="clip0_5_16803">
<rect width="24" height="24" fill="white"/>
</clipPath>
</defs>
</svg>
