<svg width="24" height="24" viewBox="0 0 24 24" fill="none" xmlns="http://www.w3.org/2000/svg">
<g clip-path="url(#clip0_5_16801)">
<path d="M20.7371 19.9372C20.7272 20.1659 20.6291 20.3818 20.4634 20.5397C20.2977 20.6975 20.0772 20.785 19.8484 20.7836H6.81361C6.57752 20.7825 6.35148 20.688 6.18493 20.5206C6.01838 20.3533 5.92488 20.1268 5.92488 19.8907V19.5944C5.97271 19.119 6.11669 18.6583 6.34809 18.2402C6.9829 17.0552 8.16787 16.2088 9.86069 15.6163L15.0661 13.8812C15.873 13.5805 16.6186 13.136 17.2668 12.5692C17.961 11.9882 18.521 11.2636 18.9082 10.4453C19.2954 9.62702 19.5007 8.73454 19.5098 7.82932L19.8907 8.08324C20.1458 8.2584 20.3557 8.49175 20.5029 8.76402C20.65 9.03629 20.7303 9.33967 20.7371 9.6491V19.933V19.9372ZM16.2934 7.79123C16.3015 8.22943 16.2149 8.66421 16.0396 9.0659C15.8643 9.4676 15.6045 9.82675 15.2777 10.1189C14.9211 10.4281 14.5221 10.6846 14.0928 10.8806L8.88732 12.6158C5.79792 13.6315 4.27438 15.4089 3.55493 16.7209C3.42454 16.9666 3.31141 17.2212 3.21636 17.4826C3.21636 17.525 3.17404 17.525 3.17404 17.5673V9.69565C3.18447 9.38698 3.26633 9.08493 3.41319 8.81323C3.56006 8.54154 3.76792 8.3076 4.02045 8.12979L11.1303 3.47453C11.378 3.32037 11.6638 3.23866 11.9556 3.23866C12.2473 3.23866 12.5332 3.32037 12.7808 3.47453L16.2934 5.80216V7.79123ZM23.9534 19.768V9.69565C23.9396 8.85873 23.7247 8.0374 23.327 7.30088C22.9293 6.56436 22.3603 5.93423 21.6681 5.4636L19.5521 4.06702V0.892974C19.5521 0.656876 19.4586 0.430386 19.2921 0.263044C19.1255 0.0957022 18.8995 0.0011286 18.6634 9.65502e-06H17.2668C17.1493 -0.00289297 17.0324 0.0181109 16.9233 0.0617464C16.8142 0.105382 16.715 0.170739 16.6319 0.253851C16.5488 0.336963 16.4834 0.436096 16.4398 0.545235C16.3962 0.654373 16.3752 0.771239 16.3781 0.888742V1.94676L14.6006 0.76178C13.8245 0.262057 12.921 -0.00367737 11.9979 -0.00367737C11.0748 -0.00367737 10.1713 0.262057 9.39517 0.76178L2.28531 5.41704C1.58618 5.88058 1.01197 6.50917 0.613392 7.24727C0.214817 7.98537 0.00415023 8.81027 -2.06521e-07 9.6491V19.7214C-0.0346854 20.5901 0.201979 21.448 0.677129 22.176C1.02877 22.7253 1.52723 23.1651 2.11603 23.4456C2.78038 23.7608 3.49834 23.9474 4.23206 23.9958H19.7637C20.5011 23.9716 21.2239 23.7837 21.8797 23.4456C22.4806 23.1664 22.9931 22.7271 23.361 22.176C23.7747 21.441 23.9796 20.6068 23.9534 19.7637" fill="#38A6FA"/>
</g>
<defs>
<clipPath id="clip0_5_16801">
<rect width="24" height="24" fill="white"/>
</clipPath>
</defs>
</svg>
