<svg width="24" height="24" viewBox="0 0 24 24" fill="none" xmlns="http://www.w3.org/2000/svg">
<path d="M7.6262 21.3196H13.6486L18.5159 17.7869L20.3776 12.0673L18.5159 6.34766L13.6486 2.81495H7.6262L2.75891 6.32523L0.897224 12.0449L2.75891 17.7645L7.6262 21.3196ZM13.7496 21.6449H7.51405L7.46919 21.6112L2.46732 17.9776L0.549561 12.0561L2.47853 6.12337L7.51405 2.46729H13.7496L18.7963 6.13458L20.7253 12.0673L18.7963 18L13.7496 21.6449Z" fill="#2EA6DF"/>
<path d="M8.20936 2.6243C8.20936 3.02804 7.88413 3.34206 7.4916 3.34206C7.08787 3.34206 6.77385 3.01682 6.77385 2.6243C6.77385 2.23178 7.09908 1.90654 7.4916 1.90654C7.88413 1.90654 8.20936 2.23178 8.20936 2.6243ZM14.4 2.6243C14.4 3.02804 14.0748 3.34206 13.6823 3.34206C13.2785 3.34206 12.9645 3.01682 12.9645 2.6243C12.9645 2.23178 13.2897 1.90654 13.6823 1.90654C14.0748 1.90654 14.4 2.23178 14.4 2.6243ZM8.25422 21.3757C8.25422 21.7794 7.92899 22.0935 7.53646 22.0935C7.13273 22.0935 6.81871 21.7682 6.81871 21.3757C6.81871 20.9832 7.14394 20.6579 7.53646 20.6579C7.92899 20.6467 8.25422 20.972 8.25422 21.3757ZM3.29721 17.8879C3.29721 18.2916 2.97198 18.6056 2.57945 18.6056C2.18693 18.6056 1.8617 18.2804 1.8617 17.8879C1.8617 17.4841 2.18693 17.1701 2.57945 17.1701C2.97198 17.1701 3.29721 17.4841 3.29721 17.8879ZM1.44674 12.0561C1.44674 12.4598 1.12151 12.7738 0.728987 12.7738C0.325249 12.7738 0.0112305 12.4486 0.0112305 12.0561C0.0112305 11.6523 0.336464 11.3383 0.728987 11.3383C1.12151 11.3271 1.44674 11.6523 1.44674 12.0561ZM3.29721 6.24673C3.29721 6.65047 2.97198 6.96449 2.57945 6.96449C2.18693 6.96449 1.8617 6.63925 1.8617 6.24673C1.8617 5.84299 2.18693 5.52897 2.57945 5.52897C2.97198 5.52897 3.29721 5.84299 3.29721 6.24673ZM19.8168 12.0449C19.8168 12.4486 20.1421 12.7626 20.5346 12.7626C20.9271 12.7626 21.2524 12.4374 21.2524 12.0449C21.2524 11.6523 20.9271 11.3271 20.5346 11.3271C20.1421 11.3271 19.8168 11.6411 19.8168 12.0449ZM17.9664 6.23552C17.9664 6.63925 18.2916 6.95327 18.6841 6.95327C19.0879 6.95327 19.4019 6.62804 19.4019 6.23552C19.4019 5.83178 19.0767 5.51776 18.6841 5.51776C18.2804 5.51776 17.9664 5.83178 17.9664 6.23552ZM14.4561 21.3757C14.4561 21.7794 14.1309 22.0935 13.7383 22.0935C13.3458 22.0935 13.0206 21.7682 13.0206 21.3757C13.0206 20.9832 13.3458 20.6579 13.7383 20.6579C14.1309 20.6579 14.4561 20.972 14.4561 21.3757Z" fill="#2EA6DF"/>
<path d="M6.8187 16.3065L6.87478 16.329L10.9009 17.686L15.4542 16.3178L18.5271 17.6299V6.48224L15.4542 7.79439L10.9009 6.42617L6.8187 7.78318L6.76263 7.77196L2.74767 6.47103V17.6187L6.8187 16.3065ZM18.8523 18.1009L15.4318 16.643L10.9009 18.0112L6.82992 16.643L2.43365 18.0673V6.02243L6.82992 7.44673L10.9009 6.07851L10.9458 6.08972L15.4318 7.43551L18.8523 5.97757V18.1009Z" fill="#2EA6DF"/>
<path d="M0.717773 12.3566V11.8921L20.5458 11.8766V12.3257L0.717773 12.3566Z" fill="#2EA6DF"/>
<path d="M11.0804 6.26916L13.4468 11.5963L15.2524 7.60374L13.6262 2.96075L11.0804 6.26916ZM6.98694 7.59253L8.57946 11.6075L10.6991 6.28038L7.60376 2.99439L6.98694 7.59253ZM2.80376 12.0561L6.75143 16.1832L8.38881 12.0561L6.75143 7.91776L2.80376 12.0561ZM8.7589 12.0561L10.901 17.4168L13.2673 12L10.901 6.6729L8.7589 12.0561ZM6.98694 16.4972L7.64862 21.0168L10.6991 17.8093L8.57946 12.5047L6.98694 16.4972ZM11.0804 17.8206L13.6711 21.0393L15.2524 16.486L13.4468 12.415L11.0804 17.8206ZM7.42432 21.7346L6.66171 16.5533L2.35516 12.0561L6.66171 7.53645L7.36825 2.25421L10.8785 5.98879L13.7383 2.27664L15.6112 7.62617L13.6262 12L15.6112 16.4636L13.7944 21.7009L10.8785 18.0897L7.42432 21.7346Z" fill="#2EA6DF"/>
<path d="M15.5664 16.5757L15.2972 16.3738L18.4822 12.0561L15.2972 7.71589L15.5664 7.51402L18.886 12.0561L15.5664 16.5757ZM6.04486 7.61495C6.04486 8.01869 6.37009 8.33271 6.76262 8.33271C7.16636 8.33271 7.48037 8.00748 7.48037 7.61495C7.48037 7.22243 7.15514 6.8972 6.76262 6.8972C6.37009 6.8972 6.04486 7.21122 6.04486 7.61495ZM10.172 6.24673C10.172 6.65047 10.4972 6.96449 10.8897 6.96449C11.2935 6.96449 11.6075 6.63925 11.6075 6.24673C11.6075 5.84299 11.2822 5.52897 10.8897 5.52897C10.486 5.52897 10.172 5.84299 10.172 6.24673Z" fill="#2EA6DF"/>
<path d="M15.9477 7.11028C15.6673 6.82991 15.2075 6.82991 14.9271 7.11028C14.6467 7.39065 14.6467 7.85047 14.9271 8.13084C15.2075 8.41121 15.6673 8.41121 15.9477 8.13084C16.228 7.83925 16.228 7.39065 15.9477 7.11028ZM3.29721 12C3.29721 11.5963 2.97197 11.2822 2.57945 11.2822C2.18693 11.2822 1.86169 11.6075 1.86169 12C1.86169 12.4037 2.18693 12.7178 2.57945 12.7178C2.97197 12.7178 3.29721 12.4037 3.29721 12ZM9.16263 12C9.16263 11.5963 8.8374 11.2822 8.44487 11.2822C8.04113 11.2822 7.72711 11.6075 7.72711 12C7.72711 12.4037 8.05235 12.7178 8.44487 12.7178C8.8374 12.7178 9.16263 12.4037 9.16263 12ZM14.0636 12C14.0636 11.5963 13.7383 11.2822 13.3458 11.2822C12.9421 11.2822 12.628 11.6075 12.628 12C12.628 12.4037 12.9533 12.7178 13.3458 12.7178C13.7383 12.7178 14.0636 12.4037 14.0636 12ZM19.4019 12.0561C19.4019 11.6523 19.0766 11.3383 18.6841 11.3383C18.2916 11.3383 17.9664 11.6636 17.9664 12.0561C17.9664 12.4598 18.2916 12.7738 18.6841 12.7738C19.0766 12.7738 19.4019 12.4486 19.4019 12.0561ZM16.1495 16.4748C16.1495 16.071 15.8243 15.757 15.4318 15.757C15.028 15.757 14.714 16.0822 14.714 16.4748C14.714 16.8673 15.0393 17.1925 15.4318 17.1925C15.8355 17.1925 16.1495 16.8785 16.1495 16.4748ZM23.9888 20.1084C23.9888 19.5477 23.529 19.0878 22.9682 19.0878C22.4075 19.0878 21.9477 19.5477 21.9477 20.1084C21.9477 20.6692 22.4075 21.129 22.9682 21.129C23.529 21.129 23.9888 20.6692 23.9888 20.1084ZM10.6094 17.1925C10.2393 17.3495 10.071 17.7757 10.228 18.1346C10.3851 18.5047 10.8112 18.6729 11.1701 18.5159C11.5402 18.3589 11.7084 17.9327 11.5514 17.5738C11.3944 17.215 10.9795 17.0467 10.6094 17.1925ZM6.48225 15.8131C6.11216 15.9701 5.94394 16.3963 6.10095 16.7551C6.25796 17.1252 6.68412 17.2935 7.043 17.1364C7.4131 16.9794 7.58132 16.5533 7.42431 16.1944C7.2673 15.8243 6.85235 15.6561 6.48225 15.8131Z" fill="#2EA6DF"/>
<path d="M22.8897 20.2542L18.572 18.0224L18.729 17.7308L23.0467 19.9626L22.8897 20.2542Z" fill="#2EA6DF"/>
</svg>
