<svg width="24" height="24" viewBox="0 0 24 24" fill="none" xmlns="http://www.w3.org/2000/svg">
<g clip-path="url(#clip0_5_16688)">
<path d="M12 24C18.6274 24 24 18.6274 24 12C24 5.37258 18.6274 0 12 0C5.37258 0 0 5.37258 0 12C0 18.6274 5.37258 24 12 24Z" fill="#9D4BEF"/>
<path d="M8.60248 5.74575C9.35994 5.74575 10.0864 6.04665 10.622 6.58225C11.1576 7.11785 11.4585 7.84429 11.4585 8.60175C11.4585 9.35921 11.1576 10.0856 10.622 10.6212C10.0864 11.1568 9.35994 11.4577 8.60248 11.4577C7.84502 11.4577 7.11859 11.1568 6.58298 10.6212C6.04738 10.0856 5.74648 9.35921 5.74648 8.60175C5.74648 7.84429 6.04738 7.11785 6.58298 6.58225C7.11859 6.04665 7.84502 5.74575 8.60248 5.74575ZM11.4577 15.3982C11.4577 15.9631 11.2902 16.5153 10.9764 16.985C10.6626 17.4546 10.2165 17.8207 9.69467 18.0368C9.17281 18.253 8.59856 18.3096 8.04455 18.1994C7.49054 18.0892 6.98165 17.8172 6.58223 17.4177C6.18281 17.0183 5.91081 16.5094 5.80061 15.9554C5.69041 15.4014 5.74697 14.8272 5.96313 14.3053C6.17929 13.7834 6.54535 13.3374 7.01502 13.0236C7.48469 12.7097 8.03687 12.5422 8.60173 12.5422C9.64662 12.5422 10.6487 12.1272 11.3876 11.3883C12.1264 10.6495 12.5415 9.64738 12.5415 8.6025C12.5415 8.03763 12.709 7.48545 13.0228 7.01579C13.3366 6.54612 13.7827 6.18006 14.3045 5.9639C14.8264 5.74773 15.4006 5.69117 15.9547 5.80137C16.5087 5.91157 17.0176 6.18358 17.417 6.583C17.8164 6.98242 18.0884 7.49131 18.1986 8.04532C18.3088 8.59933 18.2522 9.17357 18.0361 9.69544C17.8199 10.2173 17.4539 10.6634 16.9842 10.9772C16.5145 11.291 15.9623 11.4585 15.3975 11.4585C14.3527 11.4587 13.3508 11.8739 12.6121 12.6127C11.8735 13.3515 11.4585 14.3535 11.4585 15.3982H11.4577ZM15.3975 18.2542C14.64 18.2542 13.9136 17.9533 13.378 17.4177C12.8424 16.8821 12.5415 16.1557 12.5415 15.3982C12.5415 14.6408 12.8424 13.9144 13.378 13.3787C13.9136 12.8431 14.64 12.5422 15.3975 12.5422C16.1549 12.5422 16.8814 12.8431 17.417 13.3787C17.9526 13.9144 18.2535 14.6408 18.2535 15.3982C18.2535 16.1557 17.9526 16.8821 17.417 17.4177C16.8814 17.9533 16.1549 18.2542 15.3975 18.2542ZM15.3975 16.2592C15.6258 16.2592 15.8448 16.1685 16.0063 16.0071C16.1678 15.8456 16.2585 15.6266 16.2585 15.3982C16.2585 15.1699 16.1678 14.9509 16.0063 14.7894C15.8448 14.628 15.6258 14.5372 15.3975 14.5372C15.1691 14.5372 14.9501 14.628 14.7887 14.7894C14.6272 14.9509 14.5365 15.1699 14.5365 15.3982C14.5365 15.6266 14.6272 15.8456 14.7887 16.0071C14.9501 16.1685 15.1691 16.2592 15.3975 16.2592ZM8.60248 16.2592C8.83083 16.2592 9.04983 16.1685 9.2113 16.0071C9.37277 15.8456 9.46348 15.6266 9.46348 15.3982C9.46348 15.1699 9.37277 14.9509 9.2113 14.7894C9.04983 14.628 8.83083 14.5372 8.60248 14.5372C8.37413 14.5372 8.15513 14.628 7.99366 14.7894C7.83219 14.9509 7.74148 15.1699 7.74148 15.3982C7.74148 15.6266 7.83219 15.8456 7.99366 16.0071C8.15513 16.1685 8.37413 16.2592 8.60248 16.2592ZM15.3975 9.46275C15.6258 9.46275 15.8448 9.37203 16.0063 9.21057C16.1678 9.0491 16.2585 8.8301 16.2585 8.60175C16.2585 8.3734 16.1678 8.1544 16.0063 7.99293C15.8448 7.83146 15.6258 7.74075 15.3975 7.74075C15.1691 7.74075 14.9501 7.83146 14.7887 7.99293C14.6272 8.1544 14.5365 8.3734 14.5365 8.60175C14.5365 8.8301 14.6272 9.0491 14.7887 9.21057C14.9501 9.37203 15.1691 9.46275 15.3975 9.46275ZM8.60248 9.46275C8.83083 9.46275 9.04983 9.37203 9.2113 9.21057C9.37277 9.0491 9.46348 8.8301 9.46348 8.60175C9.46348 8.3734 9.37277 8.1544 9.2113 7.99293C9.04983 7.83146 8.83083 7.74075 8.60248 7.74075C8.37413 7.74075 8.15513 7.83146 7.99366 7.99293C7.83219 8.1544 7.74148 8.3734 7.74148 8.60175C7.74148 8.8301 7.83219 9.0491 7.99366 9.21057C8.15513 9.37203 8.37413 9.46275 8.60248 9.46275Z" fill="white"/>
</g>
<defs>
<clipPath id="clip0_5_16688">
<rect width="24" height="24" fill="white"/>
</clipPath>
</defs>
</svg>
