<svg width="24" height="24" viewBox="0 0 24 24" fill="none" xmlns="http://www.w3.org/2000/svg">
<g clip-path="url(#clip0_5_16682)">
<path d="M9.60724 21.6689C4.26558 20.345 1.00835 14.9417 2.33228 9.6C3.22095 6.0139 6.02115 3.2137 9.60724 2.32504V0.241814C3.11455 1.56212 -1.07729 7.89521 0.243012 14.3879C1.20301 19.1057 4.88946 22.7934 9.60724 23.7521V21.6689ZM11.2274 2.0663C11.4861 2.04574 11.7461 2.03244 12.0085 2.03244C12.4014 2.03244 12.7943 2.05542 13.1849 2.10136V0.0592443C12.7931 0.0205542 12.4014 0.00120907 12.0085 0C11.7425 0 11.4861 0.0120907 11.2274 0.0278086V2.0663Z" fill="#231F20"/>
<path d="M14.8038 0.331284V2.43023C17.7008 3.28141 20.0572 5.39486 21.2167 8.18297H18.934C16.8278 4.3599 12.0218 2.96705 8.19749 5.07325C4.3732 7.17945 2.98157 11.9855 5.08776 15.8098C7.19396 19.6341 12 21.0257 15.8243 18.9195C17.3985 18.0526 18.6293 16.6755 19.3161 15.0154H21.5081C20.4998 18.1759 17.9885 20.6303 14.805 21.5649V23.6627C21.2457 22.1114 25.2103 15.6332 23.6603 9.19254C22.606 4.81209 19.1855 1.39285 14.805 0.337329L14.8038 0.331284ZM13.8704 17.1337L11.5587 13.8511H7.71023V11.8344H12.2285C13.3324 11.8344 13.729 11.1428 13.729 10.3194C13.729 9.49602 13.2296 8.74398 12.11 8.74398H7.71144V6.86025H12.341C13.8076 6.86025 16.1386 7.50831 16.1386 10.2456C16.1386 12.983 14.0784 13.5283 14.0784 13.5283L16.7287 17.1349H13.8789L13.8704 17.1337Z" fill="#D31F26"/>
<path d="M13.1849 21.8926C12.7944 21.9385 12.4014 21.9615 12.0085 21.9615C11.7425 21.9615 11.4862 21.9482 11.2274 21.9277V23.9637C11.4862 23.9807 11.7461 23.9915 12.0085 23.9915C12.4087 23.9915 12.798 23.971 13.1849 23.9323V21.8926Z" fill="#231F20"/>
</g>
<defs>
<clipPath id="clip0_5_16682">
<rect width="24" height="24" fill="white"/>
</clipPath>
</defs>
</svg>
