<svg width="24" height="24" viewBox="0 0 24 24" fill="none" xmlns="http://www.w3.org/2000/svg">
<g clip-path="url(#clip0_5_16652)">
<path d="M9.96826 21.0286L8.44445 17.8794L5.72699 22.1587C5.96826 22.3111 6.20953 22.4508 6.4508 22.5778C6.75556 22.7429 7.08572 22.8952 7.40318 23.0222C8.44445 23.454 9.53651 23.7333 10.654 23.8603C10.8825 23.8857 11.1238 23.9111 11.3524 23.9238L9.96826 21.0286Z" fill="#7CC245"/>
<path d="M23.5048 8.8127C23.4286 8.54603 23.3397 8.27937 23.2508 8.0127L14.8572 15.4286L13.7016 16.4571L13.8032 17.3968L14.4381 23.6952C14.8572 23.6064 15.2635 23.5048 15.6699 23.3778C20.4699 21.8286 23.9492 17.3333 23.9492 12.0127C23.9365 10.8952 23.7841 9.82857 23.5048 8.8127Z" fill="#FCCB32"/>
<path d="M6.99683 18.3619L8.85079 22.2095L15.2762 16.5333L14.1079 4.99048L6.99683 18.3619Z" fill="#EE3F26"/>
<path d="M7.8095 17.9429L13.9428 6.4254L13.9809 6.85714L14.6412 5.6254L3.09839 9.24444L7.66982 18.7429L7.94918 18.2222L7.8095 17.9429Z" fill="#CF3627"/>
<path d="M9.40948 21.2571L10.6666 23.8603C11.1111 23.9111 11.5555 23.9365 12 23.9365C13.2698 23.9365 14.5015 23.7333 15.6571 23.3651L14.946 16.3683L9.40948 21.2571Z" fill="#F05048"/>
<path d="M14.946 16.3683L15.6572 23.3651C20.4572 21.8159 23.9365 17.3206 23.9365 12C23.9365 10.8952 23.7841 9.82857 23.5048 8.8127L14.946 16.3683Z" fill="#FCCB32"/>
<path d="M13.3079 0.139682C12.8762 0.0888886 12.4317 0.0634918 12 0.0634918C7.746 0.0634918 4.01267 2.29841 1.89203 5.65079C1.3587 6.50159 0.926954 7.42857 0.622192 8.38095L3.7968 9.6L13.9428 6.4127L15.0349 0.444444C14.4635 0.304762 13.892 0.203174 13.3079 0.139682Z" fill="#2591D4"/>
<path d="M21.0286 4.20317C19.873 2.85714 18.4254 1.79048 16.8 1.07936C16.2286 0.825397 15.6445 0.622222 15.0476 0.469841L13.9556 6.43809L14.9587 16.381L23.5175 8.8254C23.0349 7.11111 22.1841 5.53651 21.0286 4.20317Z" fill="#F47F22"/>
<path d="M7.80951 17.9429L3.79681 9.6L0.622207 8.38095C0.253953 9.54921 0.0634766 10.7683 0.0634766 12C0.0634766 16.2413 2.273 19.9619 5.61268 22.0825C5.89205 22.2603 6.17141 22.4254 6.46348 22.5778L8.49522 19.3651L7.80951 17.9429Z" fill="#4CAA4C"/>
<path d="M9.40953 21.2571L8.49525 19.3651L6.4635 22.5778C6.76826 22.7429 7.09842 22.8952 7.41588 23.0222C8.45715 23.454 9.54921 23.7333 10.6667 23.8603L9.40953 21.2571Z" fill="#7CC245"/>
<path d="M21.0286 4.20317C19.873 2.85714 18.4254 1.79048 16.8 1.07936L13.9429 6.4127L21.0286 4.20317ZM13.9429 6.4254L14.946 16.3683L23.5048 8.8127C23.0349 7.11111 22.1841 5.53651 21.0286 4.20317L13.9429 6.4254Z" fill="#F47F22"/>
<path d="M7.80951 17.9429L9.40951 21.2571L14.946 16.3683L13.9428 6.4254L7.80951 17.9429Z" fill="#EE3F26"/>
<path d="M13.9428 6.4254L13.3079 0.139682C12.8762 0.0888886 12.4317 0.0634918 12 0.0634918C7.746 0.0634918 4.01266 2.29841 1.89203 5.65079L3.79679 9.6L13.9428 6.4254Z" fill="#1E85CA"/>
<path d="M13.9428 6.4254L3.79681 9.6L7.80951 17.9429L13.9428 6.4254Z" fill="#CF3627"/>
<path d="M13.9428 6.4127L16.7873 1.06667C15.6825 0.584127 14.5016 0.266667 13.2952 0.139683L13.9428 6.4127Z" fill="#35A9E1"/>
<path d="M9.40948 21.2571L10.6666 23.8603C11.1111 23.9111 11.5555 23.9365 12 23.9365C13.2698 23.9365 14.5015 23.7333 15.6571 23.3651L14.946 16.3683L9.40948 21.2571Z" fill="#F05048"/>
<path d="M14.946 16.3683L15.6572 23.3651C20.4572 21.8159 23.9365 17.3206 23.9365 12C23.9365 10.8952 23.7841 9.82857 23.5048 8.8127L14.946 16.3683Z" fill="#FCCB32"/>
<path d="M7.41583 23.0222C8.4571 23.454 9.54917 23.7333 10.6666 23.8603L9.40948 21.2571L7.41583 23.0222Z" fill="#7CC245"/>
<path d="M1.89203 5.65079C0.926953 7.1873 0.317429 8.93968 0.126953 10.7556L3.79679 9.6L1.89203 5.65079Z" fill="#0161AD"/>
<path d="M3.79681 9.6L0.126969 10.7556C0.0888734 11.1619 0.0634766 11.581 0.0634766 12C0.0634766 16.2413 2.273 19.9619 5.61268 22.0825L7.80951 17.9429L3.79681 9.6Z" fill="#4CAA4C"/>
<path d="M7.8095 17.9429L5.61267 22.0825C6.1841 22.4508 6.78092 22.7556 7.41585 23.0222L9.4095 21.2571L7.8095 17.9429Z" fill="#51B34B"/>
<path d="M14.1968 2.69206L13.9174 3.53016C16.4063 4.87619 18.819 7.27619 20.1269 9.35873L20.9777 9.10476C19.5682 6.81905 16.9269 4.16508 14.1968 2.69206Z" fill="#444344"/>
<path d="M18.3365 0.749207C16.7365 0.749207 15.3397 1.6254 14.6032 2.92063C14.5016 3.08571 14.4254 3.26349 14.3492 3.45397C14.3365 3.50476 14.3111 3.54286 14.2984 3.59365C14.2857 3.63175 14.2603 3.68254 14.2476 3.72064C16.4825 5.02857 18.6159 7.12381 19.8984 9.04127C19.9238 9.02857 19.9365 9.02857 19.9619 9.01587C20.1016 8.95238 20.2413 8.88889 20.381 8.8127C20.4825 8.7619 20.5841 8.69841 20.6857 8.63492C21.8667 7.87302 22.6413 6.53968 22.6413 5.04127C22.6413 2.67936 20.7111 0.749207 18.3365 0.749207Z" fill="#EE3F26"/>
<path d="M14.2984 3.59365C14.2857 3.63175 14.2603 3.68254 14.2476 3.72063C16.4825 5.02857 18.6159 7.12381 19.8984 9.04127C19.9238 9.02857 19.9365 9.02857 19.9619 9.01587C20.1016 8.95238 20.2413 8.88889 20.381 8.8127C19.0222 6.92063 16.6984 4.8254 14.2984 3.59365Z" fill="#C03225"/>
</g>
<defs>
<clipPath id="clip0_5_16652">
<rect width="24" height="24" fill="white"/>
</clipPath>
</defs>
</svg>
