<svg width="24" height="24" viewBox="0 0 24 24" fill="none" xmlns="http://www.w3.org/2000/svg">
<g clip-path="url(#clip0_5_16648)">
<path d="M12 24C18.6274 24 24 18.6274 24 12C24 5.37258 18.6274 0 12 0C5.37258 0 0 5.37258 0 12C0 18.6274 5.37258 24 12 24Z" fill="#2A2A2A"/>
<path d="M7.5 4.5045H13.5832C13.6567 4.482 13.6942 4.5495 13.7422 4.587C14.3157 5.1286 14.83 5.72946 15.2767 6.3795C15.9115 7.28858 16.4098 8.28564 16.7557 9.339C17.1172 10.452 17.2882 11.6295 17.2432 12.7995H14.142C14.1572 12.644 14.1628 12.4877 14.1585 12.3315C14.1262 11.2283 13.7857 10.146 13.2495 9.1875C12.6757 8.16075 11.8748 7.275 10.9643 6.53925C9.97275 5.7375 8.85675 5.1045 7.69425 4.593C7.62975 4.563 7.56225 4.539 7.5 4.5045ZM9.7515 9.99975C10.792 11.8821 11.8307 13.7653 12.8677 15.6495C13.1175 16.104 13.3702 16.557 13.6177 17.0123C12.327 17.8388 11.04 18.6728 9.75 19.5V9.99975H9.7515Z" fill="white"/>
</g>
<defs>
<clipPath id="clip0_5_16648">
<rect width="24" height="24" fill="white"/>
</clipPath>
</defs>
</svg>
