<svg width="24" height="24" viewBox="0 0 24 24" fill="none" xmlns="http://www.w3.org/2000/svg">
<g clip-path="url(#clip0_5_16635)">
<path d="M12 24C18.6274 24 24 18.6274 24 12C24 5.37258 18.6274 0 12 0C5.37258 0 0 5.37258 0 12C0 18.6274 5.37258 24 12 24Z" fill="#5F2652"/>
<path d="M18.8232 15.108L12.5448 3.8472C12.4362 3.6461 12.2261 3.52075 11.9976 3.52075C11.7691 3.52075 11.559 3.6461 11.4504 3.8472L5.17441 15.108C5.01121 15.3984 5.10481 15.7752 5.39761 15.948L11.6832 19.7064C11.8856 19.8215 12.1336 19.8215 12.336 19.7064L18.612 15.9552C18.8904 15.7752 18.9936 15.3984 18.8232 15.108ZM14.0784 10.5696L13.9248 10.44L13.9152 10.4304C13.8663 10.3905 13.815 10.3536 13.7616 10.32L13.752 10.3104C13.7016 10.2768 13.6488 10.2408 13.5888 10.2072C13.5792 10.2072 13.5792 10.1976 13.572 10.1976C13.5216 10.164 13.4616 10.1376 13.4088 10.1112C13.3992 10.1112 13.3992 10.1016 13.392 10.1016C13.3416 10.0752 13.2816 10.0512 13.2216 10.0248C13.212 10.0248 13.212 10.0152 13.2048 10.0152C13.1544 9.9984 13.1016 9.972 13.0512 9.9552C12.9124 9.90321 12.7695 9.86307 12.624 9.8352C12.5136 10.0488 12.3576 10.2384 12.1872 10.3992C12.4536 10.416 12.7104 10.4856 12.9408 10.5792C13.0771 10.6379 13.2087 10.7069 13.3344 10.7856C13.3411 10.7863 13.3472 10.7898 13.3512 10.7952C13.3848 10.812 13.4112 10.8384 13.4448 10.8648C13.4609 10.8737 13.4754 10.885 13.488 10.8984C13.5191 10.9186 13.548 10.9419 13.5744 10.968C13.5912 10.9848 13.608 10.9944 13.6248 11.0112C13.6512 11.0376 13.6752 11.0544 13.7016 11.0808L13.752 11.1312L13.8216 11.2008L13.872 11.2512C13.8902 11.2759 13.9103 11.2992 13.932 11.3208C13.9488 11.34 13.9656 11.364 13.9824 11.3808L14.0328 11.4576C14.0496 11.484 14.0664 11.5008 14.076 11.5272L14.1264 11.604C14.1432 11.6304 14.1528 11.6544 14.1696 11.6736C14.1864 11.7 14.196 11.724 14.2128 11.7504C14.2296 11.7768 14.2392 11.8008 14.256 11.8272C14.2656 11.8536 14.2824 11.8776 14.2896 11.904C14.3064 11.9376 14.316 11.9736 14.3328 11.9976C14.4049 12.173 14.4541 12.3569 14.4792 12.5448L14.556 12.8448C14.5896 12.9744 14.8992 14.0688 15.6168 14.4384C16.44 14.8656 17.5272 15.3984 17.9544 15.6024L12.3144 18.9768V16.6656C12.3144 16.2984 13.0416 15.8688 13.3752 15.7248L13.392 15.7152C13.4616 15.6816 13.5288 15.6456 13.5984 15.6048L13.6248 15.588C13.7709 15.5014 13.9084 15.4009 14.0352 15.288C14.0448 15.2784 14.0616 15.2712 14.0688 15.2544C14.0856 15.2448 14.0952 15.228 14.112 15.2208C14.1552 15.1872 14.1888 15.144 14.232 15.1104L14.2488 15.0936C14.2932 15.0521 14.3334 15.0062 14.3688 14.9568C14.3784 14.94 14.3952 14.9304 14.4024 14.9136C14.436 14.88 14.4624 14.8368 14.496 14.7936C14.5056 14.784 14.5128 14.7672 14.5224 14.76L14.6256 14.6064C14.6256 14.5968 14.6352 14.5968 14.6352 14.5896C14.6784 14.52 14.7216 14.4432 14.7648 14.376C14.5944 14.1696 14.4648 13.9488 14.3616 13.7424C14.3179 13.8693 14.2633 13.9921 14.1984 14.1096C14.172 14.16 14.1384 14.2128 14.112 14.2632C14.1024 14.2728 14.1024 14.28 14.0952 14.28C14.0687 14.3216 14.0399 14.3617 14.0088 14.4C13.9992 14.4096 13.992 14.4264 13.9824 14.4336C13.9558 14.474 13.9244 14.5111 13.8888 14.544C13.8792 14.5536 13.8792 14.5608 13.872 14.5608C13.6656 14.7912 13.4184 14.988 13.1352 15.1248L13.0848 15.1512C12.9384 15.2112 11.6808 15.7848 11.6808 16.6488V18.96L6.02881 15.5952C6.39601 15.372 7.45921 14.7384 8.33281 14.4648C8.67601 14.3544 9.40321 14.8152 9.81361 15.1488L9.84001 15.1752C9.8929 15.2284 9.94988 15.2773 10.0104 15.3216L10.0272 15.3384C10.1568 15.4416 10.2936 15.5448 10.4472 15.6216L10.5504 15.672C10.5571 15.6727 10.5632 15.6762 10.5672 15.6816C10.6608 15.732 10.7544 15.7752 10.8576 15.8184C10.8716 15.825 10.886 15.8307 10.9008 15.8352C10.9104 15.8352 10.9176 15.8448 10.9344 15.8448C11.0808 15.8952 11.2248 15.9384 11.3712 15.9744C11.4816 15.7608 11.6448 15.5712 11.8176 15.4104C11.5769 15.3941 11.34 15.3423 11.1144 15.2568C11.1048 15.2472 11.088 15.2472 11.0808 15.24C11.054 15.2319 11.0282 15.2206 11.004 15.2064C10.9944 15.1968 10.9776 15.1968 10.9704 15.1896C10.944 15.18 10.92 15.1632 10.9008 15.156C10.7304 15.0696 10.5744 14.976 10.4304 14.856L10.2072 14.6496C10.0009 14.4683 9.77748 14.3075 9.54001 14.1696C8.98321 13.8528 8.51281 13.7496 8.15281 13.8624C7.40881 14.1024 6.55921 14.556 6.04561 14.856L11.688 4.7184V9.1632C11.688 9.3168 11.4576 9.7272 10.6776 10.08L10.6272 10.1064C10.5504 10.14 10.4808 10.1832 10.404 10.2264L10.3872 10.236C10.2396 10.3248 10.0991 10.4251 9.96721 10.536C9.8841 10.6036 9.80701 10.6783 9.73681 10.7592L9.72721 10.7688C9.65134 10.8424 9.58226 10.9228 9.52081 11.0088L9.51121 11.0184C9.47761 11.0616 9.45121 11.1048 9.41761 11.148C9.41761 11.1576 9.40801 11.1576 9.40801 11.1648C9.38161 11.208 9.35761 11.2416 9.33121 11.2848C9.33121 11.2944 9.32161 11.2944 9.32161 11.3016L9.24481 11.4312C9.23521 11.4408 9.23521 11.448 9.22801 11.4648C9.20161 11.508 9.18481 11.5512 9.16801 11.5848C9.16731 11.5915 9.16382 11.5976 9.15841 11.6016C9.14161 11.6448 9.12481 11.6784 9.10801 11.7216C9.10137 11.7356 9.09576 11.75 9.09121 11.7648L9.04081 11.8944C9.03417 11.9084 9.02856 11.9228 9.02401 11.9376C9.01603 11.9699 9.00477 12.0012 8.99041 12.0312C8.98081 12.048 8.98081 12.0648 8.97361 12.0816C8.96401 12.1248 8.94721 12.168 8.94001 12.2016C8.93041 12.2184 8.93041 12.2448 8.92321 12.2616C8.91361 12.288 8.91361 12.3216 8.90641 12.348C8.89681 12.3744 8.89681 12.3984 8.88961 12.4248C8.88001 12.4584 8.88001 12.4944 8.87281 12.528C8.87281 12.5544 8.86321 12.5712 8.86321 12.5976C8.86321 12.6312 8.85361 12.6576 8.85361 12.6912C8.85518 12.7227 8.85194 12.7543 8.84401 12.7848V12.9144C8.84299 13.0694 8.85423 13.2243 8.87761 13.3776C9.10081 13.428 9.33121 13.524 9.58081 13.644C9.51121 13.4208 9.47761 13.1904 9.47041 12.9504V12.9072C9.46882 12.8502 9.47203 12.7932 9.48001 12.7368V12.6936C9.48001 12.6432 9.48961 12.6 9.49681 12.5472V12.5304C9.50641 12.48 9.51361 12.4272 9.52321 12.3672C9.52321 12.3504 9.53281 12.3408 9.53281 12.324C9.54241 12.2808 9.55921 12.2376 9.56641 12.1944C9.56641 12.1848 9.57601 12.1776 9.57601 12.168L9.62641 12.0144C9.63601 12.0048 9.63601 11.988 9.64321 11.9808C9.66001 11.9376 9.67681 11.8944 9.69361 11.8608C9.70321 11.8512 9.70321 11.844 9.71041 11.8272C9.73681 11.7768 9.75361 11.7336 9.78721 11.6904C9.79365 11.6822 9.79927 11.6733 9.80401 11.664C9.83041 11.6208 9.84721 11.5872 9.87361 11.544C9.88005 11.5358 9.88567 11.5269 9.89041 11.5176C9.91922 11.4727 9.95046 11.4295 9.98401 11.388C9.98394 11.3854 9.98493 11.383 9.98674 11.3811C9.98856 11.3793 9.99104 11.3783 9.99361 11.3784C10.0272 11.3352 10.0536 11.3016 10.0872 11.2584C10.0936 11.2502 10.0993 11.2413 10.104 11.232C10.2585 11.0613 10.4344 10.9113 10.6272 10.7856L10.8936 10.656C11.04 10.596 12.2904 10.0056 12.2904 9.1392V4.7112L17.9856 14.9352C17.4792 14.688 16.5816 14.2416 15.888 13.8816C15.4848 13.6752 15.2208 12.948 15.144 12.6816L15.0672 12.3744C15.0672 12.2112 15.024 12.048 14.9736 11.8872C14.7928 11.3787 14.4846 10.925 14.0784 10.5696Z" fill="white"/>
</g>
<defs>
<clipPath id="clip0_5_16635">
<rect width="24" height="24" fill="white"/>
</clipPath>
</defs>
</svg>
