<svg width="24" height="24" viewBox="0 0 24 24" fill="none" xmlns="http://www.w3.org/2000/svg">
<g clip-path="url(#clip0_5_16508)">
<path d="M12 24C18.6274 24 24 18.6274 24 12C24 5.37258 18.6274 0 12 0C5.37258 0 0 5.37258 0 12C0 18.6274 5.37258 24 12 24Z" fill="#FEC60D"/>
<path d="M20.0002 7.61026L17.4217 6.12601C17.3332 6.07351 17.2515 6.02776 17.1637 5.9775C17.0782 5.92876 16.995 5.87626 16.908 5.82601C16.3912 5.53051 15.873 5.24401 15.3622 4.93801L12.9127 3.52351C12.7702 3.43726 12.0337 3.00451 12.0022 3.00451C11.9895 3.00451 11.8965 3.06451 11.8762 3.07726L8.52974 5.00476C8.48099 5.03251 8.44724 5.05426 8.39774 5.08126C8.3552 5.10482 8.31319 5.12933 8.27174 5.15476L8.01524 5.30476C7.97159 5.33111 7.92759 5.35686 7.88324 5.38201L7.63124 5.5275C7.54274 5.58 7.45949 5.62501 7.37249 5.67526L6.85424 5.97151C6.80924 5.99476 6.77174 6.01951 6.72824 6.04426L6.08024 6.41926C5.99024 6.47176 5.90699 6.51525 5.81924 6.56551L5.30699 6.86775C5.04974 7.01475 4.79174 7.17151 4.53074 7.31326C4.41599 7.37476 3.81374 7.74226 3.75449 7.75801V17.2935C3.80249 17.298 4.46099 17.6903 4.52924 17.7308L5.56124 18.3278C5.64749 18.3803 5.73374 18.4275 5.81924 18.477L6.32924 18.771C6.37274 18.7935 6.41174 18.819 6.45674 18.8438C6.50624 18.8708 6.53849 18.894 6.58874 18.9188C6.71999 18.9863 6.84599 19.0665 6.97124 19.1423L7.62074 19.5165C7.66574 19.5413 7.70174 19.563 7.74599 19.5893C7.99949 19.7423 8.26274 19.8795 8.51549 20.0318L9.42074 20.5568C10.0185 20.91 10.6282 21.2393 11.223 21.5963L11.9302 22.0058C12.0427 22.0815 12.084 21.996 12.261 21.8993L13.8105 21.0053C13.896 20.9558 13.9792 20.9078 14.0692 20.8575L14.322 20.7128C14.3647 20.6895 14.4045 20.6648 14.4472 20.6385L15.8685 19.8158C16.293 19.5615 16.731 19.3313 17.1555 19.0763L19.9852 17.4368C20.0265 17.412 20.0677 17.3873 20.1112 17.3633C20.1562 17.3393 20.199 17.3055 20.25 17.2943V7.75801C20.1697 7.70401 20.0865 7.66276 20.0002 7.61026ZM14.9077 16.9433H12.4965V17.5748C12.4965 17.5823 12.4935 17.5845 12.486 17.5845H11.3235V16.9433H9.09674V15.1583C9.09674 15.1395 9.11924 15.1238 9.13049 15.1133L9.35624 14.8695C9.36289 14.8634 9.36916 14.8569 9.37499 14.85C9.38019 14.8428 9.38596 14.836 9.39224 14.8298L9.52349 14.6903L9.52499 14.688L9.56399 14.6483L9.58124 14.6273L9.62324 14.583L9.62774 14.5778L9.76799 14.4263C9.79799 14.3955 9.82799 14.3663 9.85649 14.3325L9.85799 14.331L9.86248 14.325L9.95699 14.2245C9.97049 14.2095 9.98099 14.2013 9.99374 14.1848L10.1077 14.0633L10.1265 14.0445C10.1327 14.0379 10.1384 14.0309 10.1437 14.0235L10.335 13.8195L10.3365 13.818L10.341 13.8128L10.3702 13.7828C10.4077 13.7348 10.4752 13.6748 10.515 13.6268L10.5195 13.6208C10.5322 13.6058 10.5465 13.5953 10.5585 13.581L10.6327 13.5008C10.6852 13.4483 10.7302 13.3913 10.7827 13.3388L10.9515 13.1573L10.9702 13.1385L11.0437 13.0575C11.058 13.0433 11.0715 13.0328 11.0827 13.0178C11.094 13.0028 11.1082 12.9923 11.121 12.9773L11.1952 12.897C11.2027 12.8895 11.2087 12.8843 11.2155 12.876L11.2717 12.8153C11.283 12.8003 11.2972 12.7898 11.31 12.7748C11.343 12.738 11.4375 12.6413 11.4577 12.6143C11.4697 12.5993 11.484 12.5903 11.4945 12.5753C11.4648 12.5389 11.433 12.5043 11.3992 12.4718L11.3257 12.3908L11.3062 12.372C11.2987 12.363 11.2965 12.3585 11.2875 12.3495C11.2297 12.291 11.1765 12.2288 11.118 12.1695L11.0242 12.0683C11.0188 12.061 11.0128 12.0543 11.0062 12.048L10.1437 11.1225C10.138 11.1146 10.1317 11.1071 10.125 11.1L9.99749 10.9628L9.99599 10.9613L9.71324 10.6568C9.70724 10.6493 9.70124 10.6448 9.69449 10.638L9.61949 10.5555C9.56849 10.503 9.51974 10.446 9.46799 10.3943L9.45149 10.3763L9.44999 10.3748L9.39449 10.314C9.36899 10.2863 9.34199 10.2608 9.31724 10.233C9.30899 10.224 9.30749 10.2195 9.29849 10.2105C9.24749 10.1588 9.20099 10.1025 9.14849 10.0515C9.14249 10.044 9.13649 10.0395 9.13049 10.0328C9.12374 10.0253 9.09674 9.99901 9.09674 9.99076V8.19901H11.3227V7.455C11.7142 7.455 12.1012 7.4625 12.4927 7.4625V8.175C12.4927 8.18325 12.495 8.18625 12.5032 8.18625H14.9077V9.9945H11.5905C11.61 10.0245 11.64 10.0493 11.6632 10.0763L11.8477 10.2788C11.859 10.2938 11.871 10.3043 11.8837 10.3193C11.9152 10.3568 11.9505 10.389 11.9812 10.4265L12.2497 10.7213C12.3022 10.7723 12.3472 10.83 12.3975 10.8825L13.0822 11.6348L13.0867 11.6408L13.332 11.9108L13.3507 11.9288C13.3837 11.9618 13.4107 11.9993 13.4437 12.0323L13.8847 12.5145C13.9027 12.534 13.9222 12.552 13.9372 12.5745C13.9305 12.585 13.9252 12.588 13.917 12.597C13.9117 12.6041 13.9059 12.6109 13.8997 12.6173L13.8075 12.717C13.8022 12.7241 13.7964 12.7309 13.7902 12.7373L13.569 12.9795C13.554 12.9938 13.5465 13.0058 13.5315 13.02C13.5015 13.05 13.4565 13.1063 13.4212 13.14L13.2667 13.3118C13.236 13.3485 13.1535 13.4303 13.1287 13.4618L12.909 13.7018C12.8617 13.7595 12.8085 13.809 12.7605 13.866L12.6705 13.9635C12.6255 14.0093 12.5865 14.058 12.543 14.1045C12.5355 14.112 12.5295 14.1173 12.5227 14.1255C12.4717 14.1833 12.4162 14.238 12.366 14.298L12.3585 14.307L12.1657 14.5163L12.1612 14.5215L12.1545 14.529L12.153 14.5313L12.0645 14.6288C12.0582 14.6348 12.0525 14.6413 12.0472 14.6483C12.0414 14.6552 12.0352 14.6617 12.0285 14.6678C11.9902 14.7053 11.9572 14.7503 11.919 14.7878C11.9128 14.7941 11.907 14.8009 11.9017 14.808L11.8282 14.889C11.8222 14.8965 11.8162 14.901 11.8095 14.9078L11.5905 15.1493H14.8155C14.8462 15.1493 14.9077 15.1418 14.9077 15.159V16.944V16.9433Z" fill="white"/>
</g>
<defs>
<clipPath id="clip0_5_16508">
<rect width="24" height="24" fill="white"/>
</clipPath>
</defs>
</svg>
