<svg width="24" height="24" viewBox="0 0 24 24" fill="none" xmlns="http://www.w3.org/2000/svg">
<g clip-path="url(#clip0_5_14189)">
<path d="M12 24C18.6274 24 24 18.6274 24 12C24 5.37258 18.6274 0 12 0C5.37258 0 0 5.37258 0 12C0 18.6274 5.37258 24 12 24Z" fill="#199248"/>
<path d="M12 3C7.02975 3 3 7.02975 3 12C3 16.9703 7.02975 21 12 21C16.9703 21 21 16.9703 21 12C21 9.61305 20.0518 7.32387 18.364 5.63604C16.6761 3.94821 14.3869 3 12 3ZM14.0573 19.677C13.0219 19.9529 11.9414 20.0166 10.8808 19.8642C9.82025 19.7118 8.80142 19.3465 7.88562 18.7903C6.96981 18.2341 6.17594 17.4984 5.55174 16.6276C4.92754 15.7567 4.4859 14.7685 4.25337 13.7226C4.02084 12.6766 4.00223 11.5945 4.19865 10.5411C4.39507 9.48782 4.80247 8.48509 5.39635 7.59325C5.99024 6.7014 6.75834 5.93887 7.65447 5.35149C8.55061 4.7641 9.55627 4.36401 10.611 4.17525C12.6273 3.81899 14.7033 4.25464 16.4063 5.39138C18.1093 6.52813 19.3078 8.27826 19.7522 10.277C20.1965 12.2757 19.8524 14.3688 18.7914 16.12C17.7304 17.8712 16.0346 19.1454 14.0573 19.677Z" fill="white"/>
<path d="M14.1975 5.46525C14.1975 5.853 14.1975 6.24 14.2125 6.62775C13.6938 6.42647 13.1538 6.28505 12.603 6.20624C12.5805 5.85449 12.681 5.46825 12.5783 5.1345C12.1859 5.10652 11.7922 5.10177 11.3993 5.12025C11.3798 5.48175 11.3873 5.84475 11.3993 6.20775C10.8483 6.29018 10.3083 6.4346 9.78976 6.63824C9.80101 6.24674 9.80476 5.85599 9.79951 5.46374C8.43044 5.92473 7.24057 6.8038 6.39768 7.97701C5.55479 9.15022 5.10138 10.5584 5.10138 12.003C5.10138 13.4476 5.55479 14.8558 6.39768 16.029C7.24057 17.2022 8.43044 18.0813 9.79951 18.5422C9.79951 18.1582 9.79576 17.7757 9.78826 17.3932C10.3029 17.5947 10.8401 17.7329 11.388 17.805C11.388 18.1567 11.388 18.5085 11.367 18.8565C11.787 18.9165 12.213 18.9165 12.633 18.8565C12.6139 18.5101 12.6039 18.1632 12.603 17.8162C13.1513 17.7392 13.6895 17.6024 14.208 17.4082C14.1961 17.7882 14.1961 18.1683 14.208 18.5482C15.5765 18.0862 16.7656 17.2064 17.6075 16.0327C18.4494 14.8591 18.9018 13.4508 18.9009 12.0064C18.9 10.562 18.4458 9.1543 17.6024 7.98171C16.759 6.80913 15.5689 5.93079 14.1998 5.4705L14.1983 5.46525H14.1975ZM15.225 15.9165C14.319 16.7377 13.032 16.932 11.85 16.9147C10.8128 16.9147 9.71476 16.6335 8.96551 15.8827C8.56801 15.4987 8.34301 14.9857 8.14126 14.4765C8.86576 14.289 9.61351 14.226 10.3433 14.07C10.3886 14.2906 10.4914 14.4954 10.6413 14.6636C10.7912 14.8317 10.9828 14.9574 11.1968 15.0277C11.859 15.2347 12.6795 15.264 13.2315 14.7915C13.623 14.4667 13.6343 13.7565 13.149 13.5135C12.0113 12.9255 10.5938 13.125 9.51826 12.381C8.03701 11.4472 7.92751 8.97074 9.37726 7.96274C10.4858 7.18499 11.9678 7.08824 13.2533 7.40024C14.4158 7.69424 15.2445 8.67974 15.6435 9.771C14.928 9.89474 14.2133 10.0215 13.4978 10.1422C13.3095 9.006 11.7188 8.736 10.9283 9.39825C10.4783 9.7725 10.5938 10.5697 11.1563 10.7692C12.3863 11.2792 13.8638 11.1322 14.9535 11.9857C16.2188 12.8437 16.3508 14.8927 15.2243 15.9157L15.225 15.9165Z" fill="white"/>
</g>
<defs>
<clipPath id="clip0_5_14189">
<rect width="24" height="24" fill="white"/>
</clipPath>
</defs>
</svg>
