<svg width="24" height="24" viewBox="0 0 24 24" fill="none" xmlns="http://www.w3.org/2000/svg">
<g clip-path="url(#clip0_5_14037)">
<mask id="mask0_5_14037" style="mask-type:alpha" maskUnits="userSpaceOnUse" x="0" y="0" width="24" height="24">
<path d="M12 23.2485C5.7976 23.2485 0.751495 18.2024 0.751495 12C0.751495 5.7976 5.7976 0.751492 12 0.751492C18.2024 0.751492 23.2485 5.7976 23.2485 12C23.2485 18.2024 18.2024 23.2485 12 23.2485Z" fill="white"/>
</mask>
<g mask="url(#mask0_5_14037)">
<path d="M12 23.2485C5.7976 23.2485 0.751495 18.2024 0.751495 12C0.751495 5.7976 5.7976 0.751492 12 0.751492C18.2024 0.751492 23.2485 5.7976 23.2485 12C23.2485 18.2024 18.2024 23.2485 12 23.2485Z" fill="#0F100F"/>
<path fill-rule="evenodd" clip-rule="evenodd" d="M13.7818 0.751492V1.53047L15.0788 1.05775L13.7818 0.751492Z" fill="#C4CACA"/>
<path fill-rule="evenodd" clip-rule="evenodd" d="M14.5212 1.60735H13.7818L14.8879 1.12735L14.5212 1.60735Z" fill="#ACB6BA"/>
<path fill-rule="evenodd" clip-rule="evenodd" d="M15.9217 1.46287L14.5212 1.53775L14.8879 1.12842L15.0788 1.05775L15.9217 1.46287Z" fill="#B7BFC3"/>
<path fill-rule="evenodd" clip-rule="evenodd" d="M12.8122 0.633453L12.7636 1.14102L13.7818 1.53047V0.75149L12.8122 0.633453Z" fill="#B7BDBF"/>
<path fill-rule="evenodd" clip-rule="evenodd" d="M11.5636 0.633453L11.3576 1.05774L12.7636 1.14102L12.8121 0.633453H11.5636Z" fill="#BCC2C4"/>
<path fill-rule="evenodd" clip-rule="evenodd" d="M9.50305 0.936508L10.994 1.21527L11.3576 1.05774L11.5636 0.633453L9.50305 0.936508Z" fill="#B5BEC3"/>
<path fill-rule="evenodd" clip-rule="evenodd" d="M8.10895 1.44531C8.11295 1.44393 8.47273 2.07593 8.47273 2.07593L9.63636 1.12734L9.50306 0.936508L8.10895 1.44531Z" fill="#A8AFB1"/>
<path fill-rule="evenodd" clip-rule="evenodd" d="M9.99999 1.66378L8.47272 2.07593L9.63635 1.12735L9.99999 1.66378Z" fill="#9BA2A4"/>
<path fill-rule="evenodd" clip-rule="evenodd" d="M10.994 1.21527L11.406 1.29411L10 1.66378L9.63636 1.12734L9.50305 0.936508L10.994 1.21527Z" fill="#B8BEBF"/>
<path fill-rule="evenodd" clip-rule="evenodd" d="M13.7818 1.60735H12.8121L12.5327 1.12735L12.7636 1.14363L13.7818 1.60735Z" fill="#BEC3C4"/>
<path fill-rule="evenodd" clip-rule="evenodd" d="M10.994 1.2177L11.3576 1.05775L12.5326 1.12842L12.8121 1.53775L11.406 1.29775L10.994 1.2177Z" fill="#B5BABA"/>
<path fill-rule="evenodd" clip-rule="evenodd" d="M10 1.66378L11.1151 2.56073L11.406 1.29411L10 1.66378Z" fill="#979C9B"/>
<path fill-rule="evenodd" clip-rule="evenodd" d="M8.47272 2.07593L9.12726 3.16683L9.99999 1.66378L8.47272 2.07593Z" fill="#444545"/>
<path fill-rule="evenodd" clip-rule="evenodd" d="M11.1151 2.56073L10 2.79105V1.66378L11.1151 2.56073Z" fill="#818685"/>
<path fill-rule="evenodd" clip-rule="evenodd" d="M11.4061 1.29411L11.9031 1.66378L11.1151 2.56073L11.4061 1.29411Z" fill="#808686"/>
<path fill-rule="evenodd" clip-rule="evenodd" d="M12.8121 1.60101L11.9031 1.77411L11.406 1.29411L12.8121 1.60101Z" fill="#BBC1C4"/>
<path fill-rule="evenodd" clip-rule="evenodd" d="M10 2.7946L10.4545 3.04073L12.1091 2.85611L11.1151 2.56073L10 2.7946Z" fill="#A3AAAD"/>
<path fill-rule="evenodd" clip-rule="evenodd" d="M12.8121 1.53047L12.6667 2.01047L11.903 1.73353L12.8121 1.53047Z" fill="#B1B9BD"/>
<path fill-rule="evenodd" clip-rule="evenodd" d="M11.1151 2.56073L11.9031 1.66378L12.6667 1.8456L12.1091 2.85163L11.1151 2.56073Z" fill="#7F8485"/>
<path fill-rule="evenodd" clip-rule="evenodd" d="M10.4546 3.03345L9.16365 3.8456L9.12729 3.16684L10 2.79105L10.4546 3.03345Z" fill="#868D8D"/>
<path fill-rule="evenodd" clip-rule="evenodd" d="M8.47272 2.07593L9.12727 3.16684L8.15759 2.96073L8.47272 2.07593Z" fill="#919493"/>
<path fill-rule="evenodd" clip-rule="evenodd" d="M9.16364 3.8456L8.25455 3.93047L9.12727 3.16684L9.16364 3.8456Z" fill="#909697"/>
<path fill-rule="evenodd" clip-rule="evenodd" d="M8.15759 2.96073L8.25454 3.93047L9.12727 3.16684L8.15759 2.96073Z" fill="#989C9C"/>
<path fill-rule="evenodd" clip-rule="evenodd" d="M10.4546 3.03346L10.8485 3.93048L12.1091 2.85164L10.4546 3.03346Z" fill="#535554"/>
<path fill-rule="evenodd" clip-rule="evenodd" d="M9.16364 3.8456L9.63636 4.25775L10.4545 3.03345L9.16364 3.8456Z" fill="#4C4F4F"/>
<path fill-rule="evenodd" clip-rule="evenodd" d="M10.8485 3.93047L9.63635 4.25775L10.4545 3.03345L10.8485 3.93047Z" fill="#2F3130"/>
<path fill-rule="evenodd" clip-rule="evenodd" d="M12.8121 1.53047L13.7818 2.66982L13.5394 3.08196L12.6667 1.8456L12.8121 1.53047Z" fill="#888E90"/>
<path fill-rule="evenodd" clip-rule="evenodd" d="M14.5212 1.53047L15.0788 2.73047L13.7818 2.66982L12.8121 1.53047H14.5212Z" fill="#656767"/>
<path fill-rule="evenodd" clip-rule="evenodd" d="M15.6364 1.47171L15.0788 2.73047L14.5212 1.53047L15.6364 1.47171Z" fill="#787D7D"/>
<path fill-rule="evenodd" clip-rule="evenodd" d="M16.6909 2.10109L16.2303 1.32887L15.6364 1.47171L16.6909 2.10109Z" fill="#838C90"/>
<path fill-rule="evenodd" clip-rule="evenodd" d="M15.0788 2.73047L16.1213 3.6456L16.2304 2.79105L15.0788 2.73047Z" fill="#ABAEAF"/>
<path fill-rule="evenodd" clip-rule="evenodd" d="M15.6365 1.47171L16.6909 2.10109L16.2304 2.79106L15.0788 2.73047L15.6365 1.47171Z" fill="#B4BAB9"/>
<path fill-rule="evenodd" clip-rule="evenodd" d="M12.6667 1.8456L13.5394 3.08196L12.1091 2.85164L12.6667 1.8456Z" fill="#717473"/>
<path fill-rule="evenodd" clip-rule="evenodd" d="M15.0788 2.73047L14.8879 3.188L13.5394 3.08196L13.7818 2.66982L15.0788 2.73047Z" fill="#A8AEB0"/>
<path fill-rule="evenodd" clip-rule="evenodd" d="M16.1213 3.6456L14.8879 3.188L15.0788 2.73047L16.1213 3.6456Z" fill="#9EA4A7"/>
<path fill-rule="evenodd" clip-rule="evenodd" d="M16.2303 2.79105L17.3091 3.188L16.1212 3.6456L16.2303 2.79105Z" fill="#848A8B"/>
<path fill-rule="evenodd" clip-rule="evenodd" d="M16.6909 2.10109L16.2303 2.79106L17.3091 3.188L16.6909 2.10109Z" fill="#83898A"/>
<path fill-rule="evenodd" clip-rule="evenodd" d="M8.15759 2.96073L7.30908 3.03345L8.47272 2.07593L8.15759 2.96073Z" fill="#969C9D"/>
<path fill-rule="evenodd" clip-rule="evenodd" d="M8.10894 1.44531L8.47272 2.07593L7.30909 3.03345L7.23636 1.66378L8.10894 1.44531Z" fill="#858C8E"/>
<path fill-rule="evenodd" clip-rule="evenodd" d="M8.15759 2.96073L8.25454 3.93047L7.56363 4.36684L7.30908 3.03345L8.15759 2.96073Z" fill="#3A3D3C"/>
<path fill-rule="evenodd" clip-rule="evenodd" d="M9.16364 3.8456L9.63637 4.25775L10.7031 5.08196L9.16364 5.6032L8.10895 4.72436L8.25455 3.93047L9.16364 3.8456Z" fill="#858A8A"/>
<path fill-rule="evenodd" clip-rule="evenodd" d="M10.8485 3.93047L10.703 5.08196L9.63635 4.25775L10.8485 3.93047Z" fill="#676A69"/>
<path fill-rule="evenodd" clip-rule="evenodd" d="M12.1091 2.85164L12.4364 3.79709L10.8485 3.93048L12.1091 2.85164Z" fill="#727574"/>
<path fill-rule="evenodd" clip-rule="evenodd" d="M13.5394 3.08197L12.4364 3.79709L12.1091 2.85164L13.5394 3.08197Z" fill="#808483"/>
<path fill-rule="evenodd" clip-rule="evenodd" d="M14.8879 3.188L14.5212 4.02742L13.5394 3.08197L14.8879 3.188Z" fill="#656867"/>
<path fill-rule="evenodd" clip-rule="evenodd" d="M16.1213 3.6456L15.9879 4.36684L14.8879 3.188L16.1213 3.6456Z" fill="#8B9191"/>
<path fill-rule="evenodd" clip-rule="evenodd" d="M16.2303 1.32887L17.0424 1.78502L16.6909 2.10109L16.2303 1.32887Z" fill="#AFB4B5"/>
<path fill-rule="evenodd" clip-rule="evenodd" d="M18.194 2.41527L17.8182 2.85164L16.6909 2.10109L17.0424 1.78502L18.194 2.41527Z" fill="#A2A8AB"/>
<path fill-rule="evenodd" clip-rule="evenodd" d="M17.3091 3.188L17.8182 2.85164L16.6909 2.10109L17.3091 3.188Z" fill="#7A7F81"/>
<path fill-rule="evenodd" clip-rule="evenodd" d="M7.23637 1.66378L7.28983 2.66982L6.3515 2.73047L7.23637 1.66378Z" fill="#91979A"/>
<path fill-rule="evenodd" clip-rule="evenodd" d="M7.3091 3.03346L6.25456 3.72436L5.76968 3.4456L6.3515 2.73047L7.28983 2.66982L7.3091 3.03346Z" fill="#AFB6BA"/>
<path fill-rule="evenodd" clip-rule="evenodd" d="M7.56364 4.36684C7.47877 4.4032 6.88487 4.79105 6.88487 4.79105L6.25455 3.72436L7.30909 3.03345L7.56364 4.36684Z" fill="#171818"/>
<path fill-rule="evenodd" clip-rule="evenodd" d="M8.10894 4.72436L7.56363 4.36684L8.25454 3.93047L8.10894 4.72436Z" fill="#545859"/>
<path fill-rule="evenodd" clip-rule="evenodd" d="M8.58772 5.12335L7.11514 5.8456L8.10896 4.72437L8.58772 5.12335Z" fill="#151615"/>
<path fill-rule="evenodd" clip-rule="evenodd" d="M7.56365 4.36684L8.10896 4.72436L7.11514 5.8456L6.88489 4.79105L7.56365 4.36684Z" fill="#353838"/>
<path fill-rule="evenodd" clip-rule="evenodd" d="M12 4.25775L10.7031 5.08196L10.8485 3.93047L12 4.25775Z" fill="#676A69"/>
<path fill-rule="evenodd" clip-rule="evenodd" d="M12.4364 3.79709L13.6121 4.6456L12 4.25775L10.8485 3.93047L12.4364 3.79709Z" fill="#979D9F"/>
<path fill-rule="evenodd" clip-rule="evenodd" d="M13.5394 3.08197L13.6122 4.6456L12.4364 3.79709L13.5394 3.08197Z" fill="#696C6A"/>
<path fill-rule="evenodd" clip-rule="evenodd" d="M15.9879 4.36684L14.5212 4.02742L14.8879 3.188L15.9879 4.36684Z" fill="#5B5D5C"/>
<path fill-rule="evenodd" clip-rule="evenodd" d="M13.5394 3.08197L13.6122 4.6456L14.9697 5.08197L14.5212 4.02742L13.5394 3.08197Z" fill="#565958"/>
<path fill-rule="evenodd" clip-rule="evenodd" d="M17.8182 2.85164L17.3091 3.188L18.4121 3.4456L19.6364 4.02742L19.4545 3.43957L18.194 2.41528L17.8182 2.85164Z" fill="#7E8588"/>
<path fill-rule="evenodd" clip-rule="evenodd" d="M16.1212 3.6456C16.206 3.70015 17.7091 4.22138 17.7091 4.22138L17.3091 3.188L16.1212 3.6456Z" fill="#808687"/>
<path fill-rule="evenodd" clip-rule="evenodd" d="M15.9879 4.36684L17.3091 4.85164L17.7091 4.22138L16.1212 3.6456L15.9879 4.36684Z" fill="#767C7D"/>
<path fill-rule="evenodd" clip-rule="evenodd" d="M17.3091 3.188L18.4121 3.4456L19.6364 4.02742L18.8727 4.79105L17.7091 4.22138L17.3091 3.188Z" fill="#343736"/>
<path fill-rule="evenodd" clip-rule="evenodd" d="M5.76967 3.4456L4.58182 3.39105L6.03636 2.23942L7.23636 1.66378L6.35149 2.73047L5.76967 3.4456Z" fill="#92989A"/>
<path fill-rule="evenodd" clip-rule="evenodd" d="M6.25454 3.72436L5.13265 4.25774L4.58182 3.39105L5.76967 3.4456L6.25454 3.72436Z" fill="#474949"/>
<path fill-rule="evenodd" clip-rule="evenodd" d="M6.88488 4.79106L5.9091 4.36684L5.13266 4.25775L6.25455 3.72437L6.88488 4.79106Z" fill="#404242"/>
<path fill-rule="evenodd" clip-rule="evenodd" d="M4.58182 3.39105L3.73331 4.72436L5.13265 4.25774L4.58182 3.39105Z" fill="#343736"/>
<path fill-rule="evenodd" clip-rule="evenodd" d="M5.26058 4.79106L3.73331 4.72437L5.13265 4.25775L5.26058 4.79106Z" fill="#939A9D"/>
<path fill-rule="evenodd" clip-rule="evenodd" d="M5.68488 5.10618L5.26059 4.79106L5.13266 4.25775L5.9091 4.36684L5.68488 5.10618Z" fill="#606567"/>
<path fill-rule="evenodd" clip-rule="evenodd" d="M7.11513 5.8456L5.68488 5.10618L5.90909 4.36684L6.88488 4.79105L7.11513 5.8456Z" fill="#909494"/>
<path fill-rule="evenodd" clip-rule="evenodd" d="M3.73331 4.72437C3.7576 4.87593 3.87876 5.8456 3.87876 5.8456L5.13265 5.76073L4.9576 6.05164L5.68487 6.53651L7.11513 5.8456L5.68487 5.10618L5.26058 4.79106L3.73331 4.72437Z" fill="#0A0B09"/>
<path fill-rule="evenodd" clip-rule="evenodd" d="M4.58183 3.39105L3.73332 4.72436H3.26059L4.58183 3.39105Z" fill="#788084"/>
<path fill-rule="evenodd" clip-rule="evenodd" d="M3.87876 5.8456L2.99396 5.74866V4.99709L3.26058 4.72437H3.7333L3.87876 5.8456Z" fill="#202223"/>
<path fill-rule="evenodd" clip-rule="evenodd" d="M4.95759 6.06385L4.16966 6.24073L3.87875 5.84916L5.13265 5.76073L4.95759 6.06385Z" fill="#535859"/>
<path fill-rule="evenodd" clip-rule="evenodd" d="M5.68486 6.53651L3.87875 7.50618L4.95759 6.05164L5.68486 6.53651Z" fill="#161716"/>
<path fill-rule="evenodd" clip-rule="evenodd" d="M2.89694 7.78502L4.9576 6.05164L3.87876 7.50618L2.89694 7.78502Z" fill="#404446"/>
<path fill-rule="evenodd" clip-rule="evenodd" d="M4.16967 6.22138L4.9576 6.05164L2.89694 7.78502L2.99396 6.91833L4.16967 6.22138Z" fill="#2D2F30"/>
<path fill-rule="evenodd" clip-rule="evenodd" d="M9.16365 5.6032L8.15762 6.37891L7.11514 5.8456L8.58772 5.12334L9.16365 5.6032Z" fill="#323534"/>
<path fill-rule="evenodd" clip-rule="evenodd" d="M10.7031 5.08196L11.7985 6.22138L13.2969 7.23956L14.7758 7.90618L15.8849 7.33651L16.7151 8.42742L15.0182 9.48196L13.7818 8.54865L12.8242 8.39105L12 7.65164L10.5576 6.66982L9.16364 5.6032L10.7031 5.08196Z" fill="#151615"/>
<path fill-rule="evenodd" clip-rule="evenodd" d="M12 4.25775L12.9394 5.4456H11.8909L10.7031 5.08197L12 4.25775Z" fill="#0A0B09"/>
<path fill-rule="evenodd" clip-rule="evenodd" d="M11.7986 6.22138L13.6122 6.53651L12.9394 5.4456H11.8909L10.7031 5.08196L11.7986 6.22138Z" fill="#3F403F"/>
<path fill-rule="evenodd" clip-rule="evenodd" d="M13.297 7.23956L13.6122 6.53651L11.7986 6.22138L13.297 7.23956Z" fill="#4D4F4F"/>
<path fill-rule="evenodd" clip-rule="evenodd" d="M12 4.25775L13.6121 4.6456L12.9394 5.4456L12 4.25775Z" fill="#373939"/>
<path fill-rule="evenodd" clip-rule="evenodd" d="M14.9697 5.08197L16.1212 5.4456L14.7879 5.6032L13.6122 4.6456L14.9697 5.08197Z" fill="#9DA2A3"/>
<path fill-rule="evenodd" clip-rule="evenodd" d="M9.55148 6.53651L9.16363 5.6032L8.15759 6.37891L9.55148 6.53651Z" fill="#393C3B"/>
<path fill-rule="evenodd" clip-rule="evenodd" d="M12 7.65164L10.7031 7.78502L9.55149 6.53651L9.16364 5.6032L10.5576 6.66982L12 7.65164Z" fill="#595B5A"/>
<path fill-rule="evenodd" clip-rule="evenodd" d="M8.1576 6.37891L6.73833 6.69411L5.68488 6.53651L7.11513 5.8456L8.1576 6.37891Z" fill="#4B4E4E"/>
<path fill-rule="evenodd" clip-rule="evenodd" d="M7.90911 7.17891L6.73834 6.69411L8.15762 6.37891L7.90911 7.17891Z" fill="#242625"/>
<path fill-rule="evenodd" clip-rule="evenodd" d="M10.7031 7.78502L9.40596 8.088L7.90909 7.17891L8.1576 6.37891L9.55149 6.53651L10.7031 7.78502Z" fill="#0A0B09"/>
<path fill-rule="evenodd" clip-rule="evenodd" d="M6.73832 6.69411L5.19999 7.28197L3.87875 7.50618L5.68486 6.53651L6.73832 6.69411Z" fill="#282A29"/>
<path fill-rule="evenodd" clip-rule="evenodd" d="M2.99396 6.91833L2.73941 6.53651L3.87876 5.8456L4.16966 6.22138L2.99396 6.91833Z" fill="#373A3B"/>
<path fill-rule="evenodd" clip-rule="evenodd" d="M2.99396 5.74865L2.73941 6.53651L3.87876 5.8456L2.99396 5.74865Z" fill="#44494A"/>
<path fill-rule="evenodd" clip-rule="evenodd" d="M2.99396 4.99709V5.74866L2.73941 6.53651L1.55148 7.50618L2.20603 5.99106L2.99396 4.99709Z" fill="#454A4C"/>
<path fill-rule="evenodd" clip-rule="evenodd" d="M2.89695 7.78502L2.27273 7.93047L1.76743 7.32997L2.73943 6.53651L2.99397 6.91833L2.89695 7.78502Z" fill="#1B1E1E"/>
<path fill-rule="evenodd" clip-rule="evenodd" d="M5.20002 7.28197L4.33944 8.46379L3.2606 9.14255L1.89093 9.31229L1.70911 8.83957L1.06671 8.62139L1.55151 7.50619L1.76744 7.32997L2.27275 7.93048L2.89697 7.78502L3.87878 7.50619L5.20002 7.28197Z" fill="#0F100F"/>
<path fill-rule="evenodd" clip-rule="evenodd" d="M6.73834 6.69411L7.16365 7.59105L6.53943 8.52436L7.56365 8.96073L8.25456 8.68196L9.2923 9.66378L10.2909 8.96073L9.40598 8.088L7.9091 7.17891L6.73834 6.69411Z" fill="#0F100F"/>
<path fill-rule="evenodd" clip-rule="evenodd" d="M5.20001 7.28196L6.53943 8.52436L7.16365 7.59105L6.73834 6.69411L5.20001 7.28196Z" fill="#1E211F"/>
<path fill-rule="evenodd" clip-rule="evenodd" d="M3.26059 9.14255L3.81819 9.66379L5.01819 8.2456L5.20001 7.28197L4.33943 8.46379L3.26059 9.14255Z" fill="#282B2C"/>
<path fill-rule="evenodd" clip-rule="evenodd" d="M2.5459 9.23113L1.61215 10.3911L2.20604 11.0092L2.73943 10.6698L3.26059 9.14255L2.5459 9.23113Z" fill="#121413"/>
<path fill-rule="evenodd" clip-rule="evenodd" d="M1.06671 8.62138C1.0606 8.65775 0.800018 9.42742 0.800018 9.42742L1.61216 10.3911L2.54591 9.23113L1.89093 9.31229L1.70911 8.83957L1.06671 8.62138Z" fill="#242727"/>
<path fill-rule="evenodd" clip-rule="evenodd" d="M5.20001 7.28197C5.19041 7.33295 5.01819 8.2456 5.01819 8.2456L6.00873 8.03215L5.20001 7.28197Z" fill="#434545"/>
<path fill-rule="evenodd" clip-rule="evenodd" d="M6.53943 8.52436L5.52088 9.81833L5.01819 8.2456L6.00873 8.03214L6.53943 8.52436Z" fill="#363937"/>
<path fill-rule="evenodd" clip-rule="evenodd" d="M7.08182 10.0759L5.52087 9.81833L6.53942 8.52436L7.08182 10.0759Z" fill="#262827"/>
<path fill-rule="evenodd" clip-rule="evenodd" d="M8.25456 8.68196C8.26365 8.76378 8.33637 10.0759 8.33637 10.0759H7.08183L6.53943 8.52436L7.56365 8.96073L8.25456 8.68196Z" fill="#161716"/>
<path fill-rule="evenodd" clip-rule="evenodd" d="M9.29229 9.66378L8.33637 10.0759L8.25455 8.68196L9.29229 9.66378Z" fill="#1C1E1D"/>
<path fill-rule="evenodd" clip-rule="evenodd" d="M10.7031 7.78502L11.8212 9.01833L10.2909 8.96073L9.40598 8.088L10.7031 7.78502Z" fill="#333534"/>
<path fill-rule="evenodd" clip-rule="evenodd" d="M15.0182 9.48197L13.5015 9.26204L11.8212 9.01833L10.7031 7.78502L12 7.65164L12.8242 8.39106L13.7818 8.54866L15.0182 9.48197Z" fill="#333534"/>
<path fill-rule="evenodd" clip-rule="evenodd" d="M12.544 10.4729L13.5015 9.26204L14.1091 9.86742L12.544 10.4729Z" fill="#222423"/>
<path fill-rule="evenodd" clip-rule="evenodd" d="M15.0182 9.48197L14.1091 9.86742L13.5015 9.26204L15.0182 9.48197Z" fill="#404140"/>
<path fill-rule="evenodd" clip-rule="evenodd" d="M15.8849 7.33651L14.7758 7.90619L13.2969 7.23957L13.6121 6.53651L14.5212 6.43651L15.8849 7.33651Z" fill="#161817"/>
<path fill-rule="evenodd" clip-rule="evenodd" d="M14.7879 5.6032L14.5212 6.43651L12.9394 5.4456L14.7879 5.6032Z" fill="#191B1A"/>
<path fill-rule="evenodd" clip-rule="evenodd" d="M13.6122 6.53651L12.9394 5.4456L14.5212 6.43651L13.6122 6.53651Z" fill="#606261"/>
<path fill-rule="evenodd" clip-rule="evenodd" d="M13.6122 4.6456L14.7879 5.6032L12.9394 5.4456L13.6122 4.6456Z" fill="#8F9394"/>
<path fill-rule="evenodd" clip-rule="evenodd" d="M17.3091 4.85164L16.9727 5.4456H16.1212L14.9697 5.08197L14.5212 4.02742L15.9879 4.36684L17.3091 4.85164Z" fill="#6A6C6B"/>
<path fill-rule="evenodd" clip-rule="evenodd" d="M19.4546 3.43956L21 4.92742L20.3273 4.85164L19.7091 5.12436L18.8727 5.99105L18.194 5.70015L18.6364 4.85164L18.8727 4.79105L19.6364 4.02742L19.4546 3.43956Z" fill="#0A0B09"/>
<path fill-rule="evenodd" clip-rule="evenodd" d="M17.3091 4.85164L18.194 5.70015L18.6364 4.85164L18.8727 4.79105L17.7091 4.22138L17.3091 4.85164Z" fill="#5F6363"/>
<path fill-rule="evenodd" clip-rule="evenodd" d="M14.5212 6.43651L16.0545 6.61833L17.2545 6.37891L17.3091 4.85163L16.9727 5.4456H16.1212L14.7879 5.6032L14.5212 6.43651Z" fill="#131513"/>
<path fill-rule="evenodd" clip-rule="evenodd" d="M15.8849 7.33651L16.0545 6.61833L14.5212 6.43651L15.8849 7.33651Z" fill="#484A49"/>
<path fill-rule="evenodd" clip-rule="evenodd" d="M18.8727 5.99105L18.3909 6.61833L18.194 5.70015L18.8727 5.99105Z" fill="#282B2C"/>
<path fill-rule="evenodd" clip-rule="evenodd" d="M19.7091 5.12437L20.0727 5.80924L19.7091 6.69411L18.3909 6.61833L18.8727 5.99106L19.7091 5.12437Z" fill="#7C807F"/>
<path fill-rule="evenodd" clip-rule="evenodd" d="M17.3091 4.85163L18.194 5.70014L18.3909 6.61833L17.4909 7.33651H15.8849L16.0546 6.61833L17.2546 6.37891L17.3091 4.85163Z" fill="#4B4E4D"/>
<path fill-rule="evenodd" clip-rule="evenodd" d="M21 4.92742L21.4637 5.6032L20.0727 5.80923L19.7091 5.12436L20.3273 4.85163L21 4.92742Z" fill="#666A6B"/>
<path fill-rule="evenodd" clip-rule="evenodd" d="M19.7091 6.69411L20.7455 6.95469L20.0727 5.80923L19.7091 6.69411Z" fill="#242626"/>
<path fill-rule="evenodd" clip-rule="evenodd" d="M17.4909 7.33651L16.7151 8.42742L15.8849 7.33651H17.4909Z" fill="#161716"/>
<path fill-rule="evenodd" clip-rule="evenodd" d="M20.7455 6.95469C20.7546 7.02742 21.2727 8.42742 21.2727 8.42742L19.7091 7.99106L18.6182 7.51833L17.9182 8.088C17.9182 8.088 17.1909 9.33651 17.1909 9.30924C17.1909 9.28196 16.7151 8.42742 16.7151 8.42742L17.4909 7.33651L18.3909 6.61833L19.7091 6.69411L20.7455 6.95469Z" fill="#0F100F"/>
<path fill-rule="evenodd" clip-rule="evenodd" d="M19.1546 9.10015L17.9182 8.088L18.6182 7.51833L19.7091 7.99106L19.3818 8.088L19.1546 9.10015Z" fill="#242625"/>
<path fill-rule="evenodd" clip-rule="evenodd" d="M21.2727 8.42742L22.0909 9.20924L21.8909 10.1365L21.2182 9.10014L19.6364 8.90014L19.8497 8.03033L21.2727 8.42742Z" fill="#3D3F3F"/>
<path fill-rule="evenodd" clip-rule="evenodd" d="M19.1545 9.10015L19.6364 8.90015L19.8497 8.03033L19.7091 7.99106L19.3818 8.088L19.1545 9.10015Z" fill="#0F100E"/>
<path fill-rule="evenodd" clip-rule="evenodd" d="M21.4637 5.6032L21.8273 6.30014L21.0909 7.09105L21.2728 8.42742L20.7455 6.95469L20.0728 5.80924L21.4637 5.6032Z" fill="#444849"/>
<path fill-rule="evenodd" clip-rule="evenodd" d="M22.0909 9.20924L21.8273 7.69106L21.2727 8.42742L22.0909 9.20924Z" fill="#121413"/>
<path fill-rule="evenodd" clip-rule="evenodd" d="M21.8273 6.30015V7.69106L21.2728 8.42742L21.0909 7.09106L21.8273 6.30015Z" fill="#515454"/>
<path fill-rule="evenodd" clip-rule="evenodd" d="M22.8273 8.2032L21.9204 8.22742L21.8273 7.69106V6.30015L22.5727 7.33651L22.8273 8.2032Z" fill="#343738"/>
<path fill-rule="evenodd" clip-rule="evenodd" d="M19.1545 9.10014L18.994 9.86741L18.0091 9.26203L19.1545 9.10014Z" fill="#2C2E2E"/>
<path fill-rule="evenodd" clip-rule="evenodd" d="M10 2.79105L9.12729 3.16683L10 1.66378V2.79105Z" fill="#4C4F4F"/>
</g>
</g>
<defs>
<clipPath id="clip0_5_14037">
<rect width="24" height="24" fill="white"/>
</clipPath>
</defs>
</svg>
