<svg width="24" height="24" viewBox="0 0 24 24" fill="none" xmlns="http://www.w3.org/2000/svg">
<path d="M16.9174 0.296616C15.9643 0.687555 15.2434 1.40836 14.828 2.26361C14.3027 3.13115 13.3864 4.98827 11.688 6.0146C10.4052 6.78431 6.87421 6.39325 6.34882 6.61324C5.24925 7.06525 4.71169 8.32374 5.16371 9.42331C5.40816 10.0219 6.75205 10.6329 7.31407 10.8284C7.31407 10.8284 14.1316 12.7832 14.1316 14.897C14.1316 15.9476 13.3253 16.2165 11.7859 16.5952C9.54983 17.1327 5.92126 16.0821 5.92126 16.0821V16.0942C5.12709 15.911 4.27171 15.9476 3.4655 16.2776C1.41284 17.1206 0.435431 19.4542 1.26623 21.4945C2.10919 23.5471 4.44291 24.5245 6.48327 23.6938C7.44839 23.3029 8.16919 22.5819 8.58459 21.7267C9.09781 20.8593 9.98981 19.0022 11.688 17.988C12.971 17.2061 16.5263 17.5972 17.0517 17.3771C18.1636 16.925 18.6888 15.6667 18.2368 14.5671C17.9925 13.9562 16.6363 13.3453 16.062 13.1497C16.062 13.1497 9.26889 11.4393 9.26889 9.09345C9.26889 8.04267 10.0754 7.77389 11.6269 7.39511C13.8628 6.85756 17.4915 7.90834 17.4915 7.90834L17.4794 7.89617C18.2734 8.09158 19.1287 8.04267 19.9473 7.71281C21.9878 6.86985 22.9652 4.53613 22.1343 2.49576C21.4949 0.939026 19.9982 0.000745773 18.4222 0.000745773C17.9202 0.000745773 17.4103 0.0959415 16.9174 0.296616Z" fill="url(#paint0_linear_5_14029)"/>
<defs>
<linearGradient id="paint0_linear_5_14029" x1="0.970338" y1="11.9952" x2="22.4304" y2="11.9952" gradientUnits="userSpaceOnUse">
<stop stop-color="#6C3D94"/>
<stop offset="1" stop-color="#A13469"/>
</linearGradient>
</defs>
</svg>
