<svg width="24" height="24" viewBox="0 0 24 24" fill="none" xmlns="http://www.w3.org/2000/svg">
<g clip-path="url(#clip0_5_14025)">
<path d="M11.6094 19.7731C7.96584 19.7731 5.00705 16.8144 5.00705 13.1708C5.00705 9.62873 10.9838 3.37301 11.2374 3.11094L11.5502 2.78125L11.8714 3.10249C12.1335 3.36455 18.2117 9.62028 18.2117 13.1624C18.2117 16.8144 15.2529 19.7731 11.6094 19.7731ZM11.5587 4.05776C11.0345 4.62415 9.93555 5.84994 8.84502 7.28706C6.90913 9.84007 5.88623 11.869 5.88623 13.1624C5.88623 16.3156 8.45615 18.8855 11.6094 18.8855C14.7626 18.8855 17.3325 16.3156 17.3325 13.1624C17.3325 11.869 16.2927 9.84007 14.323 7.28706C13.2156 5.85839 12.0912 4.62415 11.5587 4.05776Z" fill="url(#paint0_linear_5_14025)"/>
<path d="M11.6094 21.8866C6.79923 21.8866 2.89363 17.9725 2.89363 13.1708C2.89363 8.47056 9.45369 1.9105 9.73266 1.63999C9.90173 1.47091 10.1892 1.47091 10.3582 1.63999C10.5273 1.80906 10.5273 2.09648 10.3582 2.26556C10.2906 2.33319 3.78127 8.84252 3.78127 13.1708C3.78127 17.4906 7.298 21.0074 11.6178 21.0074C15.9377 21.0074 19.4544 17.4906 19.4544 13.1708C19.4544 11.3955 18.3047 8.94397 16.1236 6.06126C14.4498 3.85485 12.7675 2.18102 12.7506 2.16411C12.5731 1.99504 12.5731 1.71607 12.7506 1.53854C12.9197 1.36101 13.1987 1.36101 13.3762 1.53854C13.6636 1.81751 20.342 8.46211 20.342 13.1708C20.3251 17.9725 16.4195 21.8866 11.6094 21.8866Z" fill="url(#paint1_linear_5_14025)"/>
<path d="M11.6094 24C5.75942 24 1 19.2406 1 13.3906C1 10.9729 2.21733 7.99718 4.60972 4.55653C6.37654 2.02043 8.10955 0.211342 8.18563 0.135259C8.3547 -0.0422682 8.63367 -0.0422682 8.8112 0.126805C8.98873 0.295879 8.98873 0.574851 8.81965 0.752378C8.80275 0.769285 7.05284 2.59528 5.32828 5.07221C3.07115 8.30997 1.87918 11.1842 1.87918 13.3906C1.87918 18.7503 6.24128 23.1208 11.6094 23.1208C16.9775 23.1208 21.3396 18.7587 21.3396 13.3906C21.3396 11.1842 20.1391 8.30997 17.8651 5.07221C16.1236 2.59528 14.3568 0.769285 14.3399 0.752378C14.1708 0.574851 14.1708 0.295879 14.3484 0.126805C14.5259 -0.0422682 14.8049 -0.0422682 14.9739 0.135259C15.2698 0.439592 22.2187 7.65904 22.2187 13.3906C22.2187 19.2406 17.4593 24 11.6094 24Z" fill="url(#paint2_linear_5_14025)"/>
</g>
<defs>
<linearGradient id="paint0_linear_5_14025" x1="11.6094" y1="19.7721" x2="11.6094" y2="2.78021" gradientUnits="userSpaceOnUse">
<stop stop-color="#05AAC5"/>
<stop offset="1" stop-color="#71E0EC"/>
</linearGradient>
<linearGradient id="paint1_linear_5_14025" x1="11.6178" y1="21.8855" x2="11.6178" y2="1.40436" gradientUnits="userSpaceOnUse">
<stop stop-color="#05AAC5"/>
<stop offset="1" stop-color="#71E0EC"/>
</linearGradient>
<linearGradient id="paint2_linear_5_14025" x1="11.6094" y1="23.999" x2="11.6094" y2="5.21346e-07" gradientUnits="userSpaceOnUse">
<stop stop-color="#05AAC5"/>
<stop offset="1" stop-color="#71E0EC"/>
</linearGradient>
<clipPath id="clip0_5_14025">
<rect width="24" height="24" fill="white"/>
</clipPath>
</defs>
</svg>
