<svg width="24" height="24" viewBox="0 0 24 24" fill="none" xmlns="http://www.w3.org/2000/svg">
<path fill-rule="evenodd" clip-rule="evenodd" d="M7.44702 13.9482C7.36201 14.0069 7.30433 14.0534 7.24081 14.0898C6.37872 14.5847 5.51353 15.0747 4.65466 15.5754C4.47807 15.6785 4.33096 15.6955 4.14911 15.5886C3.79926 15.3828 3.42195 15.3395 3.0223 15.4304C2.21251 15.6145 1.65813 16.5188 1.86875 17.3289C2.0986 18.2121 2.99007 18.7332 3.82648 18.4724C4.54505 18.2483 4.91078 17.744 4.95938 17.0075C4.97418 16.7838 5.05992 16.6493 5.25538 16.5386C6.21419 15.996 7.16714 15.443 8.11819 14.8865C8.29944 14.7806 8.45681 14.7653 8.65311 14.857C9.09848 15.0653 9.58421 15.1584 10.0587 15.0508C10.4865 14.9538 10.8443 15.017 11.2222 15.2126C11.4262 15.318 11.4933 15.4309 11.4922 15.6497C11.4842 17.1259 11.4802 18.6023 11.4933 20.0784C11.4957 20.3562 11.4198 20.5229 11.1782 20.6788C10.4611 21.1419 10.2844 22.1149 10.7572 22.8275C11.2363 23.5499 12.2074 23.752 12.9261 23.2792C13.9027 22.6366 13.8768 21.2314 12.8741 20.6192C12.7417 20.5383 12.6359 20.4677 12.6368 20.2813C12.6436 18.7637 12.6427 17.246 12.6379 15.7284C12.6373 15.5624 12.7028 15.4883 12.8582 15.4603C13.1188 15.4135 13.3811 15.3707 13.6359 15.3014C13.8685 15.2381 14.0813 15.2321 14.3126 15.3232C14.9103 15.5584 15.5003 15.5144 16.0574 15.1933C16.2389 15.0889 16.3793 15.0983 16.5578 15.2038C17.3136 15.6511 18.075 16.0893 18.8418 16.5174C19.0691 16.6443 19.1712 16.7967 19.1751 17.0671C19.1849 17.7729 19.7915 18.4238 20.485 18.5131C21.2016 18.6053 21.8559 18.2532 22.1593 17.612C22.4446 17.0085 22.3018 16.2855 21.8033 15.8101C21.3121 15.3414 20.5919 15.2504 19.9637 15.5979C19.7871 15.6957 19.6514 15.6887 19.4826 15.589C18.7621 15.1638 18.0389 14.7425 17.308 14.3353C17.109 14.2244 17.0391 14.1175 17.1016 13.8829C17.2852 13.1931 17.1547 12.5601 16.7228 11.9809C16.4265 11.5835 16.1646 11.1606 15.8836 10.7518C15.7628 10.5761 15.7939 10.4583 15.9818 10.3508C17.1609 9.67608 18.3374 8.99644 19.5122 8.31405C19.6633 8.22641 19.7882 8.21674 19.9452 8.3125C20.3413 8.55429 20.7676 8.59119 21.2122 8.45459C21.9188 8.23752 22.4008 7.47787 22.2876 6.75059C22.1658 5.96743 21.4807 5.36265 20.7292 5.37471C19.8628 5.38856 19.1925 6.05005 19.1694 6.92576C19.1646 7.10844 19.1156 7.23417 18.9474 7.33017C17.7393 8.02176 16.5344 8.71931 15.3318 9.42032C15.1874 9.5045 15.0887 9.49853 14.9628 9.38092C14.3882 8.84361 13.7046 8.53089 12.9216 8.44814C12.7031 8.4251 12.6376 8.32826 12.6388 8.11011C12.647 6.67549 12.6462 5.24062 12.6365 3.80611C12.6348 3.55417 12.7178 3.38952 12.9306 3.2528C13.5317 2.86665 13.7785 2.16826 13.5718 1.49662C13.3694 0.838711 12.7698 0.393935 12.0816 0.391293C11.3648 0.388442 10.7725 0.816144 10.5633 1.48755C10.3424 2.19656 10.6022 2.88814 11.2471 3.29411C11.3766 3.37567 11.4913 3.44468 11.4907 3.63119C11.4857 5.20683 11.4916 6.78259 11.4811 8.35835C11.4805 8.45722 11.3933 8.59095 11.3065 8.64755C10.9267 8.89591 10.5331 9.12349 10.1425 9.35525C9.75795 9.58355 9.31902 9.68492 8.93216 9.47465C7.67293 8.79059 6.43914 8.05937 5.19627 7.34498C5.04224 7.2565 4.97036 7.13316 4.96571 6.94056C4.93836 5.82032 3.90899 5.23405 3.12201 5.41674C2.46792 5.5685 2.02816 5.93579 1.86959 6.58211C1.7115 7.22677 1.9066 7.79059 2.43365 8.19692C2.95974 8.60241 3.54756 8.64731 4.13705 8.33387C4.3312 8.23083 4.47735 8.23226 4.66278 8.34259C5.28189 8.71131 5.91042 9.06402 6.5343 9.42462C6.96941 9.67608 7.40272 9.93029 7.87198 10.2038C6.7761 11.3557 6.66326 12.6083 7.44702 13.9482ZM22.6569 6.95035C22.6568 7.64146 22.3751 8.18713 21.7946 8.56253C21.6125 8.68026 21.5461 8.81352 21.5471 9.02987C21.555 10.9788 21.5554 12.9277 21.5476 14.8766C21.5466 15.1012 21.6133 15.2354 21.8055 15.3606C22.6623 15.9191 22.9274 17.0688 22.4147 17.9259C21.8751 18.828 20.7633 19.1594 19.8475 18.6751C19.6608 18.5764 19.5169 18.5821 19.3417 18.6835C17.6285 19.6766 15.9133 20.6664 14.1954 21.6515C14.0197 21.7523 14.0056 21.9003 13.9944 22.0706C13.9362 22.958 13.3104 23.6854 12.4608 23.8608C11.3366 24.0927 10.2559 23.3109 10.1542 22.1703C10.127 21.8668 10.0125 21.689 9.74386 21.5367C8.09335 20.6016 6.45216 19.6497 4.81275 18.6949C4.62016 18.5828 4.47114 18.5729 4.2666 18.6774C3.3355 19.1535 2.23771 18.8247 1.72117 17.9348C1.20356 17.0428 1.45956 15.9302 2.33048 15.3527C2.52726 15.2222 2.60045 15.0752 2.5995 14.8421C2.59174 12.9181 2.5915 10.9942 2.59902 9.07011C2.59998 8.83632 2.52821 8.6885 2.32869 8.56074C1.64201 8.12086 1.34481 7.38104 1.50016 6.55608C1.64165 5.8054 2.22553 5.23596 2.99472 5.06976C3.4629 4.9685 3.90099 5.02653 4.31341 5.25877C4.46863 5.34605 4.59413 5.34677 4.75007 5.2565C6.44189 4.27668 8.13502 3.29889 9.83436 2.33208C10.0636 2.2017 10.1305 2.02426 10.1434 1.78844C10.2005 0.741994 11.1779 -0.0820056 12.2998 0.0313078C13.153 0.117636 13.9227 0.883367 13.9847 1.75967C14.0068 2.07429 14.149 2.24552 14.4111 2.39477C16.0524 3.3291 17.6876 4.27405 19.32 5.22402C19.5156 5.33793 19.6699 5.33734 19.8723 5.23668C21.1717 4.59059 22.6489 5.5045 22.6569 6.95035Z" fill="#2583FF"/>
<path fill-rule="evenodd" clip-rule="evenodd" d="M7.91819 12.2469C7.92348 11.1572 8.79452 10.2421 9.89076 10.2192C10.2314 10.2121 10.4832 10.1101 10.7315 9.88611C11.9848 8.7531 13.721 9.18533 14.5821 10.1665C14.8959 10.5241 15.0787 10.9502 15.1705 11.4092C15.2176 11.6435 15.3373 11.7908 15.5273 11.9152C16.0007 12.225 16.2639 12.6768 16.2134 13.235C16.1549 13.8791 15.8338 14.3815 15.1809 14.5917C14.7991 14.7145 14.4097 14.7139 14.0488 14.5139C13.8714 14.4158 13.7109 14.4145 13.5287 14.4867C12.691 14.8189 11.8763 14.7738 11.1002 14.3043C10.9126 14.1907 10.7367 14.1829 10.5334 14.2412C9.20467 14.6214 7.91142 13.6327 7.91819 12.2469Z" fill="#2583FF"/>
<path fill-rule="evenodd" clip-rule="evenodd" d="M20.7413 16.5153C20.9971 16.5216 21.2092 16.7344 21.1997 16.975C21.1904 17.2101 20.9577 17.4209 20.714 17.4148C20.4654 17.4085 20.2778 17.2135 20.2798 16.9634C20.2819 16.6977 20.4765 16.5088 20.7413 16.5153Z" fill="#2583FF"/>
<path fill-rule="evenodd" clip-rule="evenodd" d="M11.6075 1.92466C11.6277 1.672 11.8456 1.49039 12.1035 1.51152C12.3637 1.53266 12.5407 1.74555 12.514 2.00501C12.489 2.24549 12.2696 2.43439 12.0372 2.41528C11.7918 2.39522 11.5885 2.16298 11.6075 1.92466Z" fill="#2583FF"/>
<path fill-rule="evenodd" clip-rule="evenodd" d="M20.7244 7.4025C20.473 7.40178 20.2869 7.21754 20.2832 6.96548C20.2793 6.69826 20.4644 6.51235 20.7334 6.51318C20.9857 6.51402 21.2012 6.7219 21.1998 6.96297C21.1985 7.20811 20.9874 7.40321 20.7244 7.4025Z" fill="#2583FF"/>
<path fill-rule="evenodd" clip-rule="evenodd" d="M3.84301 6.9615C3.83931 7.22121 3.66211 7.4015 3.40898 7.40306C3.13137 7.40485 2.92826 7.20604 2.9377 6.9418C2.94677 6.68962 3.15155 6.50646 3.41686 6.51362C3.66999 6.52043 3.84671 6.7061 3.84301 6.9615Z" fill="#2583FF"/>
<path fill-rule="evenodd" clip-rule="evenodd" d="M12.0545 21.5155C12.3068 21.5121 12.5226 21.7175 12.5202 21.9591C12.5177 22.2177 12.3246 22.4036 12.0601 22.4024C11.796 22.4011 11.6087 22.2135 11.6096 21.9514C11.6106 21.7118 11.8076 21.5187 12.0545 21.5155Z" fill="#2583FF"/>
<path fill-rule="evenodd" clip-rule="evenodd" d="M3.40319 16.517C3.6519 16.5163 3.83853 16.7015 3.84283 16.9529C3.84725 17.2154 3.6525 17.4177 3.39769 17.4153C3.14289 17.4131 2.93787 17.2095 2.93883 16.9601C2.9399 16.7053 3.13656 16.5177 3.40319 16.517Z" fill="#2583FF"/>
</svg>
