<svg width="24" height="24" viewBox="0 0 24 24" fill="none" xmlns="http://www.w3.org/2000/svg">
<g clip-path="url(#clip0_5_13977)">
<path d="M0.487499 15.75C0.656249 15.4875 0.806249 15.2625 0.974999 15L1.25625 15.1688C4.78125 17.4375 8.325 19.7063 11.85 21.9938C12.0562 22.125 12.1875 22.1438 12.3937 21.9938C15.75 19.8188 19.125 17.6625 22.5 15.5063C22.8937 15.2625 23.1 14.9438 23.0812 14.475C23.0625 14.0063 23.0812 13.5375 23.0812 12.9938C22.95 13.0688 22.8375 13.125 22.7437 13.1813C19.3687 15.3375 15.9937 17.475 12.6187 19.6313C12.2062 19.8938 11.85 19.9125 11.4375 19.65C8.00625 17.4563 4.575 15.2625 1.125 13.1063C0.374999 12.6375 -8.34465e-07 12.0188 0.0374992 11.1188C0.0749992 10.4625 0.0374992 9.80625 0.0374992 9.15C0.0374992 8.85 0.149999 8.625 0.412499 8.45625C4.125 6 7.875 3.5625 11.6062 1.125C11.7562 1.03125 11.9062 0.900002 12.075 0.881252C12.2812 0.862502 12.525 0.900002 12.675 1.0125C16.3125 3.31875 19.95 5.625 23.5875 7.95C24.15 8.30625 24.1125 8.90625 23.5312 9.2625L15.15 14.55C14.325 15.075 13.5 15.5625 12.6937 16.1063C12.3 16.3688 11.9625 16.3688 11.55 16.1063C8.1375 13.95 4.6875 11.7938 1.25625 9.6375C1.1625 9.58125 1.06875 9.525 0.937499 9.45C0.937499 10.1625 0.918749 10.8375 0.937499 11.5125C0.956249 11.85 1.2 12.075 1.48125 12.2438L9.6375 17.4188C10.35 17.8688 11.0437 18.3 11.7375 18.7688C11.9062 18.8813 12.0375 18.8813 12.225 18.7688C15.675 16.5563 19.1437 14.3438 22.6125 12.15C22.7062 12.0938 22.8 12.0188 22.8937 11.9813C23.4 11.7375 23.9437 12.0375 23.9625 12.6C23.9812 13.3313 23.9812 14.0625 23.9625 14.7938C23.9437 15.4313 23.6062 15.8813 23.0625 16.2188C20.775 17.6813 18.4875 19.1438 16.2 20.625C15 21.3938 13.7812 22.1625 12.5812 22.95C12.2437 23.175 11.9437 23.175 11.6062 22.95C7.96875 20.5875 4.29375 18.225 0.637499 15.8625C0.581249 15.8438 0.543749 15.8063 0.487499 15.75ZM1.6125 8.7375C1.6875 8.8125 1.7625 8.85 1.81875 8.90625C5.19375 11.025 8.56875 13.1438 11.925 15.2625C12.0937 15.375 12.2062 15.3375 12.3562 15.2438C15.7687 13.0875 19.1812 10.9313 22.5937 8.79375C22.6687 8.7375 22.7625 8.68125 22.8562 8.60625C22.7812 8.55 22.7437 8.5125 22.6875 8.475C19.275 6.3 15.8625 4.125 12.4312 1.95C12.2437 1.81875 12.1125 1.89375 11.9625 1.9875C9.6375 3.50625 7.29375 5.04375 4.96875 6.5625C3.84375 7.275 2.7375 8.00625 1.6125 8.7375Z" fill="#2A8AC7"/>
</g>
<defs>
<clipPath id="clip0_5_13977">
<rect width="24" height="24" fill="white"/>
</clipPath>
</defs>
</svg>
