<svg width="24" height="24" viewBox="0 0 24 24" fill="none" xmlns="http://www.w3.org/2000/svg">
<g clip-path="url(#clip0_5_13973)">
<path d="M4.75568 5.07531H14.7273C14.7571 5.07531 14.7827 5.08383 14.804 5.10087L18.8608 8.08384C18.9204 8.12645 18.929 8.20742 18.8863 8.26708C18.8608 8.30117 18.8224 8.31821 18.7798 8.31821H8.25C8.17755 8.31821 8.11789 8.37787 8.11789 8.45032V12.2728C8.11789 12.3452 8.17755 12.4049 8.25 12.4049H14.9616C15.0341 12.4049 15.0937 12.4645 15.0937 12.537V15.3239C15.0937 15.3964 15.0341 15.456 14.9616 15.456H4.70881C4.63636 15.456 4.57671 15.3964 4.57671 15.3239L4.62358 5.21167C4.62358 5.13497 4.67898 5.07957 4.75568 5.07531C4.75568 5.07531 4.75142 5.07531 4.75568 5.07531Z" fill="#0E67AE"/>
<path d="M19.1293 19.2102H8.75284C8.72301 19.2102 8.69744 19.2017 8.67614 19.1846L4.86221 16.3636C4.80256 16.321 4.79403 16.24 4.83665 16.1804C4.86221 16.1463 4.90057 16.1292 4.94318 16.1292H15.6392C15.7116 16.1292 15.7713 16.0696 15.7713 15.9971V11.8508C15.7713 11.7784 15.7116 11.7187 15.6392 11.7187H9.02557C8.95312 11.7187 8.89346 11.6591 8.89346 11.5909V9.13209C8.89346 9.05964 8.95312 8.99998 9.02131 8.99998H19.1761C19.2486 8.99998 19.3082 9.05964 19.3082 9.13209L19.2614 19.0824C19.2571 19.1548 19.2017 19.2102 19.1293 19.2102Z" fill="#0E67AE"/>
<path fill-rule="evenodd" clip-rule="evenodd" d="M12 1.10795C5.98449 1.10795 1.10795 5.98449 1.10795 12C1.10795 18.0155 5.98449 22.892 12 22.892C18.0155 22.892 22.892 18.0155 22.892 12C22.892 5.98449 18.0155 1.10795 12 1.10795ZM0 12C0 5.37258 5.37258 0 12 0C18.6274 0 24 5.37258 24 12C24 18.6274 18.6274 24 12 24C5.37258 24 0 18.6274 0 12Z" fill="#0E67AE"/>
</g>
<defs>
<clipPath id="clip0_5_13973">
<rect width="24" height="24" fill="white"/>
</clipPath>
</defs>
</svg>
