<svg width="24" height="24" viewBox="0 0 24 24" fill="none" xmlns="http://www.w3.org/2000/svg">
<g clip-path="url(#clip0_5_13952)">
<path d="M12 24C18.6274 24 24 18.6274 24 12C24 5.37258 18.6274 0 12 0C5.37258 0 0 5.37258 0 12C0 18.6274 5.37258 24 12 24Z" fill="#E53431"/>
<path d="M9.08775 3.98551C9.11993 3.96066 9.15959 3.94744 9.20025 3.94801C9.24082 3.94801 9.28029 3.96116 9.31275 3.98551L10.2555 4.69201C10.2752 4.70683 10.2918 4.72539 10.3043 4.74662C10.3168 4.76785 10.3251 4.79134 10.3285 4.81575C10.3319 4.84016 10.3306 4.86501 10.3244 4.88889C10.3182 4.91276 10.3074 4.93518 10.2926 4.95488C10.2778 4.97458 10.2592 4.99116 10.238 5.00369C10.2168 5.01622 10.1933 5.02444 10.1689 5.02789C10.1445 5.03133 10.1196 5.02994 10.0957 5.02378C10.0719 5.01763 10.0494 5.00683 10.0297 4.99201L9.20025 4.37176L6.5025 6.39451L18.3525 15.285C18.3759 15.3026 18.395 15.3254 18.4081 15.3517C18.4212 15.3779 18.428 15.4068 18.428 15.4361C18.428 15.4655 18.4212 15.4944 18.4081 15.5206C18.395 15.5468 18.3759 15.5696 18.3525 15.5873L17.4817 16.2398C17.4418 16.2696 17.3916 16.2823 17.3422 16.2752C17.2928 16.268 17.2483 16.2415 17.2185 16.2015C17.1887 16.1615 17.1759 16.1113 17.1831 16.062C17.1903 16.0126 17.2168 15.9681 17.2567 15.9383L17.9265 15.4358L6.07575 6.54676C6.05218 6.52948 6.03302 6.5069 6.01982 6.48084C6.00661 6.45478 5.99973 6.42597 5.99973 6.39676C5.99973 6.36754 6.00661 6.33873 6.01982 6.31267C6.03302 6.28661 6.05218 6.26403 6.07575 6.24676L9.08775 3.98626V3.98551ZM12.1005 3.98551C12.1326 3.9606 12.1721 3.94695 12.2127 3.94668C12.2534 3.94641 12.293 3.95953 12.3255 3.98401L18.3517 8.50426C18.3834 8.52768 18.4068 8.56062 18.4184 8.59828C18.43 8.63593 18.4292 8.67631 18.4162 8.71351C18.404 8.75103 18.3803 8.78372 18.3483 8.8069C18.3164 8.83007 18.278 8.84254 18.2385 8.84251H15.2257C15.1852 8.84224 15.1458 8.82911 15.1132 8.80501L11.1585 5.83951C11.1387 5.82468 11.122 5.80611 11.1094 5.78484C11.0968 5.76356 11.0885 5.74002 11.085 5.71554C11.0814 5.69106 11.0828 5.66612 11.0889 5.64216C11.095 5.6182 11.1058 5.59568 11.1206 5.57588C11.1354 5.55608 11.154 5.5394 11.1753 5.52678C11.1966 5.51417 11.2201 5.50586 11.2446 5.50234C11.2691 5.49883 11.294 5.50017 11.318 5.50629C11.3419 5.5124 11.3644 5.52318 11.3842 5.53801L15.2895 8.46601H17.6737L12.2137 4.37101L8.43375 7.20601C8.41395 7.22083 8.39143 7.23161 8.36747 7.23773C8.3435 7.24384 8.31857 7.24518 8.29409 7.24167C8.24465 7.23456 8.20006 7.20811 8.17012 7.16813C8.14019 7.12815 8.12736 7.07791 8.13446 7.02847C8.14156 6.97903 8.16802 6.93444 8.208 6.90451L12.1005 3.98551ZM6.9075 7.88176C6.94767 7.85748 6.99544 7.84903 7.0415 7.85803C7.08757 7.86704 7.12863 7.89287 7.15671 7.93048C7.18478 7.9681 7.19785 8.01482 7.19338 8.06154C7.1889 8.10826 7.1672 8.15165 7.1325 8.18326L6.50175 8.65576L18.3525 17.5463C18.3761 17.5637 18.3952 17.5864 18.4084 17.6126C18.4216 17.6388 18.4285 17.6677 18.4285 17.697C18.4285 17.7263 18.4216 17.7552 18.4084 17.7814C18.3952 17.8076 18.3761 17.8303 18.3525 17.8478L15.3397 20.1075C15.3071 20.1315 15.2677 20.1445 15.2272 20.1445C15.1868 20.1445 15.1473 20.1315 15.1147 20.1075L14.2425 19.4535C14.2025 19.4234 14.1761 19.3786 14.1692 19.329C14.1622 19.2794 14.1752 19.2291 14.2054 19.1891C14.2355 19.1491 14.2803 19.1228 14.3299 19.1158C14.3795 19.1089 14.4298 19.1219 14.4697 19.152L15.2272 19.7198L17.9272 17.6948L6.0735 8.80651C6.05033 8.78879 6.03155 8.76598 6.01863 8.73984C6.00571 8.71369 5.99898 8.68492 5.99898 8.65576C5.99898 8.62659 6.00571 8.59782 6.01863 8.57168C6.03155 8.54553 6.05033 8.52272 6.0735 8.50501L6.906 7.88251L6.9075 7.88176ZM6.18825 15.246V15.2475H9.1995C9.24016 15.2469 9.27981 15.2602 9.312 15.285L13.224 18.2183C13.2438 18.233 13.2605 18.2516 13.2731 18.2728C13.2858 18.294 13.2941 18.3175 13.2976 18.342C13.3012 18.3664 13.2999 18.3913 13.2938 18.4153C13.2877 18.4392 13.277 18.4617 13.2622 18.4815C13.2475 18.5013 13.2289 18.518 13.2077 18.5306C13.1865 18.5433 13.163 18.5516 13.1385 18.5552C13.1141 18.5587 13.0892 18.5574 13.0652 18.5513C13.0413 18.5453 13.0188 18.5345 12.999 18.5198L9.1395 15.624H6.75375L12.2145 19.719L15.987 16.89C16.0068 16.8751 16.0293 16.8643 16.0533 16.8581C16.0773 16.852 16.1022 16.8506 16.1268 16.8541C16.1513 16.8576 16.1749 16.8658 16.1962 16.8784C16.2175 16.891 16.2361 16.9077 16.251 16.9275C16.2659 16.9473 16.2767 16.9698 16.2829 16.9938C16.289 17.0178 16.2904 17.0428 16.2869 17.0673C16.2834 17.0918 16.2752 17.1154 16.2626 17.1367C16.25 17.158 16.2333 17.1766 16.2135 17.1915L12.3277 20.1045C12.2953 20.1288 12.2558 20.142 12.2152 20.142C12.1744 20.1424 12.1346 20.1292 12.102 20.1045L6.07425 15.5858C6.04458 15.5854 6.01542 15.578 5.98914 15.5643C5.96286 15.5505 5.94021 15.5307 5.92304 15.5065C5.90586 15.4823 5.89464 15.4544 5.8903 15.4251C5.88596 15.3957 5.88862 15.3658 5.89805 15.3376C5.90749 15.3095 5.92344 15.284 5.94461 15.2632C5.96577 15.2424 5.99155 15.2269 6.01984 15.218C6.04813 15.2091 6.07814 15.207 6.1074 15.2118C6.13667 15.2167 6.16437 15.2284 6.18825 15.246Z" fill="white"/>
</g>
<defs>
<clipPath id="clip0_5_13952">
<rect width="24" height="24" fill="white"/>
</clipPath>
</defs>
</svg>
