<svg width="24" height="24" viewBox="0 0 24 24" fill="none" xmlns="http://www.w3.org/2000/svg">
<g clip-path="url(#clip0_5_13938)">
<path fill-rule="evenodd" clip-rule="evenodd" d="M4.85105 9.51643C4.73011 9.39633 4.63413 9.25349 4.56863 9.09614C4.50313 8.93879 4.46941 8.77004 4.46941 8.5996C4.46941 8.42916 4.50313 8.2604 4.56863 8.10305C4.63413 7.9457 4.73011 7.80287 4.85105 7.68277L12.1393 0.379095C12.3851 0.1381 12.7157 0.00311279 13.0599 0.00311279C13.4042 0.00311279 13.7348 0.1381 13.9806 0.379095C14.2216 0.624959 14.3566 0.955513 14.3566 1.29979C14.3566 1.64407 14.2216 1.97462 13.9806 2.22049L6.68471 9.51643C6.56461 9.63737 6.42178 9.73335 6.26443 9.79885C6.10707 9.86435 5.93832 9.89807 5.76788 9.89807C5.59744 9.89807 5.42869 9.86435 5.27134 9.79885C5.11398 9.73335 4.97115 9.63737 4.85105 9.51643Z" fill="#242328"/>
<path fill-rule="evenodd" clip-rule="evenodd" d="M18.0193 14.4758C18.1405 14.5966 18.2366 14.7401 18.3023 14.898C18.3679 15.056 18.4016 15.2254 18.4016 15.3965C18.4016 15.5676 18.3679 15.737 18.3023 15.895C18.2366 16.053 18.1405 16.1964 18.0193 16.3172L10.7311 23.6131C10.612 23.7395 10.4687 23.8406 10.3098 23.9107C10.1509 23.9807 9.97956 24.0182 9.80592 24.0209C9.63228 24.0236 9.45986 23.9915 9.29884 23.9265C9.13781 23.8615 8.99145 23.7649 8.8684 23.6423C8.74534 23.5198 8.64809 23.3738 8.58238 23.2131C8.51668 23.0523 8.48385 22.88 8.48584 22.7064C8.48783 22.5327 8.52459 22.3613 8.59397 22.2021C8.66334 22.0429 8.76391 21.8992 8.88973 21.7795L16.1857 14.4758C16.4292 14.2334 16.7589 14.0974 17.1025 14.0974C17.4461 14.0974 17.7758 14.2334 18.0193 14.4758ZM4.3791 16.0232C4.1381 15.7773 4.00311 15.4468 4.00311 15.1025C4.00311 14.7582 4.1381 14.4277 4.3791 14.1818L9.02126 9.53964C9.14136 9.4187 9.28419 9.32271 9.44154 9.25721C9.59889 9.19171 9.76765 9.15799 9.93809 9.15799C10.1085 9.15799 10.2773 9.19171 10.4346 9.25721C10.592 9.32271 10.7348 9.4187 10.8549 9.53964C11.0959 9.7855 11.2309 10.1161 11.2309 10.4603C11.2309 10.8046 11.0959 11.1352 10.8549 11.381L6.21275 16.0232C5.96918 16.2656 5.63954 16.4016 5.29592 16.4016C4.95231 16.4016 4.62267 16.2656 4.3791 16.0232Z" fill="#242328"/>
<path fill-rule="evenodd" clip-rule="evenodd" d="M18.4913 7.9613C18.7337 8.20487 18.8697 8.53451 18.8697 8.87813C18.8697 9.22174 18.7337 9.55138 18.4913 9.79495L13.8491 14.4371C13.7294 14.5629 13.5857 14.6635 13.4265 14.7329C13.2673 14.8023 13.0959 14.839 12.9222 14.841C12.7486 14.843 12.5763 14.8102 12.4155 14.7445C12.2548 14.6788 12.1088 14.5815 11.9863 14.4585C11.8637 14.3354 11.7671 14.189 11.7021 14.028C11.6371 13.867 11.605 13.6946 11.6077 13.5209C11.6104 13.3473 11.6479 13.176 11.7179 13.0171C11.788 12.8581 11.8891 12.7149 12.0155 12.5957L16.6576 7.95356C16.7777 7.83262 16.9206 7.73664 17.0779 7.67114C17.2353 7.60564 17.404 7.57191 17.5745 7.57191C17.7449 7.57191 17.9137 7.60564 18.071 7.67114C18.2284 7.73664 18.3712 7.83262 18.4913 7.95356" fill="#A573FF"/>
</g>
<defs>
<clipPath id="clip0_5_13938">
<rect width="24" height="24" fill="white"/>
</clipPath>
</defs>
</svg>
