<svg width="24" height="24" viewBox="0 0 24 24" fill="none" xmlns="http://www.w3.org/2000/svg">
<g clip-path="url(#clip0_5_13931)">
<path d="M0 0H24V24H0V0Z" fill="#EFD96F"/>
<path d="M17.076 8.784C14.34 8.784 12.084 10.98 10.044 12.804C9.456 12.288 8.796 11.652 8.292 11.052C8.244 10.992 8.172 10.98 8.136 11.004C8.088 11.04 8.076 11.112 8.124 11.16C8.592 11.736 9.216 12.432 9.804 13.02C8.712 14.052 7.044 15.3 5.7 15.3C2.988 15.3 2.976 11.544 5.352 10.836C5.46 10.812 5.46 10.68 5.352 10.716C2.244 11.484 2.412 15.864 5.76 15.864C7.356 15.864 8.82 14.796 10.296 13.536C11.892 14.976 13.908 16.152 16.5 16.152C23.076 16.152 22.884 8.784 17.076 8.784ZM16.452 15.588C14.376 15.576 12.36 14.664 10.596 13.284C12.6 11.544 14.628 9.552 17.016 9.552C21.672 9.552 21.792 15.624 16.452 15.588Z" fill="#333333"/>
<path d="M6.76801 11.292C7.29821 11.292 7.72801 10.8622 7.72801 10.332C7.72801 9.8018 7.29821 9.37199 6.76801 9.37199C6.23782 9.37199 5.80801 9.8018 5.80801 10.332C5.80801 10.8622 6.23782 11.292 6.76801 11.292Z" fill="#333333"/>
</g>
<defs>
<clipPath id="clip0_5_13931">
<rect width="24" height="24" fill="white"/>
</clipPath>
</defs>
</svg>
