<svg width="24" height="24" viewBox="0 0 24 24" fill="none" xmlns="http://www.w3.org/2000/svg">
<g clip-path="url(#clip0_5_13872)">
<path d="M12 24C18.6274 24 24 18.6274 24 12C24 5.37258 18.6274 0 12 0C5.37258 0 0 5.37258 0 12C0 18.6274 5.37258 24 12 24Z" fill="#14C8FF"/>
<path d="M18.81 8.6085C19.2847 8.99325 19.584 9.789 19.479 10.3732L18.459 16.0162C18.3525 16.6042 17.79 17.2515 17.211 17.4548L11.6467 19.4085C11.0677 19.6118 10.2067 19.4648 9.73275 19.08L5.18925 15.3923C4.7145 15.0075 4.4145 14.2155 4.52175 13.6275L5.54175 7.9845C5.6475 7.3965 6.21 6.75 6.78975 6.546L12.3547 4.5915C12.9345 4.3875 13.7947 4.536 14.2695 4.92L18.81 8.6085ZM14.0767 11.142L14.3032 9.9945L12.1792 9.99825L12.4792 8.48625H11.793C11.298 9.24485 10.577 9.82863 9.732 10.155L9.53925 11.1442H10.4677C10.4677 11.1442 10.1535 12.5647 10.0477 13.089C9.78525 14.424 10.4452 15.3705 11.4592 15.3705H13.1752L13.4752 14.103H12.0397C11.4022 14.103 11.436 13.7542 11.5597 13.1355L11.955 11.139L14.0767 11.142Z" fill="white"/>
</g>
<defs>
<clipPath id="clip0_5_13872">
<rect width="24" height="24" fill="white"/>
</clipPath>
</defs>
</svg>
