<svg width="24" height="24" viewBox="0 0 24 24" fill="none" xmlns="http://www.w3.org/2000/svg">
<g clip-path="url(#clip0_5_13853)">
<path d="M12 24C18.6274 24 24 18.6274 24 12C24 5.37258 18.6274 0 12 0C5.37258 0 0 5.37258 0 12C0 18.6274 5.37258 24 12 24Z" fill="white"/>
<path d="M17.6334 15.5429C17.4686 15.5356 17.305 15.5112 17.1451 15.4703C15.9182 15.147 15.4236 13.9791 15.4236 13.9791C15.202 13.5296 15.0865 12.9552 15.0367 12.3517H16.8858V10.4175H15.0529C15.0975 9.87078 15.1636 9.39562 15.2134 9.08404C15.2647 8.75099 15.398 8.43594 15.6014 8.16726C16.8149 6.57856 19.0309 7.30271 19.0309 7.30271V5.29695C15.776 5.0936 14.4705 6.68784 14.3675 6.82133L14.3516 6.84104C13.531 7.80934 13.2484 9.27182 13.162 10.4151H12.0498V5.11055H10.1156V10.4175H8.39377V4.82767H6.45994V10.4175H4.45418V12.3517H6.45994V20.0877H8.39377V12.3517H10.1156V16.4324H12.0498V12.3517H13.1716C13.3878 15.2144 15.1632 16.3612 15.1632 16.3612C16.6727 17.4225 19.432 17.0452 19.432 17.0452V15.5357C19.1986 15.6135 18.0339 15.562 17.6334 15.5429Z" fill="url(#paint0_linear_5_13853)"/>
<path d="M12.0239 1.10663C11.9023 1.17412 11.77 1.21999 11.6327 1.24219C11.6327 1.24219 11.6978 1.10663 11.8935 1.09176C11.8935 1.09176 11.5874 0.98628 11.4519 0.83066C11.4519 0.83066 11.713 0.850718 11.9084 0.996309C11.9084 0.996309 11.6175 0.770488 11.5926 0.408413C11.5926 0.408413 11.9135 0.694407 11.9886 0.970026C11.9886 0.970026 11.8734 0.58409 12.0488 0.237923C12.0488 0.237923 12.1895 0.608989 12.074 0.975214C12.1812 0.762437 12.3398 0.579749 12.5353 0.443686C12.5353 0.443686 12.5052 0.754926 12.1795 1.00011C12.33 0.925927 12.4935 0.881651 12.6609 0.869738C12.6609 0.869738 12.4302 1.08069 12.1591 1.10559C12.2686 1.11096 12.3716 1.15974 12.4451 1.24115C12.4451 1.24115 12.1643 1.23147 12.0239 1.10663ZM14.3592 1.41406C14.2251 1.45119 14.0857 1.46476 13.947 1.45418C13.947 1.45418 14.0421 1.33798 14.2357 1.3691C14.2357 1.3691 13.9629 1.19619 13.8678 1.01222C13.8678 1.01222 14.1168 1.09279 14.2727 1.27988C14.2727 1.27988 14.0428 0.992505 14.1029 0.635271C14.1029 0.635271 14.3481 0.988355 14.3568 1.27435C14.3568 1.27435 14.335 0.871813 14.5867 0.576482C14.5867 0.576482 14.6362 0.970026 14.4384 1.29925C14.5924 1.1173 14.7893 0.976672 15.0114 0.890142C15.0114 0.890142 14.9094 1.18547 14.5349 1.3487C14.6986 1.31185 14.868 1.30715 15.0335 1.33487C15.0335 1.33487 14.76 1.48565 14.4906 1.44657C14.5958 1.47733 14.6844 1.54877 14.7368 1.64507C14.7368 1.64507 14.4664 1.56899 14.3592 1.41406ZM16.837 2.21118C16.6987 2.22033 16.5598 2.20548 16.4265 2.16726C16.4265 2.16726 16.5431 2.0725 16.7267 2.14201C16.7267 2.14201 16.4943 1.91654 16.4379 1.71838C16.4379 1.71838 16.6655 1.84738 16.7806 2.06213C16.7806 2.06213 16.6133 1.73429 16.744 1.39677C16.744 1.39677 16.9131 1.7917 16.864 2.07354C16.864 2.07354 16.9238 1.67481 17.2295 1.43619C17.2295 1.43619 17.1991 1.83181 16.939 2.11435C17.1264 1.96712 17.3477 1.86905 17.5826 1.82905C17.5826 1.82905 17.4232 2.09775 17.0237 2.18178C17.1916 2.1785 17.3585 2.20787 17.5152 2.26824C17.5152 2.26824 17.2167 2.36092 16.9618 2.26824C17.0587 2.31961 17.1312 2.40747 17.1631 2.51239C17.1631 2.51239 16.9107 2.38409 16.837 2.21118ZM18.7878 3.57717C18.6505 3.55409 18.5182 3.50728 18.397 3.43884C18.397 3.43884 18.5322 3.37314 18.6951 3.48276C18.6951 3.48276 18.5205 3.21026 18.5108 3.00415C18.5108 3.00415 18.7031 3.1819 18.766 3.41913C18.766 3.41913 18.6782 3.06155 18.8825 2.76207C18.8825 2.76207 18.9565 3.18536 18.8445 3.44853C18.8445 3.44853 18.9939 3.074 19.3463 2.91181C19.3463 2.91181 19.2259 3.2898 18.9081 3.50524C19.1243 3.40502 19.362 3.36022 19.5998 3.37487C19.5998 3.37487 19.3829 3.6 18.9749 3.59031C19.1396 3.62576 19.2959 3.69282 19.4352 3.78778C19.4352 3.78778 19.1239 3.80957 18.8953 3.66121C18.9772 3.73365 19.027 3.83565 19.0337 3.94478C19.0337 3.94478 18.8203 3.76253 18.7878 3.57717ZM20.3748 5.20841C20.2438 5.16201 20.1218 5.0932 20.0144 5.00507C20.0144 5.00507 20.159 4.96426 20.2997 5.10086C20.2997 5.10086 20.1763 4.80173 20.2032 4.59735C20.2032 4.59735 20.3606 4.80484 20.3813 5.04899C20.3813 5.04899 20.3578 4.68138 20.612 4.42374C20.612 4.42374 20.6099 4.8536 20.4533 5.09256C20.4533 5.09256 20.6663 4.75055 21.0412 4.65302C21.0412 4.65302 20.8558 5.00403 20.5051 5.15965C20.7356 5.09907 20.9775 5.09705 21.2089 5.15377C21.2089 5.15377 20.9561 5.33706 20.556 5.25545C20.7108 5.31917 20.8518 5.41243 20.971 5.53003C20.971 5.53003 20.6597 5.49544 20.4622 5.31008C20.5309 5.39566 20.5625 5.50508 20.5501 5.61406C20.5501 5.61406 20.3737 5.39689 20.3748 5.20841ZM21.5813 6.80576C21.4609 6.73612 21.3536 6.64601 21.2642 6.53948C21.2642 6.53948 21.4139 6.52599 21.5274 6.68611C21.5274 6.68611 21.4606 6.36934 21.5246 6.1736C21.5246 6.1736 21.6412 6.40772 21.6166 6.65014C21.6166 6.65014 21.6612 6.28461 21.9583 6.07781C21.9583 6.07781 21.8777 6.50006 21.6795 6.70617C21.6795 6.70617 21.9517 6.40876 22.3387 6.38178C22.3387 6.38178 22.0925 6.69302 21.719 6.7819C21.9562 6.76474 22.1939 6.80706 22.4106 6.90501C22.4106 6.90501 22.1284 7.03885 21.7501 6.88495C21.891 6.97593 22.0129 7.09337 22.1091 7.23078C22.1091 7.23078 21.8099 7.14086 21.6495 6.91954C21.7012 7.01629 21.7121 7.12971 21.6799 7.23458C21.6799 7.23458 21.5447 6.99078 21.5813 6.80576ZM22.4701 9.02593C22.3674 8.93239 22.2817 8.82169 22.2169 8.69879C22.2169 8.69879 22.366 8.71712 22.4428 8.89764C22.4428 8.89764 22.4448 8.57395 22.5486 8.39585C22.5486 8.39585 22.6133 8.64968 22.5379 8.88C22.5379 8.88 22.6586 8.5321 22.9926 8.39274C22.9926 8.39274 22.8246 8.78835 22.5873 8.94812C22.5873 8.94812 22.9162 8.71504 23.3004 8.77072C23.3004 8.77072 22.9937 9.02248 22.6088 9.03043C22.8448 9.06376 23.0687 9.15553 23.2603 9.29741C23.2603 9.29741 22.956 9.36864 22.6188 9.13833C22.737 9.25745 22.8309 9.39839 22.8954 9.55331C22.8954 9.55331 22.6219 9.40219 22.5116 9.15354C22.5416 9.25907 22.5283 9.37222 22.4746 9.46789C22.4746 9.46789 22.3964 9.19884 22.4701 9.02593ZM22.8242 11.1942C22.7512 11.0759 22.6994 10.9458 22.671 10.8097C22.671 10.8097 22.8093 10.8685 22.8335 11.0632C22.8335 11.0632 22.9245 10.7519 23.0756 10.6105C23.0756 10.6105 23.0673 10.8719 22.9311 11.0739C22.9311 11.0739 23.1431 10.773 23.5027 10.7315C23.5027 10.7315 23.2319 11.0652 22.9598 11.1531C22.9598 11.1531 23.3402 11.0199 23.694 11.1797C23.694 11.1797 23.3298 11.3367 22.9587 11.2385C23.1768 11.3354 23.367 11.4855 23.512 11.6749C23.512 11.6749 23.2008 11.659 22.9397 11.3447C23.0207 11.4917 23.0725 11.6531 23.0922 11.8198C23.0922 11.8198 22.8712 11.5988 22.8335 11.3295C22.8334 11.4391 22.7895 11.5442 22.7115 11.6213C22.7115 11.6213 22.7052 11.3402 22.8242 11.1942ZM22.6565 13.6945C22.6211 13.56 22.6094 13.4204 22.6219 13.282C22.6219 13.282 22.7371 13.3788 22.7032 13.5721C22.7032 13.5721 22.8809 13.3017 23.0652 13.209C23.0652 13.209 22.9812 13.4566 22.792 13.6101C22.792 13.6101 23.0825 13.384 23.4387 13.449C23.4387 13.449 23.0822 13.6893 22.7962 13.6942C22.7962 13.6942 23.1991 13.6779 23.491 13.9335C23.491 13.9335 23.0967 13.9778 22.7703 13.7754C22.9497 13.9325 23.0871 14.1318 23.17 14.3554C23.17 14.3554 22.8761 14.2496 22.7205 13.8712C22.7551 14.0355 22.7575 14.205 22.7277 14.3703C22.7277 14.3703 22.5808 14.0936 22.624 13.8259C22.5914 13.9302 22.5187 14.0172 22.422 14.068C22.422 14.068 22.5002 13.801 22.6565 13.6945ZM21.9832 16.2149C21.9635 16.0768 21.968 15.9364 21.9967 15.7999C21.9967 15.7999 22.1004 15.9092 22.044 16.0973C22.044 16.0973 22.2515 15.8493 22.4452 15.7784C22.4452 15.7784 22.3331 16.015 22.1274 16.1454C22.1274 16.1454 22.4424 15.9545 22.7886 16.0603C22.7886 16.0603 22.4082 16.2578 22.1222 16.2294C22.1222 16.2294 22.524 16.2598 22.7844 16.5475C22.7844 16.5475 22.3878 16.5475 22.0869 16.3072C22.2476 16.4838 22.3616 16.6978 22.4186 16.9297C22.4186 16.9297 22.1388 16.7914 22.0261 16.3982C22.0414 16.5653 22.0243 16.7338 21.9756 16.8944C21.9756 16.8944 21.8614 16.6036 21.9348 16.3411C21.8907 16.4415 21.8085 16.5202 21.7062 16.5597C21.7062 16.5597 21.8158 16.301 21.9832 16.2149ZM20.8911 18.0941C20.9191 17.9578 20.9706 17.8274 21.0432 17.7088C21.0432 17.7088 21.1034 17.8471 20.9876 18.0048C20.9876 18.0048 21.2666 17.8416 21.4717 17.8402C21.4717 17.8402 21.2863 18.0249 21.0484 18.0785C21.0484 18.0785 21.4095 18.0048 21.6996 18.2213C21.6996 18.2213 21.2735 18.2784 21.0152 18.1556C21.0152 18.1556 21.3832 18.3199 21.5312 18.6788C21.5312 18.6788 21.158 18.5433 20.9557 18.2168C21.0477 18.4369 21.0833 18.6764 21.0595 18.9137C21.0595 18.9137 20.8433 18.6878 20.8696 18.2805C20.8275 18.4427 20.7544 18.5954 20.6545 18.73C20.6545 18.73 20.6452 18.4188 20.8025 18.1957C20.7272 18.2755 20.6231 18.3218 20.5134 18.3244C20.5134 18.3244 20.7043 18.1186 20.8911 18.0941ZM19.366 19.9719C19.4025 19.8378 19.462 19.711 19.542 19.5973C19.542 19.5973 19.5935 19.7384 19.468 19.8892C19.468 19.8892 19.7568 19.7433 19.9625 19.7547C19.9625 19.7547 19.7665 19.9276 19.5258 19.9663C19.5258 19.9663 19.8903 19.9155 20.1666 20.1493C20.1666 20.1493 19.7378 20.1797 19.4877 20.0414C19.4877 20.0414 19.845 20.2281 19.9719 20.5947C19.9719 20.5947 19.6081 20.4363 19.4262 20.0981C19.504 20.3234 19.5243 20.5646 19.4853 20.7998C19.4853 20.7998 19.2833 20.5612 19.3349 20.1562C19.2831 20.3158 19.2009 20.4639 19.0928 20.5923C19.0928 20.5923 19.1028 20.281 19.2737 20.0684C19.1935 20.1432 19.0868 20.1829 18.9773 20.1787C18.9773 20.1787 19.1775 19.985 19.366 19.9719ZM17.7534 21.1988C17.8141 21.0737 17.896 20.9601 17.9955 20.8631C17.9955 20.8631 18.0201 21.0114 17.8686 21.1363C17.8686 21.1363 18.1798 21.0467 18.3797 21.0961C18.3797 21.0961 18.1546 21.2296 17.9111 21.2227C17.9111 21.2227 18.2787 21.2403 18.507 21.5215C18.507 21.5215 18.0799 21.472 17.8599 21.2895C17.8599 21.2895 18.176 21.5391 18.2314 21.9233C18.2314 21.9233 17.9032 21.7003 17.787 21.3354C17.8217 21.5712 17.797 21.8119 17.715 22.0357C17.715 22.0357 17.5608 21.7639 17.6867 21.3756C17.6061 21.5228 17.4977 21.6529 17.3675 21.7587C17.3675 21.7587 17.4367 21.4537 17.6424 21.2777C17.5499 21.3361 17.4379 21.3554 17.3312 21.3313C17.3312 21.3313 17.5677 21.1771 17.7534 21.1988ZM15.6923 22.2048C15.7695 22.0892 15.8663 21.988 15.9783 21.9057C15.9783 21.9057 15.9825 22.0558 15.8151 22.1585C15.8151 22.1585 16.1357 22.1125 16.3269 22.1889C16.3269 22.1889 16.0848 22.2903 15.8455 22.2501C15.8455 22.2501 16.2073 22.3193 16.3947 22.6278C16.3947 22.6278 15.9797 22.5202 15.7854 22.3093C15.7854 22.3093 16.0648 22.6001 16.0665 22.9881C16.0665 22.9881 15.7722 22.7222 15.7072 22.3439C15.7092 22.5821 15.6517 22.8171 15.5398 23.0275C15.5398 23.0275 15.4247 22.7374 15.6021 22.3705C15.5021 22.5052 15.3769 22.6193 15.2334 22.7063C15.2334 22.7063 15.3424 22.4137 15.572 22.2674C15.4722 22.3128 15.3585 22.3165 15.2559 22.2778C15.2559 22.2778 15.5101 22.1575 15.6923 22.2048ZM13.3449 22.8733C13.4443 22.7761 13.5598 22.6969 13.6862 22.6392C13.6862 22.6392 13.6593 22.7869 13.4746 22.8533C13.4746 22.8533 13.7976 22.8737 13.9695 22.9878C13.9695 22.9878 13.7125 23.0376 13.4853 22.9494C13.4853 22.9494 13.8256 23.0898 13.9456 23.4311C13.9456 23.4311 13.56 23.2406 13.4144 22.9947C13.4144 22.9947 13.6281 23.3364 13.5507 23.7168C13.5507 23.7168 13.3169 23.3962 13.3307 23.0123C13.284 23.2461 13.1797 23.4645 13.0271 23.6476C13.0271 23.6476 12.9735 23.3395 13.2228 23.0161C13.0973 23.1277 12.9513 23.2138 12.793 23.2696C12.793 23.2696 12.9597 23.0054 13.2142 22.9093C13.1073 22.9333 12.9953 22.9136 12.9029 22.8546C12.9029 22.8546 13.1758 22.7896 13.3449 22.8733ZM10.5361 22.8221C10.6624 22.7639 10.7978 22.7281 10.9363 22.7163C10.9363 22.7163 10.8612 22.8463 10.6651 22.847C10.6651 22.847 10.9625 22.9746 11.086 23.1399C11.086 23.1399 10.8273 23.1005 10.643 22.9407C10.643 22.9407 10.9165 23.1877 10.9145 23.5494C10.9145 23.5494 10.6157 23.2406 10.561 22.9598C10.561 22.9598 10.6475 23.3537 10.4466 23.686C10.4466 23.686 10.3342 23.3056 10.4767 22.949C10.3539 23.1533 10.1821 23.3237 9.97695 23.445C9.97695 23.445 10.0288 23.1354 10.3746 22.9158C10.219 22.9785 10.0527 23.0105 9.88496 23.0099C9.88496 23.0099 10.1305 22.8169 10.4037 22.8121C10.2943 22.799 10.1947 22.7427 10.127 22.6558C10.127 22.6558 10.4054 22.6859 10.5361 22.8221ZM8.25026 22.2709C8.38913 22.2653 8.52792 22.2839 8.66041 22.3259C8.66041 22.3259 8.54144 22.4175 8.35989 22.3432C8.35989 22.3432 8.58571 22.5745 8.63654 22.7744C8.63654 22.7744 8.41245 22.6392 8.30317 22.4213C8.30317 22.4213 8.46156 22.7537 8.32185 23.0877C8.32185 23.0877 8.16346 22.688 8.22017 22.4078C8.22017 22.4078 8.15101 22.8045 7.83735 23.0348C7.83735 23.0348 7.87885 22.6402 8.14652 22.365C7.95506 22.5069 7.73126 22.5989 7.49533 22.6326C7.49533 22.6326 7.66167 22.3681 8.06352 22.2951C7.89571 22.2937 7.72976 22.2598 7.57487 22.1952C7.57487 22.1952 7.87539 22.1108 8.12819 22.21C8.03269 22.1561 7.96261 22.0664 7.93349 21.9607C7.93349 21.9607 8.1811 22.0956 8.25026 22.2709ZM6.13799 21.1643C6.27672 21.1735 6.4128 21.2067 6.54018 21.2625C6.54018 21.2625 6.41188 21.341 6.23931 21.2476C6.23931 21.2476 6.43954 21.5018 6.46928 21.7058C6.46928 21.7058 6.26179 21.5478 6.17499 21.3195C6.17499 21.3195 6.29741 21.6654 6.12311 21.9842C6.12311 21.9842 6.00796 21.5692 6.09407 21.2974C6.09407 21.2974 5.98202 21.6844 5.64692 21.8801C5.64692 21.8801 5.72992 21.4921 6.02525 21.2469C5.8198 21.3679 5.58742 21.4356 5.34917 21.444C5.34917 21.444 5.54283 21.1988 5.9502 21.1674C5.78343 21.1482 5.62195 21.0969 5.4747 21.0163C5.4747 21.0163 5.78283 20.964 6.02421 21.0896C5.93489 21.0259 5.87475 20.9291 5.85718 20.8209C5.85718 20.8209 6.08646 20.9831 6.13799 21.1643ZM4.29822 19.559C4.43529 19.5821 4.56728 19.6289 4.6883 19.6973C4.6883 19.6973 4.55274 19.7623 4.39055 19.652C4.39055 19.652 4.56346 19.9252 4.57211 20.1313C4.57211 20.1313 4.38121 19.9525 4.31931 19.7163C4.31931 19.7163 4.40542 20.0742 4.19931 20.3734C4.19931 20.3734 4.12738 19.9497 4.24081 19.6873C4.24081 19.6873 4.08969 20.0611 3.73626 20.2216C3.73626 20.2216 3.85868 19.8439 4.17752 19.6302C3.96108 19.7292 3.72337 19.7727 3.48588 19.7568C3.48588 19.7568 3.70375 19.533 4.11182 19.5448C3.94795 19.5087 3.79268 19.441 3.65464 19.3456C3.65464 19.3456 3.96588 19.3255 4.19343 19.4749C4.11128 19.4024 4.06149 19.3001 4.0551 19.1907C4.0551 19.1907 4.26675 19.3733 4.29822 19.559ZM2.94536 17.8963C3.06569 17.9658 3.173 18.0558 3.26248 18.1622C3.26248 18.1622 3.11274 18.176 2.99931 18.0159C2.99931 18.0159 3.0664 18.3323 3.00242 18.5284C3.00242 18.5284 2.88554 18.2943 2.90974 18.0519C2.90974 18.0519 2.86582 18.4174 2.56876 18.6246C2.56876 18.6246 2.64899 18.2023 2.84542 17.9958C2.84542 17.9958 2.57326 18.2933 2.18629 18.3206C2.18629 18.3206 2.43251 18.0093 2.806 17.9201C2.56886 17.9375 2.33113 17.8954 2.11435 17.7977C2.11435 17.7977 2.39654 17.6635 2.77487 17.8171C2.63395 17.726 2.51194 17.6086 2.41556 17.4712C2.41556 17.4712 2.71505 17.5608 2.87551 17.7804C2.82379 17.6838 2.81283 17.5705 2.84507 17.4657C2.84507 17.4657 2.98064 17.7112 2.94536 17.8963ZM1.91378 15.9987C2.0294 16.0757 2.13074 16.1723 2.21326 16.284C2.21326 16.284 2.06283 16.2885 1.95977 16.1215C1.95977 16.1215 2.00646 16.4417 1.93072 16.6333C1.93072 16.6333 1.82698 16.3912 1.86813 16.1519C1.86813 16.1519 1.80104 16.514 1.49188 16.7021C1.49188 16.7021 1.59839 16.2871 1.80899 16.0921C1.80899 16.0921 1.51885 16.3719 1.13084 16.375C1.13084 16.375 1.39608 16.0797 1.77441 16.0139C1.53604 16.0167 1.30076 15.9598 1.09003 15.8483C1.09003 15.8483 1.38018 15.7321 1.74709 15.9092C1.61211 15.8094 1.49772 15.6845 1.41026 15.5412C1.41026 15.5412 1.70352 15.6495 1.85015 15.8784C1.8045 15.7787 1.80052 15.6649 1.83908 15.5623C1.83908 15.5623 1.96081 15.8165 1.91378 15.9987ZM1.31412 13.8329C1.4036 13.9396 1.47382 14.061 1.52162 14.1918C1.52162 14.1918 1.37637 14.1531 1.32484 13.9639C1.32484 13.9639 1.27885 14.2841 1.15193 14.4463C1.15193 14.4463 1.12288 14.1866 1.22871 13.967C1.22871 13.967 1.06167 14.2952 0.711703 14.3875C0.711703 14.3875 0.932337 14.0186 1.18928 13.893C1.18928 13.893 0.831357 14.0787 0.458562 13.9712C0.458562 13.9712 0.796775 13.7637 1.17822 13.8083C0.947572 13.7429 0.737082 13.6205 0.566112 13.4524C0.566112 13.4524 0.877351 13.4234 1.17994 13.6976C1.07854 13.5634 1.00429 13.4107 0.961386 13.2481C0.961386 13.2481 1.21141 13.4352 1.28715 13.6976C1.27177 13.589 1.30027 13.4788 1.36634 13.3912C1.36634 13.3912 1.40922 13.67 1.31412 13.8329ZM1.12461 11.5328C1.19169 11.6546 1.23698 11.7872 1.25845 11.9246C1.25845 11.9246 1.12323 11.8586 1.10905 11.6632C1.10905 11.6632 1.00219 11.9685 0.846227 12.1031C0.846227 12.1031 0.867323 11.8427 1.0136 11.6476C1.0136 11.6476 0.786746 11.9374 0.425709 11.9609C0.425709 11.9609 0.713086 11.641 0.989397 11.567C0.989397 11.567 0.602769 11.6808 0.257294 11.5037C0.257294 11.5037 0.629052 11.3654 0.994931 11.482C0.78244 11.3739 0.60032 11.2145 0.465132 11.0182C0.465132 11.0182 0.776372 11.0497 1.01845 11.3768C0.945269 11.2254 0.902278 11.0612 0.891876 10.8934C0.891876 10.8934 1.10144 11.1251 1.12531 11.3958C1.13146 11.2861 1.18127 11.1834 1.26363 11.1105C1.26363 11.1105 1.25049 11.3927 1.12461 11.5328ZM1.54237 9.12691C1.59116 9.25715 1.61691 9.39488 1.61845 9.53395C1.61845 9.53395 1.4943 9.44957 1.50813 9.25383C1.50813 9.25383 1.35908 9.54086 1.18513 9.65187C1.18513 9.65187 1.24358 9.397 1.41614 9.22478C1.41614 9.22478 1.1502 9.47931 0.789167 9.45095C0.789167 9.45095 1.11908 9.17429 1.40335 9.14178C1.40335 9.14178 1.00427 9.19885 0.687841 8.97441C0.687841 8.97441 1.07551 8.89003 1.42064 9.0581C1.226 8.92066 1.06864 8.73692 0.962769 8.52346C0.962769 8.52346 1.26605 8.59885 1.4611 8.95781C1.40991 8.79792 1.39018 8.62964 1.403 8.46225C1.403 8.46225 1.57591 8.72127 1.56242 8.99308C1.58359 8.88546 1.64699 8.7908 1.73845 8.73026C1.73845 8.73026 1.68692 9.00657 1.54237 9.12691ZM2.47332 6.76772C2.47737 6.90676 2.45713 7.04544 2.41349 7.17752C2.41349 7.17752 2.32323 7.05717 2.4 6.87666C2.4 6.87666 2.16554 7.10006 1.96531 7.14882C1.96531 7.14882 2.10363 6.92645 2.32219 6.81959C2.32219 6.81959 1.98813 6.97418 1.6558 6.83032C1.6558 6.83032 2.05729 6.67677 2.33672 6.7366C2.33672 6.7366 1.94075 6.66155 1.71424 6.34651C1.71424 6.34651 2.10813 6.39251 2.38029 6.66328C2.24057 6.47019 2.15119 6.24531 2.12023 6.00899C2.12023 6.00899 2.38271 6.17879 2.45118 6.58132C2.45437 6.41348 2.49019 6.24787 2.55666 6.09372C2.55666 6.09372 2.63758 6.39562 2.53556 6.64703C2.59052 6.55225 2.68101 6.48329 2.78698 6.45544C2.78698 6.45544 2.64899 6.70063 2.47332 6.76772ZM3.88012 4.84668C3.85537 4.98348 3.80691 5.11491 3.73695 5.23504C3.73695 5.23504 3.67366 5.09879 3.78571 4.93798C3.78571 4.93798 3.50905 5.10778 3.30433 5.114C3.30433 5.114 3.48519 4.92519 3.72173 4.86605C3.72173 4.86605 3.36277 4.94801 3.06744 4.73844C3.06744 4.73844 3.49211 4.67135 3.7532 4.78789C3.7532 4.78789 3.3811 4.63227 3.22479 4.27746C3.22479 4.27746 3.60104 4.40403 3.81268 4.7253C3.71591 4.50745 3.67502 4.26889 3.69372 4.03124C3.69372 4.03124 3.91539 4.25153 3.89879 4.65959C3.93687 4.49611 4.00628 4.34156 4.10317 4.20449C4.10317 4.20449 4.11977 4.51573 3.96761 4.7419C4.04115 4.66052 4.14405 4.61175 4.2536 4.60634C4.2536 4.60634 4.06617 4.81729 3.88012 4.84668ZM5.48784 3.26593C5.43487 3.39449 5.35985 3.51281 5.26617 3.61556C5.26617 3.61556 5.23159 3.46893 5.37649 3.33544C5.37649 3.33544 5.07147 3.44369 4.86882 3.40461C4.86882 3.40461 5.08531 3.25798 5.32876 3.24968C5.32876 3.24968 4.96081 3.25452 4.71597 2.98755C4.71597 2.98755 5.14548 3.01141 5.37614 3.18017C5.37614 3.18017 5.04519 2.94985 4.96703 2.5698C4.96703 2.5698 5.30801 2.77279 5.446 3.13106C5.39708 2.89779 5.4073 2.65598 5.47574 2.42766C5.47574 2.42766 5.64588 2.6898 5.5449 3.08472C5.61641 2.93292 5.71671 2.79645 5.84023 2.68288C5.84023 2.68288 5.79113 2.99135 5.5947 3.17948C5.68377 3.1155 5.79464 3.08962 5.90283 3.10755C5.90283 3.10755 5.67597 3.27665 5.48784 3.26593ZM7.23355 2.14409C7.16649 2.26589 7.07886 2.37517 6.97453 2.46709C6.97453 2.46709 6.95758 2.31769 7.11493 2.2008C7.11493 2.2008 6.80023 2.27481 6.60277 2.21533C6.60277 2.21533 6.83412 2.09325 7.07689 2.11158C7.07689 2.11158 6.71067 2.077 6.49695 1.78374C6.49695 1.78374 6.92093 1.85291 7.13153 2.04761C7.13153 2.04761 6.8279 1.78236 6.79193 1.39608C6.79193 1.39608 7.10871 1.63539 7.20692 2.00645C7.18461 1.77042 7.2212 1.53253 7.31343 1.31412C7.31343 1.31412 7.45349 1.5932 7.30894 1.97498C7.39677 1.83198 7.51151 1.70737 7.6468 1.60807C7.6468 1.60807 7.56381 1.90928 7.34801 2.07493C7.44347 2.02103 7.55645 2.00735 7.66202 2.03689C7.66202 2.03689 7.41925 2.1766 7.23355 2.14409ZM9.41672 1.39919C9.32176 1.5007 9.2099 1.58495 9.08611 1.64818C9.08611 1.64818 9.10652 1.49913 9.28807 1.42478C9.28807 1.42478 8.96438 1.41856 8.78801 1.31204C8.78801 1.31204 9.04219 1.25118 9.27216 1.32968C9.27216 1.32968 8.92634 1.20415 8.79113 0.868009C8.79113 0.868009 9.18433 1.04092 9.34064 1.28127C9.34064 1.28127 9.11239 0.948931 9.17326 0.565761C9.17326 0.565761 9.42087 0.877001 9.42329 1.25982C9.46009 1.02424 9.55519 0.801581 9.69994 0.612101C9.69994 0.612101 9.76669 0.917462 9.53188 1.25118C9.65234 1.13437 9.79433 1.04206 9.94997 0.979364C9.94997 0.979364 9.79574 1.25083 9.54467 1.35769C9.65054 1.32919 9.7634 1.34399 9.85833 1.39884C9.85833 1.39884 9.58894 1.47562 9.41672 1.39919Z" fill="#467A54"/>
</g>
<defs>
<linearGradient id="paint0_linear_5_13853" x1="4.45487" y1="1.45061e-06" x2="19.432" y2="1.45061e-06" gradientUnits="userSpaceOnUse">
<stop stop-color="#58B27A"/>
<stop offset="0.05" stop-color="#56AA75"/>
<stop offset="0.32" stop-color="#4A875D"/>
<stop offset="0.46" stop-color="#467A54"/>
<stop offset="1" stop-color="#466454"/>
</linearGradient>
<clipPath id="clip0_5_13853">
<rect width="24" height="24" fill="white"/>
</clipPath>
</defs>
</svg>
