<svg width="24" height="24" viewBox="0 0 24 24" fill="none" xmlns="http://www.w3.org/2000/svg">
<g clip-path="url(#clip0_5_13748)">
<path fill-rule="evenodd" clip-rule="evenodd" d="M24 12C24 18.6274 18.6274 24 12 24C5.37262 24 0 18.6274 0 12C0 5.37262 5.37262 0 12 0C18.6274 0 24 5.37262 24 12Z" fill="#EF494D"/>
<path fill-rule="evenodd" clip-rule="evenodd" d="M5.08946 8.34395H4.25357C4.04612 8.34395 3.87799 8.51208 3.87799 8.71953V9.5954C3.87799 9.80284 4.04612 9.97098 4.25357 9.97098H5.08946C5.29691 9.97098 5.46504 9.80284 5.46504 9.5954V8.71953C5.46504 8.51208 5.29691 8.34395 5.08946 8.34395Z" fill="white"/>
<path fill-rule="evenodd" clip-rule="evenodd" d="M6.02844 8.71953V15.2805C6.02844 15.4879 6.19657 15.6561 6.40402 15.6561H7.58559C7.79304 15.6561 7.96117 15.4879 7.96117 15.2805V10.1587C7.96117 10.055 8.04524 9.97098 8.14893 9.97098H9.73107C9.93852 9.97098 10.1067 9.80284 10.1067 9.5954V8.71953C10.1067 8.51208 9.93852 8.34395 9.73107 8.34395H6.40402C6.19657 8.34395 6.02844 8.51208 6.02844 8.71953Z" fill="white"/>
<path fill-rule="evenodd" clip-rule="evenodd" d="M13.5594 15.6561H15.0589C15.121 15.6561 15.1792 15.6253 15.2141 15.574L16.4898 13.7006C16.5645 13.5911 16.726 13.5912 16.8004 13.7009L18.072 15.5738C18.107 15.6252 18.1652 15.6561 18.2274 15.6561H19.7458C20.05 15.6561 20.228 15.3132 20.0529 15.0643L17.9004 12.0056C17.8554 11.9418 17.8547 11.8568 17.8985 11.7921L19.8398 8.93036C20.0089 8.68094 19.8303 8.34395 19.5289 8.34395H18.069C18.0078 8.34395 17.9504 8.37378 17.9153 8.42384L13.2521 15.0647C13.0773 15.3135 13.2553 15.6561 13.5594 15.6561Z" fill="white"/>
<path fill-rule="evenodd" clip-rule="evenodd" d="M12.5746 15.2805V8.71953C12.5746 8.51208 12.4065 8.34395 12.199 8.34395H11.0175C10.81 8.34395 10.6419 8.51208 10.6419 8.71953V15.2805C10.6419 15.4879 10.81 15.6561 11.0175 15.6561H12.199C12.4065 15.6561 12.5746 15.4879 12.5746 15.2805Z" fill="white"/>
<path fill-rule="evenodd" clip-rule="evenodd" d="M16.288 9.76567L15.4038 8.42816C15.3691 8.37559 15.3102 8.34396 15.2472 8.34396H13.7788C13.4767 8.34396 13.2982 8.68275 13.4692 8.93196L14.3847 10.2668C14.4198 10.3179 14.4777 10.3484 14.5396 10.3484H15.9747C16.274 10.3484 16.4531 10.0153 16.288 9.76567Z" fill="white"/>
</g>
<defs>
<clipPath id="clip0_5_13748">
<rect width="24" height="24" fill="white"/>
</clipPath>
</defs>
</svg>
