<svg width="24" height="24" viewBox="0 0 24 24" fill="none" xmlns="http://www.w3.org/2000/svg">
<path fill-rule="evenodd" clip-rule="evenodd" d="M9.13609 7.02595V7.15668C9.13609 9.31922 11.9159 10.4732 12.0025 10.5088V2.54868C11.9159 2.63169 9.13609 5.29626 9.13609 7.02595Z" fill="#5CFF96"/>
<path fill-rule="evenodd" clip-rule="evenodd" d="M12.0027 2.54858V10.509C12.0899 10.4734 14.8691 9.3194 14.8691 7.15658V7.02585C14.8691 5.29643 12.0899 2.63159 12.0027 2.54858Z" fill="#00B269"/>
<path fill-rule="evenodd" clip-rule="evenodd" d="M11.9497 10.3267C11.9497 10.3267 10.7813 9.23961 8.57503 9.38728C6.36816 9.53523 5.36355 12.5293 3.9659 12.4313C3.9659 12.4313 6.37635 14.392 8.45898 14.7328C10.3352 15.0194 12.2761 13.6214 11.9497 10.3267Z" fill="#5CFF96"/>
<path fill-rule="evenodd" clip-rule="evenodd" d="M12.0038 10.2482C12.0038 10.2482 12.4897 9.76424 13.6502 9.50335C14.1033 9.4017 14.6409 9.34579 15.2604 9.3873C17.467 9.53525 18.4716 12.5293 19.8695 12.4313C19.8695 12.4313 17.4588 14.3917 15.3765 14.7328C13.8523 14.9655 12.2855 14.0868 11.9258 11.9833C11.8428 11.4968 11.9425 10.8668 12.0038 10.2482Z" fill="#00B269"/>
<path fill-rule="evenodd" clip-rule="evenodd" d="M11.9187 20.0888L1.94341 14.3296V4.8341L11.9187 -6.10352e-05L21.8939 4.8341V14.3296L11.9187 20.0888ZM2.96666 13.739L11.9187 18.9074L20.8707 13.739V5.47504L11.9187 1.13697L2.96666 5.47504V13.739Z" fill="#241F21"/>
<mask id="mask0_5_13727" style="mask-type:alpha" maskUnits="userSpaceOnUse" x="1" y="0" width="21" height="24">
<path d="M1.92 23.9748H21.9154V-6.10352e-05H1.92V23.9748Z" fill="white"/>
</mask>
<g mask="url(#mask0_5_13727)">
<path fill-rule="evenodd" clip-rule="evenodd" d="M11.6922 19.4981H12.1722V10.2482H11.6922V19.4981Z" fill="#241F21"/>
<path fill-rule="evenodd" clip-rule="evenodd" d="M11.9795 23.4215L1.92008 17.6137V18.1672L11.9795 23.9749L21.9152 18.2383V17.6849L11.9795 23.4215Z" fill="#54BD87"/>
<path fill-rule="evenodd" clip-rule="evenodd" d="M1.91997 16.4935V17.0469L11.9794 22.8549L21.9154 17.1183V16.5649L11.9794 22.3012L1.91997 16.4935Z" fill="#54BD87"/>
<path fill-rule="evenodd" clip-rule="evenodd" d="M11.9795 21.7345L21.9152 15.9979V15.4445L11.9795 21.1811L1.92008 15.3734V15.9268L11.9795 21.7345Z" fill="#54BD87"/>
<path fill-rule="evenodd" clip-rule="evenodd" d="M11.9177 10.7742L2.3485 5.69294L2.5597 5.2951L11.9177 10.264L21.2757 5.2951L21.4869 5.69294L11.9177 10.7742Z" fill="#241F21"/>
</g>
</svg>
