<svg width="24" height="24" viewBox="0 0 24 24" fill="none" xmlns="http://www.w3.org/2000/svg">
<g clip-path="url(#clip0_5_13706)">
<path d="M16.8752 0H7.12483C3.1899 0 0 3.1899 0 7.12483V16.8324C0 20.7674 3.1899 23.9573 7.12483 23.9573H16.8752C20.8101 23.9573 24 20.7674 24 16.8324V7.12483C24 3.1899 20.8101 0 16.8752 0Z" fill="black"/>
<path d="M16.8752 0H7.12483C3.1899 0 0 3.1899 0 7.12483V16.8324C0 20.7674 3.1899 23.9573 7.12483 23.9573H16.8752C20.8101 23.9573 24 20.7674 24 16.8324V7.12483C24 3.1899 20.8101 0 16.8752 0Z" fill="#2CC981"/>
<path fill-rule="evenodd" clip-rule="evenodd" d="M16.2909 3.71561L20.1526 7.70907H12.3153L16.2909 3.71561ZM8.09738 11.8593L3.96854 7.7447L7.97269 3.75123L20.1775 15.9846L16.1342 19.9709L12.1407 15.9846L8.11875 19.9994L4.06828 15.9561L8.09738 11.8593Z" fill="white"/>
</g>
<defs>
<clipPath id="clip0_5_13706">
<rect width="24" height="24" fill="white"/>
</clipPath>
</defs>
</svg>
