<svg width="24" height="24" viewBox="0 0 24 24" fill="none" xmlns="http://www.w3.org/2000/svg">
<g clip-path="url(#clip0_5_13699)">
<path d="M12 24C18.6274 24 24 18.6274 24 12C24 5.37258 18.6274 0 12 0C5.37258 0 0 5.37258 0 12C0 18.6274 5.37258 24 12 24Z" fill="#3058A6"/>
<path d="M11.9963 20.421C7.34775 20.421 3.579 16.6522 3.579 12.0037C3.579 7.35525 7.34775 3.5865 11.9963 3.5865C16.6448 3.5865 20.4135 7.35525 20.4135 12.0037C20.4135 16.6522 16.6448 20.421 11.9963 20.421ZM11.9963 3.05025C7.059 3.05025 3.04276 7.0665 3.04276 12.0037C3.04276 16.941 7.059 20.9572 11.9963 20.9572C16.9335 20.9572 20.9498 16.941 20.9498 12.0037C20.9498 7.0665 16.9335 3.05025 11.9963 3.05025Z" fill="white"/>
<path fill-rule="evenodd" clip-rule="evenodd" d="M15.1492 15.2062L14.682 17.2305L14.5695 17.7202H14.067L11.4832 17.7187H11.4727C10.437 17.7015 9.62399 17.4262 9.09074 16.9402C9.55124 17.7525 10.5292 18.2227 11.8942 18.2452H11.9047L14.4877 18.2467H14.9902L15.1035 17.757L15.5707 15.7327L15.2062 14.9595L15.1492 15.2062ZM14.337 6.52799L13.968 5.76074L13.9155 6.00074L13.5652 7.59599H14.1022L14.337 6.52799ZM16.2022 8.37374L15.7372 10.3425L15.6217 10.8285H12.822L12.111 14.0745C12.096 14.1675 12.087 14.262 12.087 14.3145C12.087 14.3602 12.0922 14.3895 12.0967 14.4037C12.1502 14.4238 12.2069 14.4334 12.264 14.4322H12.57L13.2435 11.3557H16.0432L16.158 10.869L16.623 8.90024L16.2615 8.12324L16.2015 8.37374H16.2022ZM9.25574 10.8285H7.30499L7.97699 11.3557H9.14099L9.25574 10.8285Z" fill="white"/>
<path fill-rule="evenodd" clip-rule="evenodd" d="M12.3255 15.0645H12.2543C11.7113 15.0502 11.4548 14.7675 11.4548 14.3145C11.4548 14.2065 11.4728 14.0632 11.4908 13.956L12.3143 10.197H15.1223L15.5873 8.22824H12.7793L13.2983 5.86574H11.0078L10.488 8.22824H8.00251L7.55551 10.197H10.041L9.07351 14.6182C9.02101 14.8327 9.00226 15.0832 9.00226 15.2085C9.00226 16.47 9.99751 17.0625 11.4833 17.0872L14.0663 17.088L14.5335 15.0645H12.3255Z" fill="white"/>
</g>
<defs>
<clipPath id="clip0_5_13699">
<rect width="24" height="24" fill="white"/>
</clipPath>
</defs>
</svg>
