<svg width="24" height="24" viewBox="0 0 24 24" fill="none" xmlns="http://www.w3.org/2000/svg">
<g clip-path="url(#clip0_5_13691)">
<path fill-rule="evenodd" clip-rule="evenodd" d="M16.5358 15.871L21.0842 19.7419V19.6452C21.4713 19.1613 21.8584 18.5806 22.2455 18L17.1164 15C16.9229 15.2903 16.7293 15.5806 16.5358 15.871Z" fill="url(#paint0_linear_5_13691)"/>
<path fill-rule="evenodd" clip-rule="evenodd" d="M17.8906 12H23.7939V12.0968C23.7939 12.6774 23.6971 13.2581 23.6003 13.8387V14.0323V14.2258C23.5035 14.8065 23.31 15.3871 23.1164 15.9677V16.0645L17.5035 14.0323C17.7939 13.4516 17.8906 12.7742 17.8906 12Z" fill="url(#paint1_linear_5_13691)"/>
<path fill-rule="evenodd" clip-rule="evenodd" d="M22.3422 6C22.6326 6.58065 22.9229 7.16129 23.1164 7.74194L23.2132 7.83871V7.93549C23.4068 8.51613 23.6003 9.09678 23.6971 9.67742V9.7742L17.8906 10.8387C17.6971 9.7742 17.31 8.80645 16.6326 8.03226L21.181 4.16129V4.25807C21.5681 4.83871 21.9551 5.41936 22.3422 6Z" fill="url(#paint2_linear_5_13691)"/>
<path fill-rule="evenodd" clip-rule="evenodd" d="M13.0519 6.09677C12.6648 6 12.3745 6 11.9874 6V0C12.6648 0 13.3423 0.096774 14.0197 0.193548C14.6971 0.290322 15.2777 0.483871 15.9552 0.677419C16.5358 0.870968 17.2132 1.16129 17.7939 1.54839C18.3745 1.83871 18.8584 2.22581 19.439 2.70968H19.5358L15.7616 7.25806C15.2777 6.77419 14.6003 6.48387 14.0197 6.19355C13.7294 6.19355 13.3423 6.09677 13.0519 6.09677Z" fill="url(#paint3_linear_5_13691)"/>
<path d="M11.9874 0V6C8.6971 6 5.98742 8.70968 5.98742 12C5.98742 15.2903 8.6971 18 11.9874 18C13.7294 18 15.4713 17.2258 16.5358 15.871L21.0842 19.7419C18.8584 22.4516 15.4713 24 11.9874 24C5.40678 24 0.084198 18.6774 0.084198 12C0.084198 5.32258 5.31 0 11.9874 0ZM17.6003 14.0323L23.2132 16.0645C23.0197 16.7419 22.6326 17.3226 22.3423 18L17.2132 15C17.31 14.7097 17.5036 14.4194 17.6003 14.0323ZM23.6971 9.87097C23.7939 10.5484 23.8906 11.2258 23.8906 12H17.9874C17.9874 11.6129 17.9874 11.3226 17.8906 10.9355L23.6971 9.87097ZM19.6326 2.80645C20.1165 3.29032 20.6971 3.77419 21.0842 4.25806L16.5358 8.12903C16.3423 7.83871 16.0519 7.64516 15.7616 7.35484L19.6326 2.80645Z" fill="#1D2667"/>
</g>
<defs>
<linearGradient id="paint0_linear_5_13691" x1="20.0367" y1="16.4325" x2="18.6694" y2="18.4518" gradientUnits="userSpaceOnUse">
<stop stop-color="white" stop-opacity="0"/>
<stop offset="1" stop-opacity="0.1"/>
</linearGradient>
<linearGradient id="paint1_linear_5_13691" x1="21.1447" y1="13.352" x2="20.6049" y2="14.9233" gradientUnits="userSpaceOnUse">
<stop stop-color="white" stop-opacity="0"/>
<stop offset="1" stop-opacity="0.1"/>
</linearGradient>
<linearGradient id="paint2_linear_5_13691" x1="18.9176" y1="6.66203" x2="21.1305" y2="10.6218" gradientUnits="userSpaceOnUse">
<stop stop-color="white" stop-opacity="0"/>
<stop offset="1" stop-opacity="0.1"/>
</linearGradient>
<linearGradient id="paint3_linear_5_13691" x1="11.9297" y1="1.61048" x2="18.3278" y2="6.45485" gradientUnits="userSpaceOnUse">
<stop stop-color="white" stop-opacity="0"/>
<stop offset="1" stop-opacity="0.1"/>
</linearGradient>
<clipPath id="clip0_5_13691">
<rect width="24" height="24" fill="white"/>
</clipPath>
</defs>
</svg>
