<svg width="24" height="24" viewBox="0 0 24 24" fill="none" xmlns="http://www.w3.org/2000/svg">
<g clip-path="url(#clip0_5_13668)">
<path d="M12 24C18.6274 24 24 18.6274 24 12C24 5.37258 18.6274 0 12 0C5.37258 0 0 5.37258 0 12C0 18.6274 5.37258 24 12 24Z" fill="#00843D"/>
<path d="M12.0045 4.20001C12.3 4.20001 12.5903 4.27726 12.846 4.42501L18.216 7.52551C18.472 7.67338 18.6845 7.88605 18.8322 8.14212C18.9799 8.39819 19.0576 8.68863 19.0575 8.98426V15.3098C19.0575 15.9113 18.7373 16.467 18.216 16.7678L12.8453 19.869C12.5893 20.0168 12.2989 20.0946 12.0034 20.0946C11.7078 20.0946 11.4175 20.0168 11.1615 19.869L5.79001 16.7678C5.53405 16.62 5.32148 16.4075 5.17364 16.1515C5.0258 15.8956 4.9479 15.6053 4.94776 15.3098V8.98426C4.94776 8.38276 5.26876 7.82701 5.79001 7.52551L11.16 4.42501C11.4165 4.27726 11.7075 4.19926 12.0023 4.19926H12.0038L12.0045 4.20001ZM12.003 3.02926C11.5022 3.02955 11.0103 3.16145 10.5765 3.41176L5.20501 6.51151C4.77159 6.76261 4.41166 7.12308 4.16121 7.55687C3.91075 7.99067 3.77853 8.4826 3.77776 8.9835V15.309C3.77853 15.8099 3.91075 16.3018 4.16121 16.7356C4.41166 17.1694 4.77159 17.5299 5.20501 17.781L10.575 20.8815C11.4585 21.3915 12.5468 21.3915 13.4295 20.8815L18.8003 17.781C19.2337 17.5299 19.5936 17.1694 19.8441 16.7356C20.0945 16.3018 20.2267 15.8099 20.2275 15.309V8.9835C20.2267 8.4826 20.0945 7.99067 19.8441 7.55687C19.5936 7.12308 19.2337 6.76261 18.8003 6.51151L13.4303 3.41026C12.996 3.1597 12.5036 3.02779 12.0023 3.02776L12.003 3.02926Z" fill="white"/>
<path d="M11.3452 13.14C11.2835 13.1401 11.2229 13.1239 11.1695 13.0931C11.116 13.0623 11.0716 13.0179 11.0407 12.9645L10.395 11.8448C10.3642 11.7914 10.348 11.7309 10.348 11.6693C10.348 11.6076 10.3642 11.5471 10.395 11.4938L11.0407 10.374C11.0716 10.3206 11.116 10.2762 11.1695 10.2454C11.2229 10.2146 11.2835 10.1984 11.3452 10.1985H12.6637C12.7253 10.1987 12.7857 10.215 12.839 10.2458C12.8923 10.2766 12.9366 10.3208 12.9675 10.374L13.614 11.4938C13.6448 11.5471 13.661 11.6076 13.661 11.6693C13.661 11.7309 13.6448 11.7914 13.614 11.8448L12.9675 12.9645C12.9367 13.0178 12.8924 13.0621 12.8391 13.0929C12.7858 13.1237 12.7253 13.14 12.6637 13.14H11.3452ZM9.5835 11.3768C9.64517 11.3767 9.70575 11.3605 9.75918 11.3297C9.81261 11.2989 9.85703 11.2546 9.888 11.2013L10.5337 10.0815C10.5646 10.0282 10.5808 9.96762 10.5808 9.90601C10.5808 9.8444 10.5646 9.78387 10.5337 9.73051L9.72825 8.33476L8.1555 9.19276C8.09912 9.22365 8.0523 9.26944 8.02017 9.32512C7.98803 9.3808 7.9718 9.44424 7.97325 9.50851C7.986 10.137 8.0595 10.7625 8.1915 11.3768H9.5835ZM14.4247 11.3768C14.3632 11.3767 14.3027 11.3605 14.2494 11.3297C14.1961 11.2989 14.1518 11.2546 14.121 11.2013L13.4745 10.0815C13.4437 10.0282 13.4275 9.96762 13.4275 9.90601C13.4275 9.8444 13.4437 9.78387 13.4745 9.73051L14.28 8.33476L15.852 9.19276C15.9084 9.22349 15.9553 9.26912 15.9876 9.32466C16.0198 9.3802 16.0362 9.44354 16.035 9.50776C16.0222 10.1363 15.9494 10.7621 15.8175 11.3768H14.4247ZM12.1725 7.18351C12.121 7.15541 12.0632 7.14069 12.0045 7.14069C11.9458 7.14069 11.888 7.15541 11.8365 7.18351L10.242 8.05351L11.0415 9.43801C11.0723 9.49134 11.1166 9.53562 11.1699 9.56643C11.2232 9.59723 11.2837 9.61347 11.3452 9.61351H12.6637C12.7253 9.61355 12.7859 9.59734 12.8392 9.56653C12.8925 9.53572 12.9368 9.49139 12.9675 9.43801L13.767 8.05426L12.1725 7.18426V7.18351ZM8.337 11.9618C8.63781 13.0319 9.11841 14.043 9.75825 14.952L10.5345 13.608C10.5653 13.5547 10.5815 13.4941 10.5815 13.4325C10.5815 13.3709 10.5653 13.3104 10.5345 13.257L9.888 12.1373C9.85721 12.0839 9.81294 12.0396 9.75962 12.0088C9.70631 11.978 9.64583 11.9618 9.58425 11.9618H8.337ZM15.6705 11.9618C15.3699 13.0318 14.8896 14.043 14.25 14.952L13.4737 13.608C13.4429 13.5547 13.4267 13.4941 13.4267 13.4325C13.4267 13.3709 13.4429 13.3104 13.4737 13.257L14.121 12.1373C14.1518 12.0839 14.1961 12.0396 14.2494 12.0088C14.3027 11.978 14.3632 11.9618 14.4247 11.9618H15.6712H15.6705ZM11.3452 13.725C11.2835 13.7249 11.2229 13.7411 11.1695 13.7719C11.116 13.8027 11.0716 13.8471 11.0407 13.9005L10.1407 15.4605C10.6254 16.0628 11.179 16.6062 11.79 17.0798C11.8516 17.1271 11.9272 17.1528 12.0049 17.1528C12.0826 17.1528 12.1581 17.1271 12.2197 17.0798C12.8306 16.6059 13.3838 16.0622 13.8682 15.4598L12.9682 13.9005C12.9375 13.8472 12.8932 13.8029 12.8399 13.7721C12.7866 13.7413 12.7261 13.725 12.6645 13.725H11.3445H11.3452Z" fill="white"/>
</g>
<defs>
<clipPath id="clip0_5_13668">
<rect width="24" height="24" fill="white"/>
</clipPath>
</defs>
</svg>
