<svg width="24" height="24" viewBox="0 0 24 24" fill="none" xmlns="http://www.w3.org/2000/svg">
<mask id="mask0_5_13655" style="mask-type:alpha" maskUnits="userSpaceOnUse" x="0" y="1" width="24" height="22">
<path d="M7.62939e-06 1.9201H23.8657V22.3765H7.62939e-06V1.9201Z" fill="white"/>
</mask>
<g mask="url(#mask0_5_13655)">
<path fill-rule="evenodd" clip-rule="evenodd" d="M23.0915 6.59043C20.7612 1.84915 13.8763 0.49366 7.71365 3.56311C1.55076 6.63281 -1.55596 12.9647 0.774333 17.706C3.10463 22.4475 9.98957 23.8028 16.1522 20.7333C22.3148 17.6639 25.4218 11.3317 23.0915 6.59043ZM15.8111 19.8369C11.3379 22.0648 6.02293 20.4354 3.94004 16.1971C1.85714 11.959 3.79476 6.71732 8.26795 4.4894C12.7411 2.26123 18.0559 3.89094 20.139 8.12898C22.2219 12.367 20.284 17.609 15.8111 19.8369ZM16.862 11.852L9.04616 7.07732C8.81025 6.9494 8.52352 7.12021 8.52352 7.38855V16.9097C8.52352 17.178 8.81025 17.3486 9.04616 17.2206L16.862 12.4743C17.1086 12.3402 17.1086 11.9858 16.862 11.852Z" fill="#454545"/>
</g>
</svg>
