<svg width="24" height="24" viewBox="0 0 24 24" fill="none" xmlns="http://www.w3.org/2000/svg">
<g clip-path="url(#clip0_5_13633)">
<path d="M11.9929 0C5.37991 0 0 5.37981 0 11.9928C0 18.6056 5.38002 23.9857 11.9929 23.9857C18.6056 23.9857 23.9855 18.6056 23.9855 11.9928C23.9855 5.37981 18.6056 0 11.9929 0ZM11.9929 23.2211C5.80166 23.2211 0.764617 18.1841 0.764617 11.9929C0.764617 5.80155 5.80166 0.764617 11.9929 0.764617C18.1841 0.764617 23.221 5.80155 23.221 11.9929C23.221 18.1841 18.1841 23.2211 11.9929 23.2211Z" fill="#1D1D1B"/>
<path d="M11.9929 7.74978C13.3337 7.74978 14.4206 6.66286 14.4206 5.32208C14.4206 3.9813 13.3337 2.89438 11.9929 2.89438C10.6521 2.89438 9.56522 3.9813 9.56522 5.32208C9.56522 6.66286 10.6521 7.74978 11.9929 7.74978Z" fill="#128ACF"/>
<path d="M5.71782 17.1113C7.0586 17.1113 8.14552 16.0243 8.14552 14.6836C8.14552 13.3428 7.0586 12.2559 5.71782 12.2559C4.37703 12.2559 3.29012 13.3428 3.29012 14.6836C3.29012 16.0243 4.37703 17.1113 5.71782 17.1113Z" fill="#128ACF"/>
<path d="M6.16144 11.3835C6.35968 9.47281 7.48007 7.83299 9.06766 6.91496C8.80948 6.44173 8.66252 5.89903 8.66252 5.32208C8.66252 5.25537 8.66506 5.18918 8.66897 5.12353C6.2216 6.31264 4.50132 8.77163 4.36969 11.6384C4.78192 11.4556 5.23781 11.3532 5.71792 11.3532C5.86847 11.3532 6.01628 11.3642 6.16144 11.3835Z" fill="#1D1D1B"/>
<path d="M17.8225 11.3703C17.9337 11.3591 18.0462 11.3532 18.1602 11.3532C18.6828 11.3532 19.1772 11.4739 19.6171 11.6882C19.5032 8.80029 17.7781 6.31951 15.3168 5.12353C15.3204 5.18918 15.323 5.25537 15.323 5.32208C15.323 5.89903 15.1761 6.44173 14.9181 6.91496C16.5021 7.83109 17.6205 9.46531 17.8225 11.3703Z" fill="#1D1D1B"/>
<path d="M15.5008 16.6877C14.5219 17.421 13.3073 17.856 11.9929 17.856C10.6471 17.856 9.40694 17.3992 8.41639 16.6339C8.05882 17.1278 7.56962 17.5197 6.99975 17.7577C8.33931 18.9193 10.0848 19.625 11.993 19.625C13.8853 19.625 15.6174 18.9312 16.9528 17.7869C16.372 17.5606 15.8702 17.177 15.5008 16.6877Z" fill="#1D1D1B"/>
<path d="M18.1602 17.111C19.501 17.111 20.5879 16.0241 20.5879 14.6833C20.5879 13.3426 19.501 12.2556 18.1602 12.2556C16.8194 12.2556 15.7325 13.3426 15.7325 14.6833C15.7325 16.0241 16.8194 17.111 18.1602 17.111Z" fill="#128ACF"/>
<path d="M11.9929 1.61508C6.27045 1.61508 1.61498 6.27045 1.61498 11.9928C1.61498 17.7153 6.27045 22.3705 11.9929 22.3705C17.7151 22.3705 22.3705 17.7153 22.3705 11.9928C22.3705 6.27045 17.715 1.61508 11.9929 1.61508ZM18.1602 18.0137C18.0594 18.0137 17.9596 18.0084 17.8611 17.9997C16.3455 19.4806 14.274 20.3949 11.9929 20.3949C9.70626 20.3949 7.63042 19.4763 6.11408 17.9893C5.98404 18.0049 5.85209 18.0136 5.71792 18.0136C3.8787 18.0136 2.38753 16.5226 2.38753 14.6835C2.38753 13.6522 2.85642 12.7306 3.59239 12.1199C3.59175 12.0775 3.5908 12.0352 3.5908 11.9928C3.5908 8.46787 5.77311 5.44303 8.85748 4.19799C9.31866 2.91182 10.5481 1.99189 11.9928 1.99189C13.4374 1.99189 14.6669 2.91193 15.1279 4.19799C18.2123 5.44303 20.3947 8.46777 20.3947 11.9928C20.3947 12.0661 20.3938 12.139 20.392 12.2118C21.0665 12.8211 21.4906 13.7025 21.4906 14.6835C21.4906 16.5227 19.9995 18.0137 18.1602 18.0137Z" fill="#128ACF"/>
</g>
<defs>
<clipPath id="clip0_5_13633">
<rect width="24" height="24" fill="white"/>
</clipPath>
</defs>
</svg>
