<svg width="24" height="24" viewBox="0 0 24 24" fill="none" xmlns="http://www.w3.org/2000/svg">
<g clip-path="url(#clip0_5_13422)">
<path d="M12 24C18.6274 24 24 18.6274 24 12C24 5.37258 18.6274 0 12 0C5.37258 0 0 5.37258 0 12C0 18.6274 5.37258 24 12 24Z" fill="#FFE600"/>
<path fill-rule="evenodd" clip-rule="evenodd" d="M2.99475 4.06875C3.58815 3.39549 4.25476 2.7905 4.98225 2.265L8.32125 14.2035L9.801 7.875H12.606L14.085 14.2035L15.8378 7.875H18.6495L18.6758 7.9875L21.7313 19.023C21.1775 19.7893 20.5356 20.4878 19.8188 21.1042L17.241 11.7967L15.771 17.1052L15.7448 17.2177H12.6053L11.2035 12.0187L9.801 17.2177H6.6615L6.63525 17.1052L2.99475 4.06875Z" fill="white"/>
</g>
<defs>
<clipPath id="clip0_5_13422">
<rect width="24" height="24" fill="white"/>
</clipPath>
</defs>
</svg>
