<svg width="24" height="24" viewBox="0 0 24 24" fill="none" xmlns="http://www.w3.org/2000/svg">
<g clip-path="url(#clip0_5_13385)">
<path d="M11.4793 24C13.5316 24 15.1953 22.3363 15.1953 20.284C15.1953 18.2318 13.5316 16.5681 11.4793 16.5681C9.427 16.5681 7.76331 18.2318 7.76331 20.284C7.76331 22.3363 9.427 24 11.4793 24Z" fill="#22B24C"/>
<path d="M19.2899 19.645C21.133 19.645 22.6272 18.1508 22.6272 16.3077C22.6272 14.4646 21.133 12.9704 19.2899 12.9704C17.4468 12.9704 15.9526 14.4646 15.9526 16.3077C15.9526 18.1508 17.4468 19.645 19.2899 19.645Z" fill="#CECCCC"/>
<path d="M2.48521 10.5089C3.85775 10.5089 4.97041 9.39622 4.97041 8.02367C4.97041 6.65113 3.85775 5.53847 2.48521 5.53847C1.11267 5.53847 0 6.65113 0 8.02367C0 9.39622 1.11267 10.5089 2.48521 10.5089Z" fill="#CECCCC"/>
<path d="M15.3609 4.11834C16.4982 4.11834 17.4201 3.19642 17.4201 2.05917C17.4201 0.921923 16.4982 0 15.3609 0C14.2237 0 13.3018 0.921923 13.3018 2.05917C13.3018 3.19642 14.2237 4.11834 15.3609 4.11834Z" fill="#22B24C"/>
<path d="M20.7195 5.44379C20.3406 5.42824 19.963 5.49655 19.6136 5.64384C19.2642 5.79114 18.9516 6.01378 18.6982 6.29586L18.6934 6.30533L18.5751 6.44734C18.5304 6.50324 18.483 6.55696 18.4331 6.60829C17.9361 7.1432 16.7337 8.09941 15.11 7.29941C14.8659 7.17929 14.6435 7.01931 14.452 6.82604C14.0633 6.43276 13.6004 6.1206 13.0901 5.90769C12.5797 5.69479 12.0322 5.58537 11.4792 5.5858L11.271 5.59054C11.0728 5.59971 10.8749 5.56913 10.6887 5.5006C9.75617 5.1645 9.49108 4.38817 9.43901 3.79645C9.41327 3.46334 9.46177 3.12867 9.58102 2.81657C9.7224 2.42946 9.74438 2.00883 9.6441 1.6091C9.54382 1.20937 9.3259 0.84892 9.01853 0.574386C8.71117 0.299852 8.32849 0.123863 7.92002 0.0691852C7.51154 0.0145071 7.09605 0.0836555 6.7273 0.267686C6.35855 0.451716 6.05351 0.74216 5.85163 1.10145C5.64975 1.46073 5.56032 1.87233 5.59491 2.283C5.6295 2.69366 5.78653 3.0845 6.04567 3.40495C6.30481 3.72541 6.65414 3.96073 7.04848 4.08048C9.21179 4.96095 8.50173 6.62722 8.20351 7.16687C7.61375 7.90636 7.29322 8.82455 7.29463 9.77042C7.29331 9.95714 7.30438 10.1437 7.32777 10.329C7.32726 10.3337 7.32726 10.3385 7.32777 10.3432C7.39404 11.058 7.31357 12.9988 4.65795 13.0651C4.49969 13.0666 4.34151 13.0572 4.18457 13.0367C4.06038 13.0233 3.93552 13.017 3.81061 13.0178C3.17421 13.0173 2.55174 13.204 2.02074 13.5548C1.48975 13.9056 1.07371 14.4048 0.824464 14.9904C0.575222 15.576 0.503795 16.2219 0.619084 16.8478C0.734372 17.4736 1.03128 18.0518 1.47281 18.5101C1.91434 18.9684 2.48097 19.2866 3.1021 19.4252C3.72324 19.5637 4.3714 19.5164 4.96585 19.2892C5.56029 19.062 6.07473 18.6648 6.44507 18.1473C6.8154 17.6298 7.02525 17.0147 7.04848 16.3787H7.05321V16.213C7.06741 15.5929 7.3183 13.3965 10.0591 13.7183C10.0591 13.7183 10.9822 13.9645 11.4792 13.9645C12.3093 13.9655 13.1209 13.7199 13.8112 13.2589C14.5014 12.7979 15.0392 12.1423 15.3562 11.3752C15.6213 10.7692 17.0082 9.24498 19.3988 10.2959C19.4787 10.3396 19.5608 10.3791 19.6449 10.4142C19.9935 10.5547 20.3685 10.6173 20.7437 10.5977C21.119 10.5781 21.4855 10.4768 21.8175 10.3008C22.1495 10.1248 22.439 9.8784 22.6659 9.57883C22.8928 9.27926 23.0514 8.93376 23.1309 8.56647C23.2103 8.19918 23.2085 7.81898 23.1256 7.45246C23.0428 7.08593 22.8808 6.74193 22.6512 6.44451C22.4215 6.1471 22.1296 5.90344 21.796 5.73059C21.4623 5.55773 21.0949 5.45985 20.7195 5.44379Z" fill="#343433"/>
</g>
<defs>
<clipPath id="clip0_5_13385">
<rect width="24" height="24" fill="white"/>
</clipPath>
</defs>
</svg>
