<svg width="24" height="24" viewBox="0 0 24 24" fill="none" xmlns="http://www.w3.org/2000/svg">
<g clip-path="url(#clip0_5_13374)">
<path d="M12 24C18.6274 24 24 18.6274 24 12C24 5.37258 18.6274 0 12 0C5.37258 0 0 5.37258 0 12C0 18.6274 5.37258 24 12 24Z" fill="#1EB5FA"/>
<path d="M19.8038 5.36324L17.0813 6.57074C17.0018 6.61419 16.9356 6.67819 16.8894 6.75604C16.8432 6.83389 16.8188 6.92272 16.8188 7.01324V16.7482C16.8185 16.8397 16.8435 16.9295 16.8912 17.0077C16.9389 17.0858 17.0073 17.1491 17.0888 17.1907L19.8113 18.3682C19.8501 18.3894 19.8937 18.4001 19.9379 18.3992C19.9821 18.3983 20.0253 18.3859 20.0632 18.3631C20.1011 18.3404 20.1324 18.3081 20.154 18.2696C20.1756 18.231 20.1867 18.1874 20.1863 18.1432V5.58824C20.1848 5.54397 20.1722 5.50078 20.1496 5.46269C20.127 5.42459 20.0952 5.39284 20.057 5.37038C20.0188 5.34792 19.9756 5.33549 19.9313 5.33424C19.887 5.333 19.8431 5.34297 19.8038 5.36324ZM6.76501 6.55574L4.12501 5.35574C4.08622 5.33455 4.04256 5.32388 3.99836 5.32477C3.95417 5.32567 3.91098 5.33811 3.87308 5.36085C3.83517 5.38359 3.80387 5.41585 3.78229 5.45442C3.7607 5.49299 3.74957 5.53654 3.75001 5.58074V18.1357C3.75004 18.1813 3.76222 18.2259 3.78528 18.2652C3.80834 18.3044 3.84145 18.3368 3.88119 18.3589C3.92094 18.3811 3.96588 18.3922 4.01138 18.3913C4.05687 18.3903 4.10128 18.3771 4.14001 18.3532L6.79501 16.9507C6.86834 16.9061 6.92894 16.8433 6.97097 16.7684C7.01301 16.6935 7.03506 16.6091 7.03501 16.5232V6.99824C7.03215 6.90743 7.00576 6.81891 6.95843 6.74135C6.91111 6.66378 6.84446 6.59983 6.76501 6.55574ZM15.045 9.87824L12.2025 8.25074C12.1262 8.20649 12.0395 8.18319 11.9513 8.18319C11.863 8.18319 11.7764 8.20649 11.7 8.25074L8.80501 9.86324C8.72756 9.90831 8.66327 9.97287 8.61853 10.0505C8.57379 10.1281 8.55017 10.2161 8.55001 10.3057V13.6057C8.55001 13.788 8.64751 13.9567 8.80501 14.0482L11.7 15.7132C11.8553 15.8032 12.0473 15.8032 12.2025 15.7132L15.045 14.0632C15.1225 14.0182 15.1868 13.9536 15.2315 13.876C15.2762 13.7983 15.2999 13.7103 15.3 13.6207V10.3207C15.3008 10.231 15.2775 10.1426 15.2327 10.0648C15.1879 9.98701 15.1231 9.9226 15.045 9.87824Z" fill="white"/>
</g>
<defs>
<clipPath id="clip0_5_13374">
<rect width="24" height="24" fill="white"/>
</clipPath>
</defs>
</svg>
