<svg width="24" height="24" viewBox="0 0 24 24" fill="none" xmlns="http://www.w3.org/2000/svg">
<g clip-path="url(#clip0_5_13328)">
<path d="M23.9494 11.7364C23.9518 11.8176 23.9528 11.8975 23.9528 11.9783C23.9558 13.8957 23.4962 15.7855 22.6129 17.4874L16.0828 20.1227L16.0961 20.0929L23.9494 11.7364Z" fill="#0F6089"/>
<path d="M23.9494 11.7335L16.0975 20.0929L23.3915 8.3452C23.7401 9.44178 23.9281 10.5831 23.9494 11.7335Z" fill="#078FA4"/>
<path d="M23.3915 8.3452L16.0975 20.0929L16.0776 20.1246L15.2032 4.92189L22.5364 7.66583L23.3915 8.3452Z" fill="#00AAA6"/>
<path d="M23.3915 8.3452L22.5364 7.66583L23.2517 7.93276C23.3017 8.0693 23.349 8.20725 23.3915 8.3452Z" fill="#00AAA6"/>
<path d="M23.2516 7.93276L16.1839 0.761108C19.4776 1.9994 22.0616 4.62134 23.2516 7.93276ZM16.1839 0.761108L23.2516 7.93276L22.5364 7.66583L15.8145 2.32631L16.183 0.761108H16.1839Z" fill="#1EAAE2"/>
<path d="M16.0828 20.1227L22.612 17.4855C20.9586 20.6747 17.962 22.9543 14.4472 23.6967L16.0143 20.2743L16.0828 20.1227Z" fill="#0C7392"/>
<path d="M22.5364 7.66582L15.2032 4.92188L15.8145 2.32629L22.5364 7.66582Z" fill="#1EAAE2"/>
<path d="M16.183 0.761104L15.814 2.3263L12.9321 0.038269C14.0444 0.124525 15.1389 0.367886 16.183 0.761104Z" fill="#ABCF3A"/>
<path d="M16.0776 20.4145L16.2792 20.0929L16.1448 20.3953L16.0776 20.4145Z" fill="#CD1685"/>
<path d="M16.0843 20.1227L16.0143 20.2743L7.54678 14.0972L7.65639 13.9998L15.2032 4.92189L16.0777 20.1246L16.0843 20.1227Z" fill="#8F9990"/>
<path d="M16.0143 20.2743L14.4472 23.6967C13.6352 23.8678 12.8076 23.9536 11.9778 23.9528C11.6471 23.9528 11.3235 23.9395 11.0022 23.9135L3.55228 17.4364L3.76913 17.4836L16.0143 20.2743Z" fill="#CD1685"/>
<path d="M16.0143 20.2743L3.76913 17.4855L7.54677 14.0972L16.0143 20.2743Z" fill="#EC1076"/>
<path d="M15.8145 2.3263L15.2032 4.92189L12.9321 0.038269L15.8145 2.3263Z" fill="#ABCF3A"/>
<path d="M12.9321 0.0382704L15.2027 4.92189L6.86316 1.14236C8.46181 0.387249 10.2084 -0.0029546 11.9764 -1.40202e-05C12.2981 -1.40202e-05 12.6161 0.013231 12.9321 0.0382704Z" fill="#E0E224"/>
<path d="M15.2032 4.92189L7.65639 13.9998L4.37482 9.95291L15.2032 4.92189Z" fill="#F9A516"/>
<path d="M15.2032 4.92189L4.37482 9.95292L6.86316 1.14426L15.2032 4.92189Z" fill="#FDCD11"/>
<path d="M11.4458 24.3422L10.9658 23.9102L11.1735 23.9438L11.4458 24.3422Z" fill="#CD1685"/>
<path d="M3.55229 17.4364L11.0008 23.9135L10.9658 23.9102L2.67969 19.5265L3.49984 17.3901L3.55229 17.4364ZM2.67969 19.5265L10.9658 23.9102C7.72197 23.6386 4.72934 22.0553 2.67969 19.5265Z" fill="#B9204A"/>
<path d="M4.37479 9.95291L7.65637 13.9998L7.54676 14.0972L1.73999 13.9748L4.37479 9.95291Z" fill="#F05B28"/>
<path d="M7.54676 14.0972L3.76912 17.4855L1.73999 13.9748L7.54676 14.0972Z" fill="#F05B28"/>
<path d="M6.86314 1.14378L4.3748 9.95292L1.73999 13.9748L1.74992 13.8902L0.0198364 11.3211C0.260309 6.81496 2.99243 2.9726 6.86314 1.14378Z" fill="#FDCD11"/>
<path d="M1.74 13.9748L3.76914 17.4855L3.55228 17.4364L1.74 13.9748ZM3.55228 17.4364L3.49984 17.3891L2.67969 19.5265C2.16465 18.8936 1.7157 18.2097 1.33984 17.4855L1.74 13.9758L3.55228 17.4364Z" fill="#AB1F25"/>
<path d="M0.0174866 11.3211L1.74993 13.8902L1.74001 13.9748L1.33985 17.4846L0.0174866 11.3211Z" fill="#CB0010"/>
<path d="M0.0198567 11.3211L1.34269 17.4846C0.458516 15.7833 -0.00207809 13.8937 7.04822e-06 11.9764C7.04822e-06 11.7567 0.00521099 11.5389 0.0198567 11.3211Z" fill="#CB0010"/>
<path d="M18.703 13.9998L19.2482 11.7028C19.4731 11.0808 19.5851 10.4235 19.5789 9.76205C19.5788 9.32303 19.4128 8.90027 19.114 8.57858L19.0328 8.49118C18.4743 7.88929 17.4737 7.5463 16.6507 7.5463H16.363C15.6175 7.54584 14.8995 7.82754 14.3532 8.3348L13.6734 8.96835L13.5572 8.70189C13.4966 8.56158 13.411 8.43349 13.3044 8.32394C12.7445 7.75604 11.9802 7.43657 11.1827 7.43717C10.5942 7.43707 10.0188 7.61116 9.52913 7.93748L8.85921 8.42173V8.37449C8.85895 7.91649 8.4876 7.54535 8.0296 7.54535H0.765351L0.109131 9.95291L6.12472 10.0625L5.24078 14.8134C5.09055 15.4602 5.50015 16.0975 6.16157 16.1773C6.69042 16.2431 7.18955 15.9177 7.34267 15.4072L8.98819 10.3238C9.16582 9.73087 9.96614 9.35386 10.5803 9.43417C10.9444 9.48164 11.2698 9.6852 11.4717 9.99183C11.6737 10.2985 11.7322 10.6778 11.632 11.031L10.7655 14.8072C10.6506 15.2122 10.7322 15.6477 10.9861 15.9835C11.24 16.3194 11.6366 16.5167 12.0576 16.5165C12.6307 16.5165 12.9222 16.1532 13.1088 15.6113L14.76 10.7032C14.9518 10.1471 15.6321 9.81591 16.2104 9.92599C16.5396 9.98887 16.8267 10.1883 17.0005 10.4749C17.1744 10.7615 17.2186 11.1083 17.1222 11.4293L16.2463 14.6518C16.1127 15.089 16.1943 15.5636 16.4662 15.931C16.7382 16.2984 17.1682 16.5152 17.6254 16.5151L23.2814 16.406L23.9376 13.9998H18.703Z" fill="white"/>
</g>
<defs>
<clipPath id="clip0_5_13328">
<rect width="24" height="24" fill="white"/>
</clipPath>
</defs>
</svg>
