<svg width="24" height="24" viewBox="0 0 24 24" fill="none" xmlns="http://www.w3.org/2000/svg">
<path fill-rule="evenodd" clip-rule="evenodd" d="M7.07947 8.24106C7.03973 8.57483 7 8.9245 6.97616 9.27417C6.37218 9.69536 5.80794 10.1245 5.28344 10.5536C5.01324 10.7762 4.75099 10.9987 4.50463 11.2291C2.56556 9.25033 1.73907 7.4702 2.27152 6.55629C2.74039 5.7457 4.3139 5.51523 6.52318 5.95232C6.61059 5.57086 6.69801 5.2053 6.80132 4.85563C4.12318 4.31523 2.08079 4.67285 1.30993 6C1.10331 6.34967 0.999996 6.74702 0.999996 7.16821V7.20795C1.01589 9.09139 2.86755 11.6106 5.95894 13.9868C6.27682 14.2331 6.61854 14.4795 6.96821 14.7258C7.03178 15.4967 7.12715 16.2358 7.24635 16.9272C7.30198 17.2371 7.35761 17.5391 7.42119 17.8331C4.74304 18.5245 2.79602 18.3497 2.26357 17.4358C1.7947 16.6252 2.38278 15.1391 3.86092 13.4464L3.09006 12.6358C1.26225 14.702 0.531122 16.6649 1.30198 18C1.84238 18.9377 3.01059 19.3828 4.5841 19.3828C6.16556 19.3828 8.15231 18.9298 10.3298 18.0477C10.3854 18.0238 10.4411 18 10.5046 17.9762C10.8861 17.8172 11.2675 17.6503 11.6569 17.4676C11.6728 17.4596 11.6887 17.4517 11.7046 17.4437C12.396 17.7616 13.0795 18.0477 13.755 18.294C14.049 18.4053 14.343 18.5007 14.6291 18.596C13.8901 21.2662 12.7616 22.8715 11.7046 22.8715C10.7669 22.8715 9.77351 21.6159 9.05033 19.4702C8.68476 19.5974 8.32715 19.7086 7.96953 19.804C8.8437 22.3947 10.1709 23.9841 11.7046 23.9841C13.9377 23.9841 15.7179 20.6305 16.3298 15.743C16.3695 15.4093 16.4013 15.0596 16.4331 14.7179C17.0609 14.2808 17.649 13.8278 18.1973 13.3669C18.2291 13.343 18.2609 13.3192 18.2927 13.2874C18.4993 13.1126 18.698 12.9377 18.8967 12.755C20.8437 14.7258 21.6702 16.5139 21.1377 17.4278C20.7007 18.1828 19.2622 18.4371 17.2914 18.1113C17.1563 18.0874 17.0291 18.0636 16.894 18.0397C16.8066 18.4132 16.7192 18.7709 16.6159 19.1205C16.7828 19.1523 16.9497 19.1841 17.1086 19.2079C17.7364 19.3113 18.3166 19.3669 18.849 19.3669C20.4464 19.3669 21.5828 18.898 22.1073 17.9921C22.8066 16.7841 22.298 15.0278 20.6689 13.057C19.8265 12.0318 18.7298 10.9987 17.4583 10.0132C17.1324 9.75894 16.7907 9.51258 16.449 9.26623C16.3854 8.49536 16.2901 7.75629 16.1629 7.05695C16.1073 6.74702 16.0517 6.44503 15.9881 6.15099C16.4411 6.03179 16.8781 5.93642 17.2993 5.8649C19.2702 5.53907 20.7086 5.79338 21.1457 6.54834C21.6066 7.34305 21.0424 8.79735 19.6119 10.4583C19.8901 10.7285 20.1444 10.9987 20.3828 11.2609C20.4861 11.1497 20.5815 11.0305 20.6689 10.9192C22.2901 8.94834 22.8066 7.19205 22.1073 5.98411C21.4079 4.77616 19.6358 4.33907 17.1166 4.76027C15.9483 4.95099 14.6689 5.3245 13.3417 5.83311C13.2861 5.85695 13.2384 5.87285 13.1828 5.89669C12.7377 6.07152 12.2927 6.26225 11.8477 6.46887C11.8079 6.48477 11.7682 6.50861 11.7285 6.5245C11.0291 6.19868 10.3377 5.90464 9.67019 5.65828C9.37615 5.54702 9.08212 5.45166 8.79602 5.35629C9.5351 2.69404 10.6636 1.08874 11.7205 1.08874C12.6583 1.08874 13.6596 2.35232 14.3828 4.49801C14.7483 4.37881 15.106 4.26755 15.4636 4.16424C14.5656 1.59735 13.2384 0 11.6967 0C9.47152 0 7.68344 3.35364 7.07947 8.24106ZM14.1841 7.83576C14.1682 7.81987 14.1444 7.81192 14.1285 7.80397C13.755 7.5894 13.3735 7.38278 13.0079 7.18411C13.0397 7.16821 13.0715 7.15232 13.1033 7.14437C13.5563 6.95364 14.0093 6.77881 14.4464 6.62781C14.5973 6.57219 14.7483 6.5245 14.8914 6.47682C14.955 6.77086 15.0106 7.0649 15.0662 7.37484C15.1298 7.73245 15.1775 8.09801 15.2252 8.47152C14.8834 8.25695 14.5338 8.04238 14.1841 7.83576ZM8.32715 7.41457C8.38278 7.08874 8.43841 6.77881 8.50993 6.47682C8.80397 6.57219 9.09801 6.66755 9.4 6.78676C9.72582 6.90596 10.0596 7.04106 10.4013 7.18411C10.0278 7.38278 9.64635 7.5894 9.27284 7.80397C9.25695 7.81192 9.24106 7.81987 9.22516 7.83576C8.86755 8.04238 8.51788 8.25695 8.17616 8.47152C8.22384 8.10596 8.27152 7.75629 8.32715 7.41457ZM9.82913 15.2344C9.55894 15.0834 9.29669 14.9245 9.04238 14.7656C8.69271 14.551 8.35894 14.3364 8.03311 14.1139C7.98543 13.4384 7.96159 12.7311 7.96159 12C7.96159 11.6185 7.96953 11.245 7.98543 10.8795C8.00132 10.5377 8.01721 10.2119 8.04106 9.88609C8.60529 9.50464 9.20132 9.13113 9.82913 8.76556C10.0675 8.62252 10.3139 8.48742 10.5523 8.36026C10.9338 8.15364 11.3152 7.96291 11.6967 7.77219C12.3086 8.06623 12.9285 8.4 13.5642 8.76556C13.8344 8.9245 14.0967 9.0755 14.351 9.23444C14.7007 9.44901 15.0344 9.66358 15.3603 9.88609C15.4079 10.5616 15.4318 11.2689 15.4318 12C15.4318 12.3815 15.4238 12.755 15.4079 13.1205C15.392 13.4543 15.3762 13.7881 15.3523 14.1139C14.7881 14.4954 14.192 14.8689 13.5642 15.2344C13.3973 15.3298 13.2384 15.4252 13.0715 15.5126C12.6503 15.751 12.2291 15.9656 11.8159 16.1722C11.7762 16.1881 11.7364 16.2119 11.6967 16.2278C11.0768 15.9258 10.449 15.5921 9.82913 15.2344ZM5.90331 12.5086C5.69668 12.3417 5.50596 12.1669 5.31523 12C5.57748 11.7695 5.84768 11.5311 6.13377 11.3007C6.37218 11.1099 6.61854 10.9113 6.88079 10.7205C6.8649 11.0384 6.85695 11.3642 6.85695 11.6901C6.85695 11.7934 6.85695 11.8967 6.85695 12C6.85695 12.4371 6.8649 12.8583 6.88079 13.2795C6.53907 13.0252 6.20529 12.7709 5.90331 12.5086ZM16.5444 12.3179C16.5444 12.2146 16.5444 12.1113 16.5444 12C16.5444 11.5629 16.5364 11.1417 16.5205 10.7205C16.8622 10.9748 17.1881 11.2371 17.498 11.4914C17.6967 11.6583 17.8954 11.8331 18.0781 12C17.8715 12.1828 17.6569 12.3735 17.4344 12.5563C17.4026 12.5801 17.3709 12.6119 17.3391 12.6358C17.0768 12.8503 16.7987 13.0728 16.5126 13.2874C16.5285 12.9695 16.5444 12.6437 16.5444 12.3179ZM8.3351 16.6252C8.27152 16.2675 8.22384 15.902 8.17616 15.5285C8.51788 15.743 8.8596 15.9497 9.21721 16.1563C9.23311 16.1722 9.25695 16.1801 9.27284 16.1881C9.64635 16.4026 10.0199 16.6093 10.4013 16.8079C10.4013 16.8079 10.3934 16.8079 10.3934 16.8159C9.99602 16.9828 9.60662 17.1338 9.22516 17.2768C9.16953 17.3007 9.1139 17.3166 9.05827 17.3404C8.87549 17.404 8.69271 17.4676 8.50993 17.5232C8.44635 17.2371 8.39073 16.9351 8.3351 16.6252ZM14.0013 17.2132C13.6675 17.0861 13.3338 16.9589 12.992 16.8159C13.0397 16.7921 13.0874 16.7682 13.1351 16.7444C13.4609 16.5695 13.7868 16.3868 14.1205 16.204C14.2159 16.1483 14.3113 16.0927 14.3987 16.0371C14.6768 15.8702 14.947 15.7033 15.2172 15.5364C15.1695 15.894 15.1219 16.2517 15.0662 16.5854C15.0106 16.9113 14.947 17.2212 14.8834 17.5311C14.5973 17.4278 14.3033 17.3245 14.0013 17.2132ZM10.2662 12C10.2662 11.2132 10.9099 10.5695 11.6967 10.5695C12.4834 10.5695 13.1271 11.2132 13.1271 12C13.1271 12.7868 12.4834 13.4305 11.6967 13.4305C10.9099 13.4305 10.2662 12.7868 10.2662 12Z" fill="url(#paint0_linear_5_13237)"/>
<defs>
<linearGradient id="paint0_linear_5_13237" x1="2.9178" y1="11.615" x2="21.7441" y2="12.4405" gradientUnits="userSpaceOnUse">
<stop stop-color="#6B57A5"/>
<stop offset="1" stop-color="#59499E"/>
</linearGradient>
</defs>
</svg>
