<svg width="24" height="24" viewBox="0 0 24 24" fill="none" xmlns="http://www.w3.org/2000/svg">
<g clip-path="url(#clip0_5_13220)">
<path fill-rule="evenodd" clip-rule="evenodd" d="M12 0C18.6264 0 24 5.3736 24 12C24 18.6264 18.6264 24 12 24C5.3736 24 0 18.6264 0 12C0 5.3736 5.3736 0 12 0Z" fill="#383B4A"/>
<path fill-rule="evenodd" clip-rule="evenodd" d="M18.7272 12.732L18.2376 13.2216C12.6744 7.68238 6.504 10.7616 5.0304 11.628C5.08256 11.4649 5.1731 11.3168 5.2944 11.196L11.2416 5.24878C11.3424 5.1478 11.4621 5.06768 11.5939 5.01302C11.7257 4.95836 11.8669 4.93022 12.0096 4.93022C12.1523 4.93022 12.2936 4.95836 12.4253 5.01302C12.5571 5.06768 12.6768 5.1478 12.7776 5.24878L18.7248 11.196C18.8262 11.2965 18.9068 11.416 18.9618 11.5477C19.0168 11.6794 19.0453 11.8207 19.0455 11.9635C19.0457 12.1062 19.0177 12.2476 18.9631 12.3795C18.9085 12.5114 18.8283 12.6312 18.7272 12.732Z" fill="white"/>
<path fill-rule="evenodd" clip-rule="evenodd" d="M14.1264 17.3328L12.78 18.6792C12.6792 18.7802 12.5595 18.8603 12.4277 18.9149C12.2959 18.9696 12.1547 18.9977 12.012 18.9977C11.8693 18.9977 11.7281 18.9696 11.5963 18.9149C11.4645 18.8603 11.3448 18.7802 11.244 18.6792L9.9576 17.3928C12.0264 15.9288 13.7952 17.0856 14.1264 17.3328Z" fill="white"/>
<path fill-rule="evenodd" clip-rule="evenodd" d="M17.9352 13.524L16.3992 15.06C11.8344 10.8264 7.25521 13.5528 6.56881 14.004L6.23041 13.6656C6.23496 13.6631 6.23903 13.6599 6.24241 13.656C12.2232 8.86081 17.4288 13.0896 17.9352 13.524Z" fill="white"/>
<path fill-rule="evenodd" clip-rule="evenodd" d="M8.57041 16.008L8.20081 15.6384C11.7504 12.4032 15.6504 15.156 16.0272 15.4344L14.4576 17.004C11.6472 14.2992 9.04081 15.7128 8.57041 16.008Z" fill="white"/>
</g>
<defs>
<clipPath id="clip0_5_13220">
<rect width="24" height="24" fill="white"/>
</clipPath>
</defs>
</svg>
