<svg width="24" height="24" viewBox="0 0 24 24" fill="none" xmlns="http://www.w3.org/2000/svg">
<g clip-path="url(#clip0_5_13213)">
<path d="M12 24C18.6274 24 24 18.6274 24 12C24 5.37258 18.6274 0 12 0C5.37258 0 0 5.37258 0 12C0 18.6274 5.37258 24 12 24Z" fill="#00ABDF"/>
<path d="M17.8293 7.83282L11.9836 3.77716L6.13787 7.83282L11.9836 19.2476L17.8293 7.83282ZM11.9836 21.3643L4.89434 7.52128L11.9836 2.60287L19.0728 7.52128L11.9836 21.3643Z" fill="white"/>
<path d="M6.13787 16.1344L11.9836 20.19L17.8293 16.1344L11.9836 4.71955L6.13787 16.1344ZM11.9836 2.60287L19.0728 16.4459L11.9836 21.3643L4.89434 16.4459L11.9836 2.60287Z" fill="white"/>
</g>
<defs>
<clipPath id="clip0_5_13213">
<rect width="24" height="24" fill="white"/>
</clipPath>
</defs>
</svg>
