<svg width="24" height="24" viewBox="0 0 24 24" fill="none" xmlns="http://www.w3.org/2000/svg">
<g clip-path="url(#clip0_5_13207)">
<path fill-rule="evenodd" clip-rule="evenodd" d="M16.0004 -6.10352e-05H7.99959C3.59991 -6.10352e-05 0 3.55715 0 7.90465V16.0952C0 20.4421 3.59991 23.9999 7.99959 23.9999H16.0004C20.4007 23.9999 24 20.4427 24 16.0952V7.90465C24 3.55715 20.4007 -6.10352e-05 16.0004 -6.10352e-05Z" fill="#00569D"/>
<path fill-rule="evenodd" clip-rule="evenodd" d="M15.9449 15.1644C15.8615 15.2598 15.7751 15.3528 15.6863 15.4422C15.0239 16.104 14.1845 16.5882 13.2449 16.818L13.2359 16.8198L13.2437 16.818C13.1969 16.8264 13.1477 16.8318 13.0979 16.8318C12.6749 16.8318 12.3329 16.4886 12.3329 16.0662C12.3329 15.7284 12.5513 15.4422 12.8543 15.3396L12.8417 15.3432C13.5215 15.186 14.1293 14.8386 14.6063 14.3616C14.6741 14.2944 14.7401 14.223 14.8019 14.1498C14.9411 14.013 15.1307 13.9272 15.3419 13.9272C15.7649 13.9272 16.1069 14.2704 16.1069 14.6928C16.1069 14.8704 16.0463 15.0348 15.9449 15.1644Z" fill="white"/>
<path fill-rule="evenodd" clip-rule="evenodd" d="M17.1515 12.5483C17.1011 12.8825 16.7315 13.1063 16.4105 13.1063C16.0115 13.1063 15.5855 12.7037 15.6449 12.2939C15.6701 12.1205 15.6839 11.9429 15.6839 11.7617C15.6839 10.7459 15.2723 9.82674 14.6063 9.16134C13.9415 8.49594 13.0217 8.08434 12.0065 8.08434C10.9913 8.08434 10.0715 8.49594 9.40608 9.16134C8.74068 9.82674 8.32908 10.7459 8.32908 11.7617C8.32908 12.7769 8.74068 13.6967 9.40608 14.3615C9.76788 14.7233 10.2047 15.0101 10.6907 15.1967C10.9067 15.2783 11.0489 15.6263 11.0489 15.8453C11.0489 16.2749 10.7003 16.6241 10.2701 16.6241C10.1867 16.6241 10.1231 16.6163 10.0463 16.5845C9.39708 16.3217 8.81448 15.9293 8.32608 15.4421C7.38348 14.5001 6.80148 13.1987 6.80148 11.7623C6.80148 10.3259 7.38408 9.02394 8.32608 8.08194C9.26808 7.13994 10.5689 6.55734 12.0065 6.55734C13.4435 6.55734 14.7443 7.13994 15.6863 8.08134C16.6289 9.02334 17.2109 10.3247 17.2109 11.7617C17.2109 12.0293 17.1911 12.2921 17.1515 12.5483Z" fill="white"/>
<path fill-rule="evenodd" clip-rule="evenodd" d="M19.5815 15.0773C19.4501 15.3113 19.1999 15.4697 18.9131 15.4697C18.6533 15.4697 18.4241 15.3413 18.2855 15.1439L18.2303 15.0533C18.1769 14.9489 18.1463 14.8295 18.1463 14.7041C18.1463 14.6105 18.1637 14.5211 18.1937 14.4383C18.5489 13.6181 18.7457 12.7133 18.7457 11.7623C18.7457 9.90173 17.9921 8.21633 16.7717 6.99653C15.5525 5.77673 13.8683 5.02313 12.0071 5.02313C10.1453 5.02313 8.46109 5.77673 7.24189 6.99653C6.02149 8.21633 5.26729 9.90173 5.26729 11.7623C5.26729 13.6229 6.02149 15.3083 7.24189 16.5275C8.35489 17.6417 9.85669 18.3677 11.5271 18.4847L11.5103 18.4835C11.7377 18.5075 11.9345 18.6305 12.0581 18.8093L12.1067 18.8903C12.1631 18.9959 12.1943 19.1165 12.1943 19.2443C12.1943 19.6625 11.8595 20.0015 11.4431 20.0093C9.38449 19.8713 7.53289 18.9791 6.16069 17.6075C4.66549 16.1117 3.73969 14.0447 3.73969 11.7617C3.73969 9.47873 4.66549 7.41173 6.16069 5.91653C7.65709 4.42013 9.72409 3.49493 12.0065 3.49493C14.2895 3.49493 16.3559 4.42013 17.8523 5.91653C19.3481 7.41233 20.2739 9.47933 20.2739 11.7617C20.2739 12.9407 20.0267 14.0615 19.5815 15.0773Z" fill="white"/>
</g>
<defs>
<clipPath id="clip0_5_13207">
<rect width="24" height="24" fill="white"/>
</clipPath>
</defs>
</svg>
