<svg width="24" height="24" viewBox="0 0 24 24" fill="none" xmlns="http://www.w3.org/2000/svg">
<g clip-path="url(#clip0_5_13177)">
<path d="M12 24C18.6274 24 24 18.6274 24 12C24 5.37258 18.6274 0 12 0C5.37258 0 0 5.37258 0 12C0 18.6274 5.37258 24 12 24Z" fill="#23B852"/>
<path d="M14.0438 14.361H16.5863V16.584H8.9475L18.4297 7.095C18.5801 6.94282 18.6829 6.75013 18.7255 6.54048C18.7681 6.33083 18.7488 6.11331 18.6697 5.9145C18.5859 5.7169 18.4456 5.54844 18.2664 5.43023C18.0872 5.31202 17.8772 5.24933 17.6625 5.25H6.3375C6.19428 5.249 6.0523 5.27649 5.91981 5.33088C5.78731 5.38528 5.66696 5.46548 5.56576 5.56682C5.46456 5.66816 5.38452 5.78862 5.33031 5.92119C5.2761 6.05375 5.2488 6.19578 5.25 6.339V14.361L9.95625 9.651H7.41375V7.416H15.0398L5.57025 16.905C5.41988 17.0572 5.3171 17.2499 5.27448 17.4595C5.23186 17.6692 5.25124 17.8867 5.33025 18.0855C5.502 18.4867 5.89125 18.75 6.3375 18.75H17.6625C17.8054 18.75 17.947 18.7218 18.079 18.6671C18.2111 18.6123 18.331 18.5321 18.432 18.4309C18.533 18.3298 18.6131 18.2097 18.6676 18.0776C18.7222 17.9455 18.7502 17.8039 18.75 17.661V9.651L14.0438 14.361Z" fill="white"/>
</g>
<defs>
<clipPath id="clip0_5_13177">
<rect width="24" height="24" fill="white"/>
</clipPath>
</defs>
</svg>
