<svg width="24" height="24" viewBox="0 0 24 24" fill="none" xmlns="http://www.w3.org/2000/svg">
<g clip-path="url(#clip0_5_13096)">
<path fill-rule="evenodd" clip-rule="evenodd" d="M7.88183 18.4844C6.69223 19.3914 5.50302 20.2979 4.31384 21.2045C1.6776 19.0067 0 15.6977 0 11.9971C0 9.81826 0.581375 7.77539 1.59787 6.01472L7.05545 13.154L5.03072 15.2614C5.26586 15.7386 5.61956 16.3386 6.1464 16.9555C6.7604 17.6744 7.39467 18.165 7.88183 18.4844Z" fill="#004466"/>
<path fill-rule="evenodd" clip-rule="evenodd" d="M18.4701 16.0981C19.3772 17.2877 20.2837 18.4769 21.1903 19.6661C18.9925 22.3023 15.6835 23.9799 11.9829 23.9799C9.80405 23.9799 7.76118 23.3986 6.00055 22.3821L13.1398 16.9245L15.2472 18.9492C15.7244 18.7141 16.3244 18.3604 16.9413 17.8335C17.6603 17.2195 18.1507 16.5853 18.4701 16.0981Z" fill="#004466"/>
<path fill-rule="evenodd" clip-rule="evenodd" d="M16.0839 5.50977C17.2735 4.6028 18.4627 3.69624 19.6519 2.78969C22.2881 4.98749 23.9658 8.2964 23.9658 11.9971C23.9658 14.1759 23.3844 16.2188 22.3679 17.9794L16.9103 10.8401L18.935 8.73275C18.6999 8.25553 18.3462 7.65556 17.8194 7.03865C17.2054 6.31967 16.5711 5.8292 16.0839 5.50977Z" fill="#004466"/>
<path fill-rule="evenodd" clip-rule="evenodd" d="M5.49557 7.89604C4.5886 6.70641 3.68201 5.51723 2.77545 4.32801C4.97328 1.69178 8.2822 0.0141754 11.9829 0.0141754C14.1617 0.0141754 16.2046 0.595551 17.9652 1.61204L10.8259 7.06963L8.71855 5.04493C8.24129 5.28004 7.64132 5.63374 7.02441 6.16057C6.30544 6.77461 5.815 7.40888 5.49557 7.89604Z" fill="#004466"/>
</g>
<defs>
<clipPath id="clip0_5_13096">
<rect width="24" height="24" fill="white"/>
</clipPath>
</defs>
</svg>
